M48
; DRILL file {KiCad 8.0.4-1.fc40} date 2024-10-03T17:07:46+0530
; FORMAT={-:-/ absolute / inch / decimal}
; #@! TF.CreationDate,2024-10-03T17:07:46+05:30
; #@! TF.GenerationSoftware,Kicad,Pcbnew,8.0.4-1.fc40
; #@! TF.FileFunction,Plated,1,2,PTH
FMAT,2
INCH
; #@! TA.AperFunction,Plated,PTH,ComponentDrill
T1C0.0079
; #@! TA.AperFunction,Plated,PTH,ViaDrill
T2C0.0118
; #@! TA.AperFunction,Plated,PTH,ComponentDrill
T3C0.0350
%
G90
G05
T1
X6.558Y-3.9796
X6.616Y-3.9215
X6.616Y-3.9796
X6.616Y-4.0377
X6.6741Y-3.9796
T2
X6.2087Y-3.4398
X6.2087Y-3.5398
X6.2087Y-3.6398
X6.2087Y-3.7402
X6.2087Y-3.8398
X6.2087Y-3.9398
X6.2087Y-4.0398
X6.2087Y-4.1398
X6.2087Y-4.2398
X6.2087Y-4.3398
X6.2087Y-4.4398
X6.2634Y-3.363
X6.3071Y-3.6417
X6.3209Y-4.2461
X6.3254Y-4.5606
X6.3378Y-4.1551
X6.3622Y-4.0925
X6.3878Y-3.4094
X6.3937Y-4.2195
X6.3976Y-3.5709
X6.4104Y-3.4291
X6.4213Y-4.2598
X6.4254Y-4.5606
X6.4255Y-3.7835
X6.4331Y-3.4547
X6.439Y-4.0607
X6.4409Y-3.9914
X6.4764Y-3.9199
X6.4843Y-3.7461
X6.502Y-4.2594
X6.5098Y-3.4724
X6.5197Y-4.1319
X6.5254Y-4.5606
X6.5315Y-3.7559
X6.5453Y-3.7835
X6.5472Y-3.5079
X6.5478Y-3.7285
X6.548Y-4.2594
X6.5571Y-4.2195
X6.5638Y-3.3634
X6.5903Y-4.126
X6.6254Y-4.5606
X6.6497Y-4.126
X6.6634Y-3.6526
X6.6811Y-3.5925
X6.6894Y-3.3634
X6.7096Y-4.4085
X6.7177Y-4.0984
X6.7254Y-4.5606
X6.7283Y-4.124
X6.7343Y-4.2193
X6.7362Y-4.2657
X6.7362Y-4.3543
X6.7736Y-3.8366
X6.7835Y-4.2638
X6.8012Y-3.3701
X6.8137Y-4.0354
X6.8199Y-4.4636
X6.8254Y-4.5606
X6.8327Y-3.378
X6.8356Y-4.5157
X6.8366Y-4.0571
X6.837Y-3.6161
X6.8396Y-3.7047
X6.8504Y-4.1043
X6.8583Y-3.4173
X6.862Y-3.6378
X6.8621Y-3.8946
X6.8705Y-4.0039
X6.8799Y-3.8524
X6.9016Y-3.435
X6.9016Y-4.2657
X6.9173Y-3.7071
X6.9173Y-4.3543
X6.9254Y-4.5606
X6.9547Y-3.9512
X6.9587Y-3.9193
X6.989Y-3.3634
X7.0138Y-3.9587
X7.0197Y-3.4398
X7.0197Y-3.5398
X7.0197Y-4.6102
X7.0201Y-3.6398
X7.0374Y-4.5906
X7.0498Y-3.4398
X7.0498Y-3.5398
X7.0498Y-3.6398
X7.0498Y-3.7398
X7.0498Y-3.8398
X7.0498Y-3.9398
X7.0498Y-4.0398
X7.0498Y-4.1398
X7.0498Y-4.2398
X7.0498Y-4.3398
X7.0498Y-4.4398
X7.0551Y-4.6102
X7.0728Y-4.5906
X7.0906Y-4.6102
T3
X6.1715Y-3.3898
X6.1715Y-3.5898
X6.1715Y-3.7898
X6.1715Y-3.9898
X6.1715Y-4.1898
X6.1715Y-4.3898
X6.1793Y-3.4898
X6.1793Y-3.6898
X6.1793Y-3.8898
X6.1793Y-4.0898
X6.1793Y-4.2898
X6.1793Y-4.4898
X6.2754Y-4.5846
X6.3754Y-4.5768
X6.4754Y-4.5846
X6.5754Y-4.5768
X6.6754Y-4.5846
X6.7754Y-4.5768
X6.8754Y-4.5768
X6.9754Y-4.5846
X7.0715Y-3.4898
X7.0715Y-3.6898
X7.0715Y-3.8898
X7.0715Y-4.0898
X7.0715Y-4.2898
X7.0715Y-4.4898
X7.0793Y-3.3898
X7.0793Y-3.5898
X7.0793Y-3.7898
X7.0793Y-3.9898
X7.0793Y-4.1898
X7.0793Y-4.3898
M30
