%TF.GenerationSoftware,KiCad,Pcbnew,8.0.4-1.fc40*%
%TF.CreationDate,2024-10-03T17:07:43+05:30*%
%TF.ProjectId,zepto,7a657074-6f2e-46b6-9963-61645f706362,Mark3*%
%TF.SameCoordinates,Original*%
%TF.FileFunction,Copper,L1,Top*%
%TF.FilePolarity,Positive*%
%FSLAX46Y46*%
G04 Gerber Fmt 4.6, Leading zero omitted, Abs format (unit mm)*
G04 Created by KiCad (PCBNEW 8.0.4-1.fc40) date 2024-10-03 17:07:43*
%MOMM*%
%LPD*%
G01*
G04 APERTURE LIST*
G04 Aperture macros list*
%AMRoundRect*
0 Rectangle with rounded corners*
0 $1 Rounding radius*
0 $2 $3 $4 $5 $6 $7 $8 $9 X,Y pos of 4 corners*
0 Add a 4 corners polygon primitive as box body*
4,1,4,$2,$3,$4,$5,$6,$7,$8,$9,$2,$3,0*
0 Add four circle primitives for the rounded corners*
1,1,$1+$1,$2,$3*
1,1,$1+$1,$4,$5*
1,1,$1+$1,$6,$7*
1,1,$1+$1,$8,$9*
0 Add four rect primitives between the rounded corners*
20,1,$1+$1,$2,$3,$4,$5,0*
20,1,$1+$1,$4,$5,$6,$7,0*
20,1,$1+$1,$6,$7,$8,$9,0*
20,1,$1+$1,$8,$9,$2,$3,0*%
G04 Aperture macros list end*
%TA.AperFunction,ComponentPad*%
%ADD10C,1.524000*%
%TD*%
%TA.AperFunction,SMDPad,CuDef*%
%ADD11R,0.600000X1.550000*%
%TD*%
%TA.AperFunction,SMDPad,CuDef*%
%ADD12R,1.200000X1.800000*%
%TD*%
%TA.AperFunction,SMDPad,CuDef*%
%ADD13RoundRect,0.200000X-0.275000X0.200000X-0.275000X-0.200000X0.275000X-0.200000X0.275000X0.200000X0*%
%TD*%
%TA.AperFunction,SMDPad,CuDef*%
%ADD14RoundRect,0.250000X-0.250000X-0.475000X0.250000X-0.475000X0.250000X0.475000X-0.250000X0.475000X0*%
%TD*%
%TA.AperFunction,SMDPad,CuDef*%
%ADD15RoundRect,0.225000X-0.250000X0.225000X-0.250000X-0.225000X0.250000X-0.225000X0.250000X0.225000X0*%
%TD*%
%TA.AperFunction,SMDPad,CuDef*%
%ADD16RoundRect,0.225000X0.225000X0.250000X-0.225000X0.250000X-0.225000X-0.250000X0.225000X-0.250000X0*%
%TD*%
%TA.AperFunction,SMDPad,CuDef*%
%ADD17RoundRect,0.218750X0.218750X0.256250X-0.218750X0.256250X-0.218750X-0.256250X0.218750X-0.256250X0*%
%TD*%
%TA.AperFunction,SMDPad,CuDef*%
%ADD18RoundRect,0.225000X-0.225000X-0.250000X0.225000X-0.250000X0.225000X0.250000X-0.225000X0.250000X0*%
%TD*%
%TA.AperFunction,SMDPad,CuDef*%
%ADD19RoundRect,0.200000X0.275000X-0.200000X0.275000X0.200000X-0.275000X0.200000X-0.275000X-0.200000X0*%
%TD*%
%TA.AperFunction,SMDPad,CuDef*%
%ADD20R,1.050000X0.650000*%
%TD*%
%TA.AperFunction,SMDPad,CuDef*%
%ADD21RoundRect,0.050000X0.250000X0.075000X-0.250000X0.075000X-0.250000X-0.075000X0.250000X-0.075000X0*%
%TD*%
%TA.AperFunction,SMDPad,CuDef*%
%ADD22RoundRect,0.050000X0.075000X0.250000X-0.075000X0.250000X-0.075000X-0.250000X0.075000X-0.250000X0*%
%TD*%
%TA.AperFunction,SMDPad,CuDef*%
%ADD23RoundRect,0.051750X1.673250X1.673250X-1.673250X1.673250X-1.673250X-1.673250X1.673250X-1.673250X0*%
%TD*%
%TA.AperFunction,ComponentPad*%
%ADD24C,0.300000*%
%TD*%
%TA.AperFunction,SMDPad,CuDef*%
%ADD25RoundRect,0.200000X-0.200000X-0.275000X0.200000X-0.275000X0.200000X0.275000X-0.200000X0.275000X0*%
%TD*%
%TA.AperFunction,SMDPad,CuDef*%
%ADD26RoundRect,0.218750X-0.218750X-0.256250X0.218750X-0.256250X0.218750X0.256250X-0.218750X0.256250X0*%
%TD*%
%TA.AperFunction,SMDPad,CuDef*%
%ADD27RoundRect,0.218750X0.256250X-0.218750X0.256250X0.218750X-0.256250X0.218750X-0.256250X-0.218750X0*%
%TD*%
%TA.AperFunction,SMDPad,CuDef*%
%ADD28RoundRect,0.200000X0.200000X0.275000X-0.200000X0.275000X-0.200000X-0.275000X0.200000X-0.275000X0*%
%TD*%
%TA.AperFunction,SMDPad,CuDef*%
%ADD29RoundRect,0.225000X0.250000X-0.225000X0.250000X0.225000X-0.250000X0.225000X-0.250000X-0.225000X0*%
%TD*%
%TA.AperFunction,ViaPad*%
%ADD30C,0.500000*%
%TD*%
%TA.AperFunction,ViaPad*%
%ADD31C,0.600000*%
%TD*%
%TA.AperFunction,Conductor*%
%ADD32C,0.200000*%
%TD*%
%TA.AperFunction,Conductor*%
%ADD33C,0.400000*%
%TD*%
G04 APERTURE END LIST*
D10*
%TO.P,J5,1,Pin_1*%
%TO.N,TIMG2_C0*%
X179815000Y-86100000D03*
%TO.P,J5,2,Pin_2*%
%TO.N,A3*%
X179615000Y-88640000D03*
%TO.P,J5,3,Pin_3*%
%TO.N,A2*%
X179815000Y-91180000D03*
%TO.P,J5,4,Pin_4*%
%TO.N,A1*%
X179615000Y-93720000D03*
%TO.P,J5,5,Pin_5*%
%TO.N,A0*%
X179815000Y-96260000D03*
%TO.P,J5,6,Pin_6*%
%TO.N,RST*%
X179615000Y-98800000D03*
%TO.P,J5,7,Pin_7*%
%TO.N,SPI0_CS1*%
X179815000Y-101340000D03*
%TO.P,J5,8,Pin_8*%
%TO.N,SPI0_SCK*%
X179615000Y-103880000D03*
%TO.P,J5,9,Pin_9*%
%TO.N,SPI0_POCI*%
X179815000Y-106420000D03*
%TO.P,J5,10,Pin_10*%
%TO.N,SPI0_PICO*%
X179615000Y-108960000D03*
%TO.P,J5,11,Pin_11*%
%TO.N,+3V3*%
X179815000Y-111500000D03*
%TO.P,J5,12,Pin_12*%
%TO.N,GND*%
X179615000Y-114040000D03*
%TD*%
D11*
%TO.P,J4,1,GND*%
%TO.N,GND*%
X164400000Y-89300000D03*
%TO.P,J4,2,VCC*%
%TO.N,VCC*%
X163400000Y-89300000D03*
%TO.P,J4,3,SDA*%
%TO.N,BSL_I2C_SDA*%
X162400000Y-89300000D03*
%TO.P,J4,4,SCL*%
%TO.N,BSL_I2C_SCL*%
X161400000Y-89300000D03*
D12*
%TO.P,J4,S1,SHIELD*%
%TO.N,GND*%
X165700000Y-85425000D03*
%TO.P,J4,S2,SHIELD*%
X160100000Y-85425000D03*
%TD*%
D13*
%TO.P,R8,1*%
%TO.N,Net-(D1-K)*%
X160010000Y-98485000D03*
%TO.P,R8,2*%
%TO.N,GND*%
X160010000Y-100135000D03*
%TD*%
%TO.P,R7,1*%
%TO.N,+3V3*%
X159800000Y-104775000D03*
%TO.P,R7,2*%
%TO.N,I2C1_SCL*%
X159800000Y-106425000D03*
%TD*%
D14*
%TO.P,C3,1*%
%TO.N,+3V3*%
X170800000Y-94950000D03*
%TO.P,C3,2*%
%TO.N,GND*%
X172700000Y-94950000D03*
%TD*%
D15*
%TO.P,C8,1*%
%TO.N,NRST*%
X167906666Y-107845000D03*
%TO.P,C8,2*%
%TO.N,GND*%
X167906666Y-109395000D03*
%TD*%
D16*
%TO.P,C2,1*%
%TO.N,VCC*%
X176625000Y-94750000D03*
%TO.P,C2,2*%
%TO.N,GND*%
X175075000Y-94750000D03*
%TD*%
D17*
%TO.P,FB1,1*%
%TO.N,VCC*%
X176637500Y-93100000D03*
%TO.P,FB1,2*%
%TO.N,+3V3*%
X175062500Y-93100000D03*
%TD*%
D18*
%TO.P,C5,1*%
%TO.N,VCC*%
X175095000Y-91450000D03*
%TO.P,C5,2*%
%TO.N,GND*%
X176645000Y-91450000D03*
%TD*%
D19*
%TO.P,R1,1*%
%TO.N,ROSC*%
X172200000Y-99975000D03*
%TO.P,R1,2*%
%TO.N,GND*%
X172200000Y-98325000D03*
%TD*%
D20*
%TO.P,SW1,1,A*%
%TO.N,NRST*%
X176175000Y-109325000D03*
X172025000Y-109325000D03*
%TO.P,SW1,2,B*%
%TO.N,GND*%
X176175000Y-107175000D03*
X172025000Y-107175000D03*
%TD*%
D10*
%TO.P,J1,1,Pin_1*%
%TO.N,+3V3*%
X177174993Y-116450000D03*
%TO.P,J1,2,Pin_2*%
%TO.N,SWDIO*%
X174634993Y-116250000D03*
%TO.P,J1,3,Pin_3*%
%TO.N,SWCLK*%
X172094993Y-116250000D03*
%TO.P,J1,4,Pin_4*%
%TO.N,BSL_UART_TX*%
X169554993Y-116450000D03*
%TO.P,J1,5,Pin_5*%
%TO.N,GND*%
X167014993Y-116250000D03*
%TO.P,J1,6,Pin_6*%
%TO.N,BSL_UART_RX*%
X164474993Y-116450000D03*
%TO.P,J1,7,Pin_7*%
%TO.N,NRST*%
X161934993Y-116250000D03*
%TO.P,J1,8,Pin_8*%
%TO.N,BSL_invoke*%
X159394993Y-116450000D03*
%TD*%
D11*
%TO.P,J2,1,GND*%
%TO.N,GND*%
X175200000Y-89300000D03*
%TO.P,J2,2,VCC*%
%TO.N,VCC*%
X174200000Y-89300000D03*
%TO.P,J2,3,SDA*%
%TO.N,BSL_I2C_SDA*%
X173200000Y-89300000D03*
%TO.P,J2,4,SCL*%
%TO.N,BSL_I2C_SCL*%
X172200000Y-89300000D03*
D12*
%TO.P,J2,S1,SHIELD*%
%TO.N,GND*%
X176500000Y-85425000D03*
%TO.P,J2,S2,SHIELD*%
X170900000Y-85425000D03*
%TD*%
D19*
%TO.P,R4,1*%
%TO.N,NRST*%
X169943332Y-109445000D03*
%TO.P,R4,2*%
%TO.N,+3V3*%
X169943332Y-107795000D03*
%TD*%
D21*
%TO.P,U4,1,PA0*%
%TO.N,BSL_I2C_SDA*%
X170447500Y-102831750D03*
%TO.P,U4,2,PA1*%
%TO.N,BSL_I2C_SCL*%
X170447500Y-102331750D03*
%TO.P,U4,3,~{RST}*%
%TO.N,NRST*%
X170447500Y-101831750D03*
%TO.P,U4,4,VDD*%
%TO.N,+3V3*%
X170447500Y-101331750D03*
%TO.P,U4,5,VSS*%
%TO.N,GND*%
X170447500Y-100831750D03*
%TO.P,U4,6,PA2/ROSC*%
%TO.N,ROSC*%
X170447500Y-100331750D03*
%TO.P,U4,7,PA3*%
%TO.N,SPI0_CS1*%
X170447500Y-99831750D03*
%TO.P,U4,8,PA4*%
%TO.N,SPI0_POCI*%
X170447500Y-99331750D03*
D22*
%TO.P,U4,9,PA5*%
%TO.N,SPI0_PICO*%
X169797500Y-98681750D03*
%TO.P,U4,10,PA6*%
%TO.N,SPI0_SCK*%
X169297500Y-98681750D03*
%TO.P,U4,11,PA7*%
%TO.N,TIMG1_C0*%
X168797500Y-98681750D03*
%TO.P,U4,12,PA8*%
%TO.N,UART0_TX*%
X168297500Y-98681750D03*
%TO.P,U4,13,PA9*%
%TO.N,UART0_RX*%
X167797500Y-98681750D03*
%TO.P,U4,14,PA10*%
%TO.N,RST*%
X167297500Y-98681750D03*
%TO.P,U4,15,PA11*%
%TO.N,INT*%
X166797500Y-98681750D03*
%TO.P,U4,16,PA12*%
%TO.N,TIMG0_C0*%
X166297500Y-98681750D03*
D21*
%TO.P,U4,17,PA13*%
%TO.N,TIMG0_C1*%
X165647500Y-99331750D03*
%TO.P,U4,18,PA14*%
%TO.N,CLK_OUT*%
X165647500Y-99831750D03*
%TO.P,U4,19,PA15/A9*%
%TO.N,I2C1_SCL*%
X165647500Y-100331750D03*
%TO.P,U4,20,PA16/A8*%
%TO.N,I2C1_SDA*%
X165647500Y-100831750D03*
%TO.P,U4,21,PA17*%
%TO.N,TIMG4_C0*%
X165647500Y-101331750D03*
%TO.P,U4,22,PA18/A7*%
%TO.N,BSL_invoke*%
X165647500Y-101831750D03*
%TO.P,U4,23,PA19/SWDIO*%
%TO.N,SWDIO*%
X165647500Y-102331750D03*
%TO.P,U4,24,PA20/SWCLK/A6*%
%TO.N,SWCLK*%
X165647500Y-102831750D03*
D22*
%TO.P,U4,25,PA21/A5/VREF*%
%TO.N,TIMG2_C0*%
X166297500Y-103481750D03*
%TO.P,U4,26,PA22/A4*%
%TO.N,BSL_UART_RX*%
X166797500Y-103481750D03*
%TO.P,U4,27,PA23/VREF+*%
%TO.N,BSL_UART_TX*%
X167297500Y-103481750D03*
%TO.P,U4,28,PA24/A3*%
%TO.N,A3*%
X167797500Y-103481750D03*
%TO.P,U4,29,PA25/A2*%
%TO.N,A2*%
X168297500Y-103481750D03*
%TO.P,U4,30,PA26/A1*%
%TO.N,A1*%
X168797500Y-103481750D03*
%TO.P,U4,31,PA27/A0*%
%TO.N,A0*%
X169297500Y-103481750D03*
%TO.P,U4,32,VCORE*%
%TO.N,VCORE*%
X169797500Y-103481750D03*
D23*
%TO.P,U4,33,EXP*%
%TO.N,GND*%
X168047500Y-101081750D03*
D24*
%TO.P,U4,34,TMPAD*%
X168047500Y-102556750D03*
%TO.P,U4,35,TMPAD*%
X169522500Y-101081750D03*
%TO.P,U4,36,TMPAD*%
X168047500Y-101081750D03*
%TO.P,U4,37,TMPAD*%
X166572500Y-101081750D03*
%TO.P,U4,38,TMPAD*%
X168047500Y-99606750D03*
%TD*%
D18*
%TO.P,C6,1*%
%TO.N,VCC*%
X164295000Y-91450000D03*
%TO.P,C6,2*%
%TO.N,GND*%
X165845000Y-91450000D03*
%TD*%
D16*
%TO.P,C4,1*%
%TO.N,+3V3*%
X172305000Y-93100000D03*
%TO.P,C4,2*%
%TO.N,GND*%
X170755000Y-93100000D03*
%TD*%
D25*
%TO.P,R2,1*%
%TO.N,Net-(D2-K)*%
X167425000Y-88600000D03*
%TO.P,R2,2*%
%TO.N,GND*%
X169075000Y-88600000D03*
%TD*%
%TO.P,R5,1*%
%TO.N,+3V3*%
X170705000Y-91450000D03*
%TO.P,R5,2*%
%TO.N,BSL_I2C_SDA*%
X172355000Y-91450000D03*
%TD*%
D18*
%TO.P,C10,1*%
%TO.N,VCORE*%
X171775000Y-104250000D03*
%TO.P,C10,2*%
%TO.N,GND*%
X173325000Y-104250000D03*
%TD*%
D19*
%TO.P,R6,1*%
%TO.N,+3V3*%
X159800000Y-110625000D03*
%TO.P,R6,2*%
%TO.N,I2C1_SDA*%
X159800000Y-108975000D03*
%TD*%
D15*
%TO.P,C1,1*%
%TO.N,+3V3*%
X173750000Y-98375000D03*
%TO.P,C1,2*%
%TO.N,GND*%
X173750000Y-99925000D03*
%TD*%
D26*
%TO.P,D2,1,K*%
%TO.N,Net-(D2-K)*%
X167462500Y-87050000D03*
%TO.P,D2,2,A*%
%TO.N,+3V3*%
X169037500Y-87050000D03*
%TD*%
D27*
%TO.P,D1,1,K*%
%TO.N,Net-(D1-K)*%
X160005000Y-97047500D03*
%TO.P,D1,2,A*%
%TO.N,TIMG1_C0*%
X160005000Y-95472500D03*
%TD*%
D20*
%TO.P,SW2,1,A*%
%TO.N,BSL_invoke*%
X165825000Y-109325000D03*
X161675000Y-109325000D03*
%TO.P,SW2,2,B*%
%TO.N,+3V3*%
X165825000Y-107175000D03*
X161675000Y-107175000D03*
%TD*%
D28*
%TO.P,R3,1*%
%TO.N,+3V3*%
X161555000Y-91450000D03*
%TO.P,R3,2*%
%TO.N,BSL_I2C_SCL*%
X159905000Y-91450000D03*
%TD*%
D29*
%TO.P,C9,1*%
%TO.N,+3V3*%
X175300000Y-99925000D03*
%TO.P,C9,2*%
%TO.N,GND*%
X175300000Y-98375000D03*
%TD*%
D10*
%TO.P,J6,1,Pin_1*%
%TO.N,GND*%
X156955000Y-114040000D03*
%TO.P,J6,2,Pin_2*%
%TO.N,unconnected-(J6-Pin_2-Pad2)*%
X156755000Y-111500000D03*
%TO.P,J6,3,Pin_3*%
%TO.N,I2C1_SDA*%
X156955000Y-108960000D03*
%TO.P,J6,4,Pin_4*%
%TO.N,I2C1_SCL*%
X156755000Y-106420000D03*
%TO.P,J6,5,Pin_5*%
%TO.N,UART0_RX*%
X156955000Y-103880000D03*
%TO.P,J6,6,Pin_6*%
%TO.N,UART0_TX*%
X156755000Y-101340000D03*
%TO.P,J6,7,Pin_7*%
%TO.N,INT*%
X156955000Y-98800000D03*
%TO.P,J6,8,Pin_8*%
%TO.N,TIMG1_C0*%
X156755000Y-96260000D03*
%TO.P,J6,9,Pin_9*%
%TO.N,TIMG0_C0*%
X156955000Y-93720000D03*
%TO.P,J6,10,Pin_10*%
%TO.N,TIMG0_C1*%
X156755000Y-91180000D03*
%TO.P,J6,11,Pin_11*%
%TO.N,TIMG4_C0*%
X156955000Y-88640000D03*
%TO.P,J6,12,Pin_12*%
%TO.N,CLK_OUT*%
X156755000Y-86100000D03*
%TD*%
D30*
%TO.N,BSL_I2C_SCL*%
X162250000Y-86600000D03*
X172750000Y-85600000D03*
X173067894Y-102500000D03*
X173660077Y-91850000D03*
%TO.N,NRST*%
X175700000Y-110600000D03*
X171100000Y-110600000D03*
%TO.N,GND*%
X172050000Y-97450000D03*
X175904993Y-115838000D03*
X179065000Y-100069999D03*
X157700000Y-89909999D03*
X160980000Y-105540000D03*
X165150000Y-108190000D03*
X169250000Y-92775000D03*
X157700000Y-112769999D03*
X166300000Y-89100000D03*
X179065000Y-110229999D03*
X179065000Y-107689999D03*
X178750000Y-116600000D03*
X157700000Y-105149999D03*
X163100000Y-108200000D03*
X178300000Y-117100000D03*
X175698974Y-94160613D03*
X157700000Y-92449999D03*
X160664999Y-115838000D03*
X170824995Y-115838000D03*
X179065000Y-105149999D03*
X174510000Y-101700000D03*
X178310000Y-92450000D03*
X169700000Y-91250000D03*
X174000000Y-104250000D03*
X178300000Y-89910000D03*
X178300000Y-87370000D03*
X165744997Y-115838000D03*
X179650000Y-116600000D03*
X171100000Y-108350000D03*
X168284996Y-115838000D03*
X173364994Y-115838000D03*
X157700000Y-102609999D03*
X180100000Y-117100000D03*
X157700000Y-97529999D03*
X161600000Y-103950000D03*
X177520000Y-85430000D03*
X179065000Y-97529999D03*
X171050000Y-107170000D03*
X179065000Y-89909999D03*
X157700000Y-95000000D03*
X157700000Y-100069999D03*
X160550000Y-107850000D03*
X157700000Y-107689999D03*
X179065000Y-112769999D03*
X172300000Y-108300000D03*
X179200000Y-117100000D03*
X163204998Y-115838000D03*
X175300000Y-87250000D03*
X169910000Y-85430000D03*
X165350000Y-88200000D03*
X166320000Y-108190000D03*
X163600000Y-101381750D03*
X175300000Y-108350000D03*
X174750000Y-97850000D03*
X159090000Y-85420000D03*
X179065000Y-102609999D03*
X162500000Y-90700000D03*
X157700000Y-87369999D03*
X179065000Y-94989999D03*
X157700000Y-110229999D03*
X179065000Y-87369999D03*
X166720000Y-85430000D03*
X179065000Y-92449999D03*
%TO.N,+3V3*%
X173725000Y-94100000D03*
X166550000Y-107175000D03*
X174296693Y-98921693D03*
X162400000Y-107175000D03*
D31*
%TO.N,SWDIO*%
X170425000Y-111975000D03*
%TO.N,BSL_UART_RX*%
X173225000Y-113375000D03*
%TO.N,BSL_UART_TX*%
X173625000Y-114700000D03*
D30*
%TO.N,SPI0_POCI*%
X176750000Y-99550000D03*
%TO.N,BSL_I2C_SDA*%
X162825000Y-87100000D03*
X173550000Y-85800000D03*
X174294409Y-92400000D03*
X173650000Y-103050000D03*
%TO.N,VCC*%
X174200000Y-86800000D03*
X163400000Y-87750000D03*
%TO.N,A0*%
X170630000Y-104100000D03*
%TO.N,SPI0_PICO*%
X176650000Y-100360000D03*
%TO.N,SPI0_SCK*%
X178150000Y-100550000D03*
%TO.N,TIMG1_C0*%
X160200000Y-92500000D03*
%TO.N,UART0_TX*%
X165900000Y-95399997D03*
%TO.N,A2*%
X168902183Y-104800001D03*
%TO.N,INT*%
X164700000Y-95150000D03*
%TO.N,RST*%
X166313375Y-94702869D03*
%TO.N,A3*%
X167393503Y-104800001D03*
%TO.N,A1*%
X170900000Y-104750001D03*
%TO.N,UART0_RX*%
X166250000Y-96100000D03*
%TO.N,TIMG0_C1*%
X163206446Y-96100000D03*
%TO.N,CLK_OUT*%
X164500000Y-99565000D03*
%TO.N,TIMG4_C0*%
X163550000Y-103142894D03*
%TO.N,TIMG2_C0*%
X165600000Y-104950000D03*
%TD*%
D32*
%TO.N,NRST*%
X171100000Y-110600000D02*
X171600000Y-110600000D01*
X171600000Y-110600000D02*
X172025000Y-110175000D01*
X172025000Y-110175000D02*
X172025000Y-109325000D01*
X175700000Y-110600000D02*
X176175000Y-110125000D01*
X176175000Y-110125000D02*
X176175000Y-109325000D01*
%TO.N,BSL_I2C_SCL*%
X160650000Y-89300000D02*
X159905000Y-90045000D01*
X173660077Y-91510077D02*
X172200000Y-90050000D01*
X173067894Y-102500000D02*
X171415686Y-102500000D01*
X172200000Y-86150000D02*
X172200000Y-89300000D01*
X173660077Y-91850000D02*
X173660077Y-91510077D01*
X172750000Y-85600000D02*
X172200000Y-86150000D01*
X161400000Y-87450000D02*
X162250000Y-86600000D01*
X161400000Y-89300000D02*
X161400000Y-87450000D01*
X161400000Y-89300000D02*
X160650000Y-89300000D01*
X171415686Y-102500000D02*
X171247436Y-102331750D01*
X159905000Y-90045000D02*
X159905000Y-91450000D01*
X171247436Y-102331750D02*
X170447500Y-102331750D01*
X172200000Y-90050000D02*
X172200000Y-89300000D01*
%TO.N,NRST*%
X161935000Y-114615000D02*
X164150000Y-112400000D01*
X173671750Y-101831750D02*
X174550000Y-102710000D01*
X168950000Y-112400000D02*
X169943332Y-111406668D01*
X161935000Y-116350000D02*
X161935000Y-114615000D01*
X169248332Y-108750000D02*
X169943332Y-109445000D01*
X171075000Y-109325000D02*
X170950000Y-109450000D01*
X164150000Y-112400000D02*
X168950000Y-112400000D01*
X170447500Y-101831750D02*
X173671750Y-101831750D01*
X168850000Y-108750000D02*
X169248332Y-108750000D01*
X167945000Y-107845000D02*
X168850000Y-108750000D01*
X174550000Y-108700000D02*
X175175000Y-109325000D01*
X170950000Y-109450000D02*
X169948332Y-109450000D01*
X167906666Y-107845000D02*
X167945000Y-107845000D01*
X172025000Y-109325000D02*
X171075000Y-109325000D01*
X174550000Y-102710000D02*
X174550000Y-108700000D01*
X175175000Y-109325000D02*
X176175000Y-109325000D01*
X169948332Y-109450000D02*
X169943332Y-109445000D01*
X169943332Y-111406668D02*
X169943332Y-109445000D01*
%TO.N,GND*%
X171055000Y-107175000D02*
X171050000Y-107170000D01*
X175300000Y-108350000D02*
X175300000Y-107350000D01*
D33*
X172900000Y-94750000D02*
X172700000Y-94950000D01*
D32*
X170447500Y-100831750D02*
X173478250Y-100831750D01*
D33*
X165100000Y-89300000D02*
X165845000Y-90045000D01*
D32*
X175300000Y-107350000D02*
X175475000Y-107175000D01*
X175275000Y-98375000D02*
X174750000Y-97850000D01*
X172025000Y-107175000D02*
X172025000Y-107875000D01*
X173325000Y-104250000D02*
X174000000Y-104250000D01*
D33*
X175698974Y-94160613D02*
X175664387Y-94160613D01*
D32*
X175475000Y-107175000D02*
X176175000Y-107175000D01*
D33*
X175900000Y-89300000D02*
X176645000Y-90045000D01*
D32*
X172025000Y-107175000D02*
X171055000Y-107175000D01*
X173750000Y-100560000D02*
X173750000Y-99925000D01*
X170447500Y-100831750D02*
X168297500Y-100831750D01*
X172025000Y-107875000D02*
X171550000Y-108350000D01*
X171550000Y-108350000D02*
X171100000Y-108350000D01*
X172050000Y-97450000D02*
X172200000Y-97600000D01*
D33*
X170755000Y-93100000D02*
X169075000Y-91420000D01*
X175664387Y-94160613D02*
X175075000Y-94750000D01*
X164400000Y-89300000D02*
X165100000Y-89300000D01*
D32*
X172200000Y-97600000D02*
X172200000Y-98325000D01*
D33*
X175200000Y-89300000D02*
X175900000Y-89300000D01*
D32*
X168297500Y-100831750D02*
X168047500Y-101081750D01*
D33*
X175075000Y-94750000D02*
X172900000Y-94750000D01*
X165845000Y-90045000D02*
X165845000Y-91450000D01*
X169075000Y-91420000D02*
X169075000Y-88600000D01*
D32*
X175300000Y-98375000D02*
X175275000Y-98375000D01*
X173478250Y-100831750D02*
X173750000Y-100560000D01*
D33*
X176645000Y-90045000D02*
X176645000Y-91450000D01*
D32*
%TO.N,+3V3*%
X173893250Y-101331750D02*
X175300000Y-99925000D01*
X159800000Y-104775000D02*
X161125000Y-104775000D01*
D33*
X172305000Y-93445000D02*
X170800000Y-94950000D01*
X177810000Y-105880000D02*
X177810000Y-111160000D01*
X172305000Y-93050000D02*
X170705000Y-91450000D01*
X173725000Y-94100000D02*
X174125000Y-93700000D01*
D32*
X161675000Y-107875000D02*
X161675000Y-107175000D01*
X170447500Y-101331750D02*
X173893250Y-101331750D01*
D33*
X172305000Y-93100000D02*
X172305000Y-93050000D01*
X168250000Y-87837500D02*
X169037500Y-87050000D01*
X175300000Y-99925000D02*
X175300000Y-103370000D01*
D32*
X167432970Y-107095000D02*
X169770000Y-107095000D01*
X169943332Y-107268332D02*
X169943332Y-107795000D01*
X160800000Y-110250000D02*
X160800000Y-108750000D01*
D33*
X174462500Y-93700000D02*
X175062500Y-93100000D01*
D32*
X166550000Y-107175000D02*
X166755000Y-107380000D01*
D33*
X174296693Y-98921693D02*
X173750000Y-98375000D01*
X178150000Y-111500000D02*
X179715000Y-111500000D01*
X178210000Y-111500000D02*
X177175000Y-112535000D01*
X169037500Y-87050000D02*
X169920000Y-87050000D01*
X162140000Y-91450000D02*
X163590000Y-92900000D01*
X169920000Y-87050000D02*
X170705000Y-87835000D01*
X167440000Y-92900000D02*
X168250000Y-92090000D01*
D32*
X161125000Y-104775000D02*
X161675000Y-105325000D01*
X161675000Y-107175000D02*
X162400000Y-107175000D01*
D33*
X170705000Y-87835000D02*
X170705000Y-91450000D01*
D32*
X159800000Y-110625000D02*
X160425000Y-110625000D01*
X167147970Y-107380000D02*
X167432970Y-107095000D01*
D33*
X163590000Y-92900000D02*
X167440000Y-92900000D01*
D32*
X166755000Y-107380000D02*
X167147970Y-107380000D01*
D33*
X175300000Y-103370000D02*
X177810000Y-105880000D01*
X177175000Y-112535000D02*
X177175000Y-116350000D01*
D32*
X169770000Y-107095000D02*
X169943332Y-107268332D01*
D33*
X172305000Y-93100000D02*
X172305000Y-93445000D01*
D32*
X166550000Y-107175000D02*
X165825000Y-107175000D01*
D33*
X179815000Y-111500000D02*
X178210000Y-111500000D01*
X174125000Y-93700000D02*
X174462500Y-93700000D01*
X175062500Y-93100000D02*
X172305000Y-93100000D01*
X173750000Y-98375000D02*
X175300000Y-99925000D01*
X177810000Y-111160000D02*
X178150000Y-111500000D01*
X168250000Y-92090000D02*
X168250000Y-87837500D01*
X161555000Y-91450000D02*
X162140000Y-91450000D01*
D32*
X160800000Y-108750000D02*
X161675000Y-107875000D01*
X160425000Y-110625000D02*
X160800000Y-110250000D01*
X161675000Y-105325000D02*
X161675000Y-107175000D01*
%TO.N,VCORE*%
X171531750Y-103481750D02*
X171775000Y-103725000D01*
X169797500Y-103481750D02*
X171531750Y-103481750D01*
X171775000Y-103725000D02*
X171775000Y-104250000D01*
%TO.N,ROSC*%
X171525000Y-99975000D02*
X172200000Y-99975000D01*
X170447500Y-100331750D02*
X171168250Y-100331750D01*
X171168250Y-100331750D02*
X171525000Y-99975000D01*
%TO.N,BSL_invoke*%
X159395000Y-116350000D02*
X159395000Y-113705000D01*
X164250000Y-102468628D02*
X164250000Y-108650000D01*
X164886878Y-101831750D02*
X164250000Y-102468628D01*
X159395000Y-113705000D02*
X161675000Y-111425000D01*
X164925000Y-109325000D02*
X165825000Y-109325000D01*
X164250000Y-108650000D02*
X164925000Y-109325000D01*
X165647500Y-101831750D02*
X164886878Y-101831750D01*
X161675000Y-111425000D02*
X161675000Y-109325000D01*
X161675000Y-109325000D02*
X165825000Y-109325000D01*
%TO.N,SWDIO*%
X172925000Y-110177818D02*
X172925000Y-106775000D01*
X170425000Y-111975000D02*
X171127818Y-111975000D01*
X164650000Y-102634314D02*
X164952564Y-102331750D01*
X165856496Y-106550000D02*
X164650000Y-105343504D01*
X164952564Y-102331750D02*
X165647500Y-102331750D01*
X164650000Y-105343504D02*
X164650000Y-102634314D01*
X172700000Y-106550000D02*
X165856496Y-106550000D01*
X171127818Y-111975000D02*
X172925000Y-110177818D01*
X172925000Y-106775000D02*
X172700000Y-106550000D01*
%TO.N,SWCLK*%
X165647500Y-103142500D02*
X165050000Y-103740000D01*
X172865686Y-106150000D02*
X173325000Y-106609314D01*
X165050000Y-105177818D02*
X166022182Y-106150000D01*
X165647500Y-102831750D02*
X165647500Y-103142500D01*
X166022182Y-106150000D02*
X172865686Y-106150000D01*
X165050000Y-103740000D02*
X165050000Y-105177818D01*
X173325000Y-110565686D02*
X172095000Y-111795686D01*
X172095000Y-111795686D02*
X172095000Y-116350000D01*
X173325000Y-106609314D02*
X173325000Y-110565686D01*
%TO.N,BSL_UART_RX*%
X173725000Y-106443629D02*
X173031371Y-105750000D01*
X173225000Y-113375000D02*
X173725000Y-112875000D01*
X173031371Y-105750000D02*
X166884314Y-105750000D01*
X166350000Y-105215686D02*
X166350000Y-104500000D01*
X166884314Y-105750000D02*
X166350000Y-105215686D01*
X173725000Y-112875000D02*
X173725000Y-106443629D01*
X166797500Y-104052500D02*
X166797500Y-103481750D01*
X166350000Y-104500000D02*
X166797500Y-104052500D01*
%TO.N,BSL_UART_TX*%
X174125000Y-106277942D02*
X173197058Y-105350000D01*
X167050000Y-105350000D02*
X166750000Y-105050000D01*
X173625000Y-114700000D02*
X174125000Y-114200000D01*
X166750000Y-104665686D02*
X167297500Y-104118186D01*
X167297500Y-104118186D02*
X167297500Y-103481750D01*
X166750000Y-105050000D02*
X166750000Y-104665686D01*
X173197058Y-105350000D02*
X167050000Y-105350000D01*
X174125000Y-114200000D02*
X174125000Y-106277942D01*
%TO.N,SPI0_POCI*%
X170447500Y-97533872D02*
X170447500Y-99331750D01*
X176750000Y-99550000D02*
X176750000Y-97875000D01*
X171081372Y-96900000D02*
X170447500Y-97533872D01*
X175775000Y-96900000D02*
X171081372Y-96900000D01*
X176750000Y-97875000D02*
X175775000Y-96900000D01*
%TO.N,BSL_I2C_SDA*%
X174300000Y-91362106D02*
X173200000Y-90262106D01*
X173200000Y-90262106D02*
X173200000Y-89300000D01*
X173550000Y-85800000D02*
X173200000Y-86150000D01*
X162400000Y-87525000D02*
X162825000Y-87100000D01*
X171181750Y-102831750D02*
X170447500Y-102831750D01*
X174294409Y-92400000D02*
X173305000Y-92400000D01*
X172690076Y-102900000D02*
X171250000Y-102900000D01*
X171250000Y-102900000D02*
X171181750Y-102831750D01*
X162400000Y-89300000D02*
X162400000Y-87525000D01*
X173200000Y-86150000D02*
X173200000Y-89300000D01*
X173650000Y-103050000D02*
X172840076Y-103050000D01*
X174294409Y-92400000D02*
X174300000Y-92394409D01*
X173305000Y-92400000D02*
X172355000Y-91450000D01*
X174300000Y-92394409D02*
X174300000Y-91362106D01*
X172840076Y-103050000D02*
X172690076Y-102900000D01*
D33*
%TO.N,VCC*%
X163400000Y-90555000D02*
X164295000Y-91450000D01*
X163400000Y-89300000D02*
X163400000Y-90555000D01*
X174200000Y-89300000D02*
X174200000Y-90555000D01*
X176637500Y-93100000D02*
X176637500Y-94737500D01*
X174200000Y-86800000D02*
X174200000Y-89300000D01*
X176637500Y-94737500D02*
X176625000Y-94750000D01*
X174200000Y-90555000D02*
X175095000Y-91450000D01*
X175095000Y-91450000D02*
X175095000Y-91557500D01*
X175095000Y-91557500D02*
X176637500Y-93100000D01*
X163400000Y-87750000D02*
X163400000Y-89300000D01*
D32*
%TO.N,A0*%
X169297500Y-103847500D02*
X169297500Y-103481750D01*
X169550000Y-104100000D02*
X169297500Y-103847500D01*
X170630000Y-104100000D02*
X169550000Y-104100000D01*
%TO.N,SPI0_PICO*%
X176650000Y-100360000D02*
X176717818Y-100360000D01*
X170915686Y-96500000D02*
X169797500Y-97618186D01*
X176717818Y-100360000D02*
X177300000Y-99777818D01*
X169797500Y-97618186D02*
X169797500Y-98681750D01*
X175940686Y-96500000D02*
X170915686Y-96500000D01*
X177300000Y-99777818D02*
X177300000Y-97859314D01*
X177300000Y-97859314D02*
X175940686Y-96500000D01*
%TO.N,SPI0_CS1*%
X172975000Y-97926304D02*
X173601304Y-97300000D01*
X171584314Y-99150000D02*
X172750000Y-99150000D01*
X173601304Y-97300000D02*
X175609314Y-97300000D01*
X176090000Y-97780686D02*
X176090000Y-100780000D01*
X170902564Y-99831750D02*
X171584314Y-99150000D01*
X170447500Y-99831750D02*
X170902564Y-99831750D01*
X176650000Y-101340000D02*
X179715000Y-101340000D01*
X175609314Y-97300000D02*
X176090000Y-97780686D01*
X172975000Y-98925000D02*
X172975000Y-97926304D01*
X176090000Y-100780000D02*
X176650000Y-101340000D01*
X172750000Y-99150000D02*
X172975000Y-98925000D01*
%TO.N,SPI0_SCK*%
X177700000Y-99510000D02*
X177700000Y-97693629D01*
X178150000Y-99960000D02*
X177700000Y-99510000D01*
X176106372Y-96100000D02*
X170750000Y-96100000D01*
X176106372Y-96100000D02*
X177700000Y-97693629D01*
X169297500Y-97552500D02*
X169297500Y-98681750D01*
X170750000Y-96100000D02*
X169297500Y-97552500D01*
X178150000Y-100550000D02*
X178150000Y-99960000D01*
%TO.N,I2C1_SCL*%
X158925000Y-106425000D02*
X159800000Y-106425000D01*
X159800000Y-106425000D02*
X156860000Y-106425000D01*
X158400000Y-103734314D02*
X158400000Y-105900000D01*
X165647500Y-100331750D02*
X161802564Y-100331750D01*
X156860000Y-106425000D02*
X156855000Y-106420000D01*
X161802564Y-100331750D02*
X158400000Y-103734314D01*
X158400000Y-105900000D02*
X158925000Y-106425000D01*
%TO.N,TIMG1_C0*%
X162482894Y-92500000D02*
X163382894Y-93400000D01*
X167600000Y-93400000D02*
X168797500Y-94597500D01*
X156855000Y-96260000D02*
X159217500Y-96260000D01*
X159217500Y-96260000D02*
X160005000Y-95472500D01*
X160200000Y-92500000D02*
X162482894Y-92500000D01*
X168797500Y-94597500D02*
X168797500Y-98681750D01*
X163382894Y-93400000D02*
X167600000Y-93400000D01*
%TO.N,I2C1_SDA*%
X160025000Y-107125000D02*
X159800000Y-107350000D01*
X158800000Y-103900000D02*
X158800000Y-105300000D01*
X160575000Y-106837648D02*
X160287648Y-107125000D01*
X158800000Y-105300000D02*
X159150000Y-105650000D01*
X160575000Y-106012352D02*
X160575000Y-106837648D01*
X159800000Y-108975000D02*
X156870000Y-108975000D01*
X165647500Y-100831750D02*
X161868250Y-100831750D01*
X160212648Y-105650000D02*
X160575000Y-106012352D01*
X160287648Y-107125000D02*
X160025000Y-107125000D01*
X159150000Y-105650000D02*
X160212648Y-105650000D01*
X159800000Y-107350000D02*
X159800000Y-108975000D01*
X161868250Y-100831750D02*
X158800000Y-103900000D01*
%TO.N,UART0_TX*%
X166327815Y-95399997D02*
X168297500Y-97369682D01*
X165900000Y-95399997D02*
X166327815Y-95399997D01*
X168297500Y-97369682D02*
X168297500Y-98681750D01*
%TO.N,A2*%
X168902183Y-104587869D02*
X168297500Y-103983186D01*
X168297500Y-103983186D02*
X168297500Y-103481750D01*
X168902183Y-104800001D02*
X168902183Y-104587869D01*
%TO.N,INT*%
X164700000Y-95150000D02*
X164700000Y-95934314D01*
X164700000Y-95934314D02*
X166797500Y-98031814D01*
X166797500Y-98031814D02*
X166797500Y-98681750D01*
%TO.N,RST*%
X166313375Y-94702869D02*
X165642557Y-94702869D01*
X165350000Y-94995426D02*
X165350000Y-96018628D01*
X165350000Y-96018628D02*
X167297500Y-97966128D01*
X167297500Y-97966128D02*
X167297500Y-98681750D01*
X165642557Y-94702869D02*
X165350000Y-94995426D01*
%TO.N,A3*%
X167393503Y-104800001D02*
X167797500Y-104396004D01*
X167797500Y-104396004D02*
X167797500Y-103481750D01*
%TO.N,A1*%
X169380000Y-104500000D02*
X168797500Y-103917500D01*
X168797500Y-103917500D02*
X168797500Y-103481750D01*
X170900000Y-104750001D02*
X170242894Y-104750001D01*
X170242894Y-104750001D02*
X169992893Y-104500000D01*
X169992893Y-104500000D02*
X169380000Y-104500000D01*
%TO.N,UART0_RX*%
X166250000Y-96100000D02*
X167797500Y-97647500D01*
X167797500Y-97647500D02*
X167797500Y-98681750D01*
%TO.N,TIMG0_C1*%
X163206446Y-96100000D02*
X163206446Y-96106446D01*
X165647500Y-98547500D02*
X165647500Y-99331750D01*
X163206446Y-96106446D02*
X165647500Y-98547500D01*
%TO.N,TIMG0_C0*%
X166297500Y-98097500D02*
X161920000Y-93720000D01*
X166297500Y-98681750D02*
X166297500Y-98097500D01*
X161920000Y-93720000D02*
X156855000Y-93720000D01*
%TO.N,CLK_OUT*%
X164500000Y-99565000D02*
X164766750Y-99831750D01*
X164766750Y-99831750D02*
X165647500Y-99831750D01*
%TO.N,TIMG4_C0*%
X163550000Y-103142894D02*
X163550000Y-102602942D01*
X164821192Y-101331750D02*
X165647500Y-101331750D01*
X163550000Y-102602942D02*
X164821192Y-101331750D01*
%TO.N,TIMG2_C0*%
X165873936Y-103481750D02*
X166297500Y-103481750D01*
X165600000Y-103755686D02*
X165873936Y-103481750D01*
X165600000Y-104950000D02*
X165600000Y-103755686D01*
%TO.N,Net-(D2-K)*%
X167425000Y-87087500D02*
X167462500Y-87050000D01*
X167425000Y-88600000D02*
X167425000Y-87087500D01*
%TO.N,Net-(D1-K)*%
X160005000Y-97047500D02*
X160005000Y-98480000D01*
X160005000Y-98480000D02*
X160010000Y-98485000D01*
%TD*%
%TA.AperFunction,Conductor*%
%TO.N,GND*%
G36*
X164813012Y-106008309D02*
G01*
X164819595Y-106014438D01*
X165220853Y-106415696D01*
X165254879Y-106478008D01*
X165249814Y-106548823D01*
X165207267Y-106605659D01*
X165201761Y-106609555D01*
X165116515Y-106666515D01*
X165060266Y-106750697D01*
X165045500Y-106824930D01*
X165045500Y-107525063D01*
X165045501Y-107525073D01*
X165060265Y-107599300D01*
X165116516Y-107683484D01*
X165200697Y-107739733D01*
X165200699Y-107739734D01*
X165274933Y-107754500D01*
X166375066Y-107754499D01*
X166375069Y-107754498D01*
X166375073Y-107754498D01*
X166395986Y-107750338D01*
X166449301Y-107739734D01*
X166486027Y-107715193D01*
X166553779Y-107693978D01*
X166609983Y-107708502D01*
X166610532Y-107707179D01*
X166618166Y-107710340D01*
X166618168Y-107710341D01*
X166708329Y-107734500D01*
X167051166Y-107734500D01*
X167119287Y-107754502D01*
X167165780Y-107808158D01*
X167177166Y-107860500D01*
X167177166Y-108115871D01*
X167181944Y-108160308D01*
X167183306Y-108172973D01*
X167197032Y-108209773D01*
X167231492Y-108302166D01*
X167231493Y-108302167D01*
X167267918Y-108350823D01*
X167314122Y-108412544D01*
X167364142Y-108449989D01*
X167424498Y-108495172D01*
X167424501Y-108495174D01*
X167424502Y-108495174D01*
X167424503Y-108495175D01*
X167443367Y-108502210D01*
X167500202Y-108544756D01*
X167525014Y-108611276D01*
X167509923Y-108680650D01*
X167459722Y-108730853D01*
X167443371Y-108738320D01*
X167424748Y-108745266D01*
X167314479Y-108827813D01*
X167231934Y-108938079D01*
X167183797Y-109067139D01*
X167177666Y-109124167D01*
X167177666Y-109268000D01*
X168635666Y-109268000D01*
X168635666Y-109223781D01*
X168655668Y-109155660D01*
X168709324Y-109109167D01*
X168779598Y-109099063D01*
X168794275Y-109102074D01*
X168803329Y-109104500D01*
X168896671Y-109104500D01*
X169049302Y-109104500D01*
X169117423Y-109124502D01*
X169138396Y-109141403D01*
X169176926Y-109179932D01*
X169210952Y-109242244D01*
X169213832Y-109269029D01*
X169213832Y-109699740D01*
X169213833Y-109699755D01*
X169216711Y-109730452D01*
X169216712Y-109730455D01*
X169261960Y-109859767D01*
X169261963Y-109859774D01*
X169343321Y-109970010D01*
X169453557Y-110051368D01*
X169453564Y-110051371D01*
X169504447Y-110069176D01*
X169562139Y-110110554D01*
X169588301Y-110176554D01*
X169588832Y-110188105D01*
X169588832Y-111207639D01*
X169568830Y-111275760D01*
X169551927Y-111296734D01*
X168840066Y-112008595D01*
X168777754Y-112042621D01*
X168750971Y-112045500D01*
X164103325Y-112045500D01*
X164013166Y-112069659D01*
X163932335Y-112116326D01*
X163932325Y-112116334D01*
X162263366Y-113785295D01*
X161717332Y-114331329D01*
X161684331Y-114364330D01*
X161651330Y-114397330D01*
X161651326Y-114397335D01*
X161604659Y-114478166D01*
X161580500Y-114568325D01*
X161580500Y-115211362D01*
X161560498Y-115279483D01*
X161513896Y-115322484D01*
X161367526Y-115400720D01*
X161212741Y-115527748D01*
X161085713Y-115682533D01*
X160991327Y-115859116D01*
X160991325Y-115859122D01*
X160933199Y-116050736D01*
X160933199Y-116050738D01*
X160913575Y-116249996D01*
X160913575Y-116250003D01*
X160933199Y-116449261D01*
X160933199Y-116449263D01*
X160991325Y-116640877D01*
X160991327Y-116640883D01*
X161085563Y-116817185D01*
X161085715Y-116817469D01*
X161212741Y-116972252D01*
X161367524Y-117099278D01*
X161367526Y-117099279D01*
X161510832Y-117175878D01*
X161561480Y-117225630D01*
X161577190Y-117294867D01*
X161552974Y-117361606D01*
X161496520Y-117404658D01*
X161451436Y-117413000D01*
X160176039Y-117413000D01*
X160107918Y-117392998D01*
X160061425Y-117339342D01*
X160051321Y-117269068D01*
X160080815Y-117204488D01*
X160096106Y-117189600D01*
X160117245Y-117172252D01*
X160244271Y-117017469D01*
X160338660Y-116840880D01*
X160396785Y-116649269D01*
X160409228Y-116522930D01*
X160416411Y-116450003D01*
X160416411Y-116449996D01*
X160396786Y-116250738D01*
X160396786Y-116250736D01*
X160396785Y-116250733D01*
X160396785Y-116250731D01*
X160338660Y-116059120D01*
X160244271Y-115882531D01*
X160117245Y-115727748D01*
X159962462Y-115600722D01*
X159823019Y-115526188D01*
X159816103Y-115522491D01*
X159765455Y-115472738D01*
X159749500Y-115411369D01*
X159749500Y-113904029D01*
X159769502Y-113835908D01*
X159786405Y-113814934D01*
X161958665Y-111642674D01*
X161958671Y-111642668D01*
X161969255Y-111624336D01*
X162005341Y-111561832D01*
X162029500Y-111471671D01*
X162029500Y-110030499D01*
X162049502Y-109962378D01*
X162103158Y-109915885D01*
X162155500Y-109904499D01*
X162225064Y-109904499D01*
X162225066Y-109904499D01*
X162225069Y-109904498D01*
X162225072Y-109904498D01*
X162261663Y-109897219D01*
X162299301Y-109889734D01*
X162383484Y-109833484D01*
X162409135Y-109795093D01*
X162446630Y-109738982D01*
X162449585Y-109740957D01*
X162480963Y-109702010D01*
X162548323Y-109679581D01*
X162552837Y-109679500D01*
X164878329Y-109679500D01*
X164947163Y-109679500D01*
X165015284Y-109699502D01*
X165050915Y-109740622D01*
X165053371Y-109738982D01*
X165060265Y-109749300D01*
X165060266Y-109749301D01*
X165070710Y-109764931D01*
X165116516Y-109833484D01*
X165200697Y-109889733D01*
X165200699Y-109889734D01*
X165274933Y-109904500D01*
X166375066Y-109904499D01*
X166375069Y-109904498D01*
X166375073Y-109904498D01*
X166424326Y-109894701D01*
X166449301Y-109889734D01*
X166533484Y-109833484D01*
X166589734Y-109749301D01*
X166604500Y-109675067D01*
X166604500Y-109665832D01*
X167177666Y-109665832D01*
X167183797Y-109722860D01*
X167231934Y-109851920D01*
X167314479Y-109962186D01*
X167424745Y-110044731D01*
X167553805Y-110092868D01*
X167610833Y-110098999D01*
X167610850Y-110099000D01*
X167779666Y-110099000D01*
X168033666Y-110099000D01*
X168202482Y-110099000D01*
X168202498Y-110098999D01*
X168259526Y-110092868D01*
X168388586Y-110044731D01*
X168498852Y-109962186D01*
X168581397Y-109851920D01*
X168629534Y-109722860D01*
X168635665Y-109665832D01*
X168635666Y-109665815D01*
X168635666Y-109522000D01*
X168033666Y-109522000D01*
X168033666Y-110099000D01*
X167779666Y-110099000D01*
X167779666Y-109522000D01*
X167177666Y-109522000D01*
X167177666Y-109665832D01*
X166604500Y-109665832D01*
X166604499Y-108974934D01*
X166604498Y-108974931D01*
X166604498Y-108974926D01*
X166589734Y-108900699D01*
X166564086Y-108862315D01*
X166533484Y-108816516D01*
X166502231Y-108795633D01*
X166449302Y-108760266D01*
X166375067Y-108745500D01*
X165274936Y-108745500D01*
X165274926Y-108745501D01*
X165200699Y-108760265D01*
X165116513Y-108816517D01*
X165107741Y-108825290D01*
X165104898Y-108822447D01*
X165067717Y-108853496D01*
X164997270Y-108862315D01*
X164933238Y-108831649D01*
X164928380Y-108827041D01*
X164641405Y-108540066D01*
X164607379Y-108477754D01*
X164604500Y-108450971D01*
X164604500Y-106103533D01*
X164624502Y-106035412D01*
X164678158Y-105988919D01*
X164748432Y-105978815D01*
X164813012Y-106008309D01*
G37*
%TD.AperFunction*%
%TA.AperFunction,Conductor*%
G36*
X171658532Y-112049791D02*
G01*
X171715368Y-112092338D01*
X171740179Y-112158858D01*
X171740500Y-112167847D01*
X171740500Y-115211362D01*
X171720498Y-115279483D01*
X171673896Y-115322484D01*
X171527526Y-115400720D01*
X171372741Y-115527748D01*
X171245713Y-115682533D01*
X171151327Y-115859116D01*
X171151325Y-115859122D01*
X171093199Y-116050736D01*
X171093199Y-116050738D01*
X171073575Y-116249996D01*
X171073575Y-116250003D01*
X171093199Y-116449261D01*
X171093199Y-116449263D01*
X171151325Y-116640877D01*
X171151327Y-116640883D01*
X171245563Y-116817185D01*
X171245715Y-116817469D01*
X171372741Y-116972252D01*
X171527524Y-117099278D01*
X171527526Y-117099279D01*
X171670832Y-117175878D01*
X171721480Y-117225630D01*
X171737190Y-117294867D01*
X171712974Y-117361606D01*
X171656520Y-117404658D01*
X171611436Y-117413000D01*
X170336039Y-117413000D01*
X170267918Y-117392998D01*
X170221425Y-117339342D01*
X170211321Y-117269068D01*
X170240815Y-117204488D01*
X170256106Y-117189600D01*
X170277245Y-117172252D01*
X170404271Y-117017469D01*
X170498660Y-116840880D01*
X170556785Y-116649269D01*
X170569228Y-116522930D01*
X170576411Y-116450003D01*
X170576411Y-116449996D01*
X170556786Y-116250738D01*
X170556786Y-116250736D01*
X170556785Y-116250733D01*
X170556785Y-116250731D01*
X170498660Y-116059120D01*
X170404271Y-115882531D01*
X170277245Y-115727748D01*
X170122462Y-115600722D01*
X170122460Y-115600721D01*
X170122459Y-115600720D01*
X169945876Y-115506334D01*
X169945870Y-115506332D01*
X169809024Y-115464820D01*
X169754262Y-115448208D01*
X169754261Y-115448207D01*
X169754255Y-115448206D01*
X169554996Y-115428582D01*
X169554990Y-115428582D01*
X169355731Y-115448206D01*
X169355729Y-115448206D01*
X169164115Y-115506332D01*
X169164109Y-115506334D01*
X168987526Y-115600720D01*
X168832741Y-115727748D01*
X168705713Y-115882533D01*
X168611327Y-116059116D01*
X168611325Y-116059122D01*
X168553199Y-116250736D01*
X168553199Y-116250738D01*
X168533575Y-116449996D01*
X168533575Y-116450003D01*
X168553199Y-116649261D01*
X168553199Y-116649263D01*
X168611325Y-116840877D01*
X168611327Y-116840883D01*
X168705713Y-117017466D01*
X168705715Y-117017469D01*
X168832741Y-117172252D01*
X168853880Y-117189600D01*
X168893849Y-117248277D01*
X168895750Y-117319248D01*
X168858980Y-117379981D01*
X168795212Y-117411193D01*
X168773947Y-117413000D01*
X167497490Y-117413000D01*
X167429369Y-117392998D01*
X167382876Y-117339342D01*
X167372772Y-117269068D01*
X167402266Y-117204488D01*
X167438094Y-117175878D01*
X167582178Y-117098863D01*
X167582189Y-117098856D01*
X167638242Y-117052854D01*
X167638242Y-117052853D01*
X167226525Y-116641136D01*
X167287923Y-116605689D01*
X167370682Y-116522930D01*
X167406129Y-116461532D01*
X167817846Y-116873249D01*
X167817847Y-116873249D01*
X167863849Y-116817196D01*
X167863856Y-116817185D01*
X167958195Y-116640688D01*
X168016293Y-116449163D01*
X168035909Y-116250003D01*
X168035909Y-116249996D01*
X168016293Y-116050836D01*
X167958195Y-115859311D01*
X167863853Y-115682808D01*
X167817846Y-115626749D01*
X167406129Y-116038467D01*
X167370682Y-115977070D01*
X167287923Y-115894311D01*
X167226524Y-115858862D01*
X167638242Y-115447144D01*
X167582184Y-115401139D01*
X167405681Y-115306797D01*
X167214156Y-115248699D01*
X167214157Y-115248699D01*
X167014996Y-115229084D01*
X167014990Y-115229084D01*
X166815829Y-115248699D01*
X166624304Y-115306797D01*
X166447802Y-115401138D01*
X166447800Y-115401140D01*
X166391742Y-115447145D01*
X166803460Y-115858863D01*
X166742063Y-115894311D01*
X166659304Y-115977070D01*
X166623856Y-116038467D01*
X166212138Y-115626749D01*
X166166133Y-115682807D01*
X166166131Y-115682809D01*
X166071790Y-115859311D01*
X166013692Y-116050836D01*
X165994077Y-116249996D01*
X165994077Y-116250003D01*
X166013692Y-116449163D01*
X166071790Y-116640688D01*
X166166132Y-116817191D01*
X166212137Y-116873248D01*
X166623855Y-116461530D01*
X166659304Y-116522930D01*
X166742063Y-116605689D01*
X166803460Y-116641136D01*
X166391742Y-117052854D01*
X166447801Y-117098860D01*
X166591892Y-117175878D01*
X166642540Y-117225630D01*
X166658250Y-117294866D01*
X166634034Y-117361605D01*
X166577581Y-117404658D01*
X166532496Y-117413000D01*
X165256039Y-117413000D01*
X165187918Y-117392998D01*
X165141425Y-117339342D01*
X165131321Y-117269068D01*
X165160815Y-117204488D01*
X165176106Y-117189600D01*
X165197245Y-117172252D01*
X165324271Y-117017469D01*
X165418660Y-116840880D01*
X165476785Y-116649269D01*
X165489228Y-116522930D01*
X165496411Y-116450003D01*
X165496411Y-116449996D01*
X165476786Y-116250738D01*
X165476786Y-116250736D01*
X165476785Y-116250733D01*
X165476785Y-116250731D01*
X165418660Y-116059120D01*
X165324271Y-115882531D01*
X165197245Y-115727748D01*
X165042462Y-115600722D01*
X165042460Y-115600721D01*
X165042459Y-115600720D01*
X164865876Y-115506334D01*
X164865870Y-115506332D01*
X164729024Y-115464820D01*
X164674262Y-115448208D01*
X164674261Y-115448207D01*
X164674255Y-115448206D01*
X164474996Y-115428582D01*
X164474990Y-115428582D01*
X164275731Y-115448206D01*
X164275729Y-115448206D01*
X164084115Y-115506332D01*
X164084109Y-115506334D01*
X163907526Y-115600720D01*
X163752741Y-115727748D01*
X163625713Y-115882533D01*
X163531327Y-116059116D01*
X163531325Y-116059122D01*
X163473199Y-116250736D01*
X163473199Y-116250738D01*
X163453575Y-116449996D01*
X163453575Y-116450003D01*
X163473199Y-116649261D01*
X163473199Y-116649263D01*
X163531325Y-116840877D01*
X163531327Y-116840883D01*
X163625713Y-117017466D01*
X163625715Y-117017469D01*
X163752741Y-117172252D01*
X163773880Y-117189600D01*
X163813849Y-117248277D01*
X163815750Y-117319248D01*
X163778980Y-117379981D01*
X163715212Y-117411193D01*
X163693947Y-117413000D01*
X162418550Y-117413000D01*
X162350429Y-117392998D01*
X162303936Y-117339342D01*
X162293832Y-117269068D01*
X162323326Y-117204488D01*
X162359154Y-117175878D01*
X162432237Y-117136814D01*
X162502462Y-117099278D01*
X162657245Y-116972252D01*
X162784271Y-116817469D01*
X162878660Y-116640880D01*
X162936785Y-116449269D01*
X162936786Y-116449261D01*
X162956411Y-116250003D01*
X162956411Y-116249996D01*
X162936786Y-116050738D01*
X162936786Y-116050736D01*
X162936785Y-116050733D01*
X162936785Y-116050731D01*
X162878660Y-115859120D01*
X162849999Y-115805500D01*
X162784419Y-115682808D01*
X162784271Y-115682531D01*
X162657245Y-115527748D01*
X162502462Y-115400722D01*
X162372525Y-115331269D01*
X162356103Y-115322491D01*
X162305455Y-115272738D01*
X162289500Y-115211369D01*
X162289500Y-114814029D01*
X162309502Y-114745908D01*
X162326405Y-114724934D01*
X164259934Y-112791405D01*
X164322246Y-112757379D01*
X164349029Y-112754500D01*
X168996671Y-112754500D01*
X169086832Y-112730341D01*
X169167668Y-112683671D01*
X169706563Y-112144774D01*
X169768876Y-112110750D01*
X169839691Y-112115814D01*
X169896527Y-112158361D01*
X169912066Y-112185647D01*
X169940645Y-112254643D01*
X169940647Y-112254646D01*
X169940649Y-112254649D01*
X170029525Y-112370474D01*
X170124912Y-112443667D01*
X170145357Y-112459355D01*
X170280246Y-112515228D01*
X170425000Y-112534285D01*
X170569754Y-112515228D01*
X170704643Y-112459355D01*
X170820474Y-112370474D01*
X170820476Y-112370472D01*
X170824544Y-112366405D01*
X170886856Y-112332379D01*
X170913639Y-112329500D01*
X171174489Y-112329500D01*
X171264650Y-112305341D01*
X171345486Y-112258671D01*
X171525406Y-112078750D01*
X171587716Y-112044727D01*
X171658532Y-112049791D01*
G37*
%TD.AperFunction*%
%TA.AperFunction,Conductor*%
G36*
X175113012Y-103826226D02*
G01*
X175119595Y-103832355D01*
X177318595Y-106031355D01*
X177352621Y-106093667D01*
X177355500Y-106120450D01*
X177355500Y-111092429D01*
X177355499Y-111092447D01*
X177355499Y-111219839D01*
X177373808Y-111288166D01*
X177373808Y-111288167D01*
X177386470Y-111335423D01*
X177386475Y-111335435D01*
X177446306Y-111439066D01*
X177446314Y-111439076D01*
X177448143Y-111440905D01*
X177449192Y-111442827D01*
X177451337Y-111445622D01*
X177450901Y-111445956D01*
X177482169Y-111503217D01*
X177477104Y-111574032D01*
X177448144Y-111619095D01*
X177203582Y-111863657D01*
X176895932Y-112171307D01*
X176895930Y-112171309D01*
X176853620Y-112213619D01*
X176811310Y-112255928D01*
X176811306Y-112255933D01*
X176751475Y-112359564D01*
X176751470Y-112359578D01*
X176748550Y-112370472D01*
X176748551Y-112370473D01*
X176742291Y-112393837D01*
X176724032Y-112461981D01*
X176720499Y-112475165D01*
X176720499Y-112604986D01*
X176720500Y-112604999D01*
X176720500Y-115464812D01*
X176700498Y-115532933D01*
X176653898Y-115575933D01*
X176607530Y-115600718D01*
X176607527Y-115600719D01*
X176452741Y-115727748D01*
X176325713Y-115882533D01*
X176231327Y-116059116D01*
X176231325Y-116059122D01*
X176173199Y-116250736D01*
X176173199Y-116250738D01*
X176153575Y-116449996D01*
X176153575Y-116450003D01*
X176173199Y-116649261D01*
X176173199Y-116649263D01*
X176231325Y-116840877D01*
X176231327Y-116840883D01*
X176325713Y-117017466D01*
X176325715Y-117017469D01*
X176452741Y-117172252D01*
X176473880Y-117189600D01*
X176513849Y-117248277D01*
X176515750Y-117319248D01*
X176478980Y-117379981D01*
X176415212Y-117411193D01*
X176393947Y-117413000D01*
X175118550Y-117413000D01*
X175050429Y-117392998D01*
X175003936Y-117339342D01*
X174993832Y-117269068D01*
X175023326Y-117204488D01*
X175059154Y-117175878D01*
X175132237Y-117136814D01*
X175202462Y-117099278D01*
X175357245Y-116972252D01*
X175484271Y-116817469D01*
X175578660Y-116640880D01*
X175636785Y-116449269D01*
X175636786Y-116449261D01*
X175656411Y-116250003D01*
X175656411Y-116249996D01*
X175636786Y-116050738D01*
X175636786Y-116050736D01*
X175636785Y-116050733D01*
X175636785Y-116050731D01*
X175578660Y-115859120D01*
X175549999Y-115805500D01*
X175484419Y-115682808D01*
X175484271Y-115682531D01*
X175357245Y-115527748D01*
X175202462Y-115400722D01*
X175202460Y-115400721D01*
X175202459Y-115400720D01*
X175025876Y-115306334D01*
X175025870Y-115306332D01*
X174915126Y-115272738D01*
X174834262Y-115248208D01*
X174834261Y-115248207D01*
X174834255Y-115248206D01*
X174634996Y-115228582D01*
X174634990Y-115228582D01*
X174435731Y-115248206D01*
X174435729Y-115248206D01*
X174244115Y-115306332D01*
X174244109Y-115306334D01*
X174067526Y-115400720D01*
X173912741Y-115527748D01*
X173785713Y-115682533D01*
X173691327Y-115859116D01*
X173691325Y-115859122D01*
X173633199Y-116050736D01*
X173633199Y-116050738D01*
X173613575Y-116249996D01*
X173613575Y-116250003D01*
X173633199Y-116449261D01*
X173633199Y-116449263D01*
X173691325Y-116640877D01*
X173691327Y-116640883D01*
X173785563Y-116817185D01*
X173785715Y-116817469D01*
X173912741Y-116972252D01*
X174067524Y-117099278D01*
X174067526Y-117099279D01*
X174210832Y-117175878D01*
X174261480Y-117225630D01*
X174277190Y-117294867D01*
X174252974Y-117361606D01*
X174196520Y-117404658D01*
X174151436Y-117413000D01*
X172578550Y-117413000D01*
X172510429Y-117392998D01*
X172463936Y-117339342D01*
X172453832Y-117269068D01*
X172483326Y-117204488D01*
X172519154Y-117175878D01*
X172592237Y-117136814D01*
X172662462Y-117099278D01*
X172817245Y-116972252D01*
X172944271Y-116817469D01*
X173038660Y-116640880D01*
X173096785Y-116449269D01*
X173096786Y-116449261D01*
X173116411Y-116250003D01*
X173116411Y-116249996D01*
X173096786Y-116050738D01*
X173096786Y-116050736D01*
X173096785Y-116050733D01*
X173096785Y-116050731D01*
X173038660Y-115859120D01*
X173009999Y-115805500D01*
X172944419Y-115682808D01*
X172944271Y-115682531D01*
X172817245Y-115527748D01*
X172662462Y-115400722D01*
X172532525Y-115331269D01*
X172516103Y-115322491D01*
X172465455Y-115272738D01*
X172449500Y-115211369D01*
X172449500Y-113585201D01*
X172469502Y-113517080D01*
X172523158Y-113470587D01*
X172593432Y-113460483D01*
X172658012Y-113489977D01*
X172691909Y-113536983D01*
X172740644Y-113654641D01*
X172740649Y-113654649D01*
X172829525Y-113770474D01*
X172935562Y-113851839D01*
X172945357Y-113859355D01*
X173080246Y-113915228D01*
X173225000Y-113934285D01*
X173369754Y-113915228D01*
X173504643Y-113859355D01*
X173535716Y-113835511D01*
X173567796Y-113810896D01*
X173634016Y-113785295D01*
X173703565Y-113799559D01*
X173754361Y-113849160D01*
X173770500Y-113910858D01*
X173770500Y-114000969D01*
X173750498Y-114069090D01*
X173733595Y-114090064D01*
X173719849Y-114103810D01*
X173657537Y-114137836D01*
X173630754Y-114140715D01*
X173625000Y-114140715D01*
X173480247Y-114159771D01*
X173412802Y-114187708D01*
X173345358Y-114215645D01*
X173345357Y-114215646D01*
X173345356Y-114215646D01*
X173229526Y-114304526D01*
X173140646Y-114420356D01*
X173140645Y-114420358D01*
X173126624Y-114454208D01*
X173084771Y-114555247D01*
X173065715Y-114699999D01*
X173065715Y-114700000D01*
X173084771Y-114844752D01*
X173140644Y-114979641D01*
X173140649Y-114979649D01*
X173229525Y-115095474D01*
X173345350Y-115184350D01*
X173345357Y-115184355D01*
X173480246Y-115240228D01*
X173625000Y-115259285D01*
X173769754Y-115240228D01*
X173904643Y-115184355D01*
X174020474Y-115095474D01*
X174109355Y-114979643D01*
X174165228Y-114844754D01*
X174184285Y-114700000D01*
X174184285Y-114699999D01*
X174184285Y-114694244D01*
X174204287Y-114626123D01*
X174221190Y-114605148D01*
X174271092Y-114555246D01*
X174408671Y-114417668D01*
X174436957Y-114368674D01*
X174455341Y-114336832D01*
X174479500Y-114246671D01*
X174479500Y-109435028D01*
X174499502Y-109366907D01*
X174553158Y-109320414D01*
X174623432Y-109310310D01*
X174688012Y-109339804D01*
X174694595Y-109345933D01*
X174886918Y-109538256D01*
X174886939Y-109538279D01*
X174957327Y-109608667D01*
X174957330Y-109608669D01*
X174957332Y-109608671D01*
X174997979Y-109632138D01*
X175038168Y-109655341D01*
X175038170Y-109655342D01*
X175128324Y-109679499D01*
X175128328Y-109679500D01*
X175128329Y-109679500D01*
X175297163Y-109679500D01*
X175365284Y-109699502D01*
X175400915Y-109740622D01*
X175403371Y-109738982D01*
X175410265Y-109749300D01*
X175410266Y-109749301D01*
X175420710Y-109764931D01*
X175466516Y-109833484D01*
X175561018Y-109896630D01*
X175559135Y-109899447D01*
X175598535Y-109931191D01*
X175620962Y-109998553D01*
X175603411Y-110067346D01*
X175551454Y-110115729D01*
X175530542Y-110123958D01*
X175488268Y-110136370D01*
X175488266Y-110136372D01*
X175366225Y-110214803D01*
X175271223Y-110324441D01*
X175210958Y-110456403D01*
X175196590Y-110556333D01*
X175190312Y-110600000D01*
X175210958Y-110743596D01*
X175271223Y-110875558D01*
X175366225Y-110985196D01*
X175488268Y-111063629D01*
X175627464Y-111104500D01*
X175772536Y-111104500D01*
X175911732Y-111063629D01*
X176033775Y-110985196D01*
X176128777Y-110875558D01*
X176189042Y-110743596D01*
X176205122Y-110631755D01*
X176234614Y-110567177D01*
X176240731Y-110560605D01*
X176382292Y-110419044D01*
X176382302Y-110419037D01*
X176458665Y-110342674D01*
X176458671Y-110342668D01*
X176505341Y-110261832D01*
X176529500Y-110171671D01*
X176529500Y-110030499D01*
X176549502Y-109962378D01*
X176603158Y-109915885D01*
X176655500Y-109904499D01*
X176725064Y-109904499D01*
X176725066Y-109904499D01*
X176725069Y-109904498D01*
X176725072Y-109904498D01*
X176761663Y-109897219D01*
X176799301Y-109889734D01*
X176883484Y-109833484D01*
X176939734Y-109749301D01*
X176954500Y-109675067D01*
X176954499Y-108974934D01*
X176954498Y-108974931D01*
X176954498Y-108974926D01*
X176939734Y-108900699D01*
X176914086Y-108862315D01*
X176883484Y-108816516D01*
X176852231Y-108795633D01*
X176799302Y-108760266D01*
X176725067Y-108745500D01*
X175624936Y-108745500D01*
X175624926Y-108745501D01*
X175550699Y-108760265D01*
X175466516Y-108816515D01*
X175432184Y-108867895D01*
X175377706Y-108913422D01*
X175307262Y-108922268D01*
X175243219Y-108891626D01*
X175238324Y-108886986D01*
X175112076Y-108760738D01*
X174941404Y-108590065D01*
X174907379Y-108527753D01*
X174904500Y-108500970D01*
X174904500Y-107525022D01*
X175396001Y-107525022D01*
X175410737Y-107599105D01*
X175410737Y-107599107D01*
X175466875Y-107683124D01*
X175550893Y-107739262D01*
X175550894Y-107739263D01*
X175624980Y-107753999D01*
X176048000Y-107753999D01*
X176302000Y-107753999D01*
X176725014Y-107753999D01*
X176725022Y-107753998D01*
X176799105Y-107739262D01*
X176799107Y-107739262D01*
X176883124Y-107683124D01*
X176939262Y-107599106D01*
X176939263Y-107599105D01*
X176953999Y-107525022D01*
X176954000Y-107525015D01*
X176954000Y-107302000D01*
X176302000Y-107302000D01*
X176302000Y-107753999D01*
X176048000Y-107753999D01*
X176048000Y-107302000D01*
X175396001Y-107302000D01*
X175396001Y-107525022D01*
X174904500Y-107525022D01*
X174904500Y-106824977D01*
X175396000Y-106824977D01*
X175396000Y-107048000D01*
X176048000Y-107048000D01*
X176302000Y-107048000D01*
X176953999Y-107048000D01*
X176953999Y-106824986D01*
X176953998Y-106824977D01*
X176939262Y-106750894D01*
X176939262Y-106750892D01*
X176883124Y-106666875D01*
X176799106Y-106610737D01*
X176799105Y-106610736D01*
X176725022Y-106596000D01*
X176302000Y-106596000D01*
X176302000Y-107048000D01*
X176048000Y-107048000D01*
X176048000Y-106596000D01*
X175624986Y-106596000D01*
X175624976Y-106596001D01*
X175550894Y-106610737D01*
X175550892Y-106610737D01*
X175466875Y-106666875D01*
X175410737Y-106750893D01*
X175410736Y-106750894D01*
X175396000Y-106824977D01*
X174904500Y-106824977D01*
X174904500Y-103921450D01*
X174924502Y-103853329D01*
X174978158Y-103806836D01*
X175048432Y-103796732D01*
X175113012Y-103826226D01*
G37*
%TD.AperFunction*%
%TA.AperFunction,Conductor*%
G36*
X178897939Y-111974502D02*
G01*
X178940938Y-112021102D01*
X178965722Y-112067469D01*
X179092748Y-112222252D01*
X179247531Y-112349278D01*
X179424120Y-112443667D01*
X179615731Y-112501792D01*
X179615735Y-112501792D01*
X179615737Y-112501793D01*
X179814997Y-112521418D01*
X179815000Y-112521418D01*
X179815003Y-112521418D01*
X180014261Y-112501793D01*
X180014263Y-112501793D01*
X180014264Y-112501792D01*
X180014269Y-112501792D01*
X180205880Y-112443667D01*
X180299106Y-112393836D01*
X180368609Y-112379365D01*
X180434906Y-112404768D01*
X180476944Y-112461981D01*
X180484500Y-112504959D01*
X180484500Y-113172833D01*
X180465750Y-113236688D01*
X180484179Y-113286096D01*
X180484500Y-113295085D01*
X180484500Y-113297913D01*
X180464498Y-113366034D01*
X180447596Y-113387008D01*
X180006136Y-113828467D01*
X179970689Y-113767070D01*
X179887930Y-113684311D01*
X179826531Y-113648862D01*
X180238249Y-113237144D01*
X180182191Y-113191139D01*
X180005688Y-113096797D01*
X179814163Y-113038699D01*
X179814164Y-113038699D01*
X179615003Y-113019084D01*
X179614997Y-113019084D01*
X179415836Y-113038699D01*
X179224311Y-113096797D01*
X179047809Y-113191138D01*
X179047807Y-113191140D01*
X178991749Y-113237145D01*
X179403467Y-113648863D01*
X179342070Y-113684311D01*
X179259311Y-113767070D01*
X179223863Y-113828467D01*
X178812145Y-113416749D01*
X178766140Y-113472807D01*
X178766138Y-113472809D01*
X178671797Y-113649311D01*
X178613699Y-113840836D01*
X178594084Y-114039996D01*
X178594084Y-114040003D01*
X178613699Y-114239163D01*
X178671797Y-114430688D01*
X178766139Y-114607191D01*
X178812144Y-114663248D01*
X179223862Y-114251530D01*
X179259311Y-114312930D01*
X179342070Y-114395689D01*
X179403467Y-114431136D01*
X178991749Y-114842854D01*
X179047808Y-114888860D01*
X179224311Y-114983202D01*
X179415836Y-115041300D01*
X179415835Y-115041300D01*
X179614997Y-115060916D01*
X179615003Y-115060916D01*
X179814163Y-115041300D01*
X180005688Y-114983202D01*
X180182185Y-114888863D01*
X180182195Y-114888856D01*
X180238249Y-114842853D01*
X179826532Y-114431136D01*
X179887930Y-114395689D01*
X179970689Y-114312930D01*
X180006136Y-114251532D01*
X180447595Y-114692991D01*
X180481621Y-114755303D01*
X180484500Y-114782086D01*
X180484500Y-114784914D01*
X180467005Y-114844493D01*
X180484500Y-114907164D01*
X180484500Y-117287000D01*
X180464498Y-117355121D01*
X180410842Y-117401614D01*
X180358500Y-117413000D01*
X177956039Y-117413000D01*
X177887918Y-117392998D01*
X177841425Y-117339342D01*
X177831321Y-117269068D01*
X177860815Y-117204488D01*
X177876106Y-117189600D01*
X177897245Y-117172252D01*
X178024271Y-117017469D01*
X178118660Y-116840880D01*
X178176785Y-116649269D01*
X178189228Y-116522930D01*
X178196411Y-116450003D01*
X178196411Y-116449996D01*
X178176786Y-116250738D01*
X178176786Y-116250736D01*
X178176785Y-116250733D01*
X178176785Y-116250731D01*
X178118660Y-116059120D01*
X178024271Y-115882531D01*
X177897245Y-115727748D01*
X177742462Y-115600722D01*
X177742460Y-115600721D01*
X177742459Y-115600720D01*
X177696102Y-115575941D01*
X177645455Y-115526188D01*
X177629500Y-115464820D01*
X177629500Y-112775450D01*
X177649502Y-112707329D01*
X177666405Y-112686355D01*
X178361355Y-111991405D01*
X178423667Y-111957379D01*
X178450450Y-111954500D01*
X178829818Y-111954500D01*
X178897939Y-111974502D01*
G37*
%TD.AperFunction*%
%TA.AperFunction,Conductor*%
G36*
X159078975Y-109349502D02*
G01*
X159110613Y-109383954D01*
X159113024Y-109382176D01*
X159199989Y-109500010D01*
X159310225Y-109581368D01*
X159310232Y-109581371D01*
X159439546Y-109626620D01*
X159439549Y-109626621D01*
X159470251Y-109629500D01*
X160129748Y-109629499D01*
X160160451Y-109626621D01*
X160250381Y-109595152D01*
X160277885Y-109585529D01*
X160348789Y-109581909D01*
X160410394Y-109617198D01*
X160443141Y-109680191D01*
X160445500Y-109704458D01*
X160445500Y-109895541D01*
X160425498Y-109963662D01*
X160371842Y-110010155D01*
X160301568Y-110020259D01*
X160277885Y-110014470D01*
X160160453Y-109973379D01*
X160160455Y-109973379D01*
X160135889Y-109971075D01*
X160129749Y-109970500D01*
X160129748Y-109970500D01*
X159470259Y-109970500D01*
X159470244Y-109970501D01*
X159439547Y-109973379D01*
X159439544Y-109973380D01*
X159310232Y-110018628D01*
X159310225Y-110018631D01*
X159199989Y-110099989D01*
X159118631Y-110210225D01*
X159118628Y-110210232D01*
X159073379Y-110339545D01*
X159070500Y-110370248D01*
X159070500Y-110879740D01*
X159070501Y-110879755D01*
X159073379Y-110910452D01*
X159073380Y-110910455D01*
X159118628Y-111039767D01*
X159118631Y-111039774D01*
X159199989Y-111150010D01*
X159310225Y-111231368D01*
X159310232Y-111231371D01*
X159439546Y-111276620D01*
X159439549Y-111276621D01*
X159470251Y-111279500D01*
X160129748Y-111279499D01*
X160160451Y-111276621D01*
X160289773Y-111231369D01*
X160400010Y-111150010D01*
X160481369Y-111039773D01*
X160483660Y-111033226D01*
X160525037Y-110975534D01*
X160554379Y-110958427D01*
X160561823Y-110955343D01*
X160561832Y-110955341D01*
X160642668Y-110908671D01*
X161083671Y-110467668D01*
X161085379Y-110464708D01*
X161087473Y-110462711D01*
X161088698Y-110461116D01*
X161088946Y-110461306D01*
X161136761Y-110415714D01*
X161206474Y-110402276D01*
X161272386Y-110428661D01*
X161313569Y-110486493D01*
X161320500Y-110527706D01*
X161320500Y-111225971D01*
X161300498Y-111294092D01*
X161283595Y-111315066D01*
X159177332Y-113421329D01*
X159144331Y-113454330D01*
X159111330Y-113487330D01*
X159111326Y-113487335D01*
X159064659Y-113568166D01*
X159040500Y-113658325D01*
X159040500Y-115411362D01*
X159020498Y-115479483D01*
X158973896Y-115522484D01*
X158827526Y-115600720D01*
X158672741Y-115727748D01*
X158545713Y-115882533D01*
X158466147Y-116031391D01*
X158416395Y-116082039D01*
X158347158Y-116097749D01*
X158280419Y-116073533D01*
X158241515Y-116026689D01*
X158152226Y-115841381D01*
X158152223Y-115841377D01*
X158152220Y-115841371D01*
X158017077Y-115646397D01*
X158017069Y-115646387D01*
X157853085Y-115474950D01*
X157853078Y-115474944D01*
X157664290Y-115331269D01*
X157455346Y-115218894D01*
X157455345Y-115218893D01*
X157455344Y-115218893D01*
X157393451Y-115197252D01*
X157335750Y-115155887D01*
X157309572Y-115089892D01*
X157323229Y-115020222D01*
X157372385Y-114968995D01*
X157375644Y-114967190D01*
X157522189Y-114888861D01*
X157522196Y-114888856D01*
X157578249Y-114842854D01*
X157578249Y-114842853D01*
X157166532Y-114431136D01*
X157227930Y-114395689D01*
X157310689Y-114312930D01*
X157346136Y-114251532D01*
X157757853Y-114663249D01*
X157757854Y-114663249D01*
X157803856Y-114607196D01*
X157803863Y-114607185D01*
X157898202Y-114430688D01*
X157956300Y-114239163D01*
X157975916Y-114040003D01*
X157975916Y-114039996D01*
X157956300Y-113840836D01*
X157898202Y-113649311D01*
X157803860Y-113472808D01*
X157757853Y-113416749D01*
X157346136Y-113828467D01*
X157310689Y-113767070D01*
X157227930Y-113684311D01*
X157166531Y-113648862D01*
X157578249Y-113237144D01*
X157522191Y-113191139D01*
X157345688Y-113096797D01*
X157154163Y-113038699D01*
X157154164Y-113038699D01*
X156955003Y-113019084D01*
X156954997Y-113019084D01*
X156755836Y-113038699D01*
X156564311Y-113096797D01*
X156387809Y-113191138D01*
X156387807Y-113191140D01*
X156331749Y-113237145D01*
X156743467Y-113648863D01*
X156682070Y-113684311D01*
X156599311Y-113767070D01*
X156563863Y-113828467D01*
X156122405Y-113387009D01*
X156088379Y-113324697D01*
X156085500Y-113297914D01*
X156085500Y-113295086D01*
X156102994Y-113235504D01*
X156085500Y-113172831D01*
X156085500Y-112504959D01*
X156105502Y-112436838D01*
X156159158Y-112390345D01*
X156229432Y-112380241D01*
X156270891Y-112393835D01*
X156364120Y-112443667D01*
X156555731Y-112501792D01*
X156555735Y-112501792D01*
X156555737Y-112501793D01*
X156754997Y-112521418D01*
X156755000Y-112521418D01*
X156755003Y-112521418D01*
X156954261Y-112501793D01*
X156954263Y-112501793D01*
X156954264Y-112501792D01*
X156954269Y-112501792D01*
X157145880Y-112443667D01*
X157322469Y-112349278D01*
X157477252Y-112222252D01*
X157604278Y-112067469D01*
X157698667Y-111890880D01*
X157756792Y-111699269D01*
X157764550Y-111620500D01*
X157776418Y-111500003D01*
X157776418Y-111499996D01*
X157756793Y-111300738D01*
X157756793Y-111300736D01*
X157756792Y-111300733D01*
X157756792Y-111300731D01*
X157698667Y-111109120D01*
X157689745Y-111092429D01*
X157604279Y-110932533D01*
X157604278Y-110932531D01*
X157477252Y-110777748D01*
X157322469Y-110650722D01*
X157322467Y-110650721D01*
X157322466Y-110650720D01*
X157145883Y-110556334D01*
X157145877Y-110556332D01*
X156954262Y-110498206D01*
X156755003Y-110478582D01*
X156754997Y-110478582D01*
X156555738Y-110498206D01*
X156555736Y-110498206D01*
X156364122Y-110556332D01*
X156364116Y-110556334D01*
X156270896Y-110606162D01*
X156201390Y-110620634D01*
X156135094Y-110595230D01*
X156093056Y-110538017D01*
X156085500Y-110495040D01*
X156085500Y-109827812D01*
X156105502Y-109759691D01*
X156159158Y-109713198D01*
X156229432Y-109703094D01*
X156291430Y-109730410D01*
X156387531Y-109809278D01*
X156387533Y-109809279D01*
X156550954Y-109896630D01*
X156564120Y-109903667D01*
X156755731Y-109961792D01*
X156755735Y-109961792D01*
X156755737Y-109961793D01*
X156954997Y-109981418D01*
X156955000Y-109981418D01*
X156955003Y-109981418D01*
X157154261Y-109961793D01*
X157154263Y-109961793D01*
X157154264Y-109961792D01*
X157154269Y-109961792D01*
X157345880Y-109903667D01*
X157522469Y-109809278D01*
X157677252Y-109682252D01*
X157804278Y-109527469D01*
X157874495Y-109396103D01*
X157924248Y-109345455D01*
X157985617Y-109329500D01*
X159010854Y-109329500D01*
X159078975Y-109349502D01*
G37*
%TD.AperFunction*%
%TA.AperFunction,Conductor*%
G36*
X156599311Y-114312930D02*
G01*
X156682070Y-114395689D01*
X156743467Y-114431136D01*
X156300595Y-114874009D01*
X156238283Y-114908034D01*
X156167467Y-114902969D01*
X156110632Y-114860422D01*
X156085821Y-114793902D01*
X156085500Y-114784913D01*
X156085500Y-114782085D01*
X156105502Y-114713964D01*
X156122405Y-114692989D01*
X156563862Y-114251531D01*
X156599311Y-114312930D01*
G37*
%TD.AperFunction*%
%TA.AperFunction,Conductor*%
G36*
X175963012Y-101154805D02*
G01*
X175969595Y-101160934D01*
X176366329Y-101557668D01*
X176432332Y-101623671D01*
X176513168Y-101670341D01*
X176603329Y-101694500D01*
X176696671Y-101694500D01*
X178776366Y-101694500D01*
X178844487Y-101714502D01*
X178887488Y-101761104D01*
X178965722Y-101907469D01*
X179092748Y-102062252D01*
X179247531Y-102189278D01*
X179424120Y-102283667D01*
X179615731Y-102341792D01*
X179615735Y-102341792D01*
X179615737Y-102341793D01*
X179814997Y-102361418D01*
X179815000Y-102361418D01*
X179815003Y-102361418D01*
X180014261Y-102341793D01*
X180014263Y-102341793D01*
X180014264Y-102341792D01*
X180014269Y-102341792D01*
X180205880Y-102283667D01*
X180299106Y-102233836D01*
X180368609Y-102219365D01*
X180434906Y-102244768D01*
X180476944Y-102301981D01*
X180484500Y-102344959D01*
X180484500Y-103012187D01*
X180464498Y-103080308D01*
X180410842Y-103126801D01*
X180340568Y-103136905D01*
X180278567Y-103109587D01*
X180182469Y-103030722D01*
X180182467Y-103030721D01*
X180182466Y-103030720D01*
X180005883Y-102936334D01*
X180005877Y-102936332D01*
X179814262Y-102878206D01*
X179615003Y-102858582D01*
X179614997Y-102858582D01*
X179415738Y-102878206D01*
X179415736Y-102878206D01*
X179224122Y-102936332D01*
X179224116Y-102936334D01*
X179047533Y-103030720D01*
X178892748Y-103157748D01*
X178765720Y-103312533D01*
X178671334Y-103489116D01*
X178671332Y-103489122D01*
X178613206Y-103680736D01*
X178613206Y-103680738D01*
X178593582Y-103879996D01*
X178593582Y-103880003D01*
X178613206Y-104079261D01*
X178613206Y-104079263D01*
X178671332Y-104270877D01*
X178671334Y-104270883D01*
X178764220Y-104444659D01*
X178765722Y-104447469D01*
X178892748Y-104602252D01*
X179047531Y-104729278D01*
X179067718Y-104740068D01*
X179208984Y-104815577D01*
X179224120Y-104823667D01*
X179415731Y-104881792D01*
X179415735Y-104881792D01*
X179415737Y-104881793D01*
X179614997Y-104901418D01*
X179615000Y-104901418D01*
X179615003Y-104901418D01*
X179814261Y-104881793D01*
X179814263Y-104881793D01*
X179814264Y-104881792D01*
X179814269Y-104881792D01*
X180005880Y-104823667D01*
X180182469Y-104729278D01*
X180278569Y-104650410D01*
X180343914Y-104622659D01*
X180413892Y-104634641D01*
X180466284Y-104682554D01*
X180484500Y-104747812D01*
X180484500Y-105415040D01*
X180464498Y-105483161D01*
X180410842Y-105529654D01*
X180340568Y-105539758D01*
X180299104Y-105526162D01*
X180205883Y-105476334D01*
X180205877Y-105476332D01*
X180125105Y-105451830D01*
X180014269Y-105418208D01*
X180014268Y-105418207D01*
X180014262Y-105418206D01*
X179815003Y-105398582D01*
X179814997Y-105398582D01*
X179615738Y-105418206D01*
X179615736Y-105418206D01*
X179424122Y-105476332D01*
X179424116Y-105476334D01*
X179247533Y-105570720D01*
X179092748Y-105697748D01*
X178965720Y-105852533D01*
X178871334Y-106029116D01*
X178871332Y-106029122D01*
X178813206Y-106220736D01*
X178813206Y-106220738D01*
X178793582Y-106419996D01*
X178793582Y-106420003D01*
X178813206Y-106619261D01*
X178813206Y-106619263D01*
X178871332Y-106810877D01*
X178871334Y-106810883D01*
X178964221Y-106984661D01*
X178965722Y-106987469D01*
X179092748Y-107142252D01*
X179247531Y-107269278D01*
X179247533Y-107269279D01*
X179347429Y-107322675D01*
X179424120Y-107363667D01*
X179615731Y-107421792D01*
X179615735Y-107421792D01*
X179615737Y-107421793D01*
X179814997Y-107441418D01*
X179815000Y-107441418D01*
X179815003Y-107441418D01*
X180014261Y-107421793D01*
X180014263Y-107421793D01*
X180014264Y-107421792D01*
X180014269Y-107421792D01*
X180205880Y-107363667D01*
X180299106Y-107313836D01*
X180368609Y-107299365D01*
X180434906Y-107324768D01*
X180476944Y-107381981D01*
X180484500Y-107424959D01*
X180484500Y-108092187D01*
X180464498Y-108160308D01*
X180410842Y-108206801D01*
X180340568Y-108216905D01*
X180278567Y-108189587D01*
X180258323Y-108172973D01*
X180182469Y-108110722D01*
X180182467Y-108110721D01*
X180182466Y-108110720D01*
X180005883Y-108016334D01*
X180005877Y-108016332D01*
X179814262Y-107958206D01*
X179615003Y-107938582D01*
X179614997Y-107938582D01*
X179415738Y-107958206D01*
X179415736Y-107958206D01*
X179224122Y-108016332D01*
X179224116Y-108016334D01*
X179047533Y-108110720D01*
X178892748Y-108237748D01*
X178765720Y-108392533D01*
X178671334Y-108569116D01*
X178671332Y-108569122D01*
X178613206Y-108760736D01*
X178613206Y-108760738D01*
X178593582Y-108959996D01*
X178593582Y-108960003D01*
X178613206Y-109159261D01*
X178613206Y-109159263D01*
X178671332Y-109350877D01*
X178671334Y-109350883D01*
X178765720Y-109527466D01*
X178765722Y-109527469D01*
X178892748Y-109682252D01*
X179047531Y-109809278D01*
X179047533Y-109809279D01*
X179210954Y-109896630D01*
X179224120Y-109903667D01*
X179415731Y-109961792D01*
X179415735Y-109961792D01*
X179415737Y-109961793D01*
X179614997Y-109981418D01*
X179615000Y-109981418D01*
X179615003Y-109981418D01*
X179814261Y-109961793D01*
X179814263Y-109961793D01*
X179814264Y-109961792D01*
X179814269Y-109961792D01*
X180005880Y-109903667D01*
X180182469Y-109809278D01*
X180278569Y-109730410D01*
X180343914Y-109702659D01*
X180413892Y-109714641D01*
X180466284Y-109762554D01*
X180484500Y-109827812D01*
X180484500Y-110495040D01*
X180464498Y-110563161D01*
X180410842Y-110609654D01*
X180340568Y-110619758D01*
X180299104Y-110606162D01*
X180205883Y-110556334D01*
X180205877Y-110556332D01*
X180014262Y-110498206D01*
X179815003Y-110478582D01*
X179814997Y-110478582D01*
X179615738Y-110498206D01*
X179615736Y-110498206D01*
X179424122Y-110556332D01*
X179424116Y-110556334D01*
X179247533Y-110650720D01*
X179247531Y-110650722D01*
X179092748Y-110777748D01*
X178965722Y-110932531D01*
X178940938Y-110978897D01*
X178891189Y-111029544D01*
X178829818Y-111045500D01*
X178390500Y-111045500D01*
X178322379Y-111025498D01*
X178275886Y-110971842D01*
X178264500Y-110919500D01*
X178264500Y-105949999D01*
X178264501Y-105949986D01*
X178264501Y-105820164D01*
X178264500Y-105820160D01*
X178233527Y-105704570D01*
X178233526Y-105704567D01*
X178173693Y-105600933D01*
X178173685Y-105600923D01*
X178084681Y-105511919D01*
X178084658Y-105511898D01*
X175791405Y-103218645D01*
X175757379Y-103156333D01*
X175754500Y-103129550D01*
X175754500Y-101250029D01*
X175774502Y-101181908D01*
X175828158Y-101135415D01*
X175898432Y-101125311D01*
X175963012Y-101154805D01*
G37*
%TD.AperFunction*%
%TA.AperFunction,Conductor*%
G36*
X171188121Y-106924502D02*
G01*
X171234614Y-106978158D01*
X171246000Y-107030500D01*
X171246000Y-107048000D01*
X172026000Y-107048000D01*
X172094121Y-107068002D01*
X172140614Y-107121658D01*
X172152000Y-107174000D01*
X172152000Y-107753999D01*
X172444500Y-107753999D01*
X172512621Y-107774001D01*
X172559114Y-107827657D01*
X172570500Y-107879999D01*
X172570500Y-108619500D01*
X172550498Y-108687621D01*
X172496842Y-108734114D01*
X172444500Y-108745500D01*
X171474936Y-108745500D01*
X171474926Y-108745501D01*
X171400699Y-108760265D01*
X171316515Y-108816516D01*
X171253370Y-108911018D01*
X171250414Y-108909042D01*
X171219037Y-108947990D01*
X171151677Y-108970419D01*
X171147163Y-108970500D01*
X171028325Y-108970500D01*
X170938170Y-108994657D01*
X170876564Y-109030226D01*
X170876560Y-109030228D01*
X170857334Y-109041327D01*
X170857332Y-109041328D01*
X170840066Y-109058595D01*
X170777754Y-109092621D01*
X170750971Y-109095500D01*
X170735121Y-109095500D01*
X170667000Y-109075498D01*
X170631554Y-109036904D01*
X170630308Y-109037824D01*
X170543342Y-108919989D01*
X170433106Y-108838631D01*
X170433099Y-108838628D01*
X170303785Y-108793379D01*
X170303787Y-108793379D01*
X170273083Y-108790500D01*
X170273081Y-108790500D01*
X169842361Y-108790500D01*
X169774240Y-108770498D01*
X169753270Y-108753599D01*
X169664265Y-108664594D01*
X169630240Y-108602282D01*
X169635306Y-108531466D01*
X169677853Y-108474630D01*
X169744373Y-108449820D01*
X169753338Y-108449499D01*
X170273080Y-108449499D01*
X170303783Y-108446621D01*
X170433105Y-108401369D01*
X170543342Y-108320010D01*
X170624701Y-108209773D01*
X170669953Y-108080451D01*
X170672832Y-108049749D01*
X170672831Y-107540252D01*
X170671403Y-107525022D01*
X171246001Y-107525022D01*
X171260737Y-107599105D01*
X171260737Y-107599107D01*
X171316875Y-107683124D01*
X171400893Y-107739262D01*
X171400894Y-107739263D01*
X171474980Y-107753999D01*
X171898000Y-107753999D01*
X171898000Y-107302000D01*
X171246001Y-107302000D01*
X171246001Y-107525022D01*
X170671403Y-107525022D01*
X170669953Y-107509549D01*
X170646113Y-107441418D01*
X170624703Y-107380232D01*
X170624700Y-107380225D01*
X170543342Y-107269989D01*
X170433106Y-107188631D01*
X170433099Y-107188628D01*
X170321073Y-107149429D01*
X170263381Y-107108051D01*
X170237219Y-107042051D01*
X170250891Y-106972383D01*
X170300059Y-106921167D01*
X170362688Y-106904500D01*
X171120000Y-106904500D01*
X171188121Y-106924502D01*
G37*
%TD.AperFunction*%
%TA.AperFunction,Conductor*%
G36*
X164229284Y-101206252D02*
G01*
X164275777Y-101259908D01*
X164285881Y-101330182D01*
X164256387Y-101394762D01*
X164250258Y-101401345D01*
X163332332Y-102319271D01*
X163309811Y-102341792D01*
X163266330Y-102385272D01*
X163266326Y-102385277D01*
X163219659Y-102466108D01*
X163195500Y-102556267D01*
X163195500Y-102734619D01*
X163175498Y-102802740D01*
X163164725Y-102817131D01*
X163121224Y-102867334D01*
X163060958Y-102999297D01*
X163049094Y-103081815D01*
X163040312Y-103142894D01*
X163060958Y-103286490D01*
X163121223Y-103418452D01*
X163216225Y-103528090D01*
X163338268Y-103606523D01*
X163477464Y-103647394D01*
X163622536Y-103647394D01*
X163734002Y-103614665D01*
X163804999Y-103614665D01*
X163864725Y-103653049D01*
X163894218Y-103717630D01*
X163895500Y-103735561D01*
X163895500Y-108696674D01*
X163919659Y-108786833D01*
X163922821Y-108794468D01*
X163920006Y-108795633D01*
X163933319Y-108850484D01*
X163910104Y-108917578D01*
X163854301Y-108961470D01*
X163807461Y-108970500D01*
X162552837Y-108970500D01*
X162484716Y-108950498D01*
X162449084Y-108909377D01*
X162446629Y-108911018D01*
X162439734Y-108900699D01*
X162383484Y-108816516D01*
X162352231Y-108795633D01*
X162299302Y-108760266D01*
X162225069Y-108745500D01*
X162225067Y-108745500D01*
X161610029Y-108745500D01*
X161541908Y-108725498D01*
X161495415Y-108671842D01*
X161485311Y-108601568D01*
X161514805Y-108536988D01*
X161520934Y-108530404D01*
X161631679Y-108419659D01*
X161958671Y-108092668D01*
X161983450Y-108049749D01*
X161983453Y-108049745D01*
X161992703Y-108033722D01*
X162005341Y-108011832D01*
X162029500Y-107921671D01*
X162029500Y-107880499D01*
X162049502Y-107812378D01*
X162103158Y-107765885D01*
X162155500Y-107754499D01*
X162225064Y-107754499D01*
X162225066Y-107754499D01*
X162225069Y-107754498D01*
X162225072Y-107754498D01*
X162249352Y-107749668D01*
X162299301Y-107739734D01*
X162357667Y-107700734D01*
X162425418Y-107679520D01*
X162427668Y-107679500D01*
X162472536Y-107679500D01*
X162611732Y-107638629D01*
X162733775Y-107560196D01*
X162828777Y-107450558D01*
X162889042Y-107318596D01*
X162909688Y-107175000D01*
X162889042Y-107031404D01*
X162828777Y-106899442D01*
X162733775Y-106789804D01*
X162733774Y-106789803D01*
X162672753Y-106750587D01*
X162611732Y-106711371D01*
X162611731Y-106711370D01*
X162611730Y-106711370D01*
X162472536Y-106670500D01*
X162427669Y-106670500D01*
X162359548Y-106650498D01*
X162357666Y-106649265D01*
X162299300Y-106610265D01*
X162225069Y-106595500D01*
X162225067Y-106595500D01*
X162155500Y-106595500D01*
X162087379Y-106575498D01*
X162040886Y-106521842D01*
X162029500Y-106469500D01*
X162029500Y-105278329D01*
X162029499Y-105278325D01*
X162025548Y-105263582D01*
X162005341Y-105188168D01*
X162003080Y-105184251D01*
X161958673Y-105107335D01*
X161958665Y-105107325D01*
X161888284Y-105036944D01*
X161888261Y-105036923D01*
X161342670Y-104491331D01*
X161342664Y-104491326D01*
X161261833Y-104444659D01*
X161171674Y-104420500D01*
X161171671Y-104420500D01*
X160589146Y-104420500D01*
X160521025Y-104400498D01*
X160489386Y-104366045D01*
X160486976Y-104367824D01*
X160400010Y-104249989D01*
X160289774Y-104168631D01*
X160289767Y-104168628D01*
X160160453Y-104123379D01*
X160160455Y-104123379D01*
X160135889Y-104121075D01*
X160129749Y-104120500D01*
X160129748Y-104120500D01*
X159470259Y-104120500D01*
X159470244Y-104120501D01*
X159439548Y-104123379D01*
X159404391Y-104135681D01*
X159333486Y-104139299D01*
X159271881Y-104104009D01*
X159239135Y-104041015D01*
X159245645Y-103970318D01*
X159273680Y-103927658D01*
X161978184Y-101223155D01*
X162040496Y-101189129D01*
X162067279Y-101186250D01*
X164161163Y-101186250D01*
X164229284Y-101206252D01*
G37*
%TD.AperFunction*%
%TA.AperFunction,Conductor*%
G36*
X159078975Y-106799502D02*
G01*
X159110613Y-106833954D01*
X159113024Y-106832176D01*
X159199989Y-106950010D01*
X159310225Y-107031368D01*
X159310232Y-107031371D01*
X159390178Y-107059346D01*
X159447870Y-107100724D01*
X159474032Y-107166725D01*
X159470270Y-107210886D01*
X159445500Y-107303329D01*
X159445500Y-108231894D01*
X159425498Y-108300015D01*
X159371842Y-108346508D01*
X159361116Y-108350823D01*
X159310230Y-108368629D01*
X159310225Y-108368631D01*
X159199989Y-108449989D01*
X159113024Y-108567824D01*
X159110210Y-108565747D01*
X159072748Y-108604250D01*
X159010854Y-108620500D01*
X158001652Y-108620500D01*
X157933531Y-108600498D01*
X157890530Y-108553896D01*
X157804279Y-108392533D01*
X157804278Y-108392531D01*
X157677252Y-108237748D01*
X157522469Y-108110722D01*
X157522467Y-108110721D01*
X157522466Y-108110720D01*
X157345883Y-108016334D01*
X157345877Y-108016332D01*
X157154262Y-107958206D01*
X156955003Y-107938582D01*
X156954997Y-107938582D01*
X156755738Y-107958206D01*
X156755736Y-107958206D01*
X156564122Y-108016332D01*
X156564116Y-108016334D01*
X156387533Y-108110720D01*
X156291433Y-108189587D01*
X156226085Y-108217340D01*
X156156107Y-108205358D01*
X156103716Y-108157445D01*
X156085500Y-108092187D01*
X156085500Y-107424959D01*
X156105502Y-107356838D01*
X156159158Y-107310345D01*
X156229432Y-107300241D01*
X156270891Y-107313835D01*
X156364120Y-107363667D01*
X156555731Y-107421792D01*
X156555735Y-107421792D01*
X156555737Y-107421793D01*
X156754997Y-107441418D01*
X156755000Y-107441418D01*
X156755003Y-107441418D01*
X156954261Y-107421793D01*
X156954263Y-107421793D01*
X156954264Y-107421792D01*
X156954269Y-107421792D01*
X157145880Y-107363667D01*
X157322469Y-107269278D01*
X157477252Y-107142252D01*
X157604278Y-106987469D01*
X157679839Y-106846103D01*
X157729591Y-106795456D01*
X157790961Y-106779500D01*
X158878329Y-106779500D01*
X158971671Y-106779500D01*
X159010854Y-106779500D01*
X159078975Y-106799502D01*
G37*
%TD.AperFunction*%
%TA.AperFunction,Conductor*%
G36*
X160813532Y-107204620D02*
G01*
X160870368Y-107247166D01*
X160895179Y-107313687D01*
X160895500Y-107322675D01*
X160895500Y-107525063D01*
X160895501Y-107525073D01*
X160910265Y-107599300D01*
X160966516Y-107683484D01*
X161050695Y-107739732D01*
X161050697Y-107739733D01*
X161050699Y-107739734D01*
X161050700Y-107739734D01*
X161059072Y-107743202D01*
X161114354Y-107787750D01*
X161136776Y-107855113D01*
X161119219Y-107923904D01*
X161099952Y-107948707D01*
X160587900Y-108460760D01*
X160525587Y-108494785D01*
X160454772Y-108489721D01*
X160408368Y-108454984D01*
X160406687Y-108456666D01*
X160400011Y-108449990D01*
X160289774Y-108368631D01*
X160289769Y-108368629D01*
X160238884Y-108350823D01*
X160181192Y-108309444D01*
X160155030Y-108243443D01*
X160154500Y-108231894D01*
X160154500Y-107605500D01*
X160174502Y-107537379D01*
X160228158Y-107490886D01*
X160280500Y-107479500D01*
X160334319Y-107479500D01*
X160424480Y-107455341D01*
X160505316Y-107408671D01*
X160680408Y-107233578D01*
X160742716Y-107199556D01*
X160813532Y-107204620D01*
G37*
%TD.AperFunction*%
%TA.AperFunction,Conductor*%
G36*
X160994091Y-105149502D02*
G01*
X161015065Y-105166404D01*
X161283595Y-105434933D01*
X161317620Y-105497246D01*
X161320500Y-105524029D01*
X161320500Y-106469500D01*
X161300498Y-106537621D01*
X161246842Y-106584114D01*
X161194502Y-106595500D01*
X161124937Y-106595500D01*
X161124926Y-106595501D01*
X161080080Y-106604422D01*
X161009366Y-106598093D01*
X160953299Y-106554538D01*
X160929681Y-106487586D01*
X160929500Y-106480843D01*
X160929500Y-105965681D01*
X160929499Y-105965677D01*
X160923824Y-105944500D01*
X160905341Y-105875520D01*
X160892070Y-105852533D01*
X160858673Y-105794687D01*
X160858669Y-105794682D01*
X160792668Y-105728681D01*
X160461389Y-105397402D01*
X160427364Y-105335090D01*
X160432429Y-105264274D01*
X160449102Y-105233492D01*
X160481369Y-105189773D01*
X160481369Y-105189771D01*
X160486977Y-105182174D01*
X160489791Y-105184251D01*
X160527252Y-105145750D01*
X160589146Y-105129500D01*
X160925970Y-105129500D01*
X160994091Y-105149502D01*
G37*
%TD.AperFunction*%
%TA.AperFunction,Conductor*%
G36*
X157994105Y-104397655D02*
G01*
X158037158Y-104454109D01*
X158045500Y-104499194D01*
X158045500Y-105944500D01*
X158025498Y-106012621D01*
X157971842Y-106059114D01*
X157919500Y-106070500D01*
X157796307Y-106070500D01*
X157728186Y-106050498D01*
X157685185Y-106003896D01*
X157613458Y-105869707D01*
X157604278Y-105852531D01*
X157477252Y-105697748D01*
X157322469Y-105570722D01*
X157322467Y-105570721D01*
X157322466Y-105570720D01*
X157145883Y-105476334D01*
X157145877Y-105476332D01*
X157065105Y-105451830D01*
X156954269Y-105418208D01*
X156954268Y-105418207D01*
X156954262Y-105418206D01*
X156755003Y-105398582D01*
X156754997Y-105398582D01*
X156555738Y-105418206D01*
X156555736Y-105418206D01*
X156364122Y-105476332D01*
X156364116Y-105476334D01*
X156270896Y-105526162D01*
X156201390Y-105540634D01*
X156135094Y-105515230D01*
X156093056Y-105458017D01*
X156085500Y-105415040D01*
X156085500Y-104747812D01*
X156105502Y-104679691D01*
X156159158Y-104633198D01*
X156229432Y-104623094D01*
X156291430Y-104650410D01*
X156387531Y-104729278D01*
X156407718Y-104740068D01*
X156548984Y-104815577D01*
X156564120Y-104823667D01*
X156755731Y-104881792D01*
X156755735Y-104881792D01*
X156755737Y-104881793D01*
X156954997Y-104901418D01*
X156955000Y-104901418D01*
X156955003Y-104901418D01*
X157154261Y-104881793D01*
X157154263Y-104881793D01*
X157154264Y-104881792D01*
X157154269Y-104881792D01*
X157345880Y-104823667D01*
X157522469Y-104729278D01*
X157677252Y-104602252D01*
X157804278Y-104447469D01*
X157808378Y-104439797D01*
X157858129Y-104389150D01*
X157927366Y-104373440D01*
X157994105Y-104397655D01*
G37*
%TD.AperFunction*%
%TA.AperFunction,Conductor*%
G36*
X161789092Y-94094502D02*
G01*
X161810066Y-94111405D01*
X163107625Y-95408964D01*
X163141651Y-95471276D01*
X163136586Y-95542091D01*
X163094039Y-95598927D01*
X163054028Y-95618955D01*
X162994716Y-95636370D01*
X162994712Y-95636372D01*
X162872671Y-95714803D01*
X162777669Y-95824441D01*
X162726232Y-95937074D01*
X162717404Y-95956404D01*
X162696758Y-96100000D01*
X162717404Y-96243596D01*
X162777669Y-96375558D01*
X162872671Y-96485196D01*
X162994714Y-96563629D01*
X163133910Y-96604500D01*
X163150971Y-96604500D01*
X163219092Y-96624502D01*
X163240066Y-96641405D01*
X165256095Y-98657434D01*
X165290121Y-98719746D01*
X165293000Y-98746529D01*
X165293000Y-98887927D01*
X165272998Y-98956048D01*
X165230746Y-98992658D01*
X165232068Y-98994588D01*
X165222432Y-99001188D01*
X165141938Y-99081682D01*
X165141937Y-99081684D01*
X165092126Y-99194497D01*
X165090310Y-99193695D01*
X165059409Y-99243955D01*
X164995429Y-99274730D01*
X164924968Y-99266030D01*
X164879790Y-99232908D01*
X164848893Y-99197251D01*
X164833775Y-99179804D01*
X164833774Y-99179803D01*
X164742264Y-99120993D01*
X164711732Y-99101371D01*
X164711731Y-99101370D01*
X164711730Y-99101370D01*
X164572536Y-99060500D01*
X164427464Y-99060500D01*
X164288269Y-99101370D01*
X164288266Y-99101372D01*
X164166225Y-99179803D01*
X164071223Y-99289441D01*
X164010958Y-99421403D01*
X163990312Y-99565000D01*
X164010958Y-99708596D01*
X164052202Y-99798908D01*
X164062305Y-99869182D01*
X164032812Y-99933763D01*
X163973086Y-99972146D01*
X163937588Y-99977250D01*
X161755889Y-99977250D01*
X161665730Y-100001409D01*
X161584899Y-100048076D01*
X161584889Y-100048084D01*
X159019580Y-102613395D01*
X158182332Y-103450643D01*
X158163378Y-103469597D01*
X158116326Y-103516648D01*
X158115228Y-103518080D01*
X158113994Y-103518980D01*
X158110489Y-103522486D01*
X158109942Y-103521939D01*
X158057888Y-103559944D01*
X157987016Y-103564161D01*
X157925116Y-103529394D01*
X157902004Y-103494354D01*
X157901585Y-103494579D01*
X157899160Y-103490042D01*
X157898863Y-103489592D01*
X157898668Y-103489123D01*
X157898667Y-103489122D01*
X157898667Y-103489120D01*
X157804278Y-103312531D01*
X157677252Y-103157748D01*
X157522469Y-103030722D01*
X157522467Y-103030721D01*
X157522466Y-103030720D01*
X157345883Y-102936334D01*
X157345877Y-102936332D01*
X157154262Y-102878206D01*
X156955003Y-102858582D01*
X156954997Y-102858582D01*
X156755738Y-102878206D01*
X156755736Y-102878206D01*
X156564122Y-102936332D01*
X156564116Y-102936334D01*
X156387533Y-103030720D01*
X156291433Y-103109587D01*
X156226085Y-103137340D01*
X156156107Y-103125358D01*
X156103716Y-103077445D01*
X156085500Y-103012187D01*
X156085500Y-102344959D01*
X156105502Y-102276838D01*
X156159158Y-102230345D01*
X156229432Y-102220241D01*
X156270891Y-102233835D01*
X156364120Y-102283667D01*
X156555731Y-102341792D01*
X156555735Y-102341792D01*
X156555737Y-102341793D01*
X156754997Y-102361418D01*
X156755000Y-102361418D01*
X156755003Y-102361418D01*
X156954261Y-102341793D01*
X156954263Y-102341793D01*
X156954264Y-102341792D01*
X156954269Y-102341792D01*
X157145880Y-102283667D01*
X157322469Y-102189278D01*
X157477252Y-102062252D01*
X157604278Y-101907469D01*
X157698667Y-101730880D01*
X157756792Y-101539269D01*
X157762859Y-101477673D01*
X157776418Y-101340003D01*
X157776418Y-101339996D01*
X157756793Y-101140738D01*
X157756793Y-101140736D01*
X157756792Y-101140733D01*
X157756792Y-101140731D01*
X157698667Y-100949120D01*
X157691224Y-100935196D01*
X157611543Y-100786123D01*
X157604278Y-100772531D01*
X157477252Y-100617748D01*
X157322469Y-100490722D01*
X157322467Y-100490721D01*
X157322466Y-100490720D01*
X157145883Y-100396334D01*
X157145877Y-100396332D01*
X157123975Y-100389688D01*
X159281000Y-100389688D01*
X159283876Y-100420360D01*
X159329076Y-100549534D01*
X159410347Y-100659652D01*
X159520465Y-100740923D01*
X159649640Y-100786123D01*
X159649638Y-100786123D01*
X159680311Y-100788999D01*
X159680317Y-100789000D01*
X159883000Y-100789000D01*
X160137000Y-100789000D01*
X160339683Y-100789000D01*
X160339688Y-100788999D01*
X160370360Y-100786123D01*
X160499534Y-100740923D01*
X160609652Y-100659652D01*
X160690923Y-100549534D01*
X160736123Y-100420360D01*
X160738999Y-100389688D01*
X160739000Y-100389682D01*
X160739000Y-100262000D01*
X160137000Y-100262000D01*
X160137000Y-100789000D01*
X159883000Y-100789000D01*
X159883000Y-100262000D01*
X159281000Y-100262000D01*
X159281000Y-100389688D01*
X157123975Y-100389688D01*
X156954262Y-100338206D01*
X156755003Y-100318582D01*
X156754997Y-100318582D01*
X156555738Y-100338206D01*
X156555736Y-100338206D01*
X156364122Y-100396332D01*
X156364116Y-100396334D01*
X156270896Y-100446162D01*
X156201390Y-100460634D01*
X156135094Y-100435230D01*
X156093056Y-100378017D01*
X156085500Y-100335040D01*
X156085500Y-99880311D01*
X159281000Y-99880311D01*
X159281000Y-100008000D01*
X159883000Y-100008000D01*
X160137000Y-100008000D01*
X160739000Y-100008000D01*
X160739000Y-99880317D01*
X160738999Y-99880311D01*
X160736123Y-99849639D01*
X160690923Y-99720465D01*
X160609652Y-99610347D01*
X160499534Y-99529076D01*
X160370359Y-99483876D01*
X160370361Y-99483876D01*
X160339688Y-99481000D01*
X160137000Y-99481000D01*
X160137000Y-100008000D01*
X159883000Y-100008000D01*
X159883000Y-99481000D01*
X159680311Y-99481000D01*
X159649639Y-99483876D01*
X159520465Y-99529076D01*
X159410347Y-99610347D01*
X159329076Y-99720465D01*
X159283876Y-99849639D01*
X159281000Y-99880311D01*
X156085500Y-99880311D01*
X156085500Y-99667812D01*
X156105502Y-99599691D01*
X156159158Y-99553198D01*
X156229432Y-99543094D01*
X156291430Y-99570410D01*
X156387531Y-99649278D01*
X156387533Y-99649279D01*
X156561618Y-99742330D01*
X156564120Y-99743667D01*
X156755731Y-99801792D01*
X156755735Y-99801792D01*
X156755737Y-99801793D01*
X156954997Y-99821418D01*
X156955000Y-99821418D01*
X156955003Y-99821418D01*
X157154261Y-99801793D01*
X157154263Y-99801793D01*
X157154264Y-99801792D01*
X157154269Y-99801792D01*
X157345880Y-99743667D01*
X157522469Y-99649278D01*
X157677252Y-99522252D01*
X157804278Y-99367469D01*
X157898667Y-99190880D01*
X157956792Y-98999269D01*
X157961049Y-98956048D01*
X157976418Y-98800003D01*
X157976418Y-98799996D01*
X157956793Y-98600738D01*
X157956793Y-98600736D01*
X157956792Y-98600733D01*
X157956792Y-98600731D01*
X157898667Y-98409120D01*
X157804278Y-98232531D01*
X157677252Y-98077748D01*
X157522469Y-97950722D01*
X157522467Y-97950721D01*
X157522466Y-97950720D01*
X157345883Y-97856334D01*
X157345877Y-97856332D01*
X157154262Y-97798206D01*
X156955003Y-97778582D01*
X156954997Y-97778582D01*
X156755738Y-97798206D01*
X156755736Y-97798206D01*
X156564122Y-97856332D01*
X156564116Y-97856334D01*
X156387533Y-97950720D01*
X156291433Y-98029587D01*
X156226085Y-98057340D01*
X156156107Y-98045358D01*
X156103716Y-97997445D01*
X156085500Y-97932187D01*
X156085500Y-97264959D01*
X156105502Y-97196838D01*
X156159158Y-97150345D01*
X156229432Y-97140241D01*
X156270891Y-97153835D01*
X156364120Y-97203667D01*
X156555731Y-97261792D01*
X156555735Y-97261792D01*
X156555737Y-97261793D01*
X156754997Y-97281418D01*
X156755000Y-97281418D01*
X156755003Y-97281418D01*
X156954261Y-97261793D01*
X156954263Y-97261793D01*
X156954264Y-97261792D01*
X156954269Y-97261792D01*
X157145880Y-97203667D01*
X157322469Y-97109278D01*
X157477252Y-96982252D01*
X157604278Y-96827469D01*
X157671293Y-96702091D01*
X157682512Y-96681104D01*
X157732264Y-96630456D01*
X157793634Y-96614500D01*
X159153394Y-96614500D01*
X159221515Y-96634502D01*
X159268008Y-96688158D01*
X159278672Y-96753967D01*
X159275501Y-96783463D01*
X159275500Y-96783483D01*
X159275500Y-97311533D01*
X159281557Y-97367876D01*
X159281559Y-97367884D01*
X159329116Y-97495385D01*
X159329119Y-97495390D01*
X159375087Y-97556797D01*
X159410670Y-97604330D01*
X159513868Y-97681582D01*
X159556415Y-97738418D01*
X159561481Y-97809233D01*
X159527456Y-97871546D01*
X159513182Y-97883830D01*
X159409988Y-97959991D01*
X159328631Y-98070225D01*
X159328628Y-98070232D01*
X159283379Y-98199545D01*
X159280500Y-98230248D01*
X159280500Y-98739740D01*
X159280501Y-98739755D01*
X159283379Y-98770452D01*
X159283380Y-98770455D01*
X159328628Y-98899767D01*
X159328631Y-98899774D01*
X159409989Y-99010010D01*
X159520225Y-99091368D01*
X159520232Y-99091371D01*
X159649546Y-99136620D01*
X159649549Y-99136621D01*
X159680251Y-99139500D01*
X160339748Y-99139499D01*
X160370451Y-99136621D01*
X160499773Y-99091369D01*
X160610010Y-99010010D01*
X160691369Y-98899773D01*
X160736621Y-98770451D01*
X160739500Y-98739749D01*
X160739499Y-98230252D01*
X160736621Y-98199549D01*
X160694001Y-98077748D01*
X160691371Y-98070232D01*
X160691368Y-98070225D01*
X160610010Y-97959989D01*
X160501783Y-97880114D01*
X160458850Y-97823569D01*
X160453304Y-97752789D01*
X160486905Y-97690247D01*
X160501092Y-97677868D01*
X160599330Y-97604330D01*
X160680883Y-97495387D01*
X160728441Y-97367881D01*
X160734500Y-97311522D01*
X160734500Y-96783478D01*
X160734499Y-96783466D01*
X160728442Y-96727123D01*
X160728440Y-96727115D01*
X160690166Y-96624502D01*
X160680883Y-96599613D01*
X160653946Y-96563629D01*
X160599330Y-96490669D01*
X160490390Y-96409119D01*
X160490386Y-96409116D01*
X160407108Y-96378055D01*
X160350272Y-96335509D01*
X160325462Y-96268988D01*
X160340554Y-96199614D01*
X160390756Y-96149412D01*
X160407108Y-96141945D01*
X160484885Y-96112935D01*
X160490387Y-96110883D01*
X160599330Y-96029330D01*
X160680883Y-95920387D01*
X160728441Y-95792881D01*
X160733845Y-95742620D01*
X160734499Y-95736533D01*
X160734500Y-95736516D01*
X160734500Y-95208483D01*
X160734499Y-95208466D01*
X160728442Y-95152123D01*
X160728440Y-95152115D01*
X160680883Y-95024614D01*
X160680883Y-95024613D01*
X160646309Y-94978427D01*
X160599330Y-94915669D01*
X160490390Y-94834119D01*
X160490385Y-94834116D01*
X160362884Y-94786559D01*
X160362876Y-94786557D01*
X160306533Y-94780500D01*
X160306522Y-94780500D01*
X159703478Y-94780500D01*
X159703466Y-94780500D01*
X159647123Y-94786557D01*
X159647115Y-94786559D01*
X159519614Y-94834116D01*
X159519609Y-94834119D01*
X159410669Y-94915669D01*
X159329119Y-95024609D01*
X159329116Y-95024614D01*
X159281559Y-95152115D01*
X159281557Y-95152123D01*
X159275500Y-95208466D01*
X159275500Y-95648471D01*
X159255498Y-95716592D01*
X159238595Y-95737566D01*
X159107566Y-95868595D01*
X159045254Y-95902621D01*
X159018471Y-95905500D01*
X157793634Y-95905500D01*
X157725513Y-95885498D01*
X157682512Y-95838896D01*
X157604279Y-95692533D01*
X157604278Y-95692531D01*
X157477252Y-95537748D01*
X157322469Y-95410722D01*
X157322467Y-95410721D01*
X157322466Y-95410720D01*
X157145883Y-95316334D01*
X157145877Y-95316332D01*
X156954262Y-95258206D01*
X156755003Y-95238582D01*
X156754997Y-95238582D01*
X156555738Y-95258206D01*
X156555736Y-95258206D01*
X156364122Y-95316332D01*
X156364116Y-95316334D01*
X156270896Y-95366162D01*
X156201390Y-95380634D01*
X156135094Y-95355230D01*
X156093056Y-95298017D01*
X156085500Y-95255040D01*
X156085500Y-94587812D01*
X156105502Y-94519691D01*
X156159158Y-94473198D01*
X156229432Y-94463094D01*
X156291430Y-94490410D01*
X156387531Y-94569278D01*
X156387533Y-94569279D01*
X156525458Y-94643002D01*
X156564120Y-94663667D01*
X156755731Y-94721792D01*
X156755735Y-94721792D01*
X156755737Y-94721793D01*
X156954997Y-94741418D01*
X156955000Y-94741418D01*
X156955003Y-94741418D01*
X157154261Y-94721793D01*
X157154263Y-94721793D01*
X157154264Y-94721792D01*
X157154269Y-94721792D01*
X157345880Y-94663667D01*
X157522469Y-94569278D01*
X157677252Y-94442252D01*
X157804278Y-94287469D01*
X157882512Y-94141104D01*
X157932264Y-94090456D01*
X157993634Y-94074500D01*
X161720971Y-94074500D01*
X161789092Y-94094502D01*
G37*
%TD.AperFunction*%
%TA.AperFunction,Conductor*%
G36*
X174763532Y-101066973D02*
G01*
X174820368Y-101109520D01*
X174845179Y-101176040D01*
X174845500Y-101185029D01*
X174845500Y-102199971D01*
X174825498Y-102268092D01*
X174771842Y-102314585D01*
X174701568Y-102324689D01*
X174636988Y-102295195D01*
X174630405Y-102289066D01*
X174122934Y-101781595D01*
X174088908Y-101719283D01*
X174093973Y-101648468D01*
X174122934Y-101603405D01*
X174630405Y-101095934D01*
X174692717Y-101061908D01*
X174763532Y-101066973D01*
G37*
%TD.AperFunction*%
%TA.AperFunction,Conductor*%
G36*
X159188121Y-84770502D02*
G01*
X159234614Y-84824158D01*
X159246000Y-84876500D01*
X159246000Y-85298000D01*
X160953999Y-85298000D01*
X160953999Y-84876500D01*
X160974001Y-84808379D01*
X161027657Y-84761886D01*
X161079999Y-84750500D01*
X164720000Y-84750500D01*
X164788121Y-84770502D01*
X164834614Y-84824158D01*
X164846000Y-84876500D01*
X164846000Y-85298000D01*
X166553999Y-85298000D01*
X166553999Y-84876500D01*
X166574001Y-84808379D01*
X166627657Y-84761886D01*
X166679999Y-84750500D01*
X169920000Y-84750500D01*
X169988121Y-84770502D01*
X170034614Y-84824158D01*
X170046000Y-84876500D01*
X170046000Y-85298000D01*
X171753999Y-85298000D01*
X171753999Y-84876500D01*
X171774001Y-84808379D01*
X171827657Y-84761886D01*
X171879999Y-84750500D01*
X175520000Y-84750500D01*
X175588121Y-84770502D01*
X175634614Y-84824158D01*
X175646000Y-84876500D01*
X175646000Y-85298000D01*
X177353999Y-85298000D01*
X177353999Y-84876500D01*
X177374001Y-84808379D01*
X177427657Y-84761886D01*
X177479999Y-84750500D01*
X180358500Y-84750500D01*
X180426621Y-84770502D01*
X180473114Y-84824158D01*
X180484500Y-84876500D01*
X180484500Y-85095040D01*
X180464498Y-85163161D01*
X180410842Y-85209654D01*
X180340568Y-85219758D01*
X180299104Y-85206162D01*
X180205883Y-85156334D01*
X180205877Y-85156332D01*
X180014262Y-85098206D01*
X179815003Y-85078582D01*
X179814997Y-85078582D01*
X179615738Y-85098206D01*
X179615736Y-85098206D01*
X179424122Y-85156332D01*
X179424116Y-85156334D01*
X179247533Y-85250720D01*
X179092748Y-85377748D01*
X178965720Y-85532533D01*
X178871334Y-85709116D01*
X178871332Y-85709122D01*
X178813206Y-85900736D01*
X178813206Y-85900738D01*
X178793582Y-86099996D01*
X178793582Y-86100003D01*
X178813206Y-86299261D01*
X178813206Y-86299263D01*
X178871332Y-86490877D01*
X178871334Y-86490883D01*
X178963997Y-86664242D01*
X178965722Y-86667469D01*
X179092748Y-86822252D01*
X179247531Y-86949278D01*
X179424120Y-87043667D01*
X179615731Y-87101792D01*
X179615735Y-87101792D01*
X179615737Y-87101793D01*
X179814997Y-87121418D01*
X179815000Y-87121418D01*
X179815003Y-87121418D01*
X180014261Y-87101793D01*
X180014263Y-87101793D01*
X180014264Y-87101792D01*
X180014269Y-87101792D01*
X180205880Y-87043667D01*
X180299106Y-86993836D01*
X180368609Y-86979365D01*
X180434906Y-87004768D01*
X180476944Y-87061981D01*
X180484500Y-87104959D01*
X180484500Y-87772187D01*
X180464498Y-87840308D01*
X180410842Y-87886801D01*
X180340568Y-87896905D01*
X180278567Y-87869587D01*
X180273881Y-87865741D01*
X180182469Y-87790722D01*
X180182467Y-87790721D01*
X180182466Y-87790720D01*
X180005883Y-87696334D01*
X180005877Y-87696332D01*
X179884696Y-87659572D01*
X179814269Y-87638208D01*
X179814268Y-87638207D01*
X179814262Y-87638206D01*
X179615003Y-87618582D01*
X179614997Y-87618582D01*
X179415738Y-87638206D01*
X179415736Y-87638206D01*
X179224122Y-87696332D01*
X179224116Y-87696334D01*
X179047533Y-87790720D01*
X178892748Y-87917748D01*
X178765720Y-88072533D01*
X178671334Y-88249116D01*
X178671332Y-88249122D01*
X178613206Y-88440736D01*
X178613206Y-88440738D01*
X178593582Y-88639996D01*
X178593582Y-88640003D01*
X178613206Y-88839261D01*
X178613206Y-88839263D01*
X178671332Y-89030877D01*
X178671334Y-89030883D01*
X178761735Y-89200010D01*
X178765722Y-89207469D01*
X178892748Y-89362252D01*
X179047531Y-89489278D01*
X179224120Y-89583667D01*
X179415731Y-89641792D01*
X179415735Y-89641792D01*
X179415737Y-89641793D01*
X179614997Y-89661418D01*
X179615000Y-89661418D01*
X179615003Y-89661418D01*
X179814261Y-89641793D01*
X179814263Y-89641793D01*
X179814264Y-89641792D01*
X179814269Y-89641792D01*
X180005880Y-89583667D01*
X180182469Y-89489278D01*
X180278569Y-89410410D01*
X180343914Y-89382659D01*
X180413892Y-89394641D01*
X180466284Y-89442554D01*
X180484500Y-89507812D01*
X180484500Y-90175040D01*
X180464498Y-90243161D01*
X180410842Y-90289654D01*
X180340568Y-90299758D01*
X180299104Y-90286162D01*
X180205883Y-90236334D01*
X180205877Y-90236332D01*
X180014262Y-90178206D01*
X179815003Y-90158582D01*
X179814997Y-90158582D01*
X179615738Y-90178206D01*
X179615736Y-90178206D01*
X179424122Y-90236332D01*
X179424116Y-90236334D01*
X179247533Y-90330720D01*
X179092748Y-90457748D01*
X178965720Y-90612533D01*
X178871334Y-90789116D01*
X178871332Y-90789122D01*
X178813206Y-90980736D01*
X178813206Y-90980738D01*
X178793582Y-91179996D01*
X178793582Y-91180003D01*
X178813206Y-91379261D01*
X178813206Y-91379263D01*
X178871332Y-91570877D01*
X178871334Y-91570883D01*
X178965720Y-91747466D01*
X178965722Y-91747469D01*
X179092748Y-91902252D01*
X179247531Y-92029278D01*
X179247533Y-92029279D01*
X179407538Y-92114804D01*
X179424120Y-92123667D01*
X179615731Y-92181792D01*
X179615735Y-92181792D01*
X179615737Y-92181793D01*
X179814997Y-92201418D01*
X179815000Y-92201418D01*
X179815003Y-92201418D01*
X180014261Y-92181793D01*
X180014263Y-92181793D01*
X180014264Y-92181792D01*
X180014269Y-92181792D01*
X180205880Y-92123667D01*
X180299106Y-92073836D01*
X180368609Y-92059365D01*
X180434906Y-92084768D01*
X180476944Y-92141981D01*
X180484500Y-92184959D01*
X180484500Y-92852187D01*
X180464498Y-92920308D01*
X180410842Y-92966801D01*
X180340568Y-92976905D01*
X180278567Y-92949587D01*
X180242890Y-92920308D01*
X180182469Y-92870722D01*
X180182467Y-92870721D01*
X180182466Y-92870720D01*
X180005883Y-92776334D01*
X180005877Y-92776332D01*
X179909641Y-92747139D01*
X179814269Y-92718208D01*
X179814268Y-92718207D01*
X179814262Y-92718206D01*
X179615003Y-92698582D01*
X179614997Y-92698582D01*
X179415738Y-92718206D01*
X179415736Y-92718206D01*
X179224122Y-92776332D01*
X179224116Y-92776334D01*
X179047533Y-92870720D01*
X178892748Y-92997748D01*
X178765720Y-93152533D01*
X178671334Y-93329116D01*
X178671332Y-93329122D01*
X178613206Y-93520736D01*
X178613206Y-93520738D01*
X178593582Y-93719996D01*
X178593582Y-93720003D01*
X178613206Y-93919261D01*
X178613206Y-93919263D01*
X178671332Y-94110877D01*
X178671334Y-94110883D01*
X178755227Y-94267835D01*
X178765722Y-94287469D01*
X178892748Y-94442252D01*
X179047531Y-94569278D01*
X179047533Y-94569279D01*
X179185458Y-94643002D01*
X179224120Y-94663667D01*
X179415731Y-94721792D01*
X179415735Y-94721792D01*
X179415737Y-94721793D01*
X179614997Y-94741418D01*
X179615000Y-94741418D01*
X179615003Y-94741418D01*
X179814261Y-94721793D01*
X179814263Y-94721793D01*
X179814264Y-94721792D01*
X179814269Y-94721792D01*
X180005880Y-94663667D01*
X180182469Y-94569278D01*
X180278569Y-94490410D01*
X180343914Y-94462659D01*
X180413892Y-94474641D01*
X180466284Y-94522554D01*
X180484500Y-94587812D01*
X180484500Y-95255040D01*
X180464498Y-95323161D01*
X180410842Y-95369654D01*
X180340568Y-95379758D01*
X180299104Y-95366162D01*
X180205883Y-95316334D01*
X180205877Y-95316332D01*
X180014262Y-95258206D01*
X179815003Y-95238582D01*
X179814997Y-95238582D01*
X179615738Y-95258206D01*
X179615736Y-95258206D01*
X179424122Y-95316332D01*
X179424116Y-95316334D01*
X179247533Y-95410720D01*
X179092748Y-95537748D01*
X178965720Y-95692533D01*
X178871334Y-95869116D01*
X178871332Y-95869122D01*
X178813206Y-96060736D01*
X178813206Y-96060738D01*
X178793582Y-96259996D01*
X178793582Y-96260003D01*
X178813206Y-96459261D01*
X178813206Y-96459263D01*
X178871332Y-96650877D01*
X178871334Y-96650883D01*
X178950370Y-96798748D01*
X178965722Y-96827469D01*
X179092748Y-96982252D01*
X179247531Y-97109278D01*
X179247533Y-97109279D01*
X179411012Y-97196661D01*
X179424120Y-97203667D01*
X179615731Y-97261792D01*
X179615735Y-97261792D01*
X179615737Y-97261793D01*
X179814997Y-97281418D01*
X179815000Y-97281418D01*
X179815003Y-97281418D01*
X180014261Y-97261793D01*
X180014263Y-97261793D01*
X180014264Y-97261792D01*
X180014269Y-97261792D01*
X180205880Y-97203667D01*
X180299106Y-97153836D01*
X180368609Y-97139365D01*
X180434906Y-97164768D01*
X180476944Y-97221981D01*
X180484500Y-97264959D01*
X180484500Y-97932187D01*
X180464498Y-98000308D01*
X180410842Y-98046801D01*
X180340568Y-98056905D01*
X180278567Y-98029587D01*
X180242890Y-98000308D01*
X180182469Y-97950722D01*
X180182467Y-97950721D01*
X180182466Y-97950720D01*
X180005883Y-97856334D01*
X180005877Y-97856332D01*
X179814262Y-97798206D01*
X179615003Y-97778582D01*
X179614997Y-97778582D01*
X179415738Y-97798206D01*
X179415736Y-97798206D01*
X179224122Y-97856332D01*
X179224116Y-97856334D01*
X179047533Y-97950720D01*
X178892748Y-98077748D01*
X178765720Y-98232533D01*
X178671334Y-98409116D01*
X178671332Y-98409122D01*
X178613206Y-98600736D01*
X178613206Y-98600738D01*
X178593582Y-98799996D01*
X178593582Y-98800003D01*
X178613206Y-98999261D01*
X178613206Y-98999263D01*
X178671332Y-99190877D01*
X178671334Y-99190883D01*
X178749839Y-99337754D01*
X178765722Y-99367469D01*
X178892748Y-99522252D01*
X179047531Y-99649278D01*
X179047533Y-99649279D01*
X179221618Y-99742330D01*
X179224120Y-99743667D01*
X179415731Y-99801792D01*
X179415735Y-99801792D01*
X179415737Y-99801793D01*
X179614997Y-99821418D01*
X179615000Y-99821418D01*
X179615003Y-99821418D01*
X179814261Y-99801793D01*
X179814263Y-99801793D01*
X179814264Y-99801792D01*
X179814269Y-99801792D01*
X180005880Y-99743667D01*
X180182469Y-99649278D01*
X180278569Y-99570410D01*
X180343914Y-99542659D01*
X180413892Y-99554641D01*
X180466284Y-99602554D01*
X180484500Y-99667812D01*
X180484500Y-100335040D01*
X180464498Y-100403161D01*
X180410842Y-100449654D01*
X180340568Y-100459758D01*
X180299104Y-100446162D01*
X180205883Y-100396334D01*
X180205877Y-100396332D01*
X180014262Y-100338206D01*
X179815003Y-100318582D01*
X179814997Y-100318582D01*
X179615738Y-100338206D01*
X179615736Y-100338206D01*
X179424122Y-100396332D01*
X179424116Y-100396334D01*
X179247533Y-100490720D01*
X179092748Y-100617748D01*
X178965720Y-100772533D01*
X178887488Y-100918896D01*
X178837736Y-100969544D01*
X178776366Y-100985500D01*
X178701794Y-100985500D01*
X178633673Y-100965498D01*
X178587180Y-100911842D01*
X178577076Y-100841568D01*
X178587180Y-100807158D01*
X178600958Y-100776988D01*
X178639042Y-100693596D01*
X178659688Y-100550000D01*
X178639042Y-100406404D01*
X178578777Y-100274442D01*
X178535275Y-100224237D01*
X178505782Y-100159656D01*
X178504500Y-100141725D01*
X178504500Y-99913329D01*
X178504499Y-99913325D01*
X178493334Y-99871658D01*
X178480341Y-99823168D01*
X178479331Y-99821418D01*
X178433673Y-99742335D01*
X178433669Y-99742330D01*
X178402629Y-99711290D01*
X178367668Y-99676329D01*
X178091405Y-99400066D01*
X178057379Y-99337754D01*
X178054500Y-99310971D01*
X178054500Y-97646958D01*
X178054499Y-97646954D01*
X178051261Y-97634871D01*
X178030341Y-97556797D01*
X177994888Y-97495390D01*
X177983673Y-97475964D01*
X177983669Y-97475959D01*
X177970722Y-97463012D01*
X177917668Y-97409958D01*
X176324040Y-95816329D01*
X176324038Y-95816328D01*
X176324036Y-95816326D01*
X176243205Y-95769659D01*
X176153046Y-95745500D01*
X176153043Y-95745500D01*
X173549850Y-95745500D01*
X173481729Y-95725498D01*
X173435236Y-95671842D01*
X173425132Y-95601568D01*
X173431795Y-95575466D01*
X173447547Y-95533234D01*
X173447548Y-95533230D01*
X173453999Y-95473222D01*
X173454000Y-95473205D01*
X173454000Y-95077000D01*
X171946001Y-95077000D01*
X171946001Y-95473202D01*
X171946002Y-95473226D01*
X171952452Y-95533232D01*
X171952452Y-95533234D01*
X171968205Y-95575467D01*
X171973271Y-95646282D01*
X171939246Y-95708595D01*
X171876934Y-95742620D01*
X171850150Y-95745500D01*
X171650383Y-95745500D01*
X171582262Y-95725498D01*
X171535769Y-95671842D01*
X171525665Y-95601568D01*
X171532328Y-95575466D01*
X171548040Y-95533342D01*
X171554500Y-95473255D01*
X171554499Y-95045832D01*
X174371000Y-95045832D01*
X174377131Y-95102860D01*
X174425268Y-95231920D01*
X174507813Y-95342186D01*
X174618079Y-95424731D01*
X174747139Y-95472868D01*
X174804167Y-95478999D01*
X174804184Y-95479000D01*
X174948000Y-95479000D01*
X174948000Y-94877000D01*
X174371000Y-94877000D01*
X174371000Y-95045832D01*
X171554499Y-95045832D01*
X171554499Y-94890448D01*
X171574501Y-94822328D01*
X171591395Y-94801363D01*
X171730907Y-94661851D01*
X171793217Y-94627828D01*
X171864033Y-94632893D01*
X171920868Y-94675440D01*
X171945679Y-94741961D01*
X171946000Y-94750949D01*
X171946000Y-94823000D01*
X173453999Y-94823000D01*
X173453999Y-94714541D01*
X173474001Y-94646420D01*
X173527657Y-94599927D01*
X173597931Y-94589823D01*
X173615482Y-94593641D01*
X173652464Y-94604500D01*
X173652466Y-94604500D01*
X173797536Y-94604500D01*
X173936732Y-94563629D01*
X174058775Y-94485196D01*
X174067921Y-94474641D01*
X174149776Y-94380176D01*
X174209502Y-94341792D01*
X174280498Y-94341792D01*
X174340224Y-94380175D01*
X174369717Y-94444756D01*
X174371000Y-94462688D01*
X174371000Y-94623000D01*
X175076000Y-94623000D01*
X175144121Y-94643002D01*
X175190614Y-94696658D01*
X175202000Y-94749000D01*
X175202000Y-95479000D01*
X175345816Y-95479000D01*
X175345832Y-95478999D01*
X175402860Y-95472868D01*
X175531920Y-95424731D01*
X175642186Y-95342186D01*
X175724732Y-95231918D01*
X175731677Y-95213299D01*
X175774222Y-95156463D01*
X175840742Y-95131651D01*
X175910117Y-95146742D01*
X175960320Y-95196943D01*
X175967788Y-95213296D01*
X175974825Y-95232163D01*
X175974827Y-95232167D01*
X175994322Y-95258208D01*
X176057456Y-95342544D01*
X176107168Y-95379758D01*
X176167832Y-95425172D01*
X176167833Y-95425173D01*
X176167835Y-95425173D01*
X176167837Y-95425175D01*
X176297027Y-95473360D01*
X176354136Y-95479500D01*
X176354141Y-95479500D01*
X176895859Y-95479500D01*
X176895864Y-95479500D01*
X176952973Y-95473360D01*
X177082163Y-95425175D01*
X177192544Y-95342544D01*
X177275175Y-95232163D01*
X177323360Y-95102973D01*
X177329500Y-95045864D01*
X177329500Y-94454136D01*
X177323360Y-94397027D01*
X177275175Y-94267837D01*
X177275171Y-94267832D01*
X177192543Y-94157455D01*
X177142489Y-94119984D01*
X177099943Y-94063147D01*
X177092000Y-94019117D01*
X177092000Y-93834003D01*
X177112002Y-93765882D01*
X177142493Y-93733134D01*
X177160038Y-93720000D01*
X177194330Y-93694330D01*
X177275883Y-93585387D01*
X177323441Y-93457881D01*
X177325758Y-93436334D01*
X177329499Y-93401533D01*
X177329500Y-93401516D01*
X177329500Y-92798483D01*
X177329499Y-92798466D01*
X177323442Y-92742123D01*
X177323440Y-92742115D01*
X177286693Y-92643596D01*
X177275883Y-92614613D01*
X177275267Y-92613790D01*
X177194330Y-92505669D01*
X177085390Y-92424119D01*
X177085387Y-92424117D01*
X177008830Y-92395562D01*
X176951995Y-92353015D01*
X176927185Y-92286494D01*
X176942277Y-92217120D01*
X176992480Y-92166919D01*
X177008832Y-92159451D01*
X177101919Y-92124731D01*
X177212186Y-92042186D01*
X177294731Y-91931920D01*
X177342868Y-91802860D01*
X177348999Y-91745832D01*
X177349000Y-91745815D01*
X177349000Y-91577000D01*
X176644000Y-91577000D01*
X176575879Y-91556998D01*
X176529386Y-91503342D01*
X176518000Y-91451000D01*
X176518000Y-91323000D01*
X176772000Y-91323000D01*
X177349000Y-91323000D01*
X177349000Y-91154184D01*
X177348999Y-91154167D01*
X177342868Y-91097139D01*
X177294731Y-90968079D01*
X177212186Y-90857813D01*
X177101920Y-90775268D01*
X176972860Y-90727131D01*
X176915832Y-90721000D01*
X176772000Y-90721000D01*
X176772000Y-91323000D01*
X176518000Y-91323000D01*
X176518000Y-90721000D01*
X176374167Y-90721000D01*
X176317139Y-90727131D01*
X176188079Y-90775268D01*
X176077813Y-90857813D01*
X175995266Y-90968082D01*
X175988320Y-90986705D01*
X175945772Y-91043539D01*
X175879251Y-91068348D01*
X175809877Y-91053255D01*
X175759677Y-91003051D01*
X175752210Y-90986700D01*
X175749986Y-90980738D01*
X175745175Y-90967837D01*
X175745174Y-90967835D01*
X175745172Y-90967832D01*
X175708384Y-90918691D01*
X175662544Y-90857456D01*
X175615137Y-90821967D01*
X175552167Y-90774827D01*
X175552166Y-90774826D01*
X175512997Y-90760217D01*
X175422973Y-90726640D01*
X175415834Y-90725872D01*
X175365871Y-90720500D01*
X175365864Y-90720500D01*
X175060450Y-90720500D01*
X174992329Y-90700498D01*
X174971355Y-90683595D01*
X174831854Y-90544094D01*
X174797828Y-90481782D01*
X174802893Y-90410967D01*
X174845440Y-90354131D01*
X174911960Y-90329320D01*
X174920949Y-90328999D01*
X175073000Y-90328999D01*
X175327000Y-90328999D01*
X175525014Y-90328999D01*
X175525022Y-90328998D01*
X175599105Y-90314262D01*
X175599107Y-90314262D01*
X175683124Y-90258124D01*
X175739262Y-90174106D01*
X175739263Y-90174105D01*
X175753999Y-90100022D01*
X175754000Y-90100015D01*
X175754000Y-89427000D01*
X175327000Y-89427000D01*
X175327000Y-90328999D01*
X175073000Y-90328999D01*
X175073000Y-89173000D01*
X175327000Y-89173000D01*
X175753999Y-89173000D01*
X175753999Y-88499986D01*
X175753998Y-88499977D01*
X175739262Y-88425894D01*
X175739262Y-88425892D01*
X175683124Y-88341875D01*
X175599106Y-88285737D01*
X175599105Y-88285736D01*
X175525022Y-88271000D01*
X175327000Y-88271000D01*
X175327000Y-89173000D01*
X175073000Y-89173000D01*
X175073000Y-88271000D01*
X174874986Y-88271000D01*
X174874974Y-88271002D01*
X174805079Y-88284904D01*
X174734365Y-88278575D01*
X174678299Y-88235020D01*
X174654680Y-88168067D01*
X174654500Y-88161325D01*
X174654500Y-87046642D01*
X174665886Y-86994300D01*
X174689042Y-86943596D01*
X174709688Y-86800000D01*
X174689042Y-86656404D01*
X174628777Y-86524442D01*
X174533775Y-86414804D01*
X174533774Y-86414803D01*
X174432973Y-86350022D01*
X175646001Y-86350022D01*
X175660737Y-86424105D01*
X175660737Y-86424107D01*
X175716875Y-86508124D01*
X175800893Y-86564262D01*
X175800894Y-86564263D01*
X175874980Y-86578999D01*
X176373000Y-86578999D01*
X176627000Y-86578999D01*
X177125014Y-86578999D01*
X177125022Y-86578998D01*
X177199105Y-86564262D01*
X177199107Y-86564262D01*
X177283124Y-86508124D01*
X177339262Y-86424106D01*
X177339263Y-86424105D01*
X177353999Y-86350022D01*
X177354000Y-86350015D01*
X177354000Y-85552000D01*
X176627000Y-85552000D01*
X176627000Y-86578999D01*
X176373000Y-86578999D01*
X176373000Y-85552000D01*
X175646001Y-85552000D01*
X175646001Y-86350022D01*
X174432973Y-86350022D01*
X174431426Y-86349028D01*
X174411732Y-86336371D01*
X174411731Y-86336370D01*
X174411730Y-86336370D01*
X174272536Y-86295500D01*
X174127464Y-86295500D01*
X174114628Y-86299269D01*
X174084152Y-86308217D01*
X174013156Y-86308216D01*
X173953430Y-86269831D01*
X173923938Y-86205250D01*
X173934043Y-86134976D01*
X173953433Y-86104806D01*
X173978777Y-86075558D01*
X174039042Y-85943596D01*
X174059688Y-85800000D01*
X174039042Y-85656404D01*
X173978777Y-85524442D01*
X173883775Y-85414804D01*
X173883774Y-85414803D01*
X173796811Y-85358915D01*
X173761732Y-85336371D01*
X173761731Y-85336370D01*
X173761730Y-85336370D01*
X173622536Y-85295500D01*
X173477464Y-85295500D01*
X173338267Y-85336371D01*
X173338265Y-85336372D01*
X173334305Y-85338917D01*
X173266183Y-85358915D01*
X173198064Y-85338909D01*
X173170967Y-85315428D01*
X173083774Y-85214803D01*
X173022753Y-85175587D01*
X172961732Y-85136371D01*
X172961731Y-85136370D01*
X172961730Y-85136370D01*
X172822536Y-85095500D01*
X172677464Y-85095500D01*
X172538269Y-85136370D01*
X172538266Y-85136372D01*
X172416225Y-85214803D01*
X172321223Y-85324441D01*
X172260958Y-85456403D01*
X172260956Y-85456410D01*
X172244877Y-85568241D01*
X172215384Y-85632822D01*
X172209255Y-85639404D01*
X171969095Y-85879564D01*
X171906783Y-85913590D01*
X171835968Y-85908525D01*
X171779132Y-85865978D01*
X171754321Y-85799458D01*
X171754000Y-85790469D01*
X171754000Y-85552000D01*
X171027000Y-85552000D01*
X171027000Y-86578999D01*
X171525014Y-86578999D01*
X171525022Y-86578998D01*
X171599105Y-86564262D01*
X171599106Y-86564262D01*
X171649498Y-86530592D01*
X171717251Y-86509377D01*
X171785718Y-86528160D01*
X171833161Y-86580977D01*
X171845500Y-86635357D01*
X171845500Y-88187982D01*
X171825498Y-88256103D01*
X171789503Y-88292746D01*
X171716515Y-88341515D01*
X171660266Y-88425697D01*
X171645500Y-88499930D01*
X171645500Y-90100063D01*
X171645501Y-90100073D01*
X171660265Y-90174300D01*
X171716516Y-90258484D01*
X171800697Y-90314733D01*
X171800699Y-90314734D01*
X171874933Y-90329500D01*
X171925969Y-90329499D01*
X171994089Y-90349500D01*
X172015065Y-90366404D01*
X172156585Y-90507924D01*
X172190611Y-90570236D01*
X172185546Y-90641051D01*
X172142999Y-90697887D01*
X172079257Y-90722468D01*
X172069554Y-90723378D01*
X172069544Y-90723380D01*
X171940232Y-90768628D01*
X171940225Y-90768631D01*
X171829989Y-90849989D01*
X171748631Y-90960225D01*
X171748628Y-90960232D01*
X171703379Y-91089545D01*
X171700500Y-91120248D01*
X171700500Y-91498550D01*
X171680498Y-91566671D01*
X171626842Y-91613164D01*
X171556568Y-91623268D01*
X171491988Y-91593774D01*
X171485405Y-91587645D01*
X171396404Y-91498644D01*
X171362378Y-91436332D01*
X171359499Y-91409549D01*
X171359499Y-91120260D01*
X171359498Y-91120251D01*
X171356621Y-91089549D01*
X171320634Y-90986705D01*
X171311371Y-90960232D01*
X171311368Y-90960225D01*
X171230010Y-90849990D01*
X171210677Y-90835721D01*
X171167746Y-90779176D01*
X171159500Y-90734343D01*
X171159500Y-87904999D01*
X171159501Y-87904986D01*
X171159501Y-87775165D01*
X171159501Y-87775164D01*
X171128528Y-87659570D01*
X171118952Y-87642985D01*
X171070134Y-87558429D01*
X171070136Y-87558427D01*
X171070126Y-87558416D01*
X171068691Y-87555930D01*
X171068689Y-87555928D01*
X171068685Y-87555923D01*
X170979681Y-87466919D01*
X170979658Y-87466898D01*
X170306854Y-86794094D01*
X170272828Y-86731782D01*
X170277893Y-86660967D01*
X170320440Y-86604131D01*
X170386960Y-86579320D01*
X170395949Y-86578999D01*
X170773000Y-86578999D01*
X170773000Y-85552000D01*
X170046001Y-85552000D01*
X170046001Y-86350022D01*
X170063158Y-86436277D01*
X170061221Y-86436662D01*
X170067155Y-86491878D01*
X170035371Y-86555363D01*
X169974311Y-86591587D01*
X169943158Y-86595499D01*
X169852446Y-86595499D01*
X169852430Y-86595500D01*
X169762076Y-86595500D01*
X169693955Y-86575498D01*
X169661209Y-86545011D01*
X169594330Y-86455670D01*
X169485387Y-86374117D01*
X169485386Y-86374116D01*
X169485385Y-86374116D01*
X169357884Y-86326559D01*
X169357876Y-86326557D01*
X169301533Y-86320500D01*
X169301522Y-86320500D01*
X168773478Y-86320500D01*
X168773466Y-86320500D01*
X168717123Y-86326557D01*
X168717115Y-86326559D01*
X168589614Y-86374116D01*
X168589609Y-86374119D01*
X168480669Y-86455669D01*
X168399119Y-86564609D01*
X168399116Y-86564614D01*
X168368055Y-86647891D01*
X168325508Y-86704727D01*
X168258988Y-86729537D01*
X168189614Y-86714445D01*
X168139412Y-86664242D01*
X168131945Y-86647891D01*
X168110944Y-86591587D01*
X168100883Y-86564613D01*
X168086208Y-86545009D01*
X168019330Y-86455669D01*
X167910390Y-86374119D01*
X167910385Y-86374116D01*
X167782884Y-86326559D01*
X167782876Y-86326557D01*
X167726533Y-86320500D01*
X167726522Y-86320500D01*
X167198478Y-86320500D01*
X167198466Y-86320500D01*
X167142123Y-86326557D01*
X167142115Y-86326559D01*
X167014614Y-86374116D01*
X167014609Y-86374119D01*
X166905669Y-86455669D01*
X166824119Y-86564609D01*
X166824116Y-86564614D01*
X166776559Y-86692115D01*
X166776557Y-86692123D01*
X166770500Y-86748466D01*
X166770500Y-87351533D01*
X166776557Y-87407876D01*
X166776559Y-87407884D01*
X166824116Y-87535385D01*
X166824119Y-87535390D01*
X166905669Y-87644330D01*
X167006386Y-87719725D01*
X167048933Y-87776560D01*
X167053998Y-87847376D01*
X167019973Y-87909688D01*
X167005699Y-87921972D01*
X166899988Y-87999991D01*
X166818631Y-88110225D01*
X166818628Y-88110232D01*
X166773379Y-88239545D01*
X166770500Y-88270248D01*
X166770500Y-88929740D01*
X166770501Y-88929755D01*
X166773379Y-88960452D01*
X166773380Y-88960455D01*
X166818628Y-89089767D01*
X166818631Y-89089774D01*
X166899989Y-89200010D01*
X167010225Y-89281368D01*
X167010232Y-89281371D01*
X167139546Y-89326620D01*
X167139549Y-89326621D01*
X167170251Y-89329500D01*
X167669500Y-89329499D01*
X167737621Y-89349501D01*
X167784114Y-89403156D01*
X167795500Y-89455499D01*
X167795500Y-91849550D01*
X167775498Y-91917671D01*
X167758595Y-91938645D01*
X167288645Y-92408595D01*
X167226333Y-92442621D01*
X167199550Y-92445500D01*
X163830450Y-92445500D01*
X163762329Y-92425498D01*
X163741355Y-92408595D01*
X163572456Y-92239696D01*
X163558930Y-92214926D01*
X163543890Y-92209317D01*
X163530303Y-92197543D01*
X162510879Y-91178119D01*
X162510867Y-91178105D01*
X162419076Y-91086314D01*
X162419066Y-91086306D01*
X162315431Y-91026473D01*
X162291002Y-91019927D01*
X162226921Y-91002756D01*
X162166298Y-90965804D01*
X162158154Y-90955871D01*
X162080010Y-90849989D01*
X161969774Y-90768631D01*
X161969767Y-90768628D01*
X161840453Y-90723379D01*
X161840455Y-90723379D01*
X161815081Y-90721000D01*
X161809749Y-90720500D01*
X161809748Y-90720500D01*
X161300259Y-90720500D01*
X161300244Y-90720501D01*
X161269547Y-90723379D01*
X161269544Y-90723380D01*
X161140232Y-90768628D01*
X161140225Y-90768631D01*
X161029989Y-90849989D01*
X160948631Y-90960225D01*
X160948628Y-90960232D01*
X160903379Y-91089545D01*
X160900500Y-91120248D01*
X160900500Y-91779740D01*
X160900501Y-91779755D01*
X160903379Y-91810452D01*
X160903380Y-91810455D01*
X160948628Y-91939767D01*
X160948630Y-91939771D01*
X160948631Y-91939773D01*
X160952251Y-91944678D01*
X160976610Y-92011364D01*
X160961049Y-92080634D01*
X160910507Y-92130494D01*
X160850873Y-92145500D01*
X160616195Y-92145500D01*
X160548074Y-92125498D01*
X160533689Y-92114730D01*
X160529378Y-92110995D01*
X160490990Y-92051271D01*
X160490986Y-91980275D01*
X160510508Y-91940939D01*
X160511369Y-91939773D01*
X160556621Y-91810451D01*
X160559500Y-91779749D01*
X160559499Y-91120252D01*
X160556621Y-91089549D01*
X160520634Y-90986705D01*
X160511371Y-90960232D01*
X160511368Y-90960225D01*
X160430010Y-90849989D01*
X160312176Y-90763024D01*
X160314247Y-90760217D01*
X160275718Y-90722690D01*
X160259500Y-90660853D01*
X160259500Y-90244029D01*
X160279502Y-90175908D01*
X160296405Y-90154934D01*
X160630406Y-89820933D01*
X160692718Y-89786907D01*
X160763533Y-89791972D01*
X160820369Y-89834519D01*
X160845180Y-89901039D01*
X160845501Y-89910028D01*
X160845501Y-90100072D01*
X160860265Y-90174300D01*
X160916516Y-90258484D01*
X161000697Y-90314733D01*
X161000699Y-90314734D01*
X161074933Y-90329500D01*
X161725066Y-90329499D01*
X161725069Y-90329498D01*
X161725073Y-90329498D01*
X161774326Y-90319701D01*
X161799301Y-90314734D01*
X161829997Y-90294222D01*
X161897747Y-90273007D01*
X161966214Y-90291788D01*
X161969990Y-90294214D01*
X162000699Y-90314734D01*
X162074933Y-90329500D01*
X162725066Y-90329499D01*
X162794920Y-90315605D01*
X162865633Y-90321933D01*
X162921700Y-90365488D01*
X162945319Y-90432441D01*
X162945500Y-90439184D01*
X162945500Y-90487429D01*
X162945499Y-90487447D01*
X162945499Y-90495164D01*
X162945499Y-90614836D01*
X162951452Y-90637051D01*
X162974584Y-90723379D01*
X162976473Y-90730430D01*
X162976475Y-90730435D01*
X163036306Y-90834066D01*
X163036314Y-90834076D01*
X163128105Y-90925867D01*
X163128119Y-90925879D01*
X163553595Y-91351355D01*
X163587621Y-91413667D01*
X163590500Y-91440450D01*
X163590500Y-91745871D01*
X163594142Y-91779740D01*
X163596640Y-91802973D01*
X163614012Y-91849550D01*
X163644826Y-91932166D01*
X163644827Y-91932167D01*
X163720265Y-92032938D01*
X163723209Y-92040831D01*
X163737058Y-92049732D01*
X163739114Y-92051271D01*
X163837832Y-92125172D01*
X163837833Y-92125173D01*
X163837835Y-92125173D01*
X163837837Y-92125175D01*
X163967027Y-92173360D01*
X164024136Y-92179500D01*
X164024141Y-92179500D01*
X164565859Y-92179500D01*
X164565864Y-92179500D01*
X164622973Y-92173360D01*
X164752163Y-92125175D01*
X164862544Y-92042544D01*
X164945175Y-91932163D01*
X164952211Y-91913296D01*
X164994755Y-91856464D01*
X165061274Y-91831651D01*
X165130649Y-91846741D01*
X165180852Y-91896942D01*
X165188321Y-91913295D01*
X165195267Y-91931919D01*
X165277813Y-92042186D01*
X165388079Y-92124731D01*
X165517139Y-92172868D01*
X165574167Y-92178999D01*
X165574184Y-92179000D01*
X165718000Y-92179000D01*
X165972000Y-92179000D01*
X166115816Y-92179000D01*
X166115832Y-92178999D01*
X166172860Y-92172868D01*
X166301920Y-92124731D01*
X166412186Y-92042186D01*
X166494731Y-91931920D01*
X166542868Y-91802860D01*
X166548999Y-91745832D01*
X166549000Y-91745815D01*
X166549000Y-91577000D01*
X165972000Y-91577000D01*
X165972000Y-92179000D01*
X165718000Y-92179000D01*
X165718000Y-91323000D01*
X165972000Y-91323000D01*
X166549000Y-91323000D01*
X166549000Y-91154184D01*
X166548999Y-91154167D01*
X166542868Y-91097139D01*
X166494731Y-90968079D01*
X166412186Y-90857813D01*
X166301920Y-90775268D01*
X166172860Y-90727131D01*
X166115832Y-90721000D01*
X165972000Y-90721000D01*
X165972000Y-91323000D01*
X165718000Y-91323000D01*
X165718000Y-90721000D01*
X165574167Y-90721000D01*
X165517139Y-90727131D01*
X165388079Y-90775268D01*
X165277813Y-90857813D01*
X165195266Y-90968082D01*
X165188320Y-90986705D01*
X165145772Y-91043539D01*
X165079251Y-91068348D01*
X165009877Y-91053255D01*
X164959677Y-91003051D01*
X164952210Y-90986700D01*
X164949986Y-90980738D01*
X164945175Y-90967837D01*
X164945174Y-90967835D01*
X164945172Y-90967832D01*
X164908384Y-90918691D01*
X164862544Y-90857456D01*
X164815137Y-90821967D01*
X164752167Y-90774827D01*
X164752166Y-90774826D01*
X164712997Y-90760217D01*
X164622973Y-90726640D01*
X164615834Y-90725872D01*
X164565871Y-90720500D01*
X164565864Y-90720500D01*
X164260450Y-90720500D01*
X164192329Y-90700498D01*
X164171355Y-90683595D01*
X164031854Y-90544094D01*
X163997828Y-90481782D01*
X164002893Y-90410967D01*
X164045440Y-90354131D01*
X164111960Y-90329320D01*
X164120949Y-90328999D01*
X164273000Y-90328999D01*
X164527000Y-90328999D01*
X164725014Y-90328999D01*
X164725022Y-90328998D01*
X164799105Y-90314262D01*
X164799107Y-90314262D01*
X164883124Y-90258124D01*
X164939262Y-90174106D01*
X164939263Y-90174105D01*
X164953999Y-90100022D01*
X164954000Y-90100015D01*
X164954000Y-89427000D01*
X164527000Y-89427000D01*
X164527000Y-90328999D01*
X164273000Y-90328999D01*
X164273000Y-89173000D01*
X164527000Y-89173000D01*
X164953999Y-89173000D01*
X164953999Y-88499986D01*
X164953998Y-88499977D01*
X164939262Y-88425894D01*
X164939262Y-88425892D01*
X164883124Y-88341875D01*
X164799106Y-88285737D01*
X164799105Y-88285736D01*
X164725022Y-88271000D01*
X164527000Y-88271000D01*
X164527000Y-89173000D01*
X164273000Y-89173000D01*
X164273000Y-88271000D01*
X164074986Y-88271000D01*
X164074974Y-88271002D01*
X164005079Y-88284904D01*
X163934365Y-88278575D01*
X163878299Y-88235020D01*
X163854680Y-88168067D01*
X163854500Y-88161325D01*
X163854500Y-87996642D01*
X163865886Y-87944300D01*
X163889042Y-87893596D01*
X163909688Y-87750000D01*
X163889042Y-87606404D01*
X163828777Y-87474442D01*
X163733775Y-87364804D01*
X163733774Y-87364803D01*
X163672753Y-87325587D01*
X163611732Y-87286371D01*
X163611731Y-87286370D01*
X163611730Y-87286370D01*
X163472536Y-87245500D01*
X163459180Y-87245500D01*
X163391059Y-87225498D01*
X163344566Y-87171842D01*
X163335532Y-87109012D01*
X163334688Y-87109012D01*
X163334688Y-87103139D01*
X163334462Y-87101569D01*
X163334688Y-87100000D01*
X163314042Y-86956404D01*
X163253777Y-86824442D01*
X163158775Y-86714804D01*
X163158774Y-86714803D01*
X163075004Y-86660967D01*
X163036732Y-86636371D01*
X163036731Y-86636370D01*
X163036730Y-86636370D01*
X162897536Y-86595500D01*
X162868221Y-86595500D01*
X162800100Y-86575498D01*
X162753607Y-86521842D01*
X162743504Y-86487433D01*
X162739043Y-86456409D01*
X162739042Y-86456407D01*
X162739042Y-86456404D01*
X162690459Y-86350022D01*
X164846001Y-86350022D01*
X164860737Y-86424105D01*
X164860737Y-86424107D01*
X164916875Y-86508124D01*
X165000893Y-86564262D01*
X165000894Y-86564263D01*
X165074980Y-86578999D01*
X165573000Y-86578999D01*
X165827000Y-86578999D01*
X166325014Y-86578999D01*
X166325022Y-86578998D01*
X166399105Y-86564262D01*
X166399107Y-86564262D01*
X166483124Y-86508124D01*
X166539262Y-86424106D01*
X166539263Y-86424105D01*
X166553999Y-86350022D01*
X166554000Y-86350015D01*
X166554000Y-85552000D01*
X165827000Y-85552000D01*
X165827000Y-86578999D01*
X165573000Y-86578999D01*
X165573000Y-85552000D01*
X164846001Y-85552000D01*
X164846001Y-86350022D01*
X162690459Y-86350022D01*
X162678777Y-86324442D01*
X162583775Y-86214804D01*
X162583774Y-86214803D01*
X162522753Y-86175587D01*
X162461732Y-86136371D01*
X162461731Y-86136370D01*
X162461730Y-86136370D01*
X162322536Y-86095500D01*
X162177464Y-86095500D01*
X162038269Y-86136370D01*
X162038266Y-86136372D01*
X161916225Y-86214803D01*
X161821223Y-86324441D01*
X161760958Y-86456403D01*
X161760956Y-86456409D01*
X161744877Y-86568241D01*
X161715384Y-86632821D01*
X161709256Y-86639403D01*
X161182332Y-87166329D01*
X161182331Y-87166329D01*
X161116334Y-87232325D01*
X161116326Y-87232335D01*
X161069659Y-87313166D01*
X161045500Y-87403325D01*
X161045500Y-88187982D01*
X161025498Y-88256103D01*
X160989503Y-88292746D01*
X160916515Y-88341515D01*
X160860266Y-88425697D01*
X160845500Y-88499930D01*
X160845500Y-88819500D01*
X160825498Y-88887621D01*
X160771842Y-88934114D01*
X160719500Y-88945500D01*
X160603325Y-88945500D01*
X160513166Y-88969659D01*
X160432335Y-89016326D01*
X160432329Y-89016331D01*
X160241195Y-89207466D01*
X159687332Y-89761329D01*
X159661754Y-89786907D01*
X159621330Y-89827330D01*
X159621326Y-89827335D01*
X159574659Y-89908166D01*
X159550500Y-89998325D01*
X159550500Y-90660853D01*
X159530498Y-90728974D01*
X159496052Y-90760623D01*
X159497824Y-90763024D01*
X159379989Y-90849989D01*
X159298631Y-90960225D01*
X159298628Y-90960232D01*
X159253379Y-91089545D01*
X159250500Y-91120248D01*
X159250500Y-91779740D01*
X159250501Y-91779755D01*
X159253379Y-91810452D01*
X159253380Y-91810455D01*
X159298628Y-91939767D01*
X159298631Y-91939774D01*
X159379989Y-92050010D01*
X159490225Y-92131368D01*
X159490232Y-92131371D01*
X159619547Y-92176621D01*
X159624698Y-92177746D01*
X159686982Y-92211822D01*
X159720956Y-92274162D01*
X159715832Y-92344974D01*
X159712431Y-92353178D01*
X159710959Y-92356401D01*
X159710958Y-92356403D01*
X159701057Y-92425267D01*
X159690312Y-92500000D01*
X159710958Y-92643596D01*
X159771223Y-92775558D01*
X159866225Y-92885196D01*
X159988268Y-92963629D01*
X160127464Y-93004500D01*
X160272536Y-93004500D01*
X160411732Y-92963629D01*
X160533775Y-92885196D01*
X160533775Y-92885195D01*
X160541356Y-92880324D01*
X160542075Y-92881442D01*
X160598265Y-92855782D01*
X160616196Y-92854500D01*
X162283865Y-92854500D01*
X162351986Y-92874502D01*
X162372960Y-92891405D01*
X163099223Y-93617668D01*
X163165226Y-93683671D01*
X163165227Y-93683672D01*
X163165229Y-93683673D01*
X163246060Y-93730340D01*
X163246062Y-93730341D01*
X163336223Y-93754500D01*
X167400971Y-93754500D01*
X167469092Y-93774502D01*
X167490066Y-93791405D01*
X168406095Y-94707434D01*
X168440121Y-94769746D01*
X168443000Y-94796529D01*
X168443000Y-96709653D01*
X168422998Y-96777774D01*
X168369342Y-96824267D01*
X168299068Y-96834371D01*
X168234488Y-96804877D01*
X168227905Y-96798748D01*
X166669783Y-95240626D01*
X166635757Y-95178314D01*
X166640822Y-95107499D01*
X166663654Y-95069018D01*
X166683717Y-95045864D01*
X166742152Y-94978427D01*
X166802417Y-94846465D01*
X166823063Y-94702869D01*
X166802417Y-94559273D01*
X166742152Y-94427311D01*
X166647150Y-94317673D01*
X166647149Y-94317672D01*
X166586128Y-94278456D01*
X166525107Y-94239240D01*
X166525106Y-94239239D01*
X166525105Y-94239239D01*
X166385911Y-94198369D01*
X166240839Y-94198369D01*
X166101644Y-94239239D01*
X166101641Y-94239241D01*
X165972019Y-94322545D01*
X165971299Y-94321426D01*
X165915110Y-94347087D01*
X165897179Y-94348369D01*
X165595882Y-94348369D01*
X165505723Y-94372528D01*
X165424892Y-94419195D01*
X165424882Y-94419203D01*
X165133276Y-94710810D01*
X165070964Y-94744836D01*
X165000149Y-94739771D01*
X164976059Y-94727712D01*
X164911735Y-94686372D01*
X164911730Y-94686370D01*
X164772536Y-94645500D01*
X164627464Y-94645500D01*
X164488269Y-94686370D01*
X164488266Y-94686372D01*
X164366225Y-94764803D01*
X164271223Y-94874441D01*
X164210958Y-95006403D01*
X164205283Y-95045871D01*
X164190781Y-95146742D01*
X164190312Y-95150001D01*
X164193357Y-95171180D01*
X164183252Y-95241454D01*
X164136758Y-95295109D01*
X164068637Y-95315110D01*
X164000517Y-95295107D01*
X163979544Y-95278205D01*
X162137674Y-93436334D01*
X162137664Y-93436326D01*
X162056833Y-93389659D01*
X161966674Y-93365500D01*
X161966671Y-93365500D01*
X157993634Y-93365500D01*
X157925513Y-93345498D01*
X157882512Y-93298896D01*
X157804279Y-93152533D01*
X157804278Y-93152531D01*
X157677252Y-92997748D01*
X157522469Y-92870722D01*
X157522467Y-92870721D01*
X157522466Y-92870720D01*
X157345883Y-92776334D01*
X157345877Y-92776332D01*
X157249641Y-92747139D01*
X157154269Y-92718208D01*
X157154268Y-92718207D01*
X157154262Y-92718206D01*
X156955003Y-92698582D01*
X156954997Y-92698582D01*
X156755738Y-92718206D01*
X156755736Y-92718206D01*
X156564122Y-92776332D01*
X156564116Y-92776334D01*
X156387533Y-92870720D01*
X156291433Y-92949587D01*
X156226085Y-92977340D01*
X156156107Y-92965358D01*
X156103716Y-92917445D01*
X156085500Y-92852187D01*
X156085500Y-92184959D01*
X156105502Y-92116838D01*
X156159158Y-92070345D01*
X156229432Y-92060241D01*
X156270891Y-92073835D01*
X156364120Y-92123667D01*
X156555731Y-92181792D01*
X156555735Y-92181792D01*
X156555737Y-92181793D01*
X156754997Y-92201418D01*
X156755000Y-92201418D01*
X156755003Y-92201418D01*
X156954261Y-92181793D01*
X156954263Y-92181793D01*
X156954264Y-92181792D01*
X156954269Y-92181792D01*
X157145880Y-92123667D01*
X157322469Y-92029278D01*
X157477252Y-91902252D01*
X157604278Y-91747469D01*
X157698667Y-91570880D01*
X157756792Y-91379269D01*
X157776418Y-91180000D01*
X157776231Y-91178105D01*
X157756793Y-90980738D01*
X157756793Y-90980736D01*
X157756792Y-90980733D01*
X157756792Y-90980731D01*
X157698667Y-90789120D01*
X157667296Y-90730430D01*
X157605510Y-90614836D01*
X157604278Y-90612531D01*
X157477252Y-90457748D01*
X157322469Y-90330722D01*
X157322467Y-90330721D01*
X157322466Y-90330720D01*
X157145883Y-90236334D01*
X157145877Y-90236332D01*
X156954262Y-90178206D01*
X156755003Y-90158582D01*
X156754997Y-90158582D01*
X156555738Y-90178206D01*
X156555736Y-90178206D01*
X156364122Y-90236332D01*
X156364116Y-90236334D01*
X156270896Y-90286162D01*
X156201390Y-90300634D01*
X156135094Y-90275230D01*
X156093056Y-90218017D01*
X156085500Y-90175040D01*
X156085500Y-89507812D01*
X156105502Y-89439691D01*
X156159158Y-89393198D01*
X156229432Y-89383094D01*
X156291430Y-89410410D01*
X156387531Y-89489278D01*
X156564120Y-89583667D01*
X156755731Y-89641792D01*
X156755735Y-89641792D01*
X156755737Y-89641793D01*
X156954997Y-89661418D01*
X156955000Y-89661418D01*
X156955003Y-89661418D01*
X157154261Y-89641793D01*
X157154263Y-89641793D01*
X157154264Y-89641792D01*
X157154269Y-89641792D01*
X157345880Y-89583667D01*
X157522469Y-89489278D01*
X157677252Y-89362252D01*
X157804278Y-89207469D01*
X157898667Y-89030880D01*
X157956792Y-88839269D01*
X157958739Y-88819500D01*
X157976418Y-88640003D01*
X157976418Y-88639996D01*
X157956793Y-88440738D01*
X157956793Y-88440736D01*
X157956792Y-88440733D01*
X157956792Y-88440731D01*
X157898667Y-88249120D01*
X157851739Y-88161325D01*
X157804279Y-88072533D01*
X157804278Y-88072531D01*
X157677252Y-87917748D01*
X157522469Y-87790722D01*
X157522467Y-87790721D01*
X157522466Y-87790720D01*
X157345883Y-87696334D01*
X157345877Y-87696332D01*
X157224696Y-87659572D01*
X157154269Y-87638208D01*
X157154268Y-87638207D01*
X157154262Y-87638206D01*
X156955003Y-87618582D01*
X156954997Y-87618582D01*
X156755738Y-87638206D01*
X156755736Y-87638206D01*
X156564122Y-87696332D01*
X156564116Y-87696334D01*
X156387533Y-87790720D01*
X156291433Y-87869587D01*
X156226085Y-87897340D01*
X156156107Y-87885358D01*
X156103716Y-87837445D01*
X156085500Y-87772187D01*
X156085500Y-87104959D01*
X156105502Y-87036838D01*
X156159158Y-86990345D01*
X156229432Y-86980241D01*
X156270891Y-86993835D01*
X156364120Y-87043667D01*
X156555731Y-87101792D01*
X156555735Y-87101792D01*
X156555737Y-87101793D01*
X156754997Y-87121418D01*
X156755000Y-87121418D01*
X156755003Y-87121418D01*
X156954261Y-87101793D01*
X156954263Y-87101793D01*
X156954264Y-87101792D01*
X156954269Y-87101792D01*
X157145880Y-87043667D01*
X157322469Y-86949278D01*
X157477252Y-86822252D01*
X157604278Y-86667469D01*
X157698667Y-86490880D01*
X157741396Y-86350022D01*
X159246001Y-86350022D01*
X159260737Y-86424105D01*
X159260737Y-86424107D01*
X159316875Y-86508124D01*
X159400893Y-86564262D01*
X159400894Y-86564263D01*
X159474980Y-86578999D01*
X159973000Y-86578999D01*
X160227000Y-86578999D01*
X160725014Y-86578999D01*
X160725022Y-86578998D01*
X160799105Y-86564262D01*
X160799107Y-86564262D01*
X160883124Y-86508124D01*
X160939262Y-86424106D01*
X160939263Y-86424105D01*
X160953999Y-86350022D01*
X160954000Y-86350015D01*
X160954000Y-85552000D01*
X160227000Y-85552000D01*
X160227000Y-86578999D01*
X159973000Y-86578999D01*
X159973000Y-85552000D01*
X159246001Y-85552000D01*
X159246001Y-86350022D01*
X157741396Y-86350022D01*
X157756792Y-86299269D01*
X157756793Y-86299261D01*
X157776418Y-86100003D01*
X157776418Y-86099996D01*
X157756793Y-85900738D01*
X157756793Y-85900736D01*
X157756792Y-85900733D01*
X157756792Y-85900731D01*
X157698667Y-85709120D01*
X157604278Y-85532531D01*
X157477252Y-85377748D01*
X157322469Y-85250722D01*
X157322467Y-85250721D01*
X157322466Y-85250720D01*
X157145883Y-85156334D01*
X157145877Y-85156332D01*
X156954262Y-85098206D01*
X156755003Y-85078582D01*
X156754997Y-85078582D01*
X156555738Y-85098206D01*
X156555736Y-85098206D01*
X156364122Y-85156332D01*
X156364116Y-85156334D01*
X156270896Y-85206162D01*
X156201390Y-85220634D01*
X156135094Y-85195230D01*
X156093056Y-85138017D01*
X156085500Y-85095040D01*
X156085500Y-84876500D01*
X156105502Y-84808379D01*
X156159158Y-84761886D01*
X156211500Y-84750500D01*
X159120000Y-84750500D01*
X159188121Y-84770502D01*
G37*
%TD.AperFunction*%
%TA.AperFunction,Conductor*%
G36*
X173819121Y-99818002D02*
G01*
X173865614Y-99871658D01*
X173877000Y-99924000D01*
X173877000Y-100629001D01*
X173896734Y-100648735D01*
X173930760Y-100711047D01*
X173925695Y-100781862D01*
X173896735Y-100826925D01*
X173783316Y-100940345D01*
X173721004Y-100974370D01*
X173694220Y-100977250D01*
X171127500Y-100977250D01*
X171059379Y-100957248D01*
X171012886Y-100903592D01*
X171001500Y-100851253D01*
X171001499Y-100812253D01*
X171021499Y-100744132D01*
X171075154Y-100697638D01*
X171127499Y-100686250D01*
X171214921Y-100686250D01*
X171305082Y-100662091D01*
X171385918Y-100615421D01*
X171466551Y-100534787D01*
X171528861Y-100500762D01*
X171599677Y-100505826D01*
X171630463Y-100522500D01*
X171710227Y-100581369D01*
X171710228Y-100581369D01*
X171710229Y-100581370D01*
X171710232Y-100581371D01*
X171839546Y-100626620D01*
X171839549Y-100626621D01*
X171870251Y-100629500D01*
X172529748Y-100629499D01*
X172560451Y-100626621D01*
X172689773Y-100581369D01*
X172752888Y-100534788D01*
X172800008Y-100500012D01*
X172800008Y-100500010D01*
X172800010Y-100500010D01*
X172879890Y-100391776D01*
X172936431Y-100348848D01*
X173007211Y-100343301D01*
X173069753Y-100376901D01*
X173082134Y-100391091D01*
X173157813Y-100492186D01*
X173268079Y-100574731D01*
X173397139Y-100622868D01*
X173454167Y-100628999D01*
X173454184Y-100629000D01*
X173623000Y-100629000D01*
X173623000Y-99924000D01*
X173643002Y-99855879D01*
X173696658Y-99809386D01*
X173749000Y-99798000D01*
X173751000Y-99798000D01*
X173819121Y-99818002D01*
G37*
%TD.AperFunction*%
%TA.AperFunction,Conductor*%
G36*
X172909396Y-97274502D02*
G01*
X172955889Y-97328158D01*
X172965993Y-97398432D01*
X172936499Y-97463012D01*
X172930370Y-97469595D01*
X172757332Y-97642633D01*
X172748217Y-97651747D01*
X172739107Y-97660857D01*
X172676792Y-97694879D01*
X172608402Y-97690687D01*
X172560358Y-97673876D01*
X172529688Y-97671000D01*
X172327000Y-97671000D01*
X172327000Y-98326000D01*
X172306998Y-98394121D01*
X172253342Y-98440614D01*
X172201000Y-98452000D01*
X171471000Y-98452000D01*
X171471000Y-98579688D01*
X171473876Y-98610358D01*
X171495889Y-98673268D01*
X171499507Y-98744172D01*
X171464218Y-98805777D01*
X171439960Y-98824001D01*
X171366646Y-98866328D01*
X171366639Y-98866334D01*
X171140942Y-99092032D01*
X171078630Y-99126058D01*
X171007815Y-99120993D01*
X170963465Y-99087793D01*
X170961319Y-99089940D01*
X170872567Y-99001188D01*
X170862932Y-98994588D01*
X170864392Y-98992455D01*
X170822860Y-98957365D01*
X170802010Y-98889499D01*
X170802000Y-98887927D01*
X170802000Y-98070311D01*
X171471000Y-98070311D01*
X171471000Y-98198000D01*
X172073000Y-98198000D01*
X172073000Y-97671000D01*
X171870311Y-97671000D01*
X171839639Y-97673876D01*
X171710465Y-97719076D01*
X171600347Y-97800347D01*
X171519076Y-97910465D01*
X171473876Y-98039639D01*
X171471000Y-98070311D01*
X170802000Y-98070311D01*
X170802000Y-97732900D01*
X170822002Y-97664779D01*
X170838905Y-97643805D01*
X171191305Y-97291405D01*
X171253617Y-97257379D01*
X171280400Y-97254500D01*
X172841275Y-97254500D01*
X172909396Y-97274502D01*
G37*
%TD.AperFunction*%
%TA.AperFunction,Conductor*%
G36*
X169815835Y-87588595D02*
G01*
X169815840Y-87588600D01*
X170213595Y-87986355D01*
X170247621Y-88048667D01*
X170250500Y-88075450D01*
X170250500Y-90734343D01*
X170230498Y-90802464D01*
X170199323Y-90835721D01*
X170179989Y-90849990D01*
X170098631Y-90960225D01*
X170098628Y-90960232D01*
X170053379Y-91089545D01*
X170050500Y-91120248D01*
X170050500Y-91779740D01*
X170050501Y-91779755D01*
X170053379Y-91810452D01*
X170053380Y-91810455D01*
X170098628Y-91939767D01*
X170098631Y-91939774D01*
X170179989Y-92050010D01*
X170290225Y-92131368D01*
X170290226Y-92131368D01*
X170290227Y-92131369D01*
X170371762Y-92159899D01*
X170429452Y-92201276D01*
X170455615Y-92267277D01*
X170441943Y-92336944D01*
X170392775Y-92388160D01*
X170374180Y-92396883D01*
X170298081Y-92425267D01*
X170187813Y-92507813D01*
X170105268Y-92618079D01*
X170057131Y-92747139D01*
X170051000Y-92804167D01*
X170051000Y-92973000D01*
X170756000Y-92973000D01*
X170824121Y-92993002D01*
X170870614Y-93046658D01*
X170882000Y-93099000D01*
X170882000Y-93101000D01*
X170861998Y-93169121D01*
X170808342Y-93215614D01*
X170756000Y-93227000D01*
X170051000Y-93227000D01*
X170051000Y-93395832D01*
X170057131Y-93452860D01*
X170105268Y-93581920D01*
X170187813Y-93692186D01*
X170298080Y-93774731D01*
X170324447Y-93784566D01*
X170381283Y-93827112D01*
X170406094Y-93893633D01*
X170391003Y-93963007D01*
X170340801Y-94013209D01*
X170324450Y-94020677D01*
X170305732Y-94027658D01*
X170189596Y-94114596D01*
X170102657Y-94230734D01*
X170051962Y-94366650D01*
X170051960Y-94366658D01*
X170045500Y-94426737D01*
X170045500Y-95473246D01*
X170045502Y-95473270D01*
X170051959Y-95533339D01*
X170051959Y-95533341D01*
X170102657Y-95669266D01*
X170177810Y-95769659D01*
X170189596Y-95785404D01*
X170286881Y-95858230D01*
X170329427Y-95915063D01*
X170334493Y-95985879D01*
X170300469Y-96048191D01*
X170300468Y-96048192D01*
X169367096Y-96981565D01*
X169304783Y-97015590D01*
X169233968Y-97010526D01*
X169177132Y-96967979D01*
X169152321Y-96901459D01*
X169152000Y-96892470D01*
X169152000Y-94550829D01*
X169151999Y-94550825D01*
X169127840Y-94460666D01*
X169081173Y-94379835D01*
X169081169Y-94379830D01*
X169048426Y-94347087D01*
X169015168Y-94313829D01*
X167931144Y-93229805D01*
X167897118Y-93167493D01*
X167902183Y-93096678D01*
X167931141Y-93051617D01*
X168518696Y-92464062D01*
X168518705Y-92464056D01*
X168613685Y-92369076D01*
X168613691Y-92369070D01*
X168673527Y-92265431D01*
X168680423Y-92239696D01*
X168686685Y-92216328D01*
X168692435Y-92194865D01*
X168704501Y-92149836D01*
X168704501Y-92030164D01*
X168704501Y-92022447D01*
X168704500Y-92022429D01*
X168704500Y-89455000D01*
X168724502Y-89386879D01*
X168778158Y-89340386D01*
X168830500Y-89329000D01*
X168948000Y-89329000D01*
X169202000Y-89329000D01*
X169329683Y-89329000D01*
X169329688Y-89328999D01*
X169360360Y-89326123D01*
X169489534Y-89280923D01*
X169599652Y-89199652D01*
X169680923Y-89089534D01*
X169726123Y-88960360D01*
X169728999Y-88929688D01*
X169729000Y-88929682D01*
X169729000Y-88727000D01*
X169202000Y-88727000D01*
X169202000Y-89329000D01*
X168948000Y-89329000D01*
X168948000Y-88599000D01*
X168968002Y-88530879D01*
X169021658Y-88484386D01*
X169074000Y-88473000D01*
X169729000Y-88473000D01*
X169729000Y-88270317D01*
X169728999Y-88270311D01*
X169726123Y-88239639D01*
X169680923Y-88110465D01*
X169599652Y-88000347D01*
X169493883Y-87922286D01*
X169450951Y-87865741D01*
X169445404Y-87794961D01*
X169479004Y-87732419D01*
X169493196Y-87720037D01*
X169493613Y-87719725D01*
X169594330Y-87644330D01*
X169625877Y-87602187D01*
X169682710Y-87559640D01*
X169753525Y-87554574D01*
X169815835Y-87588595D01*
G37*
%TD.AperFunction*%
%TA.AperFunction,Conductor*%
G36*
X175910386Y-93435554D02*
G01*
X175960588Y-93485756D01*
X175968055Y-93502108D01*
X175999116Y-93585386D01*
X175999119Y-93585390D01*
X176080670Y-93694330D01*
X176132507Y-93733134D01*
X176175055Y-93789969D01*
X176183000Y-93834003D01*
X176183000Y-94000403D01*
X176162998Y-94068524D01*
X176132510Y-94101270D01*
X176057456Y-94157456D01*
X175974827Y-94267832D01*
X175974826Y-94267834D01*
X175967788Y-94286704D01*
X175925240Y-94343539D01*
X175858719Y-94368348D01*
X175789345Y-94353255D01*
X175739144Y-94303052D01*
X175731677Y-94286701D01*
X175724731Y-94268080D01*
X175642186Y-94157813D01*
X175531917Y-94075266D01*
X175436331Y-94039614D01*
X175379495Y-93997067D01*
X175354685Y-93930547D01*
X175369777Y-93861173D01*
X175419979Y-93810971D01*
X175436314Y-93803511D01*
X175510387Y-93775883D01*
X175619330Y-93694330D01*
X175700883Y-93585387D01*
X175731945Y-93502108D01*
X175774491Y-93445272D01*
X175841012Y-93420462D01*
X175910386Y-93435554D01*
G37*
%TD.AperFunction*%
%TD*%
M02*
