%TF.GenerationSoftware,KiCad,Pcbnew,9.0.7*%
%TF.CreationDate,2026-02-15T23:40:45+05:30*%
%TF.ProjectId,zepto,7a657074-6f2e-46b6-9963-61645f706362,Mark3*%
%TF.SameCoordinates,Original*%
%TF.FileFunction,Copper,L2,Bot*%
%TF.FilePolarity,Positive*%
%FSLAX46Y46*%
G04 Gerber Fmt 4.6, Leading zero omitted, Abs format (unit mm)*
G04 Created by KiCad (PCBNEW 9.0.7) date 2026-02-15 23:40:45*
%MOMM*%
%LPD*%
G01*
G04 APERTURE LIST*
G04 Aperture macros list*
%AMRoundRect*
0 Rectangle with rounded corners*
0 $1 Rounding radius*
0 $2 $3 $4 $5 $6 $7 $8 $9 X,Y pos of 4 corners*
0 Add a 4 corners polygon primitive as box body*
4,1,4,$2,$3,$4,$5,$6,$7,$8,$9,$2,$3,0*
0 Add four circle primitives for the rounded corners*
1,1,$1+$1,$2,$3*
1,1,$1+$1,$4,$5*
1,1,$1+$1,$6,$7*
1,1,$1+$1,$8,$9*
0 Add four rect primitives between the rounded corners*
20,1,$1+$1,$2,$3,$4,$5,0*
20,1,$1+$1,$4,$5,$6,$7,0*
20,1,$1+$1,$6,$7,$8,$9,0*
20,1,$1+$1,$8,$9,$2,$3,0*%
G04 Aperture macros list end*
%TA.AperFunction,ComponentPad*%
%ADD10C,1.524000*%
%TD*%
%TA.AperFunction,ComponentPad*%
%ADD11RoundRect,0.250000X-0.512000X-0.512000X0.512000X-0.512000X0.512000X0.512000X-0.512000X0.512000X0*%
%TD*%
%TA.AperFunction,ComponentPad*%
%ADD12RoundRect,0.250000X-0.512000X0.512000X-0.512000X-0.512000X0.512000X-0.512000X0.512000X0.512000X0*%
%TD*%
%TA.AperFunction,ComponentPad*%
%ADD13C,0.300000*%
%TD*%
%TA.AperFunction,ComponentPad*%
%ADD14RoundRect,0.250000X0.512000X0.512000X-0.512000X0.512000X-0.512000X-0.512000X0.512000X-0.512000X0*%
%TD*%
%TA.AperFunction,ViaPad*%
%ADD15C,0.400000*%
%TD*%
%TA.AperFunction,ViaPad*%
%ADD16C,0.500000*%
%TD*%
%TA.AperFunction,ViaPad*%
%ADD17C,0.700000*%
%TD*%
%TA.AperFunction,Conductor*%
%ADD18C,0.200000*%
%TD*%
%TA.AperFunction,Conductor*%
%ADD19C,0.300000*%
%TD*%
G04 APERTURE END LIST*
D10*
%TO.P,J4,1,Pin_1*%
%TO.N,TIMG8_C0*%
X179815000Y-86100000D03*
%TO.P,J4,2,Pin_2*%
%TO.N,A0_0*%
X179615000Y-88640000D03*
%TO.P,J4,3,Pin_3*%
%TO.N,A0_1*%
X179815000Y-91180000D03*
%TO.P,J4,4,Pin_4*%
%TO.N,A0_2*%
X179615000Y-93720000D03*
%TO.P,J4,5,Pin_5*%
%TO.N,A0_3*%
X179815000Y-96260000D03*
%TO.P,J4,6,Pin_6*%
%TO.N,RST*%
X179615000Y-98800000D03*
%TO.P,J4,7,Pin_7*%
%TO.N,SPI0_CS1*%
X179815000Y-101340000D03*
%TO.P,J4,8,Pin_8*%
%TO.N,SPI0_SCK*%
X179615000Y-103880000D03*
%TO.P,J4,9,Pin_9*%
%TO.N,SPI0_POCI*%
X179815000Y-106420000D03*
%TO.P,J4,10,Pin_10*%
%TO.N,SPI0_PICO*%
X179615000Y-108960000D03*
%TO.P,J4,11,Pin_11*%
%TO.N,VCC*%
X179815000Y-111500000D03*
D11*
%TO.P,J4,12,Pin_12*%
%TO.N,GND*%
X179615000Y-114040000D03*
%TD*%
D10*
%TO.P,J3,1,Pin_1*%
%TO.N,VCC*%
X177174993Y-116450000D03*
%TO.P,J3,2,Pin_2*%
%TO.N,SWDIO*%
X174634993Y-116250000D03*
%TO.P,J3,3,Pin_3*%
%TO.N,SWCLK*%
X172094993Y-116250000D03*
%TO.P,J3,4,Pin_4*%
%TO.N,BSL_UART_TX*%
X169554993Y-116450000D03*
D12*
%TO.P,J3,5,Pin_5*%
%TO.N,GND*%
X167014993Y-116250000D03*
D10*
%TO.P,J3,6,Pin_6*%
%TO.N,BSL_UART_RX*%
X164474993Y-116450000D03*
%TO.P,J3,7,Pin_7*%
%TO.N,NRST*%
X161934993Y-116250000D03*
%TO.P,J3,8,Pin_8*%
%TO.N,BSL_INVOKE*%
X159394993Y-116450000D03*
%TD*%
D13*
%TO.P,U1,34,TMPAD*%
%TO.N,GND*%
X168800000Y-101005000D03*
%TO.P,U1,35,TMPAD*%
X167325000Y-102480000D03*
%TO.P,U1,36,TMPAD*%
X168800000Y-102480000D03*
%TO.P,U1,37,TMPAD*%
X170275000Y-102480000D03*
%TO.P,U1,38,TMPAD*%
X168800000Y-103955000D03*
%TD*%
D14*
%TO.P,J5,1,Pin_1*%
%TO.N,GND*%
X156955000Y-114040000D03*
D10*
%TO.P,J5,2,Pin_2*%
%TO.N,Net-(J5-Pin_2)*%
X156755000Y-111500000D03*
%TO.P,J5,3,Pin_3*%
%TO.N,BSL_I2C_SDA*%
X156955000Y-108960000D03*
%TO.P,J5,4,Pin_4*%
%TO.N,BSL_I2C_SCL*%
X156755000Y-106420000D03*
%TO.P,J5,5,Pin_5*%
%TO.N,UART1_RX*%
X156955000Y-103880000D03*
%TO.P,J5,6,Pin_6*%
%TO.N,UART1_TX*%
X156755000Y-101340000D03*
%TO.P,J5,7,Pin_7*%
%TO.N,INT*%
X156955000Y-98800000D03*
%TO.P,J5,8,Pin_8*%
%TO.N,TIMA0_C1*%
X156755000Y-96260000D03*
%TO.P,J5,9,Pin_9*%
%TO.N,TIMG0_C0*%
X156955000Y-93720000D03*
%TO.P,J5,10,Pin_10*%
%TO.N,TIMG0_C1*%
X156755000Y-91180000D03*
%TO.P,J5,11,Pin_11*%
%TO.N,CLK_OUT*%
X156955000Y-88640000D03*
%TO.P,J5,12,Pin_12*%
%TO.N,TIMA0_C3*%
X156755000Y-86100000D03*
%TD*%
D15*
%TO.N,BSL_I2C_SCL*%
X165480000Y-101230000D03*
X162441000Y-94760000D03*
X161910000Y-91120000D03*
%TO.N,NRST*%
X167425000Y-108610000D03*
X164590000Y-102390000D03*
D16*
%TO.N,GND*%
X176980000Y-98080000D03*
X177170000Y-100080000D03*
X178780000Y-90170000D03*
X157650000Y-102540000D03*
D17*
X164705000Y-89275000D03*
X171540000Y-88520000D03*
D16*
X162650000Y-115030000D03*
X163520000Y-104410000D03*
X159270000Y-89680000D03*
X178890000Y-92480000D03*
X178780000Y-112660000D03*
X178560000Y-95430000D03*
X158320000Y-95360000D03*
D15*
X162980000Y-99400000D03*
D16*
X178330000Y-102760000D03*
D17*
X162460800Y-85400000D03*
D16*
X157640000Y-97470000D03*
X169570000Y-108310000D03*
X170790000Y-115310000D03*
X157920000Y-100060000D03*
X172660000Y-93550000D03*
X160370000Y-100060000D03*
X178790000Y-110280000D03*
X157560000Y-112750000D03*
X175850000Y-114070000D03*
D17*
X174109200Y-85400000D03*
D16*
X157970000Y-87390000D03*
X169560000Y-110910000D03*
D17*
X173601706Y-102570847D03*
D16*
X173380000Y-115330000D03*
X165590000Y-115220000D03*
X161340000Y-108770000D03*
X172200000Y-105500000D03*
X160899000Y-106179000D03*
X170290000Y-90570000D03*
D15*
%TO.N,SWDIO*%
X175181000Y-104222896D03*
%TO.N,SWCLK*%
X172885319Y-99043651D03*
%TO.N,BSL_UART_RX*%
X169970000Y-109610000D03*
%TO.N,BSL_UART_TX*%
X168120000Y-109610000D03*
%TO.N,SPI0_POCI*%
X166490004Y-111842896D03*
X176520000Y-108359997D03*
%TO.N,BSL_I2C_SDA*%
X165830000Y-100730000D03*
X163040000Y-95260000D03*
X163560000Y-91120000D03*
%TO.N,SPI0_PICO*%
X165760000Y-111842896D03*
X176520000Y-108960000D03*
%TO.N,SPI0_CS1*%
X176520000Y-106690000D03*
X168410000Y-113410000D03*
%TO.N,SPI0_SCK*%
X166680000Y-110910000D03*
X176520000Y-107759994D03*
%TO.N,TIMA0_C1*%
X167289207Y-106615000D03*
%TO.N,A0_1*%
X168050000Y-96861000D03*
X176630000Y-95050092D03*
%TO.N,A0_2*%
X176050000Y-95640000D03*
X168550000Y-97280000D03*
%TO.N,A0_0*%
X167550000Y-97265173D03*
X176120000Y-94450000D03*
%TO.N,INT*%
X160810000Y-98800000D03*
%TO.N,RST*%
X173071500Y-98420000D03*
%TO.N,TIMG8_C0*%
X172250000Y-98410000D03*
%TO.N,A0_3*%
X175660000Y-96260000D03*
X169051000Y-96861000D03*
%TO.N,FCC_IN*%
X172418220Y-102730000D03*
X165630000Y-110110000D03*
%TO.N,TIMG0_C1*%
X171879804Y-104568882D03*
%TO.N,TIMG0_C0*%
X170780000Y-106114000D03*
%TO.N,CLK_OUT*%
X172275951Y-104115951D03*
%TO.N,TIMA0_C3*%
X172410000Y-101915333D03*
%TO.N,UART1_RX*%
X168549998Y-107590000D03*
%TO.N,UART1_TX*%
X168238554Y-106798554D03*
%TO.N,BSL_INVOKE*%
X173550000Y-101415333D03*
X175190000Y-105580000D03*
D16*
%TO.N,Net-(J5-Pin_2)*%
X160600327Y-110400715D03*
%TD*%
D18*
%TO.N,BSL_I2C_SCL*%
X162441000Y-96271000D02*
X164940000Y-98770000D01*
X162450000Y-94751000D02*
X162441000Y-94760000D01*
X161910000Y-91120000D02*
X162450000Y-91660000D01*
X164940000Y-100690000D02*
X165480000Y-101230000D01*
X164940000Y-98770000D02*
X164940000Y-100690000D01*
X162450000Y-91660000D02*
X162450000Y-94751000D01*
X162441000Y-94760000D02*
X162441000Y-96271000D01*
%TO.N,NRST*%
X169060000Y-108090000D02*
X168540000Y-108610000D01*
X171310000Y-105870000D02*
X171310000Y-106360000D01*
X169420000Y-106660000D02*
X169060000Y-107020000D01*
X167425000Y-108610000D02*
X163330000Y-108610000D01*
X163330000Y-108610000D02*
X161934993Y-110005007D01*
X169060000Y-107020000D02*
X169060000Y-108090000D01*
X165095000Y-105613000D02*
X171053000Y-105613000D01*
X161934993Y-110005007D02*
X161934993Y-116250000D01*
X171010000Y-106660000D02*
X169420000Y-106660000D01*
X164590000Y-102390000D02*
X164590000Y-105120000D01*
X168540000Y-108610000D02*
X167425000Y-108610000D01*
X164590000Y-105120000D02*
X165089000Y-105619000D01*
X171053000Y-105613000D02*
X171310000Y-105870000D01*
X165089000Y-105619000D02*
X165095000Y-105613000D01*
X171310000Y-106360000D02*
X171010000Y-106660000D01*
D19*
%TO.N,GND*%
X157920000Y-100060000D02*
X160370000Y-100060000D01*
D18*
%TO.N,SWDIO*%
X175181000Y-104222896D02*
X175587104Y-104629000D01*
X175587104Y-104629000D02*
X176226100Y-104629000D01*
X177861000Y-109916100D02*
X174630000Y-113147100D01*
X177861000Y-106263900D02*
X177861000Y-109916100D01*
X174630000Y-116245007D02*
X174634993Y-116250000D01*
X176226100Y-104629000D02*
X177861000Y-106263900D01*
X174630000Y-113147100D02*
X174630000Y-116245007D01*
%TO.N,SWCLK*%
X172094993Y-115115007D02*
X172094993Y-116250000D01*
X174681000Y-104503900D02*
X175207100Y-105030000D01*
X177460000Y-109750000D02*
X172094993Y-115115007D01*
X176060000Y-105030000D02*
X177460000Y-106430000D01*
X175207100Y-105030000D02*
X176060000Y-105030000D01*
X174681000Y-101643900D02*
X174681000Y-104503900D01*
X173240000Y-100780000D02*
X173817100Y-100780000D01*
X173817100Y-100780000D02*
X174681000Y-101643900D01*
X177460000Y-106430000D02*
X177460000Y-109750000D01*
X172885319Y-100425319D02*
X173240000Y-100780000D01*
X172885319Y-99043651D02*
X172885319Y-100425319D01*
%TO.N,BSL_UART_RX*%
X163320000Y-115295007D02*
X164474993Y-116450000D01*
X169970000Y-109610000D02*
X169310000Y-109610000D01*
X168810000Y-109110000D02*
X165200000Y-109110000D01*
X165200000Y-109110000D02*
X163320000Y-110990000D01*
X163320000Y-110990000D02*
X163320000Y-115295007D01*
X169310000Y-109610000D02*
X168810000Y-109110000D01*
%TO.N,BSL_UART_TX*%
X168120000Y-109610000D02*
X165267100Y-109610000D01*
X163721000Y-111156100D02*
X163721000Y-113111000D01*
X165267100Y-109610000D02*
X163721000Y-111156100D01*
X167504993Y-114400000D02*
X169554993Y-116450000D01*
X165010000Y-114400000D02*
X167504993Y-114400000D01*
X163721000Y-113111000D02*
X165010000Y-114400000D01*
%TO.N,SPI0_POCI*%
X166899000Y-112249000D02*
X166492896Y-111842896D01*
X166492896Y-111842896D02*
X166490004Y-111842896D01*
X176520000Y-108359997D02*
X175427103Y-108359997D01*
X171538100Y-112249000D02*
X166899000Y-112249000D01*
X175427103Y-108359997D02*
X171538100Y-112249000D01*
%TO.N,BSL_I2C_SDA*%
X163560000Y-91120000D02*
X163560000Y-91130000D01*
X163040000Y-96302900D02*
X165341000Y-98603900D01*
X165341000Y-100241000D02*
X165830000Y-100730000D01*
X163040000Y-95260000D02*
X163040000Y-96302900D01*
X165341000Y-98603900D02*
X165341000Y-100241000D01*
X163040000Y-91650000D02*
X163040000Y-95260000D01*
X163560000Y-91130000D02*
X163040000Y-91650000D01*
%TO.N,SPI0_PICO*%
X175394200Y-108960000D02*
X171704200Y-112650000D01*
X165762896Y-111842896D02*
X165760000Y-111842896D01*
X166570000Y-112650000D02*
X165762896Y-111842896D01*
X176520000Y-108960000D02*
X175394200Y-108960000D01*
X171704200Y-112650000D02*
X166570000Y-112650000D01*
%TO.N,SPI0_CS1*%
X177060000Y-107591473D02*
X176548527Y-107080000D01*
X176760000Y-109710000D02*
X177060000Y-109410000D01*
X168410000Y-113410000D02*
X171511300Y-113410000D01*
X176548527Y-107080000D02*
X176548527Y-106718527D01*
X177060000Y-109410000D02*
X177060000Y-107591473D01*
X176548527Y-106718527D02*
X176520000Y-106690000D01*
X171511300Y-113410000D02*
X175211300Y-109710000D01*
X175211300Y-109710000D02*
X176760000Y-109710000D01*
%TO.N,SPI0_SCK*%
X175460006Y-107759994D02*
X176520000Y-107759994D01*
X167618000Y-111848000D02*
X171372000Y-111848000D01*
X171372000Y-111848000D02*
X175460006Y-107759994D01*
X166680000Y-110910000D02*
X167618000Y-111848000D01*
%TO.N,TIMA0_C1*%
X161450000Y-104685800D02*
X161450000Y-97760000D01*
X163379200Y-106615000D02*
X161450000Y-104685800D01*
X159950000Y-96260000D02*
X156755000Y-96260000D01*
X161450000Y-97760000D02*
X159950000Y-96260000D01*
X167289207Y-106615000D02*
X163379200Y-106615000D01*
%TO.N,A0_1*%
X176630000Y-95050092D02*
X176619905Y-95039997D01*
X176619905Y-95039997D02*
X169010003Y-95039997D01*
X168050000Y-96000000D02*
X168050000Y-96861000D01*
X169010003Y-95039997D02*
X168050000Y-96000000D01*
%TO.N,A0_2*%
X176050000Y-95640000D02*
X169490000Y-95640000D01*
X169490000Y-95640000D02*
X168550000Y-96580000D01*
X168550000Y-96580000D02*
X168550000Y-97280000D01*
%TO.N,A0_0*%
X167550000Y-95680000D02*
X167550000Y-97265173D01*
X168780000Y-94450000D02*
X167550000Y-95680000D01*
X176120000Y-94450000D02*
X168780000Y-94450000D01*
%TO.N,INT*%
X160810000Y-98800000D02*
X156955000Y-98800000D01*
%TO.N,RST*%
X173071500Y-98420000D02*
X175950000Y-98420000D01*
X176330000Y-98800000D02*
X179615000Y-98800000D01*
X175950000Y-98420000D02*
X176330000Y-98800000D01*
%TO.N,TIMG8_C0*%
X177760000Y-86690000D02*
X178350000Y-86100000D01*
X178350000Y-86100000D02*
X179815000Y-86100000D01*
X176020000Y-97880000D02*
X177760000Y-96140000D01*
X172780000Y-97880000D02*
X176020000Y-97880000D01*
X177760000Y-96140000D02*
X177760000Y-86690000D01*
X172250000Y-98410000D02*
X172780000Y-97880000D01*
%TO.N,A0_3*%
X169652000Y-96260000D02*
X169051000Y-96861000D01*
X175660000Y-96260000D02*
X169652000Y-96260000D01*
%TO.N,FCC_IN*%
X172820000Y-103890000D02*
X172420000Y-103490000D01*
X172420000Y-102731780D02*
X172418220Y-102730000D01*
X171380000Y-110110000D02*
X172820000Y-108670000D01*
X165630000Y-110110000D02*
X171380000Y-110110000D01*
X172820000Y-108670000D02*
X172820000Y-103890000D01*
X172420000Y-103490000D02*
X172420000Y-102731780D01*
%TO.N,TIMG0_C1*%
X165400000Y-88030000D02*
X166247000Y-88877000D01*
X171479000Y-104168078D02*
X171879804Y-104568882D01*
X170660000Y-99190000D02*
X171479000Y-100009000D01*
X166247000Y-97804894D02*
X167632106Y-99190000D01*
X166247000Y-88877000D02*
X166247000Y-97804894D01*
X171479000Y-100009000D02*
X171479000Y-104168078D01*
X162440000Y-88030000D02*
X165400000Y-88030000D01*
X159290000Y-91180000D02*
X162440000Y-88030000D01*
X167632106Y-99190000D02*
X170660000Y-99190000D01*
X156755000Y-91180000D02*
X159290000Y-91180000D01*
%TO.N,TIMG0_C0*%
X170780000Y-106114000D02*
X167081686Y-106114000D01*
X163451300Y-106120000D02*
X161851000Y-104519700D01*
X157980000Y-93720000D02*
X156955000Y-93720000D01*
X161851000Y-97591000D02*
X157980000Y-93720000D01*
X161851000Y-104519700D02*
X161851000Y-97591000D01*
X167081686Y-106114000D02*
X167075686Y-106120000D01*
X167075686Y-106120000D02*
X163451300Y-106120000D01*
%TO.N,CLK_OUT*%
X162300000Y-87610000D02*
X162281000Y-87629000D01*
X166648000Y-88710900D02*
X165547100Y-87610000D01*
X170946100Y-98789000D02*
X167798206Y-98789000D01*
X171880000Y-103720000D02*
X171880000Y-99722900D01*
X172275951Y-104115951D02*
X171880000Y-103720000D01*
X171880000Y-99722900D02*
X170946100Y-98789000D01*
X162273900Y-87629000D02*
X161262900Y-88640000D01*
X165547100Y-87610000D02*
X162300000Y-87610000D01*
X167798206Y-98789000D02*
X166648000Y-97638794D01*
X162281000Y-87629000D02*
X162273900Y-87629000D01*
X161262900Y-88640000D02*
X156955000Y-88640000D01*
X166648000Y-97638794D02*
X166648000Y-88710900D01*
%TO.N,TIMA0_C3*%
X167049000Y-88544800D02*
X164604200Y-86100000D01*
X171112200Y-98388000D02*
X167964306Y-98388000D01*
X172410000Y-99685800D02*
X171112200Y-98388000D01*
X164604200Y-86100000D02*
X156755000Y-86100000D01*
X172410000Y-101915333D02*
X172410000Y-99685800D01*
X167964306Y-98388000D02*
X167049000Y-97472694D01*
X167049000Y-97472694D02*
X167049000Y-88544800D01*
%TO.N,UART1_RX*%
X168549998Y-107590000D02*
X163220000Y-107590000D01*
X163220000Y-107590000D02*
X159510000Y-103880000D01*
X159510000Y-103880000D02*
X156955000Y-103880000D01*
%TO.N,UART1_TX*%
X159800000Y-101340000D02*
X156755000Y-101340000D01*
X168238554Y-106798554D02*
X168238554Y-106801446D01*
X167851000Y-107189000D02*
X163386100Y-107189000D01*
X161049000Y-104851900D02*
X161049000Y-102589000D01*
X168238554Y-106801446D02*
X167851000Y-107189000D01*
X163386100Y-107189000D02*
X161049000Y-104851900D01*
X161049000Y-102589000D02*
X159800000Y-101340000D01*
%TO.N,BSL_INVOKE*%
X174280000Y-104670000D02*
X175190000Y-105580000D01*
X174280000Y-101810000D02*
X174280000Y-104670000D01*
X173565333Y-101400000D02*
X173870000Y-101400000D01*
X173870000Y-101400000D02*
X174280000Y-101810000D01*
X173550000Y-101415333D02*
X173565333Y-101400000D01*
%TO.N,Net-(J5-Pin_2)*%
X158560000Y-111500000D02*
X156755000Y-111500000D01*
X160600327Y-110400715D02*
X159659285Y-110400715D01*
X159659285Y-110400715D02*
X158560000Y-111500000D01*
%TD*%
%TA.AperFunction,Conductor*%
%TO.N,GND*%
G36*
X159379092Y-104254502D02*
G01*
X159400066Y-104271405D01*
X163002325Y-107873665D01*
X163002330Y-107873669D01*
X163002332Y-107873671D01*
X163083168Y-107920341D01*
X163173329Y-107944500D01*
X163266671Y-107944500D01*
X167200298Y-107944500D01*
X167203758Y-107945516D01*
X167207271Y-107944693D01*
X167237572Y-107955444D01*
X167268419Y-107964502D01*
X167270781Y-107967227D01*
X167274180Y-107968434D01*
X167293859Y-107993861D01*
X167314912Y-108018158D01*
X167315425Y-108021727D01*
X167317633Y-108024580D01*
X167320439Y-108056605D01*
X167325016Y-108088432D01*
X167323517Y-108091713D01*
X167323832Y-108095306D01*
X167308878Y-108123766D01*
X167295522Y-108153012D01*
X167291994Y-108155901D01*
X167290810Y-108158156D01*
X167281597Y-108164419D01*
X167262449Y-108180105D01*
X167252696Y-108185634D01*
X167249569Y-108186473D01*
X167158830Y-108238860D01*
X167158400Y-108239105D01*
X167150697Y-108240910D01*
X167096249Y-108255500D01*
X163283325Y-108255500D01*
X163193166Y-108279659D01*
X163112335Y-108326326D01*
X163112325Y-108326334D01*
X162004097Y-109434564D01*
X161717325Y-109721336D01*
X161695547Y-109743114D01*
X161651323Y-109787337D01*
X161651319Y-109787342D01*
X161604652Y-109868173D01*
X161580493Y-109958332D01*
X161580493Y-115212396D01*
X161560491Y-115280517D01*
X161506835Y-115327010D01*
X161502713Y-115328804D01*
X161453502Y-115349188D01*
X161453500Y-115349189D01*
X161287010Y-115460434D01*
X161287004Y-115460439D01*
X161145432Y-115602011D01*
X161145427Y-115602017D01*
X161034183Y-115768507D01*
X160957558Y-115953494D01*
X160957557Y-115953497D01*
X160918493Y-116149880D01*
X160918493Y-116350119D01*
X160932706Y-116421571D01*
X160957557Y-116546502D01*
X161034183Y-116731493D01*
X161126889Y-116870238D01*
X161145427Y-116897982D01*
X161145432Y-116897988D01*
X161287004Y-117039560D01*
X161287010Y-117039565D01*
X161287012Y-117039567D01*
X161453500Y-117150810D01*
X161501256Y-117170591D01*
X161556537Y-117215139D01*
X161578958Y-117282503D01*
X161561400Y-117351294D01*
X161509438Y-117399672D01*
X161453038Y-117413000D01*
X160173732Y-117413000D01*
X160105611Y-117392998D01*
X160059118Y-117339342D01*
X160049014Y-117269068D01*
X160078508Y-117204488D01*
X160084637Y-117197905D01*
X160184553Y-117097988D01*
X160184560Y-117097981D01*
X160295803Y-116931493D01*
X160372429Y-116746502D01*
X160411493Y-116550116D01*
X160411493Y-116349884D01*
X160372429Y-116153498D01*
X160295803Y-115968507D01*
X160184560Y-115802019D01*
X160184558Y-115802017D01*
X160184553Y-115802011D01*
X160042981Y-115660439D01*
X160042975Y-115660434D01*
X160042974Y-115660433D01*
X159876486Y-115549190D01*
X159740706Y-115492948D01*
X159691498Y-115472565D01*
X159691495Y-115472564D01*
X159495112Y-115433500D01*
X159495109Y-115433500D01*
X159294877Y-115433500D01*
X159294873Y-115433500D01*
X159098490Y-115472564D01*
X159098487Y-115472565D01*
X158913500Y-115549190D01*
X158747010Y-115660434D01*
X158747004Y-115660439D01*
X158605432Y-115802011D01*
X158605427Y-115802017D01*
X158494184Y-115968505D01*
X158472150Y-116021700D01*
X158427601Y-116076980D01*
X158360238Y-116099401D01*
X158291447Y-116081843D01*
X158243068Y-116029880D01*
X158242231Y-116028175D01*
X158239111Y-116021700D01*
X158152226Y-115841381D01*
X158152223Y-115841377D01*
X158152220Y-115841371D01*
X158017077Y-115646397D01*
X158017069Y-115646387D01*
X157853085Y-115474950D01*
X157853078Y-115474944D01*
X157664290Y-115331269D01*
X157607375Y-115300659D01*
X157563552Y-115277090D01*
X157513033Y-115227209D01*
X157497501Y-115157932D01*
X157521889Y-115091255D01*
X157578453Y-115048348D01*
X157579202Y-115048066D01*
X157711026Y-114998897D01*
X157827047Y-114912047D01*
X157913899Y-114796023D01*
X157964546Y-114660238D01*
X157964548Y-114660230D01*
X157970999Y-114600222D01*
X157971000Y-114600205D01*
X157971000Y-114167000D01*
X157381151Y-114167000D01*
X157399500Y-114098520D01*
X157399500Y-113981480D01*
X157381151Y-113913000D01*
X157970999Y-113913000D01*
X157970999Y-113479797D01*
X157970997Y-113479773D01*
X157964547Y-113419767D01*
X157964547Y-113419765D01*
X157913899Y-113283976D01*
X157827047Y-113167952D01*
X157711023Y-113081100D01*
X157711024Y-113081100D01*
X157575238Y-113030453D01*
X157575230Y-113030451D01*
X157515222Y-113024000D01*
X157082000Y-113024000D01*
X157082000Y-113613849D01*
X157013520Y-113595500D01*
X156896480Y-113595500D01*
X156828000Y-113613849D01*
X156828000Y-113024000D01*
X156394797Y-113024000D01*
X156394773Y-113024002D01*
X156334768Y-113030452D01*
X156255502Y-113060017D01*
X156184687Y-113065081D01*
X156122375Y-113031056D01*
X156088349Y-112968744D01*
X156085470Y-112941961D01*
X156085470Y-112510520D01*
X156105472Y-112442399D01*
X156159128Y-112395906D01*
X156229402Y-112385802D01*
X156270871Y-112399401D01*
X156273505Y-112400809D01*
X156273506Y-112400809D01*
X156273507Y-112400810D01*
X156458498Y-112477436D01*
X156654884Y-112516500D01*
X156855116Y-112516500D01*
X157051502Y-112477436D01*
X157236493Y-112400810D01*
X157402981Y-112289567D01*
X157544567Y-112147981D01*
X157655810Y-111981493D01*
X157676194Y-111932280D01*
X157720743Y-111877001D01*
X157788106Y-111854580D01*
X157792603Y-111854500D01*
X158606671Y-111854500D01*
X158696832Y-111830341D01*
X158777668Y-111783671D01*
X159769219Y-110792120D01*
X159831531Y-110758095D01*
X159858314Y-110755215D01*
X160189166Y-110755215D01*
X160257287Y-110775217D01*
X160278261Y-110792120D01*
X160290550Y-110804409D01*
X160290555Y-110804413D01*
X160290557Y-110804415D01*
X160405597Y-110870834D01*
X160533908Y-110905215D01*
X160533910Y-110905215D01*
X160666744Y-110905215D01*
X160666746Y-110905215D01*
X160795057Y-110870834D01*
X160910097Y-110804415D01*
X161004027Y-110710485D01*
X161070446Y-110595445D01*
X161104827Y-110467134D01*
X161104827Y-110334296D01*
X161070446Y-110205985D01*
X161019098Y-110117049D01*
X161004029Y-110090948D01*
X161004021Y-110090938D01*
X160910103Y-109997020D01*
X160910093Y-109997012D01*
X160795057Y-109930596D01*
X160666746Y-109896215D01*
X160533908Y-109896215D01*
X160448367Y-109919135D01*
X160405596Y-109930596D01*
X160290560Y-109997012D01*
X160290550Y-109997020D01*
X160278261Y-110009310D01*
X160215949Y-110043336D01*
X160189166Y-110046215D01*
X159612610Y-110046215D01*
X159522454Y-110070373D01*
X159522453Y-110070373D01*
X159463344Y-110104500D01*
X159463343Y-110104499D01*
X159441620Y-110117041D01*
X159441610Y-110117049D01*
X158450066Y-111108595D01*
X158387754Y-111142620D01*
X158360971Y-111145500D01*
X157792603Y-111145500D01*
X157724482Y-111125498D01*
X157677989Y-111071842D01*
X157676194Y-111067719D01*
X157655810Y-111018507D01*
X157544567Y-110852019D01*
X157544565Y-110852017D01*
X157544560Y-110852011D01*
X157402988Y-110710439D01*
X157402982Y-110710434D01*
X157402981Y-110710433D01*
X157236493Y-110599190D01*
X157075369Y-110532450D01*
X157051505Y-110522565D01*
X157051502Y-110522564D01*
X156855119Y-110483500D01*
X156855116Y-110483500D01*
X156654884Y-110483500D01*
X156654880Y-110483500D01*
X156458497Y-110522564D01*
X156458494Y-110522565D01*
X156273500Y-110599192D01*
X156270860Y-110600604D01*
X156269319Y-110600924D01*
X156267788Y-110601559D01*
X156267667Y-110601268D01*
X156201353Y-110615072D01*
X156135059Y-110589665D01*
X156093024Y-110532450D01*
X156085470Y-110489479D01*
X156085470Y-109832209D01*
X156105472Y-109764088D01*
X156159128Y-109717595D01*
X156229402Y-109707491D01*
X156293982Y-109736985D01*
X156300565Y-109743114D01*
X156307011Y-109749560D01*
X156307017Y-109749565D01*
X156307019Y-109749567D01*
X156473507Y-109860810D01*
X156658498Y-109937436D01*
X156854884Y-109976500D01*
X157055116Y-109976500D01*
X157251502Y-109937436D01*
X157436493Y-109860810D01*
X157602981Y-109749567D01*
X157744567Y-109607981D01*
X157855810Y-109441493D01*
X157932436Y-109256502D01*
X157971500Y-109060116D01*
X157971500Y-108859884D01*
X157932436Y-108663498D01*
X157855810Y-108478507D01*
X157744567Y-108312019D01*
X157744565Y-108312017D01*
X157744560Y-108312011D01*
X157602988Y-108170439D01*
X157602982Y-108170434D01*
X157602981Y-108170433D01*
X157436493Y-108059190D01*
X157308588Y-108006210D01*
X157251505Y-107982565D01*
X157251502Y-107982564D01*
X157055119Y-107943500D01*
X157055116Y-107943500D01*
X156854884Y-107943500D01*
X156854880Y-107943500D01*
X156658497Y-107982564D01*
X156658494Y-107982565D01*
X156473507Y-108059190D01*
X156307017Y-108170434D01*
X156307011Y-108170439D01*
X156300565Y-108176886D01*
X156238253Y-108210912D01*
X156167438Y-108205847D01*
X156110602Y-108163300D01*
X156085791Y-108096780D01*
X156085470Y-108087791D01*
X156085470Y-107430520D01*
X156105472Y-107362399D01*
X156159128Y-107315906D01*
X156229402Y-107305802D01*
X156270871Y-107319401D01*
X156273505Y-107320809D01*
X156273506Y-107320809D01*
X156273507Y-107320810D01*
X156458498Y-107397436D01*
X156654884Y-107436500D01*
X156855116Y-107436500D01*
X157051502Y-107397436D01*
X157236493Y-107320810D01*
X157402981Y-107209567D01*
X157544567Y-107067981D01*
X157655810Y-106901493D01*
X157732436Y-106716502D01*
X157771500Y-106520116D01*
X157771500Y-106319884D01*
X157732436Y-106123498D01*
X157655810Y-105938507D01*
X157544567Y-105772019D01*
X157544565Y-105772017D01*
X157544560Y-105772011D01*
X157402988Y-105630439D01*
X157402982Y-105630434D01*
X157402981Y-105630433D01*
X157236493Y-105519190D01*
X157054467Y-105443792D01*
X157051505Y-105442565D01*
X157051502Y-105442564D01*
X156855119Y-105403500D01*
X156855116Y-105403500D01*
X156654884Y-105403500D01*
X156654880Y-105403500D01*
X156458497Y-105442564D01*
X156458494Y-105442565D01*
X156273500Y-105519192D01*
X156270860Y-105520604D01*
X156269319Y-105520924D01*
X156267788Y-105521559D01*
X156267667Y-105521268D01*
X156201353Y-105535072D01*
X156135059Y-105509665D01*
X156093024Y-105452450D01*
X156085470Y-105409479D01*
X156085470Y-104752209D01*
X156105472Y-104684088D01*
X156159128Y-104637595D01*
X156229402Y-104627491D01*
X156293982Y-104656985D01*
X156300565Y-104663114D01*
X156307011Y-104669560D01*
X156307017Y-104669565D01*
X156307019Y-104669567D01*
X156473507Y-104780810D01*
X156658498Y-104857436D01*
X156854884Y-104896500D01*
X157055116Y-104896500D01*
X157251502Y-104857436D01*
X157436493Y-104780810D01*
X157602981Y-104669567D01*
X157744567Y-104527981D01*
X157855810Y-104361493D01*
X157876194Y-104312280D01*
X157920743Y-104257001D01*
X157988106Y-104234580D01*
X157992603Y-104234500D01*
X159310971Y-104234500D01*
X159379092Y-104254502D01*
G37*
%TD.AperFunction*%
%TA.AperFunction,Conductor*%
G36*
X164608092Y-108984502D02*
G01*
X164654585Y-109038158D01*
X164664689Y-109108432D01*
X164635195Y-109173012D01*
X164629069Y-109179592D01*
X163465467Y-110343193D01*
X163084609Y-110724051D01*
X163084608Y-110724050D01*
X163084607Y-110724051D01*
X163084608Y-110724052D01*
X163036331Y-110772329D01*
X163036326Y-110772335D01*
X162989659Y-110853166D01*
X162965500Y-110943325D01*
X162965500Y-115341681D01*
X162989659Y-115431840D01*
X163036326Y-115512671D01*
X163036328Y-115512673D01*
X163036329Y-115512675D01*
X163490628Y-115966974D01*
X163524652Y-116029285D01*
X163519588Y-116100100D01*
X163517941Y-116104286D01*
X163497558Y-116153494D01*
X163497557Y-116153497D01*
X163458493Y-116349880D01*
X163458493Y-116550119D01*
X163487213Y-116694500D01*
X163497557Y-116746502D01*
X163574183Y-116931493D01*
X163670024Y-117074930D01*
X163685427Y-117097982D01*
X163685432Y-117097988D01*
X163785349Y-117197905D01*
X163819375Y-117260217D01*
X163814310Y-117331032D01*
X163771763Y-117387868D01*
X163705243Y-117412679D01*
X163696254Y-117413000D01*
X162416948Y-117413000D01*
X162348827Y-117392998D01*
X162302334Y-117339342D01*
X162292230Y-117269068D01*
X162321724Y-117204488D01*
X162368729Y-117170591D01*
X162416486Y-117150810D01*
X162582974Y-117039567D01*
X162724560Y-116897981D01*
X162835803Y-116731493D01*
X162912429Y-116546502D01*
X162951493Y-116350116D01*
X162951493Y-116149884D01*
X162912429Y-115953498D01*
X162835803Y-115768507D01*
X162724560Y-115602019D01*
X162724558Y-115602017D01*
X162724553Y-115602011D01*
X162582981Y-115460439D01*
X162582975Y-115460434D01*
X162542665Y-115433500D01*
X162416486Y-115349190D01*
X162416487Y-115349190D01*
X162416485Y-115349189D01*
X162416483Y-115349188D01*
X162367273Y-115328804D01*
X162311993Y-115284255D01*
X162289573Y-115216891D01*
X162289493Y-115212396D01*
X162289493Y-110204036D01*
X162309495Y-110135915D01*
X162326398Y-110114941D01*
X163439934Y-109001405D01*
X163502246Y-108967379D01*
X163529029Y-108964500D01*
X164539971Y-108964500D01*
X164608092Y-108984502D01*
G37*
%TD.AperFunction*%
%TA.AperFunction,Conductor*%
G36*
X163883012Y-113774805D02*
G01*
X163889581Y-113780920D01*
X164792332Y-114683671D01*
X164873168Y-114730341D01*
X164963329Y-114754500D01*
X165056671Y-114754500D01*
X167305964Y-114754500D01*
X167374085Y-114774502D01*
X167395059Y-114791405D01*
X167622559Y-115018905D01*
X167656585Y-115081217D01*
X167651520Y-115152032D01*
X167608973Y-115208868D01*
X167542453Y-115233679D01*
X167533464Y-115234000D01*
X167141993Y-115234000D01*
X167141993Y-115823849D01*
X167073513Y-115805500D01*
X166956473Y-115805500D01*
X166887993Y-115823849D01*
X166887993Y-115234000D01*
X166454790Y-115234000D01*
X166454766Y-115234002D01*
X166394760Y-115240452D01*
X166394758Y-115240452D01*
X166258969Y-115291100D01*
X166142945Y-115377952D01*
X166056093Y-115493976D01*
X166005446Y-115629761D01*
X166005444Y-115629769D01*
X165998993Y-115689777D01*
X165998993Y-116123000D01*
X166588842Y-116123000D01*
X166570493Y-116191480D01*
X166570493Y-116308520D01*
X166588842Y-116377000D01*
X165998994Y-116377000D01*
X165998994Y-116810202D01*
X165998995Y-116810226D01*
X166005445Y-116870232D01*
X166005445Y-116870234D01*
X166056093Y-117006023D01*
X166142944Y-117122045D01*
X166228554Y-117186131D01*
X166271100Y-117242967D01*
X166276166Y-117313783D01*
X166242141Y-117376095D01*
X166179829Y-117410120D01*
X166153045Y-117413000D01*
X165253732Y-117413000D01*
X165185611Y-117392998D01*
X165139118Y-117339342D01*
X165129014Y-117269068D01*
X165158508Y-117204488D01*
X165164637Y-117197905D01*
X165264553Y-117097988D01*
X165264560Y-117097981D01*
X165375803Y-116931493D01*
X165452429Y-116746502D01*
X165491493Y-116550116D01*
X165491493Y-116349884D01*
X165452429Y-116153498D01*
X165375803Y-115968507D01*
X165264560Y-115802019D01*
X165264558Y-115802017D01*
X165264553Y-115802011D01*
X165122981Y-115660439D01*
X165122975Y-115660434D01*
X165122974Y-115660433D01*
X164956486Y-115549190D01*
X164820706Y-115492948D01*
X164771498Y-115472565D01*
X164771495Y-115472564D01*
X164575112Y-115433500D01*
X164575109Y-115433500D01*
X164374877Y-115433500D01*
X164374873Y-115433500D01*
X164178490Y-115472564D01*
X164178487Y-115472565D01*
X164129279Y-115492948D01*
X164058689Y-115500537D01*
X163995202Y-115468757D01*
X163991966Y-115465634D01*
X163711405Y-115185073D01*
X163677379Y-115122761D01*
X163674500Y-115095978D01*
X163674500Y-113870029D01*
X163694502Y-113801908D01*
X163748158Y-113755415D01*
X163818432Y-113745311D01*
X163883012Y-113774805D01*
G37*
%TD.AperFunction*%
%TA.AperFunction,Conductor*%
G36*
X168239504Y-115636304D02*
G01*
X168246087Y-115642433D01*
X168570627Y-115966973D01*
X168604653Y-116029285D01*
X168599588Y-116100100D01*
X168597941Y-116104286D01*
X168577558Y-116153494D01*
X168577557Y-116153497D01*
X168538493Y-116349880D01*
X168538493Y-116550119D01*
X168567213Y-116694500D01*
X168577557Y-116746502D01*
X168654183Y-116931493D01*
X168750024Y-117074930D01*
X168765427Y-117097982D01*
X168765432Y-117097988D01*
X168865349Y-117197905D01*
X168899375Y-117260217D01*
X168894310Y-117331032D01*
X168851763Y-117387868D01*
X168785243Y-117412679D01*
X168776254Y-117413000D01*
X167876941Y-117413000D01*
X167808820Y-117392998D01*
X167762327Y-117339342D01*
X167752223Y-117269068D01*
X167781717Y-117204488D01*
X167801432Y-117186131D01*
X167887041Y-117122045D01*
X167973892Y-117006023D01*
X168024539Y-116870238D01*
X168024541Y-116870230D01*
X168030992Y-116810222D01*
X168030993Y-116810205D01*
X168030993Y-116377000D01*
X167441144Y-116377000D01*
X167459493Y-116308520D01*
X167459493Y-116191480D01*
X167441144Y-116123000D01*
X168030992Y-116123000D01*
X168030992Y-115731528D01*
X168050994Y-115663407D01*
X168104650Y-115616914D01*
X168174924Y-115606810D01*
X168239504Y-115636304D01*
G37*
%TD.AperFunction*%
%TA.AperFunction,Conductor*%
G36*
X176408092Y-110084502D02*
G01*
X176454585Y-110138158D01*
X176464689Y-110208432D01*
X176435195Y-110273012D01*
X176429066Y-110279595D01*
X171877325Y-114831336D01*
X171844324Y-114864337D01*
X171811323Y-114897337D01*
X171811319Y-114897342D01*
X171764652Y-114978173D01*
X171740493Y-115068332D01*
X171740493Y-115212396D01*
X171720491Y-115280517D01*
X171666835Y-115327010D01*
X171662713Y-115328804D01*
X171613502Y-115349188D01*
X171613500Y-115349189D01*
X171447010Y-115460434D01*
X171447004Y-115460439D01*
X171305432Y-115602011D01*
X171305427Y-115602017D01*
X171194183Y-115768507D01*
X171117558Y-115953494D01*
X171117557Y-115953497D01*
X171078493Y-116149880D01*
X171078493Y-116350119D01*
X171092706Y-116421571D01*
X171117557Y-116546502D01*
X171194183Y-116731493D01*
X171286889Y-116870238D01*
X171305427Y-116897982D01*
X171305432Y-116897988D01*
X171447004Y-117039560D01*
X171447010Y-117039565D01*
X171447012Y-117039567D01*
X171613500Y-117150810D01*
X171661256Y-117170591D01*
X171716537Y-117215139D01*
X171738958Y-117282503D01*
X171721400Y-117351294D01*
X171669438Y-117399672D01*
X171613038Y-117413000D01*
X170333732Y-117413000D01*
X170265611Y-117392998D01*
X170219118Y-117339342D01*
X170209014Y-117269068D01*
X170238508Y-117204488D01*
X170244637Y-117197905D01*
X170344553Y-117097988D01*
X170344560Y-117097981D01*
X170455803Y-116931493D01*
X170532429Y-116746502D01*
X170571493Y-116550116D01*
X170571493Y-116349884D01*
X170532429Y-116153498D01*
X170455803Y-115968507D01*
X170344560Y-115802019D01*
X170344558Y-115802017D01*
X170344553Y-115802011D01*
X170202981Y-115660439D01*
X170202975Y-115660434D01*
X170202974Y-115660433D01*
X170036486Y-115549190D01*
X169900706Y-115492948D01*
X169851498Y-115472565D01*
X169851495Y-115472564D01*
X169655112Y-115433500D01*
X169655109Y-115433500D01*
X169454877Y-115433500D01*
X169454873Y-115433500D01*
X169258490Y-115472564D01*
X169258487Y-115472565D01*
X169209279Y-115492948D01*
X169138689Y-115500537D01*
X169075202Y-115468757D01*
X169071966Y-115465634D01*
X167722667Y-114116334D01*
X167722657Y-114116326D01*
X167641826Y-114069659D01*
X167551667Y-114045500D01*
X167551664Y-114045500D01*
X165209029Y-114045500D01*
X165140908Y-114025498D01*
X165119934Y-114008595D01*
X164112405Y-113001066D01*
X164078379Y-112938754D01*
X164075500Y-112911971D01*
X164075500Y-111355128D01*
X164095502Y-111287007D01*
X164112395Y-111266043D01*
X165048833Y-110329604D01*
X165111142Y-110295582D01*
X165181957Y-110300646D01*
X165238793Y-110343193D01*
X165247044Y-110355702D01*
X165266306Y-110389066D01*
X165266314Y-110389076D01*
X165350923Y-110473685D01*
X165350928Y-110473689D01*
X165350930Y-110473691D01*
X165350931Y-110473692D01*
X165350933Y-110473693D01*
X165454564Y-110533525D01*
X165454566Y-110533525D01*
X165454569Y-110533527D01*
X165570164Y-110564500D01*
X165570166Y-110564500D01*
X165689834Y-110564500D01*
X165689836Y-110564500D01*
X165805431Y-110533527D01*
X165805434Y-110533525D01*
X165805435Y-110533525D01*
X165895751Y-110481381D01*
X165911490Y-110477163D01*
X165923253Y-110469604D01*
X165958751Y-110464500D01*
X166194159Y-110464500D01*
X166262280Y-110484502D01*
X166308773Y-110538158D01*
X166318877Y-110608432D01*
X166303278Y-110653501D01*
X166256474Y-110734566D01*
X166256473Y-110734568D01*
X166256473Y-110734569D01*
X166225500Y-110850164D01*
X166225500Y-110969836D01*
X166238541Y-111018505D01*
X166256474Y-111085435D01*
X166316306Y-111189066D01*
X166316314Y-111189076D01*
X166345564Y-111218326D01*
X166357142Y-111239529D01*
X166372463Y-111258213D01*
X166373845Y-111270118D01*
X166379590Y-111280638D01*
X166377866Y-111304739D01*
X166380653Y-111328736D01*
X166375380Y-111339498D01*
X166374525Y-111351453D01*
X166360046Y-111370793D01*
X166349416Y-111392491D01*
X166335346Y-111403789D01*
X166331978Y-111408289D01*
X166321684Y-111415231D01*
X166315058Y-111419239D01*
X166314573Y-111419369D01*
X166210934Y-111479205D01*
X166203292Y-111486846D01*
X166190217Y-111494756D01*
X166170073Y-111500080D01*
X166151785Y-111510067D01*
X166136443Y-111508969D01*
X166121578Y-111512899D01*
X166101756Y-111506488D01*
X166080970Y-111505002D01*
X166064572Y-111494463D01*
X166054026Y-111491053D01*
X166048188Y-111483933D01*
X166046623Y-111482928D01*
X166045622Y-111484233D01*
X166039066Y-111479202D01*
X165935435Y-111419370D01*
X165894079Y-111408289D01*
X165819836Y-111388396D01*
X165700164Y-111388396D01*
X165629415Y-111407352D01*
X165584564Y-111419370D01*
X165480933Y-111479202D01*
X165480923Y-111479210D01*
X165396314Y-111563819D01*
X165396306Y-111563829D01*
X165336474Y-111667460D01*
X165336473Y-111667465D01*
X165305500Y-111783060D01*
X165305500Y-111902732D01*
X165326603Y-111981492D01*
X165336474Y-112018331D01*
X165396306Y-112121962D01*
X165396314Y-112121972D01*
X165480923Y-112206581D01*
X165480928Y-112206585D01*
X165480930Y-112206587D01*
X165480931Y-112206588D01*
X165480933Y-112206589D01*
X165584565Y-112266421D01*
X165584569Y-112266423D01*
X165689262Y-112294475D01*
X165745746Y-112327085D01*
X166281923Y-112863261D01*
X166281944Y-112863284D01*
X166352325Y-112933665D01*
X166352330Y-112933669D01*
X166352332Y-112933671D01*
X166352333Y-112933672D01*
X166352335Y-112933673D01*
X166405143Y-112964161D01*
X166433168Y-112980341D01*
X166523329Y-113004500D01*
X167901065Y-113004500D01*
X167969186Y-113024502D01*
X168015679Y-113078158D01*
X168025783Y-113148432D01*
X168010184Y-113193501D01*
X167986474Y-113234566D01*
X167986473Y-113234568D01*
X167986473Y-113234569D01*
X167955500Y-113350164D01*
X167955500Y-113469836D01*
X167958163Y-113479773D01*
X167986474Y-113585435D01*
X168046306Y-113689066D01*
X168046314Y-113689076D01*
X168130923Y-113773685D01*
X168130928Y-113773689D01*
X168130930Y-113773691D01*
X168130931Y-113773692D01*
X168130933Y-113773693D01*
X168234564Y-113833525D01*
X168234566Y-113833525D01*
X168234569Y-113833527D01*
X168350164Y-113864500D01*
X168350166Y-113864500D01*
X168469834Y-113864500D01*
X168469836Y-113864500D01*
X168585431Y-113833527D01*
X168585434Y-113833525D01*
X168585435Y-113833525D01*
X168675751Y-113781381D01*
X168738751Y-113764500D01*
X171557971Y-113764500D01*
X171648132Y-113740341D01*
X171728968Y-113693671D01*
X175321234Y-110101405D01*
X175383546Y-110067379D01*
X175410329Y-110064500D01*
X176339971Y-110064500D01*
X176408092Y-110084502D01*
G37*
%TD.AperFunction*%
%TA.AperFunction,Conductor*%
G36*
X174193533Y-113621973D02*
G01*
X174250368Y-113664520D01*
X174275179Y-113731040D01*
X174275500Y-113740029D01*
X174275500Y-115214464D01*
X174255498Y-115282585D01*
X174201842Y-115329078D01*
X174197721Y-115330872D01*
X174153499Y-115349190D01*
X173987010Y-115460434D01*
X173987004Y-115460439D01*
X173845432Y-115602011D01*
X173845427Y-115602017D01*
X173734183Y-115768507D01*
X173657558Y-115953494D01*
X173657557Y-115953497D01*
X173618493Y-116149880D01*
X173618493Y-116350119D01*
X173632706Y-116421571D01*
X173657557Y-116546502D01*
X173734183Y-116731493D01*
X173826889Y-116870238D01*
X173845427Y-116897982D01*
X173845432Y-116897988D01*
X173987004Y-117039560D01*
X173987010Y-117039565D01*
X173987012Y-117039567D01*
X174153500Y-117150810D01*
X174201256Y-117170591D01*
X174256537Y-117215139D01*
X174278958Y-117282503D01*
X174261400Y-117351294D01*
X174209438Y-117399672D01*
X174153038Y-117413000D01*
X172576948Y-117413000D01*
X172508827Y-117392998D01*
X172462334Y-117339342D01*
X172452230Y-117269068D01*
X172481724Y-117204488D01*
X172528729Y-117170591D01*
X172576486Y-117150810D01*
X172742974Y-117039567D01*
X172884560Y-116897981D01*
X172995803Y-116731493D01*
X173072429Y-116546502D01*
X173111493Y-116350116D01*
X173111493Y-116149884D01*
X173072429Y-115953498D01*
X172995803Y-115768507D01*
X172884560Y-115602019D01*
X172884558Y-115602017D01*
X172884553Y-115602011D01*
X172742981Y-115460439D01*
X172742977Y-115460436D01*
X172742974Y-115460433D01*
X172616449Y-115375892D01*
X172575656Y-115348635D01*
X172530128Y-115294158D01*
X172521280Y-115223715D01*
X172551922Y-115159671D01*
X172556544Y-115154794D01*
X174060405Y-113650934D01*
X174122717Y-113616908D01*
X174193533Y-113621973D01*
G37*
%TD.AperFunction*%
%TA.AperFunction,Conductor*%
G36*
X175819092Y-98794502D02*
G01*
X175840061Y-98811400D01*
X176112332Y-99083671D01*
X176112333Y-99083672D01*
X176112335Y-99083673D01*
X176193166Y-99130340D01*
X176193168Y-99130341D01*
X176283329Y-99154500D01*
X176376671Y-99154500D01*
X178577397Y-99154500D01*
X178645518Y-99174502D01*
X178692011Y-99228158D01*
X178693802Y-99232271D01*
X178714190Y-99281493D01*
X178765471Y-99358240D01*
X178825434Y-99447982D01*
X178825439Y-99447988D01*
X178967011Y-99589560D01*
X178967017Y-99589565D01*
X178967019Y-99589567D01*
X179133507Y-99700810D01*
X179318498Y-99777436D01*
X179514884Y-99816500D01*
X179715116Y-99816500D01*
X179911502Y-99777436D01*
X180096493Y-99700810D01*
X180262981Y-99589567D01*
X180262988Y-99589560D01*
X180269405Y-99583144D01*
X180331717Y-99549118D01*
X180402532Y-99554183D01*
X180459368Y-99596730D01*
X180484179Y-99663250D01*
X180484500Y-99672239D01*
X180484500Y-100329463D01*
X180464498Y-100397584D01*
X180410842Y-100444077D01*
X180340568Y-100454181D01*
X180299109Y-100440588D01*
X180296494Y-100439190D01*
X180111505Y-100362565D01*
X180111502Y-100362564D01*
X179915119Y-100323500D01*
X179915116Y-100323500D01*
X179714884Y-100323500D01*
X179714880Y-100323500D01*
X179518497Y-100362564D01*
X179518494Y-100362565D01*
X179333507Y-100439190D01*
X179167017Y-100550434D01*
X179167011Y-100550439D01*
X179025439Y-100692011D01*
X179025434Y-100692017D01*
X178914190Y-100858507D01*
X178837565Y-101043494D01*
X178837564Y-101043497D01*
X178798500Y-101239880D01*
X178798500Y-101440119D01*
X178837564Y-101636502D01*
X178837565Y-101636505D01*
X178844615Y-101653525D01*
X178914190Y-101821493D01*
X179021601Y-101982246D01*
X179025434Y-101987982D01*
X179025439Y-101987988D01*
X179167011Y-102129560D01*
X179167017Y-102129565D01*
X179167019Y-102129567D01*
X179333507Y-102240810D01*
X179518498Y-102317436D01*
X179714884Y-102356500D01*
X179915116Y-102356500D01*
X180111502Y-102317436D01*
X180296493Y-102240810D01*
X180296496Y-102240807D01*
X180299099Y-102239417D01*
X180300620Y-102239100D01*
X180302212Y-102238441D01*
X180302336Y-102238742D01*
X180368604Y-102224942D01*
X180434901Y-102250342D01*
X180476942Y-102307553D01*
X180484500Y-102350536D01*
X180484500Y-103007761D01*
X180464498Y-103075882D01*
X180410842Y-103122375D01*
X180340568Y-103132479D01*
X180275988Y-103102985D01*
X180269405Y-103096856D01*
X180262988Y-103090439D01*
X180262982Y-103090434D01*
X180262981Y-103090433D01*
X180096493Y-102979190D01*
X179979839Y-102930870D01*
X179911505Y-102902565D01*
X179911502Y-102902564D01*
X179715119Y-102863500D01*
X179715116Y-102863500D01*
X179514884Y-102863500D01*
X179514880Y-102863500D01*
X179318497Y-102902564D01*
X179318494Y-102902565D01*
X179133507Y-102979190D01*
X178967017Y-103090434D01*
X178967011Y-103090439D01*
X178825439Y-103232011D01*
X178825434Y-103232017D01*
X178714190Y-103398507D01*
X178637565Y-103583494D01*
X178637564Y-103583497D01*
X178598500Y-103779880D01*
X178598500Y-103980119D01*
X178626605Y-104121407D01*
X178637564Y-104176502D01*
X178714190Y-104361493D01*
X178746445Y-104409766D01*
X178825434Y-104527982D01*
X178825439Y-104527988D01*
X178967011Y-104669560D01*
X178967017Y-104669565D01*
X178967019Y-104669567D01*
X179133507Y-104780810D01*
X179318498Y-104857436D01*
X179514884Y-104896500D01*
X179715116Y-104896500D01*
X179911502Y-104857436D01*
X180096493Y-104780810D01*
X180262981Y-104669567D01*
X180262988Y-104669560D01*
X180269405Y-104663144D01*
X180331717Y-104629118D01*
X180402532Y-104634183D01*
X180459368Y-104676730D01*
X180484179Y-104743250D01*
X180484500Y-104752239D01*
X180484500Y-105409463D01*
X180464498Y-105477584D01*
X180410842Y-105524077D01*
X180340568Y-105534181D01*
X180299109Y-105520588D01*
X180296494Y-105519190D01*
X180111505Y-105442565D01*
X180111502Y-105442564D01*
X179915119Y-105403500D01*
X179915116Y-105403500D01*
X179714884Y-105403500D01*
X179714880Y-105403500D01*
X179518497Y-105442564D01*
X179518494Y-105442565D01*
X179333507Y-105519190D01*
X179167017Y-105630434D01*
X179167011Y-105630439D01*
X179025439Y-105772011D01*
X179025434Y-105772017D01*
X178914190Y-105938507D01*
X178837565Y-106123494D01*
X178837564Y-106123497D01*
X178798500Y-106319880D01*
X178798500Y-106520119D01*
X178837564Y-106716502D01*
X178837565Y-106716505D01*
X178851371Y-106749836D01*
X178914190Y-106901493D01*
X179025433Y-107067981D01*
X179025434Y-107067982D01*
X179025439Y-107067988D01*
X179167011Y-107209560D01*
X179167017Y-107209565D01*
X179167019Y-107209567D01*
X179333507Y-107320810D01*
X179518498Y-107397436D01*
X179714884Y-107436500D01*
X179915116Y-107436500D01*
X180111502Y-107397436D01*
X180296493Y-107320810D01*
X180296496Y-107320807D01*
X180299099Y-107319417D01*
X180300620Y-107319100D01*
X180302212Y-107318441D01*
X180302336Y-107318742D01*
X180368604Y-107304942D01*
X180434901Y-107330342D01*
X180476942Y-107387553D01*
X180484500Y-107430536D01*
X180484500Y-108087761D01*
X180464498Y-108155882D01*
X180410842Y-108202375D01*
X180340568Y-108212479D01*
X180275988Y-108182985D01*
X180269405Y-108176856D01*
X180262988Y-108170439D01*
X180262982Y-108170434D01*
X180262981Y-108170433D01*
X180096493Y-108059190D01*
X179968588Y-108006210D01*
X179911505Y-107982565D01*
X179911502Y-107982564D01*
X179715119Y-107943500D01*
X179715116Y-107943500D01*
X179514884Y-107943500D01*
X179514880Y-107943500D01*
X179318497Y-107982564D01*
X179318494Y-107982565D01*
X179133507Y-108059190D01*
X178967017Y-108170434D01*
X178967011Y-108170439D01*
X178825439Y-108312011D01*
X178825434Y-108312017D01*
X178714190Y-108478507D01*
X178637565Y-108663494D01*
X178637564Y-108663497D01*
X178598500Y-108859880D01*
X178598500Y-109060119D01*
X178622266Y-109179596D01*
X178637564Y-109256502D01*
X178714190Y-109441493D01*
X178786802Y-109550165D01*
X178825434Y-109607982D01*
X178825439Y-109607988D01*
X178967011Y-109749560D01*
X178967017Y-109749565D01*
X178967019Y-109749567D01*
X179133507Y-109860810D01*
X179318498Y-109937436D01*
X179514884Y-109976500D01*
X179715116Y-109976500D01*
X179911502Y-109937436D01*
X180096493Y-109860810D01*
X180262981Y-109749567D01*
X180262988Y-109749560D01*
X180269405Y-109743144D01*
X180331717Y-109709118D01*
X180402532Y-109714183D01*
X180459368Y-109756730D01*
X180484179Y-109823250D01*
X180484500Y-109832239D01*
X180484500Y-110489463D01*
X180464498Y-110557584D01*
X180410842Y-110604077D01*
X180340568Y-110614181D01*
X180299109Y-110600588D01*
X180296494Y-110599190D01*
X180111505Y-110522565D01*
X180111502Y-110522564D01*
X179915119Y-110483500D01*
X179915116Y-110483500D01*
X179714884Y-110483500D01*
X179714880Y-110483500D01*
X179518497Y-110522564D01*
X179518494Y-110522565D01*
X179333507Y-110599190D01*
X179167017Y-110710434D01*
X179167011Y-110710439D01*
X179025439Y-110852011D01*
X179025434Y-110852017D01*
X178914190Y-111018507D01*
X178837565Y-111203494D01*
X178837564Y-111203497D01*
X178798500Y-111399880D01*
X178798500Y-111600119D01*
X178837564Y-111796502D01*
X178837565Y-111796505D01*
X178861587Y-111854499D01*
X178914190Y-111981493D01*
X179025433Y-112147981D01*
X179025434Y-112147982D01*
X179025439Y-112147988D01*
X179167011Y-112289560D01*
X179167017Y-112289565D01*
X179167019Y-112289567D01*
X179333507Y-112400810D01*
X179518498Y-112477436D01*
X179714884Y-112516500D01*
X179915116Y-112516500D01*
X180111502Y-112477436D01*
X180296493Y-112400810D01*
X180296496Y-112400807D01*
X180299099Y-112399417D01*
X180300620Y-112399100D01*
X180302212Y-112398441D01*
X180302336Y-112398742D01*
X180368604Y-112384942D01*
X180434901Y-112410342D01*
X180476942Y-112467553D01*
X180484500Y-112510536D01*
X180484500Y-112941950D01*
X180464498Y-113010071D01*
X180410842Y-113056564D01*
X180340568Y-113066668D01*
X180314467Y-113060005D01*
X180235238Y-113030453D01*
X180235230Y-113030451D01*
X180175222Y-113024000D01*
X179742000Y-113024000D01*
X179742000Y-113613849D01*
X179673520Y-113595500D01*
X179556480Y-113595500D01*
X179488000Y-113613849D01*
X179488000Y-113024000D01*
X179054797Y-113024000D01*
X179054773Y-113024002D01*
X178994767Y-113030452D01*
X178994765Y-113030452D01*
X178858976Y-113081100D01*
X178742952Y-113167952D01*
X178656100Y-113283976D01*
X178605453Y-113419761D01*
X178605451Y-113419769D01*
X178599000Y-113479777D01*
X178599000Y-113913000D01*
X179188849Y-113913000D01*
X179170500Y-113981480D01*
X179170500Y-114098520D01*
X179188849Y-114167000D01*
X178599001Y-114167000D01*
X178599001Y-114600202D01*
X178599002Y-114600226D01*
X178605452Y-114660232D01*
X178605452Y-114660234D01*
X178656100Y-114796023D01*
X178742952Y-114912047D01*
X178858976Y-114998899D01*
X178858975Y-114998899D01*
X178994761Y-115049546D01*
X178994769Y-115049548D01*
X179054785Y-115055999D01*
X179488000Y-115055999D01*
X179488000Y-114466150D01*
X179556480Y-114484500D01*
X179673520Y-114484500D01*
X179742000Y-114466150D01*
X179742000Y-115055999D01*
X180175203Y-115055999D01*
X180175226Y-115055997D01*
X180235231Y-115049547D01*
X180314466Y-115019994D01*
X180385282Y-115014928D01*
X180447594Y-115048953D01*
X180481620Y-115111264D01*
X180484500Y-115138049D01*
X180484500Y-117287000D01*
X180464498Y-117355121D01*
X180410842Y-117401614D01*
X180358500Y-117413000D01*
X177953732Y-117413000D01*
X177885611Y-117392998D01*
X177839118Y-117339342D01*
X177829014Y-117269068D01*
X177858508Y-117204488D01*
X177864637Y-117197905D01*
X177964553Y-117097988D01*
X177964560Y-117097981D01*
X178075803Y-116931493D01*
X178152429Y-116746502D01*
X178191493Y-116550116D01*
X178191493Y-116349884D01*
X178152429Y-116153498D01*
X178075803Y-115968507D01*
X177964560Y-115802019D01*
X177964558Y-115802017D01*
X177964553Y-115802011D01*
X177822981Y-115660439D01*
X177822975Y-115660434D01*
X177822974Y-115660433D01*
X177656486Y-115549190D01*
X177520706Y-115492948D01*
X177471498Y-115472565D01*
X177471495Y-115472564D01*
X177275112Y-115433500D01*
X177275109Y-115433500D01*
X177074877Y-115433500D01*
X177074873Y-115433500D01*
X176878490Y-115472564D01*
X176878487Y-115472565D01*
X176693500Y-115549190D01*
X176527010Y-115660434D01*
X176527004Y-115660439D01*
X176385432Y-115802011D01*
X176385427Y-115802017D01*
X176274183Y-115968507D01*
X176197558Y-116153494D01*
X176197557Y-116153497D01*
X176158493Y-116349880D01*
X176158493Y-116550119D01*
X176187213Y-116694500D01*
X176197557Y-116746502D01*
X176274183Y-116931493D01*
X176370024Y-117074930D01*
X176385427Y-117097982D01*
X176385432Y-117097988D01*
X176485349Y-117197905D01*
X176519375Y-117260217D01*
X176514310Y-117331032D01*
X176471763Y-117387868D01*
X176405243Y-117412679D01*
X176396254Y-117413000D01*
X175116948Y-117413000D01*
X175048827Y-117392998D01*
X175002334Y-117339342D01*
X174992230Y-117269068D01*
X175021724Y-117204488D01*
X175068729Y-117170591D01*
X175116486Y-117150810D01*
X175282974Y-117039567D01*
X175424560Y-116897981D01*
X175535803Y-116731493D01*
X175612429Y-116546502D01*
X175651493Y-116350116D01*
X175651493Y-116149884D01*
X175612429Y-115953498D01*
X175535803Y-115768507D01*
X175424560Y-115602019D01*
X175424558Y-115602017D01*
X175424553Y-115602011D01*
X175282981Y-115460439D01*
X175282975Y-115460434D01*
X175282974Y-115460433D01*
X175116486Y-115349190D01*
X175116484Y-115349189D01*
X175062280Y-115326736D01*
X175007000Y-115282187D01*
X174984580Y-115214823D01*
X174984500Y-115210328D01*
X174984500Y-113346129D01*
X175004502Y-113278008D01*
X175021405Y-113257034D01*
X178144665Y-110133774D01*
X178144671Y-110133768D01*
X178191341Y-110052932D01*
X178215500Y-109962771D01*
X178215500Y-109869429D01*
X178215500Y-106217229D01*
X178191341Y-106127068D01*
X178189278Y-106123494D01*
X178144673Y-106046235D01*
X178144669Y-106046230D01*
X178118844Y-106020405D01*
X178078668Y-105980229D01*
X177265110Y-105166671D01*
X176443774Y-104345334D01*
X176443764Y-104345326D01*
X176362933Y-104298659D01*
X176272774Y-104274500D01*
X176272771Y-104274500D01*
X175786133Y-104274500D01*
X175756217Y-104265716D01*
X175725748Y-104259088D01*
X175720652Y-104255273D01*
X175718012Y-104254498D01*
X175697038Y-104237595D01*
X175664130Y-104204687D01*
X175631519Y-104148204D01*
X175604527Y-104047465D01*
X175583846Y-104011645D01*
X175544693Y-103943829D01*
X175544685Y-103943819D01*
X175460076Y-103859210D01*
X175460066Y-103859202D01*
X175356435Y-103799370D01*
X175326499Y-103791349D01*
X175240836Y-103768396D01*
X175161500Y-103768396D01*
X175093379Y-103748394D01*
X175046886Y-103694738D01*
X175035500Y-103642396D01*
X175035500Y-101597229D01*
X175035499Y-101597225D01*
X175011340Y-101507066D01*
X174964673Y-101426235D01*
X174964669Y-101426230D01*
X174943870Y-101405431D01*
X174898668Y-101360229D01*
X174034768Y-100496329D01*
X174034766Y-100496328D01*
X174034764Y-100496326D01*
X173953933Y-100449659D01*
X173863774Y-100425500D01*
X173863771Y-100425500D01*
X173439029Y-100425500D01*
X173409113Y-100416716D01*
X173378644Y-100410088D01*
X173373548Y-100406273D01*
X173370908Y-100405498D01*
X173349934Y-100388595D01*
X173276724Y-100315385D01*
X173242698Y-100253073D01*
X173239819Y-100226290D01*
X173239819Y-99372402D01*
X173256700Y-99309402D01*
X173308844Y-99219086D01*
X173308844Y-99219085D01*
X173308846Y-99219082D01*
X173339819Y-99103487D01*
X173339819Y-98983815D01*
X173326233Y-98933110D01*
X173327923Y-98862134D01*
X173367718Y-98803338D01*
X173432982Y-98775391D01*
X173447940Y-98774500D01*
X175750971Y-98774500D01*
X175819092Y-98794502D01*
G37*
%TD.AperFunction*%
%TA.AperFunction,Conductor*%
G36*
X172921847Y-100991438D02*
G01*
X172936535Y-100992740D01*
X172967714Y-101010460D01*
X172973980Y-101015319D01*
X173022332Y-101063671D01*
X173077117Y-101095300D01*
X173083899Y-101100560D01*
X173099863Y-101122660D01*
X173118678Y-101142392D01*
X173120337Y-101151003D01*
X173125473Y-101158112D01*
X173126954Y-101185333D01*
X173132115Y-101212105D01*
X173128855Y-101220247D01*
X173129332Y-101229003D01*
X173128392Y-101232739D01*
X173121666Y-101257843D01*
X173095500Y-101355497D01*
X173095500Y-101475169D01*
X173122815Y-101577113D01*
X173126474Y-101590768D01*
X173186306Y-101694399D01*
X173186314Y-101694409D01*
X173270923Y-101779018D01*
X173270928Y-101779022D01*
X173270930Y-101779024D01*
X173270931Y-101779025D01*
X173270933Y-101779026D01*
X173374564Y-101838858D01*
X173374566Y-101838858D01*
X173374569Y-101838860D01*
X173490164Y-101869833D01*
X173490166Y-101869833D01*
X173609833Y-101869833D01*
X173609836Y-101869833D01*
X173719910Y-101840339D01*
X173732100Y-101840629D01*
X173743528Y-101836367D01*
X173766935Y-101841458D01*
X173790882Y-101842029D01*
X173802715Y-101849242D01*
X173812902Y-101851458D01*
X173841612Y-101872951D01*
X173888595Y-101919934D01*
X173922621Y-101982246D01*
X173925500Y-102009029D01*
X173925500Y-104716674D01*
X173949659Y-104806833D01*
X173996326Y-104887664D01*
X173996328Y-104887666D01*
X173996329Y-104887668D01*
X174365494Y-105256833D01*
X174706869Y-105598207D01*
X174739480Y-105654690D01*
X174760507Y-105733166D01*
X174766474Y-105755435D01*
X174826306Y-105859066D01*
X174826314Y-105859076D01*
X174910923Y-105943685D01*
X174910928Y-105943689D01*
X174910930Y-105943691D01*
X174910931Y-105943692D01*
X174910933Y-105943693D01*
X175014564Y-106003525D01*
X175014566Y-106003525D01*
X175014569Y-106003527D01*
X175130164Y-106034500D01*
X175130166Y-106034500D01*
X175249834Y-106034500D01*
X175249836Y-106034500D01*
X175365431Y-106003527D01*
X175365434Y-106003525D01*
X175365435Y-106003525D01*
X175417250Y-105973609D01*
X175469070Y-105943691D01*
X175553691Y-105859070D01*
X175613527Y-105755431D01*
X175644500Y-105639836D01*
X175644500Y-105520164D01*
X175644500Y-105511906D01*
X175647737Y-105511906D01*
X175648070Y-105509769D01*
X175645597Y-105492568D01*
X175653429Y-105475417D01*
X175656336Y-105456789D01*
X175667873Y-105443792D01*
X175675091Y-105427988D01*
X175690949Y-105417796D01*
X175703468Y-105403694D01*
X175720504Y-105398802D01*
X175734817Y-105389604D01*
X175770315Y-105384500D01*
X175860971Y-105384500D01*
X175929092Y-105404502D01*
X175950066Y-105421405D01*
X176549066Y-106020405D01*
X176583092Y-106082717D01*
X176578027Y-106153532D01*
X176535480Y-106210368D01*
X176468960Y-106235179D01*
X176460237Y-106235490D01*
X176460165Y-106235499D01*
X176344564Y-106266474D01*
X176240933Y-106326306D01*
X176240923Y-106326314D01*
X176156314Y-106410923D01*
X176156306Y-106410933D01*
X176096474Y-106514564D01*
X176094986Y-106520119D01*
X176065500Y-106630164D01*
X176065500Y-106749836D01*
X176079566Y-106802332D01*
X176096474Y-106865435D01*
X176156306Y-106969066D01*
X176156307Y-106969067D01*
X176156309Y-106969070D01*
X176157117Y-106969878D01*
X176157580Y-106970726D01*
X176161337Y-106975622D01*
X176160573Y-106976207D01*
X176191145Y-107032186D01*
X176191920Y-107036031D01*
X176194027Y-107047406D01*
X176194027Y-107126671D01*
X176218186Y-107216832D01*
X176228819Y-107235249D01*
X176232764Y-107256547D01*
X176231258Y-107271188D01*
X176234728Y-107285490D01*
X176227700Y-107305793D01*
X176225503Y-107327171D01*
X176216320Y-107338674D01*
X176211507Y-107352582D01*
X176194617Y-107365864D01*
X176181212Y-107382658D01*
X176167269Y-107387370D01*
X176155700Y-107396469D01*
X176119986Y-107403351D01*
X176113953Y-107405391D01*
X176111974Y-107404895D01*
X176108871Y-107405494D01*
X175514412Y-107405494D01*
X175514396Y-107405493D01*
X175506678Y-107405493D01*
X175413335Y-107405493D01*
X175413331Y-107405493D01*
X175323178Y-107429650D01*
X175242339Y-107476322D01*
X175242331Y-107476328D01*
X171262066Y-111456595D01*
X171199754Y-111490621D01*
X171172971Y-111493500D01*
X167817029Y-111493500D01*
X167748908Y-111473498D01*
X167727934Y-111456595D01*
X167163130Y-110891791D01*
X167158205Y-110884371D01*
X167153636Y-110881158D01*
X167145940Y-110865895D01*
X167135525Y-110850204D01*
X167132557Y-110842914D01*
X167103527Y-110734569D01*
X167052401Y-110646016D01*
X167049141Y-110638008D01*
X167046398Y-110610944D01*
X167039984Y-110584505D01*
X167042872Y-110576159D01*
X167041982Y-110567373D01*
X167054306Y-110543122D01*
X167063204Y-110517413D01*
X167070146Y-110511953D01*
X167074147Y-110504081D01*
X167097627Y-110490341D01*
X167119011Y-110473526D01*
X167129980Y-110471411D01*
X167135425Y-110468226D01*
X167144532Y-110468606D01*
X167165841Y-110464500D01*
X171426671Y-110464500D01*
X171516832Y-110440341D01*
X171597668Y-110393671D01*
X173103671Y-108887668D01*
X173150342Y-108806831D01*
X173174501Y-108716671D01*
X173174501Y-108623328D01*
X173174501Y-108615611D01*
X173174500Y-108615593D01*
X173174500Y-103843329D01*
X173174499Y-103843325D01*
X173162638Y-103799061D01*
X173150341Y-103753168D01*
X173103671Y-103672332D01*
X173103669Y-103672330D01*
X173103665Y-103672325D01*
X173033284Y-103601944D01*
X173033261Y-103601923D01*
X172811404Y-103380065D01*
X172796456Y-103352690D01*
X172779604Y-103326468D01*
X172778698Y-103320169D01*
X172777379Y-103317753D01*
X172774500Y-103290970D01*
X172774500Y-103055668D01*
X172791381Y-102992668D01*
X172841745Y-102905435D01*
X172841745Y-102905434D01*
X172841747Y-102905431D01*
X172872720Y-102789836D01*
X172872720Y-102670164D01*
X172841747Y-102554569D01*
X172841745Y-102554566D01*
X172841745Y-102554564D01*
X172781913Y-102450933D01*
X172781905Y-102450923D01*
X172738633Y-102407651D01*
X172704607Y-102345339D01*
X172709672Y-102274524D01*
X172738632Y-102229461D01*
X172773691Y-102194403D01*
X172817508Y-102118510D01*
X172833525Y-102090768D01*
X172833525Y-102090767D01*
X172833527Y-102090764D01*
X172864500Y-101975169D01*
X172864500Y-101855497D01*
X172833527Y-101739902D01*
X172833525Y-101739899D01*
X172833525Y-101739897D01*
X172781381Y-101649581D01*
X172764500Y-101586581D01*
X172764500Y-101110029D01*
X172768654Y-101095879D01*
X172767853Y-101081155D01*
X172778456Y-101062498D01*
X172784502Y-101041908D01*
X172795646Y-101032251D01*
X172802933Y-101019430D01*
X172821940Y-101009467D01*
X172838158Y-100995415D01*
X172852756Y-100993316D01*
X172865816Y-100986471D01*
X172887187Y-100988365D01*
X172908432Y-100985311D01*
X172921847Y-100991438D01*
G37*
%TD.AperFunction*%
%TA.AperFunction,Conductor*%
G36*
X165269092Y-88404502D02*
G01*
X165290066Y-88421405D01*
X165855595Y-88986934D01*
X165889621Y-89049246D01*
X165892500Y-89076029D01*
X165892500Y-97851568D01*
X165916659Y-97941727D01*
X165963326Y-98022558D01*
X165963334Y-98022568D01*
X167348435Y-99407668D01*
X167414438Y-99473671D01*
X167495274Y-99520341D01*
X167585435Y-99544500D01*
X170460971Y-99544500D01*
X170529092Y-99564502D01*
X170550066Y-99581405D01*
X171087595Y-100118934D01*
X171121621Y-100181246D01*
X171124500Y-100208029D01*
X171124500Y-104214752D01*
X171148659Y-104304911D01*
X171195326Y-104385742D01*
X171195331Y-104385748D01*
X171396673Y-104587089D01*
X171429284Y-104643572D01*
X171448871Y-104716674D01*
X171456278Y-104744317D01*
X171516110Y-104847948D01*
X171516118Y-104847958D01*
X171600727Y-104932567D01*
X171600732Y-104932571D01*
X171600734Y-104932573D01*
X171600735Y-104932574D01*
X171600737Y-104932575D01*
X171704368Y-104992407D01*
X171704370Y-104992407D01*
X171704373Y-104992409D01*
X171819968Y-105023382D01*
X171819970Y-105023382D01*
X171939638Y-105023382D01*
X171939640Y-105023382D01*
X172055235Y-104992409D01*
X172055238Y-104992407D01*
X172055239Y-104992407D01*
X172107054Y-104962491D01*
X172158874Y-104932573D01*
X172203783Y-104887664D01*
X172249335Y-104842113D01*
X172251558Y-104844336D01*
X172296853Y-104811250D01*
X172367723Y-104807015D01*
X172429633Y-104841767D01*
X172462926Y-104904473D01*
X172465500Y-104929813D01*
X172465500Y-108470971D01*
X172445498Y-108539092D01*
X172428595Y-108560066D01*
X171270066Y-109718595D01*
X171207754Y-109752621D01*
X171180971Y-109755500D01*
X170550500Y-109755500D01*
X170482379Y-109735498D01*
X170435886Y-109681842D01*
X170424500Y-109629500D01*
X170424500Y-109550165D01*
X170424500Y-109550164D01*
X170393527Y-109434569D01*
X170393525Y-109434566D01*
X170393525Y-109434564D01*
X170333693Y-109330933D01*
X170333685Y-109330923D01*
X170249076Y-109246314D01*
X170249066Y-109246306D01*
X170145435Y-109186474D01*
X170119765Y-109179596D01*
X170029836Y-109155500D01*
X169910164Y-109155500D01*
X169844807Y-109173012D01*
X169794564Y-109186474D01*
X169704249Y-109238619D01*
X169688509Y-109242836D01*
X169676747Y-109250396D01*
X169641249Y-109255500D01*
X169509029Y-109255500D01*
X169440908Y-109235498D01*
X169419938Y-109218599D01*
X169027668Y-108826329D01*
X169027667Y-108826328D01*
X169026984Y-108825804D01*
X169026553Y-108825214D01*
X169021828Y-108820489D01*
X169022564Y-108819752D01*
X168985116Y-108768467D01*
X168980894Y-108697596D01*
X169014590Y-108636747D01*
X169343671Y-108307668D01*
X169390341Y-108226832D01*
X169414500Y-108136671D01*
X169414500Y-108043329D01*
X169414500Y-107219029D01*
X169423283Y-107189113D01*
X169429912Y-107158644D01*
X169433726Y-107153548D01*
X169434502Y-107150908D01*
X169451405Y-107129934D01*
X169529934Y-107051405D01*
X169592246Y-107017379D01*
X169619029Y-107014500D01*
X171056671Y-107014500D01*
X171146832Y-106990341D01*
X171227668Y-106943671D01*
X171593671Y-106577668D01*
X171640341Y-106496832D01*
X171664500Y-106406671D01*
X171664500Y-106313329D01*
X171664500Y-105823329D01*
X171640341Y-105733168D01*
X171593671Y-105652332D01*
X171527668Y-105586329D01*
X171270668Y-105329329D01*
X171270666Y-105329328D01*
X171270664Y-105329326D01*
X171189833Y-105282659D01*
X171099674Y-105258500D01*
X171099671Y-105258500D01*
X165282029Y-105258500D01*
X165213908Y-105238498D01*
X165192934Y-105221595D01*
X164981405Y-105010066D01*
X164947379Y-104947754D01*
X164944500Y-104920971D01*
X164944500Y-104316488D01*
X168618116Y-104316488D01*
X168644061Y-104331467D01*
X168746814Y-104359000D01*
X168853186Y-104359000D01*
X168955939Y-104331467D01*
X168955944Y-104331465D01*
X168981882Y-104316488D01*
X168981883Y-104316487D01*
X168800001Y-104134605D01*
X168800000Y-104134605D01*
X168618116Y-104316488D01*
X164944500Y-104316488D01*
X164944500Y-103901814D01*
X168396000Y-103901814D01*
X168396000Y-104008185D01*
X168423533Y-104110940D01*
X168438511Y-104136883D01*
X168620394Y-103955001D01*
X168620394Y-103954999D01*
X168600504Y-103935109D01*
X168700000Y-103935109D01*
X168700000Y-103974891D01*
X168715224Y-104011645D01*
X168743355Y-104039776D01*
X168780109Y-104055000D01*
X168819891Y-104055000D01*
X168856645Y-104039776D01*
X168884776Y-104011645D01*
X168900000Y-103974891D01*
X168900000Y-103954999D01*
X168979605Y-103954999D01*
X168979605Y-103955001D01*
X169161487Y-104136883D01*
X169161488Y-104136882D01*
X169176465Y-104110944D01*
X169176467Y-104110939D01*
X169204000Y-104008186D01*
X169204000Y-103901813D01*
X169176467Y-103799061D01*
X169161488Y-103773116D01*
X168979605Y-103954999D01*
X168900000Y-103954999D01*
X168900000Y-103935109D01*
X168884776Y-103898355D01*
X168856645Y-103870224D01*
X168819891Y-103855000D01*
X168780109Y-103855000D01*
X168743355Y-103870224D01*
X168715224Y-103898355D01*
X168700000Y-103935109D01*
X168600504Y-103935109D01*
X168438510Y-103773115D01*
X168423534Y-103799057D01*
X168423533Y-103799059D01*
X168396000Y-103901814D01*
X164944500Y-103901814D01*
X164944500Y-103593510D01*
X168618115Y-103593510D01*
X168800000Y-103775394D01*
X168800001Y-103775394D01*
X168981883Y-103593511D01*
X168955940Y-103578533D01*
X168853185Y-103551000D01*
X168746815Y-103551000D01*
X168644059Y-103578533D01*
X168644057Y-103578534D01*
X168618115Y-103593510D01*
X164944500Y-103593510D01*
X164944500Y-102841488D01*
X167143116Y-102841488D01*
X167169061Y-102856467D01*
X167271814Y-102884000D01*
X167378186Y-102884000D01*
X167480939Y-102856467D01*
X167480944Y-102856465D01*
X167506882Y-102841488D01*
X168618116Y-102841488D01*
X168644061Y-102856467D01*
X168746814Y-102884000D01*
X168853186Y-102884000D01*
X168955939Y-102856467D01*
X168955944Y-102856465D01*
X168981882Y-102841488D01*
X170093116Y-102841488D01*
X170119061Y-102856467D01*
X170221814Y-102884000D01*
X170328186Y-102884000D01*
X170430939Y-102856467D01*
X170430944Y-102856465D01*
X170456882Y-102841488D01*
X170456883Y-102841487D01*
X170275001Y-102659605D01*
X170275000Y-102659605D01*
X170093116Y-102841488D01*
X168981882Y-102841488D01*
X168981883Y-102841487D01*
X168800001Y-102659605D01*
X168800000Y-102659605D01*
X168618116Y-102841488D01*
X167506882Y-102841488D01*
X167506883Y-102841487D01*
X167325001Y-102659605D01*
X167325000Y-102659605D01*
X167143116Y-102841488D01*
X164944500Y-102841488D01*
X164944500Y-102718751D01*
X164961381Y-102655751D01*
X165013525Y-102565435D01*
X165013525Y-102565434D01*
X165013527Y-102565431D01*
X165044500Y-102449836D01*
X165044500Y-102426814D01*
X166921000Y-102426814D01*
X166921000Y-102533185D01*
X166948533Y-102635940D01*
X166963511Y-102661883D01*
X167145394Y-102480001D01*
X167145394Y-102479999D01*
X167125504Y-102460109D01*
X167225000Y-102460109D01*
X167225000Y-102499891D01*
X167240224Y-102536645D01*
X167268355Y-102564776D01*
X167305109Y-102580000D01*
X167344891Y-102580000D01*
X167381645Y-102564776D01*
X167409776Y-102536645D01*
X167425000Y-102499891D01*
X167425000Y-102479999D01*
X167504605Y-102479999D01*
X167504605Y-102480001D01*
X167686487Y-102661883D01*
X167686488Y-102661882D01*
X167701465Y-102635944D01*
X167701467Y-102635939D01*
X167729000Y-102533186D01*
X167729000Y-102426814D01*
X168396000Y-102426814D01*
X168396000Y-102533185D01*
X168423533Y-102635940D01*
X168438511Y-102661883D01*
X168620394Y-102480001D01*
X168620394Y-102479999D01*
X168600504Y-102460109D01*
X168700000Y-102460109D01*
X168700000Y-102499891D01*
X168715224Y-102536645D01*
X168743355Y-102564776D01*
X168780109Y-102580000D01*
X168819891Y-102580000D01*
X168856645Y-102564776D01*
X168884776Y-102536645D01*
X168900000Y-102499891D01*
X168900000Y-102479999D01*
X168979605Y-102479999D01*
X168979605Y-102480001D01*
X169161487Y-102661883D01*
X169161488Y-102661882D01*
X169176465Y-102635944D01*
X169176467Y-102635939D01*
X169204000Y-102533186D01*
X169204000Y-102426814D01*
X169871000Y-102426814D01*
X169871000Y-102533185D01*
X169898533Y-102635940D01*
X169913511Y-102661883D01*
X170095394Y-102480001D01*
X170095394Y-102479999D01*
X170075504Y-102460109D01*
X170175000Y-102460109D01*
X170175000Y-102499891D01*
X170190224Y-102536645D01*
X170218355Y-102564776D01*
X170255109Y-102580000D01*
X170294891Y-102580000D01*
X170331645Y-102564776D01*
X170359776Y-102536645D01*
X170375000Y-102499891D01*
X170375000Y-102479999D01*
X170454605Y-102479999D01*
X170454605Y-102480001D01*
X170636487Y-102661883D01*
X170636488Y-102661882D01*
X170651465Y-102635944D01*
X170651467Y-102635939D01*
X170679000Y-102533186D01*
X170679000Y-102426813D01*
X170651467Y-102324061D01*
X170636488Y-102298116D01*
X170454605Y-102479999D01*
X170375000Y-102479999D01*
X170375000Y-102460109D01*
X170359776Y-102423355D01*
X170331645Y-102395224D01*
X170294891Y-102380000D01*
X170255109Y-102380000D01*
X170218355Y-102395224D01*
X170190224Y-102423355D01*
X170175000Y-102460109D01*
X170075504Y-102460109D01*
X169913510Y-102298115D01*
X169898534Y-102324057D01*
X169898533Y-102324059D01*
X169871000Y-102426814D01*
X169204000Y-102426814D01*
X169204000Y-102426813D01*
X169176467Y-102324061D01*
X169161488Y-102298116D01*
X168979605Y-102479999D01*
X168900000Y-102479999D01*
X168900000Y-102460109D01*
X168884776Y-102423355D01*
X168856645Y-102395224D01*
X168819891Y-102380000D01*
X168780109Y-102380000D01*
X168743355Y-102395224D01*
X168715224Y-102423355D01*
X168700000Y-102460109D01*
X168600504Y-102460109D01*
X168438510Y-102298115D01*
X168423534Y-102324057D01*
X168423533Y-102324059D01*
X168396000Y-102426814D01*
X167729000Y-102426814D01*
X167729000Y-102426813D01*
X167701467Y-102324061D01*
X167686488Y-102298116D01*
X167504605Y-102479999D01*
X167425000Y-102479999D01*
X167425000Y-102460109D01*
X167409776Y-102423355D01*
X167381645Y-102395224D01*
X167344891Y-102380000D01*
X167305109Y-102380000D01*
X167268355Y-102395224D01*
X167240224Y-102423355D01*
X167225000Y-102460109D01*
X167125504Y-102460109D01*
X166963510Y-102298115D01*
X166948534Y-102324057D01*
X166948533Y-102324059D01*
X166921000Y-102426814D01*
X165044500Y-102426814D01*
X165044500Y-102330164D01*
X165013527Y-102214569D01*
X165013525Y-102214566D01*
X165013525Y-102214564D01*
X164958068Y-102118510D01*
X167143115Y-102118510D01*
X167325000Y-102300394D01*
X167325001Y-102300394D01*
X167506883Y-102118511D01*
X167506881Y-102118510D01*
X168618115Y-102118510D01*
X168800000Y-102300394D01*
X168800001Y-102300394D01*
X168981883Y-102118511D01*
X168981881Y-102118510D01*
X170093115Y-102118510D01*
X170275000Y-102300394D01*
X170275001Y-102300394D01*
X170456883Y-102118511D01*
X170430940Y-102103533D01*
X170328185Y-102076000D01*
X170221815Y-102076000D01*
X170119059Y-102103533D01*
X170119057Y-102103534D01*
X170093115Y-102118510D01*
X168981881Y-102118510D01*
X168955940Y-102103533D01*
X168853185Y-102076000D01*
X168746815Y-102076000D01*
X168644059Y-102103533D01*
X168644057Y-102103534D01*
X168618115Y-102118510D01*
X167506881Y-102118510D01*
X167480940Y-102103533D01*
X167378185Y-102076000D01*
X167271815Y-102076000D01*
X167169059Y-102103533D01*
X167169057Y-102103534D01*
X167143115Y-102118510D01*
X164958068Y-102118510D01*
X164953693Y-102110933D01*
X164953685Y-102110923D01*
X164869076Y-102026314D01*
X164869066Y-102026306D01*
X164765435Y-101966474D01*
X164751780Y-101962815D01*
X164649836Y-101935500D01*
X164530164Y-101935500D01*
X164459415Y-101954456D01*
X164414564Y-101966474D01*
X164310933Y-102026306D01*
X164310923Y-102026314D01*
X164226314Y-102110923D01*
X164226306Y-102110933D01*
X164166474Y-102214564D01*
X164159996Y-102238742D01*
X164135500Y-102330164D01*
X164135500Y-102449836D01*
X164135794Y-102450933D01*
X164166474Y-102565435D01*
X164218619Y-102655751D01*
X164235500Y-102718751D01*
X164235500Y-105166674D01*
X164259659Y-105256833D01*
X164306326Y-105337664D01*
X164306328Y-105337666D01*
X164306329Y-105337668D01*
X164519067Y-105550406D01*
X164553091Y-105612716D01*
X164548027Y-105683532D01*
X164505480Y-105740368D01*
X164438960Y-105765179D01*
X164429971Y-105765500D01*
X163650329Y-105765500D01*
X163582208Y-105745498D01*
X163561234Y-105728595D01*
X162242405Y-104409766D01*
X162208379Y-104347454D01*
X162205500Y-104320671D01*
X162205500Y-97544329D01*
X162205499Y-97544325D01*
X162194844Y-97504561D01*
X162181341Y-97454168D01*
X162181340Y-97454166D01*
X162134673Y-97373335D01*
X162134669Y-97373330D01*
X162109606Y-97348267D01*
X162068668Y-97307329D01*
X160135520Y-95374181D01*
X158197674Y-93436334D01*
X158197664Y-93436326D01*
X158116833Y-93389659D01*
X158026674Y-93365500D01*
X158026671Y-93365500D01*
X157992603Y-93365500D01*
X157924482Y-93345498D01*
X157877989Y-93291842D01*
X157876194Y-93287719D01*
X157855810Y-93238507D01*
X157744567Y-93072019D01*
X157744565Y-93072017D01*
X157744560Y-93072011D01*
X157602988Y-92930439D01*
X157602982Y-92930434D01*
X157602981Y-92930433D01*
X157436493Y-92819190D01*
X157319839Y-92770870D01*
X157251505Y-92742565D01*
X157251502Y-92742564D01*
X157055119Y-92703500D01*
X157055116Y-92703500D01*
X156854884Y-92703500D01*
X156854880Y-92703500D01*
X156658497Y-92742564D01*
X156658494Y-92742565D01*
X156473507Y-92819190D01*
X156307017Y-92930434D01*
X156307011Y-92930439D01*
X156300565Y-92936886D01*
X156238253Y-92970912D01*
X156167438Y-92965847D01*
X156110602Y-92923300D01*
X156085791Y-92856780D01*
X156085470Y-92847791D01*
X156085470Y-92190520D01*
X156105472Y-92122399D01*
X156159128Y-92075906D01*
X156229402Y-92065802D01*
X156270871Y-92079401D01*
X156273505Y-92080809D01*
X156273506Y-92080809D01*
X156273507Y-92080810D01*
X156458498Y-92157436D01*
X156654884Y-92196500D01*
X156855116Y-92196500D01*
X157051502Y-92157436D01*
X157236493Y-92080810D01*
X157402981Y-91969567D01*
X157544567Y-91827981D01*
X157655810Y-91661493D01*
X157676194Y-91612280D01*
X157720743Y-91557001D01*
X157788106Y-91534580D01*
X157792603Y-91534500D01*
X159336671Y-91534500D01*
X159426832Y-91510341D01*
X159507668Y-91463671D01*
X159691223Y-91280116D01*
X159911176Y-91060164D01*
X161455500Y-91060164D01*
X161455500Y-91179836D01*
X161482369Y-91280116D01*
X161486474Y-91295435D01*
X161546306Y-91399066D01*
X161546314Y-91399076D01*
X161630923Y-91483685D01*
X161630928Y-91483689D01*
X161630930Y-91483691D01*
X161630931Y-91483692D01*
X161630933Y-91483693D01*
X161734565Y-91543525D01*
X161734569Y-91543527D01*
X161835308Y-91570519D01*
X161849415Y-91578664D01*
X161863081Y-91581637D01*
X161891791Y-91603130D01*
X162058595Y-91769934D01*
X162092621Y-91832246D01*
X162095500Y-91859029D01*
X162095500Y-94415660D01*
X162078619Y-94478660D01*
X162017474Y-94584564D01*
X162007763Y-94620809D01*
X161986500Y-94700164D01*
X161986500Y-94819836D01*
X162001189Y-94874656D01*
X162017474Y-94935435D01*
X162069619Y-95025751D01*
X162086500Y-95088751D01*
X162086500Y-96317674D01*
X162110659Y-96407833D01*
X162157326Y-96488664D01*
X162157334Y-96488674D01*
X164548595Y-98879934D01*
X164582620Y-98942246D01*
X164585500Y-98969029D01*
X164585500Y-100736674D01*
X164609659Y-100826833D01*
X164656326Y-100907664D01*
X164656328Y-100907666D01*
X164656329Y-100907668D01*
X164996870Y-101248209D01*
X165029480Y-101304690D01*
X165050051Y-101381465D01*
X165056474Y-101405435D01*
X165116306Y-101509066D01*
X165116314Y-101509076D01*
X165200923Y-101593685D01*
X165200928Y-101593689D01*
X165200930Y-101593691D01*
X165200931Y-101593692D01*
X165200933Y-101593693D01*
X165304564Y-101653525D01*
X165304566Y-101653525D01*
X165304569Y-101653527D01*
X165420164Y-101684500D01*
X165420166Y-101684500D01*
X165539834Y-101684500D01*
X165539836Y-101684500D01*
X165655431Y-101653527D01*
X165655434Y-101653525D01*
X165655435Y-101653525D01*
X165752942Y-101597229D01*
X165759070Y-101593691D01*
X165843691Y-101509070D01*
X165891519Y-101426230D01*
X165903525Y-101405435D01*
X165903525Y-101405434D01*
X165903527Y-101405431D01*
X165913962Y-101366488D01*
X168618116Y-101366488D01*
X168644061Y-101381467D01*
X168746814Y-101409000D01*
X168853186Y-101409000D01*
X168955939Y-101381467D01*
X168955944Y-101381465D01*
X168981882Y-101366488D01*
X168981883Y-101366487D01*
X168800001Y-101184605D01*
X168800000Y-101184605D01*
X168618116Y-101366488D01*
X165913962Y-101366488D01*
X165934500Y-101289836D01*
X165934500Y-101262458D01*
X165934840Y-101257843D01*
X165945753Y-101228771D01*
X165954502Y-101198977D01*
X165958113Y-101195847D01*
X165959792Y-101191376D01*
X165984689Y-101172819D01*
X165999582Y-101159914D01*
X165998279Y-101157657D01*
X166089482Y-101105000D01*
X166109070Y-101093691D01*
X166193691Y-101009070D01*
X166226748Y-100951814D01*
X168396000Y-100951814D01*
X168396000Y-101058185D01*
X168423533Y-101160940D01*
X168438511Y-101186883D01*
X168620394Y-101005001D01*
X168620394Y-101004999D01*
X168600504Y-100985109D01*
X168700000Y-100985109D01*
X168700000Y-101024891D01*
X168715224Y-101061645D01*
X168743355Y-101089776D01*
X168780109Y-101105000D01*
X168819891Y-101105000D01*
X168856645Y-101089776D01*
X168884776Y-101061645D01*
X168900000Y-101024891D01*
X168900000Y-101004999D01*
X168979605Y-101004999D01*
X168979605Y-101005001D01*
X169161487Y-101186883D01*
X169161488Y-101186882D01*
X169176465Y-101160944D01*
X169176467Y-101160939D01*
X169204000Y-101058186D01*
X169204000Y-100951813D01*
X169176467Y-100849061D01*
X169161488Y-100823116D01*
X168979605Y-101004999D01*
X168900000Y-101004999D01*
X168900000Y-100985109D01*
X168884776Y-100948355D01*
X168856645Y-100920224D01*
X168819891Y-100905000D01*
X168780109Y-100905000D01*
X168743355Y-100920224D01*
X168715224Y-100948355D01*
X168700000Y-100985109D01*
X168600504Y-100985109D01*
X168438510Y-100823115D01*
X168423534Y-100849057D01*
X168423533Y-100849059D01*
X168396000Y-100951814D01*
X166226748Y-100951814D01*
X166253527Y-100905431D01*
X166284500Y-100789836D01*
X166284500Y-100670164D01*
X166277358Y-100643510D01*
X168618115Y-100643510D01*
X168800000Y-100825394D01*
X168800001Y-100825394D01*
X168981883Y-100643511D01*
X168955940Y-100628533D01*
X168853185Y-100601000D01*
X168746815Y-100601000D01*
X168644059Y-100628533D01*
X168644057Y-100628534D01*
X168618115Y-100643510D01*
X166277358Y-100643510D01*
X166253527Y-100554569D01*
X166253525Y-100554566D01*
X166253525Y-100554564D01*
X166193693Y-100450933D01*
X166193685Y-100450923D01*
X166109076Y-100366314D01*
X166109066Y-100366306D01*
X166005435Y-100306474D01*
X165990797Y-100302552D01*
X165904690Y-100279480D01*
X165890579Y-100271333D01*
X165876917Y-100268361D01*
X165848207Y-100246869D01*
X165732404Y-100131065D01*
X165698379Y-100068753D01*
X165695500Y-100041970D01*
X165695500Y-98557229D01*
X165695499Y-98557225D01*
X165692261Y-98545142D01*
X165671341Y-98467068D01*
X165649143Y-98428619D01*
X165624673Y-98386235D01*
X165624665Y-98386225D01*
X165554279Y-98315839D01*
X165554256Y-98315818D01*
X163431405Y-96192966D01*
X163397379Y-96130654D01*
X163394500Y-96103871D01*
X163394500Y-95588751D01*
X163411381Y-95525751D01*
X163463525Y-95435435D01*
X163463525Y-95435434D01*
X163463527Y-95435431D01*
X163494500Y-95319836D01*
X163494500Y-95200164D01*
X163463527Y-95084569D01*
X163463525Y-95084566D01*
X163463525Y-95084564D01*
X163411381Y-94994248D01*
X163394500Y-94931248D01*
X163394500Y-91849029D01*
X163403283Y-91819113D01*
X163409912Y-91788644D01*
X163413726Y-91783547D01*
X163414502Y-91780908D01*
X163431399Y-91759939D01*
X163591871Y-91599467D01*
X163648349Y-91566859D01*
X163735431Y-91543527D01*
X163839070Y-91483691D01*
X163923691Y-91399070D01*
X163983527Y-91295431D01*
X164014500Y-91179836D01*
X164014500Y-91060164D01*
X163983527Y-90944569D01*
X163983525Y-90944565D01*
X163983525Y-90944564D01*
X163923693Y-90840933D01*
X163923685Y-90840923D01*
X163839076Y-90756314D01*
X163839066Y-90756306D01*
X163735435Y-90696474D01*
X163721780Y-90692815D01*
X163619836Y-90665500D01*
X163500164Y-90665500D01*
X163429415Y-90684456D01*
X163384564Y-90696474D01*
X163280933Y-90756306D01*
X163280923Y-90756314D01*
X163196314Y-90840923D01*
X163196306Y-90840933D01*
X163136475Y-90944563D01*
X163105820Y-91058969D01*
X163073209Y-91115452D01*
X162829093Y-91359567D01*
X162766783Y-91393591D01*
X162695968Y-91388527D01*
X162650905Y-91359566D01*
X162393130Y-91101791D01*
X162360519Y-91045308D01*
X162333527Y-90944569D01*
X162298265Y-90883494D01*
X162273693Y-90840933D01*
X162273685Y-90840923D01*
X162189076Y-90756314D01*
X162189066Y-90756306D01*
X162085435Y-90696474D01*
X162071780Y-90692815D01*
X161969836Y-90665500D01*
X161850164Y-90665500D01*
X161779415Y-90684456D01*
X161734564Y-90696474D01*
X161630933Y-90756306D01*
X161630923Y-90756314D01*
X161546314Y-90840923D01*
X161546306Y-90840933D01*
X161486474Y-90944564D01*
X161486473Y-90944569D01*
X161455500Y-91060164D01*
X159911176Y-91060164D01*
X160008529Y-90962811D01*
X162549934Y-88421405D01*
X162612246Y-88387380D01*
X162639029Y-88384500D01*
X165200971Y-88384500D01*
X165269092Y-88404502D01*
G37*
%TD.AperFunction*%
%TA.AperFunction,Conductor*%
G36*
X159669092Y-101714502D02*
G01*
X159690066Y-101731405D01*
X160657595Y-102698934D01*
X160691621Y-102761246D01*
X160694500Y-102788029D01*
X160694500Y-104258970D01*
X160674498Y-104327091D01*
X160620842Y-104373584D01*
X160550568Y-104383688D01*
X160485988Y-104354194D01*
X160479405Y-104348065D01*
X159727674Y-103596334D01*
X159727664Y-103596326D01*
X159646833Y-103549659D01*
X159556674Y-103525500D01*
X159556671Y-103525500D01*
X157992603Y-103525500D01*
X157924482Y-103505498D01*
X157877989Y-103451842D01*
X157876194Y-103447719D01*
X157855810Y-103398507D01*
X157744567Y-103232019D01*
X157744565Y-103232017D01*
X157744560Y-103232011D01*
X157602988Y-103090439D01*
X157602982Y-103090434D01*
X157602981Y-103090433D01*
X157436493Y-102979190D01*
X157319839Y-102930870D01*
X157251505Y-102902565D01*
X157251502Y-102902564D01*
X157055119Y-102863500D01*
X157055116Y-102863500D01*
X156854884Y-102863500D01*
X156854880Y-102863500D01*
X156658497Y-102902564D01*
X156658494Y-102902565D01*
X156473507Y-102979190D01*
X156307017Y-103090434D01*
X156307011Y-103090439D01*
X156300565Y-103096886D01*
X156238253Y-103130912D01*
X156167438Y-103125847D01*
X156110602Y-103083300D01*
X156085791Y-103016780D01*
X156085470Y-103007791D01*
X156085470Y-102350520D01*
X156105472Y-102282399D01*
X156159128Y-102235906D01*
X156229402Y-102225802D01*
X156270871Y-102239401D01*
X156273505Y-102240809D01*
X156273506Y-102240809D01*
X156273507Y-102240810D01*
X156458498Y-102317436D01*
X156654884Y-102356500D01*
X156855116Y-102356500D01*
X157051502Y-102317436D01*
X157236493Y-102240810D01*
X157402981Y-102129567D01*
X157544567Y-101987981D01*
X157655810Y-101821493D01*
X157676194Y-101772280D01*
X157720743Y-101717001D01*
X157788106Y-101694580D01*
X157792603Y-101694500D01*
X159600971Y-101694500D01*
X159669092Y-101714502D01*
G37*
%TD.AperFunction*%
%TA.AperFunction,Conductor*%
G36*
X160496987Y-99158717D02*
G01*
X160510955Y-99158052D01*
X160544249Y-99171381D01*
X160634564Y-99223525D01*
X160634566Y-99223525D01*
X160634569Y-99223527D01*
X160750164Y-99254500D01*
X160750166Y-99254500D01*
X160869834Y-99254500D01*
X160869836Y-99254500D01*
X160936890Y-99236533D01*
X161007866Y-99238223D01*
X161066661Y-99278017D01*
X161094609Y-99343282D01*
X161095500Y-99358240D01*
X161095500Y-101829970D01*
X161075498Y-101898091D01*
X161021842Y-101944584D01*
X160951568Y-101954688D01*
X160886988Y-101925194D01*
X160880405Y-101919065D01*
X160017674Y-101056334D01*
X160017664Y-101056326D01*
X159936833Y-101009659D01*
X159846674Y-100985500D01*
X159846671Y-100985500D01*
X157792603Y-100985500D01*
X157724482Y-100965498D01*
X157677989Y-100911842D01*
X157676194Y-100907719D01*
X157676171Y-100907664D01*
X157655810Y-100858507D01*
X157544567Y-100692019D01*
X157544565Y-100692017D01*
X157544560Y-100692011D01*
X157402988Y-100550439D01*
X157402982Y-100550434D01*
X157402981Y-100550433D01*
X157236493Y-100439190D01*
X157075369Y-100372450D01*
X157051505Y-100362565D01*
X157051502Y-100362564D01*
X156855119Y-100323500D01*
X156855116Y-100323500D01*
X156654884Y-100323500D01*
X156654880Y-100323500D01*
X156458497Y-100362564D01*
X156458494Y-100362565D01*
X156273500Y-100439192D01*
X156270860Y-100440604D01*
X156269319Y-100440924D01*
X156267788Y-100441559D01*
X156267667Y-100441268D01*
X156201353Y-100455072D01*
X156135059Y-100429665D01*
X156093024Y-100372450D01*
X156085470Y-100329479D01*
X156085470Y-99672209D01*
X156105472Y-99604088D01*
X156159128Y-99557595D01*
X156229402Y-99547491D01*
X156293982Y-99576985D01*
X156300565Y-99583114D01*
X156307011Y-99589560D01*
X156307017Y-99589565D01*
X156307019Y-99589567D01*
X156473507Y-99700810D01*
X156658498Y-99777436D01*
X156854884Y-99816500D01*
X157055116Y-99816500D01*
X157251502Y-99777436D01*
X157436493Y-99700810D01*
X157602981Y-99589567D01*
X157744567Y-99447981D01*
X157855810Y-99281493D01*
X157876194Y-99232280D01*
X157920743Y-99177001D01*
X157988106Y-99154580D01*
X157992603Y-99154500D01*
X160481249Y-99154500D01*
X160496987Y-99158717D01*
G37*
%TD.AperFunction*%
%TA.AperFunction,Conductor*%
G36*
X159819092Y-96634502D02*
G01*
X159840066Y-96651405D01*
X161058595Y-97869933D01*
X161092620Y-97932245D01*
X161095500Y-97959028D01*
X161095500Y-98241759D01*
X161075498Y-98309880D01*
X161021842Y-98356373D01*
X160951568Y-98366477D01*
X160936891Y-98363466D01*
X160869838Y-98345500D01*
X160869836Y-98345500D01*
X160750164Y-98345500D01*
X160709585Y-98356373D01*
X160634564Y-98376474D01*
X160544249Y-98428619D01*
X160481249Y-98445500D01*
X157992603Y-98445500D01*
X157924482Y-98425498D01*
X157877989Y-98371842D01*
X157876194Y-98367719D01*
X157875680Y-98366477D01*
X157855810Y-98318507D01*
X157744567Y-98152019D01*
X157744565Y-98152017D01*
X157744560Y-98152011D01*
X157602988Y-98010439D01*
X157602982Y-98010434D01*
X157602981Y-98010433D01*
X157436493Y-97899190D01*
X157319839Y-97850870D01*
X157251505Y-97822565D01*
X157251502Y-97822564D01*
X157055119Y-97783500D01*
X157055116Y-97783500D01*
X156854884Y-97783500D01*
X156854880Y-97783500D01*
X156658497Y-97822564D01*
X156658494Y-97822565D01*
X156473507Y-97899190D01*
X156307017Y-98010434D01*
X156307011Y-98010439D01*
X156300565Y-98016886D01*
X156238253Y-98050912D01*
X156167438Y-98045847D01*
X156110602Y-98003300D01*
X156085791Y-97936780D01*
X156085470Y-97927791D01*
X156085470Y-97270520D01*
X156105472Y-97202399D01*
X156159128Y-97155906D01*
X156229402Y-97145802D01*
X156270871Y-97159401D01*
X156273505Y-97160809D01*
X156273506Y-97160809D01*
X156273507Y-97160810D01*
X156458498Y-97237436D01*
X156654884Y-97276500D01*
X156855116Y-97276500D01*
X157051502Y-97237436D01*
X157236493Y-97160810D01*
X157402981Y-97049567D01*
X157544567Y-96907981D01*
X157655810Y-96741493D01*
X157676194Y-96692280D01*
X157720743Y-96637001D01*
X157788106Y-96614580D01*
X157792603Y-96614500D01*
X159750971Y-96614500D01*
X159819092Y-96634502D01*
G37*
%TD.AperFunction*%
%TA.AperFunction,Conductor*%
G36*
X178796887Y-86460223D02*
G01*
X178817187Y-86460948D01*
X178830253Y-86470019D01*
X178845518Y-86474502D01*
X178858821Y-86489854D01*
X178875506Y-86501439D01*
X178889944Y-86525773D01*
X178892011Y-86528158D01*
X178893802Y-86532271D01*
X178914190Y-86581493D01*
X178955508Y-86643329D01*
X179025434Y-86747982D01*
X179025439Y-86747988D01*
X179167011Y-86889560D01*
X179167017Y-86889565D01*
X179167019Y-86889567D01*
X179333507Y-87000810D01*
X179518498Y-87077436D01*
X179714884Y-87116500D01*
X179915116Y-87116500D01*
X180111502Y-87077436D01*
X180296493Y-87000810D01*
X180296496Y-87000807D01*
X180299099Y-86999417D01*
X180300620Y-86999100D01*
X180302212Y-86998441D01*
X180302336Y-86998742D01*
X180368604Y-86984942D01*
X180434901Y-87010342D01*
X180476942Y-87067553D01*
X180484500Y-87110536D01*
X180484500Y-87767761D01*
X180464498Y-87835882D01*
X180410842Y-87882375D01*
X180340568Y-87892479D01*
X180275988Y-87862985D01*
X180269405Y-87856856D01*
X180262988Y-87850439D01*
X180262982Y-87850434D01*
X180262981Y-87850433D01*
X180096493Y-87739190D01*
X179979839Y-87690870D01*
X179911505Y-87662565D01*
X179911502Y-87662564D01*
X179715119Y-87623500D01*
X179715116Y-87623500D01*
X179514884Y-87623500D01*
X179514880Y-87623500D01*
X179318497Y-87662564D01*
X179318494Y-87662565D01*
X179133507Y-87739190D01*
X178967017Y-87850434D01*
X178967011Y-87850439D01*
X178825439Y-87992011D01*
X178825434Y-87992017D01*
X178714190Y-88158507D01*
X178637565Y-88343494D01*
X178637564Y-88343497D01*
X178598500Y-88539880D01*
X178598500Y-88740119D01*
X178637564Y-88936502D01*
X178714190Y-89121493D01*
X178825433Y-89287981D01*
X178825434Y-89287982D01*
X178825439Y-89287988D01*
X178967011Y-89429560D01*
X178967017Y-89429565D01*
X178967019Y-89429567D01*
X179133507Y-89540810D01*
X179318498Y-89617436D01*
X179514884Y-89656500D01*
X179715116Y-89656500D01*
X179911502Y-89617436D01*
X180096493Y-89540810D01*
X180262981Y-89429567D01*
X180262988Y-89429560D01*
X180269405Y-89423144D01*
X180331717Y-89389118D01*
X180402532Y-89394183D01*
X180459368Y-89436730D01*
X180484179Y-89503250D01*
X180484500Y-89512239D01*
X180484500Y-90169463D01*
X180464498Y-90237584D01*
X180410842Y-90284077D01*
X180340568Y-90294181D01*
X180299109Y-90280588D01*
X180296494Y-90279190D01*
X180111505Y-90202565D01*
X180111502Y-90202564D01*
X179915119Y-90163500D01*
X179915116Y-90163500D01*
X179714884Y-90163500D01*
X179714880Y-90163500D01*
X179518497Y-90202564D01*
X179518494Y-90202565D01*
X179333507Y-90279190D01*
X179167017Y-90390434D01*
X179167011Y-90390439D01*
X179025439Y-90532011D01*
X179025434Y-90532017D01*
X178914190Y-90698507D01*
X178837565Y-90883494D01*
X178837564Y-90883497D01*
X178798500Y-91079880D01*
X178798500Y-91280119D01*
X178837564Y-91476502D01*
X178837565Y-91476505D01*
X178861587Y-91534499D01*
X178914190Y-91661493D01*
X179019508Y-91819113D01*
X179025434Y-91827982D01*
X179025439Y-91827988D01*
X179167011Y-91969560D01*
X179167017Y-91969565D01*
X179167019Y-91969567D01*
X179333507Y-92080810D01*
X179518498Y-92157436D01*
X179714884Y-92196500D01*
X179915116Y-92196500D01*
X180111502Y-92157436D01*
X180296493Y-92080810D01*
X180296496Y-92080807D01*
X180299099Y-92079417D01*
X180300620Y-92079100D01*
X180302212Y-92078441D01*
X180302336Y-92078742D01*
X180368604Y-92064942D01*
X180434901Y-92090342D01*
X180476942Y-92147553D01*
X180484500Y-92190536D01*
X180484500Y-92847761D01*
X180464498Y-92915882D01*
X180410842Y-92962375D01*
X180340568Y-92972479D01*
X180275988Y-92942985D01*
X180269405Y-92936856D01*
X180262988Y-92930439D01*
X180262982Y-92930434D01*
X180262981Y-92930433D01*
X180096493Y-92819190D01*
X179979839Y-92770870D01*
X179911505Y-92742565D01*
X179911502Y-92742564D01*
X179715119Y-92703500D01*
X179715116Y-92703500D01*
X179514884Y-92703500D01*
X179514880Y-92703500D01*
X179318497Y-92742564D01*
X179318494Y-92742565D01*
X179133507Y-92819190D01*
X178967017Y-92930434D01*
X178967011Y-92930439D01*
X178825439Y-93072011D01*
X178825434Y-93072017D01*
X178714190Y-93238507D01*
X178637565Y-93423494D01*
X178637564Y-93423497D01*
X178598500Y-93619880D01*
X178598500Y-93820119D01*
X178637564Y-94016502D01*
X178637565Y-94016505D01*
X178663294Y-94078619D01*
X178714190Y-94201493D01*
X178763018Y-94274569D01*
X178825434Y-94367982D01*
X178825439Y-94367988D01*
X178967011Y-94509560D01*
X178967017Y-94509565D01*
X178967019Y-94509567D01*
X179133507Y-94620810D01*
X179318498Y-94697436D01*
X179514884Y-94736500D01*
X179715116Y-94736500D01*
X179911502Y-94697436D01*
X180096493Y-94620810D01*
X180262981Y-94509567D01*
X180265712Y-94506836D01*
X180269405Y-94503144D01*
X180331717Y-94469118D01*
X180402532Y-94474183D01*
X180459368Y-94516730D01*
X180484179Y-94583250D01*
X180484500Y-94592239D01*
X180484500Y-95249463D01*
X180464498Y-95317584D01*
X180410842Y-95364077D01*
X180340568Y-95374181D01*
X180299109Y-95360588D01*
X180296494Y-95359190D01*
X180111505Y-95282565D01*
X180111502Y-95282564D01*
X179915119Y-95243500D01*
X179915116Y-95243500D01*
X179714884Y-95243500D01*
X179714880Y-95243500D01*
X179518497Y-95282564D01*
X179518494Y-95282565D01*
X179333507Y-95359190D01*
X179167017Y-95470434D01*
X179167011Y-95470439D01*
X179025439Y-95612011D01*
X179025434Y-95612017D01*
X178914190Y-95778507D01*
X178837565Y-95963494D01*
X178837564Y-95963497D01*
X178798500Y-96159880D01*
X178798500Y-96360119D01*
X178837564Y-96556502D01*
X178837565Y-96556505D01*
X178865870Y-96624839D01*
X178914190Y-96741493D01*
X179025433Y-96907981D01*
X179025434Y-96907982D01*
X179025439Y-96907988D01*
X179167011Y-97049560D01*
X179167017Y-97049565D01*
X179167019Y-97049567D01*
X179333507Y-97160810D01*
X179518498Y-97237436D01*
X179714884Y-97276500D01*
X179915116Y-97276500D01*
X180111502Y-97237436D01*
X180296493Y-97160810D01*
X180296496Y-97160807D01*
X180299099Y-97159417D01*
X180300620Y-97159100D01*
X180302212Y-97158441D01*
X180302336Y-97158742D01*
X180368604Y-97144942D01*
X180434901Y-97170342D01*
X180476942Y-97227553D01*
X180484500Y-97270536D01*
X180484500Y-97927761D01*
X180464498Y-97995882D01*
X180410842Y-98042375D01*
X180340568Y-98052479D01*
X180275988Y-98022985D01*
X180269405Y-98016856D01*
X180262988Y-98010439D01*
X180262982Y-98010434D01*
X180262981Y-98010433D01*
X180096493Y-97899190D01*
X179979839Y-97850870D01*
X179911505Y-97822565D01*
X179911502Y-97822564D01*
X179715119Y-97783500D01*
X179715116Y-97783500D01*
X179514884Y-97783500D01*
X179514880Y-97783500D01*
X179318497Y-97822564D01*
X179318494Y-97822565D01*
X179133507Y-97899190D01*
X178967017Y-98010434D01*
X178967011Y-98010439D01*
X178825439Y-98152011D01*
X178825434Y-98152017D01*
X178715973Y-98315839D01*
X178714190Y-98318507D01*
X178695568Y-98363466D01*
X178693806Y-98367719D01*
X178649257Y-98422999D01*
X178581894Y-98445420D01*
X178577397Y-98445500D01*
X176529029Y-98445500D01*
X176499113Y-98436716D01*
X176468644Y-98430088D01*
X176463548Y-98426273D01*
X176460908Y-98425498D01*
X176439934Y-98408595D01*
X176305434Y-98274095D01*
X176271408Y-98211783D01*
X176276473Y-98140968D01*
X176305434Y-98095905D01*
X178043665Y-96357674D01*
X178043671Y-96357668D01*
X178065513Y-96319836D01*
X178066764Y-96317670D01*
X178076729Y-96300409D01*
X178090341Y-96276832D01*
X178114500Y-96186671D01*
X178114500Y-86889029D01*
X178134502Y-86820908D01*
X178151405Y-86799934D01*
X178459934Y-86491405D01*
X178522246Y-86457379D01*
X178549029Y-86454500D01*
X178777397Y-86454500D01*
X178796887Y-86460223D01*
G37*
%TD.AperFunction*%
%TA.AperFunction,Conductor*%
G36*
X180426621Y-84770502D02*
G01*
X180473114Y-84824158D01*
X180484500Y-84876500D01*
X180484500Y-85089463D01*
X180464498Y-85157584D01*
X180410842Y-85204077D01*
X180340568Y-85214181D01*
X180299109Y-85200588D01*
X180296494Y-85199190D01*
X180111505Y-85122565D01*
X180111502Y-85122564D01*
X179915119Y-85083500D01*
X179915116Y-85083500D01*
X179714884Y-85083500D01*
X179714880Y-85083500D01*
X179518497Y-85122564D01*
X179518494Y-85122565D01*
X179333507Y-85199190D01*
X179167017Y-85310434D01*
X179167011Y-85310439D01*
X179025439Y-85452011D01*
X179025434Y-85452017D01*
X178914191Y-85618505D01*
X178893806Y-85667719D01*
X178849257Y-85722999D01*
X178781894Y-85745420D01*
X178777397Y-85745500D01*
X178303325Y-85745500D01*
X178213166Y-85769659D01*
X178132335Y-85816326D01*
X178132329Y-85816331D01*
X177837331Y-86111330D01*
X177542332Y-86406329D01*
X177509331Y-86439330D01*
X177476330Y-86472330D01*
X177476326Y-86472335D01*
X177429659Y-86553166D01*
X177405500Y-86643325D01*
X177405500Y-95940971D01*
X177385498Y-96009092D01*
X177368595Y-96030066D01*
X175910066Y-97488595D01*
X175847754Y-97522621D01*
X175820971Y-97525500D01*
X172733325Y-97525500D01*
X172643166Y-97549659D01*
X172562335Y-97596326D01*
X172562325Y-97596334D01*
X172231791Y-97926869D01*
X172175307Y-97959480D01*
X172143844Y-97967911D01*
X172074564Y-97986474D01*
X171970933Y-98046306D01*
X171970923Y-98046314D01*
X171886314Y-98130923D01*
X171886306Y-98130933D01*
X171826473Y-98234567D01*
X171805534Y-98312711D01*
X171768582Y-98373334D01*
X171704722Y-98404355D01*
X171634227Y-98395925D01*
X171594735Y-98369196D01*
X171329868Y-98104329D01*
X171329866Y-98104328D01*
X171329864Y-98104326D01*
X171249033Y-98057659D01*
X171158874Y-98033500D01*
X171158871Y-98033500D01*
X168163335Y-98033500D01*
X168095214Y-98013498D01*
X168074240Y-97996595D01*
X167856885Y-97779240D01*
X167855621Y-97776926D01*
X167853358Y-97775569D01*
X167838697Y-97745932D01*
X167822859Y-97716928D01*
X167823047Y-97714296D01*
X167821878Y-97711933D01*
X167825565Y-97679087D01*
X167827924Y-97646113D01*
X167829595Y-97643194D01*
X167829799Y-97641379D01*
X167835462Y-97632945D01*
X167848244Y-97610623D01*
X167852317Y-97605616D01*
X167913691Y-97544243D01*
X167941636Y-97495840D01*
X167947983Y-97488040D01*
X167969282Y-97473399D01*
X167987981Y-97455570D01*
X167998043Y-97453630D01*
X168006491Y-97447824D01*
X168032319Y-97447023D01*
X168057694Y-97442132D01*
X168067210Y-97445941D01*
X168077454Y-97445624D01*
X168099615Y-97458914D01*
X168123605Y-97468518D01*
X168132233Y-97478475D01*
X168138341Y-97482138D01*
X168142243Y-97490027D01*
X168154838Y-97504561D01*
X168186309Y-97559070D01*
X168186311Y-97559072D01*
X168186314Y-97559076D01*
X168270923Y-97643685D01*
X168270928Y-97643689D01*
X168270930Y-97643691D01*
X168270931Y-97643692D01*
X168270933Y-97643693D01*
X168374564Y-97703525D01*
X168374566Y-97703525D01*
X168374569Y-97703527D01*
X168490164Y-97734500D01*
X168490166Y-97734500D01*
X168609834Y-97734500D01*
X168609836Y-97734500D01*
X168725431Y-97703527D01*
X168725434Y-97703525D01*
X168725435Y-97703525D01*
X168777250Y-97673609D01*
X168829070Y-97643691D01*
X168913691Y-97559070D01*
X168973527Y-97455431D01*
X168985998Y-97408887D01*
X169022948Y-97348267D01*
X169086809Y-97317245D01*
X169107704Y-97315500D01*
X169110834Y-97315500D01*
X169110836Y-97315500D01*
X169226431Y-97284527D01*
X169226434Y-97284525D01*
X169226435Y-97284525D01*
X169307995Y-97237436D01*
X169330070Y-97224691D01*
X169414691Y-97140070D01*
X169474527Y-97036431D01*
X169501520Y-96935688D01*
X169534128Y-96879209D01*
X169761935Y-96651402D01*
X169824245Y-96617379D01*
X169851028Y-96614500D01*
X175331249Y-96614500D01*
X175394249Y-96631381D01*
X175484564Y-96683525D01*
X175484566Y-96683525D01*
X175484569Y-96683527D01*
X175600164Y-96714500D01*
X175600166Y-96714500D01*
X175719834Y-96714500D01*
X175719836Y-96714500D01*
X175835431Y-96683527D01*
X175835434Y-96683525D01*
X175835435Y-96683525D01*
X175916016Y-96637001D01*
X175939070Y-96623691D01*
X176023691Y-96539070D01*
X176083527Y-96435431D01*
X176114500Y-96319836D01*
X176114500Y-96200164D01*
X176114500Y-96191906D01*
X176117596Y-96191906D01*
X176126264Y-96136302D01*
X176173391Y-96083201D01*
X176207633Y-96068295D01*
X176225431Y-96063527D01*
X176329070Y-96003691D01*
X176413691Y-95919070D01*
X176473527Y-95815431D01*
X176504500Y-95699836D01*
X176504500Y-95630592D01*
X176524502Y-95562471D01*
X176578158Y-95515978D01*
X176630500Y-95504592D01*
X176689834Y-95504592D01*
X176689836Y-95504592D01*
X176805431Y-95473619D01*
X176805434Y-95473617D01*
X176805435Y-95473617D01*
X176857250Y-95443701D01*
X176909070Y-95413783D01*
X176993691Y-95329162D01*
X177053527Y-95225523D01*
X177084500Y-95109928D01*
X177084500Y-94990256D01*
X177053527Y-94874661D01*
X177053525Y-94874658D01*
X177053525Y-94874656D01*
X176993693Y-94771025D01*
X176993685Y-94771015D01*
X176909076Y-94686406D01*
X176909066Y-94686398D01*
X176805435Y-94626566D01*
X176689829Y-94595590D01*
X176684047Y-94594829D01*
X176619121Y-94566103D01*
X176580033Y-94506836D01*
X176574500Y-94469908D01*
X176574500Y-94390165D01*
X176568556Y-94367981D01*
X176543527Y-94274569D01*
X176543525Y-94274566D01*
X176543525Y-94274564D01*
X176483693Y-94170933D01*
X176483685Y-94170923D01*
X176399076Y-94086314D01*
X176399066Y-94086306D01*
X176295435Y-94026474D01*
X176258218Y-94016502D01*
X176179836Y-93995500D01*
X176060164Y-93995500D01*
X175989415Y-94014456D01*
X175944564Y-94026474D01*
X175854249Y-94078619D01*
X175791249Y-94095500D01*
X168733325Y-94095500D01*
X168643166Y-94119659D01*
X168563622Y-94165584D01*
X168563614Y-94165589D01*
X168562331Y-94166329D01*
X168562328Y-94166331D01*
X167618595Y-95110065D01*
X167556283Y-95144091D01*
X167485468Y-95139026D01*
X167428632Y-95096479D01*
X167403821Y-95029959D01*
X167403500Y-95020970D01*
X167403500Y-88498129D01*
X167403499Y-88498125D01*
X167379340Y-88407966D01*
X167332673Y-88327135D01*
X167332669Y-88327130D01*
X167266668Y-88261129D01*
X166045944Y-87040405D01*
X164821874Y-85816334D01*
X164821864Y-85816326D01*
X164741033Y-85769659D01*
X164650874Y-85745500D01*
X164650871Y-85745500D01*
X157792603Y-85745500D01*
X157724482Y-85725498D01*
X157677989Y-85671842D01*
X157676194Y-85667719D01*
X157655810Y-85618507D01*
X157544567Y-85452019D01*
X157544565Y-85452017D01*
X157544560Y-85452011D01*
X157402988Y-85310439D01*
X157402982Y-85310434D01*
X157402981Y-85310433D01*
X157236493Y-85199190D01*
X157075369Y-85132450D01*
X157051505Y-85122565D01*
X157051502Y-85122564D01*
X156855119Y-85083500D01*
X156855116Y-85083500D01*
X156654884Y-85083500D01*
X156654880Y-85083500D01*
X156458497Y-85122564D01*
X156458494Y-85122565D01*
X156273500Y-85199192D01*
X156270860Y-85200604D01*
X156269319Y-85200924D01*
X156267788Y-85201559D01*
X156267667Y-85201268D01*
X156201353Y-85215072D01*
X156135059Y-85189665D01*
X156093024Y-85132450D01*
X156085470Y-85089479D01*
X156085470Y-84876500D01*
X156105472Y-84808379D01*
X156159128Y-84761886D01*
X156211470Y-84750500D01*
X180358500Y-84750500D01*
X180426621Y-84770502D01*
G37*
%TD.AperFunction*%
%TA.AperFunction,Conductor*%
G36*
X158001271Y-94242864D02*
G01*
X158006167Y-94247506D01*
X159449066Y-95690405D01*
X159483092Y-95752717D01*
X159478027Y-95823532D01*
X159435480Y-95880368D01*
X159368960Y-95905179D01*
X159359971Y-95905500D01*
X157792603Y-95905500D01*
X157724482Y-95885498D01*
X157677989Y-95831842D01*
X157676194Y-95827719D01*
X157671104Y-95815431D01*
X157655810Y-95778507D01*
X157544567Y-95612019D01*
X157544565Y-95612017D01*
X157544560Y-95612011D01*
X157402988Y-95470439D01*
X157402982Y-95470434D01*
X157350596Y-95435431D01*
X157236493Y-95359190D01*
X157075369Y-95292450D01*
X157051505Y-95282565D01*
X157051502Y-95282564D01*
X156855119Y-95243500D01*
X156855116Y-95243500D01*
X156654884Y-95243500D01*
X156654880Y-95243500D01*
X156458497Y-95282564D01*
X156458494Y-95282565D01*
X156273500Y-95359192D01*
X156270860Y-95360604D01*
X156269319Y-95360924D01*
X156267788Y-95361559D01*
X156267667Y-95361268D01*
X156201353Y-95375072D01*
X156135059Y-95349665D01*
X156093024Y-95292450D01*
X156085470Y-95249479D01*
X156085470Y-94592209D01*
X156105472Y-94524088D01*
X156159128Y-94477595D01*
X156229402Y-94467491D01*
X156293982Y-94496985D01*
X156300565Y-94503114D01*
X156307011Y-94509560D01*
X156307017Y-94509565D01*
X156307019Y-94509567D01*
X156473507Y-94620810D01*
X156658498Y-94697436D01*
X156854884Y-94736500D01*
X157055116Y-94736500D01*
X157251502Y-94697436D01*
X157436493Y-94620810D01*
X157602981Y-94509567D01*
X157744567Y-94367981D01*
X157812308Y-94266597D01*
X157866783Y-94221072D01*
X157937226Y-94212223D01*
X158001271Y-94242864D01*
G37*
%TD.AperFunction*%
%TA.AperFunction,Conductor*%
G36*
X160738092Y-89014502D02*
G01*
X160784585Y-89068158D01*
X160794689Y-89138432D01*
X160765195Y-89203012D01*
X160759066Y-89209595D01*
X159180066Y-90788595D01*
X159117754Y-90822621D01*
X159090971Y-90825500D01*
X157792603Y-90825500D01*
X157724482Y-90805498D01*
X157677989Y-90751842D01*
X157676194Y-90747719D01*
X157655810Y-90698507D01*
X157544567Y-90532019D01*
X157544565Y-90532017D01*
X157544560Y-90532011D01*
X157402988Y-90390439D01*
X157402982Y-90390434D01*
X157402981Y-90390433D01*
X157236493Y-90279190D01*
X157075369Y-90212450D01*
X157051505Y-90202565D01*
X157051502Y-90202564D01*
X156855119Y-90163500D01*
X156855116Y-90163500D01*
X156654884Y-90163500D01*
X156654880Y-90163500D01*
X156458497Y-90202564D01*
X156458494Y-90202565D01*
X156273500Y-90279192D01*
X156270860Y-90280604D01*
X156269319Y-90280924D01*
X156267788Y-90281559D01*
X156267667Y-90281268D01*
X156201353Y-90295072D01*
X156135059Y-90269665D01*
X156093024Y-90212450D01*
X156085470Y-90169479D01*
X156085470Y-89512209D01*
X156105472Y-89444088D01*
X156159128Y-89397595D01*
X156229402Y-89387491D01*
X156293982Y-89416985D01*
X156300565Y-89423114D01*
X156307011Y-89429560D01*
X156307017Y-89429565D01*
X156307019Y-89429567D01*
X156473507Y-89540810D01*
X156658498Y-89617436D01*
X156854884Y-89656500D01*
X157055116Y-89656500D01*
X157251502Y-89617436D01*
X157436493Y-89540810D01*
X157602981Y-89429567D01*
X157744567Y-89287981D01*
X157855810Y-89121493D01*
X157876194Y-89072280D01*
X157920743Y-89017001D01*
X157988106Y-88994580D01*
X157992603Y-88994500D01*
X160669971Y-88994500D01*
X160738092Y-89014502D01*
G37*
%TD.AperFunction*%
%TA.AperFunction,Conductor*%
G36*
X164473292Y-86474502D02*
G01*
X164494266Y-86491405D01*
X165043266Y-87040405D01*
X165077292Y-87102717D01*
X165072227Y-87173532D01*
X165029680Y-87230368D01*
X164963160Y-87255179D01*
X164954171Y-87255500D01*
X162253325Y-87255500D01*
X162163166Y-87279659D01*
X162082329Y-87326330D01*
X162075781Y-87331355D01*
X162075509Y-87331001D01*
X162058675Y-87343918D01*
X162057472Y-87344612D01*
X162056233Y-87345328D01*
X162056228Y-87345332D01*
X161152966Y-88248595D01*
X161090654Y-88282621D01*
X161063871Y-88285500D01*
X157992603Y-88285500D01*
X157924482Y-88265498D01*
X157877989Y-88211842D01*
X157876194Y-88207719D01*
X157855810Y-88158507D01*
X157744567Y-87992019D01*
X157744565Y-87992017D01*
X157744560Y-87992011D01*
X157602988Y-87850439D01*
X157602982Y-87850434D01*
X157602981Y-87850433D01*
X157436493Y-87739190D01*
X157319839Y-87690870D01*
X157251505Y-87662565D01*
X157251502Y-87662564D01*
X157055119Y-87623500D01*
X157055116Y-87623500D01*
X156854884Y-87623500D01*
X156854880Y-87623500D01*
X156658497Y-87662564D01*
X156658494Y-87662565D01*
X156473507Y-87739190D01*
X156307017Y-87850434D01*
X156307011Y-87850439D01*
X156300565Y-87856886D01*
X156238253Y-87890912D01*
X156167438Y-87885847D01*
X156110602Y-87843300D01*
X156085791Y-87776780D01*
X156085470Y-87767791D01*
X156085470Y-87110520D01*
X156105472Y-87042399D01*
X156159128Y-86995906D01*
X156229402Y-86985802D01*
X156270871Y-86999401D01*
X156273505Y-87000809D01*
X156273506Y-87000809D01*
X156273507Y-87000810D01*
X156458498Y-87077436D01*
X156654884Y-87116500D01*
X156855116Y-87116500D01*
X157051502Y-87077436D01*
X157236493Y-87000810D01*
X157402981Y-86889567D01*
X157544567Y-86747981D01*
X157655810Y-86581493D01*
X157676194Y-86532280D01*
X157720743Y-86477001D01*
X157788106Y-86454580D01*
X157792603Y-86454500D01*
X164405171Y-86454500D01*
X164473292Y-86474502D01*
G37*
%TD.AperFunction*%
%TD*%
M02*
