%TF.GenerationSoftware,KiCad,Pcbnew,8.0.4-1.fc40*%
%TF.CreationDate,2024-10-03T17:07:43+05:30*%
%TF.ProjectId,zepto,7a657074-6f2e-46b6-9963-61645f706362,Mark3*%
%TF.SameCoordinates,Original*%
%TF.FileFunction,Legend,Bot*%
%TF.FilePolarity,Positive*%
%FSLAX46Y46*%
G04 Gerber Fmt 4.6, Leading zero omitted, Abs format (unit mm)*
G04 Created by KiCad (PCBNEW 8.0.4-1.fc40) date 2024-10-03 17:07:43*
%MOMM*%
%LPD*%
G01*
G04 APERTURE LIST*
%ADD10C,0.200000*%
%ADD11C,0.140000*%
%ADD12C,0.000000*%
G04 APERTURE END LIST*
D10*
X155650000Y-95000000D02*
X157850000Y-95000000D01*
X158650000Y-95000000D02*
X160850000Y-95000000D01*
X161650000Y-95000000D02*
X163850000Y-95000000D01*
X164650000Y-95000000D02*
X166850000Y-95000000D01*
X167650000Y-95000000D02*
X169850000Y-95000000D01*
X170650000Y-95000000D02*
X172850000Y-95000000D01*
X173650000Y-95000000D02*
X175850000Y-95000000D01*
X176650000Y-95000000D02*
X178850000Y-95000000D01*
X179650000Y-95000000D02*
X180850000Y-95000000D01*
D11*
X178241228Y-104251853D02*
X178241228Y-103551853D01*
X178241228Y-103551853D02*
X177974561Y-103551853D01*
X177974561Y-103551853D02*
X177907895Y-103585186D01*
X177907895Y-103585186D02*
X177874561Y-103618520D01*
X177874561Y-103618520D02*
X177841228Y-103685186D01*
X177841228Y-103685186D02*
X177841228Y-103785186D01*
X177841228Y-103785186D02*
X177874561Y-103851853D01*
X177874561Y-103851853D02*
X177907895Y-103885186D01*
X177907895Y-103885186D02*
X177974561Y-103918520D01*
X177974561Y-103918520D02*
X178241228Y-103918520D01*
X177574561Y-104051853D02*
X177241228Y-104051853D01*
X177641228Y-104251853D02*
X177407895Y-103551853D01*
X177407895Y-103551853D02*
X177174561Y-104251853D01*
X176641228Y-103551853D02*
X176774561Y-103551853D01*
X176774561Y-103551853D02*
X176841228Y-103585186D01*
X176841228Y-103585186D02*
X176874561Y-103618520D01*
X176874561Y-103618520D02*
X176941228Y-103718520D01*
X176941228Y-103718520D02*
X176974561Y-103851853D01*
X176974561Y-103851853D02*
X176974561Y-104118520D01*
X176974561Y-104118520D02*
X176941228Y-104185186D01*
X176941228Y-104185186D02*
X176907895Y-104218520D01*
X176907895Y-104218520D02*
X176841228Y-104251853D01*
X176841228Y-104251853D02*
X176707895Y-104251853D01*
X176707895Y-104251853D02*
X176641228Y-104218520D01*
X176641228Y-104218520D02*
X176607895Y-104185186D01*
X176607895Y-104185186D02*
X176574561Y-104118520D01*
X176574561Y-104118520D02*
X176574561Y-103951853D01*
X176574561Y-103951853D02*
X176607895Y-103885186D01*
X176607895Y-103885186D02*
X176641228Y-103851853D01*
X176641228Y-103851853D02*
X176707895Y-103818520D01*
X176707895Y-103818520D02*
X176841228Y-103818520D01*
X176841228Y-103818520D02*
X176907895Y-103851853D01*
X176907895Y-103851853D02*
X176941228Y-103885186D01*
X176941228Y-103885186D02*
X176974561Y-103951853D01*
X178241228Y-96631853D02*
X178241228Y-95931853D01*
X178241228Y-95931853D02*
X177974561Y-95931853D01*
X177974561Y-95931853D02*
X177907895Y-95965186D01*
X177907895Y-95965186D02*
X177874561Y-95998520D01*
X177874561Y-95998520D02*
X177841228Y-96065186D01*
X177841228Y-96065186D02*
X177841228Y-96165186D01*
X177841228Y-96165186D02*
X177874561Y-96231853D01*
X177874561Y-96231853D02*
X177907895Y-96265186D01*
X177907895Y-96265186D02*
X177974561Y-96298520D01*
X177974561Y-96298520D02*
X178241228Y-96298520D01*
X177574561Y-96431853D02*
X177241228Y-96431853D01*
X177641228Y-96631853D02*
X177407895Y-95931853D01*
X177407895Y-95931853D02*
X177174561Y-96631853D01*
X176974561Y-95998520D02*
X176941228Y-95965186D01*
X176941228Y-95965186D02*
X176874561Y-95931853D01*
X176874561Y-95931853D02*
X176707895Y-95931853D01*
X176707895Y-95931853D02*
X176641228Y-95965186D01*
X176641228Y-95965186D02*
X176607895Y-95998520D01*
X176607895Y-95998520D02*
X176574561Y-96065186D01*
X176574561Y-96065186D02*
X176574561Y-96131853D01*
X176574561Y-96131853D02*
X176607895Y-96231853D01*
X176607895Y-96231853D02*
X177007895Y-96631853D01*
X177007895Y-96631853D02*
X176574561Y-96631853D01*
X176341228Y-95931853D02*
X175874561Y-95931853D01*
X175874561Y-95931853D02*
X176174561Y-96631853D01*
X175107894Y-95898520D02*
X175707894Y-96798520D01*
X174907894Y-96431853D02*
X174574561Y-96431853D01*
X174974561Y-96631853D02*
X174741228Y-95931853D01*
X174741228Y-95931853D02*
X174507894Y-96631853D01*
X174141228Y-95931853D02*
X174074561Y-95931853D01*
X174074561Y-95931853D02*
X174007894Y-95965186D01*
X174007894Y-95965186D02*
X173974561Y-95998520D01*
X173974561Y-95998520D02*
X173941228Y-96065186D01*
X173941228Y-96065186D02*
X173907894Y-96198520D01*
X173907894Y-96198520D02*
X173907894Y-96365186D01*
X173907894Y-96365186D02*
X173941228Y-96498520D01*
X173941228Y-96498520D02*
X173974561Y-96565186D01*
X173974561Y-96565186D02*
X174007894Y-96598520D01*
X174007894Y-96598520D02*
X174074561Y-96631853D01*
X174074561Y-96631853D02*
X174141228Y-96631853D01*
X174141228Y-96631853D02*
X174207894Y-96598520D01*
X174207894Y-96598520D02*
X174241228Y-96565186D01*
X174241228Y-96565186D02*
X174274561Y-96498520D01*
X174274561Y-96498520D02*
X174307894Y-96365186D01*
X174307894Y-96365186D02*
X174307894Y-96198520D01*
X174307894Y-96198520D02*
X174274561Y-96065186D01*
X174274561Y-96065186D02*
X174241228Y-95998520D01*
X174241228Y-95998520D02*
X174207894Y-95965186D01*
X174207894Y-95965186D02*
X174141228Y-95931853D01*
X178241228Y-101711853D02*
X178241228Y-101011853D01*
X178241228Y-101011853D02*
X177974561Y-101011853D01*
X177974561Y-101011853D02*
X177907895Y-101045186D01*
X177907895Y-101045186D02*
X177874561Y-101078520D01*
X177874561Y-101078520D02*
X177841228Y-101145186D01*
X177841228Y-101145186D02*
X177841228Y-101245186D01*
X177841228Y-101245186D02*
X177874561Y-101311853D01*
X177874561Y-101311853D02*
X177907895Y-101345186D01*
X177907895Y-101345186D02*
X177974561Y-101378520D01*
X177974561Y-101378520D02*
X178241228Y-101378520D01*
X177574561Y-101511853D02*
X177241228Y-101511853D01*
X177641228Y-101711853D02*
X177407895Y-101011853D01*
X177407895Y-101011853D02*
X177174561Y-101711853D01*
X177007895Y-101011853D02*
X176574561Y-101011853D01*
X176574561Y-101011853D02*
X176807895Y-101278520D01*
X176807895Y-101278520D02*
X176707895Y-101278520D01*
X176707895Y-101278520D02*
X176641228Y-101311853D01*
X176641228Y-101311853D02*
X176607895Y-101345186D01*
X176607895Y-101345186D02*
X176574561Y-101411853D01*
X176574561Y-101411853D02*
X176574561Y-101578520D01*
X176574561Y-101578520D02*
X176607895Y-101645186D01*
X176607895Y-101645186D02*
X176641228Y-101678520D01*
X176641228Y-101678520D02*
X176707895Y-101711853D01*
X176707895Y-101711853D02*
X176907895Y-101711853D01*
X176907895Y-101711853D02*
X176974561Y-101678520D01*
X176974561Y-101678520D02*
X177007895Y-101645186D01*
X162591229Y-106791853D02*
X162591229Y-106091853D01*
X162591229Y-106091853D02*
X162324562Y-106091853D01*
X162324562Y-106091853D02*
X162257896Y-106125186D01*
X162257896Y-106125186D02*
X162224562Y-106158520D01*
X162224562Y-106158520D02*
X162191229Y-106225186D01*
X162191229Y-106225186D02*
X162191229Y-106325186D01*
X162191229Y-106325186D02*
X162224562Y-106391853D01*
X162224562Y-106391853D02*
X162257896Y-106425186D01*
X162257896Y-106425186D02*
X162324562Y-106458520D01*
X162324562Y-106458520D02*
X162591229Y-106458520D01*
X161924562Y-106591853D02*
X161591229Y-106591853D01*
X161991229Y-106791853D02*
X161757896Y-106091853D01*
X161757896Y-106091853D02*
X161524562Y-106791853D01*
X160924562Y-106791853D02*
X161324562Y-106791853D01*
X161124562Y-106791853D02*
X161124562Y-106091853D01*
X161124562Y-106091853D02*
X161191229Y-106191853D01*
X161191229Y-106191853D02*
X161257896Y-106258520D01*
X161257896Y-106258520D02*
X161324562Y-106291853D01*
X160291229Y-106091853D02*
X160624562Y-106091853D01*
X160624562Y-106091853D02*
X160657895Y-106425186D01*
X160657895Y-106425186D02*
X160624562Y-106391853D01*
X160624562Y-106391853D02*
X160557895Y-106358520D01*
X160557895Y-106358520D02*
X160391229Y-106358520D01*
X160391229Y-106358520D02*
X160324562Y-106391853D01*
X160324562Y-106391853D02*
X160291229Y-106425186D01*
X160291229Y-106425186D02*
X160257895Y-106491853D01*
X160257895Y-106491853D02*
X160257895Y-106658520D01*
X160257895Y-106658520D02*
X160291229Y-106725186D01*
X160291229Y-106725186D02*
X160324562Y-106758520D01*
X160324562Y-106758520D02*
X160391229Y-106791853D01*
X160391229Y-106791853D02*
X160557895Y-106791853D01*
X160557895Y-106791853D02*
X160624562Y-106758520D01*
X160624562Y-106758520D02*
X160657895Y-106725186D01*
X159457895Y-106058520D02*
X160057895Y-106958520D01*
X159257895Y-106591853D02*
X158924562Y-106591853D01*
X159324562Y-106791853D02*
X159091229Y-106091853D01*
X159091229Y-106091853D02*
X158857895Y-106791853D01*
X158591229Y-106791853D02*
X158457895Y-106791853D01*
X158457895Y-106791853D02*
X158391229Y-106758520D01*
X158391229Y-106758520D02*
X158357895Y-106725186D01*
X158357895Y-106725186D02*
X158291229Y-106625186D01*
X158291229Y-106625186D02*
X158257895Y-106491853D01*
X158257895Y-106491853D02*
X158257895Y-106225186D01*
X158257895Y-106225186D02*
X158291229Y-106158520D01*
X158291229Y-106158520D02*
X158324562Y-106125186D01*
X158324562Y-106125186D02*
X158391229Y-106091853D01*
X158391229Y-106091853D02*
X158524562Y-106091853D01*
X158524562Y-106091853D02*
X158591229Y-106125186D01*
X158591229Y-106125186D02*
X158624562Y-106158520D01*
X158624562Y-106158520D02*
X158657895Y-106225186D01*
X158657895Y-106225186D02*
X158657895Y-106391853D01*
X158657895Y-106391853D02*
X158624562Y-106458520D01*
X158624562Y-106458520D02*
X158591229Y-106491853D01*
X158591229Y-106491853D02*
X158524562Y-106525186D01*
X158524562Y-106525186D02*
X158391229Y-106525186D01*
X158391229Y-106525186D02*
X158324562Y-106491853D01*
X158324562Y-106491853D02*
X158291229Y-106458520D01*
X158291229Y-106458520D02*
X158257895Y-106391853D01*
X160591229Y-89011853D02*
X160591229Y-88311853D01*
X160591229Y-88311853D02*
X160324562Y-88311853D01*
X160324562Y-88311853D02*
X160257896Y-88345186D01*
X160257896Y-88345186D02*
X160224562Y-88378520D01*
X160224562Y-88378520D02*
X160191229Y-88445186D01*
X160191229Y-88445186D02*
X160191229Y-88545186D01*
X160191229Y-88545186D02*
X160224562Y-88611853D01*
X160224562Y-88611853D02*
X160257896Y-88645186D01*
X160257896Y-88645186D02*
X160324562Y-88678520D01*
X160324562Y-88678520D02*
X160591229Y-88678520D01*
X159924562Y-88811853D02*
X159591229Y-88811853D01*
X159991229Y-89011853D02*
X159757896Y-88311853D01*
X159757896Y-88311853D02*
X159524562Y-89011853D01*
X158924562Y-89011853D02*
X159324562Y-89011853D01*
X159124562Y-89011853D02*
X159124562Y-88311853D01*
X159124562Y-88311853D02*
X159191229Y-88411853D01*
X159191229Y-88411853D02*
X159257896Y-88478520D01*
X159257896Y-88478520D02*
X159324562Y-88511853D01*
X158691229Y-88311853D02*
X158224562Y-88311853D01*
X158224562Y-88311853D02*
X158524562Y-89011853D01*
X178241228Y-99171853D02*
X178241228Y-98471853D01*
X178241228Y-98471853D02*
X177974561Y-98471853D01*
X177974561Y-98471853D02*
X177907895Y-98505186D01*
X177907895Y-98505186D02*
X177874561Y-98538520D01*
X177874561Y-98538520D02*
X177841228Y-98605186D01*
X177841228Y-98605186D02*
X177841228Y-98705186D01*
X177841228Y-98705186D02*
X177874561Y-98771853D01*
X177874561Y-98771853D02*
X177907895Y-98805186D01*
X177907895Y-98805186D02*
X177974561Y-98838520D01*
X177974561Y-98838520D02*
X178241228Y-98838520D01*
X177574561Y-98971853D02*
X177241228Y-98971853D01*
X177641228Y-99171853D02*
X177407895Y-98471853D01*
X177407895Y-98471853D02*
X177174561Y-99171853D01*
X176574561Y-99171853D02*
X176974561Y-99171853D01*
X176774561Y-99171853D02*
X176774561Y-98471853D01*
X176774561Y-98471853D02*
X176841228Y-98571853D01*
X176841228Y-98571853D02*
X176907895Y-98638520D01*
X176907895Y-98638520D02*
X176974561Y-98671853D01*
X176141228Y-98471853D02*
X176074561Y-98471853D01*
X176074561Y-98471853D02*
X176007894Y-98505186D01*
X176007894Y-98505186D02*
X175974561Y-98538520D01*
X175974561Y-98538520D02*
X175941228Y-98605186D01*
X175941228Y-98605186D02*
X175907894Y-98738520D01*
X175907894Y-98738520D02*
X175907894Y-98905186D01*
X175907894Y-98905186D02*
X175941228Y-99038520D01*
X175941228Y-99038520D02*
X175974561Y-99105186D01*
X175974561Y-99105186D02*
X176007894Y-99138520D01*
X176007894Y-99138520D02*
X176074561Y-99171853D01*
X176074561Y-99171853D02*
X176141228Y-99171853D01*
X176141228Y-99171853D02*
X176207894Y-99138520D01*
X176207894Y-99138520D02*
X176241228Y-99105186D01*
X176241228Y-99105186D02*
X176274561Y-99038520D01*
X176274561Y-99038520D02*
X176307894Y-98905186D01*
X176307894Y-98905186D02*
X176307894Y-98738520D01*
X176307894Y-98738520D02*
X176274561Y-98605186D01*
X176274561Y-98605186D02*
X176241228Y-98538520D01*
X176241228Y-98538520D02*
X176207894Y-98505186D01*
X176207894Y-98505186D02*
X176141228Y-98471853D01*
X160591229Y-91551853D02*
X160591229Y-90851853D01*
X160591229Y-90851853D02*
X160324562Y-90851853D01*
X160324562Y-90851853D02*
X160257896Y-90885186D01*
X160257896Y-90885186D02*
X160224562Y-90918520D01*
X160224562Y-90918520D02*
X160191229Y-90985186D01*
X160191229Y-90985186D02*
X160191229Y-91085186D01*
X160191229Y-91085186D02*
X160224562Y-91151853D01*
X160224562Y-91151853D02*
X160257896Y-91185186D01*
X160257896Y-91185186D02*
X160324562Y-91218520D01*
X160324562Y-91218520D02*
X160591229Y-91218520D01*
X159924562Y-91351853D02*
X159591229Y-91351853D01*
X159991229Y-91551853D02*
X159757896Y-90851853D01*
X159757896Y-90851853D02*
X159524562Y-91551853D01*
X158924562Y-91551853D02*
X159324562Y-91551853D01*
X159124562Y-91551853D02*
X159124562Y-90851853D01*
X159124562Y-90851853D02*
X159191229Y-90951853D01*
X159191229Y-90951853D02*
X159257896Y-91018520D01*
X159257896Y-91018520D02*
X159324562Y-91051853D01*
X158691229Y-90851853D02*
X158257895Y-90851853D01*
X158257895Y-90851853D02*
X158491229Y-91118520D01*
X158491229Y-91118520D02*
X158391229Y-91118520D01*
X158391229Y-91118520D02*
X158324562Y-91151853D01*
X158324562Y-91151853D02*
X158291229Y-91185186D01*
X158291229Y-91185186D02*
X158257895Y-91251853D01*
X158257895Y-91251853D02*
X158257895Y-91418520D01*
X158257895Y-91418520D02*
X158291229Y-91485186D01*
X158291229Y-91485186D02*
X158324562Y-91518520D01*
X158324562Y-91518520D02*
X158391229Y-91551853D01*
X158391229Y-91551853D02*
X158591229Y-91551853D01*
X158591229Y-91551853D02*
X158657895Y-91518520D01*
X158657895Y-91518520D02*
X158691229Y-91485186D01*
X159924562Y-104251853D02*
X159924562Y-103551853D01*
X159924562Y-103551853D02*
X159657895Y-103551853D01*
X159657895Y-103551853D02*
X159591229Y-103585186D01*
X159591229Y-103585186D02*
X159557895Y-103618520D01*
X159557895Y-103618520D02*
X159524562Y-103685186D01*
X159524562Y-103685186D02*
X159524562Y-103785186D01*
X159524562Y-103785186D02*
X159557895Y-103851853D01*
X159557895Y-103851853D02*
X159591229Y-103885186D01*
X159591229Y-103885186D02*
X159657895Y-103918520D01*
X159657895Y-103918520D02*
X159924562Y-103918520D01*
X159257895Y-104051853D02*
X158924562Y-104051853D01*
X159324562Y-104251853D02*
X159091229Y-103551853D01*
X159091229Y-103551853D02*
X158857895Y-104251853D01*
X158591229Y-104251853D02*
X158457895Y-104251853D01*
X158457895Y-104251853D02*
X158391229Y-104218520D01*
X158391229Y-104218520D02*
X158357895Y-104185186D01*
X158357895Y-104185186D02*
X158291229Y-104085186D01*
X158291229Y-104085186D02*
X158257895Y-103951853D01*
X158257895Y-103951853D02*
X158257895Y-103685186D01*
X158257895Y-103685186D02*
X158291229Y-103618520D01*
X158291229Y-103618520D02*
X158324562Y-103585186D01*
X158324562Y-103585186D02*
X158391229Y-103551853D01*
X158391229Y-103551853D02*
X158524562Y-103551853D01*
X158524562Y-103551853D02*
X158591229Y-103585186D01*
X158591229Y-103585186D02*
X158624562Y-103618520D01*
X158624562Y-103618520D02*
X158657895Y-103685186D01*
X158657895Y-103685186D02*
X158657895Y-103851853D01*
X158657895Y-103851853D02*
X158624562Y-103918520D01*
X158624562Y-103918520D02*
X158591229Y-103951853D01*
X158591229Y-103951853D02*
X158524562Y-103985186D01*
X158524562Y-103985186D02*
X158391229Y-103985186D01*
X158391229Y-103985186D02*
X158324562Y-103951853D01*
X158324562Y-103951853D02*
X158291229Y-103918520D01*
X158291229Y-103918520D02*
X158257895Y-103851853D01*
X178241228Y-91551853D02*
X178241228Y-90851853D01*
X178241228Y-90851853D02*
X177974561Y-90851853D01*
X177974561Y-90851853D02*
X177907895Y-90885186D01*
X177907895Y-90885186D02*
X177874561Y-90918520D01*
X177874561Y-90918520D02*
X177841228Y-90985186D01*
X177841228Y-90985186D02*
X177841228Y-91085186D01*
X177841228Y-91085186D02*
X177874561Y-91151853D01*
X177874561Y-91151853D02*
X177907895Y-91185186D01*
X177907895Y-91185186D02*
X177974561Y-91218520D01*
X177974561Y-91218520D02*
X178241228Y-91218520D01*
X177574561Y-91351853D02*
X177241228Y-91351853D01*
X177641228Y-91551853D02*
X177407895Y-90851853D01*
X177407895Y-90851853D02*
X177174561Y-91551853D01*
X176974561Y-90918520D02*
X176941228Y-90885186D01*
X176941228Y-90885186D02*
X176874561Y-90851853D01*
X176874561Y-90851853D02*
X176707895Y-90851853D01*
X176707895Y-90851853D02*
X176641228Y-90885186D01*
X176641228Y-90885186D02*
X176607895Y-90918520D01*
X176607895Y-90918520D02*
X176574561Y-90985186D01*
X176574561Y-90985186D02*
X176574561Y-91051853D01*
X176574561Y-91051853D02*
X176607895Y-91151853D01*
X176607895Y-91151853D02*
X177007895Y-91551853D01*
X177007895Y-91551853D02*
X176574561Y-91551853D01*
X175941228Y-90851853D02*
X176274561Y-90851853D01*
X176274561Y-90851853D02*
X176307894Y-91185186D01*
X176307894Y-91185186D02*
X176274561Y-91151853D01*
X176274561Y-91151853D02*
X176207894Y-91118520D01*
X176207894Y-91118520D02*
X176041228Y-91118520D01*
X176041228Y-91118520D02*
X175974561Y-91151853D01*
X175974561Y-91151853D02*
X175941228Y-91185186D01*
X175941228Y-91185186D02*
X175907894Y-91251853D01*
X175907894Y-91251853D02*
X175907894Y-91418520D01*
X175907894Y-91418520D02*
X175941228Y-91485186D01*
X175941228Y-91485186D02*
X175974561Y-91518520D01*
X175974561Y-91518520D02*
X176041228Y-91551853D01*
X176041228Y-91551853D02*
X176207894Y-91551853D01*
X176207894Y-91551853D02*
X176274561Y-91518520D01*
X176274561Y-91518520D02*
X176307894Y-91485186D01*
X175107894Y-90818520D02*
X175707894Y-91718520D01*
X174907894Y-91351853D02*
X174574561Y-91351853D01*
X174974561Y-91551853D02*
X174741228Y-90851853D01*
X174741228Y-90851853D02*
X174507894Y-91551853D01*
X174307894Y-90918520D02*
X174274561Y-90885186D01*
X174274561Y-90885186D02*
X174207894Y-90851853D01*
X174207894Y-90851853D02*
X174041228Y-90851853D01*
X174041228Y-90851853D02*
X173974561Y-90885186D01*
X173974561Y-90885186D02*
X173941228Y-90918520D01*
X173941228Y-90918520D02*
X173907894Y-90985186D01*
X173907894Y-90985186D02*
X173907894Y-91051853D01*
X173907894Y-91051853D02*
X173941228Y-91151853D01*
X173941228Y-91151853D02*
X174341228Y-91551853D01*
X174341228Y-91551853D02*
X173907894Y-91551853D01*
X160591229Y-99171853D02*
X160591229Y-98471853D01*
X160591229Y-98471853D02*
X160324562Y-98471853D01*
X160324562Y-98471853D02*
X160257896Y-98505186D01*
X160257896Y-98505186D02*
X160224562Y-98538520D01*
X160224562Y-98538520D02*
X160191229Y-98605186D01*
X160191229Y-98605186D02*
X160191229Y-98705186D01*
X160191229Y-98705186D02*
X160224562Y-98771853D01*
X160224562Y-98771853D02*
X160257896Y-98805186D01*
X160257896Y-98805186D02*
X160324562Y-98838520D01*
X160324562Y-98838520D02*
X160591229Y-98838520D01*
X159924562Y-98971853D02*
X159591229Y-98971853D01*
X159991229Y-99171853D02*
X159757896Y-98471853D01*
X159757896Y-98471853D02*
X159524562Y-99171853D01*
X158924562Y-99171853D02*
X159324562Y-99171853D01*
X159124562Y-99171853D02*
X159124562Y-98471853D01*
X159124562Y-98471853D02*
X159191229Y-98571853D01*
X159191229Y-98571853D02*
X159257896Y-98638520D01*
X159257896Y-98638520D02*
X159324562Y-98671853D01*
X158257895Y-99171853D02*
X158657895Y-99171853D01*
X158457895Y-99171853D02*
X158457895Y-98471853D01*
X158457895Y-98471853D02*
X158524562Y-98571853D01*
X158524562Y-98571853D02*
X158591229Y-98638520D01*
X158591229Y-98638520D02*
X158657895Y-98671853D01*
X178241228Y-94091853D02*
X178241228Y-93391853D01*
X178241228Y-93391853D02*
X177974561Y-93391853D01*
X177974561Y-93391853D02*
X177907895Y-93425186D01*
X177907895Y-93425186D02*
X177874561Y-93458520D01*
X177874561Y-93458520D02*
X177841228Y-93525186D01*
X177841228Y-93525186D02*
X177841228Y-93625186D01*
X177841228Y-93625186D02*
X177874561Y-93691853D01*
X177874561Y-93691853D02*
X177907895Y-93725186D01*
X177907895Y-93725186D02*
X177974561Y-93758520D01*
X177974561Y-93758520D02*
X178241228Y-93758520D01*
X177574561Y-93891853D02*
X177241228Y-93891853D01*
X177641228Y-94091853D02*
X177407895Y-93391853D01*
X177407895Y-93391853D02*
X177174561Y-94091853D01*
X176974561Y-93458520D02*
X176941228Y-93425186D01*
X176941228Y-93425186D02*
X176874561Y-93391853D01*
X176874561Y-93391853D02*
X176707895Y-93391853D01*
X176707895Y-93391853D02*
X176641228Y-93425186D01*
X176641228Y-93425186D02*
X176607895Y-93458520D01*
X176607895Y-93458520D02*
X176574561Y-93525186D01*
X176574561Y-93525186D02*
X176574561Y-93591853D01*
X176574561Y-93591853D02*
X176607895Y-93691853D01*
X176607895Y-93691853D02*
X177007895Y-94091853D01*
X177007895Y-94091853D02*
X176574561Y-94091853D01*
X175974561Y-93391853D02*
X176107894Y-93391853D01*
X176107894Y-93391853D02*
X176174561Y-93425186D01*
X176174561Y-93425186D02*
X176207894Y-93458520D01*
X176207894Y-93458520D02*
X176274561Y-93558520D01*
X176274561Y-93558520D02*
X176307894Y-93691853D01*
X176307894Y-93691853D02*
X176307894Y-93958520D01*
X176307894Y-93958520D02*
X176274561Y-94025186D01*
X176274561Y-94025186D02*
X176241228Y-94058520D01*
X176241228Y-94058520D02*
X176174561Y-94091853D01*
X176174561Y-94091853D02*
X176041228Y-94091853D01*
X176041228Y-94091853D02*
X175974561Y-94058520D01*
X175974561Y-94058520D02*
X175941228Y-94025186D01*
X175941228Y-94025186D02*
X175907894Y-93958520D01*
X175907894Y-93958520D02*
X175907894Y-93791853D01*
X175907894Y-93791853D02*
X175941228Y-93725186D01*
X175941228Y-93725186D02*
X175974561Y-93691853D01*
X175974561Y-93691853D02*
X176041228Y-93658520D01*
X176041228Y-93658520D02*
X176174561Y-93658520D01*
X176174561Y-93658520D02*
X176241228Y-93691853D01*
X176241228Y-93691853D02*
X176274561Y-93725186D01*
X176274561Y-93725186D02*
X176307894Y-93791853D01*
X175107894Y-93358520D02*
X175707894Y-94258520D01*
X174907894Y-93891853D02*
X174574561Y-93891853D01*
X174974561Y-94091853D02*
X174741228Y-93391853D01*
X174741228Y-93391853D02*
X174507894Y-94091853D01*
X173907894Y-94091853D02*
X174307894Y-94091853D01*
X174107894Y-94091853D02*
X174107894Y-93391853D01*
X174107894Y-93391853D02*
X174174561Y-93491853D01*
X174174561Y-93491853D02*
X174241228Y-93558520D01*
X174241228Y-93558520D02*
X174307894Y-93591853D01*
X160591229Y-94091853D02*
X160591229Y-93391853D01*
X160591229Y-93391853D02*
X160324562Y-93391853D01*
X160324562Y-93391853D02*
X160257896Y-93425186D01*
X160257896Y-93425186D02*
X160224562Y-93458520D01*
X160224562Y-93458520D02*
X160191229Y-93525186D01*
X160191229Y-93525186D02*
X160191229Y-93625186D01*
X160191229Y-93625186D02*
X160224562Y-93691853D01*
X160224562Y-93691853D02*
X160257896Y-93725186D01*
X160257896Y-93725186D02*
X160324562Y-93758520D01*
X160324562Y-93758520D02*
X160591229Y-93758520D01*
X159924562Y-93891853D02*
X159591229Y-93891853D01*
X159991229Y-94091853D02*
X159757896Y-93391853D01*
X159757896Y-93391853D02*
X159524562Y-94091853D01*
X158924562Y-94091853D02*
X159324562Y-94091853D01*
X159124562Y-94091853D02*
X159124562Y-93391853D01*
X159124562Y-93391853D02*
X159191229Y-93491853D01*
X159191229Y-93491853D02*
X159257896Y-93558520D01*
X159257896Y-93558520D02*
X159324562Y-93591853D01*
X158657895Y-93458520D02*
X158624562Y-93425186D01*
X158624562Y-93425186D02*
X158557895Y-93391853D01*
X158557895Y-93391853D02*
X158391229Y-93391853D01*
X158391229Y-93391853D02*
X158324562Y-93425186D01*
X158324562Y-93425186D02*
X158291229Y-93458520D01*
X158291229Y-93458520D02*
X158257895Y-93525186D01*
X158257895Y-93525186D02*
X158257895Y-93591853D01*
X158257895Y-93591853D02*
X158291229Y-93691853D01*
X158291229Y-93691853D02*
X158691229Y-94091853D01*
X158691229Y-94091853D02*
X158257895Y-94091853D01*
X178241228Y-109331853D02*
X178241228Y-108631853D01*
X178241228Y-108631853D02*
X177974561Y-108631853D01*
X177974561Y-108631853D02*
X177907895Y-108665186D01*
X177907895Y-108665186D02*
X177874561Y-108698520D01*
X177874561Y-108698520D02*
X177841228Y-108765186D01*
X177841228Y-108765186D02*
X177841228Y-108865186D01*
X177841228Y-108865186D02*
X177874561Y-108931853D01*
X177874561Y-108931853D02*
X177907895Y-108965186D01*
X177907895Y-108965186D02*
X177974561Y-108998520D01*
X177974561Y-108998520D02*
X178241228Y-108998520D01*
X177574561Y-109131853D02*
X177241228Y-109131853D01*
X177641228Y-109331853D02*
X177407895Y-108631853D01*
X177407895Y-108631853D02*
X177174561Y-109331853D01*
X176607895Y-108631853D02*
X176941228Y-108631853D01*
X176941228Y-108631853D02*
X176974561Y-108965186D01*
X176974561Y-108965186D02*
X176941228Y-108931853D01*
X176941228Y-108931853D02*
X176874561Y-108898520D01*
X176874561Y-108898520D02*
X176707895Y-108898520D01*
X176707895Y-108898520D02*
X176641228Y-108931853D01*
X176641228Y-108931853D02*
X176607895Y-108965186D01*
X176607895Y-108965186D02*
X176574561Y-109031853D01*
X176574561Y-109031853D02*
X176574561Y-109198520D01*
X176574561Y-109198520D02*
X176607895Y-109265186D01*
X176607895Y-109265186D02*
X176641228Y-109298520D01*
X176641228Y-109298520D02*
X176707895Y-109331853D01*
X176707895Y-109331853D02*
X176874561Y-109331853D01*
X176874561Y-109331853D02*
X176941228Y-109298520D01*
X176941228Y-109298520D02*
X176974561Y-109265186D01*
X178241228Y-106791853D02*
X178241228Y-106091853D01*
X178241228Y-106091853D02*
X177974561Y-106091853D01*
X177974561Y-106091853D02*
X177907895Y-106125186D01*
X177907895Y-106125186D02*
X177874561Y-106158520D01*
X177874561Y-106158520D02*
X177841228Y-106225186D01*
X177841228Y-106225186D02*
X177841228Y-106325186D01*
X177841228Y-106325186D02*
X177874561Y-106391853D01*
X177874561Y-106391853D02*
X177907895Y-106425186D01*
X177907895Y-106425186D02*
X177974561Y-106458520D01*
X177974561Y-106458520D02*
X178241228Y-106458520D01*
X177574561Y-106591853D02*
X177241228Y-106591853D01*
X177641228Y-106791853D02*
X177407895Y-106091853D01*
X177407895Y-106091853D02*
X177174561Y-106791853D01*
X176641228Y-106325186D02*
X176641228Y-106791853D01*
X176807895Y-106058520D02*
X176974561Y-106558520D01*
X176974561Y-106558520D02*
X176541228Y-106558520D01*
X178241228Y-86471853D02*
X178241228Y-85771853D01*
X178241228Y-85771853D02*
X177974561Y-85771853D01*
X177974561Y-85771853D02*
X177907895Y-85805186D01*
X177907895Y-85805186D02*
X177874561Y-85838520D01*
X177874561Y-85838520D02*
X177841228Y-85905186D01*
X177841228Y-85905186D02*
X177841228Y-86005186D01*
X177841228Y-86005186D02*
X177874561Y-86071853D01*
X177874561Y-86071853D02*
X177907895Y-86105186D01*
X177907895Y-86105186D02*
X177974561Y-86138520D01*
X177974561Y-86138520D02*
X178241228Y-86138520D01*
X177574561Y-86271853D02*
X177241228Y-86271853D01*
X177641228Y-86471853D02*
X177407895Y-85771853D01*
X177407895Y-85771853D02*
X177174561Y-86471853D01*
X176974561Y-85838520D02*
X176941228Y-85805186D01*
X176941228Y-85805186D02*
X176874561Y-85771853D01*
X176874561Y-85771853D02*
X176707895Y-85771853D01*
X176707895Y-85771853D02*
X176641228Y-85805186D01*
X176641228Y-85805186D02*
X176607895Y-85838520D01*
X176607895Y-85838520D02*
X176574561Y-85905186D01*
X176574561Y-85905186D02*
X176574561Y-85971853D01*
X176574561Y-85971853D02*
X176607895Y-86071853D01*
X176607895Y-86071853D02*
X177007895Y-86471853D01*
X177007895Y-86471853D02*
X176574561Y-86471853D01*
X175907894Y-86471853D02*
X176307894Y-86471853D01*
X176107894Y-86471853D02*
X176107894Y-85771853D01*
X176107894Y-85771853D02*
X176174561Y-85871853D01*
X176174561Y-85871853D02*
X176241228Y-85938520D01*
X176241228Y-85938520D02*
X176307894Y-85971853D01*
X175107894Y-85738520D02*
X175707894Y-86638520D01*
X174907894Y-86271853D02*
X174574561Y-86271853D01*
X174974561Y-86471853D02*
X174741228Y-85771853D01*
X174741228Y-85771853D02*
X174507894Y-86471853D01*
X173941228Y-85771853D02*
X174274561Y-85771853D01*
X174274561Y-85771853D02*
X174307894Y-86105186D01*
X174307894Y-86105186D02*
X174274561Y-86071853D01*
X174274561Y-86071853D02*
X174207894Y-86038520D01*
X174207894Y-86038520D02*
X174041228Y-86038520D01*
X174041228Y-86038520D02*
X173974561Y-86071853D01*
X173974561Y-86071853D02*
X173941228Y-86105186D01*
X173941228Y-86105186D02*
X173907894Y-86171853D01*
X173907894Y-86171853D02*
X173907894Y-86338520D01*
X173907894Y-86338520D02*
X173941228Y-86405186D01*
X173941228Y-86405186D02*
X173974561Y-86438520D01*
X173974561Y-86438520D02*
X174041228Y-86471853D01*
X174041228Y-86471853D02*
X174207894Y-86471853D01*
X174207894Y-86471853D02*
X174274561Y-86438520D01*
X174274561Y-86438520D02*
X174307894Y-86405186D01*
X173107894Y-85738520D02*
X173707894Y-86638520D01*
X172974561Y-85771853D02*
X172741228Y-86471853D01*
X172741228Y-86471853D02*
X172507894Y-85771853D01*
X171874561Y-86471853D02*
X172107894Y-86138520D01*
X172274561Y-86471853D02*
X172274561Y-85771853D01*
X172274561Y-85771853D02*
X172007894Y-85771853D01*
X172007894Y-85771853D02*
X171941228Y-85805186D01*
X171941228Y-85805186D02*
X171907894Y-85838520D01*
X171907894Y-85838520D02*
X171874561Y-85905186D01*
X171874561Y-85905186D02*
X171874561Y-86005186D01*
X171874561Y-86005186D02*
X171907894Y-86071853D01*
X171907894Y-86071853D02*
X171941228Y-86105186D01*
X171941228Y-86105186D02*
X172007894Y-86138520D01*
X172007894Y-86138520D02*
X172274561Y-86138520D01*
X171574561Y-86105186D02*
X171341228Y-86105186D01*
X171241228Y-86471853D02*
X171574561Y-86471853D01*
X171574561Y-86471853D02*
X171574561Y-85771853D01*
X171574561Y-85771853D02*
X171241228Y-85771853D01*
X170707895Y-86105186D02*
X170941228Y-86105186D01*
X170941228Y-86471853D02*
X170941228Y-85771853D01*
X170941228Y-85771853D02*
X170607895Y-85771853D01*
X159924562Y-96631853D02*
X159924562Y-95931853D01*
X159924562Y-95931853D02*
X159657895Y-95931853D01*
X159657895Y-95931853D02*
X159591229Y-95965186D01*
X159591229Y-95965186D02*
X159557895Y-95998520D01*
X159557895Y-95998520D02*
X159524562Y-96065186D01*
X159524562Y-96065186D02*
X159524562Y-96165186D01*
X159524562Y-96165186D02*
X159557895Y-96231853D01*
X159557895Y-96231853D02*
X159591229Y-96265186D01*
X159591229Y-96265186D02*
X159657895Y-96298520D01*
X159657895Y-96298520D02*
X159924562Y-96298520D01*
X159257895Y-96431853D02*
X158924562Y-96431853D01*
X159324562Y-96631853D02*
X159091229Y-95931853D01*
X159091229Y-95931853D02*
X158857895Y-96631853D01*
X158691229Y-95931853D02*
X158224562Y-95931853D01*
X158224562Y-95931853D02*
X158524562Y-96631853D01*
X162591229Y-109331853D02*
X162591229Y-108631853D01*
X162591229Y-108631853D02*
X162324562Y-108631853D01*
X162324562Y-108631853D02*
X162257896Y-108665186D01*
X162257896Y-108665186D02*
X162224562Y-108698520D01*
X162224562Y-108698520D02*
X162191229Y-108765186D01*
X162191229Y-108765186D02*
X162191229Y-108865186D01*
X162191229Y-108865186D02*
X162224562Y-108931853D01*
X162224562Y-108931853D02*
X162257896Y-108965186D01*
X162257896Y-108965186D02*
X162324562Y-108998520D01*
X162324562Y-108998520D02*
X162591229Y-108998520D01*
X161924562Y-109131853D02*
X161591229Y-109131853D01*
X161991229Y-109331853D02*
X161757896Y-108631853D01*
X161757896Y-108631853D02*
X161524562Y-109331853D01*
X160924562Y-109331853D02*
X161324562Y-109331853D01*
X161124562Y-109331853D02*
X161124562Y-108631853D01*
X161124562Y-108631853D02*
X161191229Y-108731853D01*
X161191229Y-108731853D02*
X161257896Y-108798520D01*
X161257896Y-108798520D02*
X161324562Y-108831853D01*
X160324562Y-108631853D02*
X160457895Y-108631853D01*
X160457895Y-108631853D02*
X160524562Y-108665186D01*
X160524562Y-108665186D02*
X160557895Y-108698520D01*
X160557895Y-108698520D02*
X160624562Y-108798520D01*
X160624562Y-108798520D02*
X160657895Y-108931853D01*
X160657895Y-108931853D02*
X160657895Y-109198520D01*
X160657895Y-109198520D02*
X160624562Y-109265186D01*
X160624562Y-109265186D02*
X160591229Y-109298520D01*
X160591229Y-109298520D02*
X160524562Y-109331853D01*
X160524562Y-109331853D02*
X160391229Y-109331853D01*
X160391229Y-109331853D02*
X160324562Y-109298520D01*
X160324562Y-109298520D02*
X160291229Y-109265186D01*
X160291229Y-109265186D02*
X160257895Y-109198520D01*
X160257895Y-109198520D02*
X160257895Y-109031853D01*
X160257895Y-109031853D02*
X160291229Y-108965186D01*
X160291229Y-108965186D02*
X160324562Y-108931853D01*
X160324562Y-108931853D02*
X160391229Y-108898520D01*
X160391229Y-108898520D02*
X160524562Y-108898520D01*
X160524562Y-108898520D02*
X160591229Y-108931853D01*
X160591229Y-108931853D02*
X160624562Y-108965186D01*
X160624562Y-108965186D02*
X160657895Y-109031853D01*
X159457895Y-108598520D02*
X160057895Y-109498520D01*
X159257895Y-109131853D02*
X158924562Y-109131853D01*
X159324562Y-109331853D02*
X159091229Y-108631853D01*
X159091229Y-108631853D02*
X158857895Y-109331853D01*
X158524562Y-108931853D02*
X158591229Y-108898520D01*
X158591229Y-108898520D02*
X158624562Y-108865186D01*
X158624562Y-108865186D02*
X158657895Y-108798520D01*
X158657895Y-108798520D02*
X158657895Y-108765186D01*
X158657895Y-108765186D02*
X158624562Y-108698520D01*
X158624562Y-108698520D02*
X158591229Y-108665186D01*
X158591229Y-108665186D02*
X158524562Y-108631853D01*
X158524562Y-108631853D02*
X158391229Y-108631853D01*
X158391229Y-108631853D02*
X158324562Y-108665186D01*
X158324562Y-108665186D02*
X158291229Y-108698520D01*
X158291229Y-108698520D02*
X158257895Y-108765186D01*
X158257895Y-108765186D02*
X158257895Y-108798520D01*
X158257895Y-108798520D02*
X158291229Y-108865186D01*
X158291229Y-108865186D02*
X158324562Y-108898520D01*
X158324562Y-108898520D02*
X158391229Y-108931853D01*
X158391229Y-108931853D02*
X158524562Y-108931853D01*
X158524562Y-108931853D02*
X158591229Y-108965186D01*
X158591229Y-108965186D02*
X158624562Y-108998520D01*
X158624562Y-108998520D02*
X158657895Y-109065186D01*
X158657895Y-109065186D02*
X158657895Y-109198520D01*
X158657895Y-109198520D02*
X158624562Y-109265186D01*
X158624562Y-109265186D02*
X158591229Y-109298520D01*
X158591229Y-109298520D02*
X158524562Y-109331853D01*
X158524562Y-109331853D02*
X158391229Y-109331853D01*
X158391229Y-109331853D02*
X158324562Y-109298520D01*
X158324562Y-109298520D02*
X158291229Y-109265186D01*
X158291229Y-109265186D02*
X158257895Y-109198520D01*
X158257895Y-109198520D02*
X158257895Y-109065186D01*
X158257895Y-109065186D02*
X158291229Y-108998520D01*
X158291229Y-108998520D02*
X158324562Y-108965186D01*
X158324562Y-108965186D02*
X158391229Y-108931853D01*
X178241228Y-89011853D02*
X178241228Y-88311853D01*
X178241228Y-88311853D02*
X177974561Y-88311853D01*
X177974561Y-88311853D02*
X177907895Y-88345186D01*
X177907895Y-88345186D02*
X177874561Y-88378520D01*
X177874561Y-88378520D02*
X177841228Y-88445186D01*
X177841228Y-88445186D02*
X177841228Y-88545186D01*
X177841228Y-88545186D02*
X177874561Y-88611853D01*
X177874561Y-88611853D02*
X177907895Y-88645186D01*
X177907895Y-88645186D02*
X177974561Y-88678520D01*
X177974561Y-88678520D02*
X178241228Y-88678520D01*
X177574561Y-88811853D02*
X177241228Y-88811853D01*
X177641228Y-89011853D02*
X177407895Y-88311853D01*
X177407895Y-88311853D02*
X177174561Y-89011853D01*
X176974561Y-88378520D02*
X176941228Y-88345186D01*
X176941228Y-88345186D02*
X176874561Y-88311853D01*
X176874561Y-88311853D02*
X176707895Y-88311853D01*
X176707895Y-88311853D02*
X176641228Y-88345186D01*
X176641228Y-88345186D02*
X176607895Y-88378520D01*
X176607895Y-88378520D02*
X176574561Y-88445186D01*
X176574561Y-88445186D02*
X176574561Y-88511853D01*
X176574561Y-88511853D02*
X176607895Y-88611853D01*
X176607895Y-88611853D02*
X177007895Y-89011853D01*
X177007895Y-89011853D02*
X176574561Y-89011853D01*
X175974561Y-88545186D02*
X175974561Y-89011853D01*
X176141228Y-88278520D02*
X176307894Y-88778520D01*
X176307894Y-88778520D02*
X175874561Y-88778520D01*
X175107894Y-88278520D02*
X175707894Y-89178520D01*
X174907894Y-88811853D02*
X174574561Y-88811853D01*
X174974561Y-89011853D02*
X174741228Y-88311853D01*
X174741228Y-88311853D02*
X174507894Y-89011853D01*
X174341228Y-88311853D02*
X173907894Y-88311853D01*
X173907894Y-88311853D02*
X174141228Y-88578520D01*
X174141228Y-88578520D02*
X174041228Y-88578520D01*
X174041228Y-88578520D02*
X173974561Y-88611853D01*
X173974561Y-88611853D02*
X173941228Y-88645186D01*
X173941228Y-88645186D02*
X173907894Y-88711853D01*
X173907894Y-88711853D02*
X173907894Y-88878520D01*
X173907894Y-88878520D02*
X173941228Y-88945186D01*
X173941228Y-88945186D02*
X173974561Y-88978520D01*
X173974561Y-88978520D02*
X174041228Y-89011853D01*
X174041228Y-89011853D02*
X174241228Y-89011853D01*
X174241228Y-89011853D02*
X174307894Y-88978520D01*
X174307894Y-88978520D02*
X174341228Y-88945186D01*
X159924562Y-101711853D02*
X159924562Y-101011853D01*
X159924562Y-101011853D02*
X159657895Y-101011853D01*
X159657895Y-101011853D02*
X159591229Y-101045186D01*
X159591229Y-101045186D02*
X159557895Y-101078520D01*
X159557895Y-101078520D02*
X159524562Y-101145186D01*
X159524562Y-101145186D02*
X159524562Y-101245186D01*
X159524562Y-101245186D02*
X159557895Y-101311853D01*
X159557895Y-101311853D02*
X159591229Y-101345186D01*
X159591229Y-101345186D02*
X159657895Y-101378520D01*
X159657895Y-101378520D02*
X159924562Y-101378520D01*
X159257895Y-101511853D02*
X158924562Y-101511853D01*
X159324562Y-101711853D02*
X159091229Y-101011853D01*
X159091229Y-101011853D02*
X158857895Y-101711853D01*
X158524562Y-101311853D02*
X158591229Y-101278520D01*
X158591229Y-101278520D02*
X158624562Y-101245186D01*
X158624562Y-101245186D02*
X158657895Y-101178520D01*
X158657895Y-101178520D02*
X158657895Y-101145186D01*
X158657895Y-101145186D02*
X158624562Y-101078520D01*
X158624562Y-101078520D02*
X158591229Y-101045186D01*
X158591229Y-101045186D02*
X158524562Y-101011853D01*
X158524562Y-101011853D02*
X158391229Y-101011853D01*
X158391229Y-101011853D02*
X158324562Y-101045186D01*
X158324562Y-101045186D02*
X158291229Y-101078520D01*
X158291229Y-101078520D02*
X158257895Y-101145186D01*
X158257895Y-101145186D02*
X158257895Y-101178520D01*
X158257895Y-101178520D02*
X158291229Y-101245186D01*
X158291229Y-101245186D02*
X158324562Y-101278520D01*
X158324562Y-101278520D02*
X158391229Y-101311853D01*
X158391229Y-101311853D02*
X158524562Y-101311853D01*
X158524562Y-101311853D02*
X158591229Y-101345186D01*
X158591229Y-101345186D02*
X158624562Y-101378520D01*
X158624562Y-101378520D02*
X158657895Y-101445186D01*
X158657895Y-101445186D02*
X158657895Y-101578520D01*
X158657895Y-101578520D02*
X158624562Y-101645186D01*
X158624562Y-101645186D02*
X158591229Y-101678520D01*
X158591229Y-101678520D02*
X158524562Y-101711853D01*
X158524562Y-101711853D02*
X158391229Y-101711853D01*
X158391229Y-101711853D02*
X158324562Y-101678520D01*
X158324562Y-101678520D02*
X158291229Y-101645186D01*
X158291229Y-101645186D02*
X158257895Y-101578520D01*
X158257895Y-101578520D02*
X158257895Y-101445186D01*
X158257895Y-101445186D02*
X158291229Y-101378520D01*
X158291229Y-101378520D02*
X158324562Y-101345186D01*
X158324562Y-101345186D02*
X158391229Y-101311853D01*
X160591229Y-86471853D02*
X160591229Y-85771853D01*
X160591229Y-85771853D02*
X160324562Y-85771853D01*
X160324562Y-85771853D02*
X160257896Y-85805186D01*
X160257896Y-85805186D02*
X160224562Y-85838520D01*
X160224562Y-85838520D02*
X160191229Y-85905186D01*
X160191229Y-85905186D02*
X160191229Y-86005186D01*
X160191229Y-86005186D02*
X160224562Y-86071853D01*
X160224562Y-86071853D02*
X160257896Y-86105186D01*
X160257896Y-86105186D02*
X160324562Y-86138520D01*
X160324562Y-86138520D02*
X160591229Y-86138520D01*
X159924562Y-86271853D02*
X159591229Y-86271853D01*
X159991229Y-86471853D02*
X159757896Y-85771853D01*
X159757896Y-85771853D02*
X159524562Y-86471853D01*
X158924562Y-86471853D02*
X159324562Y-86471853D01*
X159124562Y-86471853D02*
X159124562Y-85771853D01*
X159124562Y-85771853D02*
X159191229Y-85871853D01*
X159191229Y-85871853D02*
X159257896Y-85938520D01*
X159257896Y-85938520D02*
X159324562Y-85971853D01*
X158324562Y-86005186D02*
X158324562Y-86471853D01*
X158491229Y-85738520D02*
X158657895Y-86238520D01*
X158657895Y-86238520D02*
X158224562Y-86238520D01*
D12*
%TO.C,kibuzzard-66E9F2AD*%
G36*
X177756199Y-112500723D02*
G01*
X177756199Y-114595144D01*
X177756199Y-114785893D01*
X177150000Y-115190025D01*
X176543801Y-114785893D01*
X176543801Y-114595144D01*
X176543801Y-114289564D01*
X176734549Y-114289564D01*
X176743133Y-114367771D01*
X176768884Y-114439111D01*
X176811803Y-114503584D01*
X176866039Y-114554451D01*
X176925743Y-114584971D01*
X176990916Y-114595144D01*
X177044993Y-114566532D01*
X177063019Y-114480695D01*
X177050429Y-114417748D01*
X176996638Y-114384557D01*
X176990343Y-114382268D01*
X176976609Y-114373685D01*
X176959442Y-114356517D01*
X176945708Y-114329049D01*
X176939413Y-114288420D01*
X176957153Y-114216889D01*
X177004649Y-114189994D01*
X177054435Y-114212025D01*
X177071030Y-114278120D01*
X177071030Y-114309593D01*
X177076180Y-114335916D01*
X177090486Y-114361667D01*
X177120243Y-114375401D01*
X177170601Y-114382268D01*
X177227825Y-114374829D01*
X177257582Y-114350795D01*
X177267310Y-114321610D01*
X177269027Y-114284986D01*
X177269027Y-114276975D01*
X177276466Y-114223756D01*
X177305651Y-114207161D01*
X177345136Y-114226045D01*
X177359442Y-114278120D01*
X177347997Y-114327333D01*
X177313662Y-114360523D01*
X177266484Y-114395366D01*
X177253131Y-114443435D01*
X177273605Y-114504729D01*
X177336552Y-114561381D01*
X177415522Y-114544786D01*
X177419528Y-114543069D01*
X177432117Y-114536775D01*
X177451001Y-114525330D01*
X177473891Y-114507018D01*
X177498498Y-114481839D01*
X177521960Y-114448077D01*
X177541989Y-114405730D01*
X177555722Y-114353084D01*
X177560873Y-114289564D01*
X177552225Y-114206334D01*
X177526284Y-114135185D01*
X177483047Y-114076117D01*
X177429256Y-114031927D01*
X177371650Y-114005412D01*
X177310229Y-113996574D01*
X177226395Y-114016317D01*
X177169456Y-114075544D01*
X177107654Y-114011453D01*
X177061874Y-113988277D01*
X177006938Y-113980552D01*
X176932864Y-113990280D01*
X176867819Y-114019464D01*
X176811803Y-114068105D01*
X176768884Y-114131625D01*
X176743133Y-114205444D01*
X176734549Y-114289564D01*
X176543801Y-114289564D01*
X176543801Y-113545645D01*
X176749428Y-113545645D01*
X176763734Y-113609736D01*
X176806652Y-113648649D01*
X177402933Y-113919893D01*
X177482475Y-113931338D01*
X177536838Y-113867247D01*
X177554006Y-113781410D01*
X177488770Y-113728763D01*
X177043562Y-113547934D01*
X177488770Y-113367104D01*
X177553433Y-113313313D01*
X177536838Y-113228620D01*
X177481903Y-113162812D01*
X177402933Y-113175974D01*
X176806652Y-113447218D01*
X176764878Y-113486703D01*
X176749428Y-113545645D01*
X176543801Y-113545645D01*
X176543801Y-112809736D01*
X176734549Y-112809736D01*
X176743133Y-112887943D01*
X176768884Y-112959283D01*
X176811803Y-113023756D01*
X176866039Y-113074622D01*
X176925743Y-113105142D01*
X176990916Y-113115316D01*
X177044993Y-113086703D01*
X177063019Y-113000866D01*
X177050429Y-112937919D01*
X176996638Y-112904729D01*
X176990343Y-112902440D01*
X176976609Y-112893856D01*
X176959442Y-112876689D01*
X176945708Y-112849221D01*
X176939413Y-112808592D01*
X176957153Y-112737061D01*
X177004649Y-112710165D01*
X177054435Y-112732197D01*
X177071030Y-112798291D01*
X177071030Y-112829765D01*
X177076180Y-112856088D01*
X177090486Y-112881839D01*
X177120243Y-112895573D01*
X177170601Y-112902440D01*
X177227825Y-112895001D01*
X177257582Y-112870966D01*
X177267310Y-112841782D01*
X177269027Y-112805158D01*
X177269027Y-112797147D01*
X177276466Y-112743928D01*
X177305651Y-112727333D01*
X177345136Y-112746217D01*
X177359442Y-112798291D01*
X177347997Y-112847504D01*
X177313662Y-112880695D01*
X177266484Y-112915538D01*
X177253131Y-112963607D01*
X177273605Y-113024901D01*
X177336552Y-113081553D01*
X177415522Y-113064958D01*
X177419528Y-113063241D01*
X177432117Y-113056946D01*
X177451001Y-113045502D01*
X177473891Y-113027190D01*
X177498498Y-113002011D01*
X177521960Y-112968248D01*
X177541989Y-112925902D01*
X177555722Y-112873255D01*
X177560873Y-112809736D01*
X177552225Y-112726506D01*
X177526284Y-112655357D01*
X177483047Y-112596288D01*
X177429256Y-112552098D01*
X177371650Y-112525584D01*
X177310229Y-112516746D01*
X177226395Y-112536489D01*
X177169456Y-112595716D01*
X177107654Y-112531625D01*
X177061874Y-112508449D01*
X177006938Y-112500723D01*
X176932864Y-112510451D01*
X176867819Y-112539636D01*
X176811803Y-112588277D01*
X176768884Y-112651796D01*
X176743133Y-112725616D01*
X176734549Y-112809736D01*
X176543801Y-112809736D01*
X176543801Y-112500723D01*
X176543801Y-112309975D01*
X177756199Y-112309975D01*
X177756199Y-112500723D01*
G37*
%TO.C,kibuzzard-66E9A782*%
G36*
X170132190Y-113100818D02*
G01*
X170132190Y-114595525D01*
X170132190Y-114786273D01*
X169526563Y-115190025D01*
X168920936Y-114786273D01*
X168920936Y-114595525D01*
X168920936Y-114247599D01*
X169125419Y-114247599D01*
X169133430Y-114306540D01*
X169159181Y-114337442D01*
X169190082Y-114347742D01*
X169228423Y-114349459D01*
X169751456Y-114349459D01*
X169751456Y-114508543D01*
X169753172Y-114541161D01*
X169762328Y-114566912D01*
X169789224Y-114588658D01*
X169840726Y-114595525D01*
X169890511Y-114588658D01*
X169916835Y-114566340D01*
X169925991Y-114540017D01*
X169927707Y-114507399D01*
X169927707Y-113984366D01*
X169925991Y-113951748D01*
X169916835Y-113925997D01*
X169889939Y-113904251D01*
X169839582Y-113897384D01*
X169789224Y-113904251D01*
X169762328Y-113926569D01*
X169753172Y-113952892D01*
X169751456Y-113985510D01*
X169751456Y-114143450D01*
X169227278Y-114143450D01*
X169188938Y-114145167D01*
X169158609Y-114156040D01*
X169133430Y-114188085D01*
X169125419Y-114247599D01*
X168920936Y-114247599D01*
X168920936Y-113747456D01*
X169113401Y-113747456D01*
X169154031Y-113825281D01*
X169226706Y-113870489D01*
X169300526Y-113831004D01*
X169525991Y-113626140D01*
X169751456Y-113832148D01*
X169824703Y-113870489D01*
X169899095Y-113826426D01*
X169939725Y-113748600D01*
X169892228Y-113678786D01*
X169680497Y-113485367D01*
X169892228Y-113293093D01*
X169939725Y-113223279D01*
X169899095Y-113145453D01*
X169824703Y-113100818D01*
X169751456Y-113139731D01*
X169525991Y-113345739D01*
X169300526Y-113140875D01*
X169226706Y-113101390D01*
X169154031Y-113146598D01*
X169113401Y-113224423D01*
X169160898Y-113294237D01*
X169371484Y-113485367D01*
X169160898Y-113677642D01*
X169113401Y-113747456D01*
X168920936Y-113747456D01*
X168920936Y-113224423D01*
X168920936Y-113100818D01*
X168920936Y-112910069D01*
X170132190Y-112910069D01*
X170132190Y-113100818D01*
G37*
%TO.C,kibuzzard-66E9A77E*%
G36*
X164613089Y-114203536D02*
G01*
X164637123Y-114262478D01*
X164637123Y-114386083D01*
X164470027Y-114386083D01*
X164470027Y-114260189D01*
X164490628Y-114205253D01*
X164553575Y-114178930D01*
X164613089Y-114203536D01*
G37*
G36*
X165052192Y-113164910D02*
G01*
X165052192Y-114595525D01*
X165052192Y-114786274D01*
X164446565Y-115190025D01*
X163840938Y-114786274D01*
X163840938Y-114595525D01*
X163840938Y-114093093D01*
X164042559Y-114093093D01*
X164095778Y-114157184D01*
X164261730Y-114279645D01*
X164261730Y-114386083D01*
X164150714Y-114386083D01*
X164111229Y-114387800D01*
X164080328Y-114398672D01*
X164054576Y-114430718D01*
X164046565Y-114491376D01*
X164054576Y-114550890D01*
X164080900Y-114582935D01*
X164112373Y-114593808D01*
X164151858Y-114595525D01*
X164742416Y-114595525D01*
X164780757Y-114593808D01*
X164812230Y-114582935D01*
X164838554Y-114550890D01*
X164846565Y-114490232D01*
X164846565Y-114260189D01*
X164841987Y-114213694D01*
X164828253Y-114165768D01*
X164805936Y-114117986D01*
X164775606Y-114071920D01*
X164735120Y-114030861D01*
X164682330Y-113998100D01*
X164620385Y-113976641D01*
X164552431Y-113969488D01*
X164466721Y-113980678D01*
X164392710Y-114014250D01*
X164330399Y-114070203D01*
X164220528Y-113987800D01*
X164141558Y-113956898D01*
X164074033Y-114011834D01*
X164042559Y-114093093D01*
X163840938Y-114093093D01*
X163840938Y-113811548D01*
X164033403Y-113811548D01*
X164074033Y-113889373D01*
X164146708Y-113934581D01*
X164220528Y-113895096D01*
X164445993Y-113690232D01*
X164671458Y-113896240D01*
X164744705Y-113934581D01*
X164819097Y-113890518D01*
X164859727Y-113812692D01*
X164812230Y-113742878D01*
X164600499Y-113549459D01*
X164812230Y-113357184D01*
X164859727Y-113287370D01*
X164819097Y-113209545D01*
X164744705Y-113164910D01*
X164671458Y-113203822D01*
X164445993Y-113409831D01*
X164220528Y-113204967D01*
X164146708Y-113165482D01*
X164074033Y-113210689D01*
X164033403Y-113288515D01*
X164080900Y-113358329D01*
X164291486Y-113549459D01*
X164080900Y-113741734D01*
X164033403Y-113811548D01*
X163840938Y-113811548D01*
X163840938Y-113288515D01*
X163840938Y-113164910D01*
X163840938Y-112974161D01*
X165052192Y-112974161D01*
X165052192Y-113164910D01*
G37*
%TO.C,kibuzzard-66E9A75F*%
G36*
X167058667Y-112536870D02*
G01*
X167120470Y-112578930D01*
X167162530Y-112640732D01*
X167176550Y-112713980D01*
X167176550Y-112805539D01*
X166795434Y-112805539D01*
X166795434Y-112712835D01*
X166809311Y-112640446D01*
X166850942Y-112578930D01*
X166912315Y-112536870D01*
X166985420Y-112522850D01*
X167058667Y-112536870D01*
G37*
G36*
X167590474Y-112313408D02*
G01*
X167590474Y-114596669D01*
X167590474Y-114787418D01*
X166986564Y-115190025D01*
X166382654Y-114787418D01*
X166382654Y-114596669D01*
X166382654Y-114193808D01*
X166573402Y-114193808D01*
X166581199Y-114273350D01*
X166604590Y-114347170D01*
X166643574Y-114415267D01*
X166698152Y-114477642D01*
X166763603Y-114529717D01*
X166835205Y-114566913D01*
X166912959Y-114589230D01*
X166996864Y-114596669D01*
X167076872Y-114589123D01*
X167150942Y-114566483D01*
X167219075Y-114528751D01*
X167281271Y-114475926D01*
X167333095Y-114412514D01*
X167370112Y-114343021D01*
X167392322Y-114267449D01*
X167399726Y-114185797D01*
X167395577Y-114126426D01*
X167383131Y-114062764D01*
X167363245Y-114002535D01*
X167336779Y-113953465D01*
X167313889Y-113921419D01*
X167289854Y-113900246D01*
X167256664Y-113889373D01*
X167192573Y-113915697D01*
X167147079Y-113958043D01*
X167131915Y-114000389D01*
X167158238Y-114062192D01*
X167182272Y-114120847D01*
X167190284Y-114191519D01*
X167176121Y-114266770D01*
X167133631Y-114330003D01*
X167070541Y-114372921D01*
X166994575Y-114387227D01*
X166916178Y-114372349D01*
X166848080Y-114327714D01*
X166800870Y-114263336D01*
X166785133Y-114189230D01*
X166788853Y-114123422D01*
X166800012Y-114074781D01*
X166898438Y-114074781D01*
X166898438Y-114159473D01*
X166900155Y-114190375D01*
X166909311Y-114214409D01*
X166936206Y-114233865D01*
X166987708Y-114239588D01*
X167038066Y-114233293D01*
X167064962Y-114212120D01*
X167074118Y-114186941D01*
X167075834Y-114156040D01*
X167075834Y-113955754D01*
X167067823Y-113911691D01*
X167052945Y-113884795D01*
X167030055Y-113871061D01*
X167004876Y-113865911D01*
X166976264Y-113865339D01*
X166741643Y-113865339D01*
X166675834Y-113892807D01*
X166644504Y-113925139D01*
X166618038Y-113967199D01*
X166593240Y-114030527D01*
X166578362Y-114106064D01*
X166573402Y-114193808D01*
X166382654Y-114193808D01*
X166382654Y-113678787D01*
X166382654Y-113184366D01*
X166584847Y-113184366D01*
X166591142Y-113243308D01*
X166615749Y-113277070D01*
X167007165Y-113573493D01*
X166688996Y-113573493D01*
X166649511Y-113575210D01*
X166618610Y-113586083D01*
X166592859Y-113618129D01*
X166584847Y-113678787D01*
X166592859Y-113737728D01*
X166618610Y-113768629D01*
X166650083Y-113779502D01*
X166690141Y-113781791D01*
X167284132Y-113781791D01*
X167322472Y-113779502D01*
X167352801Y-113768057D01*
X167377408Y-113736584D01*
X167384847Y-113676498D01*
X167377980Y-113624423D01*
X167363674Y-113595239D01*
X167340212Y-113574638D01*
X166955663Y-113288515D01*
X167284132Y-113288515D01*
X167321900Y-113286226D01*
X167352229Y-113274781D01*
X167376836Y-113242735D01*
X167384847Y-113183222D01*
X167376836Y-113123708D01*
X167350512Y-113091662D01*
X167319039Y-113080790D01*
X167279554Y-113079073D01*
X166688996Y-113079073D01*
X166649511Y-113080790D01*
X166618610Y-113091662D01*
X166592859Y-113123708D01*
X166584847Y-113184366D01*
X166382654Y-113184366D01*
X166382654Y-112910833D01*
X166382654Y-112716269D01*
X166585992Y-112716269D01*
X166585992Y-112910833D01*
X166594003Y-112968629D01*
X166618610Y-113000103D01*
X166650656Y-113012120D01*
X166691285Y-113014981D01*
X167282987Y-113014981D01*
X167321328Y-113013265D01*
X167352801Y-113002392D01*
X167378553Y-112970346D01*
X167385992Y-112909688D01*
X167385992Y-112712835D01*
X167378696Y-112633865D01*
X167356807Y-112560618D01*
X167320327Y-112493093D01*
X167269254Y-112431290D01*
X167208023Y-112379717D01*
X167141070Y-112342878D01*
X167068395Y-112320775D01*
X166989997Y-112313408D01*
X166909490Y-112320775D01*
X166835062Y-112342878D01*
X166766714Y-112379717D01*
X166704447Y-112431290D01*
X166652623Y-112493308D01*
X166615605Y-112561476D01*
X166593395Y-112635797D01*
X166585992Y-112716269D01*
X166382654Y-112716269D01*
X166382654Y-112313408D01*
X166382654Y-112122659D01*
X167590474Y-112122659D01*
X167590474Y-112313408D01*
G37*
%TO.C,kibuzzard-66E9A778*%
G36*
X172672762Y-110873636D02*
G01*
X172672762Y-114595525D01*
X172672762Y-114786273D01*
X172067135Y-115190025D01*
X171461508Y-114786273D01*
X171461508Y-114595525D01*
X171461508Y-114297957D01*
X171655690Y-114297957D01*
X171660840Y-114362048D01*
X171673430Y-114415839D01*
X171692314Y-114459902D01*
X171714059Y-114495381D01*
X171736377Y-114522849D01*
X171756405Y-114542878D01*
X171772428Y-114555467D01*
X171780440Y-114562334D01*
X171854832Y-114590947D01*
X171928079Y-114542878D01*
X171954530Y-114495318D01*
X171946900Y-114445723D01*
X171905189Y-114394094D01*
X171863415Y-114347742D01*
X171852543Y-114302535D01*
X171869138Y-114235009D01*
X171922357Y-114214409D01*
X171957836Y-114244165D01*
X171984732Y-114334008D01*
X171999467Y-114388514D01*
X172015061Y-114431862D01*
X172051684Y-114495954D01*
X172100898Y-114541733D01*
X172162700Y-114569201D01*
X172237092Y-114578357D01*
X172303282Y-114569837D01*
X172361460Y-114544277D01*
X172411627Y-114501676D01*
X172450095Y-114446105D01*
X172473175Y-114381632D01*
X172480869Y-114308257D01*
X172473239Y-114221911D01*
X172450349Y-114149045D01*
X172412199Y-114089659D01*
X172353258Y-114048457D01*
X172282872Y-114075925D01*
X172227364Y-114143450D01*
X172248537Y-114220131D01*
X172259410Y-114233293D01*
X172272571Y-114249316D01*
X172281155Y-114271633D01*
X172285161Y-114309401D01*
X172270855Y-114351748D01*
X172235948Y-114370060D01*
X172198752Y-114350031D01*
X172178723Y-114304824D01*
X172164417Y-114235009D01*
X172146677Y-114161762D01*
X172116920Y-114096955D01*
X172073430Y-114046741D01*
X172011341Y-114014552D01*
X171925790Y-114003822D01*
X171871141Y-114008686D01*
X171821641Y-114023278D01*
X171744388Y-114073064D01*
X171693458Y-114143450D01*
X171664274Y-114221848D01*
X171655690Y-114297957D01*
X171461508Y-114297957D01*
X171461508Y-113655896D01*
X171461508Y-113237012D01*
X171668279Y-113237012D01*
X171678580Y-113285653D01*
X171704331Y-113317699D01*
X171728365Y-113332577D01*
X171744960Y-113338872D01*
X172097464Y-113446454D01*
X171746105Y-113554037D01*
X171687736Y-113590947D01*
X171668279Y-113655896D01*
X171684875Y-113713121D01*
X171714631Y-113744022D01*
X171739238Y-113754323D01*
X172329796Y-113960331D01*
X172414488Y-113965482D01*
X172462557Y-113893951D01*
X172467707Y-113808686D01*
X172397321Y-113762334D01*
X172049395Y-113643307D01*
X172391599Y-113549459D01*
X172449109Y-113514552D01*
X172468279Y-113448743D01*
X172465418Y-113415553D01*
X172455690Y-113390374D01*
X172443101Y-113372635D01*
X172428222Y-113360045D01*
X172413916Y-113352606D01*
X172399610Y-113346884D01*
X172390454Y-113343450D01*
X172047106Y-113249602D01*
X172397321Y-113130575D01*
X172468279Y-113084223D01*
X172463702Y-112997813D01*
X172413344Y-112926283D01*
X172329796Y-112932577D01*
X171739238Y-113137442D01*
X171686019Y-113173207D01*
X171668279Y-113237012D01*
X171461508Y-113237012D01*
X171461508Y-112473636D01*
X171655690Y-112473636D01*
X171659124Y-112522134D01*
X171669424Y-112573779D01*
X171687879Y-112627856D01*
X171715776Y-112683650D01*
X171751827Y-112737298D01*
X171794746Y-112784938D01*
X171847536Y-112825710D01*
X171913201Y-112858758D01*
X171989023Y-112880646D01*
X172072285Y-112887942D01*
X172152400Y-112880789D01*
X172225647Y-112859330D01*
X172289310Y-112826712D01*
X172340669Y-112786082D01*
X172382443Y-112738443D01*
X172417350Y-112684795D01*
X172444388Y-112628715D01*
X172462557Y-112573779D01*
X172472857Y-112520703D01*
X172476291Y-112470203D01*
X172469170Y-112402042D01*
X172447806Y-112331846D01*
X172412199Y-112259616D01*
X172390454Y-112228715D01*
X172366420Y-112207542D01*
X172332085Y-112196669D01*
X172267993Y-112221848D01*
X172221641Y-112264766D01*
X172206191Y-112304251D01*
X172232514Y-112366054D01*
X172237664Y-112373493D01*
X172243959Y-112383221D01*
X172250254Y-112394094D01*
X172255976Y-112409545D01*
X172260554Y-112427856D01*
X172264560Y-112450746D01*
X172265704Y-112478214D01*
X172254259Y-112543450D01*
X172220497Y-112608114D01*
X172158122Y-112659044D01*
X172115204Y-112673636D01*
X172066563Y-112678500D01*
X172004045Y-112669773D01*
X171951541Y-112643593D01*
X171911341Y-112606540D01*
X171885733Y-112565195D01*
X171867421Y-112478214D01*
X171876863Y-112417842D01*
X171905189Y-112360331D01*
X171928079Y-112303107D01*
X171911770Y-112264194D01*
X171862843Y-112222992D01*
X171796463Y-112197813D01*
X171754689Y-112213836D01*
X171719782Y-112260761D01*
X171684175Y-112328667D01*
X171662811Y-112399626D01*
X171655690Y-112473636D01*
X171461508Y-112473636D01*
X171461508Y-112020417D01*
X171461508Y-111637012D01*
X171667135Y-111637012D01*
X171667135Y-112020417D01*
X171675146Y-112079931D01*
X171701470Y-112111977D01*
X171732943Y-112122849D01*
X171772428Y-112124566D01*
X172364131Y-112124566D01*
X172402471Y-112122849D01*
X172433945Y-112111977D01*
X172460268Y-112079931D01*
X172468279Y-112019273D01*
X172460268Y-111959759D01*
X172433945Y-111927713D01*
X172402471Y-111916841D01*
X172362986Y-111915124D01*
X171845676Y-111915124D01*
X171845676Y-111635868D01*
X171843959Y-111603250D01*
X171834803Y-111576927D01*
X171807908Y-111554609D01*
X171756405Y-111547742D01*
X171706048Y-111554609D01*
X171678580Y-111576927D01*
X171668852Y-111604394D01*
X171667135Y-111637012D01*
X171461508Y-111637012D01*
X171461508Y-111007542D01*
X171655690Y-111007542D01*
X171704903Y-111075067D01*
X171932657Y-111275353D01*
X171771284Y-111275353D01*
X171731799Y-111277070D01*
X171700898Y-111287942D01*
X171675146Y-111319988D01*
X171667135Y-111380646D01*
X171675146Y-111440160D01*
X171701470Y-111472205D01*
X171732943Y-111483078D01*
X171772428Y-111484795D01*
X172364131Y-111484795D01*
X172402471Y-111483078D01*
X172433945Y-111472205D01*
X172460268Y-111440160D01*
X172468279Y-111379502D01*
X172460268Y-111319988D01*
X172433945Y-111287942D01*
X172402471Y-111277070D01*
X172362986Y-111275353D01*
X172205046Y-111275353D01*
X172432800Y-111076211D01*
X172479152Y-111004680D01*
X172443101Y-110927427D01*
X172403902Y-110891948D01*
X172368709Y-110879359D01*
X172295461Y-110917127D01*
X172066563Y-111141447D01*
X171841098Y-110915982D01*
X171764989Y-110876497D01*
X171692314Y-110926283D01*
X171655690Y-111007542D01*
X171461508Y-111007542D01*
X171461508Y-110873636D01*
X171461508Y-110682887D01*
X172672762Y-110682887D01*
X172672762Y-110873636D01*
G37*
%TO.C,kibuzzard-66E9A76F*%
G36*
X174680382Y-112394571D02*
G01*
X174742185Y-112436631D01*
X174784245Y-112498433D01*
X174798265Y-112571681D01*
X174798265Y-112663240D01*
X174417149Y-112663240D01*
X174417149Y-112570536D01*
X174431026Y-112498147D01*
X174472657Y-112436631D01*
X174534030Y-112394571D01*
X174607135Y-112380551D01*
X174680382Y-112394571D01*
G37*
G36*
X174683100Y-111295572D02*
G01*
X174748480Y-111336774D01*
X174792686Y-111397146D01*
X174807421Y-111468390D01*
X174792686Y-111540493D01*
X174748480Y-111601152D01*
X174683100Y-111642353D01*
X174604846Y-111656087D01*
X174528165Y-111642210D01*
X174462929Y-111600579D01*
X174418294Y-111540064D01*
X174403415Y-111469535D01*
X174417864Y-111396717D01*
X174461212Y-111336202D01*
X174526019Y-111295429D01*
X174604846Y-111281838D01*
X174683100Y-111295572D01*
G37*
G36*
X175212190Y-111072396D02*
G01*
X175212190Y-114596287D01*
X175212190Y-114787036D01*
X174607707Y-115190025D01*
X174003224Y-114787036D01*
X174003224Y-114596287D01*
X174003224Y-114298719D01*
X174195118Y-114298719D01*
X174200268Y-114362811D01*
X174212857Y-114416602D01*
X174231741Y-114460665D01*
X174253487Y-114496144D01*
X174275804Y-114523612D01*
X174295833Y-114543641D01*
X174311856Y-114556230D01*
X174319867Y-114563097D01*
X174394259Y-114591709D01*
X174467507Y-114543641D01*
X174493957Y-114496081D01*
X174486327Y-114446486D01*
X174444617Y-114394857D01*
X174402843Y-114348505D01*
X174391970Y-114303297D01*
X174408565Y-114235772D01*
X174461784Y-114215172D01*
X174497264Y-114244928D01*
X174524159Y-114334771D01*
X174538894Y-114389277D01*
X174554488Y-114432625D01*
X174591112Y-114496717D01*
X174640325Y-114542496D01*
X174702128Y-114569964D01*
X174776520Y-114579120D01*
X174842709Y-114570600D01*
X174900888Y-114545040D01*
X174951055Y-114502439D01*
X174989522Y-114446868D01*
X175012603Y-114382395D01*
X175020296Y-114309020D01*
X175012666Y-114222674D01*
X174989777Y-114149808D01*
X174951627Y-114090422D01*
X174892686Y-114049220D01*
X174822299Y-114076688D01*
X174766791Y-114144213D01*
X174787965Y-114220894D01*
X174798837Y-114234056D01*
X174811999Y-114250079D01*
X174820583Y-114272396D01*
X174824588Y-114310164D01*
X174810282Y-114352511D01*
X174775375Y-114370822D01*
X174738179Y-114350794D01*
X174718150Y-114305586D01*
X174703844Y-114235772D01*
X174686105Y-114162525D01*
X174656348Y-114097718D01*
X174612857Y-114047503D01*
X174550769Y-114015315D01*
X174465218Y-114004585D01*
X174410568Y-114009449D01*
X174361069Y-114024041D01*
X174283816Y-114073827D01*
X174232886Y-114144213D01*
X174203701Y-114222611D01*
X174195118Y-114298719D01*
X174003224Y-114298719D01*
X174003224Y-113656659D01*
X174003224Y-113237775D01*
X174207707Y-113237775D01*
X174218007Y-113286416D01*
X174243759Y-113318462D01*
X174267793Y-113333340D01*
X174284388Y-113339635D01*
X174636892Y-113447217D01*
X174285532Y-113554800D01*
X174227163Y-113591709D01*
X174207707Y-113656659D01*
X174224302Y-113713884D01*
X174254059Y-113744785D01*
X174278666Y-113755086D01*
X174869223Y-113961094D01*
X174953916Y-113966245D01*
X175001985Y-113894714D01*
X175007135Y-113809449D01*
X174936748Y-113763097D01*
X174588823Y-113644070D01*
X174931026Y-113550222D01*
X174988537Y-113515315D01*
X175007707Y-113449506D01*
X175004846Y-113416316D01*
X174995118Y-113391137D01*
X174982528Y-113373398D01*
X174967650Y-113360808D01*
X174953344Y-113353369D01*
X174939037Y-113347647D01*
X174929882Y-113344213D01*
X174586534Y-113250365D01*
X174936748Y-113131338D01*
X175007707Y-113084986D01*
X175003129Y-112998576D01*
X174952771Y-112927046D01*
X174869223Y-112933340D01*
X174278666Y-113138204D01*
X174225447Y-113173970D01*
X174207707Y-113237775D01*
X174003224Y-113237775D01*
X174003224Y-112768534D01*
X174003224Y-112573970D01*
X174207707Y-112573970D01*
X174207707Y-112768534D01*
X174215718Y-112826330D01*
X174240325Y-112857804D01*
X174272371Y-112869821D01*
X174313000Y-112872682D01*
X174904703Y-112872682D01*
X174943043Y-112870966D01*
X174974517Y-112860093D01*
X175000268Y-112828047D01*
X175007707Y-112767389D01*
X175007707Y-112570536D01*
X175000411Y-112491566D01*
X174978522Y-112418319D01*
X174942042Y-112350794D01*
X174890969Y-112288991D01*
X174829738Y-112237418D01*
X174762786Y-112200579D01*
X174690110Y-112178476D01*
X174611713Y-112171109D01*
X174531205Y-112178476D01*
X174456777Y-112200579D01*
X174388429Y-112237418D01*
X174326162Y-112288991D01*
X174274338Y-112351008D01*
X174237321Y-112419177D01*
X174215110Y-112493498D01*
X174207707Y-112573970D01*
X174003224Y-112573970D01*
X174003224Y-112018891D01*
X174206563Y-112018891D01*
X174214574Y-112078405D01*
X174240897Y-112110451D01*
X174272371Y-112121323D01*
X174311856Y-112123040D01*
X174903558Y-112123040D01*
X174941899Y-112121323D01*
X174973372Y-112110451D01*
X174999696Y-112078405D01*
X175007707Y-112017747D01*
X174999696Y-111958233D01*
X174973372Y-111926187D01*
X174941899Y-111915315D01*
X174902414Y-111913598D01*
X174310711Y-111913598D01*
X174271226Y-111915315D01*
X174240325Y-111926187D01*
X174214574Y-111958233D01*
X174206563Y-112018891D01*
X174003224Y-112018891D01*
X174003224Y-111463812D01*
X174193973Y-111463812D01*
X174201412Y-111543784D01*
X174223730Y-111617747D01*
X174260926Y-111685701D01*
X174313000Y-111747647D01*
X174375590Y-111799220D01*
X174444331Y-111836059D01*
X174519223Y-111858162D01*
X174600268Y-111865529D01*
X174683959Y-111858376D01*
X174761069Y-111836917D01*
X174831598Y-111801152D01*
X174895547Y-111751080D01*
X174948623Y-111690780D01*
X174986534Y-111624327D01*
X175009281Y-111551724D01*
X175016863Y-111472968D01*
X175009388Y-111392568D01*
X174986963Y-111318462D01*
X174949588Y-111250651D01*
X174897264Y-111189134D01*
X174834138Y-111138061D01*
X174764359Y-111101581D01*
X174687929Y-111079692D01*
X174604846Y-111072396D01*
X174523193Y-111079585D01*
X174447621Y-111101152D01*
X174378129Y-111137096D01*
X174314717Y-111187418D01*
X174261892Y-111247825D01*
X174224159Y-111314027D01*
X174201520Y-111386023D01*
X174193973Y-111463812D01*
X174003224Y-111463812D01*
X174003224Y-111072396D01*
X174003224Y-110881647D01*
X175212190Y-110881647D01*
X175212190Y-111072396D01*
G37*
%TO.C,kibuzzard-66E9A764*%
G36*
X159289886Y-114181600D02*
G01*
X159300758Y-114229668D01*
X159300758Y-114244547D01*
X159320787Y-114309783D01*
X159388884Y-114329239D01*
X159454692Y-114308638D01*
X159473577Y-114238824D01*
X159473577Y-114225091D01*
X159481588Y-114197623D01*
X159517067Y-114189611D01*
X159552546Y-114201628D01*
X159561702Y-114249125D01*
X159561702Y-114387608D01*
X159179442Y-114387608D01*
X159179442Y-114223946D01*
X159180587Y-114207923D01*
X159186881Y-114190184D01*
X159206338Y-114173016D01*
X159242389Y-114166721D01*
X159289886Y-114181600D01*
G37*
G36*
X159973338Y-112680026D02*
G01*
X159973338Y-114597050D01*
X159973338Y-114787799D01*
X159370000Y-115190025D01*
X158766662Y-114787799D01*
X158766662Y-114597050D01*
X158766662Y-114492902D01*
X158766662Y-114212501D01*
X158970000Y-114212501D01*
X158970000Y-114492902D01*
X158978011Y-114552415D01*
X159004335Y-114584461D01*
X159036381Y-114595334D01*
X159076438Y-114597050D01*
X159666996Y-114597050D01*
X159705336Y-114595334D01*
X159736810Y-114584461D01*
X159763133Y-114552415D01*
X159771144Y-114491757D01*
X159771144Y-114223946D01*
X159763069Y-114159473D01*
X159738844Y-114101867D01*
X159698469Y-114051128D01*
X159647031Y-114011706D01*
X159589615Y-113988053D01*
X159526223Y-113980169D01*
X159459270Y-113989611D01*
X159398040Y-114017937D01*
X159317639Y-113972444D01*
X159229800Y-113957279D01*
X159161003Y-113966245D01*
X159099582Y-113991614D01*
X159045536Y-114033388D01*
X159003572Y-114086607D01*
X158978393Y-114146311D01*
X158970000Y-114212501D01*
X158766662Y-114212501D01*
X158766662Y-113624232D01*
X158957411Y-113624232D01*
X158962561Y-113688324D01*
X158975150Y-113742115D01*
X158994034Y-113786178D01*
X159015780Y-113821657D01*
X159038097Y-113849125D01*
X159058126Y-113869153D01*
X159074149Y-113881743D01*
X159082160Y-113888610D01*
X159156552Y-113917222D01*
X159229800Y-113869153D01*
X159256250Y-113821593D01*
X159248620Y-113771999D01*
X159206910Y-113720369D01*
X159165136Y-113674018D01*
X159154263Y-113628810D01*
X159170858Y-113561285D01*
X159224077Y-113540684D01*
X159259557Y-113570441D01*
X159286452Y-113660284D01*
X159301187Y-113714790D01*
X159316781Y-113758138D01*
X159353405Y-113822229D01*
X159402618Y-113868009D01*
X159464421Y-113895477D01*
X159538813Y-113904633D01*
X159605002Y-113896113D01*
X159663181Y-113870552D01*
X159713348Y-113827952D01*
X159751815Y-113772380D01*
X159774896Y-113707907D01*
X159782589Y-113634533D01*
X159774959Y-113548187D01*
X159752070Y-113475321D01*
X159713920Y-113415935D01*
X159654979Y-113374733D01*
X159584592Y-113402201D01*
X159529084Y-113469726D01*
X159550258Y-113546407D01*
X159561130Y-113559568D01*
X159574292Y-113575591D01*
X159582876Y-113597909D01*
X159586881Y-113635677D01*
X159572575Y-113678023D01*
X159537668Y-113696335D01*
X159500472Y-113676307D01*
X159480443Y-113631099D01*
X159466137Y-113561285D01*
X159448398Y-113488038D01*
X159418641Y-113423231D01*
X159375150Y-113373016D01*
X159313062Y-113340827D01*
X159227511Y-113330098D01*
X159172861Y-113334962D01*
X159123362Y-113349554D01*
X159046109Y-113399339D01*
X158995179Y-113469726D01*
X158965994Y-113548123D01*
X158957411Y-113624232D01*
X158766662Y-113624232D01*
X158766662Y-113152701D01*
X158766662Y-112769297D01*
X158968856Y-112769297D01*
X158968856Y-113152701D01*
X158976867Y-113212215D01*
X159003190Y-113244261D01*
X159034664Y-113255133D01*
X159074149Y-113256850D01*
X159665851Y-113256850D01*
X159704192Y-113255133D01*
X159735665Y-113244261D01*
X159761989Y-113212215D01*
X159770000Y-113151557D01*
X159761989Y-113092043D01*
X159735665Y-113059998D01*
X159704192Y-113049125D01*
X159664707Y-113047408D01*
X159147396Y-113047408D01*
X159147396Y-112768152D01*
X159145680Y-112735534D01*
X159136524Y-112709211D01*
X159109628Y-112686893D01*
X159058126Y-112680026D01*
X159007768Y-112686893D01*
X158980300Y-112709211D01*
X158970572Y-112736678D01*
X158968856Y-112769297D01*
X158766662Y-112769297D01*
X158766662Y-112680026D01*
X158766662Y-112489277D01*
X159973338Y-112489277D01*
X159973338Y-112680026D01*
G37*
%TO.C,G\u002A\u002A\u002A*%
G36*
X174154819Y-102264993D02*
G01*
X174195510Y-102316272D01*
X174241617Y-102366935D01*
X174290271Y-102411479D01*
X174344754Y-102452594D01*
X174408344Y-102492972D01*
X174484320Y-102535303D01*
X174512757Y-102550984D01*
X174538748Y-102566915D01*
X174553651Y-102578264D01*
X174555643Y-102583791D01*
X174554859Y-102584056D01*
X174540850Y-102585601D01*
X174514466Y-102586531D01*
X174479171Y-102586772D01*
X174438429Y-102586253D01*
X174400491Y-102585153D01*
X174362124Y-102582888D01*
X174332694Y-102579154D01*
X174308005Y-102573376D01*
X174283866Y-102564975D01*
X174271700Y-102559814D01*
X174219936Y-102528749D01*
X174175663Y-102487471D01*
X174143208Y-102439830D01*
X174139906Y-102432872D01*
X174127228Y-102397154D01*
X174117274Y-102355251D01*
X174110896Y-102312496D01*
X174108943Y-102274223D01*
X174112266Y-102245764D01*
X174119984Y-102218854D01*
X174154819Y-102264993D01*
G37*
G36*
X161052163Y-102409335D02*
G01*
X161051612Y-102424049D01*
X161048654Y-102442836D01*
X161043994Y-102450184D01*
X161040235Y-102448801D01*
X161035824Y-102437929D01*
X161034872Y-102432287D01*
X161027398Y-102425674D01*
X161022912Y-102427104D01*
X161014269Y-102437929D01*
X161010700Y-102443576D01*
X160997185Y-102450184D01*
X160989354Y-102447946D01*
X160994326Y-102438711D01*
X160999221Y-102426983D01*
X160998306Y-102405154D01*
X160997743Y-102392121D01*
X161011314Y-102392121D01*
X161012758Y-102396100D01*
X161023569Y-102404119D01*
X161030411Y-102405066D01*
X161035824Y-102396823D01*
X161034403Y-102391234D01*
X161023569Y-102384825D01*
X161017944Y-102385644D01*
X161011314Y-102392121D01*
X160997743Y-102392121D01*
X160997499Y-102386488D01*
X161008836Y-102373126D01*
X161033781Y-102368611D01*
X161039915Y-102368876D01*
X161047957Y-102372902D01*
X161051421Y-102385016D01*
X161051781Y-102396823D01*
X161052163Y-102409335D01*
G37*
G36*
X161089665Y-102436023D02*
G01*
X161072959Y-102462810D01*
X161054528Y-102476320D01*
X161024059Y-102484091D01*
X160993424Y-102477821D01*
X160967107Y-102457727D01*
X160963531Y-102453246D01*
X160951014Y-102432914D01*
X160946736Y-102419009D01*
X160964712Y-102419009D01*
X160979228Y-102444997D01*
X160990118Y-102455415D01*
X161015055Y-102465870D01*
X161041383Y-102464748D01*
X161063152Y-102451583D01*
X161068256Y-102444907D01*
X161076682Y-102418794D01*
X161072120Y-102391538D01*
X161055147Y-102369078D01*
X161055128Y-102369064D01*
X161029142Y-102354558D01*
X161005823Y-102355562D01*
X160982349Y-102372199D01*
X160982332Y-102372215D01*
X160965706Y-102395689D01*
X160964712Y-102419009D01*
X160946736Y-102419009D01*
X160945956Y-102416472D01*
X160947287Y-102403395D01*
X160959725Y-102374800D01*
X160981946Y-102352311D01*
X161009897Y-102339281D01*
X161039524Y-102339065D01*
X161066567Y-102352784D01*
X161085276Y-102376593D01*
X161093373Y-102405811D01*
X161091780Y-102418794D01*
X161089665Y-102436023D01*
G37*
G36*
X174121990Y-101721972D02*
G01*
X174123016Y-101752035D01*
X174109051Y-101780583D01*
X174080478Y-101805174D01*
X174070570Y-101810480D01*
X174033934Y-101820880D01*
X173994795Y-101820951D01*
X173957509Y-101811613D01*
X173926433Y-101793782D01*
X173905923Y-101768377D01*
X173901891Y-101758822D01*
X173897565Y-101727926D01*
X173908073Y-101702432D01*
X174020442Y-101702432D01*
X174020818Y-101717772D01*
X174033485Y-101730951D01*
X174047496Y-101737680D01*
X174057892Y-101737241D01*
X174069856Y-101726917D01*
X174077776Y-101713505D01*
X174074418Y-101697280D01*
X174057385Y-101685941D01*
X174046495Y-101684237D01*
X174029841Y-101689673D01*
X174020442Y-101702432D01*
X173908073Y-101702432D01*
X173908856Y-101700533D01*
X173936092Y-101675638D01*
X173947899Y-101668249D01*
X173965684Y-101661059D01*
X173987511Y-101658473D01*
X174019452Y-101659298D01*
X174041514Y-101660872D01*
X174065642Y-101664932D01*
X174082923Y-101672678D01*
X174099107Y-101686042D01*
X174105592Y-101692836D01*
X174117225Y-101713505D01*
X174121990Y-101721972D01*
G37*
G36*
X171571286Y-102901567D02*
G01*
X171576759Y-102940374D01*
X171352381Y-102940374D01*
X171128004Y-102940374D01*
X171134228Y-102900998D01*
X171141357Y-102868053D01*
X171207262Y-102868053D01*
X171207945Y-102872804D01*
X171211719Y-102876922D01*
X171220800Y-102879782D01*
X171237393Y-102881611D01*
X171263707Y-102882637D01*
X171301946Y-102883086D01*
X171354319Y-102883185D01*
X171372837Y-102883147D01*
X171428795Y-102882408D01*
X171468994Y-102880732D01*
X171493249Y-102878128D01*
X171501375Y-102874609D01*
X171497689Y-102858520D01*
X171483119Y-102832957D01*
X171460963Y-102806716D01*
X171434980Y-102784078D01*
X171408933Y-102769327D01*
X171370342Y-102761325D01*
X171324301Y-102764302D01*
X171280545Y-102779019D01*
X171257176Y-102794037D01*
X171231907Y-102818194D01*
X171214038Y-102844360D01*
X171207262Y-102868053D01*
X171141357Y-102868053D01*
X171142517Y-102862693D01*
X171165885Y-102805382D01*
X171200509Y-102759602D01*
X171246153Y-102725727D01*
X171289208Y-102707510D01*
X171344172Y-102698043D01*
X171397637Y-102702806D01*
X171447571Y-102720700D01*
X171491937Y-102750623D01*
X171528702Y-102791476D01*
X171555830Y-102842157D01*
X171564273Y-102874609D01*
X171571286Y-102901567D01*
G37*
G36*
X168582260Y-102900161D02*
G01*
X168587022Y-102940374D01*
X168365299Y-102940374D01*
X168143576Y-102940374D01*
X168143576Y-102916802D01*
X168144175Y-102903242D01*
X168151125Y-102872972D01*
X168217238Y-102872972D01*
X168217645Y-102874384D01*
X168224390Y-102877864D01*
X168240730Y-102880368D01*
X168268349Y-102882011D01*
X168308931Y-102882911D01*
X168364161Y-102883185D01*
X168382680Y-102883147D01*
X168438637Y-102882408D01*
X168478836Y-102880732D01*
X168503091Y-102878128D01*
X168511218Y-102874609D01*
X168507531Y-102858520D01*
X168492961Y-102832957D01*
X168470805Y-102806716D01*
X168444823Y-102784078D01*
X168418775Y-102769327D01*
X168386717Y-102761571D01*
X168342034Y-102762565D01*
X168299127Y-102775255D01*
X168262249Y-102798231D01*
X168235654Y-102830081D01*
X168230604Y-102839496D01*
X168221080Y-102860065D01*
X168217238Y-102872972D01*
X168151125Y-102872972D01*
X168155573Y-102853601D01*
X168179383Y-102805642D01*
X168212900Y-102763009D01*
X168253422Y-102729348D01*
X168298243Y-102708303D01*
X168327418Y-102700598D01*
X168359897Y-102696127D01*
X168391019Y-102698599D01*
X168428524Y-102707994D01*
X168461280Y-102721411D01*
X168505584Y-102752790D01*
X168542122Y-102795048D01*
X168568483Y-102845176D01*
X168575858Y-102874609D01*
X168582260Y-102900161D01*
G37*
G36*
X163738115Y-103335676D02*
G01*
X163726570Y-103378409D01*
X163703031Y-103416999D01*
X163667374Y-103448417D01*
X163647865Y-103460111D01*
X163628464Y-103467839D01*
X163606467Y-103470517D01*
X163575059Y-103469716D01*
X163557586Y-103468560D01*
X163530485Y-103464497D01*
X163510147Y-103456458D01*
X163490136Y-103442372D01*
X163469523Y-103423879D01*
X163445190Y-103391379D01*
X163433131Y-103353991D01*
X163431647Y-103315019D01*
X163487210Y-103315019D01*
X163492251Y-103349312D01*
X163510324Y-103379466D01*
X163540752Y-103401837D01*
X163555525Y-103407827D01*
X163593541Y-103413215D01*
X163627716Y-103403095D01*
X163656646Y-103377756D01*
X163673982Y-103347291D01*
X163679710Y-103314068D01*
X163673560Y-103283136D01*
X163657784Y-103256435D01*
X163634634Y-103235904D01*
X163606361Y-103223483D01*
X163575218Y-103221114D01*
X163543457Y-103230736D01*
X163513330Y-103254288D01*
X163495880Y-103280230D01*
X163487210Y-103315019D01*
X163431647Y-103315019D01*
X163431346Y-103307114D01*
X163431876Y-103297939D01*
X163435617Y-103267094D01*
X163443263Y-103244404D01*
X163456812Y-103223298D01*
X163473889Y-103204279D01*
X163513708Y-103176850D01*
X163559448Y-103162909D01*
X163608011Y-103163156D01*
X163656299Y-103178288D01*
X163666844Y-103183921D01*
X163702031Y-103212924D01*
X163725722Y-103249904D01*
X163737791Y-103291832D01*
X163737955Y-103314068D01*
X163738115Y-103335676D01*
G37*
G36*
X169794707Y-103035730D02*
G01*
X169781094Y-103102379D01*
X169755777Y-103158580D01*
X169719068Y-103203720D01*
X169671278Y-103237184D01*
X169652570Y-103246347D01*
X169628800Y-103254857D01*
X169604501Y-103257797D01*
X169571865Y-103256700D01*
X169534242Y-103251346D01*
X169482214Y-103231758D01*
X169439258Y-103198619D01*
X169405489Y-103152025D01*
X169381019Y-103092075D01*
X169372732Y-103051370D01*
X169369436Y-102994508D01*
X169370990Y-102971860D01*
X169430814Y-102971860D01*
X169432067Y-103024464D01*
X169441479Y-103074793D01*
X169458792Y-103119738D01*
X169483748Y-103156194D01*
X169516088Y-103181053D01*
X169520577Y-103183219D01*
X169566492Y-103196244D01*
X169611928Y-103193722D01*
X169654247Y-103176208D01*
X169690807Y-103144260D01*
X169697436Y-103135702D01*
X169719052Y-103093821D01*
X169731534Y-103044244D01*
X169735153Y-102990671D01*
X169730181Y-102936805D01*
X169716886Y-102886347D01*
X169695540Y-102842998D01*
X169666413Y-102810459D01*
X169649653Y-102798980D01*
X169607526Y-102782608D01*
X169564293Y-102781227D01*
X169522900Y-102794638D01*
X169486294Y-102822642D01*
X169478591Y-102831463D01*
X169453817Y-102872252D01*
X169437978Y-102920087D01*
X169430814Y-102971860D01*
X169370990Y-102971860D01*
X169373437Y-102936216D01*
X169384611Y-102883662D01*
X169404856Y-102833275D01*
X169437609Y-102784336D01*
X169478958Y-102748919D01*
X169528431Y-102727411D01*
X169585550Y-102720198D01*
X169616676Y-102722656D01*
X169667346Y-102738392D01*
X169711244Y-102767479D01*
X169747270Y-102808521D01*
X169774326Y-102860120D01*
X169791313Y-102920876D01*
X169797132Y-102989393D01*
X169797065Y-102990671D01*
X169794707Y-103035730D01*
G37*
G36*
X164446046Y-103020689D02*
G01*
X164435519Y-103080734D01*
X164414700Y-103135866D01*
X164384219Y-103183719D01*
X164344707Y-103221929D01*
X164296793Y-103248131D01*
X164291062Y-103250025D01*
X164258185Y-103255627D01*
X164220012Y-103255826D01*
X164205522Y-103254264D01*
X164152946Y-103239113D01*
X164108004Y-103210491D01*
X164071573Y-103169598D01*
X164044532Y-103117636D01*
X164027760Y-103055806D01*
X164022460Y-102989393D01*
X164081444Y-102989393D01*
X164086499Y-103043688D01*
X164102417Y-103096776D01*
X164128017Y-103140720D01*
X164162096Y-103173514D01*
X164203452Y-103193147D01*
X164208190Y-103194471D01*
X164226726Y-103199383D01*
X164239272Y-103200447D01*
X164253020Y-103197310D01*
X164275161Y-103189617D01*
X164303241Y-103175744D01*
X164337606Y-103144334D01*
X164363476Y-103101314D01*
X164379781Y-103048633D01*
X164385454Y-102988244D01*
X164385398Y-102982109D01*
X164378844Y-102924010D01*
X164362402Y-102873781D01*
X164337509Y-102832824D01*
X164305603Y-102802543D01*
X164268121Y-102784342D01*
X164226502Y-102779625D01*
X164182182Y-102789795D01*
X164162792Y-102799435D01*
X164127830Y-102829743D01*
X164102222Y-102872289D01*
X164086562Y-102925897D01*
X164081444Y-102989393D01*
X164022460Y-102989393D01*
X164022134Y-102985308D01*
X164022639Y-102960067D01*
X164028239Y-102904222D01*
X164041147Y-102858321D01*
X164062758Y-102818416D01*
X164094469Y-102780553D01*
X164094931Y-102780082D01*
X164139566Y-102744790D01*
X164187966Y-102724313D01*
X164237886Y-102718288D01*
X164287079Y-102726348D01*
X164333298Y-102748130D01*
X164374297Y-102783270D01*
X164407831Y-102831402D01*
X164409575Y-102834720D01*
X164433704Y-102895316D01*
X164445651Y-102958094D01*
X164445841Y-102988244D01*
X164446046Y-103020689D01*
G37*
G36*
X167637595Y-103038452D02*
G01*
X167632629Y-103064873D01*
X167611936Y-103128663D01*
X167581053Y-103181062D01*
X167540600Y-103221181D01*
X167491197Y-103248131D01*
X167464256Y-103254830D01*
X167418695Y-103256154D01*
X167372026Y-103247967D01*
X167330935Y-103230985D01*
X167318339Y-103222924D01*
X167278469Y-103186186D01*
X167248309Y-103140022D01*
X167227774Y-103086995D01*
X167216785Y-103029671D01*
X167215311Y-102972660D01*
X167275771Y-102972660D01*
X167279048Y-103035117D01*
X167279372Y-103037142D01*
X167294832Y-103093925D01*
X167320391Y-103139644D01*
X167355180Y-103173145D01*
X167398332Y-103193279D01*
X167402890Y-103194552D01*
X167421232Y-103199412D01*
X167433688Y-103200454D01*
X167447414Y-103197312D01*
X167469565Y-103189617D01*
X167485554Y-103182453D01*
X167519952Y-103156180D01*
X167548519Y-103119428D01*
X167567736Y-103076262D01*
X167575963Y-103036189D01*
X167579355Y-102983847D01*
X167576212Y-102932026D01*
X167566578Y-102887973D01*
X167559862Y-102871037D01*
X167534692Y-102831263D01*
X167501794Y-102802178D01*
X167463840Y-102784713D01*
X167423502Y-102779796D01*
X167383452Y-102788358D01*
X167346361Y-102811328D01*
X167338582Y-102818602D01*
X167306425Y-102861453D01*
X167285193Y-102913789D01*
X167275771Y-102972660D01*
X167215311Y-102972660D01*
X167215258Y-102970615D01*
X167223111Y-102912391D01*
X167240262Y-102857566D01*
X167266629Y-102808703D01*
X167302130Y-102768368D01*
X167346683Y-102739125D01*
X167367149Y-102730762D01*
X167419357Y-102719778D01*
X167469096Y-102723245D01*
X167515049Y-102739811D01*
X167555902Y-102768121D01*
X167590337Y-102806822D01*
X167617040Y-102854559D01*
X167634695Y-102909979D01*
X167641985Y-102971728D01*
X167641188Y-102983847D01*
X167637595Y-103038452D01*
G37*
G36*
X161811041Y-102994973D02*
G01*
X161808757Y-103045703D01*
X161800962Y-103088392D01*
X161784215Y-103132913D01*
X161753039Y-103183522D01*
X161713172Y-103222351D01*
X161666108Y-103247633D01*
X161662859Y-103248758D01*
X161610761Y-103258065D01*
X161557466Y-103253071D01*
X161507231Y-103234698D01*
X161464314Y-103203869D01*
X161449327Y-103187702D01*
X161418691Y-103140317D01*
X161398481Y-103086001D01*
X161388371Y-103027415D01*
X161388159Y-102989393D01*
X161448420Y-102989393D01*
X161448663Y-103003860D01*
X161455902Y-103064513D01*
X161472725Y-103115094D01*
X161498492Y-103154149D01*
X161532563Y-103180225D01*
X161549862Y-103187613D01*
X161595414Y-103196309D01*
X161640258Y-103190899D01*
X161680237Y-103171626D01*
X161688672Y-103164460D01*
X161710854Y-103135826D01*
X161730373Y-103097533D01*
X161745026Y-103054454D01*
X161752611Y-103011463D01*
X161753419Y-102974735D01*
X161746076Y-102920941D01*
X161729565Y-102874499D01*
X161705597Y-102836270D01*
X161675885Y-102807115D01*
X161642144Y-102787895D01*
X161606084Y-102779469D01*
X161569421Y-102782699D01*
X161533865Y-102798445D01*
X161501130Y-102827569D01*
X161472930Y-102870930D01*
X161471192Y-102874430D01*
X161459257Y-102901065D01*
X161452364Y-102924847D01*
X161449192Y-102952161D01*
X161448420Y-102989393D01*
X161388159Y-102989393D01*
X161388036Y-102967218D01*
X161397152Y-102908068D01*
X161415392Y-102852626D01*
X161442432Y-102803550D01*
X161477947Y-102763500D01*
X161521612Y-102735135D01*
X161542457Y-102727722D01*
X161588148Y-102720810D01*
X161635568Y-102723244D01*
X161677155Y-102735030D01*
X161699190Y-102747829D01*
X161734077Y-102777930D01*
X161765474Y-102816027D01*
X161788962Y-102857289D01*
X161800337Y-102893616D01*
X161808130Y-102942259D01*
X161809923Y-102974735D01*
X161811041Y-102994973D01*
G37*
G36*
X172436618Y-102970555D02*
G01*
X172432488Y-103036302D01*
X172430471Y-103048018D01*
X172411828Y-103114766D01*
X172383133Y-103170280D01*
X172345018Y-103213587D01*
X172298115Y-103243711D01*
X172275027Y-103252348D01*
X172224497Y-103259638D01*
X172174492Y-103252562D01*
X172127309Y-103232296D01*
X172085243Y-103200016D01*
X172050591Y-103156899D01*
X172025649Y-103104121D01*
X172024318Y-103100094D01*
X172010500Y-103037245D01*
X172008530Y-102980440D01*
X172067796Y-102980440D01*
X172070586Y-103028253D01*
X172083310Y-103082303D01*
X172087646Y-103093530D01*
X172102882Y-103119652D01*
X172123695Y-103146443D01*
X172146672Y-103170184D01*
X172168402Y-103187155D01*
X172185471Y-103193638D01*
X172196449Y-103194151D01*
X172213525Y-103196871D01*
X172224047Y-103197987D01*
X172249238Y-103194071D01*
X172277207Y-103184463D01*
X172301015Y-103171198D01*
X172304764Y-103168233D01*
X172329237Y-103139790D01*
X172350239Y-103100415D01*
X172365691Y-103054797D01*
X172373516Y-103007623D01*
X172373591Y-102962323D01*
X172364518Y-102908359D01*
X172346345Y-102861840D01*
X172320486Y-102824245D01*
X172288353Y-102797055D01*
X172251360Y-102781751D01*
X172210918Y-102779814D01*
X172168442Y-102792723D01*
X172158378Y-102798070D01*
X172123137Y-102826998D01*
X172096224Y-102868444D01*
X172076794Y-102923614D01*
X172074671Y-102932336D01*
X172067796Y-102980440D01*
X172008530Y-102980440D01*
X172008293Y-102973597D01*
X172016868Y-102911771D01*
X172035394Y-102854390D01*
X172063043Y-102804076D01*
X172098985Y-102763450D01*
X172142391Y-102735135D01*
X172175744Y-102725053D01*
X172218696Y-102720410D01*
X172261677Y-102722413D01*
X172297294Y-102731249D01*
X172298070Y-102731575D01*
X172343419Y-102759310D01*
X172381024Y-102799504D01*
X172409810Y-102849728D01*
X172428699Y-102907554D01*
X172435583Y-102962323D01*
X172436618Y-102970555D01*
G37*
G36*
X163219935Y-102993477D02*
G01*
X163218822Y-103020543D01*
X163207812Y-103086520D01*
X163185851Y-103144126D01*
X163153899Y-103191776D01*
X163112918Y-103227883D01*
X163063869Y-103250862D01*
X163034913Y-103257001D01*
X162982532Y-103256166D01*
X162931725Y-103241334D01*
X162885209Y-103213866D01*
X162845699Y-103175127D01*
X162815914Y-103126478D01*
X162808430Y-103108541D01*
X162802236Y-103087801D01*
X162798588Y-103063971D01*
X162796859Y-103032639D01*
X162796611Y-103008117D01*
X162851267Y-103008117D01*
X162851645Y-103013284D01*
X162861390Y-103069404D01*
X162880147Y-103117815D01*
X162906586Y-103155902D01*
X162939375Y-103181053D01*
X162948698Y-103185172D01*
X162974257Y-103193169D01*
X162999469Y-103197782D01*
X163017007Y-103197463D01*
X163028114Y-103194620D01*
X163047495Y-103190150D01*
X163055252Y-103188066D01*
X163089247Y-103169295D01*
X163118107Y-103137561D01*
X163140443Y-103095345D01*
X163154864Y-103045129D01*
X163159979Y-102989393D01*
X163159665Y-102974817D01*
X163151764Y-102917579D01*
X163134300Y-102868401D01*
X163108708Y-102828660D01*
X163076421Y-102799730D01*
X163038873Y-102782986D01*
X162997496Y-102779803D01*
X162953726Y-102791556D01*
X162924387Y-102808854D01*
X162890480Y-102844111D01*
X162866415Y-102890291D01*
X162853057Y-102945568D01*
X162851267Y-103008117D01*
X162796611Y-103008117D01*
X162796422Y-102989393D01*
X162796423Y-102986280D01*
X162796850Y-102944683D01*
X162798517Y-102914695D01*
X162802103Y-102891874D01*
X162808288Y-102871777D01*
X162817751Y-102849961D01*
X162832357Y-102822480D01*
X162868677Y-102775628D01*
X162912544Y-102742857D01*
X162963274Y-102724603D01*
X163020178Y-102721304D01*
X163036364Y-102723075D01*
X163089430Y-102738526D01*
X163134640Y-102767366D01*
X163171145Y-102808439D01*
X163198096Y-102860587D01*
X163214642Y-102922652D01*
X163219630Y-102989393D01*
X163219935Y-102993477D01*
G37*
G36*
X166749302Y-102993477D02*
G01*
X166748188Y-103020543D01*
X166737179Y-103086520D01*
X166715217Y-103144126D01*
X166683265Y-103191776D01*
X166642284Y-103227883D01*
X166593236Y-103250862D01*
X166564279Y-103257001D01*
X166511898Y-103256166D01*
X166461091Y-103241334D01*
X166414575Y-103213866D01*
X166375066Y-103175127D01*
X166345280Y-103126478D01*
X166337796Y-103108541D01*
X166331602Y-103087801D01*
X166327954Y-103063971D01*
X166326225Y-103032639D01*
X166325977Y-103008117D01*
X166380633Y-103008117D01*
X166381011Y-103013284D01*
X166390756Y-103069404D01*
X166409513Y-103117815D01*
X166435952Y-103155902D01*
X166468741Y-103181053D01*
X166478064Y-103185172D01*
X166503624Y-103193169D01*
X166528835Y-103197782D01*
X166546374Y-103197463D01*
X166557481Y-103194620D01*
X166576861Y-103190150D01*
X166584618Y-103188066D01*
X166618613Y-103169295D01*
X166647473Y-103137561D01*
X166669809Y-103095345D01*
X166684230Y-103045129D01*
X166689346Y-102989393D01*
X166689032Y-102974817D01*
X166681130Y-102917579D01*
X166663667Y-102868401D01*
X166638075Y-102828660D01*
X166605788Y-102799730D01*
X166568239Y-102782986D01*
X166526863Y-102779803D01*
X166483092Y-102791556D01*
X166453753Y-102808854D01*
X166419846Y-102844111D01*
X166395782Y-102890291D01*
X166382423Y-102945568D01*
X166380633Y-103008117D01*
X166325977Y-103008117D01*
X166325788Y-102989393D01*
X166325789Y-102986280D01*
X166326217Y-102944683D01*
X166327884Y-102914695D01*
X166331470Y-102891874D01*
X166337654Y-102871777D01*
X166347117Y-102849961D01*
X166361724Y-102822480D01*
X166398043Y-102775628D01*
X166441911Y-102742857D01*
X166492640Y-102724603D01*
X166549544Y-102721304D01*
X166565730Y-102723075D01*
X166618796Y-102738526D01*
X166664006Y-102767366D01*
X166700511Y-102808439D01*
X166727462Y-102860587D01*
X166744009Y-102922652D01*
X166748997Y-102989393D01*
X166749302Y-102993477D01*
G37*
G36*
X170684642Y-103042706D02*
G01*
X170670969Y-103108138D01*
X170645793Y-103162251D01*
X170608944Y-103205373D01*
X170560254Y-103237835D01*
X170558634Y-103238634D01*
X170505582Y-103256443D01*
X170453337Y-103258680D01*
X170403648Y-103246060D01*
X170358263Y-103219300D01*
X170318931Y-103179113D01*
X170287402Y-103126217D01*
X170280325Y-103110211D01*
X170271740Y-103086506D01*
X170266772Y-103062769D01*
X170264456Y-103033570D01*
X170263828Y-102993477D01*
X170264010Y-102978504D01*
X170322169Y-102978504D01*
X170325339Y-103031003D01*
X170337742Y-103081484D01*
X170359636Y-103127093D01*
X170391279Y-103164976D01*
X170403425Y-103175043D01*
X170423873Y-103188404D01*
X170438653Y-103193638D01*
X170447759Y-103194085D01*
X170465181Y-103197076D01*
X170469419Y-103198090D01*
X170484232Y-103197791D01*
X170495332Y-103194731D01*
X170514719Y-103190150D01*
X170522476Y-103188066D01*
X170556471Y-103169295D01*
X170585331Y-103137561D01*
X170607667Y-103095345D01*
X170622088Y-103045129D01*
X170627204Y-102989393D01*
X170627129Y-102982299D01*
X170620468Y-102924253D01*
X170604027Y-102874004D01*
X170579238Y-102832969D01*
X170547529Y-102802564D01*
X170510331Y-102784205D01*
X170469073Y-102779310D01*
X170425186Y-102789293D01*
X170396672Y-102805396D01*
X170365484Y-102837432D01*
X170342499Y-102878864D01*
X170327975Y-102926840D01*
X170322169Y-102978504D01*
X170264010Y-102978504D01*
X170264126Y-102968953D01*
X170268797Y-102912329D01*
X170280054Y-102865984D01*
X170299087Y-102826063D01*
X170327087Y-102788709D01*
X170337449Y-102777501D01*
X170377977Y-102744592D01*
X170422826Y-102725958D01*
X170475525Y-102719968D01*
X170504975Y-102721891D01*
X170557207Y-102736927D01*
X170602565Y-102766384D01*
X170640265Y-102809672D01*
X170669521Y-102866197D01*
X170675160Y-102881760D01*
X170682554Y-102911044D01*
X170686373Y-102944994D01*
X170687459Y-102989393D01*
X170684642Y-103042706D01*
G37*
G36*
X165851600Y-103023595D02*
G01*
X165850048Y-103054574D01*
X165846330Y-103078328D01*
X165839598Y-103099866D01*
X165829003Y-103124195D01*
X165810745Y-103158810D01*
X165779163Y-103200549D01*
X165740796Y-103230636D01*
X165692680Y-103251850D01*
X165685079Y-103253794D01*
X165654415Y-103256371D01*
X165617875Y-103254457D01*
X165582649Y-103248688D01*
X165555931Y-103239706D01*
X165522016Y-103216412D01*
X165485592Y-103176911D01*
X165456768Y-103128329D01*
X165447230Y-103102823D01*
X165436126Y-103051584D01*
X165431384Y-102994859D01*
X165431578Y-102989393D01*
X165492851Y-102989393D01*
X165492858Y-103009900D01*
X165493941Y-103042334D01*
X165497224Y-103066061D01*
X165503622Y-103086196D01*
X165514050Y-103107855D01*
X165523630Y-103125084D01*
X165545120Y-103155354D01*
X165569191Y-103175606D01*
X165600175Y-103189972D01*
X165620055Y-103196723D01*
X165637136Y-103200000D01*
X165654070Y-103198048D01*
X165678704Y-103190968D01*
X165690659Y-103186621D01*
X165729397Y-103161743D01*
X165760416Y-103123466D01*
X165782532Y-103073131D01*
X165792803Y-103035501D01*
X165797737Y-103000106D01*
X165795892Y-102964786D01*
X165787518Y-102921961D01*
X165784335Y-102909544D01*
X165763379Y-102857015D01*
X165733539Y-102817590D01*
X165695197Y-102791805D01*
X165658189Y-102780789D01*
X165615168Y-102781831D01*
X165575488Y-102797998D01*
X165540633Y-102828630D01*
X165512088Y-102873068D01*
X165502599Y-102895642D01*
X165496776Y-102919169D01*
X165493810Y-102948704D01*
X165492851Y-102989393D01*
X165431578Y-102989393D01*
X165433370Y-102938781D01*
X165442453Y-102889480D01*
X165460684Y-102842022D01*
X165491654Y-102793485D01*
X165529867Y-102756897D01*
X165573273Y-102732458D01*
X165619825Y-102720366D01*
X165667474Y-102720820D01*
X165714170Y-102734019D01*
X165757866Y-102760162D01*
X165796513Y-102799446D01*
X165828062Y-102852072D01*
X165837554Y-102873779D01*
X165845108Y-102896090D01*
X165849417Y-102919386D01*
X165851370Y-102948782D01*
X165851851Y-102989393D01*
X165851772Y-103000106D01*
X165851600Y-103023595D01*
G37*
G36*
X169115708Y-102594789D02*
G01*
X169115772Y-102688105D01*
X169115785Y-102796544D01*
X169115783Y-102815435D01*
X169115617Y-102941228D01*
X169115190Y-103050766D01*
X169114501Y-103144125D01*
X169113550Y-103221378D01*
X169112335Y-103282598D01*
X169110855Y-103327859D01*
X169109109Y-103357236D01*
X169107096Y-103370800D01*
X169088327Y-103404375D01*
X169055356Y-103435604D01*
X169013735Y-103455964D01*
X168966821Y-103463243D01*
X168925158Y-103456695D01*
X168884653Y-103434924D01*
X168850266Y-103398403D01*
X168825756Y-103363848D01*
X168825366Y-103348235D01*
X168886697Y-103348235D01*
X168909331Y-103372272D01*
X168920073Y-103382100D01*
X168951124Y-103398029D01*
X168984028Y-103400761D01*
X169014753Y-103390453D01*
X169039267Y-103367259D01*
X169039667Y-103366662D01*
X169042681Y-103361331D01*
X169045271Y-103354337D01*
X169047475Y-103344456D01*
X169049333Y-103330465D01*
X169050885Y-103311142D01*
X169052170Y-103285264D01*
X169053227Y-103251607D01*
X169054096Y-103208948D01*
X169054816Y-103156065D01*
X169055428Y-103091734D01*
X169055969Y-103014733D01*
X169056481Y-102923838D01*
X169057002Y-102817826D01*
X169057123Y-102790910D01*
X169057511Y-102670800D01*
X169057564Y-102566665D01*
X169057280Y-102478210D01*
X169056655Y-102405134D01*
X169055685Y-102347141D01*
X169054368Y-102303932D01*
X169052700Y-102275209D01*
X169050678Y-102260674D01*
X169050666Y-102260634D01*
X169034077Y-102228539D01*
X169008383Y-102206887D01*
X168977321Y-102196883D01*
X168944627Y-102199730D01*
X168914038Y-102216634D01*
X168891115Y-102236348D01*
X168888906Y-102792292D01*
X168888107Y-102993477D01*
X168886697Y-103348235D01*
X168825366Y-103348235D01*
X168821235Y-103182747D01*
X168820447Y-103152608D01*
X168819102Y-103107224D01*
X168817821Y-103071099D01*
X168816679Y-103046001D01*
X168815750Y-103033701D01*
X168815108Y-103035967D01*
X168814322Y-103048768D01*
X168800491Y-103130202D01*
X168772597Y-103207009D01*
X168732098Y-103277384D01*
X168680456Y-103339522D01*
X168619131Y-103391619D01*
X168549582Y-103431871D01*
X168473269Y-103458472D01*
X168443104Y-103464137D01*
X168387345Y-103469300D01*
X168326403Y-103470045D01*
X168266693Y-103466375D01*
X168214632Y-103458295D01*
X168167977Y-103445700D01*
X168107459Y-103422894D01*
X168052033Y-103394885D01*
X168004493Y-103363347D01*
X167967636Y-103329953D01*
X167944254Y-103296377D01*
X167934370Y-103265665D01*
X167933954Y-103224283D01*
X167946555Y-103185317D01*
X167970436Y-103151897D01*
X168003865Y-103127158D01*
X168045107Y-103114229D01*
X168048174Y-103113852D01*
X168063783Y-103113438D01*
X168080744Y-103116485D01*
X168102301Y-103124093D01*
X168131695Y-103137364D01*
X168172169Y-103157400D01*
X168196949Y-103169821D01*
X168230425Y-103185818D01*
X168255687Y-103196097D01*
X168276656Y-103201915D01*
X168297251Y-103204527D01*
X168321392Y-103205187D01*
X168379051Y-103200322D01*
X168430598Y-103184117D01*
X168471008Y-103156924D01*
X168499466Y-103119137D01*
X168511637Y-103095600D01*
X168257901Y-103095600D01*
X168187965Y-103095511D01*
X168123553Y-103095039D01*
X168072176Y-103093912D01*
X168032088Y-103091861D01*
X168001543Y-103088616D01*
X167978796Y-103083907D01*
X167962100Y-103077463D01*
X167949711Y-103069016D01*
X167939882Y-103058295D01*
X167930868Y-103045031D01*
X167926461Y-103037577D01*
X167920101Y-103022573D01*
X167916798Y-103004253D01*
X167915985Y-102978294D01*
X167916699Y-102953833D01*
X167972465Y-102953833D01*
X167975671Y-102989865D01*
X167987618Y-103015039D01*
X168003228Y-103034327D01*
X168293411Y-103036756D01*
X168583593Y-103039186D01*
X168579424Y-103069435D01*
X168576037Y-103084848D01*
X168566263Y-103114290D01*
X168553364Y-103144268D01*
X168529062Y-103182932D01*
X168488153Y-103221746D01*
X168436682Y-103248643D01*
X168375334Y-103263291D01*
X168304793Y-103265356D01*
X168304474Y-103265338D01*
X168273999Y-103262899D01*
X168248936Y-103258611D01*
X168224367Y-103250939D01*
X168195375Y-103238353D01*
X168157042Y-103219320D01*
X168127500Y-103204908D01*
X168094781Y-103190506D01*
X168068686Y-103180736D01*
X168053089Y-103177167D01*
X168040000Y-103179512D01*
X168017344Y-103193717D01*
X168000436Y-103216495D01*
X167993795Y-103242839D01*
X167995756Y-103256515D01*
X168011075Y-103284938D01*
X168040284Y-103313512D01*
X168081816Y-103341103D01*
X168134103Y-103366578D01*
X168195577Y-103388801D01*
X168199735Y-103390052D01*
X168254852Y-103402183D01*
X168316224Y-103409122D01*
X168376797Y-103410367D01*
X168429520Y-103405416D01*
X168466145Y-103396243D01*
X168519779Y-103375685D01*
X168572087Y-103348677D01*
X168616050Y-103318488D01*
X168638247Y-103297730D01*
X168675397Y-103251578D01*
X168708115Y-103196723D01*
X168733259Y-103138005D01*
X168733872Y-103136215D01*
X168742899Y-103105795D01*
X168748465Y-103075515D01*
X168751280Y-103039902D01*
X168752059Y-102993477D01*
X168751775Y-102967912D01*
X168748282Y-102914928D01*
X168739638Y-102869026D01*
X168724376Y-102823874D01*
X168701029Y-102773134D01*
X168684383Y-102745590D01*
X168653991Y-102706661D01*
X168617662Y-102668126D01*
X168579904Y-102634678D01*
X168545227Y-102611008D01*
X168493416Y-102588125D01*
X168423302Y-102570358D01*
X168351624Y-102565152D01*
X168283376Y-102573226D01*
X168267551Y-102577328D01*
X168201759Y-102604108D01*
X168140119Y-102644205D01*
X168084928Y-102695218D01*
X168038483Y-102754742D01*
X168003078Y-102820375D01*
X167981010Y-102889714D01*
X167977931Y-102905608D01*
X167972465Y-102953833D01*
X167916699Y-102953833D01*
X167917092Y-102940374D01*
X167920729Y-102893389D01*
X167932977Y-102831379D01*
X167955184Y-102773738D01*
X167989380Y-102714120D01*
X168010259Y-102684771D01*
X168063792Y-102626194D01*
X168125758Y-102576826D01*
X168192919Y-102539027D01*
X168262043Y-102515157D01*
X168271635Y-102513115D01*
X168325749Y-102506773D01*
X168385858Y-102506476D01*
X168444813Y-102511984D01*
X168495467Y-102523053D01*
X168496363Y-102523334D01*
X168567028Y-102553828D01*
X168632263Y-102597915D01*
X168690305Y-102653290D01*
X168739393Y-102717647D01*
X168777764Y-102788680D01*
X168803656Y-102864084D01*
X168815307Y-102941553D01*
X168815724Y-102941588D01*
X168816313Y-102927186D01*
X168817020Y-102899180D01*
X168817820Y-102858992D01*
X168818688Y-102808039D01*
X168819596Y-102747744D01*
X168820520Y-102679524D01*
X168821434Y-102604800D01*
X168825756Y-102232462D01*
X168848817Y-102197629D01*
X168874566Y-102168068D01*
X168911831Y-102144606D01*
X168953298Y-102133810D01*
X168995884Y-102135486D01*
X169036505Y-102149440D01*
X169072078Y-102175478D01*
X169099521Y-102213407D01*
X169102023Y-102218558D01*
X169104873Y-102225800D01*
X169107300Y-102234786D01*
X169109338Y-102246731D01*
X169111021Y-102262851D01*
X169112383Y-102284364D01*
X169113457Y-102312485D01*
X169114279Y-102348430D01*
X169114880Y-102393417D01*
X169115297Y-102448662D01*
X169115561Y-102515380D01*
X169115656Y-102566665D01*
X169115708Y-102594789D01*
G37*
G36*
X165185060Y-102858725D02*
G01*
X165184893Y-102930093D01*
X165184483Y-103005732D01*
X165184330Y-103027944D01*
X165183716Y-103113596D01*
X165183012Y-103184784D01*
X165182006Y-103243030D01*
X165180482Y-103289855D01*
X165178228Y-103326779D01*
X165175030Y-103355325D01*
X165170673Y-103377012D01*
X165164944Y-103393361D01*
X165157630Y-103405894D01*
X165148516Y-103416132D01*
X165137388Y-103425595D01*
X165124033Y-103435805D01*
X165111522Y-103444409D01*
X165084012Y-103456079D01*
X165048454Y-103461185D01*
X165033577Y-103461669D01*
X164990706Y-103455694D01*
X164954477Y-103436796D01*
X164921159Y-103403275D01*
X164896068Y-103371903D01*
X164891983Y-103137756D01*
X164891881Y-103131921D01*
X164890587Y-103064007D01*
X164889278Y-103010382D01*
X164887814Y-102969143D01*
X164886056Y-102938388D01*
X164883865Y-102916212D01*
X164881102Y-102900711D01*
X164877628Y-102889982D01*
X164873303Y-102882122D01*
X164871252Y-102879351D01*
X164849919Y-102860125D01*
X164815092Y-102838064D01*
X164768757Y-102814309D01*
X164712898Y-102789998D01*
X164685476Y-102778055D01*
X164661249Y-102765837D01*
X164646955Y-102756613D01*
X164641250Y-102752798D01*
X164639653Y-102757147D01*
X164643320Y-102772580D01*
X164652512Y-102801196D01*
X164667737Y-102858195D01*
X164678931Y-102936436D01*
X164680510Y-102993045D01*
X164681179Y-103017039D01*
X164674391Y-103094716D01*
X164658483Y-103164182D01*
X164630389Y-103231764D01*
X164590350Y-103297045D01*
X164541475Y-103354994D01*
X164485987Y-103403358D01*
X164426110Y-103439885D01*
X164364067Y-103462325D01*
X164337898Y-103466870D01*
X164293032Y-103470188D01*
X164245475Y-103469768D01*
X164201453Y-103465741D01*
X164167196Y-103458235D01*
X164156415Y-103454231D01*
X164122923Y-103438775D01*
X164092674Y-103421269D01*
X164057244Y-103397481D01*
X164041835Y-103417071D01*
X164037464Y-103422250D01*
X164005736Y-103446307D01*
X163966566Y-103459553D01*
X163923917Y-103462153D01*
X163881754Y-103454268D01*
X163844040Y-103436064D01*
X163814740Y-103407703D01*
X163808345Y-103398207D01*
X163802557Y-103387720D01*
X163797630Y-103375470D01*
X163793503Y-103360242D01*
X163790114Y-103340823D01*
X163787400Y-103315997D01*
X163785301Y-103284549D01*
X163783753Y-103245265D01*
X163782695Y-103196931D01*
X163782066Y-103138330D01*
X163781802Y-103068249D01*
X163781843Y-102985473D01*
X163782126Y-102888787D01*
X163782590Y-102776977D01*
X163783402Y-102594529D01*
X163847809Y-102594529D01*
X163847963Y-102693067D01*
X163848316Y-102806959D01*
X163850330Y-103355725D01*
X163869738Y-103376381D01*
X163891102Y-103393196D01*
X163925426Y-103403387D01*
X163963530Y-103398273D01*
X163975338Y-103393096D01*
X163996096Y-103374731D01*
X164012775Y-103344361D01*
X164026750Y-103299846D01*
X164030693Y-103283495D01*
X164034263Y-103273151D01*
X164039169Y-103271476D01*
X164047514Y-103279583D01*
X164061398Y-103298584D01*
X164082921Y-103329591D01*
X164107519Y-103356728D01*
X164152650Y-103386005D01*
X164187588Y-103399776D01*
X164249385Y-103411255D01*
X164313951Y-103409359D01*
X164377568Y-103394344D01*
X164436517Y-103366466D01*
X164438822Y-103365021D01*
X164484488Y-103328207D01*
X164527320Y-103279134D01*
X164564765Y-103221691D01*
X164594272Y-103159764D01*
X164613288Y-103097241D01*
X164617906Y-103070575D01*
X164622223Y-102993045D01*
X164615102Y-102911615D01*
X164597191Y-102831274D01*
X164569137Y-102757008D01*
X164556766Y-102733600D01*
X164516750Y-102678304D01*
X164466967Y-102630827D01*
X164411538Y-102595395D01*
X164386607Y-102583644D01*
X164364577Y-102575508D01*
X164342252Y-102570996D01*
X164314286Y-102569059D01*
X164275333Y-102568646D01*
X164250828Y-102568798D01*
X164217683Y-102570170D01*
X164192612Y-102573729D01*
X164170360Y-102580381D01*
X164145673Y-102591034D01*
X164125092Y-102601732D01*
X164088948Y-102624016D01*
X164057847Y-102646941D01*
X164017812Y-102680461D01*
X164017781Y-102469327D01*
X164017688Y-102404537D01*
X164017338Y-102353931D01*
X164016593Y-102315484D01*
X164015312Y-102287108D01*
X164013359Y-102266710D01*
X164010594Y-102252200D01*
X164006878Y-102241488D01*
X164002074Y-102232483D01*
X163992822Y-102219820D01*
X163965209Y-102199323D01*
X163932320Y-102193212D01*
X163897322Y-102202397D01*
X163892088Y-102205176D01*
X163870512Y-102220949D01*
X163856550Y-102237768D01*
X163855433Y-102240882D01*
X163853486Y-102252016D01*
X163851851Y-102270631D01*
X163850515Y-102297710D01*
X163849463Y-102334239D01*
X163848680Y-102381201D01*
X163848153Y-102439581D01*
X163847867Y-102510362D01*
X163847809Y-102594529D01*
X163783402Y-102594529D01*
X163784971Y-102241853D01*
X163807323Y-102203831D01*
X163835004Y-102169510D01*
X163872107Y-102144924D01*
X163913925Y-102133064D01*
X163957259Y-102134300D01*
X163998908Y-102148999D01*
X164035674Y-102177531D01*
X164038951Y-102181093D01*
X164051170Y-102196267D01*
X164060296Y-102212671D01*
X164066769Y-102232822D01*
X164071034Y-102259238D01*
X164073533Y-102294435D01*
X164074707Y-102340932D01*
X164075000Y-102401245D01*
X164075000Y-102555488D01*
X164118145Y-102535735D01*
X164150026Y-102523362D01*
X164217455Y-102508319D01*
X164288849Y-102504750D01*
X164359112Y-102512714D01*
X164423146Y-102532269D01*
X164443906Y-102542163D01*
X164493706Y-102573204D01*
X164539295Y-102611047D01*
X164574709Y-102651020D01*
X164601954Y-102688979D01*
X164603748Y-102676604D01*
X164666621Y-102676604D01*
X164673755Y-102693895D01*
X164690731Y-102709495D01*
X164719455Y-102725632D01*
X164761831Y-102744536D01*
X164801156Y-102761934D01*
X164849586Y-102787032D01*
X164885797Y-102811739D01*
X164912096Y-102837723D01*
X164930790Y-102866651D01*
X164933263Y-102871622D01*
X164938324Y-102883133D01*
X164942181Y-102895618D01*
X164944997Y-102911275D01*
X164946935Y-102932297D01*
X164948159Y-102960878D01*
X164948830Y-102999215D01*
X164949114Y-103049502D01*
X164949172Y-103113933D01*
X164949363Y-103185649D01*
X164950169Y-103243425D01*
X164951931Y-103288495D01*
X164954991Y-103322679D01*
X164959691Y-103347801D01*
X164966372Y-103365681D01*
X164975376Y-103378142D01*
X164987044Y-103387005D01*
X165001720Y-103394093D01*
X165011244Y-103397957D01*
X165033534Y-103404512D01*
X165052379Y-103403389D01*
X165076003Y-103394649D01*
X165083562Y-103391257D01*
X165093665Y-103385690D01*
X165101976Y-103378451D01*
X165108683Y-103368074D01*
X165113974Y-103353091D01*
X165118038Y-103332037D01*
X165121063Y-103303444D01*
X165123238Y-103265845D01*
X165124751Y-103217775D01*
X165125790Y-103157765D01*
X165126544Y-103084349D01*
X165127202Y-102996061D01*
X165127612Y-102934731D01*
X165127986Y-102855497D01*
X165127919Y-102790153D01*
X165127240Y-102737228D01*
X165125777Y-102695253D01*
X165123358Y-102662760D01*
X165119813Y-102638278D01*
X165114969Y-102620338D01*
X165108655Y-102607472D01*
X165100700Y-102598210D01*
X165090932Y-102591082D01*
X165079179Y-102584619D01*
X165049010Y-102575320D01*
X165015659Y-102574721D01*
X164985275Y-102582278D01*
X164963792Y-102597336D01*
X164953518Y-102618061D01*
X164949172Y-102643080D01*
X164948101Y-102660134D01*
X164941778Y-102668940D01*
X164926030Y-102670769D01*
X164914812Y-102669354D01*
X164896595Y-102659276D01*
X164875841Y-102637113D01*
X164860581Y-102620505D01*
X164823583Y-102593303D01*
X164782958Y-102577523D01*
X164743089Y-102575209D01*
X164710574Y-102584480D01*
X164686196Y-102605150D01*
X164671263Y-102638591D01*
X164667425Y-102655394D01*
X164666621Y-102676604D01*
X164603748Y-102676604D01*
X164608277Y-102645373D01*
X164613844Y-102618928D01*
X164633724Y-102574749D01*
X164664663Y-102542324D01*
X164705860Y-102522355D01*
X164756513Y-102515542D01*
X164779912Y-102516621D01*
X164834420Y-102529297D01*
X164881579Y-102556387D01*
X164902899Y-102573158D01*
X164923993Y-102553518D01*
X164924246Y-102553284D01*
X164944286Y-102536841D01*
X164962932Y-102524710D01*
X164973963Y-102520757D01*
X165002916Y-102516543D01*
X165037679Y-102516168D01*
X165071759Y-102519544D01*
X165098662Y-102526580D01*
X165121474Y-102540043D01*
X165148765Y-102565341D01*
X165170523Y-102595028D01*
X165182037Y-102623618D01*
X165182646Y-102629962D01*
X165183523Y-102652542D01*
X165184215Y-102688538D01*
X165184709Y-102736119D01*
X165184995Y-102793458D01*
X165185057Y-102855497D01*
X165185060Y-102858725D01*
G37*
G36*
X167880771Y-102507027D02*
G01*
X167880984Y-102598176D01*
X167880871Y-102704624D01*
X167880439Y-102826888D01*
X167878056Y-103352950D01*
X167855704Y-103390972D01*
X167852653Y-103395926D01*
X167822323Y-103429594D01*
X167784145Y-103451935D01*
X167741549Y-103462530D01*
X167697969Y-103460959D01*
X167656836Y-103446801D01*
X167621582Y-103419636D01*
X167602034Y-103398433D01*
X167577527Y-103415883D01*
X167564387Y-103424151D01*
X167536970Y-103438673D01*
X167507207Y-103452179D01*
X167497808Y-103455764D01*
X167442403Y-103468465D01*
X167380429Y-103471236D01*
X167316898Y-103464535D01*
X167256825Y-103448822D01*
X167205223Y-103424555D01*
X167181566Y-103408803D01*
X167117027Y-103352992D01*
X167063205Y-103285514D01*
X167020904Y-103207506D01*
X166990924Y-103120110D01*
X166981483Y-103083346D01*
X166970079Y-103128280D01*
X166963890Y-103150374D01*
X166931887Y-103228751D01*
X166887011Y-103299485D01*
X166830875Y-103360731D01*
X166765091Y-103410644D01*
X166691270Y-103447378D01*
X166687990Y-103448591D01*
X166644984Y-103459836D01*
X166592475Y-103467334D01*
X166536405Y-103470705D01*
X166482719Y-103469570D01*
X166437360Y-103463553D01*
X166423855Y-103460347D01*
X166348757Y-103433004D01*
X166279871Y-103391811D01*
X166218806Y-103338394D01*
X166167168Y-103274378D01*
X166126564Y-103201387D01*
X166098603Y-103121048D01*
X166087480Y-103077052D01*
X166076434Y-103129218D01*
X166063312Y-103176450D01*
X166032365Y-103247026D01*
X165990401Y-103312615D01*
X165939891Y-103369567D01*
X165883310Y-103414230D01*
X165882644Y-103414652D01*
X165819034Y-103446349D01*
X165750706Y-103465371D01*
X165680663Y-103471714D01*
X165611905Y-103465376D01*
X165547435Y-103446353D01*
X165490255Y-103414642D01*
X165457731Y-103391082D01*
X165447723Y-103409781D01*
X165437084Y-103423962D01*
X165409644Y-103444104D01*
X165374424Y-103458038D01*
X165336664Y-103463243D01*
X165316826Y-103462200D01*
X165271874Y-103450807D01*
X165235831Y-103427909D01*
X165211098Y-103394814D01*
X165210075Y-103392680D01*
X165206272Y-103383919D01*
X165203133Y-103374167D01*
X165200594Y-103361889D01*
X165198592Y-103345550D01*
X165197063Y-103323615D01*
X165195944Y-103294550D01*
X165195170Y-103256819D01*
X165194680Y-103208888D01*
X165194408Y-103149222D01*
X165194380Y-103131750D01*
X165252399Y-103131750D01*
X165252555Y-103197247D01*
X165253300Y-103250400D01*
X165254779Y-103292605D01*
X165257141Y-103325255D01*
X165260531Y-103349744D01*
X165265096Y-103367468D01*
X165270983Y-103379821D01*
X165278337Y-103388196D01*
X165287307Y-103393990D01*
X165298037Y-103398596D01*
X165309063Y-103401876D01*
X165340689Y-103403557D01*
X165370704Y-103396120D01*
X165392440Y-103380821D01*
X165398751Y-103371001D01*
X165409922Y-103346902D01*
X165419771Y-103318612D01*
X165432751Y-103273964D01*
X165478948Y-103322104D01*
X165481075Y-103324298D01*
X165509406Y-103350434D01*
X165539482Y-103373758D01*
X165565138Y-103389452D01*
X165566864Y-103390266D01*
X165609725Y-103403997D01*
X165660552Y-103410988D01*
X165712535Y-103410768D01*
X165758864Y-103402866D01*
X165819489Y-103379367D01*
X165881386Y-103339996D01*
X165933513Y-103288660D01*
X165975167Y-103226441D01*
X166005645Y-103154421D01*
X166024243Y-103073683D01*
X166028538Y-103010590D01*
X166144107Y-103010590D01*
X166153608Y-103090680D01*
X166176816Y-103166834D01*
X166213489Y-103237056D01*
X166263385Y-103299352D01*
X166307162Y-103338201D01*
X166369736Y-103376249D01*
X166441745Y-103402037D01*
X166490125Y-103410907D01*
X166564915Y-103411884D01*
X166640299Y-103398778D01*
X166712487Y-103372008D01*
X166715944Y-103370295D01*
X166759270Y-103342164D01*
X166802671Y-103303297D01*
X166841701Y-103258178D01*
X166871912Y-103211289D01*
X166873116Y-103208981D01*
X166905042Y-103131056D01*
X166922491Y-103050192D01*
X166924978Y-102987873D01*
X167040910Y-102987873D01*
X167044593Y-103052399D01*
X167053907Y-103113489D01*
X167068411Y-103165044D01*
X167089277Y-103211577D01*
X167129967Y-103275096D01*
X167179902Y-103328641D01*
X167237082Y-103370199D01*
X167299510Y-103397757D01*
X167351074Y-103409780D01*
X167416567Y-103412360D01*
X167478298Y-103399373D01*
X167494567Y-103393289D01*
X167532738Y-103373272D01*
X167564550Y-103345486D01*
X167595078Y-103305868D01*
X167623583Y-103263540D01*
X167630843Y-103287821D01*
X167643127Y-103326976D01*
X167654189Y-103355955D01*
X167664930Y-103374963D01*
X167677104Y-103387056D01*
X167692464Y-103395293D01*
X167728083Y-103403319D01*
X167763317Y-103397192D01*
X167793009Y-103376680D01*
X167812697Y-103355725D01*
X167814805Y-102806959D01*
X167815091Y-102731087D01*
X167815420Y-102633416D01*
X167815621Y-102550052D01*
X167815665Y-102479789D01*
X167815523Y-102421421D01*
X167815166Y-102373744D01*
X167814565Y-102335551D01*
X167813693Y-102305637D01*
X167812520Y-102282795D01*
X167811017Y-102265821D01*
X167809157Y-102253508D01*
X167806910Y-102244652D01*
X167804247Y-102238045D01*
X167801140Y-102232483D01*
X167791934Y-102219924D01*
X167764248Y-102199361D01*
X167731315Y-102193216D01*
X167696293Y-102202397D01*
X167694550Y-102203254D01*
X167680342Y-102210932D01*
X167669176Y-102219586D01*
X167660685Y-102231135D01*
X167654501Y-102247501D01*
X167650257Y-102270604D01*
X167647587Y-102302364D01*
X167646121Y-102344702D01*
X167645493Y-102399538D01*
X167645336Y-102468793D01*
X167645216Y-102679393D01*
X167592896Y-102639292D01*
X167568855Y-102621587D01*
X167526321Y-102595523D01*
X167485109Y-102579306D01*
X167439501Y-102571005D01*
X167383781Y-102568690D01*
X167366231Y-102568784D01*
X167331889Y-102570075D01*
X167305744Y-102573727D01*
X167282015Y-102580800D01*
X167254922Y-102592356D01*
X167250674Y-102594359D01*
X167194114Y-102630387D01*
X167144281Y-102679817D01*
X167102507Y-102740732D01*
X167070125Y-102811214D01*
X167048468Y-102889345D01*
X167043300Y-102926012D01*
X167041655Y-102968579D01*
X167040910Y-102987873D01*
X166924978Y-102987873D01*
X166925748Y-102968579D01*
X166915099Y-102888405D01*
X166890828Y-102811860D01*
X166853219Y-102741133D01*
X166802559Y-102678415D01*
X166767035Y-102646483D01*
X166703073Y-102605363D01*
X166633678Y-102578262D01*
X166560985Y-102565470D01*
X166487127Y-102567280D01*
X166414242Y-102583983D01*
X166344463Y-102615871D01*
X166318814Y-102633842D01*
X166284093Y-102664445D01*
X166249586Y-102700285D01*
X166219783Y-102736637D01*
X166199171Y-102768778D01*
X166167189Y-102846586D01*
X166148553Y-102928560D01*
X166145477Y-102985308D01*
X166144107Y-103010590D01*
X166028538Y-103010590D01*
X166030259Y-102985308D01*
X166029624Y-102961713D01*
X166019127Y-102878573D01*
X165996454Y-102801498D01*
X165962482Y-102733747D01*
X165930391Y-102690071D01*
X165881452Y-102641981D01*
X165827033Y-102605304D01*
X165769066Y-102580227D01*
X165709486Y-102566942D01*
X165650228Y-102565637D01*
X165593225Y-102576502D01*
X165540411Y-102599727D01*
X165493721Y-102635501D01*
X165455089Y-102684015D01*
X165451488Y-102689626D01*
X165439596Y-102705316D01*
X165431664Y-102711618D01*
X165428909Y-102708537D01*
X165424250Y-102693348D01*
X165420338Y-102669736D01*
X165418152Y-102655733D01*
X165411055Y-102627945D01*
X165402433Y-102608097D01*
X165398595Y-102602803D01*
X165373081Y-102582461D01*
X165341199Y-102573530D01*
X165307982Y-102576645D01*
X165278463Y-102592442D01*
X165255541Y-102612152D01*
X165253176Y-102971829D01*
X165252685Y-103052514D01*
X165252399Y-103131750D01*
X165194380Y-103131750D01*
X165194292Y-103076285D01*
X165194267Y-102988544D01*
X165194271Y-102933864D01*
X165194321Y-102855442D01*
X165194488Y-102790899D01*
X165194840Y-102738698D01*
X165195447Y-102697304D01*
X165196379Y-102665183D01*
X165197703Y-102640798D01*
X165199490Y-102622615D01*
X165201809Y-102609099D01*
X165204729Y-102598713D01*
X165208319Y-102589923D01*
X165212649Y-102581194D01*
X165220183Y-102568116D01*
X165247811Y-102538372D01*
X165284698Y-102521116D01*
X165332309Y-102515542D01*
X165344809Y-102516153D01*
X165378801Y-102522822D01*
X165410918Y-102535128D01*
X165436344Y-102550926D01*
X165450265Y-102568071D01*
X165452524Y-102571635D01*
X165460563Y-102572902D01*
X165476124Y-102566581D01*
X165502121Y-102551757D01*
X165537294Y-102532360D01*
X165579164Y-102515921D01*
X165623244Y-102507547D01*
X165676287Y-102505442D01*
X165687440Y-102505682D01*
X165763883Y-102516222D01*
X165835384Y-102541507D01*
X165900724Y-102580481D01*
X165958688Y-102632088D01*
X166008058Y-102695274D01*
X166047618Y-102768984D01*
X166076151Y-102852162D01*
X166078433Y-102860737D01*
X166085280Y-102883027D01*
X166090259Y-102893996D01*
X166092421Y-102891355D01*
X166097323Y-102863522D01*
X166109143Y-102826256D01*
X166125965Y-102784561D01*
X166145888Y-102743144D01*
X166167010Y-102706714D01*
X166197546Y-102664706D01*
X166256107Y-102604989D01*
X166324582Y-102558128D01*
X166403714Y-102523548D01*
X166416402Y-102519631D01*
X166475529Y-102508468D01*
X166540994Y-102505291D01*
X166606418Y-102510115D01*
X166665426Y-102522953D01*
X166712211Y-102541079D01*
X166781009Y-102581156D01*
X166842888Y-102633774D01*
X166895936Y-102696888D01*
X166938241Y-102768452D01*
X166967889Y-102846421D01*
X166975244Y-102869037D01*
X166981741Y-102882562D01*
X166985710Y-102883185D01*
X166986662Y-102880236D01*
X166992200Y-102862833D01*
X167000733Y-102835839D01*
X167010846Y-102803727D01*
X167026284Y-102761454D01*
X167057628Y-102697957D01*
X167095305Y-102641702D01*
X167136554Y-102597229D01*
X167165155Y-102574476D01*
X167230887Y-102536886D01*
X167302521Y-102513378D01*
X167377857Y-102504323D01*
X167454696Y-102510090D01*
X167530838Y-102531047D01*
X167550870Y-102538650D01*
X167569402Y-102545554D01*
X167577050Y-102548218D01*
X167577063Y-102548210D01*
X167577612Y-102539989D01*
X167578362Y-102518037D01*
X167579243Y-102484877D01*
X167580190Y-102443035D01*
X167581134Y-102395037D01*
X167581477Y-102376573D01*
X167582538Y-102327379D01*
X167583825Y-102290923D01*
X167585701Y-102264467D01*
X167588525Y-102245270D01*
X167592658Y-102230592D01*
X167598461Y-102217692D01*
X167606294Y-102203831D01*
X167610595Y-102196900D01*
X167641384Y-102162422D01*
X167678082Y-102140973D01*
X167718033Y-102132029D01*
X167758580Y-102135066D01*
X167797069Y-102149560D01*
X167830845Y-102174988D01*
X167857250Y-102210826D01*
X167873630Y-102256550D01*
X167874598Y-102262547D01*
X167876534Y-102285006D01*
X167878113Y-102320164D01*
X167879342Y-102368540D01*
X167880225Y-102430654D01*
X167880576Y-102479789D01*
X167880771Y-102507027D01*
G37*
G36*
X163454715Y-103020248D02*
G01*
X163450546Y-103076941D01*
X163442088Y-103124195D01*
X163436186Y-103144956D01*
X163403525Y-103226053D01*
X163358536Y-103298263D01*
X163302449Y-103360167D01*
X163236495Y-103410345D01*
X163161904Y-103447378D01*
X163158624Y-103448591D01*
X163115618Y-103459836D01*
X163063109Y-103467334D01*
X163007039Y-103470705D01*
X162953353Y-103469570D01*
X162907993Y-103463553D01*
X162845334Y-103444332D01*
X162773568Y-103407848D01*
X162709158Y-103358861D01*
X162654618Y-103299349D01*
X162612466Y-103231288D01*
X162608409Y-103222853D01*
X162591898Y-103185569D01*
X162577603Y-103149042D01*
X162568247Y-103120110D01*
X162564031Y-103104447D01*
X162560871Y-103095294D01*
X162558709Y-103094786D01*
X162557332Y-103104462D01*
X162556525Y-103125859D01*
X162556406Y-103135013D01*
X162556076Y-103160518D01*
X162555770Y-103209978D01*
X162555319Y-103249871D01*
X162553389Y-103301541D01*
X162549381Y-103341205D01*
X162542625Y-103371504D01*
X162532448Y-103395078D01*
X162518179Y-103414570D01*
X162499145Y-103432619D01*
X162461934Y-103454459D01*
X162419822Y-103463195D01*
X162376854Y-103459126D01*
X162336441Y-103443084D01*
X162301995Y-103415900D01*
X162276928Y-103378408D01*
X162272933Y-103368644D01*
X162269156Y-103355622D01*
X162266311Y-103339046D01*
X162264266Y-103316785D01*
X162262889Y-103286709D01*
X162262048Y-103246687D01*
X162261611Y-103194587D01*
X162261447Y-103128280D01*
X162261443Y-103123788D01*
X162261370Y-103053788D01*
X162260805Y-102997997D01*
X162259039Y-102954402D01*
X162255364Y-102920989D01*
X162249072Y-102895746D01*
X162239456Y-102876659D01*
X162225806Y-102861714D01*
X162207415Y-102848900D01*
X162183575Y-102836202D01*
X162153577Y-102821608D01*
X162131569Y-102811096D01*
X162102126Y-102797714D01*
X162080098Y-102788547D01*
X162069084Y-102785147D01*
X162064482Y-102783983D01*
X162048315Y-102775692D01*
X162027622Y-102762051D01*
X161995739Y-102738956D01*
X162019244Y-102809028D01*
X162039721Y-102889935D01*
X162047971Y-102975575D01*
X162048798Y-102984155D01*
X162043430Y-103079141D01*
X162023820Y-103171739D01*
X161990172Y-103258795D01*
X161975104Y-103287448D01*
X161931732Y-103350200D01*
X161879767Y-103400056D01*
X161817811Y-103438475D01*
X161804797Y-103444740D01*
X161778033Y-103455925D01*
X161752549Y-103462904D01*
X161722472Y-103467024D01*
X161681930Y-103469630D01*
X161680132Y-103469715D01*
X161617180Y-103470044D01*
X161565648Y-103464037D01*
X161521689Y-103450931D01*
X161481454Y-103429966D01*
X161444052Y-103406247D01*
X161449186Y-103428617D01*
X161450240Y-103432817D01*
X161466625Y-103469729D01*
X161492515Y-103502443D01*
X161523242Y-103524888D01*
X161548692Y-103535055D01*
X161588602Y-103543105D01*
X161634074Y-103543123D01*
X161687143Y-103534894D01*
X161749843Y-103518198D01*
X161824212Y-103492821D01*
X161825605Y-103492311D01*
X161857134Y-103481912D01*
X161885486Y-103474477D01*
X161904676Y-103471585D01*
X161906102Y-103471586D01*
X161943101Y-103479472D01*
X161977443Y-103500194D01*
X162005927Y-103530392D01*
X162025351Y-103566705D01*
X162032512Y-103605772D01*
X162026468Y-103640601D01*
X162008177Y-103678221D01*
X161980840Y-103709168D01*
X161962155Y-103722926D01*
X161912904Y-103749892D01*
X161852477Y-103773601D01*
X161784320Y-103792809D01*
X161711880Y-103806270D01*
X161677324Y-103809278D01*
X161635441Y-103810386D01*
X161595457Y-103809337D01*
X161508014Y-103798891D01*
X161422253Y-103776257D01*
X161347874Y-103742051D01*
X161284985Y-103696355D01*
X161233696Y-103639250D01*
X161194119Y-103570817D01*
X161166363Y-103491139D01*
X161166042Y-103489881D01*
X161162359Y-103474395D01*
X161159293Y-103458462D01*
X161156787Y-103440494D01*
X161154786Y-103418902D01*
X161153233Y-103392095D01*
X161152073Y-103358486D01*
X161151250Y-103316483D01*
X161150707Y-103264498D01*
X161150389Y-103200942D01*
X161150239Y-103124225D01*
X161150201Y-103032757D01*
X161150202Y-103024432D01*
X161150273Y-102933037D01*
X161150498Y-102856564D01*
X161208322Y-102856564D01*
X161208367Y-102949591D01*
X161208925Y-103058836D01*
X161209431Y-103130632D01*
X161210049Y-103209205D01*
X161210700Y-103274196D01*
X161211461Y-103327154D01*
X161212406Y-103369627D01*
X161213610Y-103403163D01*
X161215149Y-103429310D01*
X161217097Y-103449618D01*
X161219530Y-103465633D01*
X161222523Y-103478906D01*
X161226150Y-103490983D01*
X161230488Y-103503414D01*
X161260296Y-103568864D01*
X161302004Y-103626923D01*
X161354822Y-103673740D01*
X161419576Y-103710041D01*
X161497093Y-103736547D01*
X161509232Y-103739277D01*
X161553006Y-103745123D01*
X161605154Y-103747893D01*
X161659968Y-103747564D01*
X161711742Y-103744115D01*
X161754769Y-103737525D01*
X161820005Y-103720476D01*
X161878436Y-103699193D01*
X161923516Y-103675482D01*
X161954649Y-103649847D01*
X161971236Y-103622789D01*
X161972679Y-103594811D01*
X161958381Y-103566416D01*
X161949071Y-103555014D01*
X161936287Y-103542695D01*
X161922340Y-103536035D01*
X161904392Y-103535022D01*
X161879607Y-103539644D01*
X161845146Y-103549888D01*
X161798173Y-103565744D01*
X161782568Y-103571108D01*
X161742449Y-103584569D01*
X161712290Y-103593595D01*
X161687963Y-103598945D01*
X161665337Y-103601376D01*
X161640284Y-103601645D01*
X161608675Y-103600509D01*
X161597168Y-103599925D01*
X161545498Y-103594301D01*
X161505128Y-103583317D01*
X161472174Y-103565546D01*
X161442754Y-103539562D01*
X161424745Y-103517854D01*
X161403307Y-103478060D01*
X161391202Y-103430355D01*
X161387306Y-103371332D01*
X161387126Y-103299846D01*
X161408564Y-103299846D01*
X161416285Y-103300773D01*
X161436767Y-103311471D01*
X161461360Y-103335472D01*
X161466955Y-103341651D01*
X161503469Y-103373463D01*
X161545131Y-103394626D01*
X161595149Y-103406360D01*
X161656731Y-103409887D01*
X161671967Y-103409787D01*
X161707232Y-103408491D01*
X161733990Y-103404873D01*
X161758039Y-103397874D01*
X161785180Y-103386436D01*
X161817932Y-103368252D01*
X161866377Y-103329824D01*
X161908201Y-103282972D01*
X161938647Y-103232467D01*
X161945480Y-103216876D01*
X161972154Y-103136995D01*
X161986405Y-103055976D01*
X161988812Y-102975575D01*
X161979953Y-102897548D01*
X161960408Y-102823651D01*
X161930755Y-102755637D01*
X161910141Y-102723873D01*
X161983524Y-102723873D01*
X161987609Y-102727958D01*
X161991694Y-102723873D01*
X161987609Y-102719788D01*
X161983524Y-102723873D01*
X161910141Y-102723873D01*
X161891574Y-102695264D01*
X161843443Y-102644286D01*
X161786942Y-102604458D01*
X161722649Y-102577537D01*
X161693275Y-102570267D01*
X161627291Y-102564098D01*
X161566152Y-102572764D01*
X161511096Y-102595827D01*
X161463357Y-102632849D01*
X161424173Y-102683391D01*
X161416305Y-102695909D01*
X161407701Y-102705459D01*
X161401218Y-102702956D01*
X161395052Y-102687083D01*
X161387401Y-102656523D01*
X161377464Y-102626205D01*
X161356436Y-102594886D01*
X161327582Y-102577732D01*
X161291176Y-102574975D01*
X161255450Y-102584355D01*
X161230553Y-102604573D01*
X161214898Y-102637377D01*
X161213257Y-102647031D01*
X161211256Y-102674987D01*
X161209767Y-102719242D01*
X161208789Y-102779774D01*
X161208322Y-102856564D01*
X161150498Y-102856564D01*
X161150498Y-102856450D01*
X161150918Y-102793259D01*
X161151575Y-102742050D01*
X161152511Y-102701411D01*
X161153768Y-102669928D01*
X161155388Y-102646189D01*
X161157413Y-102628780D01*
X161159885Y-102616289D01*
X161162846Y-102607302D01*
X161178805Y-102576660D01*
X161209645Y-102542556D01*
X161249154Y-102522259D01*
X161297660Y-102515542D01*
X161307837Y-102515815D01*
X161350108Y-102523059D01*
X161385218Y-102538870D01*
X161408988Y-102561523D01*
X161421456Y-102580551D01*
X161455352Y-102557689D01*
X161464238Y-102551817D01*
X161501130Y-102531050D01*
X161538647Y-102517381D01*
X161584628Y-102507782D01*
X161629187Y-102503816D01*
X161700255Y-102509962D01*
X161770012Y-102530255D01*
X161835778Y-102563529D01*
X161894878Y-102608620D01*
X161944632Y-102664364D01*
X161946490Y-102666911D01*
X161963227Y-102689532D01*
X161975502Y-102705543D01*
X161980770Y-102711618D01*
X161980914Y-102711499D01*
X161980623Y-102702871D01*
X161978140Y-102684771D01*
X161977825Y-102678824D01*
X162042441Y-102678824D01*
X162050933Y-102700348D01*
X162070780Y-102717082D01*
X162085813Y-102723873D01*
X162104429Y-102732283D01*
X162138219Y-102745773D01*
X162200070Y-102775670D01*
X162249829Y-102807417D01*
X162286090Y-102840045D01*
X162307449Y-102872582D01*
X162307468Y-102872627D01*
X162311158Y-102886061D01*
X162314004Y-102907573D01*
X162316081Y-102938815D01*
X162317470Y-102981437D01*
X162318246Y-103037091D01*
X162318487Y-103107427D01*
X162318644Y-103166891D01*
X162319472Y-103228814D01*
X162321317Y-103277605D01*
X162324516Y-103315053D01*
X162329404Y-103342946D01*
X162336319Y-103363074D01*
X162345598Y-103377224D01*
X162357577Y-103387185D01*
X162372594Y-103394745D01*
X162384512Y-103399516D01*
X162405744Y-103405038D01*
X162424601Y-103402554D01*
X162449204Y-103391744D01*
X162458190Y-103387014D01*
X162468091Y-103380331D01*
X162476227Y-103371670D01*
X162482758Y-103359594D01*
X162487844Y-103342668D01*
X162491646Y-103319454D01*
X162494322Y-103288518D01*
X162496034Y-103248423D01*
X162496941Y-103197733D01*
X162497203Y-103135013D01*
X162496980Y-103058825D01*
X162496641Y-103002464D01*
X162614197Y-103002464D01*
X162623988Y-103087430D01*
X162639043Y-103142678D01*
X162671921Y-103217145D01*
X162716523Y-103281219D01*
X162772019Y-103333995D01*
X162837581Y-103374569D01*
X162912379Y-103402037D01*
X162960758Y-103410907D01*
X163035548Y-103411884D01*
X163110932Y-103398778D01*
X163183120Y-103372008D01*
X163186577Y-103370295D01*
X163229904Y-103342164D01*
X163273305Y-103303297D01*
X163312334Y-103258178D01*
X163342545Y-103211289D01*
X163343750Y-103208981D01*
X163375676Y-103131056D01*
X163393125Y-103050192D01*
X163396382Y-102968579D01*
X163385733Y-102888405D01*
X163361461Y-102811860D01*
X163323853Y-102741133D01*
X163273193Y-102678415D01*
X163237668Y-102646483D01*
X163173707Y-102605363D01*
X163104312Y-102578262D01*
X163031618Y-102565470D01*
X162957761Y-102567280D01*
X162884875Y-102583983D01*
X162815097Y-102615871D01*
X162789448Y-102633842D01*
X162754727Y-102664445D01*
X162720220Y-102700285D01*
X162690416Y-102736637D01*
X162669804Y-102768778D01*
X162642449Y-102832120D01*
X162620418Y-102916891D01*
X162614197Y-103002464D01*
X162496641Y-103002464D01*
X162496432Y-102967735D01*
X162494138Y-102622108D01*
X162471486Y-102599462D01*
X162463864Y-102592279D01*
X162448694Y-102582384D01*
X162429553Y-102577882D01*
X162400291Y-102576816D01*
X162399105Y-102576818D01*
X162363830Y-102579480D01*
X162341120Y-102588811D01*
X162327843Y-102607183D01*
X162320870Y-102636966D01*
X162316277Y-102656523D01*
X162305303Y-102670403D01*
X162288308Y-102670062D01*
X162264739Y-102655432D01*
X162234043Y-102626446D01*
X162209593Y-102603218D01*
X162176421Y-102581788D01*
X162142211Y-102573232D01*
X162103108Y-102576067D01*
X162100112Y-102576672D01*
X162070763Y-102589442D01*
X162052016Y-102613496D01*
X162042747Y-102650213D01*
X162042441Y-102678824D01*
X161977825Y-102678824D01*
X161976881Y-102660988D01*
X161985096Y-102618937D01*
X162004208Y-102578957D01*
X162031712Y-102545686D01*
X162065102Y-102523762D01*
X162069874Y-102521954D01*
X162107790Y-102515317D01*
X162151968Y-102517590D01*
X162196480Y-102528006D01*
X162235396Y-102545797D01*
X162276408Y-102571292D01*
X162291320Y-102554544D01*
X162320894Y-102532541D01*
X162359915Y-102519198D01*
X162403656Y-102515002D01*
X162447419Y-102520404D01*
X162486509Y-102535852D01*
X162489474Y-102537611D01*
X162511093Y-102552574D01*
X162527502Y-102569637D01*
X162539406Y-102591168D01*
X162547511Y-102619536D01*
X162552524Y-102657109D01*
X162555149Y-102706255D01*
X162556093Y-102769344D01*
X162556386Y-102819376D01*
X162556838Y-102855616D01*
X162557626Y-102878509D01*
X162558928Y-102889568D01*
X162560925Y-102890304D01*
X162563798Y-102882226D01*
X162567726Y-102866845D01*
X162582830Y-102816541D01*
X162618176Y-102738774D01*
X162665211Y-102668710D01*
X162722179Y-102608789D01*
X162787324Y-102561452D01*
X162856700Y-102529429D01*
X162933582Y-102510173D01*
X163013085Y-102504782D01*
X163092296Y-102513194D01*
X163168299Y-102535346D01*
X163238182Y-102571175D01*
X163262218Y-102588043D01*
X163322034Y-102642498D01*
X163373488Y-102707945D01*
X163414253Y-102781098D01*
X163442000Y-102858675D01*
X163450194Y-102903858D01*
X163454597Y-102960445D01*
X163454613Y-102968579D01*
X163454715Y-103020248D01*
G37*
G36*
X172668575Y-102576063D02*
G01*
X172668475Y-102689433D01*
X172668033Y-102819114D01*
X172665576Y-103371866D01*
X172640486Y-103403257D01*
X172633386Y-103411490D01*
X172610041Y-103433392D01*
X172587382Y-103448933D01*
X172579566Y-103452562D01*
X172536933Y-103462656D01*
X172492053Y-103459946D01*
X172449919Y-103445286D01*
X172415525Y-103419531D01*
X172395972Y-103398516D01*
X172359891Y-103422797D01*
X172326183Y-103441837D01*
X172264922Y-103462753D01*
X172198257Y-103471467D01*
X172129576Y-103467968D01*
X172062272Y-103452239D01*
X171999735Y-103424269D01*
X171985531Y-103415569D01*
X171928617Y-103370637D01*
X171877269Y-103314376D01*
X171834720Y-103250764D01*
X171804204Y-103183777D01*
X171789165Y-103140534D01*
X171779744Y-103165044D01*
X171764268Y-103201144D01*
X171721225Y-103275156D01*
X171667571Y-103339476D01*
X171604987Y-103392559D01*
X171535158Y-103432859D01*
X171459766Y-103458833D01*
X171392729Y-103469160D01*
X171311178Y-103470378D01*
X171227346Y-103461267D01*
X171146200Y-103442397D01*
X171072704Y-103414341D01*
X171060749Y-103408316D01*
X171020499Y-103383797D01*
X170983105Y-103355201D01*
X170952670Y-103325912D01*
X170933298Y-103299316D01*
X170928634Y-103288640D01*
X170921500Y-103250654D01*
X170925313Y-103211128D01*
X170939700Y-103177216D01*
X170944663Y-103170133D01*
X170970264Y-103140823D01*
X170997850Y-103122837D01*
X171029511Y-103116031D01*
X171067337Y-103120258D01*
X171113419Y-103135375D01*
X171169846Y-103161235D01*
X171193017Y-103172752D01*
X171225368Y-103188057D01*
X171249812Y-103197732D01*
X171270555Y-103203035D01*
X171291799Y-103205228D01*
X171317748Y-103205571D01*
X171320993Y-103205545D01*
X171358457Y-103203454D01*
X171387789Y-103197019D01*
X171416437Y-103184662D01*
X171422167Y-103181516D01*
X171447490Y-103163521D01*
X171470329Y-103141692D01*
X171486847Y-103120118D01*
X171493206Y-103102888D01*
X171490662Y-103101939D01*
X171474450Y-103100252D01*
X171444926Y-103098614D01*
X171404027Y-103097091D01*
X171353689Y-103095750D01*
X171295849Y-103094659D01*
X171232441Y-103093883D01*
X171193128Y-103093520D01*
X171128660Y-103092840D01*
X171077753Y-103092079D01*
X171038577Y-103091108D01*
X171009301Y-103089795D01*
X170988095Y-103088009D01*
X170973129Y-103085621D01*
X170962572Y-103082499D01*
X170954594Y-103078512D01*
X170947365Y-103073530D01*
X170923054Y-103055546D01*
X170917343Y-103093629D01*
X170911110Y-103126686D01*
X170885675Y-103205282D01*
X170847222Y-103277842D01*
X170797355Y-103342137D01*
X170737683Y-103395939D01*
X170669811Y-103437020D01*
X170642118Y-103449431D01*
X170611333Y-103459950D01*
X170579156Y-103466008D01*
X170538124Y-103469442D01*
X170487868Y-103470348D01*
X170432161Y-103464487D01*
X170384132Y-103449835D01*
X170339833Y-103425518D01*
X170320833Y-103413010D01*
X170303228Y-103402088D01*
X170294977Y-103397884D01*
X170293947Y-103398287D01*
X170284859Y-103406461D01*
X170271021Y-103421848D01*
X170269981Y-103423053D01*
X170247373Y-103442160D01*
X170221614Y-103455463D01*
X170194106Y-103461279D01*
X170152473Y-103461611D01*
X170112231Y-103453919D01*
X170080195Y-103438996D01*
X170062683Y-103424333D01*
X170048412Y-103405559D01*
X170038213Y-103381142D01*
X170034755Y-103364751D01*
X170092080Y-103364751D01*
X170110008Y-103382679D01*
X170114269Y-103386599D01*
X170135064Y-103397438D01*
X170165049Y-103400607D01*
X170194632Y-103397400D01*
X170217576Y-103385445D01*
X170234730Y-103362206D01*
X170248901Y-103325155D01*
X170255155Y-103304998D01*
X170261651Y-103285158D01*
X170265054Y-103276229D01*
X170266362Y-103276537D01*
X170276325Y-103284585D01*
X170293689Y-103301016D01*
X170315748Y-103323315D01*
X170318099Y-103325732D01*
X170347197Y-103352636D01*
X170376837Y-103375521D01*
X170401528Y-103390111D01*
X170435933Y-103402368D01*
X170497434Y-103411578D01*
X170560267Y-103406773D01*
X170622182Y-103388946D01*
X170680929Y-103359090D01*
X170734257Y-103318200D01*
X170779916Y-103267269D01*
X170815655Y-103207290D01*
X170818622Y-103200830D01*
X170845742Y-103124739D01*
X170860096Y-103047332D01*
X170862416Y-102970283D01*
X170861645Y-102963840D01*
X170962140Y-102963840D01*
X170962158Y-102970283D01*
X170962191Y-102981995D01*
X170963601Y-102996732D01*
X170967869Y-103008422D01*
X170976492Y-103017434D01*
X170990968Y-103024139D01*
X171012795Y-103028908D01*
X171043471Y-103032110D01*
X171084493Y-103034116D01*
X171137359Y-103035297D01*
X171203566Y-103036023D01*
X171284613Y-103036663D01*
X171572684Y-103039000D01*
X171565782Y-103075945D01*
X171554903Y-103116402D01*
X171527550Y-103170038D01*
X171487867Y-103213543D01*
X171436747Y-103245740D01*
X171436645Y-103245787D01*
X171414533Y-103254393D01*
X171390448Y-103259682D01*
X171359618Y-103262347D01*
X171317269Y-103263082D01*
X171235286Y-103263082D01*
X171147067Y-103220190D01*
X171112689Y-103204150D01*
X171079951Y-103190209D01*
X171054444Y-103180770D01*
X171039828Y-103177299D01*
X171037881Y-103177415D01*
X171019727Y-103185356D01*
X171000303Y-103201984D01*
X170984825Y-103221970D01*
X170978506Y-103239981D01*
X170978511Y-103240624D01*
X170986627Y-103268266D01*
X171008791Y-103296648D01*
X171042886Y-103324509D01*
X171086798Y-103350587D01*
X171138411Y-103373622D01*
X171195611Y-103392355D01*
X171256281Y-103405523D01*
X171338874Y-103412020D01*
X171421857Y-103403617D01*
X171500209Y-103379730D01*
X171573258Y-103340497D01*
X171584563Y-103332642D01*
X171640836Y-103282166D01*
X171684962Y-103221140D01*
X171716638Y-103150210D01*
X171735560Y-103070022D01*
X171740290Y-102998447D01*
X171836338Y-102998447D01*
X171842081Y-103076061D01*
X171860559Y-103153996D01*
X171890814Y-103224413D01*
X171931851Y-103285844D01*
X171982675Y-103336822D01*
X172042291Y-103375878D01*
X172109702Y-103401544D01*
X172117576Y-103403500D01*
X172184119Y-103412139D01*
X172245745Y-103405886D01*
X172301284Y-103385161D01*
X172349565Y-103350378D01*
X172389419Y-103301954D01*
X172419021Y-103255678D01*
X172432486Y-103304314D01*
X172437897Y-103323157D01*
X172449199Y-103355652D01*
X172460914Y-103376637D01*
X172475174Y-103389309D01*
X172494106Y-103396868D01*
X172500545Y-103398426D01*
X172536897Y-103399555D01*
X172569417Y-103388626D01*
X172593250Y-103367095D01*
X172593523Y-103366689D01*
X172596534Y-103361399D01*
X172599122Y-103354434D01*
X172601326Y-103344574D01*
X172603186Y-103330596D01*
X172604740Y-103311278D01*
X172606027Y-103285397D01*
X172607087Y-103251732D01*
X172607960Y-103209060D01*
X172608684Y-103156159D01*
X172609298Y-103091808D01*
X172609843Y-103014783D01*
X172610356Y-102923863D01*
X172610877Y-102817826D01*
X172610999Y-102790910D01*
X172611387Y-102670800D01*
X172611440Y-102566665D01*
X172611156Y-102478210D01*
X172610530Y-102405134D01*
X172609561Y-102347141D01*
X172608244Y-102303932D01*
X172606576Y-102275209D01*
X172604553Y-102260674D01*
X172604547Y-102260651D01*
X172587963Y-102228552D01*
X172562270Y-102206895D01*
X172531207Y-102196885D01*
X172498509Y-102199727D01*
X172467913Y-102216625D01*
X172444991Y-102236331D01*
X172442573Y-102457635D01*
X172442542Y-102460486D01*
X172441761Y-102518479D01*
X172440799Y-102570641D01*
X172439716Y-102614869D01*
X172438570Y-102649062D01*
X172437422Y-102671120D01*
X172436330Y-102678939D01*
X172436320Y-102678939D01*
X172428487Y-102674124D01*
X172411719Y-102661583D01*
X172389631Y-102644017D01*
X172380961Y-102637068D01*
X172333537Y-102604177D01*
X172287811Y-102583161D01*
X172238287Y-102572056D01*
X172179471Y-102568898D01*
X172163228Y-102569160D01*
X172101471Y-102575683D01*
X172049036Y-102592210D01*
X172001907Y-102620416D01*
X171956064Y-102661973D01*
X171939863Y-102679963D01*
X171894345Y-102745718D01*
X171862019Y-102820435D01*
X171842733Y-102904537D01*
X171837511Y-102981223D01*
X171836338Y-102998447D01*
X171740290Y-102998447D01*
X171741428Y-102981223D01*
X171740554Y-102955014D01*
X171728021Y-102871299D01*
X171700787Y-102794589D01*
X171658970Y-102725160D01*
X171602692Y-102663284D01*
X171561553Y-102630379D01*
X171495748Y-102593756D01*
X171426075Y-102571801D01*
X171354400Y-102564454D01*
X171282590Y-102571655D01*
X171212513Y-102593344D01*
X171146035Y-102629460D01*
X171085024Y-102679944D01*
X171069976Y-102695837D01*
X171025239Y-102755447D01*
X170991278Y-102821267D01*
X170969715Y-102889645D01*
X170962167Y-102956930D01*
X170962140Y-102963840D01*
X170861645Y-102963840D01*
X170853435Y-102895262D01*
X170833884Y-102823943D01*
X170804494Y-102757996D01*
X170765998Y-102699094D01*
X170719128Y-102648909D01*
X170664614Y-102609113D01*
X170603190Y-102581378D01*
X170535586Y-102567376D01*
X170512125Y-102565973D01*
X170446812Y-102571561D01*
X170388798Y-102591691D01*
X170338371Y-102626234D01*
X170295821Y-102675060D01*
X170295775Y-102675126D01*
X170279715Y-102697065D01*
X170267194Y-102711640D01*
X170260918Y-102715699D01*
X170258619Y-102709689D01*
X170254625Y-102691174D01*
X170250547Y-102665345D01*
X170242895Y-102630850D01*
X170226219Y-102600185D01*
X170200780Y-102582497D01*
X170165650Y-102576816D01*
X170157605Y-102576979D01*
X170130579Y-102581925D01*
X170110689Y-102595425D01*
X170092080Y-102614034D01*
X170092080Y-102989393D01*
X170092080Y-102996932D01*
X170092080Y-103364751D01*
X170034755Y-103364751D01*
X170031309Y-103348417D01*
X170026921Y-103304714D01*
X170024272Y-103247367D01*
X170020704Y-103133615D01*
X170002242Y-103191845D01*
X169997853Y-103205151D01*
X169964629Y-103281443D01*
X169921460Y-103345072D01*
X169867828Y-103396674D01*
X169803214Y-103436888D01*
X169800628Y-103438166D01*
X169775265Y-103450388D01*
X169754992Y-103458606D01*
X169735523Y-103463614D01*
X169712571Y-103466207D01*
X169681851Y-103467180D01*
X169639078Y-103467328D01*
X169599890Y-103467188D01*
X169567921Y-103466280D01*
X169544507Y-103463903D01*
X169525535Y-103459354D01*
X169506896Y-103451931D01*
X169484480Y-103440933D01*
X169432429Y-103414539D01*
X169437663Y-103440709D01*
X169443821Y-103458370D01*
X169464492Y-103488143D01*
X169494593Y-103514650D01*
X169530018Y-103533753D01*
X169571196Y-103543223D01*
X169626844Y-103542969D01*
X169690808Y-103531340D01*
X169761454Y-103508515D01*
X169780831Y-103501275D01*
X169817558Y-103488733D01*
X169849782Y-103479137D01*
X169872204Y-103474133D01*
X169880888Y-103473291D01*
X169921391Y-103478370D01*
X169957845Y-103496629D01*
X169987405Y-103525463D01*
X170007227Y-103562266D01*
X170014466Y-103604434D01*
X170013979Y-103617596D01*
X170004375Y-103658122D01*
X169981373Y-103692764D01*
X169943518Y-103723976D01*
X169896915Y-103749677D01*
X169830842Y-103775239D01*
X169754613Y-103795448D01*
X169671334Y-103809331D01*
X169669288Y-103809553D01*
X169645521Y-103810606D01*
X169612735Y-103810437D01*
X169577381Y-103809063D01*
X169530748Y-103804990D01*
X169440780Y-103787638D01*
X169361908Y-103758328D01*
X169294029Y-103716992D01*
X169237041Y-103663558D01*
X169190840Y-103597958D01*
X169155325Y-103520120D01*
X169154916Y-103518981D01*
X169150693Y-103506839D01*
X169147151Y-103494966D01*
X169144221Y-103481851D01*
X169141831Y-103465985D01*
X169139911Y-103445858D01*
X169138389Y-103419960D01*
X169137194Y-103386781D01*
X169136256Y-103344812D01*
X169135503Y-103292543D01*
X169134865Y-103228464D01*
X169134270Y-103151065D01*
X169133648Y-103058836D01*
X169133368Y-103015399D01*
X169132951Y-102940213D01*
X169197564Y-102940213D01*
X169197580Y-103035963D01*
X169197590Y-103064779D01*
X169197691Y-103156369D01*
X169197992Y-103233616D01*
X169198617Y-103298073D01*
X169199690Y-103351296D01*
X169201336Y-103394838D01*
X169203677Y-103430256D01*
X169206838Y-103459103D01*
X169210942Y-103482933D01*
X169216114Y-103503303D01*
X169222477Y-103521766D01*
X169230156Y-103539876D01*
X169239273Y-103559190D01*
X169262766Y-103597774D01*
X169305966Y-103644793D01*
X169360226Y-103685081D01*
X169422715Y-103716632D01*
X169490601Y-103737436D01*
X169507046Y-103740590D01*
X169583703Y-103748028D01*
X169664716Y-103745615D01*
X169745351Y-103733972D01*
X169820871Y-103713722D01*
X169886541Y-103685485D01*
X169909510Y-103671768D01*
X169940241Y-103645665D01*
X169954834Y-103618871D01*
X169953419Y-103591061D01*
X169936127Y-103561907D01*
X169932284Y-103557555D01*
X169915440Y-103543957D01*
X169895299Y-103537857D01*
X169869089Y-103539318D01*
X169834036Y-103548399D01*
X169787367Y-103565162D01*
X169719989Y-103587703D01*
X169642783Y-103603453D01*
X169573561Y-103605429D01*
X169512560Y-103593654D01*
X169460019Y-103568152D01*
X169416174Y-103528945D01*
X169413573Y-103525862D01*
X169392255Y-103494950D01*
X169378546Y-103460874D01*
X169371220Y-103419401D01*
X169369050Y-103366299D01*
X169369194Y-103336261D01*
X169370318Y-103315368D01*
X169373466Y-103304540D01*
X169379681Y-103300468D01*
X169390005Y-103299846D01*
X169398089Y-103301048D01*
X169420587Y-103313265D01*
X169449365Y-103339275D01*
X169484338Y-103368097D01*
X169536995Y-103394456D01*
X169596131Y-103409198D01*
X169658579Y-103411934D01*
X169721173Y-103402278D01*
X169780744Y-103379841D01*
X169799565Y-103369244D01*
X169850039Y-103328998D01*
X169892430Y-103277116D01*
X169926234Y-103215782D01*
X169950950Y-103147183D01*
X169966074Y-103073504D01*
X169971103Y-102996932D01*
X169965536Y-102919651D01*
X169948869Y-102843849D01*
X169920600Y-102771710D01*
X169902172Y-102737380D01*
X169861536Y-102680209D01*
X169813245Y-102635066D01*
X169754858Y-102599413D01*
X169737771Y-102591096D01*
X169709633Y-102578917D01*
X169685504Y-102572164D01*
X169658605Y-102569264D01*
X169622161Y-102568646D01*
X169616107Y-102568685D01*
X169554340Y-102574693D01*
X169503212Y-102591673D01*
X169460501Y-102620680D01*
X169423987Y-102662769D01*
X169407680Y-102685190D01*
X169393801Y-102702447D01*
X169385977Y-102709930D01*
X169383631Y-102708901D01*
X169378288Y-102697003D01*
X169373705Y-102675807D01*
X169367380Y-102647884D01*
X169349535Y-102611075D01*
X169323697Y-102586769D01*
X169291295Y-102576103D01*
X169253752Y-102580211D01*
X169241877Y-102583808D01*
X169231462Y-102587877D01*
X169222818Y-102593609D01*
X169215781Y-102602340D01*
X169210184Y-102615403D01*
X169205865Y-102634132D01*
X169202659Y-102659862D01*
X169200401Y-102693926D01*
X169198927Y-102737659D01*
X169198072Y-102792395D01*
X169197673Y-102859469D01*
X169197564Y-102940213D01*
X169132951Y-102940213D01*
X169132867Y-102924970D01*
X169132666Y-102848863D01*
X169132870Y-102785664D01*
X169133581Y-102733960D01*
X169134906Y-102692340D01*
X169136947Y-102659389D01*
X169139810Y-102633696D01*
X169143597Y-102613846D01*
X169148413Y-102598429D01*
X169154363Y-102586030D01*
X169161551Y-102575236D01*
X169170080Y-102564636D01*
X169197562Y-102538505D01*
X169233973Y-102520978D01*
X169279038Y-102515542D01*
X169319590Y-102519285D01*
X169361084Y-102534027D01*
X169391231Y-102559372D01*
X169392972Y-102561581D01*
X169404393Y-102574162D01*
X169413545Y-102575097D01*
X169427325Y-102565570D01*
X169432949Y-102561312D01*
X169487925Y-102530484D01*
X169550909Y-102511467D01*
X169618578Y-102504633D01*
X169687612Y-102510352D01*
X169754690Y-102528995D01*
X169757749Y-102530200D01*
X169822606Y-102564580D01*
X169881781Y-102612650D01*
X169933429Y-102672293D01*
X169975701Y-102741390D01*
X170006749Y-102817826D01*
X170020796Y-102862760D01*
X170023775Y-102736128D01*
X170024723Y-102703166D01*
X170027426Y-102653680D01*
X170032096Y-102616328D01*
X170039592Y-102588396D01*
X170050770Y-102567166D01*
X170066487Y-102549923D01*
X170087602Y-102533952D01*
X170116959Y-102520454D01*
X170158521Y-102514577D01*
X170202031Y-102519494D01*
X170242494Y-102534535D01*
X170274916Y-102559033D01*
X170294355Y-102580120D01*
X170320290Y-102560339D01*
X170345386Y-102543590D01*
X170403516Y-102518437D01*
X170468206Y-102505818D01*
X170536669Y-102505858D01*
X170606119Y-102518682D01*
X170673770Y-102544416D01*
X170694441Y-102555343D01*
X170758767Y-102601096D01*
X170814563Y-102659914D01*
X170860796Y-102730559D01*
X170896438Y-102811794D01*
X170900001Y-102821796D01*
X170907658Y-102840012D01*
X170912886Y-102844899D01*
X170917083Y-102838251D01*
X170920878Y-102827816D01*
X170956661Y-102751679D01*
X171003668Y-102681248D01*
X171059282Y-102619948D01*
X171120889Y-102571208D01*
X171188796Y-102536139D01*
X171264622Y-102513620D01*
X171343745Y-102504829D01*
X171423251Y-102509828D01*
X171500223Y-102528682D01*
X171571747Y-102561452D01*
X171618612Y-102594517D01*
X171667310Y-102640127D01*
X171711135Y-102692265D01*
X171746630Y-102746788D01*
X171770342Y-102799555D01*
X171773850Y-102809473D01*
X171781673Y-102827160D01*
X171787334Y-102834166D01*
X171789331Y-102832741D01*
X171795841Y-102820376D01*
X171803154Y-102799444D01*
X171807712Y-102785358D01*
X171832973Y-102728346D01*
X171867852Y-102671166D01*
X171908685Y-102620045D01*
X171950177Y-102582055D01*
X172012912Y-102542980D01*
X172082606Y-102516978D01*
X172156589Y-102504977D01*
X172232191Y-102507901D01*
X172269484Y-102514891D01*
X172308793Y-102525524D01*
X172342275Y-102537779D01*
X172364716Y-102550001D01*
X172366854Y-102550275D01*
X172369932Y-102543305D01*
X172372370Y-102525711D01*
X172374281Y-102496065D01*
X172375777Y-102452937D01*
X172376971Y-102394899D01*
X172379632Y-102232434D01*
X172402639Y-102197696D01*
X172414203Y-102182404D01*
X172449819Y-102152488D01*
X172492028Y-102136081D01*
X172537904Y-102133997D01*
X172584520Y-102147053D01*
X172608604Y-102160746D01*
X172641447Y-102193515D01*
X172661909Y-102236832D01*
X172661981Y-102237091D01*
X172663938Y-102253080D01*
X172665551Y-102285240D01*
X172666821Y-102333595D01*
X172667748Y-102398168D01*
X172668333Y-102478983D01*
X172668552Y-102566665D01*
X172668575Y-102576063D01*
G37*
G36*
X174940422Y-102326478D02*
G01*
X174935753Y-102384187D01*
X174925395Y-102433101D01*
X174919380Y-102450776D01*
X174885898Y-102518543D01*
X174839059Y-102578719D01*
X174780385Y-102629910D01*
X174711399Y-102670727D01*
X174633622Y-102699779D01*
X174583777Y-102713637D01*
X174602772Y-102773451D01*
X174605140Y-102781136D01*
X174616020Y-102820895D01*
X174626875Y-102866402D01*
X174635669Y-102909255D01*
X174649572Y-102985246D01*
X174672796Y-102936258D01*
X174678642Y-102923205D01*
X174692774Y-102887931D01*
X174707803Y-102846563D01*
X174721328Y-102805571D01*
X174733286Y-102767881D01*
X174746538Y-102730134D01*
X174758216Y-102703668D01*
X174769740Y-102685899D01*
X174782533Y-102674241D01*
X174798014Y-102666111D01*
X174808612Y-102662576D01*
X174843181Y-102661298D01*
X174876387Y-102673581D01*
X174903329Y-102697943D01*
X174909750Y-102708758D01*
X174918920Y-102743827D01*
X174919091Y-102771699D01*
X174919201Y-102789727D01*
X174911133Y-102844785D01*
X174895256Y-102907329D01*
X174872110Y-102975685D01*
X174842234Y-103048181D01*
X174806167Y-103123143D01*
X174764449Y-103198898D01*
X174717620Y-103273774D01*
X174698156Y-103302342D01*
X174676672Y-103332399D01*
X174658919Y-103355671D01*
X174647464Y-103368685D01*
X174639705Y-103378303D01*
X174627224Y-103401712D01*
X174616858Y-103429768D01*
X174603675Y-103475115D01*
X174627260Y-103491646D01*
X174662622Y-103520621D01*
X174701012Y-103562932D01*
X174728845Y-103607014D01*
X174742904Y-103648553D01*
X174748310Y-103694425D01*
X174744658Y-103738282D01*
X174731845Y-103774403D01*
X174716058Y-103793995D01*
X174685836Y-103816657D01*
X174650511Y-103832862D01*
X174616434Y-103839055D01*
X174601861Y-103839846D01*
X174591825Y-103845494D01*
X174589571Y-103859885D01*
X174583485Y-103891250D01*
X174563428Y-103923750D01*
X174531831Y-103950385D01*
X174491235Y-103968350D01*
X174449610Y-103975852D01*
X174394315Y-103977379D01*
X174335994Y-103972093D01*
X174280623Y-103960573D01*
X174234183Y-103943402D01*
X174193788Y-103917220D01*
X174156471Y-103880815D01*
X174126526Y-103838747D01*
X174106610Y-103794774D01*
X174099381Y-103752659D01*
X174099381Y-103732234D01*
X174023893Y-103734583D01*
X173948405Y-103736932D01*
X173942840Y-103775962D01*
X173938434Y-103798013D01*
X173917279Y-103848990D01*
X173882844Y-103892852D01*
X173836564Y-103928639D01*
X173779873Y-103955389D01*
X173714208Y-103972144D01*
X173641001Y-103977942D01*
X173590397Y-103974618D01*
X173538527Y-103961866D01*
X173498384Y-103940067D01*
X173470916Y-103909771D01*
X173457069Y-103871525D01*
X173456300Y-103866852D01*
X173451522Y-103848311D01*
X173442921Y-103840594D01*
X173426057Y-103839055D01*
X173417302Y-103838308D01*
X173391045Y-103831764D01*
X173363785Y-103820673D01*
X173345513Y-103809533D01*
X173315212Y-103777543D01*
X173296785Y-103734765D01*
X173290568Y-103681835D01*
X173296420Y-103631073D01*
X173317278Y-103577132D01*
X173352413Y-103529751D01*
X173400954Y-103490445D01*
X173420168Y-103477062D01*
X173431851Y-103464093D01*
X173432652Y-103452273D01*
X173429879Y-103443176D01*
X173415960Y-103385369D01*
X173404416Y-103316544D01*
X173395888Y-103241128D01*
X173391011Y-103163545D01*
X173389802Y-103081929D01*
X173394179Y-102987200D01*
X173405624Y-102899472D01*
X173424572Y-102814204D01*
X173443038Y-102745052D01*
X173389270Y-102728312D01*
X173361634Y-102719208D01*
X173328492Y-102707200D01*
X173303058Y-102696811D01*
X173270615Y-102682050D01*
X173241785Y-102712270D01*
X173208278Y-102738491D01*
X173167830Y-102753330D01*
X173125684Y-102754784D01*
X173084510Y-102743609D01*
X173046980Y-102720563D01*
X173015764Y-102686402D01*
X172993534Y-102641884D01*
X172988574Y-102625392D01*
X172980492Y-102571691D01*
X172981732Y-102552471D01*
X173033802Y-102552471D01*
X173036918Y-102585866D01*
X173050984Y-102621382D01*
X173068166Y-102648520D01*
X173068858Y-102646140D01*
X173085690Y-102646140D01*
X173087685Y-102660156D01*
X173089564Y-102661822D01*
X173105461Y-102667274D01*
X173129322Y-102669927D01*
X173154518Y-102669389D01*
X173174414Y-102665270D01*
X173178711Y-102662052D01*
X173192219Y-102647808D01*
X173211108Y-102625248D01*
X173232704Y-102597482D01*
X173280516Y-102533904D01*
X173246735Y-102523844D01*
X173240615Y-102521954D01*
X173213912Y-102512491D01*
X173192942Y-102503368D01*
X173182878Y-102498915D01*
X173172855Y-102499312D01*
X173161834Y-102508506D01*
X173145588Y-102528763D01*
X173124381Y-102559326D01*
X173105504Y-102592397D01*
X173092118Y-102622444D01*
X173085690Y-102646140D01*
X173068858Y-102646140D01*
X173081214Y-102603636D01*
X173097604Y-102564228D01*
X173125672Y-102523358D01*
X173157081Y-102487964D01*
X173121631Y-102460904D01*
X173107160Y-102450093D01*
X173090496Y-102438390D01*
X173082511Y-102433844D01*
X173079129Y-102437100D01*
X173069369Y-102451056D01*
X173056322Y-102472271D01*
X173052235Y-102479496D01*
X173037947Y-102514741D01*
X173033802Y-102552471D01*
X172981732Y-102552471D01*
X172983851Y-102519636D01*
X172998497Y-102474382D01*
X173016879Y-102437929D01*
X172997046Y-102380740D01*
X172989627Y-102356981D01*
X172979214Y-102305833D01*
X172974544Y-102247872D01*
X173020964Y-102247872D01*
X173021466Y-102252167D01*
X173030563Y-102272903D01*
X173049333Y-102300128D01*
X173075489Y-102330801D01*
X173106747Y-102361885D01*
X173115359Y-102369375D01*
X173163980Y-102402230D01*
X173226872Y-102432680D01*
X173302415Y-102460195D01*
X173388991Y-102484244D01*
X173406798Y-102487964D01*
X173484981Y-102504297D01*
X173588767Y-102519823D01*
X173589514Y-102519915D01*
X173647726Y-102528384D01*
X173672688Y-102533904D01*
X173690261Y-102537790D01*
X173717767Y-102548499D01*
X173730890Y-102560876D01*
X173730275Y-102575286D01*
X173716570Y-102592097D01*
X173703303Y-102601206D01*
X173672596Y-102615286D01*
X173632015Y-102629233D01*
X173585368Y-102642037D01*
X173536463Y-102652689D01*
X173489111Y-102660179D01*
X173447119Y-102663498D01*
X173409031Y-102664396D01*
X173470304Y-102680933D01*
X173482948Y-102684177D01*
X173509865Y-102689728D01*
X173539484Y-102693641D01*
X173575214Y-102696203D01*
X173620462Y-102697700D01*
X173678635Y-102698417D01*
X173718411Y-102698461D01*
X173766817Y-102697950D01*
X173809512Y-102696893D01*
X173842954Y-102695384D01*
X173863600Y-102693516D01*
X173876903Y-102691589D01*
X173893776Y-102690831D01*
X173901645Y-102695454D01*
X173905198Y-102706976D01*
X173905713Y-102709731D01*
X173906245Y-102716980D01*
X173903462Y-102722508D01*
X173895208Y-102726890D01*
X173879327Y-102730698D01*
X173853663Y-102734504D01*
X173816062Y-102738883D01*
X173764367Y-102744406D01*
X173737558Y-102746899D01*
X173666586Y-102749309D01*
X173593978Y-102744805D01*
X173567955Y-102742167D01*
X173536202Y-102739049D01*
X173513230Y-102736917D01*
X173502775Y-102736128D01*
X173497282Y-102741495D01*
X173488700Y-102760527D01*
X173478721Y-102790827D01*
X173468193Y-102829776D01*
X173457960Y-102874759D01*
X173446319Y-102943399D01*
X173436735Y-103054271D01*
X173436786Y-103168469D01*
X173446388Y-103280426D01*
X173465461Y-103384576D01*
X173471530Y-103409320D01*
X173479939Y-103442388D01*
X173486737Y-103467713D01*
X173490855Y-103481216D01*
X173492067Y-103486831D01*
X173486257Y-103497063D01*
X173466940Y-103507349D01*
X173450456Y-103514971D01*
X173405834Y-103544345D01*
X173370852Y-103581017D01*
X173347119Y-103622431D01*
X173336244Y-103666031D01*
X173339836Y-103709262D01*
X173346408Y-103726138D01*
X173366608Y-103748525D01*
X173398589Y-103761353D01*
X173443490Y-103765235D01*
X173482559Y-103764944D01*
X173521190Y-103681495D01*
X173559821Y-103598045D01*
X173568026Y-103401969D01*
X173568995Y-103378640D01*
X173571525Y-103316079D01*
X173573939Y-103254224D01*
X173576090Y-103196979D01*
X173577829Y-103148250D01*
X173579009Y-103111940D01*
X173579999Y-103085902D01*
X173583389Y-103040946D01*
X173588915Y-103007302D01*
X173597044Y-102981597D01*
X173612301Y-102945206D01*
X173619343Y-102969342D01*
X173620357Y-102975059D01*
X173621860Y-102997732D01*
X173622647Y-103033278D01*
X173622763Y-103079384D01*
X173622256Y-103133739D01*
X173621170Y-103194028D01*
X173619553Y-103257940D01*
X173617450Y-103323162D01*
X173614907Y-103387381D01*
X173611971Y-103448286D01*
X173608688Y-103503562D01*
X173606779Y-103531878D01*
X173603738Y-103570715D01*
X173600192Y-103599921D01*
X173595137Y-103623733D01*
X173587565Y-103646391D01*
X173576473Y-103672132D01*
X173560855Y-103705194D01*
X173546288Y-103736364D01*
X173527191Y-103781579D01*
X173516566Y-103815767D01*
X173514386Y-103840789D01*
X173520621Y-103858511D01*
X173535244Y-103870793D01*
X173558226Y-103879501D01*
X173570178Y-103882450D01*
X173622761Y-103888014D01*
X173676945Y-103883497D01*
X173729264Y-103870032D01*
X173776250Y-103848752D01*
X173814437Y-103820790D01*
X173840359Y-103787280D01*
X173842487Y-103783099D01*
X173847035Y-103772580D01*
X173850031Y-103760864D01*
X173851509Y-103745436D01*
X173851505Y-103723783D01*
X173850050Y-103693389D01*
X173847180Y-103651740D01*
X173842929Y-103596322D01*
X173839226Y-103548088D01*
X173834833Y-103488941D01*
X173830752Y-103432087D01*
X173827319Y-103382190D01*
X173824866Y-103343914D01*
X173823259Y-103306863D01*
X173822939Y-103261756D01*
X173824393Y-103221830D01*
X173827427Y-103189867D01*
X173831851Y-103168650D01*
X173837473Y-103160959D01*
X173841630Y-103163218D01*
X173847788Y-103176322D01*
X173853546Y-103201798D01*
X173859009Y-103240440D01*
X173864282Y-103293042D01*
X173869469Y-103360397D01*
X173874675Y-103443297D01*
X173877735Y-103496411D01*
X173880727Y-103548598D01*
X173883271Y-103593216D01*
X173885242Y-103628079D01*
X173886516Y-103651001D01*
X173886968Y-103659798D01*
X173888803Y-103660426D01*
X173903345Y-103661642D01*
X173930026Y-103662655D01*
X173966011Y-103663376D01*
X174008463Y-103663713D01*
X174129956Y-103664022D01*
X174134855Y-103606071D01*
X174135908Y-103592006D01*
X174138056Y-103556385D01*
X174140347Y-103511217D01*
X174142565Y-103460864D01*
X174144498Y-103409686D01*
X174145090Y-103393515D01*
X174148309Y-103328853D01*
X174152456Y-103273402D01*
X174157337Y-103228178D01*
X174162759Y-103194201D01*
X174168529Y-103172486D01*
X174174453Y-103164053D01*
X174180339Y-103169918D01*
X174185994Y-103191100D01*
X174187155Y-103200985D01*
X174188343Y-103229105D01*
X174188620Y-103269119D01*
X174188070Y-103318251D01*
X174186777Y-103373724D01*
X174184825Y-103432763D01*
X174182299Y-103492592D01*
X174179282Y-103550435D01*
X174175859Y-103603516D01*
X174172114Y-103649059D01*
X174168946Y-103688093D01*
X174167025Y-103724540D01*
X174166638Y-103752837D01*
X174167926Y-103768941D01*
X174174414Y-103785452D01*
X174196038Y-103815135D01*
X174227304Y-103842424D01*
X174264227Y-103863409D01*
X174292826Y-103872851D01*
X174335561Y-103881126D01*
X174381152Y-103885333D01*
X174423529Y-103884964D01*
X174456623Y-103879510D01*
X174460340Y-103878302D01*
X174481710Y-103867477D01*
X174494209Y-103851510D01*
X174497826Y-103828692D01*
X174492545Y-103797317D01*
X174478355Y-103755678D01*
X174455242Y-103702066D01*
X174442071Y-103672894D01*
X174430299Y-103644180D01*
X174422414Y-103618989D01*
X174417219Y-103592360D01*
X174413519Y-103559335D01*
X174410117Y-103514954D01*
X174406633Y-103461900D01*
X174402589Y-103388280D01*
X174399430Y-103315647D01*
X174397194Y-103246189D01*
X174395922Y-103182093D01*
X174395652Y-103125546D01*
X174396425Y-103078736D01*
X174398279Y-103043850D01*
X174401255Y-103023075D01*
X174403562Y-103015038D01*
X174409764Y-102998373D01*
X174415379Y-102991879D01*
X174420499Y-102996242D01*
X174425215Y-103012147D01*
X174429618Y-103040278D01*
X174433802Y-103081322D01*
X174437856Y-103135964D01*
X174441874Y-103204887D01*
X174445947Y-103288779D01*
X174450166Y-103388323D01*
X174458481Y-103595262D01*
X174496480Y-103680394D01*
X174534480Y-103765526D01*
X174570458Y-103765526D01*
X174588079Y-103764917D01*
X174628258Y-103756724D01*
X174655600Y-103738818D01*
X174670470Y-103710998D01*
X174673203Y-103697967D01*
X174672428Y-103653501D01*
X174657582Y-103609679D01*
X174630242Y-103569049D01*
X174591987Y-103534156D01*
X174544394Y-103507549D01*
X174532956Y-103502281D01*
X174520334Y-103492353D01*
X174519943Y-103481216D01*
X174520013Y-103481031D01*
X174524878Y-103466148D01*
X174532384Y-103440967D01*
X174540937Y-103410835D01*
X174558391Y-103363195D01*
X174592116Y-103308712D01*
X174602260Y-103295493D01*
X174649444Y-103229039D01*
X174693796Y-103158706D01*
X174734395Y-103086572D01*
X174770318Y-103014718D01*
X174800644Y-102945223D01*
X174824450Y-102880169D01*
X174840815Y-102821634D01*
X174848818Y-102771699D01*
X174847535Y-102732443D01*
X174846148Y-102725884D01*
X174838634Y-102708529D01*
X174826314Y-102703448D01*
X174815963Y-102705828D01*
X174801171Y-102719636D01*
X174787234Y-102746972D01*
X174773291Y-102789232D01*
X174758450Y-102838718D01*
X174729364Y-102919985D01*
X174697412Y-102988918D01*
X174661316Y-103048108D01*
X174619795Y-103100148D01*
X174584051Y-103139628D01*
X174578508Y-103048374D01*
X174573556Y-102987346D01*
X174555805Y-102869461D01*
X174527354Y-102759199D01*
X174507162Y-102695279D01*
X174423451Y-102695279D01*
X174387494Y-102694459D01*
X174308110Y-102685328D01*
X174238845Y-102665475D01*
X174177529Y-102634146D01*
X174121990Y-102590588D01*
X174078922Y-102540716D01*
X174046179Y-102478848D01*
X174026892Y-102407842D01*
X174021057Y-102327668D01*
X174022035Y-102316187D01*
X174067823Y-102316187D01*
X174069816Y-102370522D01*
X174079287Y-102421915D01*
X174088775Y-102451942D01*
X174119487Y-102511327D01*
X174162965Y-102561507D01*
X174217955Y-102601208D01*
X174283202Y-102629156D01*
X174319558Y-102638633D01*
X174393647Y-102648685D01*
X174470288Y-102648391D01*
X174546547Y-102638414D01*
X174619493Y-102619416D01*
X174686192Y-102592060D01*
X174743710Y-102557007D01*
X174789115Y-102514920D01*
X174795577Y-102506974D01*
X174830703Y-102450150D01*
X174854737Y-102385259D01*
X174865795Y-102317161D01*
X174866767Y-102276338D01*
X174863953Y-102237416D01*
X174856370Y-102198383D01*
X174843122Y-102155754D01*
X174823315Y-102106047D01*
X174796054Y-102045777D01*
X174781407Y-102013906D01*
X174757251Y-101959525D01*
X174731114Y-101899010D01*
X174705291Y-101837693D01*
X174682075Y-101780905D01*
X174656272Y-101718004D01*
X174626577Y-101650810D01*
X174599411Y-101596920D01*
X174573643Y-101554996D01*
X174548141Y-101523697D01*
X174521775Y-101501684D01*
X174493412Y-101487619D01*
X174461923Y-101480162D01*
X174426174Y-101477974D01*
X174425253Y-101477976D01*
X174377720Y-101483371D01*
X174338958Y-101500450D01*
X174304736Y-101531063D01*
X174297036Y-101540192D01*
X174283767Y-101558464D01*
X174271733Y-101579620D01*
X174260114Y-101605834D01*
X174248089Y-101639277D01*
X174234836Y-101682121D01*
X174219537Y-101736539D01*
X174201370Y-101804703D01*
X174185873Y-101862249D01*
X174169181Y-101921621D01*
X174152602Y-101978336D01*
X174137421Y-102027995D01*
X174124926Y-102066202D01*
X174109772Y-102111696D01*
X174087495Y-102189158D01*
X174073614Y-102256527D01*
X174067823Y-102316187D01*
X174022035Y-102316187D01*
X174028672Y-102238298D01*
X174049735Y-102139700D01*
X174084245Y-102031846D01*
X174085569Y-102028170D01*
X174095847Y-101996982D01*
X174108848Y-101954181D01*
X174123513Y-101903422D01*
X174138783Y-101848362D01*
X174153596Y-101792654D01*
X174165598Y-101747764D01*
X174182775Y-101687771D01*
X174199246Y-101634939D01*
X174214083Y-101592201D01*
X174226359Y-101562492D01*
X174249599Y-101521749D01*
X174280280Y-101483236D01*
X174313063Y-101455439D01*
X174345340Y-101441020D01*
X174362698Y-101435554D01*
X174373062Y-101428970D01*
X174373258Y-101428488D01*
X174367793Y-101420399D01*
X174351394Y-101407562D01*
X174327504Y-101392080D01*
X174299563Y-101376058D01*
X174271013Y-101361603D01*
X174245295Y-101350818D01*
X174177346Y-101330605D01*
X174084791Y-101315643D01*
X173994269Y-101315140D01*
X173907338Y-101328813D01*
X173825558Y-101356382D01*
X173750488Y-101397566D01*
X173683689Y-101452084D01*
X173661792Y-101475209D01*
X173637741Y-101503321D01*
X173614694Y-101532481D01*
X173595144Y-101559402D01*
X173581586Y-101580796D01*
X173576512Y-101593376D01*
X173576690Y-101594013D01*
X173585718Y-101599062D01*
X173604191Y-101603896D01*
X173623270Y-101610195D01*
X173648732Y-101627016D01*
X173667339Y-101648979D01*
X173668534Y-101652745D01*
X173674550Y-101671708D01*
X173672983Y-101683083D01*
X173659531Y-101706939D01*
X173635649Y-101726821D01*
X173605406Y-101740594D01*
X173572870Y-101746118D01*
X173542111Y-101741259D01*
X173526104Y-101736748D01*
X173516663Y-101741406D01*
X173508023Y-101758439D01*
X173504719Y-101765362D01*
X173493603Y-101779451D01*
X173475062Y-101791292D01*
X173444868Y-101803929D01*
X173427765Y-101810595D01*
X173385779Y-101828688D01*
X173342727Y-101849269D01*
X173300889Y-101871022D01*
X173262546Y-101892630D01*
X173229975Y-101912777D01*
X173205457Y-101930147D01*
X173191271Y-101943423D01*
X173189696Y-101951289D01*
X173191910Y-101952765D01*
X173207120Y-101959337D01*
X173229294Y-101966556D01*
X173237787Y-101969314D01*
X173278018Y-101990777D01*
X173314193Y-102022656D01*
X173340718Y-102060248D01*
X173346000Y-102071515D01*
X173350319Y-102087330D01*
X173354103Y-102101189D01*
X173354154Y-102136482D01*
X173353673Y-102141389D01*
X173341064Y-102186740D01*
X173315281Y-102223705D01*
X173277646Y-102251286D01*
X173229481Y-102268481D01*
X173172106Y-102274291D01*
X173147434Y-102273620D01*
X173121543Y-102270427D01*
X173096086Y-102263277D01*
X173066216Y-102250739D01*
X173027091Y-102231377D01*
X173023073Y-102234159D01*
X173020964Y-102247872D01*
X172974544Y-102247872D01*
X172974388Y-102245938D01*
X172973902Y-102233533D01*
X172971815Y-102190920D01*
X172969269Y-102149793D01*
X172966710Y-102117576D01*
X172966847Y-102076670D01*
X172979268Y-102034556D01*
X173005769Y-102000379D01*
X173012065Y-101996200D01*
X173056812Y-101996200D01*
X173056979Y-102009943D01*
X173070529Y-102029218D01*
X173097610Y-102049758D01*
X173136875Y-102070318D01*
X173149534Y-102075652D01*
X173186304Y-102087820D01*
X173221988Y-102095469D01*
X173253066Y-102098202D01*
X173276024Y-102095621D01*
X173287344Y-102087330D01*
X173287027Y-102073812D01*
X173274612Y-102054355D01*
X173257544Y-102039875D01*
X173228343Y-102022696D01*
X173193797Y-102007690D01*
X173157218Y-101995740D01*
X173121918Y-101987732D01*
X173091208Y-101984550D01*
X173068402Y-101987078D01*
X173056812Y-101996200D01*
X173012065Y-101996200D01*
X173046959Y-101973039D01*
X173065646Y-101964316D01*
X173088546Y-101955314D01*
X173102842Y-101951824D01*
X173104081Y-101951744D01*
X173119029Y-101944991D01*
X173135960Y-101930698D01*
X173156959Y-101911608D01*
X173193903Y-101884520D01*
X173239874Y-101855478D01*
X173291433Y-101826629D01*
X173345143Y-101800117D01*
X173370417Y-101788462D01*
X173403212Y-101773184D01*
X173429291Y-101760854D01*
X173444578Y-101753388D01*
X173453090Y-101746932D01*
X173467937Y-101724827D01*
X173483046Y-101687909D01*
X173496614Y-101654287D01*
X173587891Y-101654287D01*
X173593711Y-101671001D01*
X173599558Y-101676722D01*
X173616694Y-101681357D01*
X173633615Y-101670069D01*
X173633738Y-101669919D01*
X173640178Y-101652745D01*
X173632894Y-101638893D01*
X173614407Y-101633201D01*
X173612694Y-101633242D01*
X173595197Y-101639915D01*
X173587891Y-101654287D01*
X173496614Y-101654287D01*
X173511690Y-101616929D01*
X173560434Y-101529013D01*
X173619467Y-101452225D01*
X173687864Y-101387404D01*
X173764699Y-101335390D01*
X173849047Y-101297023D01*
X173939982Y-101273144D01*
X173942346Y-101272739D01*
X174023100Y-101265818D01*
X174108031Y-101270550D01*
X174193359Y-101286021D01*
X174275303Y-101311316D01*
X174350083Y-101345523D01*
X174413920Y-101387726D01*
X174426007Y-101397353D01*
X174448925Y-101414366D01*
X174469570Y-101426627D01*
X174493886Y-101437380D01*
X174527818Y-101449868D01*
X174532149Y-101451470D01*
X174579403Y-101477776D01*
X174623378Y-101518249D01*
X174661889Y-101570919D01*
X174662926Y-101572672D01*
X174675066Y-101595926D01*
X174691540Y-101630859D01*
X174710923Y-101674285D01*
X174731786Y-101723014D01*
X174752703Y-101773859D01*
X174772807Y-101823070D01*
X174797823Y-101882797D01*
X174823046Y-101941650D01*
X174846422Y-101994847D01*
X174865899Y-102037607D01*
X174869654Y-102045681D01*
X174888909Y-102088916D01*
X174906283Y-102130744D01*
X174919996Y-102166747D01*
X174928270Y-102192508D01*
X174932384Y-102210880D01*
X174939325Y-102266525D01*
X174939505Y-102276338D01*
X174940422Y-102326478D01*
G37*
%TO.C,kibuzzard-66E9E070*%
G36*
X168264256Y-96314481D02*
G01*
X168297876Y-96398172D01*
X168260680Y-96485440D01*
X168181996Y-96514052D01*
X168101881Y-96485440D01*
X168063255Y-96396741D01*
X168096159Y-96312335D01*
X168183426Y-96280862D01*
X168264256Y-96314481D01*
G37*
G36*
X167476702Y-96499746D02*
G01*
X167272124Y-96499746D01*
X167252096Y-96498315D01*
X167229921Y-96490447D01*
X167208462Y-96466126D01*
X167200594Y-96421062D01*
X167219192Y-96361691D01*
X167279278Y-96348101D01*
X167297876Y-96348101D01*
X167379421Y-96323065D01*
X167403741Y-96237943D01*
X167377990Y-96155683D01*
X167290722Y-96132078D01*
X167273555Y-96132078D01*
X167239220Y-96122063D01*
X167229206Y-96077714D01*
X167244227Y-96033365D01*
X167303598Y-96021920D01*
X167476702Y-96021920D01*
X167476702Y-96499746D01*
G37*
G36*
X171619287Y-97017152D02*
G01*
X171380851Y-97017152D01*
X171252096Y-97017152D01*
X170110465Y-97017152D01*
X169353670Y-97017152D01*
X169026059Y-97017152D01*
X168179134Y-97017152D01*
X167608319Y-97017152D01*
X166429492Y-97017152D01*
X165556817Y-97017152D01*
X165189149Y-97017152D01*
X164950713Y-97017152D01*
X164950713Y-96439660D01*
X165189149Y-96439660D01*
X165195229Y-96507972D01*
X165213469Y-96569846D01*
X165275701Y-96666412D01*
X165363684Y-96730075D01*
X165461681Y-96766555D01*
X165556817Y-96777285D01*
X165636931Y-96770847D01*
X165704170Y-96755111D01*
X165759249Y-96731505D01*
X165803598Y-96704324D01*
X165837933Y-96676427D01*
X165862969Y-96651391D01*
X165878705Y-96631362D01*
X165887289Y-96621348D01*
X165923054Y-96528358D01*
X165862969Y-96436799D01*
X165803519Y-96403736D01*
X165741525Y-96413273D01*
X165676989Y-96465411D01*
X165619049Y-96517628D01*
X165562539Y-96531219D01*
X165478133Y-96510475D01*
X165452382Y-96443952D01*
X165489578Y-96399603D01*
X165601881Y-96365983D01*
X165670014Y-96347564D01*
X165724199Y-96328072D01*
X165804313Y-96282292D01*
X165861538Y-96220776D01*
X165895873Y-96143523D01*
X165907318Y-96050533D01*
X165896667Y-95967795D01*
X165864717Y-95895072D01*
X165863098Y-95893165D01*
X165984571Y-95893165D01*
X165984571Y-96295168D01*
X165991903Y-96381720D01*
X166013898Y-96466842D01*
X166049485Y-96547850D01*
X166097589Y-96622063D01*
X166160000Y-96685905D01*
X166238505Y-96735797D01*
X166329528Y-96767986D01*
X166429492Y-96778716D01*
X166529278Y-96767807D01*
X166619764Y-96735082D01*
X166697554Y-96684474D01*
X166759249Y-96619917D01*
X166806638Y-96545168D01*
X166841509Y-96463980D01*
X166848362Y-96436799D01*
X166938791Y-96436799D01*
X166949998Y-96522795D01*
X166981710Y-96599571D01*
X167033927Y-96667128D01*
X167100451Y-96719584D01*
X167175081Y-96751057D01*
X167257818Y-96761548D01*
X167608319Y-96761548D01*
X167682711Y-96751534D01*
X167722768Y-96718630D01*
X167736359Y-96678573D01*
X167738505Y-96628501D01*
X167738505Y-96398172D01*
X167801452Y-96398172D01*
X167814566Y-96503561D01*
X167853908Y-96594643D01*
X167919478Y-96671420D01*
X168000784Y-96729439D01*
X168087337Y-96764251D01*
X168179134Y-96775854D01*
X168271807Y-96764012D01*
X168359074Y-96728485D01*
X168440937Y-96669274D01*
X168506904Y-96591941D01*
X168546485Y-96502051D01*
X168559678Y-96399603D01*
X168547279Y-96300493D01*
X168510083Y-96211079D01*
X168448647Y-96132078D01*
X168594013Y-96132078D01*
X168601881Y-96199138D01*
X168625486Y-96254395D01*
X168705601Y-96303751D01*
X168760680Y-96293022D01*
X168795730Y-96282292D01*
X168866545Y-96303036D01*
X168894442Y-96355254D01*
X168894442Y-96634224D01*
X168896588Y-96682864D01*
X168910179Y-96720776D01*
X168950236Y-96752965D01*
X169026059Y-96762979D01*
X169099735Y-96752965D01*
X169139077Y-96720060D01*
X169152668Y-96680719D01*
X169154814Y-96631362D01*
X169154814Y-96617056D01*
X169212039Y-96617056D01*
X169259249Y-96712907D01*
X169310751Y-96756899D01*
X169353670Y-96771563D01*
X169445229Y-96720060D01*
X169621195Y-96555540D01*
X169621195Y-96634224D01*
X169623340Y-96682864D01*
X169636931Y-96720776D01*
X169676273Y-96752965D01*
X169751381Y-96762979D01*
X169825057Y-96752965D01*
X169864399Y-96720060D01*
X169877990Y-96680719D01*
X169880136Y-96632793D01*
X169880136Y-96169274D01*
X169980279Y-96169274D01*
X169980279Y-96634224D01*
X169982425Y-96682864D01*
X169996016Y-96720776D01*
X170035358Y-96752965D01*
X170110465Y-96762979D01*
X170184142Y-96752965D01*
X170223484Y-96720776D01*
X170237074Y-96682149D01*
X170239220Y-96632793D01*
X170239220Y-96399603D01*
X170327918Y-96399603D01*
X170327918Y-96632793D01*
X170330064Y-96682149D01*
X170343655Y-96720776D01*
X170383712Y-96752965D01*
X170459535Y-96762979D01*
X170533212Y-96752965D01*
X170572554Y-96720060D01*
X170586144Y-96680003D01*
X170588290Y-96631362D01*
X170588290Y-96398172D01*
X170605458Y-96321992D01*
X170656960Y-96296598D01*
X170709177Y-96319488D01*
X170724199Y-96399603D01*
X170724199Y-96632793D01*
X170726345Y-96682149D01*
X170739936Y-96720776D01*
X170779993Y-96752965D01*
X170855815Y-96762979D01*
X170929492Y-96752965D01*
X170968834Y-96720060D01*
X170982425Y-96680003D01*
X170984571Y-96631362D01*
X170984571Y-96398172D01*
X171001738Y-96321992D01*
X171053240Y-96296598D01*
X171103670Y-96321992D01*
X171120479Y-96398172D01*
X171120479Y-96634224D01*
X171122625Y-96682864D01*
X171136216Y-96720776D01*
X171176273Y-96752965D01*
X171252096Y-96762979D01*
X171325773Y-96752965D01*
X171365114Y-96720776D01*
X171378705Y-96682149D01*
X171380851Y-96632793D01*
X171380851Y-96164982D01*
X171378705Y-96116341D01*
X171365114Y-96078430D01*
X171325057Y-96046241D01*
X171249235Y-96036226D01*
X171167690Y-96053751D01*
X171129063Y-96106327D01*
X171063970Y-96052678D01*
X170988863Y-96034796D01*
X170907159Y-96046400D01*
X170839443Y-96081211D01*
X170785715Y-96139231D01*
X170725471Y-96081211D01*
X170661093Y-96046400D01*
X170592582Y-96034796D01*
X170514932Y-96045366D01*
X170449839Y-96077078D01*
X170397303Y-96129932D01*
X170358756Y-96202178D01*
X170335628Y-96292068D01*
X170327918Y-96399603D01*
X170239220Y-96399603D01*
X170239220Y-96166412D01*
X170237074Y-96118487D01*
X170223484Y-96079860D01*
X170183426Y-96047671D01*
X170110465Y-96037850D01*
X170109034Y-96037657D01*
X170035358Y-96047671D01*
X169996016Y-96080575D01*
X169982425Y-96119917D01*
X169980279Y-96169274D01*
X169880136Y-96169274D01*
X169880136Y-95838802D01*
X169980279Y-95838802D01*
X169982425Y-95887442D01*
X169996016Y-95925354D01*
X170035358Y-95957543D01*
X170110465Y-95967557D01*
X170184142Y-95957543D01*
X170223484Y-95924638D01*
X170237074Y-95885297D01*
X170239220Y-95837371D01*
X170237074Y-95789445D01*
X170223484Y-95750819D01*
X170183426Y-95718630D01*
X170109034Y-95708616D01*
X170035358Y-95718630D01*
X169996016Y-95751534D01*
X169982425Y-95790876D01*
X169980279Y-95838802D01*
X169880136Y-95838802D01*
X169880136Y-95835940D01*
X169877990Y-95786584D01*
X169864399Y-95747957D01*
X169824342Y-95715769D01*
X169749950Y-95705754D01*
X169676273Y-95715769D01*
X169636931Y-95748673D01*
X169623340Y-95788015D01*
X169621195Y-95837371D01*
X169621195Y-96232221D01*
X169499592Y-96113480D01*
X169405887Y-96062693D01*
X169313612Y-96113480D01*
X169259964Y-96210761D01*
X169313612Y-96299460D01*
X169429492Y-96401033D01*
X169267833Y-96526927D01*
X169212039Y-96617056D01*
X169154814Y-96617056D01*
X169154814Y-96164982D01*
X169152668Y-96116341D01*
X169139077Y-96078430D01*
X169099735Y-96046241D01*
X169024628Y-96036226D01*
X168941652Y-96050890D01*
X168901595Y-96094882D01*
X168829349Y-96045525D01*
X168752811Y-96029073D01*
X168709893Y-96032650D01*
X168658391Y-96045525D01*
X168611896Y-96077714D01*
X168594013Y-96132078D01*
X168448647Y-96132078D01*
X168448090Y-96131362D01*
X168368929Y-96068972D01*
X168280231Y-96031537D01*
X168181996Y-96019059D01*
X168081455Y-96031299D01*
X167991565Y-96068018D01*
X167912325Y-96129216D01*
X167850729Y-96208059D01*
X167813771Y-96297711D01*
X167801452Y-96398172D01*
X167738505Y-96398172D01*
X167738505Y-95890304D01*
X167736359Y-95842378D01*
X167722768Y-95803036D01*
X167682711Y-95770132D01*
X167606888Y-95760118D01*
X167272124Y-95760118D01*
X167191533Y-95770211D01*
X167119526Y-95800493D01*
X167056102Y-95850962D01*
X167006825Y-95915260D01*
X166977259Y-95987029D01*
X166967403Y-96066269D01*
X166979206Y-96149960D01*
X167014614Y-96226498D01*
X166957747Y-96326999D01*
X166938791Y-96436799D01*
X166848362Y-96436799D01*
X166862969Y-96378859D01*
X166870122Y-96292307D01*
X166870122Y-95891734D01*
X166867976Y-95842378D01*
X166854385Y-95803036D01*
X166814328Y-95770132D01*
X166738505Y-95760118D01*
X166663398Y-95770132D01*
X166624056Y-95802321D01*
X166609750Y-95842378D01*
X166606888Y-95893165D01*
X166606888Y-96292307D01*
X166592582Y-96393165D01*
X166535358Y-96477571D01*
X166486359Y-96506005D01*
X166425200Y-96515482D01*
X166351881Y-96500103D01*
X166295014Y-96453966D01*
X166258534Y-96382435D01*
X166246373Y-96290876D01*
X166246373Y-95884581D01*
X166243512Y-95838086D01*
X166229206Y-95800890D01*
X166189149Y-95770132D01*
X166114757Y-95760118D01*
X166040365Y-95770132D01*
X166000308Y-95803751D01*
X165986717Y-95843809D01*
X165984571Y-95893165D01*
X165863098Y-95893165D01*
X165811466Y-95832364D01*
X165742002Y-95784279D01*
X165661411Y-95755428D01*
X165569692Y-95745812D01*
X165461760Y-95755349D01*
X165370678Y-95783961D01*
X165296445Y-95831648D01*
X165244943Y-95905325D01*
X165279278Y-95993308D01*
X165363684Y-96062693D01*
X165459535Y-96036226D01*
X165475987Y-96022636D01*
X165496016Y-96006183D01*
X165523913Y-95995454D01*
X165571123Y-95990447D01*
X165624056Y-96008329D01*
X165646946Y-96051963D01*
X165621910Y-96098458D01*
X165565401Y-96123494D01*
X165478133Y-96141377D01*
X165386574Y-96163551D01*
X165305565Y-96200747D01*
X165242797Y-96255111D01*
X165202561Y-96332721D01*
X165189149Y-96439660D01*
X164950713Y-96439660D01*
X164950713Y-95467318D01*
X165189149Y-95467318D01*
X171380851Y-95467318D01*
X171619287Y-95467318D01*
X171619287Y-97017152D01*
G37*
%TO.C,kibuzzard-66E9A769*%
G36*
X162073662Y-113430241D02*
G01*
X162097696Y-113489183D01*
X162097696Y-113612788D01*
X161930600Y-113612788D01*
X161930600Y-113486894D01*
X161951201Y-113431958D01*
X162014148Y-113405635D01*
X162073662Y-113430241D01*
G37*
G36*
X162510476Y-111835392D02*
G01*
X162510476Y-114597051D01*
X162510476Y-114787800D01*
X161907138Y-115190025D01*
X161303800Y-114787800D01*
X161303800Y-114597051D01*
X161303800Y-114494047D01*
X161303800Y-113999626D01*
X161505994Y-113999626D01*
X161512288Y-114058568D01*
X161536895Y-114092330D01*
X161928311Y-114388753D01*
X161610142Y-114388753D01*
X161570657Y-114390470D01*
X161539756Y-114401343D01*
X161514005Y-114433389D01*
X161505994Y-114494047D01*
X161514005Y-114552988D01*
X161539756Y-114583889D01*
X161571230Y-114594762D01*
X161611287Y-114597051D01*
X162205278Y-114597051D01*
X162243619Y-114594762D01*
X162273948Y-114583317D01*
X162298554Y-114551844D01*
X162305994Y-114491758D01*
X162299127Y-114439683D01*
X162284820Y-114410499D01*
X162261358Y-114389898D01*
X161876809Y-114103775D01*
X162205278Y-114103775D01*
X162243046Y-114101486D01*
X162273375Y-114090041D01*
X162297982Y-114057995D01*
X162305994Y-113998482D01*
X162297982Y-113938968D01*
X162271659Y-113906922D01*
X162240185Y-113896050D01*
X162200700Y-113894333D01*
X161610142Y-113894333D01*
X161570657Y-113896050D01*
X161539756Y-113906922D01*
X161514005Y-113938968D01*
X161505994Y-113999626D01*
X161303800Y-113999626D01*
X161303800Y-113319798D01*
X161503132Y-113319798D01*
X161556351Y-113383889D01*
X161722303Y-113506350D01*
X161722303Y-113612788D01*
X161611287Y-113612788D01*
X161571802Y-113614505D01*
X161540901Y-113625377D01*
X161515149Y-113657423D01*
X161507138Y-113718081D01*
X161515149Y-113777595D01*
X161541473Y-113809640D01*
X161572946Y-113820513D01*
X161612431Y-113822230D01*
X162202989Y-113822230D01*
X162241330Y-113820513D01*
X162272803Y-113809640D01*
X162299127Y-113777595D01*
X162307138Y-113716937D01*
X162307138Y-113486894D01*
X162302560Y-113440399D01*
X162288826Y-113392473D01*
X162266509Y-113344691D01*
X162236179Y-113298625D01*
X162195693Y-113257566D01*
X162142903Y-113224805D01*
X162080958Y-113203346D01*
X162013004Y-113196193D01*
X161927294Y-113207383D01*
X161853283Y-113240955D01*
X161790972Y-113296908D01*
X161681101Y-113214505D01*
X161602131Y-113183603D01*
X161534606Y-113238539D01*
X161503132Y-113319798D01*
X161303800Y-113319798D01*
X161303800Y-112860856D01*
X161494549Y-112860856D01*
X161499699Y-112924948D01*
X161512288Y-112978739D01*
X161531172Y-113022802D01*
X161552918Y-113058281D01*
X161575235Y-113085749D01*
X161595264Y-113105778D01*
X161611287Y-113118367D01*
X161619298Y-113125234D01*
X161693690Y-113153846D01*
X161766938Y-113105778D01*
X161793388Y-113058218D01*
X161785758Y-113008623D01*
X161744048Y-112956994D01*
X161702274Y-112910642D01*
X161691401Y-112865434D01*
X161707996Y-112797909D01*
X161761215Y-112777309D01*
X161796695Y-112807065D01*
X161823590Y-112896908D01*
X161838325Y-112951414D01*
X161853919Y-112994762D01*
X161890543Y-113058854D01*
X161939756Y-113104633D01*
X162001559Y-113132101D01*
X162075951Y-113141257D01*
X162142140Y-113132737D01*
X162200319Y-113107177D01*
X162250486Y-113064576D01*
X162288953Y-113009005D01*
X162312034Y-112944532D01*
X162319727Y-112871157D01*
X162312097Y-112784811D01*
X162289208Y-112711945D01*
X162251058Y-112652559D01*
X162192117Y-112611357D01*
X162121730Y-112638825D01*
X162066222Y-112706350D01*
X162087396Y-112783031D01*
X162098268Y-112796193D01*
X162111430Y-112812216D01*
X162120014Y-112834533D01*
X162124019Y-112872301D01*
X162109713Y-112914648D01*
X162074806Y-112932959D01*
X162037610Y-112912931D01*
X162017581Y-112867723D01*
X162003275Y-112797909D01*
X161985536Y-112724662D01*
X161955779Y-112659855D01*
X161912288Y-112609640D01*
X161850200Y-112577452D01*
X161764649Y-112566722D01*
X161709999Y-112571586D01*
X161660500Y-112586178D01*
X161583247Y-112635964D01*
X161532317Y-112706350D01*
X161503132Y-112784748D01*
X161494549Y-112860856D01*
X161303800Y-112860856D01*
X161303800Y-112185606D01*
X161505994Y-112185606D01*
X161514005Y-112244547D01*
X161539756Y-112275449D01*
X161570657Y-112285749D01*
X161608998Y-112287466D01*
X162132031Y-112287466D01*
X162132031Y-112446550D01*
X162133747Y-112479168D01*
X162142903Y-112504919D01*
X162169799Y-112526665D01*
X162221301Y-112533532D01*
X162271086Y-112526665D01*
X162297410Y-112504347D01*
X162306566Y-112478024D01*
X162308282Y-112445406D01*
X162308282Y-111922373D01*
X162306566Y-111889755D01*
X162297410Y-111864004D01*
X162270514Y-111842258D01*
X162220157Y-111835392D01*
X162169799Y-111842258D01*
X162142903Y-111864576D01*
X162133747Y-111890899D01*
X162132031Y-111923517D01*
X162132031Y-112081457D01*
X161607853Y-112081457D01*
X161569513Y-112083174D01*
X161539184Y-112094047D01*
X161514005Y-112126093D01*
X161505994Y-112185606D01*
X161303800Y-112185606D01*
X161303800Y-111835392D01*
X161303800Y-111644643D01*
X162510476Y-111644643D01*
X162510476Y-111835392D01*
G37*
%TD*%
M02*
