%TF.GenerationSoftware,KiCad,Pcbnew,8.0.4-1.fc40*%
%TF.CreationDate,2024-10-03T17:07:43+05:30*%
%TF.ProjectId,zepto,7a657074-6f2e-46b6-9963-61645f706362,Mark3*%
%TF.SameCoordinates,Original*%
%TF.FileFunction,Copper,L2,Bot*%
%TF.FilePolarity,Positive*%
%FSLAX46Y46*%
G04 Gerber Fmt 4.6, Leading zero omitted, Abs format (unit mm)*
G04 Created by KiCad (PCBNEW 8.0.4-1.fc40) date 2024-10-03 17:07:43*
%MOMM*%
%LPD*%
G01*
G04 APERTURE LIST*
%TA.AperFunction,ComponentPad*%
%ADD10C,1.524000*%
%TD*%
%TA.AperFunction,ComponentPad*%
%ADD11C,0.300000*%
%TD*%
%TA.AperFunction,ViaPad*%
%ADD12C,0.500000*%
%TD*%
%TA.AperFunction,ViaPad*%
%ADD13C,0.600000*%
%TD*%
%TA.AperFunction,Conductor*%
%ADD14C,0.200000*%
%TD*%
%TA.AperFunction,Conductor*%
%ADD15C,0.400000*%
%TD*%
G04 APERTURE END LIST*
D10*
%TO.P,J5,1,Pin_1*%
%TO.N,TIMG2_C0*%
X179815000Y-86100000D03*
%TO.P,J5,2,Pin_2*%
%TO.N,A3*%
X179615000Y-88640000D03*
%TO.P,J5,3,Pin_3*%
%TO.N,A2*%
X179815000Y-91180000D03*
%TO.P,J5,4,Pin_4*%
%TO.N,A1*%
X179615000Y-93720000D03*
%TO.P,J5,5,Pin_5*%
%TO.N,A0*%
X179815000Y-96260000D03*
%TO.P,J5,6,Pin_6*%
%TO.N,RST*%
X179615000Y-98800000D03*
%TO.P,J5,7,Pin_7*%
%TO.N,SPI0_CS1*%
X179815000Y-101340000D03*
%TO.P,J5,8,Pin_8*%
%TO.N,SPI0_SCK*%
X179615000Y-103880000D03*
%TO.P,J5,9,Pin_9*%
%TO.N,SPI0_POCI*%
X179815000Y-106420000D03*
%TO.P,J5,10,Pin_10*%
%TO.N,SPI0_PICO*%
X179615000Y-108960000D03*
%TO.P,J5,11,Pin_11*%
%TO.N,+3V3*%
X179815000Y-111500000D03*
%TO.P,J5,12,Pin_12*%
%TO.N,GND*%
X179615000Y-114040000D03*
%TD*%
%TO.P,J1,1,Pin_1*%
%TO.N,+3V3*%
X177174993Y-116450000D03*
%TO.P,J1,2,Pin_2*%
%TO.N,SWDIO*%
X174634993Y-116250000D03*
%TO.P,J1,3,Pin_3*%
%TO.N,SWCLK*%
X172094993Y-116250000D03*
%TO.P,J1,4,Pin_4*%
%TO.N,BSL_UART_TX*%
X169554993Y-116450000D03*
%TO.P,J1,5,Pin_5*%
%TO.N,GND*%
X167014993Y-116250000D03*
%TO.P,J1,6,Pin_6*%
%TO.N,BSL_UART_RX*%
X164474993Y-116450000D03*
%TO.P,J1,7,Pin_7*%
%TO.N,NRST*%
X161934993Y-116250000D03*
%TO.P,J1,8,Pin_8*%
%TO.N,BSL_invoke*%
X159394993Y-116450000D03*
%TD*%
D11*
%TO.P,U4,34,TMPAD*%
%TO.N,GND*%
X168047500Y-102556750D03*
%TO.P,U4,35,TMPAD*%
X169522500Y-101081750D03*
%TO.P,U4,36,TMPAD*%
X168047500Y-101081750D03*
%TO.P,U4,37,TMPAD*%
X166572500Y-101081750D03*
%TO.P,U4,38,TMPAD*%
X168047500Y-99606750D03*
%TD*%
D10*
%TO.P,J6,1,Pin_1*%
%TO.N,GND*%
X156955000Y-114040000D03*
%TO.P,J6,2,Pin_2*%
%TO.N,unconnected-(J6-Pin_2-Pad2)*%
X156755000Y-111500000D03*
%TO.P,J6,3,Pin_3*%
%TO.N,I2C1_SDA*%
X156955000Y-108960000D03*
%TO.P,J6,4,Pin_4*%
%TO.N,I2C1_SCL*%
X156755000Y-106420000D03*
%TO.P,J6,5,Pin_5*%
%TO.N,UART0_RX*%
X156955000Y-103880000D03*
%TO.P,J6,6,Pin_6*%
%TO.N,UART0_TX*%
X156755000Y-101340000D03*
%TO.P,J6,7,Pin_7*%
%TO.N,INT*%
X156955000Y-98800000D03*
%TO.P,J6,8,Pin_8*%
%TO.N,TIMG1_C0*%
X156755000Y-96260000D03*
%TO.P,J6,9,Pin_9*%
%TO.N,TIMG0_C0*%
X156955000Y-93720000D03*
%TO.P,J6,10,Pin_10*%
%TO.N,TIMG0_C1*%
X156755000Y-91180000D03*
%TO.P,J6,11,Pin_11*%
%TO.N,TIMG4_C0*%
X156955000Y-88640000D03*
%TO.P,J6,12,Pin_12*%
%TO.N,CLK_OUT*%
X156755000Y-86100000D03*
%TD*%
D12*
%TO.N,BSL_I2C_SCL*%
X162250000Y-86600000D03*
X172750000Y-85600000D03*
X173067894Y-102500000D03*
X173660077Y-91850000D03*
%TO.N,NRST*%
X175700000Y-110600000D03*
X171100000Y-110600000D03*
%TO.N,GND*%
X172050000Y-97450000D03*
X175904993Y-115838000D03*
X179065000Y-100069999D03*
X157700000Y-89909999D03*
X160980000Y-105540000D03*
X165150000Y-108190000D03*
X169250000Y-92775000D03*
X157700000Y-112769999D03*
X166300000Y-89100000D03*
X179065000Y-110229999D03*
X179065000Y-107689999D03*
X178750000Y-116600000D03*
X157700000Y-105149999D03*
X163100000Y-108200000D03*
X178300000Y-117100000D03*
X175698974Y-94160613D03*
X157700000Y-92449999D03*
X160664999Y-115838000D03*
X170824995Y-115838000D03*
X179065000Y-105149999D03*
X174510000Y-101700000D03*
X178310000Y-92450000D03*
X169700000Y-91250000D03*
X174000000Y-104250000D03*
X178300000Y-89910000D03*
X178300000Y-87370000D03*
X165744997Y-115838000D03*
X179650000Y-116600000D03*
X171100000Y-108350000D03*
X168284996Y-115838000D03*
X173364994Y-115838000D03*
X157700000Y-102609999D03*
X180100000Y-117100000D03*
X157700000Y-97529999D03*
X161600000Y-103950000D03*
X177520000Y-85430000D03*
X179065000Y-97529999D03*
X171050000Y-107170000D03*
X179065000Y-89909999D03*
X157700000Y-95000000D03*
X157700000Y-100069999D03*
X160550000Y-107850000D03*
X157700000Y-107689999D03*
X179065000Y-112769999D03*
X172300000Y-108300000D03*
X179200000Y-117100000D03*
X163204998Y-115838000D03*
X175300000Y-87250000D03*
X169910000Y-85430000D03*
X165350000Y-88200000D03*
X166320000Y-108190000D03*
X163600000Y-101381750D03*
X175300000Y-108350000D03*
X174750000Y-97850000D03*
X159090000Y-85420000D03*
X179065000Y-102609999D03*
X162500000Y-90700000D03*
X157700000Y-87369999D03*
X179065000Y-94989999D03*
X157700000Y-110229999D03*
X179065000Y-87369999D03*
X166720000Y-85430000D03*
X179065000Y-92449999D03*
%TO.N,+3V3*%
X173725000Y-94100000D03*
X166550000Y-107175000D03*
X174296693Y-98921693D03*
X162400000Y-107175000D03*
D13*
%TO.N,SWDIO*%
X170425000Y-111975000D03*
%TO.N,BSL_UART_RX*%
X173225000Y-113375000D03*
%TO.N,BSL_UART_TX*%
X173625000Y-114700000D03*
D12*
%TO.N,SPI0_POCI*%
X176750000Y-99550000D03*
%TO.N,BSL_I2C_SDA*%
X162825000Y-87100000D03*
X173550000Y-85800000D03*
X174294409Y-92400000D03*
X173650000Y-103050000D03*
%TO.N,VCC*%
X174200000Y-86800000D03*
X163400000Y-87750000D03*
%TO.N,A0*%
X170630000Y-104100000D03*
%TO.N,SPI0_PICO*%
X176650000Y-100360000D03*
%TO.N,SPI0_SCK*%
X178150000Y-100550000D03*
%TO.N,TIMG1_C0*%
X160200000Y-92500000D03*
%TO.N,UART0_TX*%
X165900000Y-95399997D03*
%TO.N,A2*%
X168902183Y-104800001D03*
%TO.N,INT*%
X164700000Y-95150000D03*
%TO.N,RST*%
X166313375Y-94702869D03*
%TO.N,A3*%
X167393503Y-104800001D03*
%TO.N,A1*%
X170900000Y-104750001D03*
%TO.N,UART0_RX*%
X166250000Y-96100000D03*
%TO.N,TIMG0_C1*%
X163206446Y-96100000D03*
%TO.N,CLK_OUT*%
X164500000Y-99565000D03*
%TO.N,TIMG4_C0*%
X163550000Y-103142894D03*
%TO.N,TIMG2_C0*%
X165600000Y-104950000D03*
%TD*%
D14*
%TO.N,NRST*%
X175700000Y-110600000D02*
X171100000Y-110600000D01*
%TO.N,BSL_I2C_SCL*%
X162700000Y-86150000D02*
X162250000Y-86600000D01*
X172650000Y-98618504D02*
X173500000Y-99468503D01*
X172750000Y-85600000D02*
X172450000Y-85900000D01*
X171227207Y-85900000D02*
X170977207Y-86150000D01*
X173660077Y-91850000D02*
X173660077Y-92474237D01*
X170977207Y-86150000D02*
X162700000Y-86150000D01*
X173500000Y-102067894D02*
X173067894Y-102500000D01*
X173660077Y-92474237D02*
X172650000Y-93484314D01*
X173500000Y-99468503D02*
X173500000Y-102067894D01*
X172650000Y-93484314D02*
X172650000Y-98618504D01*
X172450000Y-85900000D02*
X171227207Y-85900000D01*
D15*
%TO.N,+3V3*%
X173725000Y-98350000D02*
X174296693Y-98921693D01*
D14*
X166550000Y-107200000D02*
X168550000Y-109200000D01*
X168550000Y-109200000D02*
X176450000Y-109200000D01*
X176450000Y-109200000D02*
X178750000Y-111500000D01*
X166550000Y-107175000D02*
X162400000Y-107175000D01*
X178750000Y-111500000D02*
X179715000Y-111500000D01*
X166550000Y-107175000D02*
X166550000Y-107200000D01*
D15*
X173725000Y-94100000D02*
X173725000Y-98350000D01*
D14*
%TO.N,SWDIO*%
X175225000Y-115075000D02*
X174635000Y-115665000D01*
X170425000Y-111975000D02*
X175465000Y-111975000D01*
X176350000Y-112860000D02*
X176350000Y-114400000D01*
X175675000Y-115075000D02*
X175225000Y-115075000D01*
X175465000Y-111975000D02*
X176350000Y-112860000D01*
X174635000Y-115665000D02*
X174635000Y-116350000D01*
X176350000Y-114400000D02*
X175675000Y-115075000D01*
%TO.N,BSL_UART_RX*%
X173225000Y-113375000D02*
X166075000Y-113375000D01*
X164475000Y-114975000D02*
X164475000Y-116350000D01*
X166075000Y-113375000D02*
X164475000Y-114975000D01*
%TO.N,BSL_UART_TX*%
X173625000Y-114700000D02*
X170000000Y-114700000D01*
X170000000Y-114700000D02*
X169555000Y-115145000D01*
X169555000Y-115145000D02*
X169555000Y-116350000D01*
%TO.N,SPI0_POCI*%
X176750000Y-99550000D02*
X177400000Y-100200000D01*
X177750000Y-100927818D02*
X177750000Y-105750000D01*
X177400000Y-100577818D02*
X177750000Y-100927818D01*
X177750000Y-105750000D02*
X178420000Y-106420000D01*
X178420000Y-106420000D02*
X179715000Y-106420000D01*
X177400000Y-100200000D02*
X177400000Y-100577818D01*
%TO.N,BSL_I2C_SDA*%
X173050000Y-93650000D02*
X173050000Y-98452818D01*
X173050000Y-98452818D02*
X173900000Y-99302818D01*
X173650000Y-102483580D02*
X173650000Y-103050000D01*
X174294409Y-92400000D02*
X174294409Y-92405591D01*
X173900000Y-99302818D02*
X173900000Y-102233580D01*
X171392893Y-86300000D02*
X171142893Y-86550000D01*
X173900000Y-102233580D02*
X173650000Y-102483580D01*
X173550000Y-85800000D02*
X173050000Y-86300000D01*
X163375000Y-86550000D02*
X162825000Y-87100000D01*
X171142893Y-86550000D02*
X163375000Y-86550000D01*
X174294409Y-92405591D02*
X173050000Y-93650000D01*
X173050000Y-86300000D02*
X171392893Y-86300000D01*
D15*
%TO.N,VCC*%
X171350000Y-87050000D02*
X164100000Y-87050000D01*
X164100000Y-87050000D02*
X163400000Y-87750000D01*
X171600000Y-86800000D02*
X171350000Y-87050000D01*
X174200000Y-86800000D02*
X171600000Y-86800000D01*
D14*
%TO.N,A0*%
X170630000Y-103187893D02*
X171600000Y-102217893D01*
X171600000Y-102217893D02*
X171600000Y-97865686D01*
X178260000Y-96260000D02*
X179715000Y-96260000D01*
X171150000Y-92181372D02*
X172881372Y-90450000D01*
X172881372Y-90450000D02*
X174950000Y-90450000D01*
X176900000Y-92400000D02*
X176900000Y-93445000D01*
X176900000Y-93445000D02*
X177500000Y-94045000D01*
X177500000Y-94045000D02*
X177500000Y-95500000D01*
X171600000Y-97865686D02*
X171150000Y-97415686D01*
X174950000Y-90450000D02*
X176900000Y-92400000D01*
X177500000Y-95500000D02*
X178260000Y-96260000D01*
X170630000Y-104100000D02*
X170630000Y-103187893D01*
X171150000Y-97415686D02*
X171150000Y-92181372D01*
%TO.N,SPI0_PICO*%
X176650000Y-100360000D02*
X176650000Y-107400000D01*
X176650000Y-107400000D02*
X178210000Y-108960000D01*
X178210000Y-108960000D02*
X179715000Y-108960000D01*
%TO.N,SPI0_SCK*%
X179005000Y-103880000D02*
X179715000Y-103880000D01*
X178150000Y-100550000D02*
X178150000Y-103025000D01*
X178150000Y-103025000D02*
X179005000Y-103880000D01*
%TO.N,TIMG1_C0*%
X160200000Y-95700000D02*
X159640000Y-96260000D01*
X159640000Y-96260000D02*
X156855000Y-96260000D01*
X160200000Y-92500000D02*
X160200000Y-95700000D01*
%TO.N,UART0_TX*%
X165900000Y-95399997D02*
X165450003Y-95399997D01*
X165450003Y-95399997D02*
X159510000Y-101340000D01*
X159510000Y-101340000D02*
X156855000Y-101340000D01*
%TO.N,A2*%
X168902183Y-104800001D02*
X169492659Y-104209525D01*
X178030000Y-91180000D02*
X179715000Y-91180000D01*
X172550000Y-89650000D02*
X176500000Y-89650000D01*
X170800000Y-101886522D02*
X170800000Y-98197058D01*
X176500000Y-89650000D02*
X178030000Y-91180000D01*
X170350000Y-91850000D02*
X172550000Y-89650000D01*
X169492659Y-103193863D02*
X170800000Y-101886522D01*
X170350000Y-97747058D02*
X170350000Y-91850000D01*
X170800000Y-98197058D02*
X170350000Y-97747058D01*
X169492659Y-104209525D02*
X169492659Y-103193863D01*
%TO.N,INT*%
X164700000Y-95584314D02*
X161484314Y-98800000D01*
X161484314Y-98800000D02*
X156855000Y-98800000D01*
X164700000Y-95150000D02*
X164700000Y-95584314D01*
%TO.N,RST*%
X161850000Y-100131372D02*
X161850000Y-102900000D01*
X166313375Y-94702869D02*
X166316244Y-94700000D01*
X166650000Y-96650000D02*
X165331372Y-96650000D01*
X166900000Y-96400000D02*
X166650000Y-96650000D01*
X166900000Y-94950000D02*
X166900000Y-96400000D01*
X166316244Y-94700000D02*
X166650000Y-94700000D01*
X173550000Y-106000000D02*
X175300000Y-104250000D01*
X175300000Y-99950000D02*
X176450000Y-98800000D01*
X166650000Y-94700000D02*
X166900000Y-94950000D01*
X175300000Y-104250000D02*
X175300000Y-99950000D01*
X164950000Y-106000000D02*
X173550000Y-106000000D01*
X161850000Y-102900000D02*
X164950000Y-106000000D01*
X165331372Y-96650000D02*
X161850000Y-100131372D01*
X176450000Y-98800000D02*
X179715000Y-98800000D01*
%TO.N,A3*%
X166015686Y-103200000D02*
X165450000Y-102634314D01*
X165450000Y-102634314D02*
X165450000Y-98794116D01*
X167800000Y-103850000D02*
X167150000Y-103200000D01*
X165450000Y-98794116D02*
X165994116Y-98250000D01*
X168200000Y-93387257D02*
X168200000Y-90865686D01*
X167312744Y-98250000D02*
X168500000Y-97062744D01*
X168500000Y-93687257D02*
X168200000Y-93387257D01*
X168200000Y-90865686D02*
X170425686Y-88640000D01*
X167393503Y-104800001D02*
X167800000Y-104393504D01*
X165994116Y-98250000D02*
X167312744Y-98250000D01*
X168500000Y-97062744D02*
X168500000Y-93687257D01*
X167150000Y-103200000D02*
X166015686Y-103200000D01*
X167800000Y-104393504D02*
X167800000Y-103850000D01*
X170425686Y-88640000D02*
X179715000Y-88640000D01*
%TO.N,A1*%
X177300000Y-92234314D02*
X177300000Y-93279314D01*
X172715686Y-90050000D02*
X175115686Y-90050000D01*
X170250001Y-104750001D02*
X169892659Y-104392659D01*
X169892659Y-104392659D02*
X169892659Y-103359548D01*
X170750000Y-97581372D02*
X170750000Y-92015686D01*
X175115686Y-90050000D02*
X177300000Y-92234314D01*
X177740686Y-93720000D02*
X179715000Y-93720000D01*
X169892659Y-103359548D02*
X171200000Y-102052207D01*
X177300000Y-93279314D02*
X177740686Y-93720000D01*
X171200000Y-98031372D02*
X170750000Y-97581372D01*
X170900000Y-104750001D02*
X170250001Y-104750001D01*
X170750000Y-92015686D02*
X172715686Y-90050000D01*
X171200000Y-102052207D02*
X171200000Y-98031372D01*
%TO.N,UART0_RX*%
X160420000Y-103880000D02*
X156855000Y-103880000D01*
X161450000Y-102850000D02*
X160420000Y-103880000D01*
X161450000Y-99965686D02*
X161450000Y-102850000D01*
X165315686Y-96100000D02*
X161450000Y-99965686D01*
X166250000Y-96100000D02*
X165315686Y-96100000D01*
%TO.N,TIMG0_C1*%
X163206446Y-96100000D02*
X162730000Y-95623554D01*
X162730000Y-95623554D02*
X162730000Y-92980000D01*
X160930000Y-91180000D02*
X156855000Y-91180000D01*
X162730000Y-92980000D02*
X160930000Y-91180000D01*
%TO.N,CLK_OUT*%
X165662744Y-97450000D02*
X166981372Y-97450000D01*
X167700000Y-94018629D02*
X159781371Y-86100000D01*
X159781371Y-86100000D02*
X156855000Y-86100000D01*
X167700000Y-96731372D02*
X167700000Y-94018629D01*
X164500000Y-98612744D02*
X165662744Y-97450000D01*
X164500000Y-99565000D02*
X164500000Y-98612744D01*
X166981372Y-97450000D02*
X167700000Y-96731372D01*
%TO.N,TIMG4_C0*%
X167300000Y-94184315D02*
X161755685Y-88640000D01*
X162708580Y-103142894D02*
X162250000Y-102684314D01*
X162250000Y-102684314D02*
X162250000Y-100297058D01*
X161755685Y-88640000D02*
X156855000Y-88640000D01*
X167300000Y-96565686D02*
X167300000Y-94184315D01*
X166815686Y-97050000D02*
X167300000Y-96565686D01*
X165497058Y-97050000D02*
X166815686Y-97050000D01*
X163550000Y-103142894D02*
X162708580Y-103142894D01*
X162250000Y-100297058D02*
X165497058Y-97050000D01*
%TO.N,TIMG2_C0*%
X168100000Y-96897058D02*
X168100000Y-93852943D01*
X167800000Y-90700000D02*
X170260000Y-88240000D01*
X170260000Y-88240000D02*
X175960000Y-88240000D01*
X165050000Y-102800000D02*
X165050000Y-98628430D01*
X165600000Y-103350000D02*
X165050000Y-102800000D01*
X167147058Y-97850000D02*
X168100000Y-96897058D01*
X167800000Y-93552943D02*
X167800000Y-90700000D01*
X165050000Y-98628430D02*
X165828430Y-97850000D01*
X168100000Y-93852943D02*
X167800000Y-93552943D01*
X175960000Y-88240000D02*
X178100000Y-86100000D01*
X165828430Y-97850000D02*
X167147058Y-97850000D01*
X165600000Y-104950000D02*
X165600000Y-103350000D01*
X178100000Y-86100000D02*
X179715000Y-86100000D01*
%TD*%
%TA.AperFunction,Conductor*%
%TO.N,GND*%
G36*
X176202053Y-99653451D02*
G01*
X176258889Y-99695998D01*
X176272635Y-99719165D01*
X176321224Y-99825561D01*
X176323171Y-99828590D01*
X176324185Y-99832043D01*
X176324967Y-99833756D01*
X176324720Y-99833868D01*
X176343172Y-99896711D01*
X176323169Y-99964832D01*
X176312397Y-99979221D01*
X176221223Y-100084441D01*
X176160958Y-100216403D01*
X176143445Y-100338208D01*
X176140312Y-100360000D01*
X176160958Y-100503596D01*
X176221223Y-100635558D01*
X176264724Y-100685761D01*
X176294217Y-100750340D01*
X176295500Y-100768273D01*
X176295500Y-107446674D01*
X176319659Y-107536833D01*
X176366326Y-107617664D01*
X176366334Y-107617674D01*
X177926329Y-109177668D01*
X177992332Y-109243671D01*
X178073168Y-109290341D01*
X178163329Y-109314500D01*
X178576366Y-109314500D01*
X178644487Y-109334502D01*
X178687488Y-109381104D01*
X178745499Y-109489636D01*
X178765722Y-109527469D01*
X178892748Y-109682252D01*
X179047531Y-109809278D01*
X179224120Y-109903667D01*
X179415731Y-109961792D01*
X179415735Y-109961792D01*
X179415737Y-109961793D01*
X179614997Y-109981418D01*
X179615000Y-109981418D01*
X179615003Y-109981418D01*
X179814261Y-109961793D01*
X179814263Y-109961793D01*
X179814264Y-109961792D01*
X179814269Y-109961792D01*
X180005880Y-109903667D01*
X180182469Y-109809278D01*
X180278569Y-109730410D01*
X180343914Y-109702659D01*
X180413892Y-109714641D01*
X180466284Y-109762554D01*
X180484500Y-109827812D01*
X180484500Y-110495040D01*
X180464498Y-110563161D01*
X180410842Y-110609654D01*
X180340568Y-110619758D01*
X180299104Y-110606162D01*
X180205883Y-110556334D01*
X180205877Y-110556332D01*
X180014262Y-110498206D01*
X179815003Y-110478582D01*
X179814997Y-110478582D01*
X179615738Y-110498206D01*
X179615736Y-110498206D01*
X179424122Y-110556332D01*
X179424116Y-110556334D01*
X179247533Y-110650720D01*
X179092748Y-110777748D01*
X178965719Y-110932534D01*
X178965718Y-110932536D01*
X178947630Y-110966377D01*
X178897878Y-111017025D01*
X178828641Y-111032734D01*
X178761902Y-111008517D01*
X178747414Y-110996075D01*
X176667674Y-108916334D01*
X176667664Y-108916326D01*
X176586833Y-108869659D01*
X176496674Y-108845500D01*
X176496671Y-108845500D01*
X168749029Y-108845500D01*
X168680908Y-108825498D01*
X168659934Y-108808595D01*
X167094942Y-107243603D01*
X167060916Y-107181291D01*
X167059322Y-107172460D01*
X167039042Y-107031404D01*
X166978777Y-106899442D01*
X166883775Y-106789804D01*
X166883774Y-106789803D01*
X166822368Y-106750340D01*
X166761732Y-106711371D01*
X166761731Y-106711370D01*
X166761730Y-106711370D01*
X166622536Y-106670500D01*
X166477464Y-106670500D01*
X166338269Y-106711370D01*
X166338266Y-106711372D01*
X166208644Y-106794676D01*
X166207924Y-106793557D01*
X166151735Y-106819218D01*
X166133804Y-106820500D01*
X162816196Y-106820500D01*
X162748075Y-106800498D01*
X162733877Y-106789869D01*
X162659729Y-106742217D01*
X162611732Y-106711371D01*
X162611731Y-106711370D01*
X162611730Y-106711370D01*
X162472536Y-106670500D01*
X162327464Y-106670500D01*
X162188269Y-106711370D01*
X162188266Y-106711372D01*
X162066225Y-106789803D01*
X161971223Y-106899441D01*
X161931024Y-106987466D01*
X161910958Y-107031404D01*
X161890312Y-107175000D01*
X161910958Y-107318596D01*
X161971223Y-107450558D01*
X162066225Y-107560196D01*
X162188268Y-107638629D01*
X162327464Y-107679500D01*
X162472536Y-107679500D01*
X162611732Y-107638629D01*
X162733775Y-107560196D01*
X162733775Y-107560195D01*
X162741356Y-107555324D01*
X162742075Y-107556442D01*
X162798265Y-107530782D01*
X162816196Y-107529500D01*
X166133804Y-107529500D01*
X166201925Y-107549502D01*
X166216122Y-107560130D01*
X166216225Y-107560196D01*
X166338268Y-107638629D01*
X166477464Y-107679500D01*
X166477465Y-107679500D01*
X166486385Y-107680783D01*
X166486140Y-107682485D01*
X166544092Y-107699502D01*
X166565066Y-107716405D01*
X168266329Y-109417668D01*
X168332332Y-109483671D01*
X168332333Y-109483672D01*
X168332335Y-109483673D01*
X168408188Y-109527466D01*
X168413168Y-109530341D01*
X168503329Y-109554500D01*
X176250971Y-109554500D01*
X176319092Y-109574502D01*
X176340066Y-109591405D01*
X178466329Y-111717668D01*
X178532332Y-111783671D01*
X178613168Y-111830341D01*
X178703329Y-111854500D01*
X178776366Y-111854500D01*
X178844487Y-111874502D01*
X178887488Y-111921104D01*
X178916295Y-111974999D01*
X178965722Y-112067469D01*
X179092748Y-112222252D01*
X179247531Y-112349278D01*
X179424120Y-112443667D01*
X179615731Y-112501792D01*
X179615735Y-112501792D01*
X179615737Y-112501793D01*
X179814997Y-112521418D01*
X179815000Y-112521418D01*
X179815003Y-112521418D01*
X180014261Y-112501793D01*
X180014263Y-112501793D01*
X180014264Y-112501792D01*
X180014269Y-112501792D01*
X180205880Y-112443667D01*
X180299106Y-112393836D01*
X180368609Y-112379365D01*
X180434906Y-112404768D01*
X180476944Y-112461981D01*
X180484500Y-112504959D01*
X180484500Y-113172833D01*
X180465750Y-113236688D01*
X180484179Y-113286096D01*
X180484500Y-113295085D01*
X180484500Y-113297913D01*
X180464498Y-113366034D01*
X180447596Y-113387008D01*
X180006136Y-113828467D01*
X179970689Y-113767070D01*
X179887930Y-113684311D01*
X179826531Y-113648862D01*
X180238249Y-113237144D01*
X180182191Y-113191139D01*
X180005688Y-113096797D01*
X179814163Y-113038699D01*
X179814164Y-113038699D01*
X179615003Y-113019084D01*
X179614997Y-113019084D01*
X179415836Y-113038699D01*
X179224311Y-113096797D01*
X179047809Y-113191138D01*
X179047807Y-113191140D01*
X178991749Y-113237145D01*
X179403467Y-113648863D01*
X179342070Y-113684311D01*
X179259311Y-113767070D01*
X179223863Y-113828467D01*
X178812145Y-113416749D01*
X178766140Y-113472807D01*
X178766138Y-113472809D01*
X178671797Y-113649311D01*
X178613699Y-113840836D01*
X178594084Y-114039996D01*
X178594084Y-114040003D01*
X178613699Y-114239163D01*
X178671797Y-114430688D01*
X178766139Y-114607191D01*
X178812144Y-114663248D01*
X179223862Y-114251530D01*
X179259311Y-114312930D01*
X179342070Y-114395689D01*
X179403467Y-114431136D01*
X178991749Y-114842854D01*
X179047808Y-114888860D01*
X179224311Y-114983202D01*
X179415836Y-115041300D01*
X179415835Y-115041300D01*
X179614997Y-115060916D01*
X179615003Y-115060916D01*
X179814163Y-115041300D01*
X180005688Y-114983202D01*
X180182185Y-114888863D01*
X180182195Y-114888856D01*
X180238249Y-114842853D01*
X179826532Y-114431136D01*
X179887930Y-114395689D01*
X179970689Y-114312930D01*
X180006136Y-114251532D01*
X180447595Y-114692991D01*
X180481621Y-114755303D01*
X180484500Y-114782086D01*
X180484500Y-114784914D01*
X180467005Y-114844493D01*
X180484500Y-114907164D01*
X180484500Y-117287000D01*
X180464498Y-117355121D01*
X180410842Y-117401614D01*
X180358500Y-117413000D01*
X177956039Y-117413000D01*
X177887918Y-117392998D01*
X177841425Y-117339342D01*
X177831321Y-117269068D01*
X177860815Y-117204488D01*
X177876106Y-117189600D01*
X177897245Y-117172252D01*
X178024271Y-117017469D01*
X178118660Y-116840880D01*
X178176785Y-116649269D01*
X178189228Y-116522930D01*
X178196411Y-116450003D01*
X178196411Y-116449996D01*
X178176786Y-116250738D01*
X178176786Y-116250736D01*
X178176785Y-116250733D01*
X178176785Y-116250731D01*
X178118660Y-116059120D01*
X178024271Y-115882531D01*
X177897245Y-115727748D01*
X177742462Y-115600722D01*
X177742460Y-115600721D01*
X177742459Y-115600720D01*
X177565876Y-115506334D01*
X177565870Y-115506332D01*
X177374255Y-115448206D01*
X177174996Y-115428582D01*
X177174990Y-115428582D01*
X176975731Y-115448206D01*
X176975729Y-115448206D01*
X176784115Y-115506332D01*
X176784109Y-115506334D01*
X176607526Y-115600720D01*
X176452741Y-115727748D01*
X176325713Y-115882533D01*
X176231327Y-116059116D01*
X176231325Y-116059122D01*
X176173199Y-116250736D01*
X176173199Y-116250738D01*
X176153575Y-116449996D01*
X176153575Y-116450003D01*
X176173199Y-116649261D01*
X176173199Y-116649263D01*
X176231325Y-116840877D01*
X176231327Y-116840883D01*
X176325713Y-117017466D01*
X176325715Y-117017469D01*
X176452741Y-117172252D01*
X176473880Y-117189600D01*
X176513849Y-117248277D01*
X176515750Y-117319248D01*
X176478980Y-117379981D01*
X176415212Y-117411193D01*
X176393947Y-117413000D01*
X175118550Y-117413000D01*
X175050429Y-117392998D01*
X175003936Y-117339342D01*
X174993832Y-117269068D01*
X175023326Y-117204488D01*
X175059154Y-117175878D01*
X175132237Y-117136814D01*
X175202462Y-117099278D01*
X175357245Y-116972252D01*
X175484271Y-116817469D01*
X175578660Y-116640880D01*
X175636785Y-116449269D01*
X175636786Y-116449261D01*
X175656411Y-116250003D01*
X175656411Y-116249996D01*
X175636786Y-116050738D01*
X175636786Y-116050736D01*
X175636785Y-116050733D01*
X175636785Y-116050731D01*
X175578660Y-115859120D01*
X175549999Y-115805500D01*
X175484419Y-115682808D01*
X175484271Y-115682531D01*
X175445616Y-115635430D01*
X175417865Y-115570086D01*
X175429847Y-115500108D01*
X175477760Y-115447716D01*
X175543018Y-115429500D01*
X175721671Y-115429500D01*
X175811832Y-115405341D01*
X175892668Y-115358671D01*
X176633671Y-114617668D01*
X176680341Y-114536832D01*
X176704500Y-114446671D01*
X176704500Y-114353329D01*
X176704500Y-112813329D01*
X176680341Y-112723168D01*
X176633671Y-112642332D01*
X176567668Y-112576329D01*
X175682668Y-111691329D01*
X175682666Y-111691328D01*
X175682664Y-111691326D01*
X175601833Y-111644659D01*
X175511674Y-111620500D01*
X175511671Y-111620500D01*
X170913639Y-111620500D01*
X170845518Y-111600498D01*
X170824544Y-111583595D01*
X170820475Y-111579526D01*
X170704649Y-111490649D01*
X170704641Y-111490644D01*
X170569752Y-111434771D01*
X170425000Y-111415715D01*
X170280247Y-111434771D01*
X170212802Y-111462708D01*
X170145358Y-111490645D01*
X170145357Y-111490646D01*
X170145356Y-111490646D01*
X170029526Y-111579526D01*
X169940646Y-111695356D01*
X169940645Y-111695358D01*
X169931404Y-111717668D01*
X169884771Y-111830247D01*
X169865715Y-111974999D01*
X169865715Y-111975000D01*
X169884771Y-112119752D01*
X169940644Y-112254641D01*
X169940649Y-112254649D01*
X170029525Y-112370474D01*
X170124912Y-112443667D01*
X170145357Y-112459355D01*
X170280246Y-112515228D01*
X170425000Y-112534285D01*
X170569754Y-112515228D01*
X170704643Y-112459355D01*
X170820474Y-112370474D01*
X170820475Y-112370473D01*
X170824544Y-112366405D01*
X170886856Y-112332379D01*
X170913639Y-112329500D01*
X175265971Y-112329500D01*
X175334092Y-112349502D01*
X175355066Y-112366405D01*
X175958595Y-112969934D01*
X175992621Y-113032246D01*
X175995500Y-113059029D01*
X175995500Y-114200971D01*
X175975498Y-114269092D01*
X175958595Y-114290066D01*
X175565066Y-114683595D01*
X175502754Y-114717621D01*
X175475971Y-114720500D01*
X175178325Y-114720500D01*
X175088166Y-114744659D01*
X175007335Y-114791326D01*
X175007329Y-114791331D01*
X174594864Y-115203795D01*
X174532552Y-115237820D01*
X174518121Y-115240092D01*
X174467360Y-115245091D01*
X174435724Y-115248208D01*
X174352290Y-115273517D01*
X174244115Y-115306332D01*
X174244109Y-115306334D01*
X174067526Y-115400720D01*
X173912741Y-115527748D01*
X173785713Y-115682533D01*
X173691327Y-115859116D01*
X173691325Y-115859122D01*
X173633199Y-116050736D01*
X173633199Y-116050738D01*
X173613575Y-116249996D01*
X173613575Y-116250003D01*
X173633199Y-116449261D01*
X173633199Y-116449263D01*
X173691325Y-116640877D01*
X173691327Y-116640883D01*
X173785563Y-116817185D01*
X173785715Y-116817469D01*
X173912741Y-116972252D01*
X174067524Y-117099278D01*
X174067526Y-117099279D01*
X174210832Y-117175878D01*
X174261480Y-117225630D01*
X174277190Y-117294867D01*
X174252974Y-117361606D01*
X174196520Y-117404658D01*
X174151436Y-117413000D01*
X172578550Y-117413000D01*
X172510429Y-117392998D01*
X172463936Y-117339342D01*
X172453832Y-117269068D01*
X172483326Y-117204488D01*
X172519154Y-117175878D01*
X172592237Y-117136814D01*
X172662462Y-117099278D01*
X172817245Y-116972252D01*
X172944271Y-116817469D01*
X173038660Y-116640880D01*
X173096785Y-116449269D01*
X173096786Y-116449261D01*
X173116411Y-116250003D01*
X173116411Y-116249996D01*
X173096786Y-116050738D01*
X173096786Y-116050736D01*
X173096785Y-116050733D01*
X173096785Y-116050731D01*
X173038660Y-115859120D01*
X173009999Y-115805500D01*
X172944419Y-115682808D01*
X172944271Y-115682531D01*
X172817245Y-115527748D01*
X172662462Y-115400722D01*
X172662460Y-115400721D01*
X172662459Y-115400720D01*
X172485876Y-115306334D01*
X172485861Y-115306328D01*
X172468540Y-115301074D01*
X172409159Y-115262159D01*
X172380243Y-115197318D01*
X172390974Y-115127137D01*
X172437944Y-115073898D01*
X172505116Y-115054500D01*
X173136361Y-115054500D01*
X173204482Y-115074502D01*
X173225456Y-115091405D01*
X173229524Y-115095473D01*
X173345350Y-115184350D01*
X173345357Y-115184355D01*
X173480246Y-115240228D01*
X173625000Y-115259285D01*
X173769754Y-115240228D01*
X173904643Y-115184355D01*
X174020474Y-115095474D01*
X174109355Y-114979643D01*
X174165228Y-114844754D01*
X174184285Y-114700000D01*
X174183143Y-114691329D01*
X174165228Y-114555247D01*
X174165228Y-114555246D01*
X174109355Y-114420358D01*
X174020474Y-114304526D01*
X174020472Y-114304524D01*
X174020471Y-114304523D01*
X173904649Y-114215649D01*
X173904641Y-114215644D01*
X173769752Y-114159771D01*
X173625000Y-114140715D01*
X173480247Y-114159771D01*
X173412802Y-114187708D01*
X173345358Y-114215645D01*
X173345357Y-114215646D01*
X173345356Y-114215646D01*
X173229519Y-114304531D01*
X173225456Y-114308595D01*
X173163144Y-114342621D01*
X173136361Y-114345500D01*
X169953325Y-114345500D01*
X169863166Y-114369659D01*
X169782335Y-114416326D01*
X169782329Y-114416331D01*
X169661829Y-114536832D01*
X169337332Y-114861329D01*
X169309805Y-114888856D01*
X169271330Y-114927330D01*
X169271326Y-114927335D01*
X169224659Y-115008166D01*
X169200500Y-115098325D01*
X169200500Y-115411362D01*
X169180498Y-115479483D01*
X169133896Y-115522484D01*
X168987526Y-115600720D01*
X168832741Y-115727748D01*
X168705713Y-115882533D01*
X168611327Y-116059116D01*
X168611325Y-116059122D01*
X168553199Y-116250736D01*
X168553199Y-116250738D01*
X168533575Y-116449996D01*
X168533575Y-116450003D01*
X168553199Y-116649261D01*
X168553199Y-116649263D01*
X168611325Y-116840877D01*
X168611327Y-116840883D01*
X168705713Y-117017466D01*
X168705715Y-117017469D01*
X168832741Y-117172252D01*
X168853880Y-117189600D01*
X168893849Y-117248277D01*
X168895750Y-117319248D01*
X168858980Y-117379981D01*
X168795212Y-117411193D01*
X168773947Y-117413000D01*
X167497490Y-117413000D01*
X167429369Y-117392998D01*
X167382876Y-117339342D01*
X167372772Y-117269068D01*
X167402266Y-117204488D01*
X167438094Y-117175878D01*
X167582178Y-117098863D01*
X167582189Y-117098856D01*
X167638242Y-117052854D01*
X167638242Y-117052853D01*
X167226525Y-116641136D01*
X167287923Y-116605689D01*
X167370682Y-116522930D01*
X167406129Y-116461532D01*
X167817846Y-116873249D01*
X167817847Y-116873249D01*
X167863849Y-116817196D01*
X167863856Y-116817185D01*
X167958195Y-116640688D01*
X168016293Y-116449163D01*
X168035909Y-116250003D01*
X168035909Y-116249996D01*
X168016293Y-116050836D01*
X167958195Y-115859311D01*
X167863853Y-115682808D01*
X167817846Y-115626749D01*
X167406129Y-116038467D01*
X167370682Y-115977070D01*
X167287923Y-115894311D01*
X167226524Y-115858862D01*
X167638242Y-115447144D01*
X167582184Y-115401139D01*
X167405681Y-115306797D01*
X167214156Y-115248699D01*
X167214157Y-115248699D01*
X167014996Y-115229084D01*
X167014990Y-115229084D01*
X166815829Y-115248699D01*
X166624304Y-115306797D01*
X166447802Y-115401138D01*
X166447800Y-115401140D01*
X166391742Y-115447145D01*
X166803460Y-115858863D01*
X166742063Y-115894311D01*
X166659304Y-115977070D01*
X166623856Y-116038467D01*
X166212138Y-115626749D01*
X166166133Y-115682807D01*
X166166131Y-115682809D01*
X166071790Y-115859311D01*
X166013692Y-116050836D01*
X165994077Y-116249996D01*
X165994077Y-116250003D01*
X166013692Y-116449163D01*
X166071790Y-116640688D01*
X166166132Y-116817191D01*
X166212137Y-116873248D01*
X166623855Y-116461530D01*
X166659304Y-116522930D01*
X166742063Y-116605689D01*
X166803460Y-116641136D01*
X166391742Y-117052854D01*
X166447801Y-117098860D01*
X166591892Y-117175878D01*
X166642540Y-117225630D01*
X166658250Y-117294866D01*
X166634034Y-117361605D01*
X166577581Y-117404658D01*
X166532496Y-117413000D01*
X165256039Y-117413000D01*
X165187918Y-117392998D01*
X165141425Y-117339342D01*
X165131321Y-117269068D01*
X165160815Y-117204488D01*
X165176106Y-117189600D01*
X165197245Y-117172252D01*
X165324271Y-117017469D01*
X165418660Y-116840880D01*
X165476785Y-116649269D01*
X165489228Y-116522930D01*
X165496411Y-116450003D01*
X165496411Y-116449996D01*
X165476786Y-116250738D01*
X165476786Y-116250736D01*
X165476785Y-116250733D01*
X165476785Y-116250731D01*
X165418660Y-116059120D01*
X165324271Y-115882531D01*
X165197245Y-115727748D01*
X165042462Y-115600722D01*
X164905938Y-115527748D01*
X164896103Y-115522491D01*
X164845455Y-115472738D01*
X164829500Y-115411369D01*
X164829500Y-115174029D01*
X164849502Y-115105908D01*
X164866405Y-115084934D01*
X166184934Y-113766405D01*
X166247246Y-113732379D01*
X166274029Y-113729500D01*
X172736361Y-113729500D01*
X172804482Y-113749502D01*
X172825456Y-113766405D01*
X172829524Y-113770473D01*
X172945350Y-113859350D01*
X172945357Y-113859355D01*
X173080246Y-113915228D01*
X173225000Y-113934285D01*
X173369754Y-113915228D01*
X173504643Y-113859355D01*
X173620474Y-113770474D01*
X173709355Y-113654643D01*
X173765228Y-113519754D01*
X173784285Y-113375000D01*
X173765228Y-113230246D01*
X173709355Y-113095358D01*
X173620474Y-112979526D01*
X173620472Y-112979524D01*
X173620471Y-112979523D01*
X173504649Y-112890649D01*
X173504641Y-112890644D01*
X173369752Y-112834771D01*
X173225000Y-112815715D01*
X173080247Y-112834771D01*
X173012802Y-112862708D01*
X172945358Y-112890645D01*
X172945357Y-112890646D01*
X172945356Y-112890646D01*
X172829519Y-112979531D01*
X172825456Y-112983595D01*
X172763144Y-113017621D01*
X172736361Y-113020500D01*
X166028325Y-113020500D01*
X165938168Y-113044658D01*
X165938165Y-113044659D01*
X165880995Y-113077667D01*
X165880994Y-113077666D01*
X165857337Y-113091325D01*
X165857324Y-113091335D01*
X164644138Y-114304523D01*
X164257332Y-114691329D01*
X164234697Y-114713964D01*
X164191330Y-114757330D01*
X164191326Y-114757335D01*
X164144659Y-114838166D01*
X164120500Y-114928325D01*
X164120500Y-115411362D01*
X164100498Y-115479483D01*
X164053896Y-115522484D01*
X163907526Y-115600720D01*
X163752741Y-115727748D01*
X163625713Y-115882533D01*
X163531327Y-116059116D01*
X163531325Y-116059122D01*
X163473199Y-116250736D01*
X163473199Y-116250738D01*
X163453575Y-116449996D01*
X163453575Y-116450003D01*
X163473199Y-116649261D01*
X163473199Y-116649263D01*
X163531325Y-116840877D01*
X163531327Y-116840883D01*
X163625713Y-117017466D01*
X163625715Y-117017469D01*
X163752741Y-117172252D01*
X163773880Y-117189600D01*
X163813849Y-117248277D01*
X163815750Y-117319248D01*
X163778980Y-117379981D01*
X163715212Y-117411193D01*
X163693947Y-117413000D01*
X162418550Y-117413000D01*
X162350429Y-117392998D01*
X162303936Y-117339342D01*
X162293832Y-117269068D01*
X162323326Y-117204488D01*
X162359154Y-117175878D01*
X162432237Y-117136814D01*
X162502462Y-117099278D01*
X162657245Y-116972252D01*
X162784271Y-116817469D01*
X162878660Y-116640880D01*
X162936785Y-116449269D01*
X162936786Y-116449261D01*
X162956411Y-116250003D01*
X162956411Y-116249996D01*
X162936786Y-116050738D01*
X162936786Y-116050736D01*
X162936785Y-116050733D01*
X162936785Y-116050731D01*
X162878660Y-115859120D01*
X162849999Y-115805500D01*
X162784419Y-115682808D01*
X162784271Y-115682531D01*
X162657245Y-115527748D01*
X162502462Y-115400722D01*
X162502460Y-115400721D01*
X162502459Y-115400720D01*
X162325876Y-115306334D01*
X162325870Y-115306332D01*
X162180252Y-115262159D01*
X162134262Y-115248208D01*
X162134261Y-115248207D01*
X162134255Y-115248206D01*
X161934996Y-115228582D01*
X161934990Y-115228582D01*
X161735731Y-115248206D01*
X161735729Y-115248206D01*
X161544115Y-115306332D01*
X161544109Y-115306334D01*
X161367526Y-115400720D01*
X161212741Y-115527748D01*
X161085713Y-115682533D01*
X160991327Y-115859116D01*
X160991325Y-115859122D01*
X160933199Y-116050736D01*
X160933199Y-116050738D01*
X160913575Y-116249996D01*
X160913575Y-116250003D01*
X160933199Y-116449261D01*
X160933199Y-116449263D01*
X160991325Y-116640877D01*
X160991327Y-116640883D01*
X161085563Y-116817185D01*
X161085715Y-116817469D01*
X161212741Y-116972252D01*
X161367524Y-117099278D01*
X161367526Y-117099279D01*
X161510832Y-117175878D01*
X161561480Y-117225630D01*
X161577190Y-117294867D01*
X161552974Y-117361606D01*
X161496520Y-117404658D01*
X161451436Y-117413000D01*
X160176039Y-117413000D01*
X160107918Y-117392998D01*
X160061425Y-117339342D01*
X160051321Y-117269068D01*
X160080815Y-117204488D01*
X160096106Y-117189600D01*
X160117245Y-117172252D01*
X160244271Y-117017469D01*
X160338660Y-116840880D01*
X160396785Y-116649269D01*
X160409228Y-116522930D01*
X160416411Y-116450003D01*
X160416411Y-116449996D01*
X160396786Y-116250738D01*
X160396786Y-116250736D01*
X160396785Y-116250733D01*
X160396785Y-116250731D01*
X160338660Y-116059120D01*
X160244271Y-115882531D01*
X160117245Y-115727748D01*
X159962462Y-115600722D01*
X159962460Y-115600721D01*
X159962459Y-115600720D01*
X159785876Y-115506334D01*
X159785870Y-115506332D01*
X159594255Y-115448206D01*
X159394996Y-115428582D01*
X159394990Y-115428582D01*
X159195731Y-115448206D01*
X159195729Y-115448206D01*
X159004115Y-115506332D01*
X159004109Y-115506334D01*
X158827526Y-115600720D01*
X158672741Y-115727748D01*
X158545713Y-115882533D01*
X158466147Y-116031391D01*
X158416395Y-116082039D01*
X158347158Y-116097749D01*
X158280419Y-116073533D01*
X158241515Y-116026689D01*
X158152226Y-115841381D01*
X158152223Y-115841377D01*
X158152220Y-115841371D01*
X158017077Y-115646397D01*
X158017069Y-115646387D01*
X157853085Y-115474950D01*
X157853078Y-115474944D01*
X157664290Y-115331269D01*
X157455346Y-115218894D01*
X157455345Y-115218893D01*
X157455344Y-115218893D01*
X157412164Y-115203795D01*
X157393451Y-115197252D01*
X157335750Y-115155887D01*
X157309572Y-115089892D01*
X157323229Y-115020222D01*
X157372385Y-114968995D01*
X157375644Y-114967190D01*
X157522189Y-114888861D01*
X157522196Y-114888856D01*
X157578249Y-114842854D01*
X157578249Y-114842853D01*
X157166532Y-114431136D01*
X157227930Y-114395689D01*
X157310689Y-114312930D01*
X157346136Y-114251532D01*
X157757853Y-114663249D01*
X157757854Y-114663249D01*
X157803856Y-114607196D01*
X157803863Y-114607185D01*
X157898202Y-114430688D01*
X157956300Y-114239163D01*
X157975916Y-114040003D01*
X157975916Y-114039996D01*
X157956300Y-113840836D01*
X157898202Y-113649311D01*
X157803860Y-113472808D01*
X157757853Y-113416749D01*
X157346136Y-113828467D01*
X157310689Y-113767070D01*
X157227930Y-113684311D01*
X157166531Y-113648862D01*
X157578249Y-113237144D01*
X157522191Y-113191139D01*
X157345688Y-113096797D01*
X157154163Y-113038699D01*
X157154164Y-113038699D01*
X156955003Y-113019084D01*
X156954997Y-113019084D01*
X156755836Y-113038699D01*
X156564311Y-113096797D01*
X156387809Y-113191138D01*
X156387807Y-113191140D01*
X156331749Y-113237145D01*
X156743467Y-113648863D01*
X156682070Y-113684311D01*
X156599311Y-113767070D01*
X156563863Y-113828467D01*
X156122405Y-113387009D01*
X156088379Y-113324697D01*
X156085500Y-113297914D01*
X156085500Y-113295086D01*
X156102994Y-113235504D01*
X156085500Y-113172831D01*
X156085500Y-112504959D01*
X156105502Y-112436838D01*
X156159158Y-112390345D01*
X156229432Y-112380241D01*
X156270891Y-112393835D01*
X156364120Y-112443667D01*
X156555731Y-112501792D01*
X156555735Y-112501792D01*
X156555737Y-112501793D01*
X156754997Y-112521418D01*
X156755000Y-112521418D01*
X156755003Y-112521418D01*
X156954261Y-112501793D01*
X156954263Y-112501793D01*
X156954264Y-112501792D01*
X156954269Y-112501792D01*
X157145880Y-112443667D01*
X157322469Y-112349278D01*
X157477252Y-112222252D01*
X157604278Y-112067469D01*
X157698667Y-111890880D01*
X157756792Y-111699269D01*
X157757177Y-111695358D01*
X157776418Y-111500003D01*
X157776418Y-111499996D01*
X157756793Y-111300738D01*
X157756793Y-111300736D01*
X157756792Y-111300733D01*
X157756792Y-111300731D01*
X157698667Y-111109120D01*
X157674351Y-111063629D01*
X157604279Y-110932533D01*
X157604278Y-110932531D01*
X157477252Y-110777748D01*
X157322469Y-110650722D01*
X157322467Y-110650721D01*
X157322466Y-110650720D01*
X157227576Y-110600000D01*
X170590312Y-110600000D01*
X170610958Y-110743596D01*
X170671223Y-110875558D01*
X170766225Y-110985196D01*
X170888268Y-111063629D01*
X171027464Y-111104500D01*
X171172536Y-111104500D01*
X171311732Y-111063629D01*
X171433775Y-110985196D01*
X171433775Y-110985195D01*
X171441356Y-110980324D01*
X171442075Y-110981442D01*
X171498265Y-110955782D01*
X171516196Y-110954500D01*
X175283804Y-110954500D01*
X175351925Y-110974502D01*
X175366122Y-110985130D01*
X175366225Y-110985196D01*
X175488268Y-111063629D01*
X175627464Y-111104500D01*
X175772536Y-111104500D01*
X175911732Y-111063629D01*
X176033775Y-110985196D01*
X176128777Y-110875558D01*
X176189042Y-110743596D01*
X176209688Y-110600000D01*
X176189042Y-110456404D01*
X176128777Y-110324442D01*
X176033775Y-110214804D01*
X176033774Y-110214803D01*
X175972753Y-110175587D01*
X175911732Y-110136371D01*
X175911731Y-110136370D01*
X175911730Y-110136370D01*
X175772536Y-110095500D01*
X175627464Y-110095500D01*
X175488269Y-110136370D01*
X175488266Y-110136372D01*
X175358644Y-110219676D01*
X175357924Y-110218557D01*
X175301735Y-110244218D01*
X175283804Y-110245500D01*
X171516196Y-110245500D01*
X171448075Y-110225498D01*
X171433877Y-110214869D01*
X171359729Y-110167217D01*
X171311732Y-110136371D01*
X171311731Y-110136370D01*
X171311730Y-110136370D01*
X171172536Y-110095500D01*
X171027464Y-110095500D01*
X170888269Y-110136370D01*
X170888266Y-110136372D01*
X170766225Y-110214803D01*
X170671223Y-110324441D01*
X170610958Y-110456403D01*
X170596590Y-110556333D01*
X170590312Y-110600000D01*
X157227576Y-110600000D01*
X157145883Y-110556334D01*
X157145877Y-110556332D01*
X156954262Y-110498206D01*
X156755003Y-110478582D01*
X156754997Y-110478582D01*
X156555738Y-110498206D01*
X156555736Y-110498206D01*
X156364122Y-110556332D01*
X156364116Y-110556334D01*
X156270896Y-110606162D01*
X156201390Y-110620634D01*
X156135094Y-110595230D01*
X156093056Y-110538017D01*
X156085500Y-110495040D01*
X156085500Y-109827812D01*
X156105502Y-109759691D01*
X156159158Y-109713198D01*
X156229432Y-109703094D01*
X156291430Y-109730410D01*
X156387531Y-109809278D01*
X156564120Y-109903667D01*
X156755731Y-109961792D01*
X156755735Y-109961792D01*
X156755737Y-109961793D01*
X156954997Y-109981418D01*
X156955000Y-109981418D01*
X156955003Y-109981418D01*
X157154261Y-109961793D01*
X157154263Y-109961793D01*
X157154264Y-109961792D01*
X157154269Y-109961792D01*
X157345880Y-109903667D01*
X157522469Y-109809278D01*
X157677252Y-109682252D01*
X157804278Y-109527469D01*
X157898667Y-109350880D01*
X157956792Y-109159269D01*
X157976418Y-108960000D01*
X157972117Y-108916334D01*
X157956793Y-108760738D01*
X157956793Y-108760736D01*
X157956792Y-108760733D01*
X157956792Y-108760731D01*
X157898667Y-108569120D01*
X157898386Y-108568595D01*
X157804279Y-108392533D01*
X157804278Y-108392531D01*
X157677252Y-108237748D01*
X157522469Y-108110722D01*
X157522467Y-108110721D01*
X157522466Y-108110720D01*
X157345883Y-108016334D01*
X157345877Y-108016332D01*
X157154262Y-107958206D01*
X156955003Y-107938582D01*
X156954997Y-107938582D01*
X156755738Y-107958206D01*
X156755736Y-107958206D01*
X156564122Y-108016332D01*
X156564116Y-108016334D01*
X156387533Y-108110720D01*
X156291433Y-108189587D01*
X156226085Y-108217340D01*
X156156107Y-108205358D01*
X156103716Y-108157445D01*
X156085500Y-108092187D01*
X156085500Y-107424959D01*
X156105502Y-107356838D01*
X156159158Y-107310345D01*
X156229432Y-107300241D01*
X156270891Y-107313835D01*
X156364120Y-107363667D01*
X156555731Y-107421792D01*
X156555735Y-107421792D01*
X156555737Y-107421793D01*
X156754997Y-107441418D01*
X156755000Y-107441418D01*
X156755003Y-107441418D01*
X156954261Y-107421793D01*
X156954263Y-107421793D01*
X156954264Y-107421792D01*
X156954269Y-107421792D01*
X157145880Y-107363667D01*
X157322469Y-107269278D01*
X157477252Y-107142252D01*
X157604278Y-106987469D01*
X157698667Y-106810880D01*
X157756792Y-106619269D01*
X157776418Y-106420000D01*
X157767587Y-106330341D01*
X157756793Y-106220738D01*
X157756793Y-106220736D01*
X157756792Y-106220733D01*
X157756792Y-106220731D01*
X157698667Y-106029120D01*
X157698386Y-106028595D01*
X157604279Y-105852533D01*
X157604278Y-105852531D01*
X157477252Y-105697748D01*
X157322469Y-105570722D01*
X157322467Y-105570721D01*
X157322466Y-105570720D01*
X157145883Y-105476334D01*
X157145877Y-105476332D01*
X156954262Y-105418206D01*
X156755003Y-105398582D01*
X156754997Y-105398582D01*
X156555738Y-105418206D01*
X156555736Y-105418206D01*
X156364122Y-105476332D01*
X156364116Y-105476334D01*
X156270896Y-105526162D01*
X156201390Y-105540634D01*
X156135094Y-105515230D01*
X156093056Y-105458017D01*
X156085500Y-105415040D01*
X156085500Y-104747812D01*
X156105502Y-104679691D01*
X156159158Y-104633198D01*
X156229432Y-104623094D01*
X156291430Y-104650410D01*
X156387531Y-104729278D01*
X156564120Y-104823667D01*
X156755731Y-104881792D01*
X156755735Y-104881792D01*
X156755737Y-104881793D01*
X156954997Y-104901418D01*
X156955000Y-104901418D01*
X156955003Y-104901418D01*
X157154261Y-104881793D01*
X157154263Y-104881793D01*
X157154264Y-104881792D01*
X157154269Y-104881792D01*
X157345880Y-104823667D01*
X157522469Y-104729278D01*
X157677252Y-104602252D01*
X157804278Y-104447469D01*
X157882512Y-104301104D01*
X157932264Y-104250456D01*
X157993634Y-104234500D01*
X160466671Y-104234500D01*
X160556832Y-104210341D01*
X160637668Y-104163671D01*
X161535906Y-103265432D01*
X161598217Y-103231409D01*
X161669032Y-103236473D01*
X161714095Y-103265434D01*
X164732325Y-106283665D01*
X164732330Y-106283669D01*
X164732332Y-106283671D01*
X164813168Y-106330341D01*
X164903329Y-106354500D01*
X173596671Y-106354500D01*
X173686832Y-106330341D01*
X173767668Y-106283671D01*
X175583671Y-104467668D01*
X175595333Y-104447469D01*
X175630341Y-104386832D01*
X175654500Y-104296671D01*
X175654500Y-100149029D01*
X175674502Y-100080908D01*
X175691400Y-100059938D01*
X176068927Y-99682410D01*
X176131238Y-99648387D01*
X176202053Y-99653451D01*
G37*
%TD.AperFunction*%
%TA.AperFunction,Conductor*%
G36*
X171752991Y-115074502D02*
G01*
X171799484Y-115128158D01*
X171809588Y-115198432D01*
X171780094Y-115263012D01*
X171721446Y-115301074D01*
X171704124Y-115306328D01*
X171704109Y-115306334D01*
X171527526Y-115400720D01*
X171372741Y-115527748D01*
X171245713Y-115682533D01*
X171151327Y-115859116D01*
X171151325Y-115859122D01*
X171093199Y-116050736D01*
X171093199Y-116050738D01*
X171073575Y-116249996D01*
X171073575Y-116250003D01*
X171093199Y-116449261D01*
X171093199Y-116449263D01*
X171151325Y-116640877D01*
X171151327Y-116640883D01*
X171245563Y-116817185D01*
X171245715Y-116817469D01*
X171372741Y-116972252D01*
X171527524Y-117099278D01*
X171527526Y-117099279D01*
X171670832Y-117175878D01*
X171721480Y-117225630D01*
X171737190Y-117294867D01*
X171712974Y-117361606D01*
X171656520Y-117404658D01*
X171611436Y-117413000D01*
X170336039Y-117413000D01*
X170267918Y-117392998D01*
X170221425Y-117339342D01*
X170211321Y-117269068D01*
X170240815Y-117204488D01*
X170256106Y-117189600D01*
X170277245Y-117172252D01*
X170404271Y-117017469D01*
X170498660Y-116840880D01*
X170556785Y-116649269D01*
X170569228Y-116522930D01*
X170576411Y-116450003D01*
X170576411Y-116449996D01*
X170556786Y-116250738D01*
X170556786Y-116250736D01*
X170556785Y-116250733D01*
X170556785Y-116250731D01*
X170498660Y-116059120D01*
X170404271Y-115882531D01*
X170277245Y-115727748D01*
X170122462Y-115600722D01*
X169985938Y-115527748D01*
X169976103Y-115522491D01*
X169925455Y-115472738D01*
X169909500Y-115411369D01*
X169909500Y-115344029D01*
X169929502Y-115275908D01*
X169946405Y-115254934D01*
X170109934Y-115091405D01*
X170172246Y-115057379D01*
X170199029Y-115054500D01*
X171684870Y-115054500D01*
X171752991Y-115074502D01*
G37*
%TD.AperFunction*%
%TA.AperFunction,Conductor*%
G36*
X156599311Y-114312930D02*
G01*
X156682070Y-114395689D01*
X156743467Y-114431136D01*
X156300595Y-114874009D01*
X156238283Y-114908034D01*
X156167467Y-114902969D01*
X156110632Y-114860422D01*
X156085821Y-114793902D01*
X156085500Y-114784913D01*
X156085500Y-114782085D01*
X156105502Y-114713964D01*
X156122405Y-114692989D01*
X156563862Y-114251531D01*
X156599311Y-114312930D01*
G37*
%TD.AperFunction*%
%TA.AperFunction,Conductor*%
G36*
X177213012Y-100892623D02*
G01*
X177219595Y-100898752D01*
X177358595Y-101037752D01*
X177392621Y-101100064D01*
X177395500Y-101126847D01*
X177395500Y-105796674D01*
X177419659Y-105886833D01*
X177466326Y-105967664D01*
X177466328Y-105967666D01*
X177466329Y-105967668D01*
X178136329Y-106637668D01*
X178202332Y-106703671D01*
X178202333Y-106703672D01*
X178202335Y-106703673D01*
X178283166Y-106750340D01*
X178283168Y-106750341D01*
X178373329Y-106774500D01*
X178776366Y-106774500D01*
X178844487Y-106794502D01*
X178887488Y-106841104D01*
X178965722Y-106987469D01*
X179092748Y-107142252D01*
X179247531Y-107269278D01*
X179424120Y-107363667D01*
X179615731Y-107421792D01*
X179615735Y-107421792D01*
X179615737Y-107421793D01*
X179814997Y-107441418D01*
X179815000Y-107441418D01*
X179815003Y-107441418D01*
X180014261Y-107421793D01*
X180014263Y-107421793D01*
X180014264Y-107421792D01*
X180014269Y-107421792D01*
X180205880Y-107363667D01*
X180299106Y-107313836D01*
X180368609Y-107299365D01*
X180434906Y-107324768D01*
X180476944Y-107381981D01*
X180484500Y-107424959D01*
X180484500Y-108092187D01*
X180464498Y-108160308D01*
X180410842Y-108206801D01*
X180340568Y-108216905D01*
X180278567Y-108189587D01*
X180242890Y-108160308D01*
X180182469Y-108110722D01*
X180182467Y-108110721D01*
X180182466Y-108110720D01*
X180005883Y-108016334D01*
X180005877Y-108016332D01*
X179814262Y-107958206D01*
X179615003Y-107938582D01*
X179614997Y-107938582D01*
X179415738Y-107958206D01*
X179415736Y-107958206D01*
X179224122Y-108016332D01*
X179224116Y-108016334D01*
X179047533Y-108110720D01*
X178892748Y-108237748D01*
X178765720Y-108392533D01*
X178687488Y-108538896D01*
X178637736Y-108589544D01*
X178576366Y-108605500D01*
X178409029Y-108605500D01*
X178340908Y-108585498D01*
X178319934Y-108568595D01*
X177041405Y-107290066D01*
X177007379Y-107227754D01*
X177004500Y-107200971D01*
X177004500Y-100987847D01*
X177024502Y-100919726D01*
X177078158Y-100873233D01*
X177148432Y-100863129D01*
X177213012Y-100892623D01*
G37*
%TD.AperFunction*%
%TA.AperFunction,Conductor*%
G36*
X178313012Y-103689805D02*
G01*
X178319595Y-103695934D01*
X178571526Y-103947865D01*
X178605552Y-104010177D01*
X178607824Y-104024608D01*
X178613208Y-104079269D01*
X178638812Y-104163673D01*
X178671332Y-104270877D01*
X178671334Y-104270883D01*
X178765720Y-104447466D01*
X178765722Y-104447469D01*
X178892748Y-104602252D01*
X179047531Y-104729278D01*
X179224120Y-104823667D01*
X179415731Y-104881792D01*
X179415735Y-104881792D01*
X179415737Y-104881793D01*
X179614997Y-104901418D01*
X179615000Y-104901418D01*
X179615003Y-104901418D01*
X179814261Y-104881793D01*
X179814263Y-104881793D01*
X179814264Y-104881792D01*
X179814269Y-104881792D01*
X180005880Y-104823667D01*
X180182469Y-104729278D01*
X180278569Y-104650410D01*
X180343914Y-104622659D01*
X180413892Y-104634641D01*
X180466284Y-104682554D01*
X180484500Y-104747812D01*
X180484500Y-105415040D01*
X180464498Y-105483161D01*
X180410842Y-105529654D01*
X180340568Y-105539758D01*
X180299104Y-105526162D01*
X180205883Y-105476334D01*
X180205877Y-105476332D01*
X180014262Y-105418206D01*
X179815003Y-105398582D01*
X179814997Y-105398582D01*
X179615738Y-105418206D01*
X179615736Y-105418206D01*
X179424122Y-105476332D01*
X179424116Y-105476334D01*
X179247533Y-105570720D01*
X179092748Y-105697748D01*
X178965720Y-105852533D01*
X178887488Y-105998896D01*
X178837736Y-106049544D01*
X178776366Y-106065500D01*
X178619029Y-106065500D01*
X178550908Y-106045498D01*
X178529934Y-106028595D01*
X178141405Y-105640066D01*
X178107379Y-105577754D01*
X178104500Y-105550971D01*
X178104500Y-103785029D01*
X178124502Y-103716908D01*
X178178158Y-103670415D01*
X178248432Y-103660311D01*
X178313012Y-103689805D01*
G37*
%TD.AperFunction*%
%TA.AperFunction,Conductor*%
G36*
X163973007Y-99179554D02*
G01*
X164029843Y-99222101D01*
X164054654Y-99288621D01*
X164043589Y-99349952D01*
X164010958Y-99421403D01*
X164010132Y-99427150D01*
X163990312Y-99565000D01*
X164010958Y-99708596D01*
X164071223Y-99840558D01*
X164166225Y-99950196D01*
X164288268Y-100028629D01*
X164427464Y-100069500D01*
X164569500Y-100069500D01*
X164637621Y-100089502D01*
X164684114Y-100143158D01*
X164695500Y-100195500D01*
X164695500Y-102846674D01*
X164719659Y-102936833D01*
X164766326Y-103017664D01*
X164766331Y-103017670D01*
X165208595Y-103459933D01*
X165242620Y-103522246D01*
X165245500Y-103549029D01*
X165245500Y-104541725D01*
X165225498Y-104609846D01*
X165214725Y-104624237D01*
X165171224Y-104674440D01*
X165110958Y-104806403D01*
X165090312Y-104950000D01*
X165110958Y-105093596D01*
X165171223Y-105225558D01*
X165266225Y-105335196D01*
X165388070Y-105413502D01*
X165434563Y-105467158D01*
X165444666Y-105537432D01*
X165415173Y-105602013D01*
X165355447Y-105640396D01*
X165319949Y-105645500D01*
X165149029Y-105645500D01*
X165080908Y-105625498D01*
X165059934Y-105608595D01*
X163290373Y-103839034D01*
X163256347Y-103776722D01*
X163261412Y-103705907D01*
X163303959Y-103649071D01*
X163370479Y-103624260D01*
X163414964Y-103629042D01*
X163477464Y-103647394D01*
X163622536Y-103647394D01*
X163761732Y-103606523D01*
X163883775Y-103528090D01*
X163978777Y-103418452D01*
X164039042Y-103286490D01*
X164059688Y-103142894D01*
X164039042Y-102999298D01*
X163978777Y-102867336D01*
X163883775Y-102757698D01*
X163883774Y-102757697D01*
X163822753Y-102718481D01*
X163761732Y-102679265D01*
X163761731Y-102679264D01*
X163761730Y-102679264D01*
X163622536Y-102638394D01*
X163477464Y-102638394D01*
X163338269Y-102679264D01*
X163338266Y-102679266D01*
X163208644Y-102762570D01*
X163207924Y-102761451D01*
X163151735Y-102787112D01*
X163133804Y-102788394D01*
X162907609Y-102788394D01*
X162839488Y-102768392D01*
X162818514Y-102751489D01*
X162641405Y-102574380D01*
X162607379Y-102512068D01*
X162604500Y-102485285D01*
X162604500Y-100496086D01*
X162624502Y-100427965D01*
X162641405Y-100406991D01*
X163235230Y-99813166D01*
X163839882Y-99208513D01*
X163902192Y-99174490D01*
X163973007Y-99179554D01*
G37*
%TD.AperFunction*%
%TA.AperFunction,Conductor*%
G36*
X178644487Y-89014502D02*
G01*
X178687488Y-89061104D01*
X178745499Y-89169636D01*
X178765722Y-89207469D01*
X178892748Y-89362252D01*
X179047531Y-89489278D01*
X179224120Y-89583667D01*
X179415731Y-89641792D01*
X179415735Y-89641792D01*
X179415737Y-89641793D01*
X179614997Y-89661418D01*
X179615000Y-89661418D01*
X179615003Y-89661418D01*
X179814261Y-89641793D01*
X179814263Y-89641793D01*
X179814264Y-89641792D01*
X179814269Y-89641792D01*
X180005880Y-89583667D01*
X180182469Y-89489278D01*
X180278569Y-89410410D01*
X180343914Y-89382659D01*
X180413892Y-89394641D01*
X180466284Y-89442554D01*
X180484500Y-89507812D01*
X180484500Y-90175040D01*
X180464498Y-90243161D01*
X180410842Y-90289654D01*
X180340568Y-90299758D01*
X180299104Y-90286162D01*
X180205883Y-90236334D01*
X180205877Y-90236332D01*
X180014262Y-90178206D01*
X179815003Y-90158582D01*
X179814997Y-90158582D01*
X179615738Y-90178206D01*
X179615736Y-90178206D01*
X179424122Y-90236332D01*
X179424116Y-90236334D01*
X179247533Y-90330720D01*
X179092748Y-90457748D01*
X178965720Y-90612533D01*
X178887488Y-90758896D01*
X178837736Y-90809544D01*
X178776366Y-90825500D01*
X178229029Y-90825500D01*
X178160908Y-90805498D01*
X178139934Y-90788595D01*
X176717674Y-89366334D01*
X176717664Y-89366326D01*
X176636833Y-89319659D01*
X176546674Y-89295500D01*
X176546671Y-89295500D01*
X172503329Y-89295500D01*
X172503325Y-89295500D01*
X172413168Y-89319658D01*
X172413166Y-89319659D01*
X172379669Y-89338998D01*
X172379668Y-89339000D01*
X172332332Y-89366329D01*
X172332331Y-89366330D01*
X172332324Y-89366335D01*
X170633946Y-91064715D01*
X170132332Y-91566329D01*
X170099331Y-91599330D01*
X170066330Y-91632330D01*
X170066326Y-91632335D01*
X170019659Y-91713166D01*
X169995500Y-91803325D01*
X169995500Y-97793732D01*
X170019659Y-97883891D01*
X170066326Y-97964722D01*
X170066328Y-97964724D01*
X170066329Y-97964726D01*
X170408596Y-98306993D01*
X170442620Y-98369304D01*
X170445500Y-98396087D01*
X170445500Y-101687492D01*
X170425498Y-101755613D01*
X170408595Y-101776587D01*
X169257268Y-102927913D01*
X169257266Y-102927914D01*
X169257267Y-102927915D01*
X169208990Y-102976192D01*
X169208985Y-102976198D01*
X169162318Y-103057029D01*
X169138159Y-103147188D01*
X169138159Y-104010496D01*
X169118157Y-104078617D01*
X169101254Y-104099591D01*
X168942249Y-104258596D01*
X168879937Y-104292622D01*
X168853154Y-104295501D01*
X168829647Y-104295501D01*
X168690452Y-104336371D01*
X168690449Y-104336373D01*
X168568408Y-104414804D01*
X168473406Y-104524442D01*
X168413141Y-104656404D01*
X168402663Y-104729278D01*
X168392495Y-104800001D01*
X168413141Y-104943597D01*
X168473406Y-105075559D01*
X168568408Y-105185197D01*
X168690451Y-105263630D01*
X168829647Y-105304501D01*
X168974719Y-105304501D01*
X169113915Y-105263630D01*
X169235958Y-105185197D01*
X169330960Y-105075559D01*
X169391225Y-104943597D01*
X169407305Y-104831754D01*
X169436797Y-104767177D01*
X169442913Y-104760608D01*
X169511998Y-104691523D01*
X169574308Y-104657499D01*
X169645123Y-104662564D01*
X169690186Y-104691525D01*
X169966330Y-104967669D01*
X170032333Y-105033672D01*
X170113169Y-105080342D01*
X170203330Y-105104501D01*
X170483804Y-105104501D01*
X170551925Y-105124503D01*
X170566122Y-105135131D01*
X170566225Y-105135197D01*
X170688268Y-105213630D01*
X170827464Y-105254501D01*
X170972536Y-105254501D01*
X171111732Y-105213630D01*
X171233775Y-105135197D01*
X171328777Y-105025559D01*
X171389042Y-104893597D01*
X171409688Y-104750001D01*
X171389042Y-104606405D01*
X171328777Y-104474443D01*
X171233775Y-104364805D01*
X171233774Y-104364804D01*
X171233773Y-104364803D01*
X171180913Y-104330831D01*
X171134421Y-104277175D01*
X171124318Y-104206902D01*
X171139688Y-104100003D01*
X171136707Y-104079267D01*
X171119042Y-103956404D01*
X171058777Y-103824442D01*
X171015275Y-103774237D01*
X170985782Y-103709656D01*
X170984500Y-103691725D01*
X170984500Y-103386922D01*
X171004502Y-103318801D01*
X171021400Y-103297831D01*
X171883671Y-102435561D01*
X171930341Y-102354725D01*
X171954500Y-102264564D01*
X171954500Y-102171222D01*
X171954500Y-97819015D01*
X171930341Y-97728854D01*
X171883671Y-97648018D01*
X171817668Y-97582015D01*
X171541405Y-97305752D01*
X171507379Y-97243440D01*
X171504500Y-97216657D01*
X171504500Y-93437639D01*
X172295500Y-93437639D01*
X172295500Y-98665178D01*
X172319659Y-98755337D01*
X172366326Y-98836168D01*
X172366328Y-98836170D01*
X172366329Y-98836172D01*
X172752258Y-99222101D01*
X173108595Y-99578437D01*
X173142620Y-99640750D01*
X173145500Y-99667533D01*
X173145500Y-101868865D01*
X173125498Y-101936986D01*
X173108595Y-101957960D01*
X173107960Y-101958595D01*
X173045648Y-101992621D01*
X173018865Y-101995500D01*
X172995358Y-101995500D01*
X172856163Y-102036370D01*
X172856160Y-102036372D01*
X172734119Y-102114803D01*
X172639117Y-102224441D01*
X172578852Y-102356403D01*
X172567471Y-102435561D01*
X172558206Y-102500000D01*
X172578852Y-102643596D01*
X172639117Y-102775558D01*
X172734119Y-102885196D01*
X172856162Y-102963629D01*
X172995358Y-103004500D01*
X173024590Y-103004500D01*
X173092711Y-103024502D01*
X173139204Y-103078158D01*
X173149307Y-103112568D01*
X173160956Y-103193589D01*
X173160958Y-103193596D01*
X173221223Y-103325558D01*
X173316225Y-103435196D01*
X173438268Y-103513629D01*
X173577464Y-103554500D01*
X173722536Y-103554500D01*
X173861732Y-103513629D01*
X173983775Y-103435196D01*
X174078777Y-103325558D01*
X174139042Y-103193596D01*
X174159688Y-103050000D01*
X174139042Y-102906404D01*
X174078777Y-102774442D01*
X174078775Y-102774440D01*
X174078774Y-102774437D01*
X174054254Y-102746139D01*
X174024761Y-102681558D01*
X174034866Y-102611284D01*
X174060381Y-102574536D01*
X174110485Y-102524433D01*
X174110492Y-102524427D01*
X174183665Y-102451254D01*
X174183671Y-102451248D01*
X174230341Y-102370412D01*
X174254500Y-102280251D01*
X174254500Y-99551868D01*
X174274502Y-99483747D01*
X174328158Y-99437254D01*
X174362569Y-99427150D01*
X174369218Y-99426193D01*
X174369229Y-99426193D01*
X174508425Y-99385322D01*
X174630468Y-99306889D01*
X174725470Y-99197251D01*
X174785735Y-99065289D01*
X174806381Y-98921693D01*
X174785735Y-98778097D01*
X174725470Y-98646135D01*
X174630468Y-98536497D01*
X174630467Y-98536496D01*
X174508423Y-98458063D01*
X174493123Y-98453570D01*
X174439530Y-98421770D01*
X174216405Y-98198645D01*
X174182379Y-98136333D01*
X174179500Y-98109550D01*
X174179500Y-94346642D01*
X174190886Y-94294300D01*
X174194007Y-94287466D01*
X174214042Y-94243596D01*
X174234688Y-94100000D01*
X174214042Y-93956404D01*
X174153777Y-93824442D01*
X174058775Y-93714804D01*
X174058774Y-93714803D01*
X173997753Y-93675587D01*
X173936732Y-93636371D01*
X173936729Y-93636370D01*
X173853109Y-93611817D01*
X173793382Y-93573433D01*
X173763889Y-93508853D01*
X173773993Y-93438579D01*
X173799509Y-93401829D01*
X174259935Y-92941404D01*
X174322247Y-92907379D01*
X174349030Y-92904500D01*
X174366945Y-92904500D01*
X174506141Y-92863629D01*
X174628184Y-92785196D01*
X174723186Y-92675558D01*
X174783451Y-92543596D01*
X174804097Y-92400000D01*
X174783451Y-92256404D01*
X174723186Y-92124442D01*
X174628184Y-92014804D01*
X174628183Y-92014803D01*
X174528345Y-91950641D01*
X174506141Y-91936371D01*
X174506140Y-91936370D01*
X174506139Y-91936370D01*
X174366945Y-91895500D01*
X174285486Y-91895500D01*
X174217365Y-91875498D01*
X174170872Y-91821842D01*
X174160769Y-91787437D01*
X174149119Y-91706404D01*
X174088854Y-91574442D01*
X173993852Y-91464804D01*
X173993851Y-91464803D01*
X173889387Y-91397668D01*
X173871809Y-91386371D01*
X173871808Y-91386370D01*
X173871807Y-91386370D01*
X173732613Y-91345500D01*
X173587541Y-91345500D01*
X173448346Y-91386370D01*
X173448343Y-91386372D01*
X173326302Y-91464803D01*
X173231300Y-91574441D01*
X173171035Y-91706403D01*
X173150389Y-91850000D01*
X173171035Y-91993596D01*
X173231300Y-92125558D01*
X173274801Y-92175761D01*
X173304294Y-92240340D01*
X173305577Y-92258273D01*
X173305577Y-92275208D01*
X173285575Y-92343329D01*
X173268672Y-92364303D01*
X172432332Y-93200643D01*
X172399331Y-93233644D01*
X172366330Y-93266644D01*
X172366326Y-93266649D01*
X172319659Y-93347480D01*
X172295500Y-93437639D01*
X171504500Y-93437639D01*
X171504500Y-92380401D01*
X171524502Y-92312280D01*
X171541405Y-92291306D01*
X172991306Y-90841405D01*
X173053618Y-90807379D01*
X173080401Y-90804500D01*
X174750971Y-90804500D01*
X174819092Y-90824502D01*
X174840066Y-90841405D01*
X176508595Y-92509933D01*
X176542620Y-92572245D01*
X176545500Y-92599028D01*
X176545500Y-93491674D01*
X176569659Y-93581833D01*
X176616326Y-93662664D01*
X176616328Y-93662666D01*
X176616329Y-93662668D01*
X177108596Y-94154935D01*
X177142620Y-94217246D01*
X177145500Y-94244029D01*
X177145500Y-95546674D01*
X177169659Y-95636833D01*
X177216326Y-95717664D01*
X177216334Y-95717674D01*
X178042325Y-96543665D01*
X178042330Y-96543669D01*
X178042332Y-96543671D01*
X178042333Y-96543672D01*
X178042335Y-96543673D01*
X178082703Y-96566979D01*
X178123168Y-96590341D01*
X178213329Y-96614500D01*
X178306671Y-96614500D01*
X178776366Y-96614500D01*
X178844487Y-96634502D01*
X178887488Y-96681104D01*
X178965722Y-96827469D01*
X179092748Y-96982252D01*
X179247531Y-97109278D01*
X179424120Y-97203667D01*
X179615731Y-97261792D01*
X179615735Y-97261792D01*
X179615737Y-97261793D01*
X179814997Y-97281418D01*
X179815000Y-97281418D01*
X179815003Y-97281418D01*
X180014261Y-97261793D01*
X180014263Y-97261793D01*
X180014264Y-97261792D01*
X180014269Y-97261792D01*
X180205880Y-97203667D01*
X180299106Y-97153836D01*
X180368609Y-97139365D01*
X180434906Y-97164768D01*
X180476944Y-97221981D01*
X180484500Y-97264959D01*
X180484500Y-97932187D01*
X180464498Y-98000308D01*
X180410842Y-98046801D01*
X180340568Y-98056905D01*
X180278567Y-98029587D01*
X180242890Y-98000308D01*
X180182469Y-97950722D01*
X180182467Y-97950721D01*
X180182466Y-97950720D01*
X180005883Y-97856334D01*
X180005877Y-97856332D01*
X179814262Y-97798206D01*
X179615003Y-97778582D01*
X179614997Y-97778582D01*
X179415738Y-97798206D01*
X179415736Y-97798206D01*
X179224122Y-97856332D01*
X179224116Y-97856334D01*
X179047533Y-97950720D01*
X178892748Y-98077748D01*
X178765720Y-98232533D01*
X178687488Y-98378896D01*
X178637736Y-98429544D01*
X178576366Y-98445500D01*
X176403325Y-98445500D01*
X176313168Y-98469658D01*
X176313166Y-98469659D01*
X176242527Y-98510443D01*
X176242526Y-98510444D01*
X176232332Y-98516328D01*
X176232325Y-98516334D01*
X175363341Y-99385320D01*
X175082332Y-99666329D01*
X175057135Y-99691526D01*
X175016330Y-99732330D01*
X175016326Y-99732335D01*
X174969659Y-99813166D01*
X174945500Y-99903325D01*
X174945500Y-104050971D01*
X174925498Y-104119092D01*
X174908595Y-104140066D01*
X173440066Y-105608595D01*
X173377754Y-105642621D01*
X173350971Y-105645500D01*
X165880051Y-105645500D01*
X165811930Y-105625498D01*
X165765437Y-105571842D01*
X165755333Y-105501568D01*
X165784827Y-105436988D01*
X165811930Y-105413502D01*
X165845861Y-105391694D01*
X165933775Y-105335196D01*
X166028777Y-105225558D01*
X166089042Y-105093596D01*
X166109688Y-104950000D01*
X166089042Y-104806404D01*
X166028777Y-104674442D01*
X165994290Y-104634641D01*
X165985275Y-104624237D01*
X165955782Y-104559656D01*
X165954500Y-104541725D01*
X165954500Y-103680500D01*
X165974502Y-103612379D01*
X166028158Y-103565886D01*
X166080500Y-103554500D01*
X166950971Y-103554500D01*
X167019092Y-103574502D01*
X167040066Y-103591405D01*
X167408595Y-103959934D01*
X167442621Y-104022246D01*
X167445500Y-104049029D01*
X167445500Y-104169501D01*
X167425498Y-104237622D01*
X167371842Y-104284115D01*
X167329751Y-104293270D01*
X167329888Y-104294218D01*
X167320968Y-104295500D01*
X167181772Y-104336371D01*
X167181769Y-104336373D01*
X167059728Y-104414804D01*
X166964726Y-104524442D01*
X166904461Y-104656404D01*
X166893983Y-104729278D01*
X166883815Y-104800001D01*
X166904461Y-104943597D01*
X166964726Y-105075559D01*
X167059728Y-105185197D01*
X167181771Y-105263630D01*
X167320967Y-105304501D01*
X167466039Y-105304501D01*
X167605235Y-105263630D01*
X167727278Y-105185197D01*
X167822280Y-105075559D01*
X167882545Y-104943597D01*
X167898625Y-104831757D01*
X167928117Y-104767179D01*
X167934247Y-104760595D01*
X167965564Y-104729278D01*
X168083671Y-104611172D01*
X168130342Y-104530335D01*
X168154501Y-104440175D01*
X168154501Y-104346833D01*
X168154501Y-104339116D01*
X168154500Y-104339098D01*
X168154500Y-103803329D01*
X168154499Y-103803325D01*
X168149596Y-103785029D01*
X168130341Y-103713168D01*
X168130340Y-103713166D01*
X168083673Y-103632335D01*
X168083669Y-103632330D01*
X168057860Y-103606521D01*
X168017668Y-103566329D01*
X167369084Y-102917745D01*
X167866108Y-102917745D01*
X167921098Y-102945764D01*
X168047500Y-102965785D01*
X168173902Y-102945764D01*
X168173904Y-102945764D01*
X168228890Y-102917746D01*
X168228891Y-102917745D01*
X168047501Y-102736355D01*
X168047500Y-102736355D01*
X167866108Y-102917745D01*
X167369084Y-102917745D01*
X167367668Y-102916329D01*
X167367666Y-102916328D01*
X167367664Y-102916326D01*
X167286833Y-102869659D01*
X167196674Y-102845500D01*
X167196671Y-102845500D01*
X166214715Y-102845500D01*
X166146594Y-102825498D01*
X166125620Y-102808595D01*
X165873775Y-102556750D01*
X167638464Y-102556750D01*
X167658485Y-102683150D01*
X167686502Y-102738139D01*
X167867895Y-102556749D01*
X167848005Y-102536859D01*
X167947500Y-102536859D01*
X167947500Y-102576641D01*
X167962724Y-102613395D01*
X167990855Y-102641526D01*
X168027609Y-102656750D01*
X168067391Y-102656750D01*
X168104145Y-102641526D01*
X168132276Y-102613395D01*
X168147500Y-102576641D01*
X168147500Y-102556749D01*
X168227105Y-102556749D01*
X168227105Y-102556751D01*
X168408495Y-102738141D01*
X168408496Y-102738140D01*
X168436514Y-102683154D01*
X168436514Y-102683152D01*
X168456535Y-102556750D01*
X168436514Y-102430348D01*
X168408495Y-102375358D01*
X168227105Y-102556749D01*
X168147500Y-102556749D01*
X168147500Y-102536859D01*
X168132276Y-102500105D01*
X168104145Y-102471974D01*
X168067391Y-102456750D01*
X168027609Y-102456750D01*
X167990855Y-102471974D01*
X167962724Y-102500105D01*
X167947500Y-102536859D01*
X167848005Y-102536859D01*
X167686504Y-102375358D01*
X167686503Y-102375358D01*
X167658485Y-102430349D01*
X167638464Y-102556750D01*
X165873775Y-102556750D01*
X165841405Y-102524380D01*
X165807379Y-102462068D01*
X165804500Y-102435285D01*
X165804500Y-102195753D01*
X167866108Y-102195753D01*
X167866108Y-102195754D01*
X168047499Y-102377145D01*
X168047500Y-102377145D01*
X168228890Y-102195752D01*
X168173900Y-102167735D01*
X168047500Y-102147714D01*
X167921099Y-102167735D01*
X167866108Y-102195753D01*
X165804500Y-102195753D01*
X165804500Y-101442745D01*
X166391108Y-101442745D01*
X166446098Y-101470764D01*
X166572500Y-101490785D01*
X166698902Y-101470764D01*
X166698904Y-101470764D01*
X166753890Y-101442746D01*
X166753891Y-101442745D01*
X167866108Y-101442745D01*
X167921098Y-101470764D01*
X168047500Y-101490785D01*
X168173902Y-101470764D01*
X168173904Y-101470764D01*
X168228890Y-101442746D01*
X168228891Y-101442745D01*
X169341108Y-101442745D01*
X169396098Y-101470764D01*
X169522500Y-101490785D01*
X169648902Y-101470764D01*
X169648904Y-101470764D01*
X169703890Y-101442746D01*
X169703891Y-101442745D01*
X169522501Y-101261355D01*
X169522500Y-101261355D01*
X169341108Y-101442745D01*
X168228891Y-101442745D01*
X168047501Y-101261355D01*
X168047500Y-101261355D01*
X167866108Y-101442745D01*
X166753891Y-101442745D01*
X166572501Y-101261355D01*
X166572500Y-101261355D01*
X166391108Y-101442745D01*
X165804500Y-101442745D01*
X165804500Y-101081750D01*
X166163464Y-101081750D01*
X166183485Y-101208150D01*
X166211502Y-101263139D01*
X166392895Y-101081749D01*
X166373005Y-101061859D01*
X166472500Y-101061859D01*
X166472500Y-101101641D01*
X166487724Y-101138395D01*
X166515855Y-101166526D01*
X166552609Y-101181750D01*
X166592391Y-101181750D01*
X166629145Y-101166526D01*
X166657276Y-101138395D01*
X166672500Y-101101641D01*
X166672500Y-101081749D01*
X166752105Y-101081749D01*
X166752105Y-101081751D01*
X166933495Y-101263141D01*
X166933496Y-101263140D01*
X166961514Y-101208154D01*
X166961514Y-101208152D01*
X166981535Y-101081750D01*
X167638464Y-101081750D01*
X167658485Y-101208150D01*
X167686502Y-101263139D01*
X167867895Y-101081749D01*
X167848005Y-101061859D01*
X167947500Y-101061859D01*
X167947500Y-101101641D01*
X167962724Y-101138395D01*
X167990855Y-101166526D01*
X168027609Y-101181750D01*
X168067391Y-101181750D01*
X168104145Y-101166526D01*
X168132276Y-101138395D01*
X168147500Y-101101641D01*
X168147500Y-101081749D01*
X168227105Y-101081749D01*
X168227105Y-101081751D01*
X168408495Y-101263141D01*
X168408496Y-101263140D01*
X168436514Y-101208154D01*
X168436514Y-101208152D01*
X168456535Y-101081750D01*
X169113464Y-101081750D01*
X169133485Y-101208150D01*
X169161502Y-101263139D01*
X169342895Y-101081749D01*
X169323005Y-101061859D01*
X169422500Y-101061859D01*
X169422500Y-101101641D01*
X169437724Y-101138395D01*
X169465855Y-101166526D01*
X169502609Y-101181750D01*
X169542391Y-101181750D01*
X169579145Y-101166526D01*
X169607276Y-101138395D01*
X169622500Y-101101641D01*
X169622500Y-101081749D01*
X169702105Y-101081749D01*
X169702105Y-101081751D01*
X169883495Y-101263141D01*
X169883496Y-101263140D01*
X169911514Y-101208154D01*
X169911514Y-101208152D01*
X169931535Y-101081750D01*
X169911514Y-100955348D01*
X169883495Y-100900358D01*
X169702105Y-101081749D01*
X169622500Y-101081749D01*
X169622500Y-101061859D01*
X169607276Y-101025105D01*
X169579145Y-100996974D01*
X169542391Y-100981750D01*
X169502609Y-100981750D01*
X169465855Y-100996974D01*
X169437724Y-101025105D01*
X169422500Y-101061859D01*
X169323005Y-101061859D01*
X169161504Y-100900358D01*
X169161503Y-100900358D01*
X169133485Y-100955349D01*
X169113464Y-101081750D01*
X168456535Y-101081750D01*
X168436514Y-100955348D01*
X168408495Y-100900358D01*
X168227105Y-101081749D01*
X168147500Y-101081749D01*
X168147500Y-101061859D01*
X168132276Y-101025105D01*
X168104145Y-100996974D01*
X168067391Y-100981750D01*
X168027609Y-100981750D01*
X167990855Y-100996974D01*
X167962724Y-101025105D01*
X167947500Y-101061859D01*
X167848005Y-101061859D01*
X167686504Y-100900358D01*
X167686503Y-100900358D01*
X167658485Y-100955349D01*
X167638464Y-101081750D01*
X166981535Y-101081750D01*
X166961514Y-100955348D01*
X166933495Y-100900358D01*
X166752105Y-101081749D01*
X166672500Y-101081749D01*
X166672500Y-101061859D01*
X166657276Y-101025105D01*
X166629145Y-100996974D01*
X166592391Y-100981750D01*
X166552609Y-100981750D01*
X166515855Y-100996974D01*
X166487724Y-101025105D01*
X166472500Y-101061859D01*
X166373005Y-101061859D01*
X166211504Y-100900358D01*
X166211503Y-100900358D01*
X166183485Y-100955349D01*
X166163464Y-101081750D01*
X165804500Y-101081750D01*
X165804500Y-100720753D01*
X166391108Y-100720753D01*
X166391108Y-100720754D01*
X166572499Y-100902145D01*
X166572500Y-100902145D01*
X166753889Y-100720753D01*
X167866108Y-100720753D01*
X167866108Y-100720754D01*
X168047499Y-100902145D01*
X168047500Y-100902145D01*
X168228889Y-100720753D01*
X169341108Y-100720753D01*
X169341108Y-100720754D01*
X169522499Y-100902145D01*
X169522500Y-100902145D01*
X169703890Y-100720752D01*
X169648900Y-100692735D01*
X169522500Y-100672714D01*
X169396099Y-100692735D01*
X169341108Y-100720753D01*
X168228889Y-100720753D01*
X168228890Y-100720752D01*
X168173900Y-100692735D01*
X168047500Y-100672714D01*
X167921099Y-100692735D01*
X167866108Y-100720753D01*
X166753889Y-100720753D01*
X166753890Y-100720752D01*
X166698900Y-100692735D01*
X166572500Y-100672714D01*
X166446099Y-100692735D01*
X166391108Y-100720753D01*
X165804500Y-100720753D01*
X165804500Y-99967745D01*
X167866108Y-99967745D01*
X167921098Y-99995764D01*
X168047500Y-100015785D01*
X168173902Y-99995764D01*
X168173904Y-99995764D01*
X168228890Y-99967746D01*
X168228891Y-99967745D01*
X168047501Y-99786355D01*
X168047500Y-99786355D01*
X167866108Y-99967745D01*
X165804500Y-99967745D01*
X165804500Y-99606750D01*
X167638464Y-99606750D01*
X167658485Y-99733150D01*
X167686502Y-99788139D01*
X167867895Y-99606749D01*
X167848005Y-99586859D01*
X167947500Y-99586859D01*
X167947500Y-99626641D01*
X167962724Y-99663395D01*
X167990855Y-99691526D01*
X168027609Y-99706750D01*
X168067391Y-99706750D01*
X168104145Y-99691526D01*
X168132276Y-99663395D01*
X168147500Y-99626641D01*
X168147500Y-99606749D01*
X168227105Y-99606749D01*
X168227105Y-99606751D01*
X168408495Y-99788141D01*
X168408496Y-99788140D01*
X168436514Y-99733154D01*
X168436514Y-99733152D01*
X168456535Y-99606750D01*
X168436514Y-99480348D01*
X168408495Y-99425358D01*
X168227105Y-99606749D01*
X168147500Y-99606749D01*
X168147500Y-99586859D01*
X168132276Y-99550105D01*
X168104145Y-99521974D01*
X168067391Y-99506750D01*
X168027609Y-99506750D01*
X167990855Y-99521974D01*
X167962724Y-99550105D01*
X167947500Y-99586859D01*
X167848005Y-99586859D01*
X167686504Y-99425358D01*
X167686503Y-99425358D01*
X167658485Y-99480349D01*
X167638464Y-99606750D01*
X165804500Y-99606750D01*
X165804500Y-99245753D01*
X167866108Y-99245753D01*
X167866108Y-99245754D01*
X168047499Y-99427145D01*
X168047500Y-99427145D01*
X168228890Y-99245752D01*
X168173900Y-99217735D01*
X168047500Y-99197714D01*
X167921099Y-99217735D01*
X167866108Y-99245753D01*
X165804500Y-99245753D01*
X165804500Y-98993145D01*
X165824502Y-98925024D01*
X165841405Y-98904050D01*
X166104050Y-98641405D01*
X166166362Y-98607379D01*
X166193145Y-98604500D01*
X167359415Y-98604500D01*
X167449576Y-98580341D01*
X167530412Y-98533671D01*
X168783671Y-97280412D01*
X168830342Y-97199575D01*
X168854501Y-97109415D01*
X168854501Y-97016073D01*
X168854501Y-97008356D01*
X168854500Y-97008338D01*
X168854500Y-93640586D01*
X168854499Y-93640582D01*
X168838757Y-93581833D01*
X168830341Y-93550425D01*
X168830340Y-93550423D01*
X168783673Y-93469592D01*
X168783669Y-93469587D01*
X168751721Y-93437639D01*
X168717668Y-93403586D01*
X168591405Y-93277323D01*
X168557379Y-93215011D01*
X168554500Y-93188228D01*
X168554500Y-91064715D01*
X168574502Y-90996594D01*
X168591405Y-90975620D01*
X170535620Y-89031405D01*
X170597932Y-88997379D01*
X170624715Y-88994500D01*
X178576366Y-88994500D01*
X178644487Y-89014502D01*
G37*
%TD.AperFunction*%
%TA.AperFunction,Conductor*%
G36*
X161013532Y-100441973D02*
G01*
X161070368Y-100484520D01*
X161095179Y-100551040D01*
X161095500Y-100560029D01*
X161095500Y-102650971D01*
X161075498Y-102719092D01*
X161058595Y-102740066D01*
X160310066Y-103488595D01*
X160247754Y-103522621D01*
X160220971Y-103525500D01*
X157993634Y-103525500D01*
X157925513Y-103505498D01*
X157882512Y-103458896D01*
X157804279Y-103312533D01*
X157804278Y-103312531D01*
X157677252Y-103157748D01*
X157522469Y-103030722D01*
X157522467Y-103030721D01*
X157522466Y-103030720D01*
X157345883Y-102936334D01*
X157345877Y-102936332D01*
X157154262Y-102878206D01*
X156955003Y-102858582D01*
X156954997Y-102858582D01*
X156755738Y-102878206D01*
X156755736Y-102878206D01*
X156564122Y-102936332D01*
X156564116Y-102936334D01*
X156387533Y-103030720D01*
X156291433Y-103109587D01*
X156226085Y-103137340D01*
X156156107Y-103125358D01*
X156103716Y-103077445D01*
X156085500Y-103012187D01*
X156085500Y-102344959D01*
X156105502Y-102276838D01*
X156159158Y-102230345D01*
X156229432Y-102220241D01*
X156270891Y-102233835D01*
X156364120Y-102283667D01*
X156555731Y-102341792D01*
X156555735Y-102341792D01*
X156555737Y-102341793D01*
X156754997Y-102361418D01*
X156755000Y-102361418D01*
X156755003Y-102361418D01*
X156954261Y-102341793D01*
X156954263Y-102341793D01*
X156954264Y-102341792D01*
X156954269Y-102341792D01*
X157145880Y-102283667D01*
X157322469Y-102189278D01*
X157477252Y-102062252D01*
X157604278Y-101907469D01*
X157682512Y-101761104D01*
X157732264Y-101710456D01*
X157793634Y-101694500D01*
X159556671Y-101694500D01*
X159646832Y-101670341D01*
X159727668Y-101623671D01*
X160880405Y-100470934D01*
X160942717Y-100436909D01*
X161013532Y-100441973D01*
G37*
%TD.AperFunction*%
%TA.AperFunction,Conductor*%
G36*
X178644487Y-99174502D02*
G01*
X178687488Y-99221104D01*
X178763339Y-99363012D01*
X178765722Y-99367469D01*
X178892748Y-99522252D01*
X179047531Y-99649278D01*
X179047533Y-99649279D01*
X179204451Y-99733154D01*
X179224120Y-99743667D01*
X179415731Y-99801792D01*
X179415735Y-99801792D01*
X179415737Y-99801793D01*
X179614997Y-99821418D01*
X179615000Y-99821418D01*
X179615003Y-99821418D01*
X179814261Y-99801793D01*
X179814263Y-99801793D01*
X179814264Y-99801792D01*
X179814269Y-99801792D01*
X180005880Y-99743667D01*
X180182469Y-99649278D01*
X180278569Y-99570410D01*
X180343914Y-99542659D01*
X180413892Y-99554641D01*
X180466284Y-99602554D01*
X180484500Y-99667812D01*
X180484500Y-100335040D01*
X180464498Y-100403161D01*
X180410842Y-100449654D01*
X180340568Y-100459758D01*
X180299104Y-100446162D01*
X180205883Y-100396334D01*
X180205877Y-100396332D01*
X180014262Y-100338206D01*
X179815003Y-100318582D01*
X179814997Y-100318582D01*
X179615738Y-100338206D01*
X179615736Y-100338206D01*
X179424122Y-100396332D01*
X179424116Y-100396334D01*
X179247533Y-100490720D01*
X179092748Y-100617748D01*
X178965720Y-100772533D01*
X178871334Y-100949116D01*
X178871332Y-100949122D01*
X178813206Y-101140736D01*
X178813206Y-101140738D01*
X178793582Y-101339996D01*
X178793582Y-101340003D01*
X178813206Y-101539261D01*
X178813206Y-101539263D01*
X178871332Y-101730877D01*
X178871334Y-101730883D01*
X178965720Y-101907466D01*
X178965722Y-101907469D01*
X179092748Y-102062252D01*
X179247531Y-102189278D01*
X179247533Y-102189279D01*
X179417734Y-102280254D01*
X179424120Y-102283667D01*
X179615731Y-102341792D01*
X179615735Y-102341792D01*
X179615737Y-102341793D01*
X179814997Y-102361418D01*
X179815000Y-102361418D01*
X179815003Y-102361418D01*
X180014261Y-102341793D01*
X180014263Y-102341793D01*
X180014264Y-102341792D01*
X180014269Y-102341792D01*
X180205880Y-102283667D01*
X180299106Y-102233836D01*
X180368609Y-102219365D01*
X180434906Y-102244768D01*
X180476944Y-102301981D01*
X180484500Y-102344959D01*
X180484500Y-103012187D01*
X180464498Y-103080308D01*
X180410842Y-103126801D01*
X180340568Y-103136905D01*
X180278567Y-103109587D01*
X180240270Y-103078158D01*
X180182469Y-103030722D01*
X180182467Y-103030721D01*
X180182466Y-103030720D01*
X180005883Y-102936334D01*
X180005877Y-102936332D01*
X179814262Y-102878206D01*
X179615003Y-102858582D01*
X179614997Y-102858582D01*
X179415738Y-102878206D01*
X179415736Y-102878206D01*
X179224122Y-102936332D01*
X179224116Y-102936334D01*
X179047533Y-103030720D01*
X178921343Y-103134281D01*
X178855995Y-103162034D01*
X178786017Y-103150052D01*
X178752315Y-103125976D01*
X178541405Y-102915066D01*
X178507379Y-102852754D01*
X178504500Y-102825971D01*
X178504500Y-100958273D01*
X178524502Y-100890152D01*
X178535272Y-100875765D01*
X178578777Y-100825558D01*
X178639042Y-100693596D01*
X178659688Y-100550000D01*
X178639042Y-100406404D01*
X178578777Y-100274442D01*
X178483775Y-100164804D01*
X178483774Y-100164803D01*
X178378020Y-100096839D01*
X178361732Y-100086371D01*
X178361731Y-100086370D01*
X178361730Y-100086370D01*
X178222536Y-100045500D01*
X178077464Y-100045500D01*
X177938269Y-100086370D01*
X177938262Y-100086373D01*
X177907549Y-100106112D01*
X177839428Y-100126114D01*
X177771308Y-100106112D01*
X177730309Y-100063113D01*
X177728474Y-100059934D01*
X177683671Y-99982332D01*
X177617668Y-99916329D01*
X177290744Y-99589405D01*
X177256718Y-99527093D01*
X177255124Y-99518261D01*
X177239042Y-99406404D01*
X177205446Y-99332840D01*
X177195344Y-99262568D01*
X177224837Y-99197987D01*
X177284563Y-99159604D01*
X177320061Y-99154500D01*
X178576366Y-99154500D01*
X178644487Y-99174502D01*
G37*
%TD.AperFunction*%
%TA.AperFunction,Conductor*%
G36*
X160958092Y-99174502D02*
G01*
X161004585Y-99228158D01*
X161014689Y-99298432D01*
X160985195Y-99363012D01*
X160979066Y-99369595D01*
X159400066Y-100948595D01*
X159337754Y-100982621D01*
X159310971Y-100985500D01*
X157793634Y-100985500D01*
X157725513Y-100965498D01*
X157682512Y-100918896D01*
X157604279Y-100772533D01*
X157604278Y-100772531D01*
X157477252Y-100617748D01*
X157322469Y-100490722D01*
X157322467Y-100490721D01*
X157322466Y-100490720D01*
X157145883Y-100396334D01*
X157145877Y-100396332D01*
X156954262Y-100338206D01*
X156755003Y-100318582D01*
X156754997Y-100318582D01*
X156555738Y-100338206D01*
X156555736Y-100338206D01*
X156364122Y-100396332D01*
X156364116Y-100396334D01*
X156270896Y-100446162D01*
X156201390Y-100460634D01*
X156135094Y-100435230D01*
X156093056Y-100378017D01*
X156085500Y-100335040D01*
X156085500Y-99667812D01*
X156105502Y-99599691D01*
X156159158Y-99553198D01*
X156229432Y-99543094D01*
X156291430Y-99570410D01*
X156387531Y-99649278D01*
X156387533Y-99649279D01*
X156544451Y-99733154D01*
X156564120Y-99743667D01*
X156755731Y-99801792D01*
X156755735Y-99801792D01*
X156755737Y-99801793D01*
X156954997Y-99821418D01*
X156955000Y-99821418D01*
X156955003Y-99821418D01*
X157154261Y-99801793D01*
X157154263Y-99801793D01*
X157154264Y-99801792D01*
X157154269Y-99801792D01*
X157345880Y-99743667D01*
X157522469Y-99649278D01*
X157677252Y-99522252D01*
X157804278Y-99367469D01*
X157871293Y-99242091D01*
X157882512Y-99221104D01*
X157932264Y-99170456D01*
X157993634Y-99154500D01*
X160889971Y-99154500D01*
X160958092Y-99174502D01*
G37*
%TD.AperFunction*%
%TA.AperFunction,Conductor*%
G36*
X160799092Y-91554502D02*
G01*
X160820066Y-91571405D01*
X162338595Y-93089933D01*
X162372620Y-93152245D01*
X162375500Y-93179028D01*
X162375500Y-95670228D01*
X162399659Y-95760387D01*
X162446326Y-95841218D01*
X162446328Y-95841220D01*
X162446329Y-95841222D01*
X162665702Y-96060595D01*
X162699726Y-96122906D01*
X162701323Y-96131757D01*
X162717402Y-96243589D01*
X162717404Y-96243596D01*
X162777669Y-96375558D01*
X162872671Y-96485196D01*
X162994714Y-96563629D01*
X162994716Y-96563629D01*
X162999928Y-96566979D01*
X163046421Y-96620635D01*
X163056525Y-96690909D01*
X163027031Y-96755489D01*
X163020902Y-96762072D01*
X161374380Y-98408595D01*
X161312068Y-98442620D01*
X161285285Y-98445500D01*
X157993634Y-98445500D01*
X157925513Y-98425498D01*
X157882512Y-98378896D01*
X157804279Y-98232533D01*
X157804278Y-98232531D01*
X157677252Y-98077748D01*
X157522469Y-97950722D01*
X157522467Y-97950721D01*
X157522466Y-97950720D01*
X157345883Y-97856334D01*
X157345877Y-97856332D01*
X157154262Y-97798206D01*
X156955003Y-97778582D01*
X156954997Y-97778582D01*
X156755738Y-97798206D01*
X156755736Y-97798206D01*
X156564122Y-97856332D01*
X156564116Y-97856334D01*
X156387533Y-97950720D01*
X156291433Y-98029587D01*
X156226085Y-98057340D01*
X156156107Y-98045358D01*
X156103716Y-97997445D01*
X156085500Y-97932187D01*
X156085500Y-97264959D01*
X156105502Y-97196838D01*
X156159158Y-97150345D01*
X156229432Y-97140241D01*
X156270891Y-97153835D01*
X156364120Y-97203667D01*
X156555731Y-97261792D01*
X156555735Y-97261792D01*
X156555737Y-97261793D01*
X156754997Y-97281418D01*
X156755000Y-97281418D01*
X156755003Y-97281418D01*
X156954261Y-97261793D01*
X156954263Y-97261793D01*
X156954264Y-97261792D01*
X156954269Y-97261792D01*
X157145880Y-97203667D01*
X157322469Y-97109278D01*
X157477252Y-96982252D01*
X157604278Y-96827469D01*
X157682512Y-96681104D01*
X157732264Y-96630456D01*
X157793634Y-96614500D01*
X159686671Y-96614500D01*
X159776832Y-96590341D01*
X159857668Y-96543671D01*
X160483671Y-95917668D01*
X160504072Y-95882332D01*
X160504660Y-95881315D01*
X160527806Y-95841222D01*
X160530341Y-95836832D01*
X160554500Y-95746671D01*
X160554500Y-92908273D01*
X160574502Y-92840152D01*
X160585272Y-92825765D01*
X160628777Y-92775558D01*
X160689042Y-92643596D01*
X160709688Y-92500000D01*
X160689042Y-92356404D01*
X160628777Y-92224442D01*
X160533775Y-92114804D01*
X160533774Y-92114803D01*
X160447511Y-92059365D01*
X160411732Y-92036371D01*
X160411731Y-92036370D01*
X160411730Y-92036370D01*
X160272536Y-91995500D01*
X160127464Y-91995500D01*
X159988269Y-92036370D01*
X159988266Y-92036372D01*
X159866225Y-92114803D01*
X159771223Y-92224441D01*
X159724205Y-92327398D01*
X159710958Y-92356404D01*
X159690312Y-92500000D01*
X159710958Y-92643596D01*
X159771223Y-92775558D01*
X159814724Y-92825761D01*
X159844217Y-92890340D01*
X159845500Y-92908273D01*
X159845500Y-95500971D01*
X159825498Y-95569092D01*
X159808595Y-95590066D01*
X159530066Y-95868595D01*
X159467754Y-95902621D01*
X159440971Y-95905500D01*
X157793634Y-95905500D01*
X157725513Y-95885498D01*
X157682512Y-95838896D01*
X157604279Y-95692533D01*
X157604278Y-95692531D01*
X157477252Y-95537748D01*
X157322469Y-95410722D01*
X157322467Y-95410721D01*
X157322466Y-95410720D01*
X157145883Y-95316334D01*
X157145877Y-95316332D01*
X156954262Y-95258206D01*
X156755003Y-95238582D01*
X156754997Y-95238582D01*
X156555738Y-95258206D01*
X156555736Y-95258206D01*
X156364122Y-95316332D01*
X156364116Y-95316334D01*
X156270896Y-95366162D01*
X156201390Y-95380634D01*
X156135094Y-95355230D01*
X156093056Y-95298017D01*
X156085500Y-95255040D01*
X156085500Y-94587812D01*
X156105502Y-94519691D01*
X156159158Y-94473198D01*
X156229432Y-94463094D01*
X156291430Y-94490410D01*
X156387531Y-94569278D01*
X156564120Y-94663667D01*
X156755731Y-94721792D01*
X156755735Y-94721792D01*
X156755737Y-94721793D01*
X156954997Y-94741418D01*
X156955000Y-94741418D01*
X156955003Y-94741418D01*
X157154261Y-94721793D01*
X157154263Y-94721793D01*
X157154264Y-94721792D01*
X157154269Y-94721792D01*
X157345880Y-94663667D01*
X157522469Y-94569278D01*
X157677252Y-94442252D01*
X157804278Y-94287469D01*
X157898667Y-94110880D01*
X157956792Y-93919269D01*
X157976418Y-93720000D01*
X157975906Y-93714804D01*
X157956793Y-93520738D01*
X157956793Y-93520736D01*
X157956792Y-93520733D01*
X157956792Y-93520731D01*
X157898667Y-93329120D01*
X157898386Y-93328595D01*
X157804279Y-93152533D01*
X157804278Y-93152531D01*
X157677252Y-92997748D01*
X157522469Y-92870722D01*
X157522467Y-92870721D01*
X157522466Y-92870720D01*
X157345883Y-92776334D01*
X157345877Y-92776332D01*
X157154262Y-92718206D01*
X156955003Y-92698582D01*
X156954997Y-92698582D01*
X156755738Y-92718206D01*
X156755736Y-92718206D01*
X156564122Y-92776332D01*
X156564116Y-92776334D01*
X156387533Y-92870720D01*
X156291433Y-92949587D01*
X156226085Y-92977340D01*
X156156107Y-92965358D01*
X156103716Y-92917445D01*
X156085500Y-92852187D01*
X156085500Y-92184959D01*
X156105502Y-92116838D01*
X156159158Y-92070345D01*
X156229432Y-92060241D01*
X156270891Y-92073835D01*
X156364120Y-92123667D01*
X156555731Y-92181792D01*
X156555735Y-92181792D01*
X156555737Y-92181793D01*
X156754997Y-92201418D01*
X156755000Y-92201418D01*
X156755003Y-92201418D01*
X156954261Y-92181793D01*
X156954263Y-92181793D01*
X156954264Y-92181792D01*
X156954269Y-92181792D01*
X157145880Y-92123667D01*
X157322469Y-92029278D01*
X157477252Y-91902252D01*
X157604278Y-91747469D01*
X157682512Y-91601104D01*
X157732264Y-91550456D01*
X157793634Y-91534500D01*
X160730971Y-91534500D01*
X160799092Y-91554502D01*
G37*
%TD.AperFunction*%
%TA.AperFunction,Conductor*%
G36*
X161624777Y-89014502D02*
G01*
X161645751Y-89031405D01*
X164246681Y-91632335D01*
X166641058Y-94026711D01*
X166675084Y-94089023D01*
X166670019Y-94159838D01*
X166627472Y-94216674D01*
X166560952Y-94241485D01*
X166516466Y-94236702D01*
X166385912Y-94198369D01*
X166385911Y-94198369D01*
X166240839Y-94198369D01*
X166101644Y-94239239D01*
X166101641Y-94239241D01*
X165979600Y-94317672D01*
X165884598Y-94427310D01*
X165824333Y-94559272D01*
X165803687Y-94702869D01*
X165815686Y-94786325D01*
X165805581Y-94856599D01*
X165759088Y-94910254D01*
X165726466Y-94925152D01*
X165688270Y-94936367D01*
X165688266Y-94936369D01*
X165558644Y-95019673D01*
X165557924Y-95018554D01*
X165501735Y-95044215D01*
X165483804Y-95045497D01*
X165403330Y-95045497D01*
X165331260Y-95064808D01*
X165260284Y-95063118D01*
X165201488Y-95023323D01*
X165184036Y-94995443D01*
X165157058Y-94936369D01*
X165128777Y-94874442D01*
X165033775Y-94764804D01*
X165033774Y-94764803D01*
X164937403Y-94702869D01*
X164911732Y-94686371D01*
X164911731Y-94686370D01*
X164911730Y-94686370D01*
X164772536Y-94645500D01*
X164627464Y-94645500D01*
X164488269Y-94686370D01*
X164488266Y-94686372D01*
X164366225Y-94764803D01*
X164271223Y-94874441D01*
X164210958Y-95006403D01*
X164205337Y-95045497D01*
X164190312Y-95150000D01*
X164210958Y-95293596D01*
X164261904Y-95405152D01*
X164272008Y-95475425D01*
X164242514Y-95540005D01*
X164236385Y-95546588D01*
X163864905Y-95918068D01*
X163802593Y-95952094D01*
X163731778Y-95947029D01*
X163674942Y-95904482D01*
X163661196Y-95881315D01*
X163640881Y-95836832D01*
X163635223Y-95824442D01*
X163540221Y-95714804D01*
X163540220Y-95714803D01*
X163470855Y-95670225D01*
X163418178Y-95636371D01*
X163418177Y-95636370D01*
X163418176Y-95636370D01*
X163278982Y-95595500D01*
X163255475Y-95595500D01*
X163187354Y-95575498D01*
X163166380Y-95558595D01*
X163121405Y-95513620D01*
X163087379Y-95451308D01*
X163084500Y-95424525D01*
X163084500Y-92933329D01*
X163084499Y-92933325D01*
X163067724Y-92870722D01*
X163060341Y-92843168D01*
X163050291Y-92825760D01*
X163013673Y-92762335D01*
X163013665Y-92762325D01*
X162943289Y-92691949D01*
X162943266Y-92691928D01*
X161147668Y-90896329D01*
X161147666Y-90896328D01*
X161147664Y-90896326D01*
X161066833Y-90849659D01*
X160976674Y-90825500D01*
X160976671Y-90825500D01*
X157793634Y-90825500D01*
X157725513Y-90805498D01*
X157682512Y-90758896D01*
X157604279Y-90612533D01*
X157604278Y-90612531D01*
X157477252Y-90457748D01*
X157322469Y-90330722D01*
X157322467Y-90330721D01*
X157322466Y-90330720D01*
X157145883Y-90236334D01*
X157145877Y-90236332D01*
X156954262Y-90178206D01*
X156755003Y-90158582D01*
X156754997Y-90158582D01*
X156555738Y-90178206D01*
X156555736Y-90178206D01*
X156364122Y-90236332D01*
X156364116Y-90236334D01*
X156270896Y-90286162D01*
X156201390Y-90300634D01*
X156135094Y-90275230D01*
X156093056Y-90218017D01*
X156085500Y-90175040D01*
X156085500Y-89507812D01*
X156105502Y-89439691D01*
X156159158Y-89393198D01*
X156229432Y-89383094D01*
X156291430Y-89410410D01*
X156387531Y-89489278D01*
X156564120Y-89583667D01*
X156755731Y-89641792D01*
X156755735Y-89641792D01*
X156755737Y-89641793D01*
X156954997Y-89661418D01*
X156955000Y-89661418D01*
X156955003Y-89661418D01*
X157154261Y-89641793D01*
X157154263Y-89641793D01*
X157154264Y-89641792D01*
X157154269Y-89641792D01*
X157345880Y-89583667D01*
X157522469Y-89489278D01*
X157677252Y-89362252D01*
X157804278Y-89207469D01*
X157882512Y-89061104D01*
X157932264Y-89010456D01*
X157993634Y-88994500D01*
X161556656Y-88994500D01*
X161624777Y-89014502D01*
G37*
%TD.AperFunction*%
%TA.AperFunction,Conductor*%
G36*
X178644487Y-94094502D02*
G01*
X178687488Y-94141104D01*
X178745499Y-94249636D01*
X178765722Y-94287469D01*
X178892748Y-94442252D01*
X179047531Y-94569278D01*
X179224120Y-94663667D01*
X179415731Y-94721792D01*
X179415735Y-94721792D01*
X179415737Y-94721793D01*
X179614997Y-94741418D01*
X179615000Y-94741418D01*
X179615003Y-94741418D01*
X179814261Y-94721793D01*
X179814263Y-94721793D01*
X179814264Y-94721792D01*
X179814269Y-94721792D01*
X180005880Y-94663667D01*
X180182469Y-94569278D01*
X180278569Y-94490410D01*
X180343914Y-94462659D01*
X180413892Y-94474641D01*
X180466284Y-94522554D01*
X180484500Y-94587812D01*
X180484500Y-95255040D01*
X180464498Y-95323161D01*
X180410842Y-95369654D01*
X180340568Y-95379758D01*
X180299104Y-95366162D01*
X180205883Y-95316334D01*
X180205877Y-95316332D01*
X180014262Y-95258206D01*
X179815003Y-95238582D01*
X179814997Y-95238582D01*
X179615738Y-95258206D01*
X179615736Y-95258206D01*
X179424122Y-95316332D01*
X179424116Y-95316334D01*
X179247533Y-95410720D01*
X179092748Y-95537748D01*
X178965720Y-95692533D01*
X178887488Y-95838896D01*
X178837736Y-95889544D01*
X178776366Y-95905500D01*
X178459029Y-95905500D01*
X178390908Y-95885498D01*
X178369934Y-95868595D01*
X177891405Y-95390066D01*
X177857379Y-95327754D01*
X177854500Y-95300971D01*
X177854500Y-94200500D01*
X177874502Y-94132379D01*
X177928158Y-94085886D01*
X177980500Y-94074500D01*
X178576366Y-94074500D01*
X178644487Y-94094502D01*
G37*
%TD.AperFunction*%
%TA.AperFunction,Conductor*%
G36*
X176369092Y-90024502D02*
G01*
X176390066Y-90041405D01*
X177746329Y-91397668D01*
X177812332Y-91463671D01*
X177812333Y-91463672D01*
X177812335Y-91463673D01*
X177814294Y-91464804D01*
X177893168Y-91510341D01*
X177983329Y-91534500D01*
X178076671Y-91534500D01*
X178776366Y-91534500D01*
X178844487Y-91554502D01*
X178887488Y-91601104D01*
X178947387Y-91713168D01*
X178965722Y-91747469D01*
X179092748Y-91902252D01*
X179247531Y-92029278D01*
X179247533Y-92029279D01*
X179407538Y-92114804D01*
X179424120Y-92123667D01*
X179615731Y-92181792D01*
X179615735Y-92181792D01*
X179615737Y-92181793D01*
X179814997Y-92201418D01*
X179815000Y-92201418D01*
X179815003Y-92201418D01*
X180014261Y-92181793D01*
X180014263Y-92181793D01*
X180014264Y-92181792D01*
X180014269Y-92181792D01*
X180205880Y-92123667D01*
X180299106Y-92073836D01*
X180368609Y-92059365D01*
X180434906Y-92084768D01*
X180476944Y-92141981D01*
X180484500Y-92184959D01*
X180484500Y-92852187D01*
X180464498Y-92920308D01*
X180410842Y-92966801D01*
X180340568Y-92976905D01*
X180278567Y-92949587D01*
X180268596Y-92941404D01*
X180182469Y-92870722D01*
X180182467Y-92870721D01*
X180182466Y-92870720D01*
X180005883Y-92776334D01*
X180005877Y-92776332D01*
X179814262Y-92718206D01*
X179615003Y-92698582D01*
X179614997Y-92698582D01*
X179415738Y-92718206D01*
X179415736Y-92718206D01*
X179224122Y-92776332D01*
X179224116Y-92776334D01*
X179047533Y-92870720D01*
X178892748Y-92997748D01*
X178765720Y-93152533D01*
X178687488Y-93298896D01*
X178637736Y-93349544D01*
X178576366Y-93365500D01*
X177939715Y-93365500D01*
X177871594Y-93345498D01*
X177850620Y-93328595D01*
X177691405Y-93169380D01*
X177657379Y-93107068D01*
X177654500Y-93080285D01*
X177654500Y-92187643D01*
X177652806Y-92181322D01*
X177652806Y-92181320D01*
X177637565Y-92124442D01*
X177630341Y-92097482D01*
X177626286Y-92090458D01*
X177583671Y-92016646D01*
X177583668Y-92016643D01*
X177583665Y-92016639D01*
X177513279Y-91946253D01*
X177513256Y-91946232D01*
X175786620Y-90219595D01*
X175752594Y-90157283D01*
X175757659Y-90086467D01*
X175800206Y-90029632D01*
X175866726Y-90004821D01*
X175875715Y-90004500D01*
X176300971Y-90004500D01*
X176369092Y-90024502D01*
G37*
%TD.AperFunction*%
%TA.AperFunction,Conductor*%
G36*
X180426621Y-84770502D02*
G01*
X180473114Y-84824158D01*
X180484500Y-84876500D01*
X180484500Y-85095040D01*
X180464498Y-85163161D01*
X180410842Y-85209654D01*
X180340568Y-85219758D01*
X180299104Y-85206162D01*
X180205883Y-85156334D01*
X180205877Y-85156332D01*
X180014262Y-85098206D01*
X179815003Y-85078582D01*
X179814997Y-85078582D01*
X179615738Y-85098206D01*
X179615736Y-85098206D01*
X179424122Y-85156332D01*
X179424116Y-85156334D01*
X179247533Y-85250720D01*
X179092748Y-85377748D01*
X178965720Y-85532533D01*
X178887488Y-85678896D01*
X178837736Y-85729544D01*
X178776366Y-85745500D01*
X178053325Y-85745500D01*
X177963166Y-85769659D01*
X177882335Y-85816326D01*
X177882325Y-85816334D01*
X175850066Y-87848595D01*
X175787754Y-87882620D01*
X175760971Y-87885500D01*
X170213325Y-87885500D01*
X170123166Y-87909659D01*
X170042335Y-87956326D01*
X170042330Y-87956330D01*
X170009330Y-87989331D01*
X169976329Y-88022332D01*
X169976327Y-88022334D01*
X167564609Y-90434050D01*
X167564607Y-90434051D01*
X167564608Y-90434052D01*
X167516331Y-90482329D01*
X167516326Y-90482335D01*
X167469659Y-90563166D01*
X167445500Y-90653325D01*
X167445500Y-92958599D01*
X167425498Y-93026720D01*
X167371842Y-93073213D01*
X167301568Y-93083317D01*
X167236988Y-93053823D01*
X167230405Y-93047694D01*
X160782711Y-86600000D01*
X161740312Y-86600000D01*
X161760958Y-86743596D01*
X161821223Y-86875558D01*
X161916225Y-86985196D01*
X162038268Y-87063629D01*
X162177464Y-87104500D01*
X162206779Y-87104500D01*
X162274900Y-87124502D01*
X162321393Y-87178158D01*
X162331496Y-87212567D01*
X162335956Y-87243590D01*
X162335958Y-87243596D01*
X162396223Y-87375558D01*
X162491225Y-87485196D01*
X162613268Y-87563629D01*
X162752464Y-87604500D01*
X162765820Y-87604500D01*
X162833941Y-87624502D01*
X162880434Y-87678158D01*
X162889468Y-87740988D01*
X162890312Y-87740988D01*
X162890312Y-87746860D01*
X162890537Y-87748430D01*
X162890537Y-87748432D01*
X162890312Y-87749996D01*
X162890312Y-87749998D01*
X162890312Y-87750000D01*
X162910958Y-87893596D01*
X162971223Y-88025558D01*
X163066225Y-88135196D01*
X163188268Y-88213629D01*
X163327464Y-88254500D01*
X163472536Y-88254500D01*
X163611732Y-88213629D01*
X163733775Y-88135196D01*
X163828777Y-88025558D01*
X163871090Y-87932902D01*
X163896604Y-87896154D01*
X164251356Y-87541404D01*
X164313668Y-87507379D01*
X164340451Y-87504500D01*
X171282430Y-87504500D01*
X171282446Y-87504501D01*
X171290164Y-87504501D01*
X171409835Y-87504501D01*
X171409836Y-87504501D01*
X171500998Y-87480073D01*
X171501000Y-87480073D01*
X171509942Y-87477676D01*
X171525431Y-87473527D01*
X171629070Y-87413691D01*
X171713691Y-87329070D01*
X171724058Y-87318703D01*
X171724069Y-87318690D01*
X171751357Y-87291403D01*
X171813670Y-87257379D01*
X171840451Y-87254500D01*
X173940869Y-87254500D01*
X173979113Y-87262819D01*
X173979621Y-87261090D01*
X173988267Y-87263628D01*
X173988268Y-87263629D01*
X174127464Y-87304500D01*
X174272536Y-87304500D01*
X174411732Y-87263629D01*
X174533775Y-87185196D01*
X174628777Y-87075558D01*
X174689042Y-86943596D01*
X174709688Y-86800000D01*
X174689042Y-86656404D01*
X174628777Y-86524442D01*
X174533775Y-86414804D01*
X174533774Y-86414803D01*
X174472753Y-86375587D01*
X174411732Y-86336371D01*
X174411731Y-86336370D01*
X174411730Y-86336370D01*
X174272536Y-86295500D01*
X174127464Y-86295500D01*
X174107815Y-86301269D01*
X174084152Y-86308217D01*
X174013156Y-86308216D01*
X173953430Y-86269831D01*
X173923938Y-86205250D01*
X173934043Y-86134976D01*
X173953433Y-86104806D01*
X173961497Y-86095500D01*
X173978777Y-86075558D01*
X174039042Y-85943596D01*
X174059688Y-85800000D01*
X174039042Y-85656404D01*
X173978777Y-85524442D01*
X173883775Y-85414804D01*
X173883774Y-85414803D01*
X173796811Y-85358915D01*
X173761732Y-85336371D01*
X173761731Y-85336370D01*
X173761730Y-85336370D01*
X173622536Y-85295500D01*
X173477464Y-85295500D01*
X173338267Y-85336371D01*
X173338265Y-85336372D01*
X173334305Y-85338917D01*
X173266183Y-85358915D01*
X173198064Y-85338909D01*
X173170967Y-85315428D01*
X173083774Y-85214803D01*
X173022753Y-85175587D01*
X172961732Y-85136371D01*
X172961731Y-85136370D01*
X172961730Y-85136370D01*
X172822536Y-85095500D01*
X172677464Y-85095500D01*
X172538269Y-85136370D01*
X172538266Y-85136372D01*
X172416225Y-85214803D01*
X172321223Y-85324441D01*
X172257215Y-85464601D01*
X172255656Y-85463889D01*
X172222989Y-85514723D01*
X172158409Y-85544217D01*
X172140475Y-85545500D01*
X171180532Y-85545500D01*
X171090373Y-85569659D01*
X171009542Y-85616326D01*
X171009532Y-85616334D01*
X170950721Y-85675146D01*
X170950715Y-85675150D01*
X170950716Y-85675151D01*
X170943534Y-85682332D01*
X170943534Y-85682333D01*
X170896324Y-85729544D01*
X170867273Y-85758595D01*
X170804961Y-85792620D01*
X170778177Y-85795500D01*
X162653325Y-85795500D01*
X162563166Y-85819659D01*
X162482335Y-85866326D01*
X162482329Y-85866331D01*
X162405065Y-85943596D01*
X162290064Y-86058596D01*
X162227755Y-86092620D01*
X162200971Y-86095500D01*
X162177464Y-86095500D01*
X162038269Y-86136370D01*
X162038266Y-86136372D01*
X161916225Y-86214803D01*
X161821223Y-86324441D01*
X161760958Y-86456403D01*
X161751176Y-86524441D01*
X161740312Y-86600000D01*
X160782711Y-86600000D01*
X159999045Y-85816334D01*
X159999035Y-85816326D01*
X159918204Y-85769659D01*
X159828045Y-85745500D01*
X159828042Y-85745500D01*
X157793634Y-85745500D01*
X157725513Y-85725498D01*
X157682512Y-85678896D01*
X157604279Y-85532533D01*
X157604278Y-85532531D01*
X157477252Y-85377748D01*
X157322469Y-85250722D01*
X157322467Y-85250721D01*
X157322466Y-85250720D01*
X157145883Y-85156334D01*
X157145877Y-85156332D01*
X156954262Y-85098206D01*
X156755003Y-85078582D01*
X156754997Y-85078582D01*
X156555738Y-85098206D01*
X156555736Y-85098206D01*
X156364122Y-85156332D01*
X156364116Y-85156334D01*
X156270896Y-85206162D01*
X156201390Y-85220634D01*
X156135094Y-85195230D01*
X156093056Y-85138017D01*
X156085500Y-85095040D01*
X156085500Y-84876500D01*
X156105502Y-84808379D01*
X156159158Y-84761886D01*
X156211500Y-84750500D01*
X180358500Y-84750500D01*
X180426621Y-84770502D01*
G37*
%TD.AperFunction*%
%TA.AperFunction,Conductor*%
G36*
X159650463Y-86474502D02*
G01*
X159671437Y-86491405D01*
X161250437Y-88070405D01*
X161284463Y-88132717D01*
X161279398Y-88203532D01*
X161236851Y-88260368D01*
X161170331Y-88285179D01*
X161161342Y-88285500D01*
X157993634Y-88285500D01*
X157925513Y-88265498D01*
X157882512Y-88218896D01*
X157804279Y-88072533D01*
X157804278Y-88072531D01*
X157677252Y-87917748D01*
X157522469Y-87790722D01*
X157522467Y-87790721D01*
X157522466Y-87790720D01*
X157345883Y-87696334D01*
X157345877Y-87696332D01*
X157154262Y-87638206D01*
X156955003Y-87618582D01*
X156954997Y-87618582D01*
X156755738Y-87638206D01*
X156755736Y-87638206D01*
X156564122Y-87696332D01*
X156564116Y-87696334D01*
X156387533Y-87790720D01*
X156291433Y-87869587D01*
X156226085Y-87897340D01*
X156156107Y-87885358D01*
X156103716Y-87837445D01*
X156085500Y-87772187D01*
X156085500Y-87104959D01*
X156105502Y-87036838D01*
X156159158Y-86990345D01*
X156229432Y-86980241D01*
X156270891Y-86993835D01*
X156364120Y-87043667D01*
X156555731Y-87101792D01*
X156555735Y-87101792D01*
X156555737Y-87101793D01*
X156754997Y-87121418D01*
X156755000Y-87121418D01*
X156755003Y-87121418D01*
X156954261Y-87101793D01*
X156954263Y-87101793D01*
X156954264Y-87101792D01*
X156954269Y-87101792D01*
X157145880Y-87043667D01*
X157322469Y-86949278D01*
X157477252Y-86822252D01*
X157604278Y-86667469D01*
X157682512Y-86521104D01*
X157732264Y-86470456D01*
X157793634Y-86454500D01*
X159582342Y-86454500D01*
X159650463Y-86474502D01*
G37*
%TD.AperFunction*%
%TA.AperFunction,Conductor*%
G36*
X178844487Y-86474502D02*
G01*
X178887488Y-86521104D01*
X178959807Y-86656404D01*
X178965722Y-86667469D01*
X179092748Y-86822252D01*
X179247531Y-86949278D01*
X179424120Y-87043667D01*
X179615731Y-87101792D01*
X179615735Y-87101792D01*
X179615737Y-87101793D01*
X179814997Y-87121418D01*
X179815000Y-87121418D01*
X179815003Y-87121418D01*
X180014261Y-87101793D01*
X180014263Y-87101793D01*
X180014264Y-87101792D01*
X180014269Y-87101792D01*
X180205880Y-87043667D01*
X180299106Y-86993836D01*
X180368609Y-86979365D01*
X180434906Y-87004768D01*
X180476944Y-87061981D01*
X180484500Y-87104959D01*
X180484500Y-87772187D01*
X180464498Y-87840308D01*
X180410842Y-87886801D01*
X180340568Y-87896905D01*
X180278567Y-87869587D01*
X180242890Y-87840308D01*
X180182469Y-87790722D01*
X180182467Y-87790721D01*
X180182466Y-87790720D01*
X180005883Y-87696334D01*
X180005877Y-87696332D01*
X179814262Y-87638206D01*
X179615003Y-87618582D01*
X179614997Y-87618582D01*
X179415738Y-87638206D01*
X179415736Y-87638206D01*
X179224122Y-87696332D01*
X179224116Y-87696334D01*
X179047533Y-87790720D01*
X178892748Y-87917748D01*
X178765720Y-88072533D01*
X178687488Y-88218896D01*
X178637736Y-88269544D01*
X178576366Y-88285500D01*
X176720029Y-88285500D01*
X176651908Y-88265498D01*
X176605415Y-88211842D01*
X176595311Y-88141568D01*
X176624805Y-88076988D01*
X176630934Y-88070405D01*
X178209934Y-86491405D01*
X178272246Y-86457379D01*
X178299029Y-86454500D01*
X178776366Y-86454500D01*
X178844487Y-86474502D01*
G37*
%TD.AperFunction*%
%TD*%
M02*
