%TF.GenerationSoftware,KiCad,Pcbnew,9.0.7*%
%TF.CreationDate,2026-02-15T23:40:45+05:30*%
%TF.ProjectId,zepto,7a657074-6f2e-46b6-9963-61645f706362,Mark3*%
%TF.SameCoordinates,Original*%
%TF.FileFunction,Legend,Bot*%
%TF.FilePolarity,Positive*%
%FSLAX46Y46*%
G04 Gerber Fmt 4.6, Leading zero omitted, Abs format (unit mm)*
G04 Created by KiCad (PCBNEW 9.0.7) date 2026-02-15 23:40:45*
%MOMM*%
%LPD*%
G01*
G04 APERTURE LIST*
%ADD10C,0.100000*%
%ADD11C,0.140000*%
%ADD12C,0.200000*%
%ADD13C,0.154000*%
%ADD14C,0.000000*%
G04 APERTURE END LIST*
D10*
X180115000Y-113325000D02*
X180960000Y-113325000D01*
X180960000Y-114755000D01*
X180115000Y-114755000D01*
X180115000Y-113325000D01*
G36*
X180115000Y-113325000D02*
G01*
X180960000Y-113325000D01*
X180960000Y-114755000D01*
X180115000Y-114755000D01*
X180115000Y-113325000D01*
G37*
X155610000Y-113325000D02*
X156457500Y-113325000D01*
X156457500Y-114755000D01*
X155610000Y-114755000D01*
X155610000Y-113325000D01*
G36*
X155610000Y-113325000D02*
G01*
X156457500Y-113325000D01*
X156457500Y-114755000D01*
X155610000Y-114755000D01*
X155610000Y-113325000D01*
G37*
X175265000Y-92902893D02*
G75*
G02*
X174265000Y-93902900I-1000000J-7D01*
G01*
X155850000Y-95000000D02*
X156950000Y-95000000D01*
X157350000Y-95000000D02*
X158450000Y-95000000D01*
X158850000Y-95000000D02*
X159950000Y-95000000D01*
X160350000Y-95000000D02*
X161450000Y-95000000D01*
X161850000Y-95000000D02*
X162950000Y-95000000D01*
X163350000Y-95000000D02*
X164450000Y-95000000D01*
X164850000Y-95000000D02*
X165950000Y-95000000D01*
X166350000Y-95000000D02*
X167450000Y-95000000D01*
X167850000Y-95000000D02*
X168950000Y-95000000D01*
X169350000Y-95000000D02*
X170450000Y-95000000D01*
X170850000Y-95000000D02*
X171950000Y-95000000D01*
X172350000Y-95000000D02*
X173450000Y-95000000D01*
X173850000Y-95000000D02*
X174950000Y-95000000D01*
X175350000Y-95000000D02*
X176450000Y-95000000D01*
X176850000Y-95000000D02*
X177950000Y-95000000D01*
X178350000Y-95000000D02*
X179450000Y-95000000D01*
X179850000Y-95000000D02*
X180570000Y-95000000D01*
X161265000Y-86902893D02*
G75*
G02*
X162265000Y-85902900I1000000J-7D01*
G01*
X175265000Y-86902893D02*
X175265000Y-92902893D01*
X174265000Y-93902893D02*
X162265000Y-93902893D01*
X161265000Y-92902893D02*
X161265000Y-86902893D01*
X167198206Y-98290468D02*
X167198206Y-110290468D01*
X162265000Y-93902893D02*
G75*
G02*
X161265007Y-92902893I0J999993D01*
G01*
X162265000Y-85902893D02*
X174265000Y-85902893D01*
X174265000Y-85902893D02*
G75*
G02*
X175265007Y-86902893I0J-1000007D01*
G01*
D11*
X178401228Y-104251853D02*
X178401228Y-103551853D01*
X178401228Y-103551853D02*
X178134561Y-103551853D01*
X178134561Y-103551853D02*
X178067895Y-103585186D01*
X178067895Y-103585186D02*
X178034561Y-103618520D01*
X178034561Y-103618520D02*
X178001228Y-103685186D01*
X178001228Y-103685186D02*
X178001228Y-103785186D01*
X178001228Y-103785186D02*
X178034561Y-103851853D01*
X178034561Y-103851853D02*
X178067895Y-103885186D01*
X178067895Y-103885186D02*
X178134561Y-103918520D01*
X178134561Y-103918520D02*
X178401228Y-103918520D01*
X177734561Y-104051853D02*
X177401228Y-104051853D01*
X177801228Y-104251853D02*
X177567895Y-103551853D01*
X177567895Y-103551853D02*
X177334561Y-104251853D01*
X176801228Y-103551853D02*
X176934561Y-103551853D01*
X176934561Y-103551853D02*
X177001228Y-103585186D01*
X177001228Y-103585186D02*
X177034561Y-103618520D01*
X177034561Y-103618520D02*
X177101228Y-103718520D01*
X177101228Y-103718520D02*
X177134561Y-103851853D01*
X177134561Y-103851853D02*
X177134561Y-104118520D01*
X177134561Y-104118520D02*
X177101228Y-104185186D01*
X177101228Y-104185186D02*
X177067895Y-104218520D01*
X177067895Y-104218520D02*
X177001228Y-104251853D01*
X177001228Y-104251853D02*
X176867895Y-104251853D01*
X176867895Y-104251853D02*
X176801228Y-104218520D01*
X176801228Y-104218520D02*
X176767895Y-104185186D01*
X176767895Y-104185186D02*
X176734561Y-104118520D01*
X176734561Y-104118520D02*
X176734561Y-103951853D01*
X176734561Y-103951853D02*
X176767895Y-103885186D01*
X176767895Y-103885186D02*
X176801228Y-103851853D01*
X176801228Y-103851853D02*
X176867895Y-103818520D01*
X176867895Y-103818520D02*
X177001228Y-103818520D01*
X177001228Y-103818520D02*
X177067895Y-103851853D01*
X177067895Y-103851853D02*
X177101228Y-103885186D01*
X177101228Y-103885186D02*
X177134561Y-103951853D01*
X175701228Y-104518520D02*
X175734561Y-104485186D01*
X175734561Y-104485186D02*
X175801228Y-104385186D01*
X175801228Y-104385186D02*
X175834561Y-104318520D01*
X175834561Y-104318520D02*
X175867895Y-104218520D01*
X175867895Y-104218520D02*
X175901228Y-104051853D01*
X175901228Y-104051853D02*
X175901228Y-103918520D01*
X175901228Y-103918520D02*
X175867895Y-103751853D01*
X175867895Y-103751853D02*
X175834561Y-103651853D01*
X175834561Y-103651853D02*
X175801228Y-103585186D01*
X175801228Y-103585186D02*
X175734561Y-103485186D01*
X175734561Y-103485186D02*
X175701228Y-103451853D01*
X175467894Y-104218520D02*
X175367894Y-104251853D01*
X175367894Y-104251853D02*
X175201228Y-104251853D01*
X175201228Y-104251853D02*
X175134561Y-104218520D01*
X175134561Y-104218520D02*
X175101228Y-104185186D01*
X175101228Y-104185186D02*
X175067894Y-104118520D01*
X175067894Y-104118520D02*
X175067894Y-104051853D01*
X175067894Y-104051853D02*
X175101228Y-103985186D01*
X175101228Y-103985186D02*
X175134561Y-103951853D01*
X175134561Y-103951853D02*
X175201228Y-103918520D01*
X175201228Y-103918520D02*
X175334561Y-103885186D01*
X175334561Y-103885186D02*
X175401228Y-103851853D01*
X175401228Y-103851853D02*
X175434561Y-103818520D01*
X175434561Y-103818520D02*
X175467894Y-103751853D01*
X175467894Y-103751853D02*
X175467894Y-103685186D01*
X175467894Y-103685186D02*
X175434561Y-103618520D01*
X175434561Y-103618520D02*
X175401228Y-103585186D01*
X175401228Y-103585186D02*
X175334561Y-103551853D01*
X175334561Y-103551853D02*
X175167894Y-103551853D01*
X175167894Y-103551853D02*
X175067894Y-103585186D01*
X174367894Y-104185186D02*
X174401227Y-104218520D01*
X174401227Y-104218520D02*
X174501227Y-104251853D01*
X174501227Y-104251853D02*
X174567894Y-104251853D01*
X174567894Y-104251853D02*
X174667894Y-104218520D01*
X174667894Y-104218520D02*
X174734561Y-104151853D01*
X174734561Y-104151853D02*
X174767894Y-104085186D01*
X174767894Y-104085186D02*
X174801227Y-103951853D01*
X174801227Y-103951853D02*
X174801227Y-103851853D01*
X174801227Y-103851853D02*
X174767894Y-103718520D01*
X174767894Y-103718520D02*
X174734561Y-103651853D01*
X174734561Y-103651853D02*
X174667894Y-103585186D01*
X174667894Y-103585186D02*
X174567894Y-103551853D01*
X174567894Y-103551853D02*
X174501227Y-103551853D01*
X174501227Y-103551853D02*
X174401227Y-103585186D01*
X174401227Y-103585186D02*
X174367894Y-103618520D01*
X174067894Y-104251853D02*
X174067894Y-103551853D01*
X173667894Y-104251853D02*
X173967894Y-103851853D01*
X173667894Y-103551853D02*
X174067894Y-103951853D01*
X173434561Y-104518520D02*
X173401227Y-104485186D01*
X173401227Y-104485186D02*
X173334561Y-104385186D01*
X173334561Y-104385186D02*
X173301227Y-104318520D01*
X173301227Y-104318520D02*
X173267894Y-104218520D01*
X173267894Y-104218520D02*
X173234561Y-104051853D01*
X173234561Y-104051853D02*
X173234561Y-103918520D01*
X173234561Y-103918520D02*
X173267894Y-103751853D01*
X173267894Y-103751853D02*
X173301227Y-103651853D01*
X173301227Y-103651853D02*
X173334561Y-103585186D01*
X173334561Y-103585186D02*
X173401227Y-103485186D01*
X173401227Y-103485186D02*
X173434561Y-103451853D01*
X178401228Y-89011853D02*
X178401228Y-88311853D01*
X178401228Y-88311853D02*
X178134561Y-88311853D01*
X178134561Y-88311853D02*
X178067895Y-88345186D01*
X178067895Y-88345186D02*
X178034561Y-88378520D01*
X178034561Y-88378520D02*
X178001228Y-88445186D01*
X178001228Y-88445186D02*
X178001228Y-88545186D01*
X178001228Y-88545186D02*
X178034561Y-88611853D01*
X178034561Y-88611853D02*
X178067895Y-88645186D01*
X178067895Y-88645186D02*
X178134561Y-88678520D01*
X178134561Y-88678520D02*
X178401228Y-88678520D01*
X177734561Y-88811853D02*
X177401228Y-88811853D01*
X177801228Y-89011853D02*
X177567895Y-88311853D01*
X177567895Y-88311853D02*
X177334561Y-89011853D01*
X177134561Y-88378520D02*
X177101228Y-88345186D01*
X177101228Y-88345186D02*
X177034561Y-88311853D01*
X177034561Y-88311853D02*
X176867895Y-88311853D01*
X176867895Y-88311853D02*
X176801228Y-88345186D01*
X176801228Y-88345186D02*
X176767895Y-88378520D01*
X176767895Y-88378520D02*
X176734561Y-88445186D01*
X176734561Y-88445186D02*
X176734561Y-88511853D01*
X176734561Y-88511853D02*
X176767895Y-88611853D01*
X176767895Y-88611853D02*
X177167895Y-89011853D01*
X177167895Y-89011853D02*
X176734561Y-89011853D01*
X176501228Y-88311853D02*
X176034561Y-88311853D01*
X176034561Y-88311853D02*
X176334561Y-89011853D01*
X178401228Y-101711853D02*
X178401228Y-101011853D01*
X178401228Y-101011853D02*
X178134561Y-101011853D01*
X178134561Y-101011853D02*
X178067895Y-101045186D01*
X178067895Y-101045186D02*
X178034561Y-101078520D01*
X178034561Y-101078520D02*
X178001228Y-101145186D01*
X178001228Y-101145186D02*
X178001228Y-101245186D01*
X178001228Y-101245186D02*
X178034561Y-101311853D01*
X178034561Y-101311853D02*
X178067895Y-101345186D01*
X178067895Y-101345186D02*
X178134561Y-101378520D01*
X178134561Y-101378520D02*
X178401228Y-101378520D01*
X177734561Y-101511853D02*
X177401228Y-101511853D01*
X177801228Y-101711853D02*
X177567895Y-101011853D01*
X177567895Y-101011853D02*
X177334561Y-101711853D01*
X177167895Y-101011853D02*
X176734561Y-101011853D01*
X176734561Y-101011853D02*
X176967895Y-101278520D01*
X176967895Y-101278520D02*
X176867895Y-101278520D01*
X176867895Y-101278520D02*
X176801228Y-101311853D01*
X176801228Y-101311853D02*
X176767895Y-101345186D01*
X176767895Y-101345186D02*
X176734561Y-101411853D01*
X176734561Y-101411853D02*
X176734561Y-101578520D01*
X176734561Y-101578520D02*
X176767895Y-101645186D01*
X176767895Y-101645186D02*
X176801228Y-101678520D01*
X176801228Y-101678520D02*
X176867895Y-101711853D01*
X176867895Y-101711853D02*
X177067895Y-101711853D01*
X177067895Y-101711853D02*
X177134561Y-101678520D01*
X177134561Y-101678520D02*
X177167895Y-101645186D01*
X175701228Y-101978520D02*
X175734561Y-101945186D01*
X175734561Y-101945186D02*
X175801228Y-101845186D01*
X175801228Y-101845186D02*
X175834561Y-101778520D01*
X175834561Y-101778520D02*
X175867895Y-101678520D01*
X175867895Y-101678520D02*
X175901228Y-101511853D01*
X175901228Y-101511853D02*
X175901228Y-101378520D01*
X175901228Y-101378520D02*
X175867895Y-101211853D01*
X175867895Y-101211853D02*
X175834561Y-101111853D01*
X175834561Y-101111853D02*
X175801228Y-101045186D01*
X175801228Y-101045186D02*
X175734561Y-100945186D01*
X175734561Y-100945186D02*
X175701228Y-100911853D01*
X175034561Y-101645186D02*
X175067894Y-101678520D01*
X175067894Y-101678520D02*
X175167894Y-101711853D01*
X175167894Y-101711853D02*
X175234561Y-101711853D01*
X175234561Y-101711853D02*
X175334561Y-101678520D01*
X175334561Y-101678520D02*
X175401228Y-101611853D01*
X175401228Y-101611853D02*
X175434561Y-101545186D01*
X175434561Y-101545186D02*
X175467894Y-101411853D01*
X175467894Y-101411853D02*
X175467894Y-101311853D01*
X175467894Y-101311853D02*
X175434561Y-101178520D01*
X175434561Y-101178520D02*
X175401228Y-101111853D01*
X175401228Y-101111853D02*
X175334561Y-101045186D01*
X175334561Y-101045186D02*
X175234561Y-101011853D01*
X175234561Y-101011853D02*
X175167894Y-101011853D01*
X175167894Y-101011853D02*
X175067894Y-101045186D01*
X175067894Y-101045186D02*
X175034561Y-101078520D01*
X174767894Y-101678520D02*
X174667894Y-101711853D01*
X174667894Y-101711853D02*
X174501228Y-101711853D01*
X174501228Y-101711853D02*
X174434561Y-101678520D01*
X174434561Y-101678520D02*
X174401228Y-101645186D01*
X174401228Y-101645186D02*
X174367894Y-101578520D01*
X174367894Y-101578520D02*
X174367894Y-101511853D01*
X174367894Y-101511853D02*
X174401228Y-101445186D01*
X174401228Y-101445186D02*
X174434561Y-101411853D01*
X174434561Y-101411853D02*
X174501228Y-101378520D01*
X174501228Y-101378520D02*
X174634561Y-101345186D01*
X174634561Y-101345186D02*
X174701228Y-101311853D01*
X174701228Y-101311853D02*
X174734561Y-101278520D01*
X174734561Y-101278520D02*
X174767894Y-101211853D01*
X174767894Y-101211853D02*
X174767894Y-101145186D01*
X174767894Y-101145186D02*
X174734561Y-101078520D01*
X174734561Y-101078520D02*
X174701228Y-101045186D01*
X174701228Y-101045186D02*
X174634561Y-101011853D01*
X174634561Y-101011853D02*
X174467894Y-101011853D01*
X174467894Y-101011853D02*
X174367894Y-101045186D01*
X174134561Y-101978520D02*
X174101227Y-101945186D01*
X174101227Y-101945186D02*
X174034561Y-101845186D01*
X174034561Y-101845186D02*
X174001227Y-101778520D01*
X174001227Y-101778520D02*
X173967894Y-101678520D01*
X173967894Y-101678520D02*
X173934561Y-101511853D01*
X173934561Y-101511853D02*
X173934561Y-101378520D01*
X173934561Y-101378520D02*
X173967894Y-101211853D01*
X173967894Y-101211853D02*
X174001227Y-101111853D01*
X174001227Y-101111853D02*
X174034561Y-101045186D01*
X174034561Y-101045186D02*
X174101227Y-100945186D01*
X174101227Y-100945186D02*
X174134561Y-100911853D01*
X178467895Y-111171853D02*
X178034561Y-111171853D01*
X178034561Y-111171853D02*
X178267895Y-111438520D01*
X178267895Y-111438520D02*
X178167895Y-111438520D01*
X178167895Y-111438520D02*
X178101228Y-111471853D01*
X178101228Y-111471853D02*
X178067895Y-111505186D01*
X178067895Y-111505186D02*
X178034561Y-111571853D01*
X178034561Y-111571853D02*
X178034561Y-111738520D01*
X178034561Y-111738520D02*
X178067895Y-111805186D01*
X178067895Y-111805186D02*
X178101228Y-111838520D01*
X178101228Y-111838520D02*
X178167895Y-111871853D01*
X178167895Y-111871853D02*
X178367895Y-111871853D01*
X178367895Y-111871853D02*
X178434561Y-111838520D01*
X178434561Y-111838520D02*
X178467895Y-111805186D01*
X177834561Y-111171853D02*
X177601228Y-111871853D01*
X177601228Y-111871853D02*
X177367894Y-111171853D01*
X177201228Y-111171853D02*
X176767894Y-111171853D01*
X176767894Y-111171853D02*
X177001228Y-111438520D01*
X177001228Y-111438520D02*
X176901228Y-111438520D01*
X176901228Y-111438520D02*
X176834561Y-111471853D01*
X176834561Y-111471853D02*
X176801228Y-111505186D01*
X176801228Y-111505186D02*
X176767894Y-111571853D01*
X176767894Y-111571853D02*
X176767894Y-111738520D01*
X176767894Y-111738520D02*
X176801228Y-111805186D01*
X176801228Y-111805186D02*
X176834561Y-111838520D01*
X176834561Y-111838520D02*
X176901228Y-111871853D01*
X176901228Y-111871853D02*
X177101228Y-111871853D01*
X177101228Y-111871853D02*
X177167894Y-111838520D01*
X177167894Y-111838520D02*
X177201228Y-111805186D01*
X162991229Y-107058520D02*
X163024562Y-107025186D01*
X163024562Y-107025186D02*
X163091229Y-106925186D01*
X163091229Y-106925186D02*
X163124562Y-106858520D01*
X163124562Y-106858520D02*
X163157896Y-106758520D01*
X163157896Y-106758520D02*
X163191229Y-106591853D01*
X163191229Y-106591853D02*
X163191229Y-106458520D01*
X163191229Y-106458520D02*
X163157896Y-106291853D01*
X163157896Y-106291853D02*
X163124562Y-106191853D01*
X163124562Y-106191853D02*
X163091229Y-106125186D01*
X163091229Y-106125186D02*
X163024562Y-106025186D01*
X163024562Y-106025186D02*
X162991229Y-105991853D01*
X162757895Y-106758520D02*
X162657895Y-106791853D01*
X162657895Y-106791853D02*
X162491229Y-106791853D01*
X162491229Y-106791853D02*
X162424562Y-106758520D01*
X162424562Y-106758520D02*
X162391229Y-106725186D01*
X162391229Y-106725186D02*
X162357895Y-106658520D01*
X162357895Y-106658520D02*
X162357895Y-106591853D01*
X162357895Y-106591853D02*
X162391229Y-106525186D01*
X162391229Y-106525186D02*
X162424562Y-106491853D01*
X162424562Y-106491853D02*
X162491229Y-106458520D01*
X162491229Y-106458520D02*
X162624562Y-106425186D01*
X162624562Y-106425186D02*
X162691229Y-106391853D01*
X162691229Y-106391853D02*
X162724562Y-106358520D01*
X162724562Y-106358520D02*
X162757895Y-106291853D01*
X162757895Y-106291853D02*
X162757895Y-106225186D01*
X162757895Y-106225186D02*
X162724562Y-106158520D01*
X162724562Y-106158520D02*
X162691229Y-106125186D01*
X162691229Y-106125186D02*
X162624562Y-106091853D01*
X162624562Y-106091853D02*
X162457895Y-106091853D01*
X162457895Y-106091853D02*
X162357895Y-106125186D01*
X161657895Y-106725186D02*
X161691228Y-106758520D01*
X161691228Y-106758520D02*
X161791228Y-106791853D01*
X161791228Y-106791853D02*
X161857895Y-106791853D01*
X161857895Y-106791853D02*
X161957895Y-106758520D01*
X161957895Y-106758520D02*
X162024562Y-106691853D01*
X162024562Y-106691853D02*
X162057895Y-106625186D01*
X162057895Y-106625186D02*
X162091228Y-106491853D01*
X162091228Y-106491853D02*
X162091228Y-106391853D01*
X162091228Y-106391853D02*
X162057895Y-106258520D01*
X162057895Y-106258520D02*
X162024562Y-106191853D01*
X162024562Y-106191853D02*
X161957895Y-106125186D01*
X161957895Y-106125186D02*
X161857895Y-106091853D01*
X161857895Y-106091853D02*
X161791228Y-106091853D01*
X161791228Y-106091853D02*
X161691228Y-106125186D01*
X161691228Y-106125186D02*
X161657895Y-106158520D01*
X161024562Y-106791853D02*
X161357895Y-106791853D01*
X161357895Y-106791853D02*
X161357895Y-106091853D01*
X160857895Y-107058520D02*
X160824561Y-107025186D01*
X160824561Y-107025186D02*
X160757895Y-106925186D01*
X160757895Y-106925186D02*
X160724561Y-106858520D01*
X160724561Y-106858520D02*
X160691228Y-106758520D01*
X160691228Y-106758520D02*
X160657895Y-106591853D01*
X160657895Y-106591853D02*
X160657895Y-106458520D01*
X160657895Y-106458520D02*
X160691228Y-106291853D01*
X160691228Y-106291853D02*
X160724561Y-106191853D01*
X160724561Y-106191853D02*
X160757895Y-106125186D01*
X160757895Y-106125186D02*
X160824561Y-106025186D01*
X160824561Y-106025186D02*
X160857895Y-105991853D01*
X159791228Y-106791853D02*
X159791228Y-106091853D01*
X159791228Y-106091853D02*
X159524561Y-106091853D01*
X159524561Y-106091853D02*
X159457895Y-106125186D01*
X159457895Y-106125186D02*
X159424561Y-106158520D01*
X159424561Y-106158520D02*
X159391228Y-106225186D01*
X159391228Y-106225186D02*
X159391228Y-106325186D01*
X159391228Y-106325186D02*
X159424561Y-106391853D01*
X159424561Y-106391853D02*
X159457895Y-106425186D01*
X159457895Y-106425186D02*
X159524561Y-106458520D01*
X159524561Y-106458520D02*
X159791228Y-106458520D01*
X159124561Y-106591853D02*
X158791228Y-106591853D01*
X159191228Y-106791853D02*
X158957895Y-106091853D01*
X158957895Y-106091853D02*
X158724561Y-106791853D01*
X158124561Y-106791853D02*
X158524561Y-106791853D01*
X158324561Y-106791853D02*
X158324561Y-106091853D01*
X158324561Y-106091853D02*
X158391228Y-106191853D01*
X158391228Y-106191853D02*
X158457895Y-106258520D01*
X158457895Y-106258520D02*
X158524561Y-106291853D01*
D12*
X173904851Y-92518826D02*
X173761994Y-92566445D01*
X173761994Y-92566445D02*
X173714375Y-92614064D01*
X173714375Y-92614064D02*
X173666756Y-92709302D01*
X173666756Y-92709302D02*
X173666756Y-92852159D01*
X173666756Y-92852159D02*
X173714375Y-92947397D01*
X173714375Y-92947397D02*
X173761994Y-92995017D01*
X173761994Y-92995017D02*
X173857232Y-93042636D01*
X173857232Y-93042636D02*
X174238184Y-93042636D01*
X174238184Y-93042636D02*
X174238184Y-92042636D01*
X174238184Y-92042636D02*
X173904851Y-92042636D01*
X173904851Y-92042636D02*
X173809613Y-92090255D01*
X173809613Y-92090255D02*
X173761994Y-92137874D01*
X173761994Y-92137874D02*
X173714375Y-92233112D01*
X173714375Y-92233112D02*
X173714375Y-92328350D01*
X173714375Y-92328350D02*
X173761994Y-92423588D01*
X173761994Y-92423588D02*
X173809613Y-92471207D01*
X173809613Y-92471207D02*
X173904851Y-92518826D01*
X173904851Y-92518826D02*
X174238184Y-92518826D01*
X172857232Y-92995017D02*
X172952470Y-93042636D01*
X172952470Y-93042636D02*
X173142946Y-93042636D01*
X173142946Y-93042636D02*
X173238184Y-92995017D01*
X173238184Y-92995017D02*
X173285803Y-92899778D01*
X173285803Y-92899778D02*
X173285803Y-92518826D01*
X173285803Y-92518826D02*
X173238184Y-92423588D01*
X173238184Y-92423588D02*
X173142946Y-92375969D01*
X173142946Y-92375969D02*
X172952470Y-92375969D01*
X172952470Y-92375969D02*
X172857232Y-92423588D01*
X172857232Y-92423588D02*
X172809613Y-92518826D01*
X172809613Y-92518826D02*
X172809613Y-92614064D01*
X172809613Y-92614064D02*
X173285803Y-92709302D01*
X171952470Y-93042636D02*
X171952470Y-92518826D01*
X171952470Y-92518826D02*
X172000089Y-92423588D01*
X172000089Y-92423588D02*
X172095327Y-92375969D01*
X172095327Y-92375969D02*
X172285803Y-92375969D01*
X172285803Y-92375969D02*
X172381041Y-92423588D01*
X171952470Y-92995017D02*
X172047708Y-93042636D01*
X172047708Y-93042636D02*
X172285803Y-93042636D01*
X172285803Y-93042636D02*
X172381041Y-92995017D01*
X172381041Y-92995017D02*
X172428660Y-92899778D01*
X172428660Y-92899778D02*
X172428660Y-92804540D01*
X172428660Y-92804540D02*
X172381041Y-92709302D01*
X172381041Y-92709302D02*
X172285803Y-92661683D01*
X172285803Y-92661683D02*
X172047708Y-92661683D01*
X172047708Y-92661683D02*
X171952470Y-92614064D01*
X171047708Y-92375969D02*
X171047708Y-93185493D01*
X171047708Y-93185493D02*
X171095327Y-93280731D01*
X171095327Y-93280731D02*
X171142946Y-93328350D01*
X171142946Y-93328350D02*
X171238184Y-93375969D01*
X171238184Y-93375969D02*
X171381041Y-93375969D01*
X171381041Y-93375969D02*
X171476279Y-93328350D01*
X171047708Y-92995017D02*
X171142946Y-93042636D01*
X171142946Y-93042636D02*
X171333422Y-93042636D01*
X171333422Y-93042636D02*
X171428660Y-92995017D01*
X171428660Y-92995017D02*
X171476279Y-92947397D01*
X171476279Y-92947397D02*
X171523898Y-92852159D01*
X171523898Y-92852159D02*
X171523898Y-92566445D01*
X171523898Y-92566445D02*
X171476279Y-92471207D01*
X171476279Y-92471207D02*
X171428660Y-92423588D01*
X171428660Y-92423588D02*
X171333422Y-92375969D01*
X171333422Y-92375969D02*
X171142946Y-92375969D01*
X171142946Y-92375969D02*
X171047708Y-92423588D01*
X170428660Y-93042636D02*
X170523898Y-92995017D01*
X170523898Y-92995017D02*
X170571517Y-92899778D01*
X170571517Y-92899778D02*
X170571517Y-92042636D01*
X169666755Y-92995017D02*
X169761993Y-93042636D01*
X169761993Y-93042636D02*
X169952469Y-93042636D01*
X169952469Y-93042636D02*
X170047707Y-92995017D01*
X170047707Y-92995017D02*
X170095326Y-92899778D01*
X170095326Y-92899778D02*
X170095326Y-92518826D01*
X170095326Y-92518826D02*
X170047707Y-92423588D01*
X170047707Y-92423588D02*
X169952469Y-92375969D01*
X169952469Y-92375969D02*
X169761993Y-92375969D01*
X169761993Y-92375969D02*
X169666755Y-92423588D01*
X169666755Y-92423588D02*
X169619136Y-92518826D01*
X169619136Y-92518826D02*
X169619136Y-92614064D01*
X169619136Y-92614064D02*
X170095326Y-92709302D01*
X168857231Y-92518826D02*
X168714374Y-92566445D01*
X168714374Y-92566445D02*
X168666755Y-92614064D01*
X168666755Y-92614064D02*
X168619136Y-92709302D01*
X168619136Y-92709302D02*
X168619136Y-92852159D01*
X168619136Y-92852159D02*
X168666755Y-92947397D01*
X168666755Y-92947397D02*
X168714374Y-92995017D01*
X168714374Y-92995017D02*
X168809612Y-93042636D01*
X168809612Y-93042636D02*
X169190564Y-93042636D01*
X169190564Y-93042636D02*
X169190564Y-92042636D01*
X169190564Y-92042636D02*
X168857231Y-92042636D01*
X168857231Y-92042636D02*
X168761993Y-92090255D01*
X168761993Y-92090255D02*
X168714374Y-92137874D01*
X168714374Y-92137874D02*
X168666755Y-92233112D01*
X168666755Y-92233112D02*
X168666755Y-92328350D01*
X168666755Y-92328350D02*
X168714374Y-92423588D01*
X168714374Y-92423588D02*
X168761993Y-92471207D01*
X168761993Y-92471207D02*
X168857231Y-92518826D01*
X168857231Y-92518826D02*
X169190564Y-92518826D01*
X168047707Y-93042636D02*
X168142945Y-92995017D01*
X168142945Y-92995017D02*
X168190564Y-92947397D01*
X168190564Y-92947397D02*
X168238183Y-92852159D01*
X168238183Y-92852159D02*
X168238183Y-92566445D01*
X168238183Y-92566445D02*
X168190564Y-92471207D01*
X168190564Y-92471207D02*
X168142945Y-92423588D01*
X168142945Y-92423588D02*
X168047707Y-92375969D01*
X168047707Y-92375969D02*
X167904850Y-92375969D01*
X167904850Y-92375969D02*
X167809612Y-92423588D01*
X167809612Y-92423588D02*
X167761993Y-92471207D01*
X167761993Y-92471207D02*
X167714374Y-92566445D01*
X167714374Y-92566445D02*
X167714374Y-92852159D01*
X167714374Y-92852159D02*
X167761993Y-92947397D01*
X167761993Y-92947397D02*
X167809612Y-92995017D01*
X167809612Y-92995017D02*
X167904850Y-93042636D01*
X167904850Y-93042636D02*
X168047707Y-93042636D01*
X166857231Y-93042636D02*
X166857231Y-92518826D01*
X166857231Y-92518826D02*
X166904850Y-92423588D01*
X166904850Y-92423588D02*
X167000088Y-92375969D01*
X167000088Y-92375969D02*
X167190564Y-92375969D01*
X167190564Y-92375969D02*
X167285802Y-92423588D01*
X166857231Y-92995017D02*
X166952469Y-93042636D01*
X166952469Y-93042636D02*
X167190564Y-93042636D01*
X167190564Y-93042636D02*
X167285802Y-92995017D01*
X167285802Y-92995017D02*
X167333421Y-92899778D01*
X167333421Y-92899778D02*
X167333421Y-92804540D01*
X167333421Y-92804540D02*
X167285802Y-92709302D01*
X167285802Y-92709302D02*
X167190564Y-92661683D01*
X167190564Y-92661683D02*
X166952469Y-92661683D01*
X166952469Y-92661683D02*
X166857231Y-92614064D01*
X166381040Y-93042636D02*
X166381040Y-92375969D01*
X166381040Y-92566445D02*
X166333421Y-92471207D01*
X166333421Y-92471207D02*
X166285802Y-92423588D01*
X166285802Y-92423588D02*
X166190564Y-92375969D01*
X166190564Y-92375969D02*
X166095326Y-92375969D01*
X165333421Y-93042636D02*
X165333421Y-92042636D01*
X165333421Y-92995017D02*
X165428659Y-93042636D01*
X165428659Y-93042636D02*
X165619135Y-93042636D01*
X165619135Y-93042636D02*
X165714373Y-92995017D01*
X165714373Y-92995017D02*
X165761992Y-92947397D01*
X165761992Y-92947397D02*
X165809611Y-92852159D01*
X165809611Y-92852159D02*
X165809611Y-92566445D01*
X165809611Y-92566445D02*
X165761992Y-92471207D01*
X165761992Y-92471207D02*
X165714373Y-92423588D01*
X165714373Y-92423588D02*
X165619135Y-92375969D01*
X165619135Y-92375969D02*
X165428659Y-92375969D01*
X165428659Y-92375969D02*
X165333421Y-92423588D01*
X164857230Y-92947397D02*
X164809611Y-92995017D01*
X164809611Y-92995017D02*
X164857230Y-93042636D01*
X164857230Y-93042636D02*
X164904849Y-92995017D01*
X164904849Y-92995017D02*
X164857230Y-92947397D01*
X164857230Y-92947397D02*
X164857230Y-93042636D01*
X164238183Y-93042636D02*
X164333421Y-92995017D01*
X164333421Y-92995017D02*
X164381040Y-92947397D01*
X164381040Y-92947397D02*
X164428659Y-92852159D01*
X164428659Y-92852159D02*
X164428659Y-92566445D01*
X164428659Y-92566445D02*
X164381040Y-92471207D01*
X164381040Y-92471207D02*
X164333421Y-92423588D01*
X164333421Y-92423588D02*
X164238183Y-92375969D01*
X164238183Y-92375969D02*
X164095326Y-92375969D01*
X164095326Y-92375969D02*
X164000088Y-92423588D01*
X164000088Y-92423588D02*
X163952469Y-92471207D01*
X163952469Y-92471207D02*
X163904850Y-92566445D01*
X163904850Y-92566445D02*
X163904850Y-92852159D01*
X163904850Y-92852159D02*
X163952469Y-92947397D01*
X163952469Y-92947397D02*
X164000088Y-92995017D01*
X164000088Y-92995017D02*
X164095326Y-93042636D01*
X164095326Y-93042636D02*
X164238183Y-93042636D01*
X163476278Y-93042636D02*
X163476278Y-92375969D01*
X163476278Y-92566445D02*
X163428659Y-92471207D01*
X163428659Y-92471207D02*
X163381040Y-92423588D01*
X163381040Y-92423588D02*
X163285802Y-92375969D01*
X163285802Y-92375969D02*
X163190564Y-92375969D01*
X162428659Y-92375969D02*
X162428659Y-93185493D01*
X162428659Y-93185493D02*
X162476278Y-93280731D01*
X162476278Y-93280731D02*
X162523897Y-93328350D01*
X162523897Y-93328350D02*
X162619135Y-93375969D01*
X162619135Y-93375969D02*
X162761992Y-93375969D01*
X162761992Y-93375969D02*
X162857230Y-93328350D01*
X162428659Y-92995017D02*
X162523897Y-93042636D01*
X162523897Y-93042636D02*
X162714373Y-93042636D01*
X162714373Y-93042636D02*
X162809611Y-92995017D01*
X162809611Y-92995017D02*
X162857230Y-92947397D01*
X162857230Y-92947397D02*
X162904849Y-92852159D01*
X162904849Y-92852159D02*
X162904849Y-92566445D01*
X162904849Y-92566445D02*
X162857230Y-92471207D01*
X162857230Y-92471207D02*
X162809611Y-92423588D01*
X162809611Y-92423588D02*
X162714373Y-92375969D01*
X162714373Y-92375969D02*
X162523897Y-92375969D01*
X162523897Y-92375969D02*
X162428659Y-92423588D01*
D11*
X160457895Y-89011853D02*
X160457895Y-88311853D01*
X160457895Y-88311853D02*
X160191228Y-88311853D01*
X160191228Y-88311853D02*
X160124562Y-88345186D01*
X160124562Y-88345186D02*
X160091228Y-88378520D01*
X160091228Y-88378520D02*
X160057895Y-88445186D01*
X160057895Y-88445186D02*
X160057895Y-88545186D01*
X160057895Y-88545186D02*
X160091228Y-88611853D01*
X160091228Y-88611853D02*
X160124562Y-88645186D01*
X160124562Y-88645186D02*
X160191228Y-88678520D01*
X160191228Y-88678520D02*
X160457895Y-88678520D01*
X159791228Y-88811853D02*
X159457895Y-88811853D01*
X159857895Y-89011853D02*
X159624562Y-88311853D01*
X159624562Y-88311853D02*
X159391228Y-89011853D01*
X158791228Y-89011853D02*
X159191228Y-89011853D01*
X158991228Y-89011853D02*
X158991228Y-88311853D01*
X158991228Y-88311853D02*
X159057895Y-88411853D01*
X159057895Y-88411853D02*
X159124562Y-88478520D01*
X159124562Y-88478520D02*
X159191228Y-88511853D01*
X158191228Y-88545186D02*
X158191228Y-89011853D01*
X158357895Y-88278520D02*
X158524561Y-88778520D01*
X158524561Y-88778520D02*
X158091228Y-88778520D01*
X178401228Y-99171853D02*
X178401228Y-98471853D01*
X178401228Y-98471853D02*
X178134561Y-98471853D01*
X178134561Y-98471853D02*
X178067895Y-98505186D01*
X178067895Y-98505186D02*
X178034561Y-98538520D01*
X178034561Y-98538520D02*
X178001228Y-98605186D01*
X178001228Y-98605186D02*
X178001228Y-98705186D01*
X178001228Y-98705186D02*
X178034561Y-98771853D01*
X178034561Y-98771853D02*
X178067895Y-98805186D01*
X178067895Y-98805186D02*
X178134561Y-98838520D01*
X178134561Y-98838520D02*
X178401228Y-98838520D01*
X177734561Y-98971853D02*
X177401228Y-98971853D01*
X177801228Y-99171853D02*
X177567895Y-98471853D01*
X177567895Y-98471853D02*
X177334561Y-99171853D01*
X177134561Y-98538520D02*
X177101228Y-98505186D01*
X177101228Y-98505186D02*
X177034561Y-98471853D01*
X177034561Y-98471853D02*
X176867895Y-98471853D01*
X176867895Y-98471853D02*
X176801228Y-98505186D01*
X176801228Y-98505186D02*
X176767895Y-98538520D01*
X176767895Y-98538520D02*
X176734561Y-98605186D01*
X176734561Y-98605186D02*
X176734561Y-98671853D01*
X176734561Y-98671853D02*
X176767895Y-98771853D01*
X176767895Y-98771853D02*
X177167895Y-99171853D01*
X177167895Y-99171853D02*
X176734561Y-99171853D01*
X176467894Y-98538520D02*
X176434561Y-98505186D01*
X176434561Y-98505186D02*
X176367894Y-98471853D01*
X176367894Y-98471853D02*
X176201228Y-98471853D01*
X176201228Y-98471853D02*
X176134561Y-98505186D01*
X176134561Y-98505186D02*
X176101228Y-98538520D01*
X176101228Y-98538520D02*
X176067894Y-98605186D01*
X176067894Y-98605186D02*
X176067894Y-98671853D01*
X176067894Y-98671853D02*
X176101228Y-98771853D01*
X176101228Y-98771853D02*
X176501228Y-99171853D01*
X176501228Y-99171853D02*
X176067894Y-99171853D01*
X175034561Y-99438520D02*
X175067894Y-99405186D01*
X175067894Y-99405186D02*
X175134561Y-99305186D01*
X175134561Y-99305186D02*
X175167894Y-99238520D01*
X175167894Y-99238520D02*
X175201228Y-99138520D01*
X175201228Y-99138520D02*
X175234561Y-98971853D01*
X175234561Y-98971853D02*
X175234561Y-98838520D01*
X175234561Y-98838520D02*
X175201228Y-98671853D01*
X175201228Y-98671853D02*
X175167894Y-98571853D01*
X175167894Y-98571853D02*
X175134561Y-98505186D01*
X175134561Y-98505186D02*
X175067894Y-98405186D01*
X175067894Y-98405186D02*
X175034561Y-98371853D01*
X174367894Y-99171853D02*
X174601227Y-98838520D01*
X174767894Y-99171853D02*
X174767894Y-98471853D01*
X174767894Y-98471853D02*
X174501227Y-98471853D01*
X174501227Y-98471853D02*
X174434561Y-98505186D01*
X174434561Y-98505186D02*
X174401227Y-98538520D01*
X174401227Y-98538520D02*
X174367894Y-98605186D01*
X174367894Y-98605186D02*
X174367894Y-98705186D01*
X174367894Y-98705186D02*
X174401227Y-98771853D01*
X174401227Y-98771853D02*
X174434561Y-98805186D01*
X174434561Y-98805186D02*
X174501227Y-98838520D01*
X174501227Y-98838520D02*
X174767894Y-98838520D01*
X174101227Y-99138520D02*
X174001227Y-99171853D01*
X174001227Y-99171853D02*
X173834561Y-99171853D01*
X173834561Y-99171853D02*
X173767894Y-99138520D01*
X173767894Y-99138520D02*
X173734561Y-99105186D01*
X173734561Y-99105186D02*
X173701227Y-99038520D01*
X173701227Y-99038520D02*
X173701227Y-98971853D01*
X173701227Y-98971853D02*
X173734561Y-98905186D01*
X173734561Y-98905186D02*
X173767894Y-98871853D01*
X173767894Y-98871853D02*
X173834561Y-98838520D01*
X173834561Y-98838520D02*
X173967894Y-98805186D01*
X173967894Y-98805186D02*
X174034561Y-98771853D01*
X174034561Y-98771853D02*
X174067894Y-98738520D01*
X174067894Y-98738520D02*
X174101227Y-98671853D01*
X174101227Y-98671853D02*
X174101227Y-98605186D01*
X174101227Y-98605186D02*
X174067894Y-98538520D01*
X174067894Y-98538520D02*
X174034561Y-98505186D01*
X174034561Y-98505186D02*
X173967894Y-98471853D01*
X173967894Y-98471853D02*
X173801227Y-98471853D01*
X173801227Y-98471853D02*
X173701227Y-98505186D01*
X173501227Y-98471853D02*
X173101227Y-98471853D01*
X173301227Y-99171853D02*
X173301227Y-98471853D01*
X172934561Y-99438520D02*
X172901227Y-99405186D01*
X172901227Y-99405186D02*
X172834561Y-99305186D01*
X172834561Y-99305186D02*
X172801227Y-99238520D01*
X172801227Y-99238520D02*
X172767894Y-99138520D01*
X172767894Y-99138520D02*
X172734561Y-98971853D01*
X172734561Y-98971853D02*
X172734561Y-98838520D01*
X172734561Y-98838520D02*
X172767894Y-98671853D01*
X172767894Y-98671853D02*
X172801227Y-98571853D01*
X172801227Y-98571853D02*
X172834561Y-98505186D01*
X172834561Y-98505186D02*
X172901227Y-98405186D01*
X172901227Y-98405186D02*
X172934561Y-98371853D01*
X160457895Y-91551853D02*
X160457895Y-90851853D01*
X160457895Y-90851853D02*
X160191228Y-90851853D01*
X160191228Y-90851853D02*
X160124562Y-90885186D01*
X160124562Y-90885186D02*
X160091228Y-90918520D01*
X160091228Y-90918520D02*
X160057895Y-90985186D01*
X160057895Y-90985186D02*
X160057895Y-91085186D01*
X160057895Y-91085186D02*
X160091228Y-91151853D01*
X160091228Y-91151853D02*
X160124562Y-91185186D01*
X160124562Y-91185186D02*
X160191228Y-91218520D01*
X160191228Y-91218520D02*
X160457895Y-91218520D01*
X159791228Y-91351853D02*
X159457895Y-91351853D01*
X159857895Y-91551853D02*
X159624562Y-90851853D01*
X159624562Y-90851853D02*
X159391228Y-91551853D01*
X158791228Y-91551853D02*
X159191228Y-91551853D01*
X158991228Y-91551853D02*
X158991228Y-90851853D01*
X158991228Y-90851853D02*
X159057895Y-90951853D01*
X159057895Y-90951853D02*
X159124562Y-91018520D01*
X159124562Y-91018520D02*
X159191228Y-91051853D01*
X158557895Y-90851853D02*
X158124561Y-90851853D01*
X158124561Y-90851853D02*
X158357895Y-91118520D01*
X158357895Y-91118520D02*
X158257895Y-91118520D01*
X158257895Y-91118520D02*
X158191228Y-91151853D01*
X158191228Y-91151853D02*
X158157895Y-91185186D01*
X158157895Y-91185186D02*
X158124561Y-91251853D01*
X158124561Y-91251853D02*
X158124561Y-91418520D01*
X158124561Y-91418520D02*
X158157895Y-91485186D01*
X158157895Y-91485186D02*
X158191228Y-91518520D01*
X158191228Y-91518520D02*
X158257895Y-91551853D01*
X158257895Y-91551853D02*
X158457895Y-91551853D01*
X158457895Y-91551853D02*
X158524561Y-91518520D01*
X158524561Y-91518520D02*
X158557895Y-91485186D01*
X162257895Y-104518520D02*
X162291228Y-104485186D01*
X162291228Y-104485186D02*
X162357895Y-104385186D01*
X162357895Y-104385186D02*
X162391228Y-104318520D01*
X162391228Y-104318520D02*
X162424562Y-104218520D01*
X162424562Y-104218520D02*
X162457895Y-104051853D01*
X162457895Y-104051853D02*
X162457895Y-103918520D01*
X162457895Y-103918520D02*
X162424562Y-103751853D01*
X162424562Y-103751853D02*
X162391228Y-103651853D01*
X162391228Y-103651853D02*
X162357895Y-103585186D01*
X162357895Y-103585186D02*
X162291228Y-103485186D01*
X162291228Y-103485186D02*
X162257895Y-103451853D01*
X162091228Y-103551853D02*
X161691228Y-103551853D01*
X161891228Y-104251853D02*
X161891228Y-103551853D01*
X161524562Y-103551853D02*
X161057895Y-104251853D01*
X161057895Y-103551853D02*
X161524562Y-104251853D01*
X160857895Y-104518520D02*
X160824561Y-104485186D01*
X160824561Y-104485186D02*
X160757895Y-104385186D01*
X160757895Y-104385186D02*
X160724561Y-104318520D01*
X160724561Y-104318520D02*
X160691228Y-104218520D01*
X160691228Y-104218520D02*
X160657895Y-104051853D01*
X160657895Y-104051853D02*
X160657895Y-103918520D01*
X160657895Y-103918520D02*
X160691228Y-103751853D01*
X160691228Y-103751853D02*
X160724561Y-103651853D01*
X160724561Y-103651853D02*
X160757895Y-103585186D01*
X160757895Y-103585186D02*
X160824561Y-103485186D01*
X160824561Y-103485186D02*
X160857895Y-103451853D01*
X159791228Y-104251853D02*
X159791228Y-103551853D01*
X159791228Y-103551853D02*
X159524561Y-103551853D01*
X159524561Y-103551853D02*
X159457895Y-103585186D01*
X159457895Y-103585186D02*
X159424561Y-103618520D01*
X159424561Y-103618520D02*
X159391228Y-103685186D01*
X159391228Y-103685186D02*
X159391228Y-103785186D01*
X159391228Y-103785186D02*
X159424561Y-103851853D01*
X159424561Y-103851853D02*
X159457895Y-103885186D01*
X159457895Y-103885186D02*
X159524561Y-103918520D01*
X159524561Y-103918520D02*
X159791228Y-103918520D01*
X159124561Y-104051853D02*
X158791228Y-104051853D01*
X159191228Y-104251853D02*
X158957895Y-103551853D01*
X158957895Y-103551853D02*
X158724561Y-104251853D01*
X158457895Y-104251853D02*
X158324561Y-104251853D01*
X158324561Y-104251853D02*
X158257895Y-104218520D01*
X158257895Y-104218520D02*
X158224561Y-104185186D01*
X158224561Y-104185186D02*
X158157895Y-104085186D01*
X158157895Y-104085186D02*
X158124561Y-103951853D01*
X158124561Y-103951853D02*
X158124561Y-103685186D01*
X158124561Y-103685186D02*
X158157895Y-103618520D01*
X158157895Y-103618520D02*
X158191228Y-103585186D01*
X158191228Y-103585186D02*
X158257895Y-103551853D01*
X158257895Y-103551853D02*
X158391228Y-103551853D01*
X158391228Y-103551853D02*
X158457895Y-103585186D01*
X158457895Y-103585186D02*
X158491228Y-103618520D01*
X158491228Y-103618520D02*
X158524561Y-103685186D01*
X158524561Y-103685186D02*
X158524561Y-103851853D01*
X158524561Y-103851853D02*
X158491228Y-103918520D01*
X158491228Y-103918520D02*
X158457895Y-103951853D01*
X158457895Y-103951853D02*
X158391228Y-103985186D01*
X158391228Y-103985186D02*
X158257895Y-103985186D01*
X158257895Y-103985186D02*
X158191228Y-103951853D01*
X158191228Y-103951853D02*
X158157895Y-103918520D01*
X158157895Y-103918520D02*
X158124561Y-103851853D01*
X178401228Y-94091853D02*
X178401228Y-93391853D01*
X178401228Y-93391853D02*
X178134561Y-93391853D01*
X178134561Y-93391853D02*
X178067895Y-93425186D01*
X178067895Y-93425186D02*
X178034561Y-93458520D01*
X178034561Y-93458520D02*
X178001228Y-93525186D01*
X178001228Y-93525186D02*
X178001228Y-93625186D01*
X178001228Y-93625186D02*
X178034561Y-93691853D01*
X178034561Y-93691853D02*
X178067895Y-93725186D01*
X178067895Y-93725186D02*
X178134561Y-93758520D01*
X178134561Y-93758520D02*
X178401228Y-93758520D01*
X177734561Y-93891853D02*
X177401228Y-93891853D01*
X177801228Y-94091853D02*
X177567895Y-93391853D01*
X177567895Y-93391853D02*
X177334561Y-94091853D01*
X177134561Y-93458520D02*
X177101228Y-93425186D01*
X177101228Y-93425186D02*
X177034561Y-93391853D01*
X177034561Y-93391853D02*
X176867895Y-93391853D01*
X176867895Y-93391853D02*
X176801228Y-93425186D01*
X176801228Y-93425186D02*
X176767895Y-93458520D01*
X176767895Y-93458520D02*
X176734561Y-93525186D01*
X176734561Y-93525186D02*
X176734561Y-93591853D01*
X176734561Y-93591853D02*
X176767895Y-93691853D01*
X176767895Y-93691853D02*
X177167895Y-94091853D01*
X177167895Y-94091853D02*
X176734561Y-94091853D01*
X176101228Y-93391853D02*
X176434561Y-93391853D01*
X176434561Y-93391853D02*
X176467894Y-93725186D01*
X176467894Y-93725186D02*
X176434561Y-93691853D01*
X176434561Y-93691853D02*
X176367894Y-93658520D01*
X176367894Y-93658520D02*
X176201228Y-93658520D01*
X176201228Y-93658520D02*
X176134561Y-93691853D01*
X176134561Y-93691853D02*
X176101228Y-93725186D01*
X176101228Y-93725186D02*
X176067894Y-93791853D01*
X176067894Y-93791853D02*
X176067894Y-93958520D01*
X176067894Y-93958520D02*
X176101228Y-94025186D01*
X176101228Y-94025186D02*
X176134561Y-94058520D01*
X176134561Y-94058520D02*
X176201228Y-94091853D01*
X176201228Y-94091853D02*
X176367894Y-94091853D01*
X176367894Y-94091853D02*
X176434561Y-94058520D01*
X176434561Y-94058520D02*
X176467894Y-94025186D01*
X163324561Y-99438520D02*
X163357894Y-99405186D01*
X163357894Y-99405186D02*
X163424561Y-99305186D01*
X163424561Y-99305186D02*
X163457894Y-99238520D01*
X163457894Y-99238520D02*
X163491228Y-99138520D01*
X163491228Y-99138520D02*
X163524561Y-98971853D01*
X163524561Y-98971853D02*
X163524561Y-98838520D01*
X163524561Y-98838520D02*
X163491228Y-98671853D01*
X163491228Y-98671853D02*
X163457894Y-98571853D01*
X163457894Y-98571853D02*
X163424561Y-98505186D01*
X163424561Y-98505186D02*
X163357894Y-98405186D01*
X163357894Y-98405186D02*
X163324561Y-98371853D01*
X163057894Y-99171853D02*
X163057894Y-98471853D01*
X162724561Y-99171853D02*
X162724561Y-98471853D01*
X162724561Y-98471853D02*
X162324561Y-99171853D01*
X162324561Y-99171853D02*
X162324561Y-98471853D01*
X162091228Y-98471853D02*
X161691228Y-98471853D01*
X161891228Y-99171853D02*
X161891228Y-98471853D01*
X161524562Y-99438520D02*
X161491228Y-99405186D01*
X161491228Y-99405186D02*
X161424562Y-99305186D01*
X161424562Y-99305186D02*
X161391228Y-99238520D01*
X161391228Y-99238520D02*
X161357895Y-99138520D01*
X161357895Y-99138520D02*
X161324562Y-98971853D01*
X161324562Y-98971853D02*
X161324562Y-98838520D01*
X161324562Y-98838520D02*
X161357895Y-98671853D01*
X161357895Y-98671853D02*
X161391228Y-98571853D01*
X161391228Y-98571853D02*
X161424562Y-98505186D01*
X161424562Y-98505186D02*
X161491228Y-98405186D01*
X161491228Y-98405186D02*
X161524562Y-98371853D01*
X160457895Y-99171853D02*
X160457895Y-98471853D01*
X160457895Y-98471853D02*
X160191228Y-98471853D01*
X160191228Y-98471853D02*
X160124562Y-98505186D01*
X160124562Y-98505186D02*
X160091228Y-98538520D01*
X160091228Y-98538520D02*
X160057895Y-98605186D01*
X160057895Y-98605186D02*
X160057895Y-98705186D01*
X160057895Y-98705186D02*
X160091228Y-98771853D01*
X160091228Y-98771853D02*
X160124562Y-98805186D01*
X160124562Y-98805186D02*
X160191228Y-98838520D01*
X160191228Y-98838520D02*
X160457895Y-98838520D01*
X159791228Y-98971853D02*
X159457895Y-98971853D01*
X159857895Y-99171853D02*
X159624562Y-98471853D01*
X159624562Y-98471853D02*
X159391228Y-99171853D01*
X159191228Y-98538520D02*
X159157895Y-98505186D01*
X159157895Y-98505186D02*
X159091228Y-98471853D01*
X159091228Y-98471853D02*
X158924562Y-98471853D01*
X158924562Y-98471853D02*
X158857895Y-98505186D01*
X158857895Y-98505186D02*
X158824562Y-98538520D01*
X158824562Y-98538520D02*
X158791228Y-98605186D01*
X158791228Y-98605186D02*
X158791228Y-98671853D01*
X158791228Y-98671853D02*
X158824562Y-98771853D01*
X158824562Y-98771853D02*
X159224562Y-99171853D01*
X159224562Y-99171853D02*
X158791228Y-99171853D01*
X158557895Y-98471853D02*
X158124561Y-98471853D01*
X158124561Y-98471853D02*
X158357895Y-98738520D01*
X158357895Y-98738520D02*
X158257895Y-98738520D01*
X158257895Y-98738520D02*
X158191228Y-98771853D01*
X158191228Y-98771853D02*
X158157895Y-98805186D01*
X158157895Y-98805186D02*
X158124561Y-98871853D01*
X158124561Y-98871853D02*
X158124561Y-99038520D01*
X158124561Y-99038520D02*
X158157895Y-99105186D01*
X158157895Y-99105186D02*
X158191228Y-99138520D01*
X158191228Y-99138520D02*
X158257895Y-99171853D01*
X158257895Y-99171853D02*
X158457895Y-99171853D01*
X158457895Y-99171853D02*
X158524561Y-99138520D01*
X158524561Y-99138520D02*
X158557895Y-99105186D01*
X178401228Y-91551853D02*
X178401228Y-90851853D01*
X178401228Y-90851853D02*
X178134561Y-90851853D01*
X178134561Y-90851853D02*
X178067895Y-90885186D01*
X178067895Y-90885186D02*
X178034561Y-90918520D01*
X178034561Y-90918520D02*
X178001228Y-90985186D01*
X178001228Y-90985186D02*
X178001228Y-91085186D01*
X178001228Y-91085186D02*
X178034561Y-91151853D01*
X178034561Y-91151853D02*
X178067895Y-91185186D01*
X178067895Y-91185186D02*
X178134561Y-91218520D01*
X178134561Y-91218520D02*
X178401228Y-91218520D01*
X177734561Y-91351853D02*
X177401228Y-91351853D01*
X177801228Y-91551853D02*
X177567895Y-90851853D01*
X177567895Y-90851853D02*
X177334561Y-91551853D01*
X177134561Y-90918520D02*
X177101228Y-90885186D01*
X177101228Y-90885186D02*
X177034561Y-90851853D01*
X177034561Y-90851853D02*
X176867895Y-90851853D01*
X176867895Y-90851853D02*
X176801228Y-90885186D01*
X176801228Y-90885186D02*
X176767895Y-90918520D01*
X176767895Y-90918520D02*
X176734561Y-90985186D01*
X176734561Y-90985186D02*
X176734561Y-91051853D01*
X176734561Y-91051853D02*
X176767895Y-91151853D01*
X176767895Y-91151853D02*
X177167895Y-91551853D01*
X177167895Y-91551853D02*
X176734561Y-91551853D01*
X176134561Y-90851853D02*
X176267894Y-90851853D01*
X176267894Y-90851853D02*
X176334561Y-90885186D01*
X176334561Y-90885186D02*
X176367894Y-90918520D01*
X176367894Y-90918520D02*
X176434561Y-91018520D01*
X176434561Y-91018520D02*
X176467894Y-91151853D01*
X176467894Y-91151853D02*
X176467894Y-91418520D01*
X176467894Y-91418520D02*
X176434561Y-91485186D01*
X176434561Y-91485186D02*
X176401228Y-91518520D01*
X176401228Y-91518520D02*
X176334561Y-91551853D01*
X176334561Y-91551853D02*
X176201228Y-91551853D01*
X176201228Y-91551853D02*
X176134561Y-91518520D01*
X176134561Y-91518520D02*
X176101228Y-91485186D01*
X176101228Y-91485186D02*
X176067894Y-91418520D01*
X176067894Y-91418520D02*
X176067894Y-91251853D01*
X176067894Y-91251853D02*
X176101228Y-91185186D01*
X176101228Y-91185186D02*
X176134561Y-91151853D01*
X176134561Y-91151853D02*
X176201228Y-91118520D01*
X176201228Y-91118520D02*
X176334561Y-91118520D01*
X176334561Y-91118520D02*
X176401228Y-91151853D01*
X176401228Y-91151853D02*
X176434561Y-91185186D01*
X176434561Y-91185186D02*
X176467894Y-91251853D01*
D12*
X173285804Y-87301778D02*
X173142947Y-87349397D01*
X173142947Y-87349397D02*
X173095328Y-87397016D01*
X173095328Y-87397016D02*
X173047709Y-87492254D01*
X173047709Y-87492254D02*
X173047709Y-87635111D01*
X173047709Y-87635111D02*
X173095328Y-87730349D01*
X173095328Y-87730349D02*
X173142947Y-87777969D01*
X173142947Y-87777969D02*
X173238185Y-87825588D01*
X173238185Y-87825588D02*
X173619137Y-87825588D01*
X173619137Y-87825588D02*
X173619137Y-86825588D01*
X173619137Y-86825588D02*
X173285804Y-86825588D01*
X173285804Y-86825588D02*
X173190566Y-86873207D01*
X173190566Y-86873207D02*
X173142947Y-86920826D01*
X173142947Y-86920826D02*
X173095328Y-87016064D01*
X173095328Y-87016064D02*
X173095328Y-87111302D01*
X173095328Y-87111302D02*
X173142947Y-87206540D01*
X173142947Y-87206540D02*
X173190566Y-87254159D01*
X173190566Y-87254159D02*
X173285804Y-87301778D01*
X173285804Y-87301778D02*
X173619137Y-87301778D01*
X172238185Y-87777969D02*
X172333423Y-87825588D01*
X172333423Y-87825588D02*
X172523899Y-87825588D01*
X172523899Y-87825588D02*
X172619137Y-87777969D01*
X172619137Y-87777969D02*
X172666756Y-87682730D01*
X172666756Y-87682730D02*
X172666756Y-87301778D01*
X172666756Y-87301778D02*
X172619137Y-87206540D01*
X172619137Y-87206540D02*
X172523899Y-87158921D01*
X172523899Y-87158921D02*
X172333423Y-87158921D01*
X172333423Y-87158921D02*
X172238185Y-87206540D01*
X172238185Y-87206540D02*
X172190566Y-87301778D01*
X172190566Y-87301778D02*
X172190566Y-87397016D01*
X172190566Y-87397016D02*
X172666756Y-87492254D01*
X171333423Y-87825588D02*
X171333423Y-87301778D01*
X171333423Y-87301778D02*
X171381042Y-87206540D01*
X171381042Y-87206540D02*
X171476280Y-87158921D01*
X171476280Y-87158921D02*
X171666756Y-87158921D01*
X171666756Y-87158921D02*
X171761994Y-87206540D01*
X171333423Y-87777969D02*
X171428661Y-87825588D01*
X171428661Y-87825588D02*
X171666756Y-87825588D01*
X171666756Y-87825588D02*
X171761994Y-87777969D01*
X171761994Y-87777969D02*
X171809613Y-87682730D01*
X171809613Y-87682730D02*
X171809613Y-87587492D01*
X171809613Y-87587492D02*
X171761994Y-87492254D01*
X171761994Y-87492254D02*
X171666756Y-87444635D01*
X171666756Y-87444635D02*
X171428661Y-87444635D01*
X171428661Y-87444635D02*
X171333423Y-87397016D01*
X170428661Y-87158921D02*
X170428661Y-87968445D01*
X170428661Y-87968445D02*
X170476280Y-88063683D01*
X170476280Y-88063683D02*
X170523899Y-88111302D01*
X170523899Y-88111302D02*
X170619137Y-88158921D01*
X170619137Y-88158921D02*
X170761994Y-88158921D01*
X170761994Y-88158921D02*
X170857232Y-88111302D01*
X170428661Y-87777969D02*
X170523899Y-87825588D01*
X170523899Y-87825588D02*
X170714375Y-87825588D01*
X170714375Y-87825588D02*
X170809613Y-87777969D01*
X170809613Y-87777969D02*
X170857232Y-87730349D01*
X170857232Y-87730349D02*
X170904851Y-87635111D01*
X170904851Y-87635111D02*
X170904851Y-87349397D01*
X170904851Y-87349397D02*
X170857232Y-87254159D01*
X170857232Y-87254159D02*
X170809613Y-87206540D01*
X170809613Y-87206540D02*
X170714375Y-87158921D01*
X170714375Y-87158921D02*
X170523899Y-87158921D01*
X170523899Y-87158921D02*
X170428661Y-87206540D01*
X169809613Y-87825588D02*
X169904851Y-87777969D01*
X169904851Y-87777969D02*
X169952470Y-87682730D01*
X169952470Y-87682730D02*
X169952470Y-86825588D01*
X169047708Y-87777969D02*
X169142946Y-87825588D01*
X169142946Y-87825588D02*
X169333422Y-87825588D01*
X169333422Y-87825588D02*
X169428660Y-87777969D01*
X169428660Y-87777969D02*
X169476279Y-87682730D01*
X169476279Y-87682730D02*
X169476279Y-87301778D01*
X169476279Y-87301778D02*
X169428660Y-87206540D01*
X169428660Y-87206540D02*
X169333422Y-87158921D01*
X169333422Y-87158921D02*
X169142946Y-87158921D01*
X169142946Y-87158921D02*
X169047708Y-87206540D01*
X169047708Y-87206540D02*
X169000089Y-87301778D01*
X169000089Y-87301778D02*
X169000089Y-87397016D01*
X169000089Y-87397016D02*
X169476279Y-87492254D01*
X168000089Y-87730349D02*
X168047708Y-87777969D01*
X168047708Y-87777969D02*
X168190565Y-87825588D01*
X168190565Y-87825588D02*
X168285803Y-87825588D01*
X168285803Y-87825588D02*
X168428660Y-87777969D01*
X168428660Y-87777969D02*
X168523898Y-87682730D01*
X168523898Y-87682730D02*
X168571517Y-87587492D01*
X168571517Y-87587492D02*
X168619136Y-87397016D01*
X168619136Y-87397016D02*
X168619136Y-87254159D01*
X168619136Y-87254159D02*
X168571517Y-87063683D01*
X168571517Y-87063683D02*
X168523898Y-86968445D01*
X168523898Y-86968445D02*
X168428660Y-86873207D01*
X168428660Y-86873207D02*
X168285803Y-86825588D01*
X168285803Y-86825588D02*
X168190565Y-86825588D01*
X168190565Y-86825588D02*
X168047708Y-86873207D01*
X168047708Y-86873207D02*
X168000089Y-86920826D01*
X167428660Y-87825588D02*
X167523898Y-87777969D01*
X167523898Y-87777969D02*
X167571517Y-87730349D01*
X167571517Y-87730349D02*
X167619136Y-87635111D01*
X167619136Y-87635111D02*
X167619136Y-87349397D01*
X167619136Y-87349397D02*
X167571517Y-87254159D01*
X167571517Y-87254159D02*
X167523898Y-87206540D01*
X167523898Y-87206540D02*
X167428660Y-87158921D01*
X167428660Y-87158921D02*
X167285803Y-87158921D01*
X167285803Y-87158921D02*
X167190565Y-87206540D01*
X167190565Y-87206540D02*
X167142946Y-87254159D01*
X167142946Y-87254159D02*
X167095327Y-87349397D01*
X167095327Y-87349397D02*
X167095327Y-87635111D01*
X167095327Y-87635111D02*
X167142946Y-87730349D01*
X167142946Y-87730349D02*
X167190565Y-87777969D01*
X167190565Y-87777969D02*
X167285803Y-87825588D01*
X167285803Y-87825588D02*
X167428660Y-87825588D01*
X166666755Y-87158921D02*
X166666755Y-87825588D01*
X166666755Y-87254159D02*
X166619136Y-87206540D01*
X166619136Y-87206540D02*
X166523898Y-87158921D01*
X166523898Y-87158921D02*
X166381041Y-87158921D01*
X166381041Y-87158921D02*
X166285803Y-87206540D01*
X166285803Y-87206540D02*
X166238184Y-87301778D01*
X166238184Y-87301778D02*
X166238184Y-87825588D01*
X165761993Y-87158921D02*
X165761993Y-87825588D01*
X165761993Y-87254159D02*
X165714374Y-87206540D01*
X165714374Y-87206540D02*
X165619136Y-87158921D01*
X165619136Y-87158921D02*
X165476279Y-87158921D01*
X165476279Y-87158921D02*
X165381041Y-87206540D01*
X165381041Y-87206540D02*
X165333422Y-87301778D01*
X165333422Y-87301778D02*
X165333422Y-87825588D01*
X164476279Y-87777969D02*
X164571517Y-87825588D01*
X164571517Y-87825588D02*
X164761993Y-87825588D01*
X164761993Y-87825588D02*
X164857231Y-87777969D01*
X164857231Y-87777969D02*
X164904850Y-87682730D01*
X164904850Y-87682730D02*
X164904850Y-87301778D01*
X164904850Y-87301778D02*
X164857231Y-87206540D01*
X164857231Y-87206540D02*
X164761993Y-87158921D01*
X164761993Y-87158921D02*
X164571517Y-87158921D01*
X164571517Y-87158921D02*
X164476279Y-87206540D01*
X164476279Y-87206540D02*
X164428660Y-87301778D01*
X164428660Y-87301778D02*
X164428660Y-87397016D01*
X164428660Y-87397016D02*
X164904850Y-87492254D01*
X163571517Y-87777969D02*
X163666755Y-87825588D01*
X163666755Y-87825588D02*
X163857231Y-87825588D01*
X163857231Y-87825588D02*
X163952469Y-87777969D01*
X163952469Y-87777969D02*
X164000088Y-87730349D01*
X164000088Y-87730349D02*
X164047707Y-87635111D01*
X164047707Y-87635111D02*
X164047707Y-87349397D01*
X164047707Y-87349397D02*
X164000088Y-87254159D01*
X164000088Y-87254159D02*
X163952469Y-87206540D01*
X163952469Y-87206540D02*
X163857231Y-87158921D01*
X163857231Y-87158921D02*
X163666755Y-87158921D01*
X163666755Y-87158921D02*
X163571517Y-87206540D01*
X163285802Y-87158921D02*
X162904850Y-87158921D01*
X163142945Y-86825588D02*
X163142945Y-87682730D01*
X163142945Y-87682730D02*
X163095326Y-87777969D01*
X163095326Y-87777969D02*
X163000088Y-87825588D01*
X163000088Y-87825588D02*
X162904850Y-87825588D01*
D11*
X160457895Y-94091853D02*
X160457895Y-93391853D01*
X160457895Y-93391853D02*
X160191228Y-93391853D01*
X160191228Y-93391853D02*
X160124562Y-93425186D01*
X160124562Y-93425186D02*
X160091228Y-93458520D01*
X160091228Y-93458520D02*
X160057895Y-93525186D01*
X160057895Y-93525186D02*
X160057895Y-93625186D01*
X160057895Y-93625186D02*
X160091228Y-93691853D01*
X160091228Y-93691853D02*
X160124562Y-93725186D01*
X160124562Y-93725186D02*
X160191228Y-93758520D01*
X160191228Y-93758520D02*
X160457895Y-93758520D01*
X159791228Y-93891853D02*
X159457895Y-93891853D01*
X159857895Y-94091853D02*
X159624562Y-93391853D01*
X159624562Y-93391853D02*
X159391228Y-94091853D01*
X158791228Y-94091853D02*
X159191228Y-94091853D01*
X158991228Y-94091853D02*
X158991228Y-93391853D01*
X158991228Y-93391853D02*
X159057895Y-93491853D01*
X159057895Y-93491853D02*
X159124562Y-93558520D01*
X159124562Y-93558520D02*
X159191228Y-93591853D01*
X158524561Y-93458520D02*
X158491228Y-93425186D01*
X158491228Y-93425186D02*
X158424561Y-93391853D01*
X158424561Y-93391853D02*
X158257895Y-93391853D01*
X158257895Y-93391853D02*
X158191228Y-93425186D01*
X158191228Y-93425186D02*
X158157895Y-93458520D01*
X158157895Y-93458520D02*
X158124561Y-93525186D01*
X158124561Y-93525186D02*
X158124561Y-93591853D01*
X158124561Y-93591853D02*
X158157895Y-93691853D01*
X158157895Y-93691853D02*
X158557895Y-94091853D01*
X158557895Y-94091853D02*
X158124561Y-94091853D01*
X178401228Y-109331853D02*
X178401228Y-108631853D01*
X178401228Y-108631853D02*
X178134561Y-108631853D01*
X178134561Y-108631853D02*
X178067895Y-108665186D01*
X178067895Y-108665186D02*
X178034561Y-108698520D01*
X178034561Y-108698520D02*
X178001228Y-108765186D01*
X178001228Y-108765186D02*
X178001228Y-108865186D01*
X178001228Y-108865186D02*
X178034561Y-108931853D01*
X178034561Y-108931853D02*
X178067895Y-108965186D01*
X178067895Y-108965186D02*
X178134561Y-108998520D01*
X178134561Y-108998520D02*
X178401228Y-108998520D01*
X177734561Y-109131853D02*
X177401228Y-109131853D01*
X177801228Y-109331853D02*
X177567895Y-108631853D01*
X177567895Y-108631853D02*
X177334561Y-109331853D01*
X176767895Y-108631853D02*
X177101228Y-108631853D01*
X177101228Y-108631853D02*
X177134561Y-108965186D01*
X177134561Y-108965186D02*
X177101228Y-108931853D01*
X177101228Y-108931853D02*
X177034561Y-108898520D01*
X177034561Y-108898520D02*
X176867895Y-108898520D01*
X176867895Y-108898520D02*
X176801228Y-108931853D01*
X176801228Y-108931853D02*
X176767895Y-108965186D01*
X176767895Y-108965186D02*
X176734561Y-109031853D01*
X176734561Y-109031853D02*
X176734561Y-109198520D01*
X176734561Y-109198520D02*
X176767895Y-109265186D01*
X176767895Y-109265186D02*
X176801228Y-109298520D01*
X176801228Y-109298520D02*
X176867895Y-109331853D01*
X176867895Y-109331853D02*
X177034561Y-109331853D01*
X177034561Y-109331853D02*
X177101228Y-109298520D01*
X177101228Y-109298520D02*
X177134561Y-109265186D01*
X175701228Y-109598520D02*
X175734561Y-109565186D01*
X175734561Y-109565186D02*
X175801228Y-109465186D01*
X175801228Y-109465186D02*
X175834561Y-109398520D01*
X175834561Y-109398520D02*
X175867895Y-109298520D01*
X175867895Y-109298520D02*
X175901228Y-109131853D01*
X175901228Y-109131853D02*
X175901228Y-108998520D01*
X175901228Y-108998520D02*
X175867895Y-108831853D01*
X175867895Y-108831853D02*
X175834561Y-108731853D01*
X175834561Y-108731853D02*
X175801228Y-108665186D01*
X175801228Y-108665186D02*
X175734561Y-108565186D01*
X175734561Y-108565186D02*
X175701228Y-108531853D01*
X175434561Y-109331853D02*
X175434561Y-108631853D01*
X175434561Y-108631853D02*
X175201228Y-109131853D01*
X175201228Y-109131853D02*
X174967894Y-108631853D01*
X174967894Y-108631853D02*
X174967894Y-109331853D01*
X174501228Y-108631853D02*
X174367894Y-108631853D01*
X174367894Y-108631853D02*
X174301228Y-108665186D01*
X174301228Y-108665186D02*
X174234561Y-108731853D01*
X174234561Y-108731853D02*
X174201228Y-108865186D01*
X174201228Y-108865186D02*
X174201228Y-109098520D01*
X174201228Y-109098520D02*
X174234561Y-109231853D01*
X174234561Y-109231853D02*
X174301228Y-109298520D01*
X174301228Y-109298520D02*
X174367894Y-109331853D01*
X174367894Y-109331853D02*
X174501228Y-109331853D01*
X174501228Y-109331853D02*
X174567894Y-109298520D01*
X174567894Y-109298520D02*
X174634561Y-109231853D01*
X174634561Y-109231853D02*
X174667894Y-109098520D01*
X174667894Y-109098520D02*
X174667894Y-108865186D01*
X174667894Y-108865186D02*
X174634561Y-108731853D01*
X174634561Y-108731853D02*
X174567894Y-108665186D01*
X174567894Y-108665186D02*
X174501228Y-108631853D01*
X173934561Y-109298520D02*
X173834561Y-109331853D01*
X173834561Y-109331853D02*
X173667895Y-109331853D01*
X173667895Y-109331853D02*
X173601228Y-109298520D01*
X173601228Y-109298520D02*
X173567895Y-109265186D01*
X173567895Y-109265186D02*
X173534561Y-109198520D01*
X173534561Y-109198520D02*
X173534561Y-109131853D01*
X173534561Y-109131853D02*
X173567895Y-109065186D01*
X173567895Y-109065186D02*
X173601228Y-109031853D01*
X173601228Y-109031853D02*
X173667895Y-108998520D01*
X173667895Y-108998520D02*
X173801228Y-108965186D01*
X173801228Y-108965186D02*
X173867895Y-108931853D01*
X173867895Y-108931853D02*
X173901228Y-108898520D01*
X173901228Y-108898520D02*
X173934561Y-108831853D01*
X173934561Y-108831853D02*
X173934561Y-108765186D01*
X173934561Y-108765186D02*
X173901228Y-108698520D01*
X173901228Y-108698520D02*
X173867895Y-108665186D01*
X173867895Y-108665186D02*
X173801228Y-108631853D01*
X173801228Y-108631853D02*
X173634561Y-108631853D01*
X173634561Y-108631853D02*
X173534561Y-108665186D01*
X173234561Y-109331853D02*
X173234561Y-108631853D01*
X172967895Y-109598520D02*
X172934561Y-109565186D01*
X172934561Y-109565186D02*
X172867895Y-109465186D01*
X172867895Y-109465186D02*
X172834561Y-109398520D01*
X172834561Y-109398520D02*
X172801228Y-109298520D01*
X172801228Y-109298520D02*
X172767895Y-109131853D01*
X172767895Y-109131853D02*
X172767895Y-108998520D01*
X172767895Y-108998520D02*
X172801228Y-108831853D01*
X172801228Y-108831853D02*
X172834561Y-108731853D01*
X172834561Y-108731853D02*
X172867895Y-108665186D01*
X172867895Y-108665186D02*
X172934561Y-108565186D01*
X172934561Y-108565186D02*
X172967895Y-108531853D01*
X178401228Y-106791853D02*
X178401228Y-106091853D01*
X178401228Y-106091853D02*
X178134561Y-106091853D01*
X178134561Y-106091853D02*
X178067895Y-106125186D01*
X178067895Y-106125186D02*
X178034561Y-106158520D01*
X178034561Y-106158520D02*
X178001228Y-106225186D01*
X178001228Y-106225186D02*
X178001228Y-106325186D01*
X178001228Y-106325186D02*
X178034561Y-106391853D01*
X178034561Y-106391853D02*
X178067895Y-106425186D01*
X178067895Y-106425186D02*
X178134561Y-106458520D01*
X178134561Y-106458520D02*
X178401228Y-106458520D01*
X177734561Y-106591853D02*
X177401228Y-106591853D01*
X177801228Y-106791853D02*
X177567895Y-106091853D01*
X177567895Y-106091853D02*
X177334561Y-106791853D01*
X176801228Y-106325186D02*
X176801228Y-106791853D01*
X176967895Y-106058520D02*
X177134561Y-106558520D01*
X177134561Y-106558520D02*
X176701228Y-106558520D01*
X175701228Y-107058520D02*
X175734561Y-107025186D01*
X175734561Y-107025186D02*
X175801228Y-106925186D01*
X175801228Y-106925186D02*
X175834561Y-106858520D01*
X175834561Y-106858520D02*
X175867895Y-106758520D01*
X175867895Y-106758520D02*
X175901228Y-106591853D01*
X175901228Y-106591853D02*
X175901228Y-106458520D01*
X175901228Y-106458520D02*
X175867895Y-106291853D01*
X175867895Y-106291853D02*
X175834561Y-106191853D01*
X175834561Y-106191853D02*
X175801228Y-106125186D01*
X175801228Y-106125186D02*
X175734561Y-106025186D01*
X175734561Y-106025186D02*
X175701228Y-105991853D01*
X175434561Y-106791853D02*
X175434561Y-106091853D01*
X175434561Y-106091853D02*
X175201228Y-106591853D01*
X175201228Y-106591853D02*
X174967894Y-106091853D01*
X174967894Y-106091853D02*
X174967894Y-106791853D01*
X174634561Y-106791853D02*
X174634561Y-106091853D01*
X174334561Y-106758520D02*
X174234561Y-106791853D01*
X174234561Y-106791853D02*
X174067895Y-106791853D01*
X174067895Y-106791853D02*
X174001228Y-106758520D01*
X174001228Y-106758520D02*
X173967895Y-106725186D01*
X173967895Y-106725186D02*
X173934561Y-106658520D01*
X173934561Y-106658520D02*
X173934561Y-106591853D01*
X173934561Y-106591853D02*
X173967895Y-106525186D01*
X173967895Y-106525186D02*
X174001228Y-106491853D01*
X174001228Y-106491853D02*
X174067895Y-106458520D01*
X174067895Y-106458520D02*
X174201228Y-106425186D01*
X174201228Y-106425186D02*
X174267895Y-106391853D01*
X174267895Y-106391853D02*
X174301228Y-106358520D01*
X174301228Y-106358520D02*
X174334561Y-106291853D01*
X174334561Y-106291853D02*
X174334561Y-106225186D01*
X174334561Y-106225186D02*
X174301228Y-106158520D01*
X174301228Y-106158520D02*
X174267895Y-106125186D01*
X174267895Y-106125186D02*
X174201228Y-106091853D01*
X174201228Y-106091853D02*
X174034561Y-106091853D01*
X174034561Y-106091853D02*
X173934561Y-106125186D01*
X173501228Y-106091853D02*
X173367894Y-106091853D01*
X173367894Y-106091853D02*
X173301228Y-106125186D01*
X173301228Y-106125186D02*
X173234561Y-106191853D01*
X173234561Y-106191853D02*
X173201228Y-106325186D01*
X173201228Y-106325186D02*
X173201228Y-106558520D01*
X173201228Y-106558520D02*
X173234561Y-106691853D01*
X173234561Y-106691853D02*
X173301228Y-106758520D01*
X173301228Y-106758520D02*
X173367894Y-106791853D01*
X173367894Y-106791853D02*
X173501228Y-106791853D01*
X173501228Y-106791853D02*
X173567894Y-106758520D01*
X173567894Y-106758520D02*
X173634561Y-106691853D01*
X173634561Y-106691853D02*
X173667894Y-106558520D01*
X173667894Y-106558520D02*
X173667894Y-106325186D01*
X173667894Y-106325186D02*
X173634561Y-106191853D01*
X173634561Y-106191853D02*
X173567894Y-106125186D01*
X173567894Y-106125186D02*
X173501228Y-106091853D01*
X172967895Y-107058520D02*
X172934561Y-107025186D01*
X172934561Y-107025186D02*
X172867895Y-106925186D01*
X172867895Y-106925186D02*
X172834561Y-106858520D01*
X172834561Y-106858520D02*
X172801228Y-106758520D01*
X172801228Y-106758520D02*
X172767895Y-106591853D01*
X172767895Y-106591853D02*
X172767895Y-106458520D01*
X172767895Y-106458520D02*
X172801228Y-106291853D01*
X172801228Y-106291853D02*
X172834561Y-106191853D01*
X172834561Y-106191853D02*
X172867895Y-106125186D01*
X172867895Y-106125186D02*
X172934561Y-106025186D01*
X172934561Y-106025186D02*
X172967895Y-105991853D01*
D13*
X166748841Y-109507133D02*
X166748841Y-109373799D01*
X166748841Y-109373799D02*
X166715508Y-109307133D01*
X166715508Y-109307133D02*
X166648841Y-109240466D01*
X166648841Y-109240466D02*
X166515508Y-109207133D01*
X166515508Y-109207133D02*
X166282175Y-109207133D01*
X166282175Y-109207133D02*
X166148841Y-109240466D01*
X166148841Y-109240466D02*
X166082175Y-109307133D01*
X166082175Y-109307133D02*
X166048841Y-109373799D01*
X166048841Y-109373799D02*
X166048841Y-109507133D01*
X166048841Y-109507133D02*
X166082175Y-109573799D01*
X166082175Y-109573799D02*
X166148841Y-109640466D01*
X166148841Y-109640466D02*
X166282175Y-109673799D01*
X166282175Y-109673799D02*
X166515508Y-109673799D01*
X166515508Y-109673799D02*
X166648841Y-109640466D01*
X166648841Y-109640466D02*
X166715508Y-109573799D01*
X166715508Y-109573799D02*
X166748841Y-109507133D01*
X166515508Y-108907133D02*
X166048841Y-108907133D01*
X166448841Y-108907133D02*
X166482175Y-108873800D01*
X166482175Y-108873800D02*
X166515508Y-108807133D01*
X166515508Y-108807133D02*
X166515508Y-108707133D01*
X166515508Y-108707133D02*
X166482175Y-108640466D01*
X166482175Y-108640466D02*
X166415508Y-108607133D01*
X166415508Y-108607133D02*
X166048841Y-108607133D01*
X166048841Y-108173800D02*
X166082175Y-108240467D01*
X166082175Y-108240467D02*
X166148841Y-108273800D01*
X166148841Y-108273800D02*
X166748841Y-108273800D01*
X166515508Y-107973800D02*
X166048841Y-107807133D01*
X166515508Y-107640466D02*
X166048841Y-107807133D01*
X166048841Y-107807133D02*
X165882175Y-107873800D01*
X165882175Y-107873800D02*
X165848841Y-107907133D01*
X165848841Y-107907133D02*
X165815508Y-107973800D01*
X166748841Y-106907134D02*
X166748841Y-106473800D01*
X166748841Y-106473800D02*
X166482175Y-106707134D01*
X166482175Y-106707134D02*
X166482175Y-106607134D01*
X166482175Y-106607134D02*
X166448841Y-106540467D01*
X166448841Y-106540467D02*
X166415508Y-106507134D01*
X166415508Y-106507134D02*
X166348841Y-106473800D01*
X166348841Y-106473800D02*
X166182175Y-106473800D01*
X166182175Y-106473800D02*
X166115508Y-106507134D01*
X166115508Y-106507134D02*
X166082175Y-106540467D01*
X166082175Y-106540467D02*
X166048841Y-106607134D01*
X166048841Y-106607134D02*
X166048841Y-106807134D01*
X166048841Y-106807134D02*
X166082175Y-106873800D01*
X166082175Y-106873800D02*
X166115508Y-106907134D01*
X166748841Y-106273800D02*
X166048841Y-106040467D01*
X166048841Y-106040467D02*
X166748841Y-105807133D01*
X166748841Y-105640467D02*
X166748841Y-105207133D01*
X166748841Y-105207133D02*
X166482175Y-105440467D01*
X166482175Y-105440467D02*
X166482175Y-105340467D01*
X166482175Y-105340467D02*
X166448841Y-105273800D01*
X166448841Y-105273800D02*
X166415508Y-105240467D01*
X166415508Y-105240467D02*
X166348841Y-105207133D01*
X166348841Y-105207133D02*
X166182175Y-105207133D01*
X166182175Y-105207133D02*
X166115508Y-105240467D01*
X166115508Y-105240467D02*
X166082175Y-105273800D01*
X166082175Y-105273800D02*
X166048841Y-105340467D01*
X166048841Y-105340467D02*
X166048841Y-105540467D01*
X166048841Y-105540467D02*
X166082175Y-105607133D01*
X166082175Y-105607133D02*
X166115508Y-105640467D01*
X166082175Y-104073800D02*
X166048841Y-104140467D01*
X166048841Y-104140467D02*
X166048841Y-104273800D01*
X166048841Y-104273800D02*
X166082175Y-104340467D01*
X166082175Y-104340467D02*
X166115508Y-104373800D01*
X166115508Y-104373800D02*
X166182175Y-104407133D01*
X166182175Y-104407133D02*
X166382175Y-104407133D01*
X166382175Y-104407133D02*
X166448841Y-104373800D01*
X166448841Y-104373800D02*
X166482175Y-104340467D01*
X166482175Y-104340467D02*
X166515508Y-104273800D01*
X166515508Y-104273800D02*
X166515508Y-104140467D01*
X166515508Y-104140467D02*
X166482175Y-104073800D01*
X166048841Y-103673800D02*
X166082175Y-103740467D01*
X166082175Y-103740467D02*
X166115508Y-103773800D01*
X166115508Y-103773800D02*
X166182175Y-103807133D01*
X166182175Y-103807133D02*
X166382175Y-103807133D01*
X166382175Y-103807133D02*
X166448841Y-103773800D01*
X166448841Y-103773800D02*
X166482175Y-103740467D01*
X166482175Y-103740467D02*
X166515508Y-103673800D01*
X166515508Y-103673800D02*
X166515508Y-103573800D01*
X166515508Y-103573800D02*
X166482175Y-103507133D01*
X166482175Y-103507133D02*
X166448841Y-103473800D01*
X166448841Y-103473800D02*
X166382175Y-103440467D01*
X166382175Y-103440467D02*
X166182175Y-103440467D01*
X166182175Y-103440467D02*
X166115508Y-103473800D01*
X166115508Y-103473800D02*
X166082175Y-103507133D01*
X166082175Y-103507133D02*
X166048841Y-103573800D01*
X166048841Y-103573800D02*
X166048841Y-103673800D01*
X166048841Y-103140467D02*
X166515508Y-103140467D01*
X166448841Y-103140467D02*
X166482175Y-103107134D01*
X166482175Y-103107134D02*
X166515508Y-103040467D01*
X166515508Y-103040467D02*
X166515508Y-102940467D01*
X166515508Y-102940467D02*
X166482175Y-102873800D01*
X166482175Y-102873800D02*
X166415508Y-102840467D01*
X166415508Y-102840467D02*
X166048841Y-102840467D01*
X166415508Y-102840467D02*
X166482175Y-102807134D01*
X166482175Y-102807134D02*
X166515508Y-102740467D01*
X166515508Y-102740467D02*
X166515508Y-102640467D01*
X166515508Y-102640467D02*
X166482175Y-102573800D01*
X166482175Y-102573800D02*
X166415508Y-102540467D01*
X166415508Y-102540467D02*
X166048841Y-102540467D01*
X166515508Y-102207134D02*
X165815508Y-102207134D01*
X166482175Y-102207134D02*
X166515508Y-102140467D01*
X166515508Y-102140467D02*
X166515508Y-102007134D01*
X166515508Y-102007134D02*
X166482175Y-101940467D01*
X166482175Y-101940467D02*
X166448841Y-101907134D01*
X166448841Y-101907134D02*
X166382175Y-101873801D01*
X166382175Y-101873801D02*
X166182175Y-101873801D01*
X166182175Y-101873801D02*
X166115508Y-101907134D01*
X166115508Y-101907134D02*
X166082175Y-101940467D01*
X166082175Y-101940467D02*
X166048841Y-102007134D01*
X166048841Y-102007134D02*
X166048841Y-102140467D01*
X166048841Y-102140467D02*
X166082175Y-102207134D01*
X166048841Y-101273801D02*
X166415508Y-101273801D01*
X166415508Y-101273801D02*
X166482175Y-101307134D01*
X166482175Y-101307134D02*
X166515508Y-101373801D01*
X166515508Y-101373801D02*
X166515508Y-101507134D01*
X166515508Y-101507134D02*
X166482175Y-101573801D01*
X166082175Y-101273801D02*
X166048841Y-101340468D01*
X166048841Y-101340468D02*
X166048841Y-101507134D01*
X166048841Y-101507134D02*
X166082175Y-101573801D01*
X166082175Y-101573801D02*
X166148841Y-101607134D01*
X166148841Y-101607134D02*
X166215508Y-101607134D01*
X166215508Y-101607134D02*
X166282175Y-101573801D01*
X166282175Y-101573801D02*
X166315508Y-101507134D01*
X166315508Y-101507134D02*
X166315508Y-101340468D01*
X166315508Y-101340468D02*
X166348841Y-101273801D01*
X166515508Y-101040468D02*
X166515508Y-100773801D01*
X166748841Y-100940468D02*
X166148841Y-100940468D01*
X166148841Y-100940468D02*
X166082175Y-100907135D01*
X166082175Y-100907135D02*
X166048841Y-100840468D01*
X166048841Y-100840468D02*
X166048841Y-100773801D01*
X166048841Y-100540468D02*
X166515508Y-100540468D01*
X166748841Y-100540468D02*
X166715508Y-100573801D01*
X166715508Y-100573801D02*
X166682175Y-100540468D01*
X166682175Y-100540468D02*
X166715508Y-100507135D01*
X166715508Y-100507135D02*
X166748841Y-100540468D01*
X166748841Y-100540468D02*
X166682175Y-100540468D01*
X166048841Y-100207135D02*
X166748841Y-100207135D01*
X166482175Y-100207135D02*
X166515508Y-100140468D01*
X166515508Y-100140468D02*
X166515508Y-100007135D01*
X166515508Y-100007135D02*
X166482175Y-99940468D01*
X166482175Y-99940468D02*
X166448841Y-99907135D01*
X166448841Y-99907135D02*
X166382175Y-99873802D01*
X166382175Y-99873802D02*
X166182175Y-99873802D01*
X166182175Y-99873802D02*
X166115508Y-99907135D01*
X166115508Y-99907135D02*
X166082175Y-99940468D01*
X166082175Y-99940468D02*
X166048841Y-100007135D01*
X166048841Y-100007135D02*
X166048841Y-100140468D01*
X166048841Y-100140468D02*
X166082175Y-100207135D01*
X166048841Y-99473802D02*
X166082175Y-99540469D01*
X166082175Y-99540469D02*
X166148841Y-99573802D01*
X166148841Y-99573802D02*
X166748841Y-99573802D01*
X166082175Y-98940468D02*
X166048841Y-99007135D01*
X166048841Y-99007135D02*
X166048841Y-99140468D01*
X166048841Y-99140468D02*
X166082175Y-99207135D01*
X166082175Y-99207135D02*
X166148841Y-99240468D01*
X166148841Y-99240468D02*
X166415508Y-99240468D01*
X166415508Y-99240468D02*
X166482175Y-99207135D01*
X166482175Y-99207135D02*
X166515508Y-99140468D01*
X166515508Y-99140468D02*
X166515508Y-99007135D01*
X166515508Y-99007135D02*
X166482175Y-98940468D01*
X166482175Y-98940468D02*
X166415508Y-98907135D01*
X166415508Y-98907135D02*
X166348841Y-98907135D01*
X166348841Y-98907135D02*
X166282175Y-99240468D01*
X164921880Y-110007132D02*
X165621880Y-110007132D01*
X165355214Y-110007132D02*
X165388547Y-109940465D01*
X165388547Y-109940465D02*
X165388547Y-109807132D01*
X165388547Y-109807132D02*
X165355214Y-109740465D01*
X165355214Y-109740465D02*
X165321880Y-109707132D01*
X165321880Y-109707132D02*
X165255214Y-109673799D01*
X165255214Y-109673799D02*
X165055214Y-109673799D01*
X165055214Y-109673799D02*
X164988547Y-109707132D01*
X164988547Y-109707132D02*
X164955214Y-109740465D01*
X164955214Y-109740465D02*
X164921880Y-109807132D01*
X164921880Y-109807132D02*
X164921880Y-109940465D01*
X164921880Y-109940465D02*
X164955214Y-110007132D01*
X164921880Y-109273799D02*
X164955214Y-109340466D01*
X164955214Y-109340466D02*
X164988547Y-109373799D01*
X164988547Y-109373799D02*
X165055214Y-109407132D01*
X165055214Y-109407132D02*
X165255214Y-109407132D01*
X165255214Y-109407132D02*
X165321880Y-109373799D01*
X165321880Y-109373799D02*
X165355214Y-109340466D01*
X165355214Y-109340466D02*
X165388547Y-109273799D01*
X165388547Y-109273799D02*
X165388547Y-109173799D01*
X165388547Y-109173799D02*
X165355214Y-109107132D01*
X165355214Y-109107132D02*
X165321880Y-109073799D01*
X165321880Y-109073799D02*
X165255214Y-109040466D01*
X165255214Y-109040466D02*
X165055214Y-109040466D01*
X165055214Y-109040466D02*
X164988547Y-109073799D01*
X164988547Y-109073799D02*
X164955214Y-109107132D01*
X164955214Y-109107132D02*
X164921880Y-109173799D01*
X164921880Y-109173799D02*
X164921880Y-109273799D01*
X164921880Y-108440466D02*
X165288547Y-108440466D01*
X165288547Y-108440466D02*
X165355214Y-108473799D01*
X165355214Y-108473799D02*
X165388547Y-108540466D01*
X165388547Y-108540466D02*
X165388547Y-108673799D01*
X165388547Y-108673799D02*
X165355214Y-108740466D01*
X164955214Y-108440466D02*
X164921880Y-108507133D01*
X164921880Y-108507133D02*
X164921880Y-108673799D01*
X164921880Y-108673799D02*
X164955214Y-108740466D01*
X164955214Y-108740466D02*
X165021880Y-108773799D01*
X165021880Y-108773799D02*
X165088547Y-108773799D01*
X165088547Y-108773799D02*
X165155214Y-108740466D01*
X165155214Y-108740466D02*
X165188547Y-108673799D01*
X165188547Y-108673799D02*
X165188547Y-108507133D01*
X165188547Y-108507133D02*
X165221880Y-108440466D01*
X164921880Y-108107133D02*
X165388547Y-108107133D01*
X165255214Y-108107133D02*
X165321880Y-108073800D01*
X165321880Y-108073800D02*
X165355214Y-108040466D01*
X165355214Y-108040466D02*
X165388547Y-107973800D01*
X165388547Y-107973800D02*
X165388547Y-107907133D01*
X164921880Y-107373800D02*
X165621880Y-107373800D01*
X164955214Y-107373800D02*
X164921880Y-107440467D01*
X164921880Y-107440467D02*
X164921880Y-107573800D01*
X164921880Y-107573800D02*
X164955214Y-107640467D01*
X164955214Y-107640467D02*
X164988547Y-107673800D01*
X164988547Y-107673800D02*
X165055214Y-107707133D01*
X165055214Y-107707133D02*
X165255214Y-107707133D01*
X165255214Y-107707133D02*
X165321880Y-107673800D01*
X165321880Y-107673800D02*
X165355214Y-107640467D01*
X165355214Y-107640467D02*
X165388547Y-107573800D01*
X165388547Y-107573800D02*
X165388547Y-107440467D01*
X165388547Y-107440467D02*
X165355214Y-107373800D01*
X164955214Y-107073800D02*
X164921880Y-107007134D01*
X164921880Y-107007134D02*
X164921880Y-106873800D01*
X164921880Y-106873800D02*
X164955214Y-106807134D01*
X164955214Y-106807134D02*
X165021880Y-106773800D01*
X165021880Y-106773800D02*
X165055214Y-106773800D01*
X165055214Y-106773800D02*
X165121880Y-106807134D01*
X165121880Y-106807134D02*
X165155214Y-106873800D01*
X165155214Y-106873800D02*
X165155214Y-106973800D01*
X165155214Y-106973800D02*
X165188547Y-107040467D01*
X165188547Y-107040467D02*
X165255214Y-107073800D01*
X165255214Y-107073800D02*
X165288547Y-107073800D01*
X165288547Y-107073800D02*
X165355214Y-107040467D01*
X165355214Y-107040467D02*
X165388547Y-106973800D01*
X165388547Y-106973800D02*
X165388547Y-106873800D01*
X165388547Y-106873800D02*
X165355214Y-106807134D01*
X164921880Y-105640467D02*
X165288547Y-105640467D01*
X165288547Y-105640467D02*
X165355214Y-105673800D01*
X165355214Y-105673800D02*
X165388547Y-105740467D01*
X165388547Y-105740467D02*
X165388547Y-105873800D01*
X165388547Y-105873800D02*
X165355214Y-105940467D01*
X164955214Y-105640467D02*
X164921880Y-105707134D01*
X164921880Y-105707134D02*
X164921880Y-105873800D01*
X164921880Y-105873800D02*
X164955214Y-105940467D01*
X164955214Y-105940467D02*
X165021880Y-105973800D01*
X165021880Y-105973800D02*
X165088547Y-105973800D01*
X165088547Y-105973800D02*
X165155214Y-105940467D01*
X165155214Y-105940467D02*
X165188547Y-105873800D01*
X165188547Y-105873800D02*
X165188547Y-105707134D01*
X165188547Y-105707134D02*
X165221880Y-105640467D01*
X164921880Y-105307134D02*
X165388547Y-105307134D01*
X165255214Y-105307134D02*
X165321880Y-105273801D01*
X165321880Y-105273801D02*
X165355214Y-105240467D01*
X165355214Y-105240467D02*
X165388547Y-105173801D01*
X165388547Y-105173801D02*
X165388547Y-105107134D01*
X164955214Y-104607134D02*
X164921880Y-104673801D01*
X164921880Y-104673801D02*
X164921880Y-104807134D01*
X164921880Y-104807134D02*
X164955214Y-104873801D01*
X164955214Y-104873801D02*
X165021880Y-104907134D01*
X165021880Y-104907134D02*
X165288547Y-104907134D01*
X165288547Y-104907134D02*
X165355214Y-104873801D01*
X165355214Y-104873801D02*
X165388547Y-104807134D01*
X165388547Y-104807134D02*
X165388547Y-104673801D01*
X165388547Y-104673801D02*
X165355214Y-104607134D01*
X165355214Y-104607134D02*
X165288547Y-104573801D01*
X165288547Y-104573801D02*
X165221880Y-104573801D01*
X165221880Y-104573801D02*
X165155214Y-104907134D01*
X164955214Y-103773801D02*
X164921880Y-103707135D01*
X164921880Y-103707135D02*
X164921880Y-103573801D01*
X164921880Y-103573801D02*
X164955214Y-103507135D01*
X164955214Y-103507135D02*
X165021880Y-103473801D01*
X165021880Y-103473801D02*
X165055214Y-103473801D01*
X165055214Y-103473801D02*
X165121880Y-103507135D01*
X165121880Y-103507135D02*
X165155214Y-103573801D01*
X165155214Y-103573801D02*
X165155214Y-103673801D01*
X165155214Y-103673801D02*
X165188547Y-103740468D01*
X165188547Y-103740468D02*
X165255214Y-103773801D01*
X165255214Y-103773801D02*
X165288547Y-103773801D01*
X165288547Y-103773801D02*
X165355214Y-103740468D01*
X165355214Y-103740468D02*
X165388547Y-103673801D01*
X165388547Y-103673801D02*
X165388547Y-103573801D01*
X165388547Y-103573801D02*
X165355214Y-103507135D01*
X165388547Y-102873801D02*
X164921880Y-102873801D01*
X165388547Y-103173801D02*
X165021880Y-103173801D01*
X165021880Y-103173801D02*
X164955214Y-103140468D01*
X164955214Y-103140468D02*
X164921880Y-103073801D01*
X164921880Y-103073801D02*
X164921880Y-102973801D01*
X164921880Y-102973801D02*
X164955214Y-102907134D01*
X164955214Y-102907134D02*
X164988547Y-102873801D01*
X165388547Y-102540468D02*
X164688547Y-102540468D01*
X165355214Y-102540468D02*
X165388547Y-102473801D01*
X165388547Y-102473801D02*
X165388547Y-102340468D01*
X165388547Y-102340468D02*
X165355214Y-102273801D01*
X165355214Y-102273801D02*
X165321880Y-102240468D01*
X165321880Y-102240468D02*
X165255214Y-102207135D01*
X165255214Y-102207135D02*
X165055214Y-102207135D01*
X165055214Y-102207135D02*
X164988547Y-102240468D01*
X164988547Y-102240468D02*
X164955214Y-102273801D01*
X164955214Y-102273801D02*
X164921880Y-102340468D01*
X164921880Y-102340468D02*
X164921880Y-102473801D01*
X164921880Y-102473801D02*
X164955214Y-102540468D01*
X165388547Y-101907135D02*
X164688547Y-101907135D01*
X165355214Y-101907135D02*
X165388547Y-101840468D01*
X165388547Y-101840468D02*
X165388547Y-101707135D01*
X165388547Y-101707135D02*
X165355214Y-101640468D01*
X165355214Y-101640468D02*
X165321880Y-101607135D01*
X165321880Y-101607135D02*
X165255214Y-101573802D01*
X165255214Y-101573802D02*
X165055214Y-101573802D01*
X165055214Y-101573802D02*
X164988547Y-101607135D01*
X164988547Y-101607135D02*
X164955214Y-101640468D01*
X164955214Y-101640468D02*
X164921880Y-101707135D01*
X164921880Y-101707135D02*
X164921880Y-101840468D01*
X164921880Y-101840468D02*
X164955214Y-101907135D01*
X164921880Y-101173802D02*
X164955214Y-101240469D01*
X164955214Y-101240469D02*
X164988547Y-101273802D01*
X164988547Y-101273802D02*
X165055214Y-101307135D01*
X165055214Y-101307135D02*
X165255214Y-101307135D01*
X165255214Y-101307135D02*
X165321880Y-101273802D01*
X165321880Y-101273802D02*
X165355214Y-101240469D01*
X165355214Y-101240469D02*
X165388547Y-101173802D01*
X165388547Y-101173802D02*
X165388547Y-101073802D01*
X165388547Y-101073802D02*
X165355214Y-101007135D01*
X165355214Y-101007135D02*
X165321880Y-100973802D01*
X165321880Y-100973802D02*
X165255214Y-100940469D01*
X165255214Y-100940469D02*
X165055214Y-100940469D01*
X165055214Y-100940469D02*
X164988547Y-100973802D01*
X164988547Y-100973802D02*
X164955214Y-101007135D01*
X164955214Y-101007135D02*
X164921880Y-101073802D01*
X164921880Y-101073802D02*
X164921880Y-101173802D01*
X164921880Y-100640469D02*
X165388547Y-100640469D01*
X165255214Y-100640469D02*
X165321880Y-100607136D01*
X165321880Y-100607136D02*
X165355214Y-100573802D01*
X165355214Y-100573802D02*
X165388547Y-100507136D01*
X165388547Y-100507136D02*
X165388547Y-100440469D01*
X165388547Y-100307136D02*
X165388547Y-100040469D01*
X165621880Y-100207136D02*
X165021880Y-100207136D01*
X165021880Y-100207136D02*
X164955214Y-100173803D01*
X164955214Y-100173803D02*
X164921880Y-100107136D01*
X164921880Y-100107136D02*
X164921880Y-100040469D01*
X164955214Y-99540469D02*
X164921880Y-99607136D01*
X164921880Y-99607136D02*
X164921880Y-99740469D01*
X164921880Y-99740469D02*
X164955214Y-99807136D01*
X164955214Y-99807136D02*
X165021880Y-99840469D01*
X165021880Y-99840469D02*
X165288547Y-99840469D01*
X165288547Y-99840469D02*
X165355214Y-99807136D01*
X165355214Y-99807136D02*
X165388547Y-99740469D01*
X165388547Y-99740469D02*
X165388547Y-99607136D01*
X165388547Y-99607136D02*
X165355214Y-99540469D01*
X165355214Y-99540469D02*
X165288547Y-99507136D01*
X165288547Y-99507136D02*
X165221880Y-99507136D01*
X165221880Y-99507136D02*
X165155214Y-99840469D01*
X164921880Y-98907136D02*
X165621880Y-98907136D01*
X164955214Y-98907136D02*
X164921880Y-98973803D01*
X164921880Y-98973803D02*
X164921880Y-99107136D01*
X164921880Y-99107136D02*
X164955214Y-99173803D01*
X164955214Y-99173803D02*
X164988547Y-99207136D01*
X164988547Y-99207136D02*
X165055214Y-99240469D01*
X165055214Y-99240469D02*
X165255214Y-99240469D01*
X165255214Y-99240469D02*
X165321880Y-99207136D01*
X165321880Y-99207136D02*
X165355214Y-99173803D01*
X165355214Y-99173803D02*
X165388547Y-99107136D01*
X165388547Y-99107136D02*
X165388547Y-98973803D01*
X165388547Y-98973803D02*
X165355214Y-98907136D01*
X164988547Y-98573803D02*
X164955214Y-98540470D01*
X164955214Y-98540470D02*
X164921880Y-98573803D01*
X164921880Y-98573803D02*
X164955214Y-98607136D01*
X164955214Y-98607136D02*
X164988547Y-98573803D01*
X164988547Y-98573803D02*
X164921880Y-98573803D01*
X165188547Y-98573803D02*
X165588547Y-98607136D01*
X165588547Y-98607136D02*
X165621880Y-98573803D01*
X165621880Y-98573803D02*
X165588547Y-98540470D01*
X165588547Y-98540470D02*
X165188547Y-98573803D01*
X165188547Y-98573803D02*
X165621880Y-98573803D01*
D11*
X178401228Y-86471853D02*
X178401228Y-85771853D01*
X178401228Y-85771853D02*
X178134561Y-85771853D01*
X178134561Y-85771853D02*
X178067895Y-85805186D01*
X178067895Y-85805186D02*
X178034561Y-85838520D01*
X178034561Y-85838520D02*
X178001228Y-85905186D01*
X178001228Y-85905186D02*
X178001228Y-86005186D01*
X178001228Y-86005186D02*
X178034561Y-86071853D01*
X178034561Y-86071853D02*
X178067895Y-86105186D01*
X178067895Y-86105186D02*
X178134561Y-86138520D01*
X178134561Y-86138520D02*
X178401228Y-86138520D01*
X177734561Y-86271853D02*
X177401228Y-86271853D01*
X177801228Y-86471853D02*
X177567895Y-85771853D01*
X177567895Y-85771853D02*
X177334561Y-86471853D01*
X177134561Y-85838520D02*
X177101228Y-85805186D01*
X177101228Y-85805186D02*
X177034561Y-85771853D01*
X177034561Y-85771853D02*
X176867895Y-85771853D01*
X176867895Y-85771853D02*
X176801228Y-85805186D01*
X176801228Y-85805186D02*
X176767895Y-85838520D01*
X176767895Y-85838520D02*
X176734561Y-85905186D01*
X176734561Y-85905186D02*
X176734561Y-85971853D01*
X176734561Y-85971853D02*
X176767895Y-86071853D01*
X176767895Y-86071853D02*
X177167895Y-86471853D01*
X177167895Y-86471853D02*
X176734561Y-86471853D01*
X176067894Y-86471853D02*
X176467894Y-86471853D01*
X176267894Y-86471853D02*
X176267894Y-85771853D01*
X176267894Y-85771853D02*
X176334561Y-85871853D01*
X176334561Y-85871853D02*
X176401228Y-85938520D01*
X176401228Y-85938520D02*
X176467894Y-85971853D01*
X163357895Y-96898520D02*
X163391228Y-96865186D01*
X163391228Y-96865186D02*
X163457895Y-96765186D01*
X163457895Y-96765186D02*
X163491228Y-96698520D01*
X163491228Y-96698520D02*
X163524562Y-96598520D01*
X163524562Y-96598520D02*
X163557895Y-96431853D01*
X163557895Y-96431853D02*
X163557895Y-96298520D01*
X163557895Y-96298520D02*
X163524562Y-96131853D01*
X163524562Y-96131853D02*
X163491228Y-96031853D01*
X163491228Y-96031853D02*
X163457895Y-95965186D01*
X163457895Y-95965186D02*
X163391228Y-95865186D01*
X163391228Y-95865186D02*
X163357895Y-95831853D01*
X163091228Y-96631853D02*
X163091228Y-95931853D01*
X163091228Y-95931853D02*
X162824561Y-95931853D01*
X162824561Y-95931853D02*
X162757895Y-95965186D01*
X162757895Y-95965186D02*
X162724561Y-95998520D01*
X162724561Y-95998520D02*
X162691228Y-96065186D01*
X162691228Y-96065186D02*
X162691228Y-96165186D01*
X162691228Y-96165186D02*
X162724561Y-96231853D01*
X162724561Y-96231853D02*
X162757895Y-96265186D01*
X162757895Y-96265186D02*
X162824561Y-96298520D01*
X162824561Y-96298520D02*
X163091228Y-96298520D01*
X162457895Y-95931853D02*
X162291228Y-96631853D01*
X162291228Y-96631853D02*
X162157895Y-96131853D01*
X162157895Y-96131853D02*
X162024561Y-96631853D01*
X162024561Y-96631853D02*
X161857895Y-95931853D01*
X161591228Y-96631853D02*
X161591228Y-95931853D01*
X161591228Y-95931853D02*
X161357895Y-96431853D01*
X161357895Y-96431853D02*
X161124561Y-95931853D01*
X161124561Y-95931853D02*
X161124561Y-96631853D01*
X160857895Y-96898520D02*
X160824561Y-96865186D01*
X160824561Y-96865186D02*
X160757895Y-96765186D01*
X160757895Y-96765186D02*
X160724561Y-96698520D01*
X160724561Y-96698520D02*
X160691228Y-96598520D01*
X160691228Y-96598520D02*
X160657895Y-96431853D01*
X160657895Y-96431853D02*
X160657895Y-96298520D01*
X160657895Y-96298520D02*
X160691228Y-96131853D01*
X160691228Y-96131853D02*
X160724561Y-96031853D01*
X160724561Y-96031853D02*
X160757895Y-95965186D01*
X160757895Y-95965186D02*
X160824561Y-95865186D01*
X160824561Y-95865186D02*
X160857895Y-95831853D01*
X159791228Y-96631853D02*
X159791228Y-95931853D01*
X159791228Y-95931853D02*
X159524561Y-95931853D01*
X159524561Y-95931853D02*
X159457895Y-95965186D01*
X159457895Y-95965186D02*
X159424561Y-95998520D01*
X159424561Y-95998520D02*
X159391228Y-96065186D01*
X159391228Y-96065186D02*
X159391228Y-96165186D01*
X159391228Y-96165186D02*
X159424561Y-96231853D01*
X159424561Y-96231853D02*
X159457895Y-96265186D01*
X159457895Y-96265186D02*
X159524561Y-96298520D01*
X159524561Y-96298520D02*
X159791228Y-96298520D01*
X159124561Y-96431853D02*
X158791228Y-96431853D01*
X159191228Y-96631853D02*
X158957895Y-95931853D01*
X158957895Y-95931853D02*
X158724561Y-96631853D01*
X158557895Y-95931853D02*
X158091228Y-95931853D01*
X158091228Y-95931853D02*
X158391228Y-96631853D01*
X163024562Y-109598520D02*
X163057895Y-109565186D01*
X163057895Y-109565186D02*
X163124562Y-109465186D01*
X163124562Y-109465186D02*
X163157895Y-109398520D01*
X163157895Y-109398520D02*
X163191229Y-109298520D01*
X163191229Y-109298520D02*
X163224562Y-109131853D01*
X163224562Y-109131853D02*
X163224562Y-108998520D01*
X163224562Y-108998520D02*
X163191229Y-108831853D01*
X163191229Y-108831853D02*
X163157895Y-108731853D01*
X163157895Y-108731853D02*
X163124562Y-108665186D01*
X163124562Y-108665186D02*
X163057895Y-108565186D01*
X163057895Y-108565186D02*
X163024562Y-108531853D01*
X162791228Y-109298520D02*
X162691228Y-109331853D01*
X162691228Y-109331853D02*
X162524562Y-109331853D01*
X162524562Y-109331853D02*
X162457895Y-109298520D01*
X162457895Y-109298520D02*
X162424562Y-109265186D01*
X162424562Y-109265186D02*
X162391228Y-109198520D01*
X162391228Y-109198520D02*
X162391228Y-109131853D01*
X162391228Y-109131853D02*
X162424562Y-109065186D01*
X162424562Y-109065186D02*
X162457895Y-109031853D01*
X162457895Y-109031853D02*
X162524562Y-108998520D01*
X162524562Y-108998520D02*
X162657895Y-108965186D01*
X162657895Y-108965186D02*
X162724562Y-108931853D01*
X162724562Y-108931853D02*
X162757895Y-108898520D01*
X162757895Y-108898520D02*
X162791228Y-108831853D01*
X162791228Y-108831853D02*
X162791228Y-108765186D01*
X162791228Y-108765186D02*
X162757895Y-108698520D01*
X162757895Y-108698520D02*
X162724562Y-108665186D01*
X162724562Y-108665186D02*
X162657895Y-108631853D01*
X162657895Y-108631853D02*
X162491228Y-108631853D01*
X162491228Y-108631853D02*
X162391228Y-108665186D01*
X162091228Y-109331853D02*
X162091228Y-108631853D01*
X162091228Y-108631853D02*
X161924561Y-108631853D01*
X161924561Y-108631853D02*
X161824561Y-108665186D01*
X161824561Y-108665186D02*
X161757895Y-108731853D01*
X161757895Y-108731853D02*
X161724561Y-108798520D01*
X161724561Y-108798520D02*
X161691228Y-108931853D01*
X161691228Y-108931853D02*
X161691228Y-109031853D01*
X161691228Y-109031853D02*
X161724561Y-109165186D01*
X161724561Y-109165186D02*
X161757895Y-109231853D01*
X161757895Y-109231853D02*
X161824561Y-109298520D01*
X161824561Y-109298520D02*
X161924561Y-109331853D01*
X161924561Y-109331853D02*
X162091228Y-109331853D01*
X161424561Y-109131853D02*
X161091228Y-109131853D01*
X161491228Y-109331853D02*
X161257895Y-108631853D01*
X161257895Y-108631853D02*
X161024561Y-109331853D01*
X160857895Y-109598520D02*
X160824561Y-109565186D01*
X160824561Y-109565186D02*
X160757895Y-109465186D01*
X160757895Y-109465186D02*
X160724561Y-109398520D01*
X160724561Y-109398520D02*
X160691228Y-109298520D01*
X160691228Y-109298520D02*
X160657895Y-109131853D01*
X160657895Y-109131853D02*
X160657895Y-108998520D01*
X160657895Y-108998520D02*
X160691228Y-108831853D01*
X160691228Y-108831853D02*
X160724561Y-108731853D01*
X160724561Y-108731853D02*
X160757895Y-108665186D01*
X160757895Y-108665186D02*
X160824561Y-108565186D01*
X160824561Y-108565186D02*
X160857895Y-108531853D01*
X159791228Y-109331853D02*
X159791228Y-108631853D01*
X159791228Y-108631853D02*
X159524561Y-108631853D01*
X159524561Y-108631853D02*
X159457895Y-108665186D01*
X159457895Y-108665186D02*
X159424561Y-108698520D01*
X159424561Y-108698520D02*
X159391228Y-108765186D01*
X159391228Y-108765186D02*
X159391228Y-108865186D01*
X159391228Y-108865186D02*
X159424561Y-108931853D01*
X159424561Y-108931853D02*
X159457895Y-108965186D01*
X159457895Y-108965186D02*
X159524561Y-108998520D01*
X159524561Y-108998520D02*
X159791228Y-108998520D01*
X159124561Y-109131853D02*
X158791228Y-109131853D01*
X159191228Y-109331853D02*
X158957895Y-108631853D01*
X158957895Y-108631853D02*
X158724561Y-109331853D01*
X158357895Y-108631853D02*
X158291228Y-108631853D01*
X158291228Y-108631853D02*
X158224561Y-108665186D01*
X158224561Y-108665186D02*
X158191228Y-108698520D01*
X158191228Y-108698520D02*
X158157895Y-108765186D01*
X158157895Y-108765186D02*
X158124561Y-108898520D01*
X158124561Y-108898520D02*
X158124561Y-109065186D01*
X158124561Y-109065186D02*
X158157895Y-109198520D01*
X158157895Y-109198520D02*
X158191228Y-109265186D01*
X158191228Y-109265186D02*
X158224561Y-109298520D01*
X158224561Y-109298520D02*
X158291228Y-109331853D01*
X158291228Y-109331853D02*
X158357895Y-109331853D01*
X158357895Y-109331853D02*
X158424561Y-109298520D01*
X158424561Y-109298520D02*
X158457895Y-109265186D01*
X158457895Y-109265186D02*
X158491228Y-109198520D01*
X158491228Y-109198520D02*
X158524561Y-109065186D01*
X158524561Y-109065186D02*
X158524561Y-108898520D01*
X158524561Y-108898520D02*
X158491228Y-108765186D01*
X158491228Y-108765186D02*
X158457895Y-108698520D01*
X158457895Y-108698520D02*
X158424561Y-108665186D01*
X158424561Y-108665186D02*
X158357895Y-108631853D01*
X178401228Y-96631853D02*
X178401228Y-95931853D01*
X178401228Y-95931853D02*
X178134561Y-95931853D01*
X178134561Y-95931853D02*
X178067895Y-95965186D01*
X178067895Y-95965186D02*
X178034561Y-95998520D01*
X178034561Y-95998520D02*
X178001228Y-96065186D01*
X178001228Y-96065186D02*
X178001228Y-96165186D01*
X178001228Y-96165186D02*
X178034561Y-96231853D01*
X178034561Y-96231853D02*
X178067895Y-96265186D01*
X178067895Y-96265186D02*
X178134561Y-96298520D01*
X178134561Y-96298520D02*
X178401228Y-96298520D01*
X177734561Y-96431853D02*
X177401228Y-96431853D01*
X177801228Y-96631853D02*
X177567895Y-95931853D01*
X177567895Y-95931853D02*
X177334561Y-96631853D01*
X177134561Y-95998520D02*
X177101228Y-95965186D01*
X177101228Y-95965186D02*
X177034561Y-95931853D01*
X177034561Y-95931853D02*
X176867895Y-95931853D01*
X176867895Y-95931853D02*
X176801228Y-95965186D01*
X176801228Y-95965186D02*
X176767895Y-95998520D01*
X176767895Y-95998520D02*
X176734561Y-96065186D01*
X176734561Y-96065186D02*
X176734561Y-96131853D01*
X176734561Y-96131853D02*
X176767895Y-96231853D01*
X176767895Y-96231853D02*
X177167895Y-96631853D01*
X177167895Y-96631853D02*
X176734561Y-96631853D01*
X176134561Y-96165186D02*
X176134561Y-96631853D01*
X176301228Y-95898520D02*
X176467894Y-96398520D01*
X176467894Y-96398520D02*
X176034561Y-96398520D01*
X175034561Y-96898520D02*
X175067894Y-96865186D01*
X175067894Y-96865186D02*
X175134561Y-96765186D01*
X175134561Y-96765186D02*
X175167894Y-96698520D01*
X175167894Y-96698520D02*
X175201228Y-96598520D01*
X175201228Y-96598520D02*
X175234561Y-96431853D01*
X175234561Y-96431853D02*
X175234561Y-96298520D01*
X175234561Y-96298520D02*
X175201228Y-96131853D01*
X175201228Y-96131853D02*
X175167894Y-96031853D01*
X175167894Y-96031853D02*
X175134561Y-95965186D01*
X175134561Y-95965186D02*
X175067894Y-95865186D01*
X175067894Y-95865186D02*
X175034561Y-95831853D01*
X174801227Y-96431853D02*
X174467894Y-96431853D01*
X174867894Y-96631853D02*
X174634561Y-95931853D01*
X174634561Y-95931853D02*
X174401227Y-96631853D01*
X174167894Y-96631853D02*
X174167894Y-95931853D01*
X174167894Y-95931853D02*
X173767894Y-96631853D01*
X173767894Y-96631853D02*
X173767894Y-95931853D01*
X173501228Y-96898520D02*
X173467894Y-96865186D01*
X173467894Y-96865186D02*
X173401228Y-96765186D01*
X173401228Y-96765186D02*
X173367894Y-96698520D01*
X173367894Y-96698520D02*
X173334561Y-96598520D01*
X173334561Y-96598520D02*
X173301228Y-96431853D01*
X173301228Y-96431853D02*
X173301228Y-96298520D01*
X173301228Y-96298520D02*
X173334561Y-96131853D01*
X173334561Y-96131853D02*
X173367894Y-96031853D01*
X173367894Y-96031853D02*
X173401228Y-95965186D01*
X173401228Y-95965186D02*
X173467894Y-95865186D01*
X173467894Y-95865186D02*
X173501228Y-95831853D01*
X162424562Y-101978520D02*
X162457895Y-101945186D01*
X162457895Y-101945186D02*
X162524562Y-101845186D01*
X162524562Y-101845186D02*
X162557895Y-101778520D01*
X162557895Y-101778520D02*
X162591229Y-101678520D01*
X162591229Y-101678520D02*
X162624562Y-101511853D01*
X162624562Y-101511853D02*
X162624562Y-101378520D01*
X162624562Y-101378520D02*
X162591229Y-101211853D01*
X162591229Y-101211853D02*
X162557895Y-101111853D01*
X162557895Y-101111853D02*
X162524562Y-101045186D01*
X162524562Y-101045186D02*
X162457895Y-100945186D01*
X162457895Y-100945186D02*
X162424562Y-100911853D01*
X161757895Y-101711853D02*
X161991228Y-101378520D01*
X162157895Y-101711853D02*
X162157895Y-101011853D01*
X162157895Y-101011853D02*
X161891228Y-101011853D01*
X161891228Y-101011853D02*
X161824562Y-101045186D01*
X161824562Y-101045186D02*
X161791228Y-101078520D01*
X161791228Y-101078520D02*
X161757895Y-101145186D01*
X161757895Y-101145186D02*
X161757895Y-101245186D01*
X161757895Y-101245186D02*
X161791228Y-101311853D01*
X161791228Y-101311853D02*
X161824562Y-101345186D01*
X161824562Y-101345186D02*
X161891228Y-101378520D01*
X161891228Y-101378520D02*
X162157895Y-101378520D01*
X161524562Y-101011853D02*
X161057895Y-101711853D01*
X161057895Y-101011853D02*
X161524562Y-101711853D01*
X160857895Y-101978520D02*
X160824561Y-101945186D01*
X160824561Y-101945186D02*
X160757895Y-101845186D01*
X160757895Y-101845186D02*
X160724561Y-101778520D01*
X160724561Y-101778520D02*
X160691228Y-101678520D01*
X160691228Y-101678520D02*
X160657895Y-101511853D01*
X160657895Y-101511853D02*
X160657895Y-101378520D01*
X160657895Y-101378520D02*
X160691228Y-101211853D01*
X160691228Y-101211853D02*
X160724561Y-101111853D01*
X160724561Y-101111853D02*
X160757895Y-101045186D01*
X160757895Y-101045186D02*
X160824561Y-100945186D01*
X160824561Y-100945186D02*
X160857895Y-100911853D01*
X159791228Y-101711853D02*
X159791228Y-101011853D01*
X159791228Y-101011853D02*
X159524561Y-101011853D01*
X159524561Y-101011853D02*
X159457895Y-101045186D01*
X159457895Y-101045186D02*
X159424561Y-101078520D01*
X159424561Y-101078520D02*
X159391228Y-101145186D01*
X159391228Y-101145186D02*
X159391228Y-101245186D01*
X159391228Y-101245186D02*
X159424561Y-101311853D01*
X159424561Y-101311853D02*
X159457895Y-101345186D01*
X159457895Y-101345186D02*
X159524561Y-101378520D01*
X159524561Y-101378520D02*
X159791228Y-101378520D01*
X159124561Y-101511853D02*
X158791228Y-101511853D01*
X159191228Y-101711853D02*
X158957895Y-101011853D01*
X158957895Y-101011853D02*
X158724561Y-101711853D01*
X158391228Y-101311853D02*
X158457895Y-101278520D01*
X158457895Y-101278520D02*
X158491228Y-101245186D01*
X158491228Y-101245186D02*
X158524561Y-101178520D01*
X158524561Y-101178520D02*
X158524561Y-101145186D01*
X158524561Y-101145186D02*
X158491228Y-101078520D01*
X158491228Y-101078520D02*
X158457895Y-101045186D01*
X158457895Y-101045186D02*
X158391228Y-101011853D01*
X158391228Y-101011853D02*
X158257895Y-101011853D01*
X158257895Y-101011853D02*
X158191228Y-101045186D01*
X158191228Y-101045186D02*
X158157895Y-101078520D01*
X158157895Y-101078520D02*
X158124561Y-101145186D01*
X158124561Y-101145186D02*
X158124561Y-101178520D01*
X158124561Y-101178520D02*
X158157895Y-101245186D01*
X158157895Y-101245186D02*
X158191228Y-101278520D01*
X158191228Y-101278520D02*
X158257895Y-101311853D01*
X158257895Y-101311853D02*
X158391228Y-101311853D01*
X158391228Y-101311853D02*
X158457895Y-101345186D01*
X158457895Y-101345186D02*
X158491228Y-101378520D01*
X158491228Y-101378520D02*
X158524561Y-101445186D01*
X158524561Y-101445186D02*
X158524561Y-101578520D01*
X158524561Y-101578520D02*
X158491228Y-101645186D01*
X158491228Y-101645186D02*
X158457895Y-101678520D01*
X158457895Y-101678520D02*
X158391228Y-101711853D01*
X158391228Y-101711853D02*
X158257895Y-101711853D01*
X158257895Y-101711853D02*
X158191228Y-101678520D01*
X158191228Y-101678520D02*
X158157895Y-101645186D01*
X158157895Y-101645186D02*
X158124561Y-101578520D01*
X158124561Y-101578520D02*
X158124561Y-101445186D01*
X158124561Y-101445186D02*
X158157895Y-101378520D01*
X158157895Y-101378520D02*
X158191228Y-101345186D01*
X158191228Y-101345186D02*
X158257895Y-101311853D01*
X160457895Y-111871853D02*
X160457895Y-111171853D01*
X160457895Y-111171853D02*
X160191228Y-111171853D01*
X160191228Y-111171853D02*
X160124562Y-111205186D01*
X160124562Y-111205186D02*
X160091228Y-111238520D01*
X160091228Y-111238520D02*
X160057895Y-111305186D01*
X160057895Y-111305186D02*
X160057895Y-111405186D01*
X160057895Y-111405186D02*
X160091228Y-111471853D01*
X160091228Y-111471853D02*
X160124562Y-111505186D01*
X160124562Y-111505186D02*
X160191228Y-111538520D01*
X160191228Y-111538520D02*
X160457895Y-111538520D01*
X159791228Y-111671853D02*
X159457895Y-111671853D01*
X159857895Y-111871853D02*
X159624562Y-111171853D01*
X159624562Y-111171853D02*
X159391228Y-111871853D01*
X158791228Y-111871853D02*
X159191228Y-111871853D01*
X158991228Y-111871853D02*
X158991228Y-111171853D01*
X158991228Y-111171853D02*
X159057895Y-111271853D01*
X159057895Y-111271853D02*
X159124562Y-111338520D01*
X159124562Y-111338520D02*
X159191228Y-111371853D01*
X158191228Y-111171853D02*
X158324561Y-111171853D01*
X158324561Y-111171853D02*
X158391228Y-111205186D01*
X158391228Y-111205186D02*
X158424561Y-111238520D01*
X158424561Y-111238520D02*
X158491228Y-111338520D01*
X158491228Y-111338520D02*
X158524561Y-111471853D01*
X158524561Y-111471853D02*
X158524561Y-111738520D01*
X158524561Y-111738520D02*
X158491228Y-111805186D01*
X158491228Y-111805186D02*
X158457895Y-111838520D01*
X158457895Y-111838520D02*
X158391228Y-111871853D01*
X158391228Y-111871853D02*
X158257895Y-111871853D01*
X158257895Y-111871853D02*
X158191228Y-111838520D01*
X158191228Y-111838520D02*
X158157895Y-111805186D01*
X158157895Y-111805186D02*
X158124561Y-111738520D01*
X158124561Y-111738520D02*
X158124561Y-111571853D01*
X158124561Y-111571853D02*
X158157895Y-111505186D01*
X158157895Y-111505186D02*
X158191228Y-111471853D01*
X158191228Y-111471853D02*
X158257895Y-111438520D01*
X158257895Y-111438520D02*
X158391228Y-111438520D01*
X158391228Y-111438520D02*
X158457895Y-111471853D01*
X158457895Y-111471853D02*
X158491228Y-111505186D01*
X158491228Y-111505186D02*
X158524561Y-111571853D01*
X160457895Y-86471853D02*
X160457895Y-85771853D01*
X160457895Y-85771853D02*
X160191228Y-85771853D01*
X160191228Y-85771853D02*
X160124562Y-85805186D01*
X160124562Y-85805186D02*
X160091228Y-85838520D01*
X160091228Y-85838520D02*
X160057895Y-85905186D01*
X160057895Y-85905186D02*
X160057895Y-86005186D01*
X160057895Y-86005186D02*
X160091228Y-86071853D01*
X160091228Y-86071853D02*
X160124562Y-86105186D01*
X160124562Y-86105186D02*
X160191228Y-86138520D01*
X160191228Y-86138520D02*
X160457895Y-86138520D01*
X159791228Y-86271853D02*
X159457895Y-86271853D01*
X159857895Y-86471853D02*
X159624562Y-85771853D01*
X159624562Y-85771853D02*
X159391228Y-86471853D01*
X158791228Y-86471853D02*
X159191228Y-86471853D01*
X158991228Y-86471853D02*
X158991228Y-85771853D01*
X158991228Y-85771853D02*
X159057895Y-85871853D01*
X159057895Y-85871853D02*
X159124562Y-85938520D01*
X159124562Y-85938520D02*
X159191228Y-85971853D01*
X158557895Y-85771853D02*
X158091228Y-85771853D01*
X158091228Y-85771853D02*
X158391228Y-86471853D01*
D14*
%TO.C,kibuzzard-698ADC83*%
G36*
X167013091Y-112744488D02*
G01*
X167067168Y-112781291D01*
X167103971Y-112835368D01*
X167116238Y-112899460D01*
X167116238Y-112979574D01*
X166782762Y-112979574D01*
X166782762Y-112898458D01*
X166794904Y-112835118D01*
X166831331Y-112781291D01*
X166885033Y-112744488D01*
X166949000Y-112732221D01*
X167013091Y-112744488D01*
G37*
G36*
X167394970Y-112548959D02*
G01*
X167394970Y-114546813D01*
X167394970Y-114713718D01*
X166950001Y-115010364D01*
X166505032Y-114713718D01*
X166505032Y-114546813D01*
X166505032Y-114194309D01*
X166588485Y-114194309D01*
X166595307Y-114263909D01*
X166615774Y-114328501D01*
X166649885Y-114388086D01*
X166697640Y-114442664D01*
X166754910Y-114488229D01*
X166817562Y-114520776D01*
X166885596Y-114540304D01*
X166959014Y-114546813D01*
X167029020Y-114540210D01*
X167093831Y-114520400D01*
X167153448Y-114487384D01*
X167207869Y-114441162D01*
X167253215Y-114385677D01*
X167285605Y-114324871D01*
X167305039Y-114258745D01*
X167311517Y-114187299D01*
X167307887Y-114135350D01*
X167296997Y-114079646D01*
X167279597Y-114026945D01*
X167256439Y-113984009D01*
X167236410Y-113955969D01*
X167215380Y-113937443D01*
X167186339Y-113927929D01*
X167130259Y-113950962D01*
X167090452Y-113988015D01*
X167077183Y-114025068D01*
X167100216Y-114079145D01*
X167121246Y-114130468D01*
X167128256Y-114192307D01*
X167115863Y-114258151D01*
X167078685Y-114313480D01*
X167023481Y-114351033D01*
X166957011Y-114363551D01*
X166888413Y-114350533D01*
X166828828Y-114311477D01*
X166787519Y-114255146D01*
X166773749Y-114190304D01*
X166777004Y-114132721D01*
X166786768Y-114090161D01*
X166872891Y-114090161D01*
X166872891Y-114164267D01*
X166874393Y-114191305D01*
X166882404Y-114212335D01*
X166905938Y-114229360D01*
X166951002Y-114234367D01*
X166995065Y-114228859D01*
X167018599Y-114210332D01*
X167026610Y-114188301D01*
X167028113Y-114161262D01*
X167028113Y-113986012D01*
X167021103Y-113947457D01*
X167008084Y-113923923D01*
X166988055Y-113911906D01*
X166966024Y-113907400D01*
X166940988Y-113906899D01*
X166735695Y-113906899D01*
X166678113Y-113930933D01*
X166650698Y-113959224D01*
X166627540Y-113996026D01*
X166605843Y-114051439D01*
X166592824Y-114117533D01*
X166588485Y-114194309D01*
X166505032Y-114194309D01*
X166505032Y-113743666D01*
X166505032Y-113311048D01*
X166598499Y-113311048D01*
X166604007Y-113362621D01*
X166625537Y-113392164D01*
X166968027Y-113651534D01*
X166689629Y-113651534D01*
X166655080Y-113653036D01*
X166628041Y-113662550D01*
X166605509Y-113690590D01*
X166598499Y-113743666D01*
X166605509Y-113795239D01*
X166628041Y-113822278D01*
X166655580Y-113831792D01*
X166690630Y-113833794D01*
X167210373Y-113833794D01*
X167243921Y-113831792D01*
X167270459Y-113821777D01*
X167291990Y-113794238D01*
X167298499Y-113741663D01*
X167292490Y-113696098D01*
X167279972Y-113670561D01*
X167259443Y-113652535D01*
X166922962Y-113402178D01*
X167210373Y-113402178D01*
X167243420Y-113400175D01*
X167269958Y-113390161D01*
X167291489Y-113362121D01*
X167298499Y-113310046D01*
X167291489Y-113257972D01*
X167268456Y-113229932D01*
X167240917Y-113220418D01*
X167206367Y-113218916D01*
X166689629Y-113218916D01*
X166655080Y-113220418D01*
X166628041Y-113229932D01*
X166605509Y-113257972D01*
X166598499Y-113311048D01*
X166505032Y-113311048D01*
X166505032Y-113071706D01*
X166505032Y-112901463D01*
X166599500Y-112901463D01*
X166599500Y-113071706D01*
X166606510Y-113122278D01*
X166628041Y-113149817D01*
X166656081Y-113160332D01*
X166691632Y-113162836D01*
X167209372Y-113162836D01*
X167242919Y-113161334D01*
X167270459Y-113151820D01*
X167292991Y-113123780D01*
X167299500Y-113070704D01*
X167299500Y-112898458D01*
X167293116Y-112829360D01*
X167273964Y-112765268D01*
X167242043Y-112706184D01*
X167197354Y-112652106D01*
X167143778Y-112606979D01*
X167085194Y-112574746D01*
X167021603Y-112555406D01*
X166953005Y-112548959D01*
X166882561Y-112555406D01*
X166817437Y-112574746D01*
X166757632Y-112606979D01*
X166703148Y-112652106D01*
X166657802Y-112706371D01*
X166625412Y-112766019D01*
X166605978Y-112831049D01*
X166599500Y-112901463D01*
X166505032Y-112901463D01*
X166505032Y-112548959D01*
X166505032Y-112382054D01*
X167394970Y-112382054D01*
X167394970Y-112548959D01*
G37*
%TO.C,kibuzzard-698AE4C9*%
G36*
X159263337Y-114255945D02*
G01*
X159272850Y-114298005D01*
X159272850Y-114311023D01*
X159290375Y-114368105D01*
X159349961Y-114385129D01*
X159407543Y-114367104D01*
X159424066Y-114306016D01*
X159424066Y-114293999D01*
X159431076Y-114269965D01*
X159462121Y-114262955D01*
X159493165Y-114273470D01*
X159501177Y-114315029D01*
X159501177Y-114436202D01*
X159166699Y-114436202D01*
X159166699Y-114292998D01*
X159167700Y-114278978D01*
X159173208Y-114263455D01*
X159190232Y-114248434D01*
X159221777Y-114242926D01*
X159263337Y-114255945D01*
G37*
G36*
X159777905Y-112942068D02*
G01*
X159777905Y-114619464D01*
X159777905Y-114786369D01*
X159333437Y-115082681D01*
X158888969Y-114786369D01*
X158888969Y-114619464D01*
X158888969Y-114528334D01*
X158888969Y-114282983D01*
X158983437Y-114282983D01*
X158983437Y-114528334D01*
X158990447Y-114580408D01*
X159013480Y-114608448D01*
X159041520Y-114617962D01*
X159076570Y-114619464D01*
X159593308Y-114619464D01*
X159626856Y-114617962D01*
X159654396Y-114608448D01*
X159677428Y-114580408D01*
X159684438Y-114527332D01*
X159684438Y-114292998D01*
X159677373Y-114236584D01*
X159656176Y-114186178D01*
X159620848Y-114141782D01*
X159575839Y-114107288D01*
X159525600Y-114086592D01*
X159470132Y-114079693D01*
X159411549Y-114087955D01*
X159357972Y-114112740D01*
X159287622Y-114072933D01*
X159210762Y-114059664D01*
X159150565Y-114067509D01*
X159096821Y-114089707D01*
X159049531Y-114126259D01*
X159012812Y-114172826D01*
X158990781Y-114225067D01*
X158983437Y-114282983D01*
X158888969Y-114282983D01*
X158888969Y-113768248D01*
X158972421Y-113768248D01*
X158976928Y-113824328D01*
X158987943Y-113871395D01*
X159004467Y-113909950D01*
X159023494Y-113940995D01*
X159043022Y-113965029D01*
X159060547Y-113982554D01*
X159074567Y-113993570D01*
X159081577Y-113999578D01*
X159146670Y-114024614D01*
X159210762Y-113982554D01*
X159233906Y-113940939D01*
X159227230Y-113897544D01*
X159190733Y-113852368D01*
X159154181Y-113811810D01*
X159144667Y-113772254D01*
X159159188Y-113713169D01*
X159205755Y-113695144D01*
X159236799Y-113721181D01*
X159260333Y-113799793D01*
X159273226Y-113847486D01*
X159286870Y-113885415D01*
X159318916Y-113941496D01*
X159361978Y-113981553D01*
X159416055Y-114005587D01*
X159481148Y-114013599D01*
X159539064Y-114006143D01*
X159589970Y-113983778D01*
X159633866Y-113946503D01*
X159667525Y-113897878D01*
X159687721Y-113841464D01*
X159694453Y-113777261D01*
X159687777Y-113701709D01*
X159667748Y-113637951D01*
X159634367Y-113585988D01*
X159582793Y-113549936D01*
X159521205Y-113573970D01*
X159472636Y-113633055D01*
X159491162Y-113700151D01*
X159500676Y-113711667D01*
X159512192Y-113725687D01*
X159519703Y-113745215D01*
X159523208Y-113778262D01*
X159510690Y-113815315D01*
X159480147Y-113831338D01*
X159447600Y-113813813D01*
X159430075Y-113774257D01*
X159417557Y-113713169D01*
X159402035Y-113649078D01*
X159375998Y-113592372D01*
X159337943Y-113548434D01*
X159283616Y-113520269D01*
X159208759Y-113510880D01*
X159160941Y-113515136D01*
X159117629Y-113527905D01*
X159050032Y-113571467D01*
X159005468Y-113633055D01*
X158979932Y-113701653D01*
X158972421Y-113768248D01*
X158888969Y-113768248D01*
X158888969Y-113355659D01*
X158888969Y-113020179D01*
X158982436Y-113020179D01*
X158982436Y-113355659D01*
X158989446Y-113407733D01*
X159012478Y-113435773D01*
X159040018Y-113445287D01*
X159074567Y-113446789D01*
X159592307Y-113446789D01*
X159625855Y-113445287D01*
X159653394Y-113435773D01*
X159676427Y-113407733D01*
X159683437Y-113354657D01*
X159676427Y-113302583D01*
X159653394Y-113274543D01*
X159625855Y-113265029D01*
X159591305Y-113263527D01*
X159138659Y-113263527D01*
X159138659Y-113019178D01*
X159137157Y-112990637D01*
X159129145Y-112967604D01*
X159105612Y-112948076D01*
X159060547Y-112942068D01*
X159016484Y-112948076D01*
X158992450Y-112967604D01*
X158983938Y-112991639D01*
X158982436Y-113020179D01*
X158888969Y-113020179D01*
X158888969Y-112942068D01*
X158888969Y-112775163D01*
X159777905Y-112775163D01*
X159777905Y-112942068D01*
G37*
%TO.C,kibuzzard-698ADC7E*%
G36*
X164555710Y-113597242D02*
G01*
X164576740Y-113648816D01*
X164576740Y-113756970D01*
X164430531Y-113756970D01*
X164430531Y-113646813D01*
X164448557Y-113598744D01*
X164503636Y-113575711D01*
X164555710Y-113597242D01*
G37*
G36*
X164339902Y-114191591D02*
G01*
X164349415Y-114233651D01*
X164349415Y-114246670D01*
X164366940Y-114303752D01*
X164426526Y-114320776D01*
X164484108Y-114302750D01*
X164500631Y-114241663D01*
X164500631Y-114229646D01*
X164507641Y-114205611D01*
X164538686Y-114198601D01*
X164569730Y-114209116D01*
X164577742Y-114250676D01*
X164577742Y-114371849D01*
X164243264Y-114371849D01*
X164243264Y-114228644D01*
X164244265Y-114214624D01*
X164249773Y-114199102D01*
X164266797Y-114184081D01*
X164298342Y-114178573D01*
X164339902Y-114191591D01*
G37*
G36*
X164856473Y-112688444D02*
G01*
X164856473Y-114555111D01*
X164856473Y-114722016D01*
X164410002Y-115019663D01*
X163963531Y-114722016D01*
X163963531Y-114555111D01*
X163963531Y-114463980D01*
X163963531Y-114218630D01*
X164060002Y-114218630D01*
X164060002Y-114463980D01*
X164067012Y-114516055D01*
X164090045Y-114544095D01*
X164118085Y-114553608D01*
X164153135Y-114555111D01*
X164669873Y-114555111D01*
X164703421Y-114553608D01*
X164730961Y-114544095D01*
X164753993Y-114516055D01*
X164761003Y-114462979D01*
X164761003Y-114228644D01*
X164753938Y-114172230D01*
X164732741Y-114121825D01*
X164697413Y-114077428D01*
X164652404Y-114042934D01*
X164602165Y-114022238D01*
X164546697Y-114015340D01*
X164488114Y-114023601D01*
X164434537Y-114048387D01*
X164364187Y-114008580D01*
X164287327Y-113995311D01*
X164227130Y-114003155D01*
X164173386Y-114025354D01*
X164126096Y-114061906D01*
X164089377Y-114108473D01*
X164067346Y-114160714D01*
X164060002Y-114218630D01*
X163963531Y-114218630D01*
X163963531Y-113500604D01*
X164056497Y-113500604D01*
X164103064Y-113556684D01*
X164248271Y-113663837D01*
X164248271Y-113756970D01*
X164151132Y-113756970D01*
X164116583Y-113758473D01*
X164089544Y-113767986D01*
X164067012Y-113796026D01*
X164060002Y-113849102D01*
X164067012Y-113901176D01*
X164090045Y-113929216D01*
X164117584Y-113938730D01*
X164152134Y-113940232D01*
X164668872Y-113940232D01*
X164702420Y-113938730D01*
X164729959Y-113929216D01*
X164752992Y-113901176D01*
X164760002Y-113848101D01*
X164760002Y-113646813D01*
X164755996Y-113606130D01*
X164743979Y-113564195D01*
X164724451Y-113522385D01*
X164697913Y-113482078D01*
X164662488Y-113446151D01*
X164616297Y-113417485D01*
X164562094Y-113398709D01*
X164502634Y-113392450D01*
X164427638Y-113402241D01*
X164362879Y-113431617D01*
X164308357Y-113480576D01*
X164212219Y-113408473D01*
X164143121Y-113381434D01*
X164084036Y-113429503D01*
X164056497Y-113500604D01*
X163963531Y-113500604D01*
X163963531Y-113254252D01*
X164048486Y-113254252D01*
X164084036Y-113322350D01*
X164147627Y-113361906D01*
X164212219Y-113327357D01*
X164409501Y-113148101D01*
X164606783Y-113328358D01*
X164670875Y-113361906D01*
X164735968Y-113323351D01*
X164771518Y-113255254D01*
X164729959Y-113194166D01*
X164544694Y-113024925D01*
X164729959Y-112856684D01*
X164771518Y-112795597D01*
X164735968Y-112727500D01*
X164670875Y-112688444D01*
X164606783Y-112722493D01*
X164409501Y-112902750D01*
X164212219Y-112723494D01*
X164147627Y-112688945D01*
X164084036Y-112728501D01*
X164048486Y-112796598D01*
X164090045Y-112857686D01*
X164274308Y-113024925D01*
X164090045Y-113193165D01*
X164048486Y-113254252D01*
X163963531Y-113254252D01*
X163963531Y-112796598D01*
X163963531Y-112688444D01*
X163963531Y-112521539D01*
X164856473Y-112521539D01*
X164856473Y-112688444D01*
G37*
%TO.C,G\u002A\u002A\u002A*%
G36*
X171431771Y-101973535D02*
G01*
X171431771Y-102126764D01*
X170890962Y-102126764D01*
X170350153Y-102126764D01*
X170350153Y-101973535D01*
X170350153Y-101820306D01*
X170890962Y-101820306D01*
X171431771Y-101820306D01*
X171431771Y-101973535D01*
G37*
G36*
X171936526Y-101973535D02*
G01*
X171936526Y-102126764D01*
X171801324Y-102126764D01*
X171666122Y-102126764D01*
X171666122Y-101973535D01*
X171666122Y-101820306D01*
X171801324Y-101820306D01*
X171936526Y-101820306D01*
X171936526Y-101973535D01*
G37*
G36*
X171134742Y-99552451D02*
G01*
X171172908Y-99554795D01*
X171248262Y-99563160D01*
X171300150Y-99576575D01*
X171337545Y-99597010D01*
X171339087Y-99598158D01*
X171370761Y-99624554D01*
X171394262Y-99653452D01*
X171410799Y-99690443D01*
X171421582Y-99741116D01*
X171427820Y-99811061D01*
X171430725Y-99905869D01*
X171431506Y-100031129D01*
X171431771Y-100342094D01*
X170890962Y-100342094D01*
X170350153Y-100342094D01*
X170350153Y-100197879D01*
X170350153Y-100053663D01*
X170782800Y-100053663D01*
X171215448Y-100053663D01*
X171215448Y-99967133D01*
X171214422Y-99939835D01*
X171206674Y-99888889D01*
X171193815Y-99858972D01*
X171179343Y-99851094D01*
X171134843Y-99841204D01*
X171076640Y-99837339D01*
X170981097Y-99837339D01*
X170981097Y-99690863D01*
X170981097Y-99544386D01*
X171134742Y-99552451D01*
G37*
G36*
X170426768Y-100515105D02*
G01*
X170436844Y-100524585D01*
X170484945Y-100569399D01*
X170550183Y-100629764D01*
X170625279Y-100698952D01*
X170702950Y-100770238D01*
X170902518Y-100953015D01*
X171157792Y-100710649D01*
X171167889Y-100701069D01*
X171246090Y-100627359D01*
X171314776Y-100563441D01*
X171369814Y-100513099D01*
X171407073Y-100480118D01*
X171422418Y-100468283D01*
X171425122Y-100475988D01*
X171428551Y-100512615D01*
X171430900Y-100572535D01*
X171431771Y-100648108D01*
X171431771Y-100827932D01*
X171182760Y-101049208D01*
X170933748Y-101270483D01*
X171435137Y-101275271D01*
X171936526Y-101280058D01*
X171936526Y-101423993D01*
X171936526Y-101567928D01*
X171143340Y-101567928D01*
X170350153Y-101567928D01*
X170350153Y-101424207D01*
X170350153Y-101280487D01*
X170604476Y-101275485D01*
X170858799Y-101270483D01*
X170605283Y-101063173D01*
X170351766Y-100855863D01*
X170350960Y-100649306D01*
X170350153Y-100442749D01*
X170426768Y-100515105D01*
G37*
G36*
X170760267Y-102364631D02*
G01*
X170796316Y-102365262D01*
X170936802Y-102368478D01*
X171047140Y-102373077D01*
X171132156Y-102380054D01*
X171196675Y-102390403D01*
X171245522Y-102405119D01*
X171283523Y-102425196D01*
X171315505Y-102451629D01*
X171346292Y-102485412D01*
X171351356Y-102491670D01*
X171387963Y-102549714D01*
X171412951Y-102609546D01*
X171414304Y-102615665D01*
X171419192Y-102661033D01*
X171423409Y-102738096D01*
X171426860Y-102843390D01*
X171429450Y-102973450D01*
X171431085Y-103124812D01*
X171431671Y-103294011D01*
X171431771Y-103911434D01*
X170890962Y-103911434D01*
X170350153Y-103911434D01*
X170350153Y-103767219D01*
X170350153Y-103623003D01*
X170773787Y-103623003D01*
X171197421Y-103623003D01*
X171197421Y-103460760D01*
X171197421Y-103298517D01*
X170773787Y-103298517D01*
X170350153Y-103298517D01*
X170350153Y-103145288D01*
X170350153Y-102992059D01*
X170776209Y-102992059D01*
X171202265Y-102992059D01*
X171192986Y-102862375D01*
X171189284Y-102813371D01*
X171182758Y-102764598D01*
X171170136Y-102728129D01*
X171147137Y-102702176D01*
X171109484Y-102684951D01*
X171052895Y-102674666D01*
X170973091Y-102669534D01*
X170865794Y-102667766D01*
X170726722Y-102667573D01*
X170350153Y-102667573D01*
X170350153Y-102512632D01*
X170350153Y-102357691D01*
X170760267Y-102364631D01*
G37*
G36*
X171043438Y-98315702D02*
G01*
X171163437Y-98357413D01*
X171267713Y-98424850D01*
X171318733Y-98476241D01*
X171389660Y-98584104D01*
X171436696Y-98709315D01*
X171457190Y-98843742D01*
X171448491Y-98979253D01*
X171417731Y-99095804D01*
X171356008Y-99220530D01*
X171270012Y-99319022D01*
X171161066Y-99390192D01*
X171030498Y-99432951D01*
X170927093Y-99442041D01*
X170879632Y-99446213D01*
X170765727Y-99435210D01*
X170634819Y-99394173D01*
X170523078Y-99324727D01*
X170433532Y-99228872D01*
X170369207Y-99108611D01*
X170366888Y-99102464D01*
X170336055Y-98974356D01*
X170332375Y-98850129D01*
X170571698Y-98850129D01*
X170571768Y-98917915D01*
X170598052Y-98989975D01*
X170604732Y-99002282D01*
X170661499Y-99066690D01*
X170739431Y-99111187D01*
X170830604Y-99135354D01*
X170927093Y-99138769D01*
X171020975Y-99121011D01*
X171104324Y-99081661D01*
X171169217Y-99020297D01*
X171170846Y-99018017D01*
X171198809Y-98951942D01*
X171207834Y-98871050D01*
X171197929Y-98790512D01*
X171169099Y-98725496D01*
X171161230Y-98715264D01*
X171094022Y-98656689D01*
X171005020Y-98622596D01*
X170890681Y-98611533D01*
X170807366Y-98616533D01*
X170720941Y-98640093D01*
X170656119Y-98685707D01*
X170607038Y-98756368D01*
X170598329Y-98773979D01*
X170571698Y-98850129D01*
X170332375Y-98850129D01*
X170332016Y-98838016D01*
X170353338Y-98702818D01*
X170398588Y-98578134D01*
X170466332Y-98473340D01*
X170552014Y-98397281D01*
X170662002Y-98340504D01*
X170785429Y-98307688D01*
X170915005Y-98299274D01*
X171043438Y-98315702D01*
G37*
G36*
X169719209Y-100554964D02*
G01*
X169719209Y-100753593D01*
X169074745Y-100759661D01*
X168430281Y-100765728D01*
X168341083Y-100810796D01*
X168276035Y-100849183D01*
X168223348Y-100899861D01*
X168188829Y-100966425D01*
X168165419Y-101058846D01*
X168158836Y-101101310D01*
X168155749Y-101230251D01*
X168178617Y-101346046D01*
X168225934Y-101443412D01*
X168296193Y-101517069D01*
X168317905Y-101530797D01*
X168353970Y-101546090D01*
X168401636Y-101558404D01*
X168464395Y-101568029D01*
X168545738Y-101575255D01*
X168649156Y-101580370D01*
X168778142Y-101583666D01*
X168936186Y-101585431D01*
X169126780Y-101585955D01*
X169719209Y-101585955D01*
X169719209Y-101785386D01*
X169719209Y-101984817D01*
X169011651Y-101979176D01*
X168880520Y-101978112D01*
X168725625Y-101976692D01*
X168600309Y-101975145D01*
X168500799Y-101973243D01*
X168423322Y-101970760D01*
X168364105Y-101967468D01*
X168319375Y-101963140D01*
X168285359Y-101957550D01*
X168258284Y-101950470D01*
X168234377Y-101941673D01*
X168209864Y-101930932D01*
X168177952Y-101915193D01*
X168068285Y-101836279D01*
X167980051Y-101729066D01*
X167913984Y-101594627D01*
X167870814Y-101434036D01*
X167852448Y-101286252D01*
X167849575Y-101117126D01*
X167864377Y-100952460D01*
X167895953Y-100801700D01*
X167943400Y-100674293D01*
X167964020Y-100637663D01*
X168015801Y-100565876D01*
X168071754Y-100506332D01*
X168083884Y-100495696D01*
X168119446Y-100465856D01*
X168153729Y-100441272D01*
X168190465Y-100421388D01*
X168233388Y-100405645D01*
X168286230Y-100393485D01*
X168352726Y-100384350D01*
X168436608Y-100377683D01*
X168541610Y-100372926D01*
X168671464Y-100369520D01*
X168829904Y-100366909D01*
X169020664Y-100364533D01*
X169719209Y-100356334D01*
X169719209Y-100554964D01*
G37*
G36*
X168543884Y-102300907D02*
G01*
X168643401Y-102351786D01*
X168721180Y-102428550D01*
X168735809Y-102448424D01*
X168766275Y-102489134D01*
X168784819Y-102512943D01*
X168799398Y-102511452D01*
X168831071Y-102488123D01*
X168871645Y-102446852D01*
X168877753Y-102439982D01*
X168957965Y-102364464D01*
X169041581Y-102317229D01*
X169138088Y-102294473D01*
X169256969Y-102292394D01*
X169353420Y-102302611D01*
X169461172Y-102333025D01*
X169546356Y-102384740D01*
X169614306Y-102460263D01*
X169629233Y-102482633D01*
X169653352Y-102524690D01*
X169672795Y-102570266D01*
X169688054Y-102623425D01*
X169699619Y-102688235D01*
X169707980Y-102768761D01*
X169713629Y-102869069D01*
X169717056Y-102993225D01*
X169718753Y-103145295D01*
X169719209Y-103329345D01*
X169719209Y-103911434D01*
X169176968Y-103911434D01*
X168790820Y-103911434D01*
X168421267Y-103911434D01*
X167862431Y-103911434D01*
X167862431Y-103514841D01*
X168204944Y-103514841D01*
X168421267Y-103514841D01*
X168637591Y-103514841D01*
X168959213Y-103514841D01*
X169176968Y-103514841D01*
X169394724Y-103514841D01*
X169393939Y-103239930D01*
X169393895Y-103227189D01*
X169392025Y-103090396D01*
X169387183Y-102984252D01*
X169378630Y-102903824D01*
X169365630Y-102844176D01*
X169347444Y-102800375D01*
X169323335Y-102767488D01*
X169263554Y-102726462D01*
X169190737Y-102709842D01*
X169115952Y-102717221D01*
X169049660Y-102747548D01*
X169002324Y-102799770D01*
X168992859Y-102820602D01*
X168983483Y-102854825D01*
X168976558Y-102902915D01*
X168971551Y-102970418D01*
X168967927Y-103062880D01*
X168965152Y-103185849D01*
X168959213Y-103514841D01*
X168637591Y-103514841D01*
X168637591Y-103208747D01*
X168637576Y-103188600D01*
X168636541Y-103070258D01*
X168633556Y-102981124D01*
X168628163Y-102915249D01*
X168619903Y-102866686D01*
X168608316Y-102829488D01*
X168604546Y-102820640D01*
X168558464Y-102756109D01*
X168495237Y-102716298D01*
X168423146Y-102701597D01*
X168350474Y-102712395D01*
X168285504Y-102749079D01*
X168236519Y-102812040D01*
X168226089Y-102836780D01*
X168217204Y-102871591D01*
X168211135Y-102918924D01*
X168207396Y-102984660D01*
X168205503Y-103074680D01*
X168204972Y-103194862D01*
X168204944Y-103514841D01*
X167862431Y-103514841D01*
X167862431Y-103389957D01*
X167862515Y-103320802D01*
X167863873Y-103137078D01*
X167867182Y-102984216D01*
X167872819Y-102858351D01*
X167881159Y-102755616D01*
X167892579Y-102672145D01*
X167907453Y-102604073D01*
X167926158Y-102547532D01*
X167949070Y-102498656D01*
X167976538Y-102453090D01*
X168038448Y-102382517D01*
X168117835Y-102332487D01*
X168223600Y-102296444D01*
X168297819Y-102281634D01*
X168427175Y-102277121D01*
X168543884Y-102300907D01*
G37*
G36*
X168577757Y-98355377D02*
G01*
X168704090Y-98391338D01*
X168804045Y-98451424D01*
X168878208Y-98536026D01*
X168927167Y-98645533D01*
X168930605Y-98662706D01*
X168936700Y-98717254D01*
X168942741Y-98798380D01*
X168948370Y-98900100D01*
X168953227Y-99016434D01*
X168956953Y-99141400D01*
X168967242Y-99572147D01*
X169017285Y-99628129D01*
X169028526Y-99640358D01*
X169062254Y-99668582D01*
X169100900Y-99680748D01*
X169159909Y-99682772D01*
X169222092Y-99678061D01*
X169265121Y-99662066D01*
X169305206Y-99628691D01*
X169319311Y-99613349D01*
X169340997Y-99581788D01*
X169358197Y-99541925D01*
X169371405Y-99489796D01*
X169381109Y-99421439D01*
X169387802Y-99332892D01*
X169391975Y-99220193D01*
X169394118Y-99079380D01*
X169394724Y-98906490D01*
X169394724Y-98431236D01*
X169557995Y-98431236D01*
X169721266Y-98431236D01*
X169715731Y-99084713D01*
X169715307Y-99134531D01*
X169713837Y-99296222D01*
X169712316Y-99426843D01*
X169710490Y-99530312D01*
X169708104Y-99610547D01*
X169704906Y-99671466D01*
X169700640Y-99716987D01*
X169695053Y-99751028D01*
X169687890Y-99777507D01*
X169678898Y-99800343D01*
X169667822Y-99823452D01*
X169662761Y-99833441D01*
X169596490Y-99934458D01*
X169513273Y-100009372D01*
X169407861Y-100061818D01*
X169275005Y-100095431D01*
X169243839Y-100100121D01*
X169103904Y-100104730D01*
X168975359Y-100082450D01*
X168862942Y-100035132D01*
X168771388Y-99964630D01*
X168705434Y-99872793D01*
X168690433Y-99841729D01*
X168665150Y-99778297D01*
X168646415Y-99709896D01*
X168633353Y-99630322D01*
X168625089Y-99533371D01*
X168620751Y-99412839D01*
X168619464Y-99262522D01*
X168619414Y-99228995D01*
X168617958Y-99095973D01*
X168613798Y-98993483D01*
X168606000Y-98917019D01*
X168593629Y-98862076D01*
X168575753Y-98824149D01*
X168551438Y-98798733D01*
X168519750Y-98781321D01*
X168448299Y-98759175D01*
X168365173Y-98758001D01*
X168297093Y-98788713D01*
X168245691Y-98850897D01*
X168241873Y-98858356D01*
X168233564Y-98880142D01*
X168226920Y-98909488D01*
X168221695Y-98950466D01*
X168217645Y-99007146D01*
X168214525Y-99083598D01*
X168212089Y-99183893D01*
X168210093Y-99312101D01*
X168208291Y-99472293D01*
X168202625Y-100035636D01*
X168044546Y-100035636D01*
X168013628Y-100035407D01*
X167946178Y-100033156D01*
X167896787Y-100029014D01*
X167874449Y-100023618D01*
X167874210Y-100023319D01*
X167870443Y-100000036D01*
X167867479Y-99946175D01*
X167865290Y-99866909D01*
X167863853Y-99767410D01*
X167863141Y-99652850D01*
X167863128Y-99528400D01*
X167863788Y-99399233D01*
X167865097Y-99270522D01*
X167867027Y-99147437D01*
X167869554Y-99035151D01*
X167872652Y-98938836D01*
X167876295Y-98863665D01*
X167880458Y-98814809D01*
X167886950Y-98772337D01*
X167925448Y-98633565D01*
X167987188Y-98522155D01*
X168072533Y-98437819D01*
X168181847Y-98380270D01*
X168315493Y-98349217D01*
X168473835Y-98344375D01*
X168577757Y-98355377D01*
G37*
G36*
X168513839Y-104573448D02*
G01*
X168542062Y-104583991D01*
X168636659Y-104638400D01*
X168725710Y-104715418D01*
X168799246Y-104805327D01*
X168847297Y-104898411D01*
X168880404Y-104993052D01*
X169407969Y-104993052D01*
X169935533Y-104993052D01*
X169935533Y-105578929D01*
X169935533Y-106164805D01*
X170366731Y-106164805D01*
X170797930Y-106164805D01*
X170826925Y-106079177D01*
X170882810Y-105960614D01*
X170967122Y-105856628D01*
X171072948Y-105778228D01*
X171195981Y-105728559D01*
X171331914Y-105710762D01*
X171384816Y-105712492D01*
X171458603Y-105720438D01*
X171515533Y-105732750D01*
X171516841Y-105733178D01*
X171637717Y-105790872D01*
X171739630Y-105875361D01*
X171818370Y-105981011D01*
X171869727Y-106102188D01*
X171889492Y-106233259D01*
X171887441Y-106300819D01*
X171859591Y-106438005D01*
X171800567Y-106557979D01*
X171711485Y-106658838D01*
X171593458Y-106738678D01*
X171548590Y-106761439D01*
X171499848Y-106782019D01*
X171454681Y-106792262D01*
X171399909Y-106794768D01*
X171322352Y-106792134D01*
X171254662Y-106787841D01*
X171188345Y-106778560D01*
X171136044Y-106762440D01*
X171085277Y-106736557D01*
X171029862Y-106698865D01*
X170943540Y-106618789D01*
X170872901Y-106526729D01*
X170827392Y-106433777D01*
X170797930Y-106345075D01*
X170366731Y-106345075D01*
X169935533Y-106345075D01*
X169935533Y-107417680D01*
X169935533Y-108490285D01*
X170367485Y-108490285D01*
X170799438Y-108490285D01*
X170818405Y-108419847D01*
X170833910Y-108375016D01*
X170886160Y-108279295D01*
X170957956Y-108189564D01*
X171039848Y-108118675D01*
X171065846Y-108102020D01*
X171189120Y-108048105D01*
X171321002Y-108027134D01*
X171455818Y-108039453D01*
X171587895Y-108085405D01*
X171669469Y-108134070D01*
X171763942Y-108221222D01*
X171832129Y-108324391D01*
X171874082Y-108438533D01*
X171889853Y-108558604D01*
X171879494Y-108679560D01*
X171843056Y-108796358D01*
X171780591Y-108903952D01*
X171692151Y-108997300D01*
X171577787Y-109071356D01*
X171508868Y-109095932D01*
X171406437Y-109112466D01*
X171297200Y-109113752D01*
X171194325Y-109099809D01*
X171110980Y-109070657D01*
X171007933Y-109003885D01*
X170912999Y-108907093D01*
X170843622Y-108787203D01*
X170792805Y-108670554D01*
X170364169Y-108670554D01*
X169935533Y-108670554D01*
X169935533Y-109256431D01*
X169935533Y-109842307D01*
X169407969Y-109842307D01*
X168880404Y-109842307D01*
X168847335Y-109935415D01*
X168847032Y-109936265D01*
X168796137Y-110033327D01*
X168719479Y-110124354D01*
X168627053Y-110199507D01*
X168528852Y-110248948D01*
X168469467Y-110265983D01*
X168331165Y-110281662D01*
X168198482Y-110264893D01*
X168076067Y-110217846D01*
X167968571Y-110142693D01*
X167880644Y-110041601D01*
X167816936Y-109916742D01*
X167799140Y-109841231D01*
X167792638Y-109740106D01*
X167799820Y-109635650D01*
X167820535Y-109543567D01*
X167839166Y-109500545D01*
X167895865Y-109414836D01*
X167971675Y-109333421D01*
X168056578Y-109266318D01*
X168140554Y-109223548D01*
X168189906Y-109210705D01*
X168270822Y-109198180D01*
X168350796Y-109193336D01*
X168385152Y-109193806D01*
X168453003Y-109200367D01*
X168513801Y-109218298D01*
X168585885Y-109252189D01*
X168628545Y-109276757D01*
X168729069Y-109357982D01*
X168806612Y-109456792D01*
X168854678Y-109565615D01*
X168876627Y-109644011D01*
X169306932Y-109644011D01*
X169737236Y-109644011D01*
X169737236Y-108580419D01*
X169737236Y-107516828D01*
X169308820Y-107516828D01*
X168880404Y-107516828D01*
X168847335Y-107609936D01*
X168847032Y-107610786D01*
X168796137Y-107707848D01*
X168719479Y-107798875D01*
X168627053Y-107874028D01*
X168528852Y-107923469D01*
X168432268Y-107947986D01*
X168299052Y-107954703D01*
X168174050Y-107931403D01*
X168060732Y-107881541D01*
X167962570Y-107808572D01*
X167883032Y-107715953D01*
X167825589Y-107607139D01*
X167793712Y-107485587D01*
X167790871Y-107354751D01*
X167820535Y-107218088D01*
X167835779Y-107181418D01*
X167892451Y-107092642D01*
X167970094Y-107008952D01*
X168058850Y-106940031D01*
X168148860Y-106895563D01*
X168229494Y-106875938D01*
X168360278Y-106868880D01*
X168489198Y-106888715D01*
X168604112Y-106934408D01*
X168657377Y-106969480D01*
X168743294Y-107049340D01*
X168812064Y-107143222D01*
X168854678Y-107240136D01*
X168876627Y-107318532D01*
X169306932Y-107318532D01*
X169737236Y-107318532D01*
X169737236Y-106254940D01*
X169737236Y-105191349D01*
X169308820Y-105191349D01*
X168880404Y-105191349D01*
X168849401Y-105278641D01*
X168823070Y-105336851D01*
X168756841Y-105433246D01*
X168671381Y-105519136D01*
X168576720Y-105583312D01*
X168539323Y-105601303D01*
X168484856Y-105619904D01*
X168423257Y-105629160D01*
X168340146Y-105632033D01*
X168274031Y-105631256D01*
X168209758Y-105624895D01*
X168154599Y-105609716D01*
X168093508Y-105582713D01*
X168013793Y-105535519D01*
X167918035Y-105447310D01*
X167840138Y-105330557D01*
X167820954Y-105288997D01*
X167807789Y-105240564D01*
X167801267Y-105178721D01*
X167799466Y-105092201D01*
X167799666Y-105048609D01*
X167802487Y-104979932D01*
X167810624Y-104929246D01*
X167826576Y-104884428D01*
X167852844Y-104833355D01*
X167901421Y-104759123D01*
X167997533Y-104661217D01*
X168111496Y-104591862D01*
X168238644Y-104552892D01*
X168374314Y-104546143D01*
X168513839Y-104573448D01*
G37*
%TO.C,kibuzzard-698ADC92*%
G36*
X174636738Y-114159724D02*
G01*
X174690815Y-114196527D01*
X174727618Y-114250604D01*
X174739885Y-114314696D01*
X174739885Y-114394810D01*
X174406409Y-114394810D01*
X174406409Y-114313694D01*
X174418551Y-114250354D01*
X174454978Y-114196527D01*
X174508680Y-114159724D01*
X174572646Y-114147457D01*
X174636738Y-114159724D01*
G37*
G36*
X174639116Y-113198101D02*
G01*
X174696323Y-113234152D01*
X174735003Y-113286977D01*
X174747897Y-113349317D01*
X174735003Y-113412407D01*
X174696323Y-113465482D01*
X174639116Y-113501534D01*
X174570643Y-113513551D01*
X174503547Y-113501409D01*
X174446466Y-113464982D01*
X174407410Y-113412031D01*
X174394391Y-113350318D01*
X174407035Y-113286602D01*
X174444964Y-113233651D01*
X174501670Y-113197975D01*
X174570643Y-113186083D01*
X174639116Y-113198101D01*
G37*
G36*
X175014611Y-113002822D02*
G01*
X175014611Y-114578072D01*
X175014611Y-114744977D01*
X174571144Y-115040622D01*
X174127677Y-114744977D01*
X174127677Y-114578072D01*
X174127677Y-114486942D01*
X174127677Y-114316699D01*
X174223147Y-114316699D01*
X174223147Y-114486942D01*
X174230157Y-114537514D01*
X174251688Y-114565053D01*
X174279728Y-114575568D01*
X174315278Y-114578072D01*
X174833018Y-114578072D01*
X174866566Y-114576570D01*
X174894105Y-114567056D01*
X174916638Y-114539016D01*
X174923147Y-114485940D01*
X174923147Y-114313694D01*
X174916763Y-114244595D01*
X174897610Y-114180504D01*
X174865690Y-114121420D01*
X174821001Y-114067342D01*
X174767424Y-114022215D01*
X174708841Y-113989982D01*
X174645250Y-113970642D01*
X174576652Y-113964195D01*
X174506207Y-113970642D01*
X174441083Y-113989982D01*
X174381279Y-114022215D01*
X174326795Y-114067342D01*
X174281449Y-114121607D01*
X174249059Y-114181255D01*
X174229625Y-114246285D01*
X174223147Y-114316699D01*
X174127677Y-114316699D01*
X174127677Y-113831005D01*
X174222145Y-113831005D01*
X174229155Y-113883079D01*
X174252188Y-113911119D01*
X174279728Y-113920633D01*
X174314277Y-113922135D01*
X174832017Y-113922135D01*
X174865565Y-113920633D01*
X174893104Y-113911119D01*
X174916137Y-113883079D01*
X174923147Y-113830003D01*
X174916137Y-113777929D01*
X174893104Y-113749889D01*
X174865565Y-113740375D01*
X174831015Y-113738873D01*
X174313276Y-113738873D01*
X174278726Y-113740375D01*
X174251688Y-113749889D01*
X174229155Y-113777929D01*
X174222145Y-113831005D01*
X174127677Y-113831005D01*
X174127677Y-113345311D01*
X174211130Y-113345311D01*
X174217639Y-113415286D01*
X174237167Y-113480003D01*
X174269713Y-113539463D01*
X174315278Y-113593666D01*
X174370044Y-113638793D01*
X174430193Y-113671026D01*
X174495724Y-113690366D01*
X174566638Y-113696813D01*
X174639867Y-113690554D01*
X174707339Y-113671777D01*
X174769052Y-113640482D01*
X174825007Y-113596670D01*
X174871448Y-113543907D01*
X174904620Y-113485761D01*
X174924524Y-113422233D01*
X174931158Y-113353322D01*
X174924618Y-113282972D01*
X174904996Y-113218129D01*
X174872293Y-113158794D01*
X174826509Y-113104967D01*
X174771274Y-113060279D01*
X174710218Y-113028358D01*
X174643341Y-113009206D01*
X174570643Y-113002822D01*
X174499197Y-113009112D01*
X174433072Y-113027982D01*
X174372266Y-113059434D01*
X174316781Y-113103465D01*
X174270558Y-113156322D01*
X174237542Y-113214249D01*
X174217733Y-113277245D01*
X174211130Y-113345311D01*
X174127677Y-113345311D01*
X174127677Y-113002822D01*
X174127677Y-112835916D01*
X175014611Y-112835916D01*
X175014611Y-113002822D01*
G37*
%TO.C,kibuzzard-698ADC8D*%
G36*
X172477043Y-112800032D02*
G01*
X172477043Y-114562550D01*
X172477043Y-114729455D01*
X172030572Y-115027103D01*
X171584101Y-114729455D01*
X171584101Y-114562550D01*
X171584101Y-114200032D01*
X171670558Y-114200032D01*
X171673562Y-114242468D01*
X171682575Y-114287658D01*
X171698723Y-114334975D01*
X171723133Y-114383795D01*
X171754678Y-114430737D01*
X171792232Y-114472421D01*
X171838423Y-114508097D01*
X171895880Y-114537014D01*
X171962224Y-114556166D01*
X172035078Y-114562550D01*
X172105179Y-114556291D01*
X172169270Y-114537514D01*
X172224975Y-114508974D01*
X172269914Y-114473423D01*
X172306466Y-114431738D01*
X172337010Y-114384796D01*
X172360669Y-114335726D01*
X172376566Y-114287658D01*
X172385579Y-114241216D01*
X172388583Y-114197028D01*
X172382352Y-114137387D01*
X172363659Y-114075966D01*
X172332503Y-114012765D01*
X172313476Y-113985726D01*
X172292446Y-113967200D01*
X172262403Y-113957686D01*
X172206323Y-113979718D01*
X172165765Y-114017271D01*
X172152246Y-114051821D01*
X172175279Y-114105898D01*
X172179785Y-114112407D01*
X172185293Y-114120919D01*
X172190801Y-114130433D01*
X172195808Y-114143952D01*
X172199814Y-114159975D01*
X172203319Y-114180004D01*
X172204320Y-114204038D01*
X172194306Y-114261120D01*
X172164764Y-114317700D01*
X172110186Y-114362264D01*
X172072632Y-114375032D01*
X172030071Y-114379288D01*
X171975368Y-114371653D01*
X171929428Y-114348745D01*
X171894252Y-114316323D01*
X171871845Y-114280147D01*
X171855822Y-114204038D01*
X171864084Y-114151213D01*
X171888870Y-114100891D01*
X171908898Y-114050819D01*
X171894628Y-114016771D01*
X171851817Y-113980719D01*
X171793734Y-113958688D01*
X171757181Y-113972708D01*
X171726638Y-114013766D01*
X171695482Y-114073184D01*
X171676789Y-114135273D01*
X171670558Y-114200032D01*
X171584101Y-114200032D01*
X171584101Y-113803466D01*
X171584101Y-113467987D01*
X171680572Y-113467987D01*
X171680572Y-113803466D01*
X171687582Y-113855540D01*
X171710615Y-113883580D01*
X171738154Y-113893094D01*
X171772704Y-113894596D01*
X172290443Y-113894596D01*
X172323991Y-113893094D01*
X172351531Y-113883580D01*
X172374563Y-113855540D01*
X172381573Y-113802464D01*
X172374563Y-113750390D01*
X172351531Y-113722350D01*
X172323991Y-113712836D01*
X172289442Y-113711334D01*
X171836795Y-113711334D01*
X171836795Y-113466985D01*
X171835293Y-113438444D01*
X171827282Y-113415411D01*
X171803748Y-113395884D01*
X171758684Y-113389875D01*
X171714621Y-113395884D01*
X171690586Y-113415411D01*
X171682074Y-113439446D01*
X171680572Y-113467987D01*
X171584101Y-113467987D01*
X171584101Y-112917200D01*
X171670558Y-112917200D01*
X171713619Y-112976284D01*
X171912904Y-113151534D01*
X171771702Y-113151534D01*
X171737153Y-113153037D01*
X171710114Y-113162550D01*
X171687582Y-113190590D01*
X171680572Y-113243666D01*
X171687582Y-113295740D01*
X171710615Y-113323781D01*
X171738154Y-113333294D01*
X171772704Y-113334796D01*
X172290443Y-113334796D01*
X172323991Y-113333294D01*
X172351531Y-113323781D01*
X172374563Y-113295740D01*
X172381573Y-113242665D01*
X172374563Y-113190590D01*
X172351531Y-113162550D01*
X172323991Y-113153037D01*
X172289442Y-113151534D01*
X172151244Y-113151534D01*
X172350529Y-112977286D01*
X172391087Y-112914696D01*
X172359542Y-112847100D01*
X172325243Y-112816055D01*
X172294449Y-112805039D01*
X172230357Y-112838087D01*
X172030071Y-113034367D01*
X171832789Y-112837085D01*
X171766194Y-112802536D01*
X171702603Y-112846098D01*
X171670558Y-112917200D01*
X171584101Y-112917200D01*
X171584101Y-112800032D01*
X171584101Y-112633127D01*
X172477043Y-112633127D01*
X172477043Y-112800032D01*
G37*
%TO.C,kibuzzard-698ADC88*%
G36*
X169419900Y-114189016D02*
G01*
X169429413Y-114231076D01*
X169429413Y-114244095D01*
X169446938Y-114301176D01*
X169506524Y-114318201D01*
X169564106Y-114300175D01*
X169580629Y-114239088D01*
X169580629Y-114227070D01*
X169587639Y-114203036D01*
X169618684Y-114196026D01*
X169649728Y-114206541D01*
X169657740Y-114248100D01*
X169657740Y-114369274D01*
X169323262Y-114369274D01*
X169323262Y-114226069D01*
X169324263Y-114212049D01*
X169329771Y-114196527D01*
X169346795Y-114181505D01*
X169378340Y-114175997D01*
X169419900Y-114189016D01*
G37*
G36*
X169936471Y-112649817D02*
G01*
X169936471Y-114552535D01*
X169936471Y-114719440D01*
X169490000Y-115017088D01*
X169043529Y-114719440D01*
X169043529Y-114552535D01*
X169043529Y-114461405D01*
X169043529Y-114216055D01*
X169140000Y-114216055D01*
X169140000Y-114461405D01*
X169147010Y-114513480D01*
X169170043Y-114541520D01*
X169198083Y-114551033D01*
X169233133Y-114552535D01*
X169749871Y-114552535D01*
X169783419Y-114551033D01*
X169810959Y-114541520D01*
X169833991Y-114513480D01*
X169841001Y-114460404D01*
X169841001Y-114226069D01*
X169833936Y-114169655D01*
X169812739Y-114119250D01*
X169777411Y-114074853D01*
X169732402Y-114040359D01*
X169682163Y-114019663D01*
X169626695Y-114012764D01*
X169568112Y-114021026D01*
X169514535Y-114045811D01*
X169444185Y-114006005D01*
X169367325Y-113992736D01*
X169307128Y-114000580D01*
X169253384Y-114022779D01*
X169206094Y-114059331D01*
X169169375Y-114105897D01*
X169147344Y-114158139D01*
X169140000Y-114216055D01*
X169043529Y-114216055D01*
X169043529Y-113653251D01*
X169138999Y-113653251D01*
X169146009Y-113704824D01*
X169168541Y-113731863D01*
X169195579Y-113740876D01*
X169229127Y-113742378D01*
X169686781Y-113742378D01*
X169686781Y-113881577D01*
X169688283Y-113910118D01*
X169696295Y-113932650D01*
X169719828Y-113951677D01*
X169764893Y-113957686D01*
X169808455Y-113951677D01*
X169831488Y-113932149D01*
X169839499Y-113909116D01*
X169841001Y-113880575D01*
X169841001Y-113422922D01*
X169839499Y-113394381D01*
X169831488Y-113371849D01*
X169807954Y-113352821D01*
X169763891Y-113346813D01*
X169719828Y-113352821D01*
X169696295Y-113372349D01*
X169688283Y-113395382D01*
X169686781Y-113423923D01*
X169686781Y-113562120D01*
X169228126Y-113562120D01*
X169194578Y-113563623D01*
X169168040Y-113573136D01*
X169146009Y-113601176D01*
X169138999Y-113653251D01*
X169043529Y-113653251D01*
X169043529Y-113215625D01*
X169128484Y-113215625D01*
X169164034Y-113283723D01*
X169227625Y-113323279D01*
X169292217Y-113288730D01*
X169489499Y-113109474D01*
X169686781Y-113289731D01*
X169750873Y-113323279D01*
X169815966Y-113284724D01*
X169851516Y-113216627D01*
X169809957Y-113155540D01*
X169624692Y-112986298D01*
X169809957Y-112818058D01*
X169851516Y-112756970D01*
X169815966Y-112688873D01*
X169750873Y-112649817D01*
X169686781Y-112683866D01*
X169489499Y-112864123D01*
X169292217Y-112684867D01*
X169227625Y-112650318D01*
X169164034Y-112689874D01*
X169128484Y-112757972D01*
X169170043Y-112819059D01*
X169354306Y-112986298D01*
X169170043Y-113154538D01*
X169128484Y-113215625D01*
X169043529Y-113215625D01*
X169043529Y-112757972D01*
X169043529Y-112649817D01*
X169043529Y-112482912D01*
X169936471Y-112482912D01*
X169936471Y-112649817D01*
G37*
%TO.C,kibuzzard-698ADC75*%
G36*
X162016283Y-114222707D02*
G01*
X162037313Y-114274280D01*
X162037313Y-114382435D01*
X161891104Y-114382435D01*
X161891104Y-114272278D01*
X161909130Y-114224209D01*
X161964209Y-114201176D01*
X162016283Y-114222707D01*
G37*
G36*
X162315043Y-112827213D02*
G01*
X162315043Y-114565697D01*
X162315043Y-114732602D01*
X161870575Y-115028914D01*
X161426107Y-114732602D01*
X161426107Y-114565697D01*
X161426107Y-114126069D01*
X161517070Y-114126069D01*
X161563637Y-114182149D01*
X161708844Y-114289302D01*
X161708844Y-114382435D01*
X161611705Y-114382435D01*
X161577156Y-114383937D01*
X161550117Y-114393451D01*
X161527585Y-114421491D01*
X161520575Y-114474566D01*
X161527585Y-114526641D01*
X161550618Y-114554681D01*
X161578157Y-114564195D01*
X161612707Y-114565697D01*
X162129445Y-114565697D01*
X162162993Y-114564195D01*
X162190532Y-114554681D01*
X162213565Y-114526641D01*
X162220575Y-114473565D01*
X162220575Y-114272278D01*
X162216569Y-114231594D01*
X162204552Y-114189659D01*
X162185024Y-114147850D01*
X162158486Y-114107542D01*
X162123061Y-114071616D01*
X162076870Y-114042950D01*
X162022667Y-114024173D01*
X161963207Y-114017914D01*
X161888211Y-114027706D01*
X161823452Y-114057081D01*
X161768930Y-114106040D01*
X161672792Y-114033937D01*
X161603694Y-114006898D01*
X161544609Y-114054967D01*
X161517070Y-114126069D01*
X161426107Y-114126069D01*
X161426107Y-113724495D01*
X161509559Y-113724495D01*
X161514066Y-113780575D01*
X161525081Y-113827642D01*
X161541605Y-113866197D01*
X161560632Y-113897242D01*
X161580160Y-113921276D01*
X161597685Y-113938801D01*
X161611705Y-113949817D01*
X161618715Y-113955825D01*
X161683808Y-113980861D01*
X161747900Y-113938801D01*
X161771044Y-113897186D01*
X161764368Y-113853791D01*
X161727871Y-113808615D01*
X161691319Y-113768057D01*
X161681805Y-113728501D01*
X161696326Y-113669416D01*
X161742893Y-113651391D01*
X161773937Y-113677428D01*
X161797471Y-113756040D01*
X161810364Y-113803733D01*
X161824008Y-113841662D01*
X161856054Y-113897742D01*
X161899116Y-113937800D01*
X161953193Y-113961834D01*
X162018286Y-113969845D01*
X162076202Y-113962390D01*
X162127108Y-113940025D01*
X162171004Y-113902750D01*
X162204663Y-113854125D01*
X162224859Y-113797711D01*
X162231591Y-113733508D01*
X162224915Y-113657955D01*
X162204886Y-113594198D01*
X162171505Y-113542235D01*
X162119931Y-113506183D01*
X162058343Y-113530217D01*
X162009774Y-113589302D01*
X162028300Y-113656398D01*
X162037814Y-113667914D01*
X162049330Y-113681934D01*
X162056841Y-113701462D01*
X162060346Y-113734509D01*
X162047828Y-113771562D01*
X162017285Y-113787585D01*
X161984738Y-113770060D01*
X161967213Y-113730504D01*
X161954695Y-113669416D01*
X161939173Y-113605325D01*
X161913136Y-113548619D01*
X161875081Y-113504681D01*
X161820754Y-113476516D01*
X161745897Y-113467127D01*
X161698079Y-113471383D01*
X161654767Y-113484152D01*
X161587170Y-113527714D01*
X161542606Y-113589302D01*
X161517070Y-113657900D01*
X161509559Y-113724495D01*
X161426107Y-113724495D01*
X161426107Y-113133651D01*
X161519574Y-113133651D01*
X161526584Y-113185225D01*
X161549116Y-113212263D01*
X161576154Y-113221276D01*
X161609702Y-113222778D01*
X162067356Y-113222778D01*
X162067356Y-113361977D01*
X162068858Y-113390518D01*
X162076870Y-113413050D01*
X162100403Y-113432077D01*
X162145468Y-113438086D01*
X162189030Y-113432077D01*
X162212063Y-113412549D01*
X162220074Y-113389516D01*
X162221576Y-113360976D01*
X162221576Y-112903322D01*
X162220074Y-112874781D01*
X162212063Y-112852249D01*
X162188529Y-112833222D01*
X162144466Y-112827213D01*
X162100403Y-112833222D01*
X162076870Y-112852750D01*
X162068858Y-112875783D01*
X162067356Y-112904323D01*
X162067356Y-113042521D01*
X161608701Y-113042521D01*
X161575153Y-113044023D01*
X161548615Y-113053536D01*
X161526584Y-113081577D01*
X161519574Y-113133651D01*
X161426107Y-113133651D01*
X161426107Y-112827213D01*
X161426107Y-112660308D01*
X162315043Y-112660308D01*
X162315043Y-112827213D01*
G37*
%TO.C,kibuzzard-698ADC96*%
G36*
X177560409Y-112724567D02*
G01*
X177560409Y-114557185D01*
X177560409Y-114724090D01*
X177113437Y-115022072D01*
X176666465Y-114724090D01*
X176666465Y-114557185D01*
X176666465Y-114289803D01*
X176749918Y-114289803D01*
X176757428Y-114358235D01*
X176779961Y-114420657D01*
X176817514Y-114477071D01*
X176864971Y-114521579D01*
X176917212Y-114548284D01*
X176974238Y-114557185D01*
X177021556Y-114532150D01*
X177037328Y-114457042D01*
X177026313Y-114401964D01*
X176979245Y-114372922D01*
X176973737Y-114370919D01*
X176961720Y-114363409D01*
X176946699Y-114348387D01*
X176934682Y-114324353D01*
X176929174Y-114288802D01*
X176944696Y-114226213D01*
X176986255Y-114202679D01*
X177029818Y-114221956D01*
X177044338Y-114279789D01*
X177044338Y-114307328D01*
X177048845Y-114330361D01*
X177061363Y-114352894D01*
X177087400Y-114364911D01*
X177131463Y-114370919D01*
X177181534Y-114364410D01*
X177207571Y-114343380D01*
X177216084Y-114317843D01*
X177217586Y-114285798D01*
X177217586Y-114278788D01*
X177224095Y-114232221D01*
X177249632Y-114217700D01*
X177284181Y-114234224D01*
X177296699Y-114279789D01*
X177286684Y-114322851D01*
X177256642Y-114351892D01*
X177215360Y-114382380D01*
X177203677Y-114424440D01*
X177221592Y-114478072D01*
X177276670Y-114527643D01*
X177345769Y-114513122D01*
X177349274Y-114511620D01*
X177360290Y-114506112D01*
X177376813Y-114496098D01*
X177396842Y-114480075D01*
X177418373Y-114458044D01*
X177438902Y-114428502D01*
X177456427Y-114391449D01*
X177468444Y-114345383D01*
X177472951Y-114289803D01*
X177465384Y-114216977D01*
X177442685Y-114154722D01*
X177404853Y-114103037D01*
X177357786Y-114064370D01*
X177307381Y-114041170D01*
X177253637Y-114033437D01*
X177180282Y-114050712D01*
X177130461Y-114102536D01*
X177076384Y-114046456D01*
X177036327Y-114026177D01*
X176988258Y-114019417D01*
X176923443Y-114027929D01*
X176866529Y-114053466D01*
X176817514Y-114096027D01*
X176779961Y-114151606D01*
X176757428Y-114216198D01*
X176749918Y-114289803D01*
X176666465Y-114289803D01*
X176666465Y-113638874D01*
X176762936Y-113638874D01*
X176775454Y-113694954D01*
X176813008Y-113729002D01*
X177334753Y-113966341D01*
X177404353Y-113976356D01*
X177451921Y-113920276D01*
X177466942Y-113845168D01*
X177409860Y-113799102D01*
X177020304Y-113640876D01*
X177409860Y-113482650D01*
X177466441Y-113435583D01*
X177451921Y-113361477D01*
X177403852Y-113303895D01*
X177334753Y-113315411D01*
X176813008Y-113552750D01*
X176776456Y-113587300D01*
X176762936Y-113638874D01*
X176666465Y-113638874D01*
X176666465Y-112994954D01*
X176749918Y-112994954D01*
X176757428Y-113063385D01*
X176779961Y-113125807D01*
X176817514Y-113182221D01*
X176864971Y-113226729D01*
X176917212Y-113253434D01*
X176974238Y-113262336D01*
X177021556Y-113237300D01*
X177037328Y-113162193D01*
X177026313Y-113107114D01*
X176979245Y-113078072D01*
X176973737Y-113076070D01*
X176961720Y-113068559D01*
X176946699Y-113053537D01*
X176934682Y-113029503D01*
X176929174Y-112993952D01*
X176944696Y-112931363D01*
X176986255Y-112907829D01*
X177029818Y-112927107D01*
X177044338Y-112984939D01*
X177044338Y-113012479D01*
X177048845Y-113035512D01*
X177061363Y-113058044D01*
X177087400Y-113070061D01*
X177131463Y-113076070D01*
X177181534Y-113069560D01*
X177207571Y-113048530D01*
X177216084Y-113022994D01*
X177217586Y-112990948D01*
X177217586Y-112983938D01*
X177224095Y-112937371D01*
X177249632Y-112922851D01*
X177284181Y-112939374D01*
X177296699Y-112984939D01*
X177286684Y-113028001D01*
X177256642Y-113057042D01*
X177215360Y-113087530D01*
X177203677Y-113129590D01*
X177221592Y-113183223D01*
X177276670Y-113232793D01*
X177345769Y-113218273D01*
X177349274Y-113216771D01*
X177360290Y-113211263D01*
X177376813Y-113201248D01*
X177396842Y-113185225D01*
X177418373Y-113163194D01*
X177438902Y-113133652D01*
X177456427Y-113096599D01*
X177468444Y-113050533D01*
X177472951Y-112994954D01*
X177465384Y-112922127D01*
X177442685Y-112859872D01*
X177404853Y-112808187D01*
X177357786Y-112769520D01*
X177307381Y-112746321D01*
X177253637Y-112738587D01*
X177180282Y-112755862D01*
X177130461Y-112807686D01*
X177076384Y-112751606D01*
X177036327Y-112731327D01*
X176988258Y-112724567D01*
X176923443Y-112733080D01*
X176866529Y-112758616D01*
X176817514Y-112801177D01*
X176779961Y-112856756D01*
X176757428Y-112921348D01*
X176749918Y-112994954D01*
X176666465Y-112994954D01*
X176666465Y-112724567D01*
X176666465Y-112557662D01*
X177560409Y-112557662D01*
X177560409Y-112724567D01*
G37*
%TO.C,kibuzzard-698CA76F*%
G36*
X168721366Y-89838515D02*
G01*
X168412353Y-89838515D01*
X168270722Y-89787013D01*
X168203484Y-89629646D01*
X168265000Y-89480862D01*
X168415215Y-89420776D01*
X168721366Y-89420776D01*
X168721366Y-89838515D01*
G37*
G36*
X164958848Y-89434724D02*
G01*
X165110494Y-89545239D01*
X165213498Y-89708687D01*
X165247833Y-89904324D01*
X165213140Y-90096026D01*
X165109063Y-90259116D01*
X164957775Y-90370704D01*
X164781452Y-90407900D01*
X164599406Y-90371777D01*
X164448119Y-90263408D01*
X164346187Y-90101391D01*
X164312210Y-89904324D01*
X164346545Y-89708687D01*
X164449549Y-89545239D01*
X164600479Y-89434724D01*
X164778591Y-89397886D01*
X164958848Y-89434724D01*
G37*
G36*
X174062965Y-89902893D02*
G01*
X173218267Y-91169941D01*
X172741395Y-91169941D01*
X172481023Y-91169941D01*
X170701338Y-91169941D01*
X168984599Y-91169941D01*
X166729950Y-91169941D01*
X164767146Y-91169941D01*
X163788605Y-91169941D01*
X163311733Y-91169941D01*
X162467989Y-89904324D01*
X163788605Y-89904324D01*
X163806577Y-90108455D01*
X163860494Y-90297385D01*
X163950354Y-90471115D01*
X164076159Y-90629646D01*
X164227178Y-90761709D01*
X164392682Y-90856040D01*
X164572672Y-90912639D01*
X164767146Y-90931505D01*
X164967074Y-90912907D01*
X165151981Y-90857113D01*
X165321867Y-90764123D01*
X165476731Y-90633937D01*
X165605665Y-90477464D01*
X165697761Y-90305611D01*
X165753019Y-90118379D01*
X165771438Y-89915769D01*
X165753555Y-89706541D01*
X165699907Y-89513766D01*
X165610494Y-89337442D01*
X165485315Y-89177571D01*
X165413799Y-89114624D01*
X165854413Y-89114624D01*
X165871581Y-89240518D01*
X165927375Y-89307757D01*
X165993183Y-89330647D01*
X166074728Y-89334939D01*
X166469578Y-89334939D01*
X166469578Y-90645382D01*
X166473870Y-90741233D01*
X166501052Y-90817056D01*
X166581166Y-90880003D01*
X166729950Y-90900032D01*
X166877303Y-90880003D01*
X166954557Y-90815625D01*
X166980308Y-90738372D01*
X166984599Y-90642521D01*
X166984599Y-89632507D01*
X167682740Y-89632507D01*
X167700622Y-89801677D01*
X167754270Y-89954395D01*
X167836173Y-90084223D01*
X167938820Y-90184724D01*
X168054700Y-90260547D01*
X168176302Y-90316341D01*
X168298262Y-90350676D01*
X168415215Y-90362120D01*
X168721366Y-90362120D01*
X168721366Y-90636799D01*
X168725658Y-90735511D01*
X168752840Y-90812764D01*
X168832954Y-90877142D01*
X168984599Y-90897171D01*
X169133383Y-90877142D01*
X169213498Y-90811334D01*
X169240680Y-90732650D01*
X169244971Y-90633937D01*
X169244971Y-89160404D01*
X169385172Y-89160404D01*
X169405200Y-89309188D01*
X169471009Y-89389302D01*
X169549692Y-89416484D01*
X169648405Y-89420776D01*
X170438104Y-89420776D01*
X170438104Y-89675425D01*
X169908777Y-89675425D01*
X169815787Y-89679717D01*
X169747117Y-89702607D01*
X169692754Y-89771276D01*
X169677017Y-89901462D01*
X169692754Y-90028787D01*
X169748548Y-90094595D01*
X169820079Y-90117485D01*
X169914499Y-90121777D01*
X170438104Y-90121777D01*
X170438104Y-90376427D01*
X169645544Y-90376427D01*
X169546831Y-90380718D01*
X169469578Y-90407900D01*
X169405200Y-90488015D01*
X169385172Y-90639660D01*
X169405200Y-90788444D01*
X169471009Y-90868558D01*
X169549692Y-90895740D01*
X169648405Y-90900032D01*
X170701338Y-90900032D01*
X170850122Y-90880003D01*
X170930236Y-90814195D01*
X170957418Y-90735511D01*
X170961337Y-90645382D01*
X171110494Y-90645382D01*
X171130522Y-90794166D01*
X171196330Y-90874281D01*
X171275014Y-90901462D01*
X171373727Y-90905754D01*
X172481023Y-90905754D01*
X172667003Y-90829932D01*
X172741395Y-90639660D01*
X172704199Y-90510904D01*
X171908777Y-89409331D01*
X172469578Y-89409331D01*
X172569721Y-89405039D01*
X172651266Y-89379288D01*
X172719936Y-89302035D01*
X172741395Y-89157542D01*
X172721366Y-89005897D01*
X172655558Y-88925783D01*
X172576874Y-88898601D01*
X172478162Y-88894309D01*
X171408062Y-88894309D01*
X171223512Y-88971563D01*
X171147690Y-89163265D01*
X171184886Y-89292020D01*
X171980308Y-90393594D01*
X171368004Y-90393594D01*
X171273584Y-90399316D01*
X171194900Y-90426498D01*
X171130522Y-90502321D01*
X171110494Y-90645382D01*
X170961337Y-90645382D01*
X170961710Y-90636799D01*
X170961710Y-89157542D01*
X170903054Y-88952965D01*
X170692754Y-88897171D01*
X169645544Y-88897171D01*
X169546831Y-88901462D01*
X169469578Y-88928644D01*
X169405200Y-89008759D01*
X169385172Y-89160404D01*
X169244971Y-89160404D01*
X169244971Y-89157542D01*
X169240680Y-89061691D01*
X169213498Y-88983007D01*
X169133383Y-88917199D01*
X168981738Y-88897171D01*
X168412353Y-88897171D01*
X168295758Y-88908615D01*
X168174871Y-88942950D01*
X168054700Y-88998744D01*
X167940250Y-89074567D01*
X167838319Y-89175783D01*
X167755701Y-89307757D01*
X167700980Y-89462621D01*
X167682740Y-89632507D01*
X166984599Y-89632507D01*
X166984599Y-89334939D01*
X167382310Y-89334939D01*
X167463856Y-89330647D01*
X167528233Y-89307757D01*
X167582597Y-89240518D01*
X167599764Y-89111763D01*
X167582597Y-88987299D01*
X167526803Y-88921491D01*
X167460994Y-88898601D01*
X167379449Y-88894309D01*
X166071867Y-88894309D01*
X165990322Y-88898601D01*
X165925944Y-88921491D01*
X165871581Y-88988730D01*
X165854413Y-89114624D01*
X165413799Y-89114624D01*
X165334564Y-89044882D01*
X165168433Y-88950103D01*
X164986924Y-88893236D01*
X164790036Y-88874281D01*
X164589034Y-88892968D01*
X164403770Y-88949030D01*
X164234242Y-89042467D01*
X164080451Y-89173279D01*
X163952768Y-89331094D01*
X163861567Y-89505540D01*
X163806845Y-89696616D01*
X163788605Y-89904324D01*
X162467989Y-89904324D01*
X162467035Y-89902893D01*
X163311733Y-88635845D01*
X163788605Y-88635845D01*
X172741395Y-88635845D01*
X173218267Y-88635845D01*
X174062965Y-89902893D01*
G37*
%TD*%
M02*
