%TF.GenerationSoftware,KiCad,Pcbnew,9.0.7*%
%TF.CreationDate,2026-02-15T23:40:44+05:30*%
%TF.ProjectId,zepto,7a657074-6f2e-46b6-9963-61645f706362,Mark3*%
%TF.SameCoordinates,Original*%
%TF.FileFunction,Copper,L1,Top*%
%TF.FilePolarity,Positive*%
%FSLAX46Y46*%
G04 Gerber Fmt 4.6, Leading zero omitted, Abs format (unit mm)*
G04 Created by KiCad (PCBNEW 9.0.7) date 2026-02-15 23:40:44*
%MOMM*%
%LPD*%
G01*
G04 APERTURE LIST*
G04 Aperture macros list*
%AMRoundRect*
0 Rectangle with rounded corners*
0 $1 Rounding radius*
0 $2 $3 $4 $5 $6 $7 $8 $9 X,Y pos of 4 corners*
0 Add a 4 corners polygon primitive as box body*
4,1,4,$2,$3,$4,$5,$6,$7,$8,$9,$2,$3,0*
0 Add four circle primitives for the rounded corners*
1,1,$1+$1,$2,$3*
1,1,$1+$1,$4,$5*
1,1,$1+$1,$6,$7*
1,1,$1+$1,$8,$9*
0 Add four rect primitives between the rounded corners*
20,1,$1+$1,$2,$3,$4,$5,0*
20,1,$1+$1,$4,$5,$6,$7,0*
20,1,$1+$1,$6,$7,$8,$9,0*
20,1,$1+$1,$8,$9,$2,$3,0*%
G04 Aperture macros list end*
%TA.AperFunction,ComponentPad*%
%ADD10C,1.524000*%
%TD*%
%TA.AperFunction,ComponentPad*%
%ADD11RoundRect,0.250000X-0.512000X-0.512000X0.512000X-0.512000X0.512000X0.512000X-0.512000X0.512000X0*%
%TD*%
%TA.AperFunction,SMDPad,CuDef*%
%ADD12R,0.600000X1.550000*%
%TD*%
%TA.AperFunction,SMDPad,CuDef*%
%ADD13R,1.200000X1.800000*%
%TD*%
%TA.AperFunction,SMDPad,CuDef*%
%ADD14RoundRect,0.218750X-0.218750X-0.256250X0.218750X-0.256250X0.218750X0.256250X-0.218750X0.256250X0*%
%TD*%
%TA.AperFunction,SMDPad,CuDef*%
%ADD15RoundRect,0.200000X-0.200000X-0.275000X0.200000X-0.275000X0.200000X0.275000X-0.200000X0.275000X0*%
%TD*%
%TA.AperFunction,SMDPad,CuDef*%
%ADD16RoundRect,0.225000X-0.225000X-0.250000X0.225000X-0.250000X0.225000X0.250000X-0.225000X0.250000X0*%
%TD*%
%TA.AperFunction,SMDPad,CuDef*%
%ADD17RoundRect,0.225000X0.225000X0.250000X-0.225000X0.250000X-0.225000X-0.250000X0.225000X-0.250000X0*%
%TD*%
%TA.AperFunction,SMDPad,CuDef*%
%ADD18RoundRect,0.218750X0.218750X0.256250X-0.218750X0.256250X-0.218750X-0.256250X0.218750X-0.256250X0*%
%TD*%
%TA.AperFunction,SMDPad,CuDef*%
%ADD19RoundRect,0.225000X-0.250000X0.225000X-0.250000X-0.225000X0.250000X-0.225000X0.250000X0.225000X0*%
%TD*%
%TA.AperFunction,SMDPad,CuDef*%
%ADD20RoundRect,0.200000X0.200000X0.275000X-0.200000X0.275000X-0.200000X-0.275000X0.200000X-0.275000X0*%
%TD*%
%TA.AperFunction,SMDPad,CuDef*%
%ADD21R,0.650000X1.050000*%
%TD*%
%TA.AperFunction,ComponentPad*%
%ADD22RoundRect,0.250000X-0.512000X0.512000X-0.512000X-0.512000X0.512000X-0.512000X0.512000X0.512000X0*%
%TD*%
%TA.AperFunction,SMDPad,CuDef*%
%ADD23RoundRect,0.050000X-0.250000X-0.075000X0.250000X-0.075000X0.250000X0.075000X-0.250000X0.075000X0*%
%TD*%
%TA.AperFunction,SMDPad,CuDef*%
%ADD24RoundRect,0.050000X-0.075000X-0.250000X0.075000X-0.250000X0.075000X0.250000X-0.075000X0.250000X0*%
%TD*%
%TA.AperFunction,SMDPad,CuDef*%
%ADD25RoundRect,0.051750X-1.673250X-1.673250X1.673250X-1.673250X1.673250X1.673250X-1.673250X1.673250X0*%
%TD*%
%TA.AperFunction,ComponentPad*%
%ADD26C,0.300000*%
%TD*%
%TA.AperFunction,SMDPad,CuDef*%
%ADD27RoundRect,0.225000X0.250000X-0.225000X0.250000X0.225000X-0.250000X0.225000X-0.250000X-0.225000X0*%
%TD*%
%TA.AperFunction,SMDPad,CuDef*%
%ADD28RoundRect,0.200000X0.275000X-0.200000X0.275000X0.200000X-0.275000X0.200000X-0.275000X-0.200000X0*%
%TD*%
%TA.AperFunction,SMDPad,CuDef*%
%ADD29RoundRect,0.125000X-0.125000X-0.125000X0.125000X-0.125000X0.125000X0.125000X-0.125000X0.125000X0*%
%TD*%
%TA.AperFunction,SMDPad,CuDef*%
%ADD30C,0.500000*%
%TD*%
%TA.AperFunction,ComponentPad*%
%ADD31RoundRect,0.250000X0.512000X0.512000X-0.512000X0.512000X-0.512000X-0.512000X0.512000X-0.512000X0*%
%TD*%
%TA.AperFunction,ViaPad*%
%ADD32C,0.400000*%
%TD*%
%TA.AperFunction,ViaPad*%
%ADD33C,0.500000*%
%TD*%
%TA.AperFunction,ViaPad*%
%ADD34C,0.700000*%
%TD*%
%TA.AperFunction,Conductor*%
%ADD35C,0.200000*%
%TD*%
%TA.AperFunction,Conductor*%
%ADD36C,0.400000*%
%TD*%
%TA.AperFunction,Conductor*%
%ADD37C,0.300000*%
%TD*%
G04 APERTURE END LIST*
D10*
%TO.P,J4,1,Pin_1*%
%TO.N,TIMG8_C0*%
X179815000Y-86100000D03*
%TO.P,J4,2,Pin_2*%
%TO.N,A0_0*%
X179615000Y-88640000D03*
%TO.P,J4,3,Pin_3*%
%TO.N,A0_1*%
X179815000Y-91180000D03*
%TO.P,J4,4,Pin_4*%
%TO.N,A0_2*%
X179615000Y-93720000D03*
%TO.P,J4,5,Pin_5*%
%TO.N,A0_3*%
X179815000Y-96260000D03*
%TO.P,J4,6,Pin_6*%
%TO.N,RST*%
X179615000Y-98800000D03*
%TO.P,J4,7,Pin_7*%
%TO.N,SPI0_CS1*%
X179815000Y-101340000D03*
%TO.P,J4,8,Pin_8*%
%TO.N,SPI0_SCK*%
X179615000Y-103880000D03*
%TO.P,J4,9,Pin_9*%
%TO.N,SPI0_POCI*%
X179815000Y-106420000D03*
%TO.P,J4,10,Pin_10*%
%TO.N,SPI0_PICO*%
X179615000Y-108960000D03*
%TO.P,J4,11,Pin_11*%
%TO.N,VCC*%
X179815000Y-111500000D03*
D11*
%TO.P,J4,12,Pin_12*%
%TO.N,GND*%
X179615000Y-114040000D03*
%TD*%
D12*
%TO.P,J2,1,GND*%
%TO.N,GND*%
X163960800Y-89275000D03*
%TO.P,J2,2,VCC*%
%TO.N,VCC*%
X162960800Y-89275000D03*
%TO.P,J2,3,SDA*%
%TO.N,BSL_I2C_SDA*%
X161960800Y-89275000D03*
%TO.P,J2,4,SCL*%
%TO.N,BSL_I2C_SCL*%
X160960800Y-89275000D03*
D13*
%TO.P,J2,S1,SHIELD*%
%TO.N,GND*%
X165260800Y-85400000D03*
%TO.P,J2,S2,SHIELD*%
X159660800Y-85400000D03*
%TD*%
D14*
%TO.P,D1,1,K*%
%TO.N,Net-(D1-K)*%
X167492500Y-92690000D03*
%TO.P,D1,2,A*%
%TO.N,VCC*%
X169067500Y-92690000D03*
%TD*%
D15*
%TO.P,R2,1*%
%TO.N,Net-(D2-K)*%
X162960800Y-92690000D03*
%TO.P,R2,2*%
%TO.N,GND*%
X164610800Y-92690000D03*
%TD*%
D16*
%TO.P,C3,1*%
%TO.N,GND*%
X172710000Y-104980000D03*
%TO.P,C3,2*%
%TO.N,VCC*%
X174260000Y-104980000D03*
%TD*%
D17*
%TO.P,C6,1*%
%TO.N,VCORE*%
X164540000Y-100080000D03*
%TO.P,C6,2*%
%TO.N,GND*%
X162990000Y-100080000D03*
%TD*%
D15*
%TO.P,R1,1*%
%TO.N,Net-(D1-K)*%
X167455000Y-91130000D03*
%TO.P,R1,2*%
%TO.N,GND*%
X169105000Y-91130000D03*
%TD*%
D18*
%TO.P,FB1,1*%
%TO.N,VCC*%
X174272500Y-100080000D03*
%TO.P,FB1,2*%
%TO.N,+3V3*%
X172697500Y-100080000D03*
%TD*%
D16*
%TO.P,C1,1*%
%TO.N,VCC*%
X175359200Y-92655000D03*
%TO.P,C1,2*%
%TO.N,GND*%
X176909200Y-92655000D03*
%TD*%
D19*
%TO.P,C8,1*%
%TO.N,+3V3*%
X161300000Y-103455000D03*
%TO.P,C8,2*%
%TO.N,GND*%
X161300000Y-105005000D03*
%TD*%
D20*
%TO.P,R3,1*%
%TO.N,NRST*%
X164600000Y-101713333D03*
%TO.P,R3,2*%
%TO.N,+3V3*%
X162950000Y-101713333D03*
%TD*%
D21*
%TO.P,SW2,1,A*%
%TO.N,NRST*%
X167425000Y-111690000D03*
X167425000Y-107540000D03*
%TO.P,SW2,2,B*%
%TO.N,GND*%
X169575000Y-111690000D03*
X169575000Y-107540000D03*
%TD*%
D10*
%TO.P,J3,1,Pin_1*%
%TO.N,VCC*%
X177174993Y-116450000D03*
%TO.P,J3,2,Pin_2*%
%TO.N,SWDIO*%
X174634993Y-116250000D03*
%TO.P,J3,3,Pin_3*%
%TO.N,SWCLK*%
X172094993Y-116250000D03*
%TO.P,J3,4,Pin_4*%
%TO.N,BSL_UART_TX*%
X169554993Y-116450000D03*
D22*
%TO.P,J3,5,Pin_5*%
%TO.N,GND*%
X167014993Y-116250000D03*
D10*
%TO.P,J3,6,Pin_6*%
%TO.N,BSL_UART_RX*%
X164474993Y-116450000D03*
%TO.P,J3,7,Pin_7*%
%TO.N,NRST*%
X161934993Y-116250000D03*
%TO.P,J3,8,Pin_8*%
%TO.N,BSL_INVOKE*%
X159394993Y-116450000D03*
%TD*%
D12*
%TO.P,J1,1,GND*%
%TO.N,GND*%
X175609200Y-89275000D03*
%TO.P,J1,2,VCC*%
%TO.N,VCC*%
X174609200Y-89275000D03*
%TO.P,J1,3,SDA*%
%TO.N,BSL_I2C_SDA*%
X173609200Y-89275000D03*
%TO.P,J1,4,SCL*%
%TO.N,BSL_I2C_SCL*%
X172609200Y-89275000D03*
D13*
%TO.P,J1,S1,SHIELD*%
%TO.N,GND*%
X176909200Y-85400000D03*
%TO.P,J1,S2,SHIELD*%
X171309200Y-85400000D03*
%TD*%
D20*
%TO.P,R6,1*%
%TO.N,ROSC*%
X164600000Y-104980000D03*
%TO.P,R6,2*%
%TO.N,GND*%
X162950000Y-104980000D03*
%TD*%
D23*
%TO.P,U1,1,PA0/BSLSDA*%
%TO.N,BSL_I2C_SDA*%
X166400000Y-100730000D03*
%TO.P,U1,2,PA1/BSLSCL*%
%TO.N,BSL_I2C_SCL*%
X166400000Y-101230000D03*
%TO.P,U1,3,~{RST}*%
%TO.N,NRST*%
X166400000Y-101730000D03*
%TO.P,U1,4,VDD*%
%TO.N,+3V3*%
X166400000Y-102230000D03*
%TO.P,U1,5,VSS*%
%TO.N,GND*%
X166400000Y-102730000D03*
%TO.P,U1,6,PA2/ROSC*%
%TO.N,ROSC*%
X166400000Y-103230000D03*
%TO.P,U1,7,PA3*%
%TO.N,SPI0_CS1*%
X166400000Y-103730000D03*
%TO.P,U1,8,PA4*%
%TO.N,SPI0_POCI*%
X166400000Y-104230000D03*
D24*
%TO.P,U1,9,PA5*%
%TO.N,SPI0_PICO*%
X167050000Y-104880000D03*
%TO.P,U1,10,PA6*%
%TO.N,SPI0_SCK*%
X167550000Y-104880000D03*
%TO.P,U1,11,PA7*%
%TO.N,TIMA0_C1*%
X168050000Y-104880000D03*
%TO.P,U1,12,PA8*%
%TO.N,UART1_TX*%
X168550000Y-104880000D03*
%TO.P,U1,13,PA9*%
%TO.N,UART1_RX*%
X169050000Y-104880000D03*
%TO.P,U1,14,PA10/BSLTX*%
%TO.N,BSL_UART_TX*%
X169550000Y-104880000D03*
%TO.P,U1,15,PA11/BSLRX*%
%TO.N,BSL_UART_RX*%
X170050000Y-104880000D03*
%TO.P,U1,16,PA12*%
%TO.N,TIMG0_C0*%
X170550000Y-104880000D03*
D23*
%TO.P,U1,17,PA13*%
%TO.N,TIMG0_C1*%
X171200000Y-104230000D03*
%TO.P,U1,18,PA14*%
%TO.N,CLK_OUT*%
X171200000Y-103730000D03*
%TO.P,U1,19,PA15*%
%TO.N,WS2812*%
X171200000Y-103230000D03*
%TO.P,U1,20,PA16*%
%TO.N,FCC_IN*%
X171200000Y-102730000D03*
%TO.P,U1,21,PA17*%
%TO.N,TIMA0_C3*%
X171200000Y-102230000D03*
%TO.P,U1,22,PA18*%
%TO.N,BSL_INVOKE*%
X171200000Y-101730000D03*
%TO.P,U1,23,SWDIO/PA19*%
%TO.N,SWDIO*%
X171200000Y-101230000D03*
%TO.P,U1,24,SWCLK/PA20*%
%TO.N,SWCLK*%
X171200000Y-100730000D03*
D24*
%TO.P,U1,25,PA21*%
%TO.N,TIMG8_C0*%
X170550000Y-100080000D03*
%TO.P,U1,26,PA22*%
%TO.N,RST*%
X170050000Y-100080000D03*
%TO.P,U1,27,PA23*%
%TO.N,INT*%
X169550000Y-100080000D03*
%TO.P,U1,28,PA24*%
%TO.N,A0_3*%
X169050000Y-100080000D03*
%TO.P,U1,29,PA25*%
%TO.N,A0_2*%
X168550000Y-100080000D03*
%TO.P,U1,30,PA26*%
%TO.N,A0_1*%
X168050000Y-100080000D03*
%TO.P,U1,31,PA27*%
%TO.N,A0_0*%
X167550000Y-100080000D03*
%TO.P,U1,32,VCORE*%
%TO.N,VCORE*%
X167050000Y-100080000D03*
D25*
%TO.P,U1,33,EXP*%
%TO.N,GND*%
X168800000Y-102480000D03*
D26*
%TO.P,U1,34,TMPAD*%
X168800000Y-101005000D03*
%TO.P,U1,35,TMPAD*%
X167325000Y-102480000D03*
%TO.P,U1,36,TMPAD*%
X168800000Y-102480000D03*
%TO.P,U1,37,TMPAD*%
X170275000Y-102480000D03*
%TO.P,U1,38,TMPAD*%
X168800000Y-103955000D03*
%TD*%
D27*
%TO.P,C2,1*%
%TO.N,NRST*%
X161300000Y-101605000D03*
%TO.P,C2,2*%
%TO.N,GND*%
X161300000Y-100055000D03*
%TD*%
D28*
%TO.P,R8,1*%
%TO.N,Net-(J5-Pin_2)*%
X162100000Y-111200715D03*
%TO.P,R8,2*%
%TO.N,FCC_IN*%
X162100000Y-109550715D03*
%TD*%
%TO.P,R7,1*%
%TO.N,Net-(J5-Pin_2)*%
X160600000Y-111200715D03*
%TO.P,R7,2*%
%TO.N,FCC_IN*%
X160600000Y-109550715D03*
%TD*%
D27*
%TO.P,C4,1*%
%TO.N,VCC*%
X173609200Y-92655000D03*
%TO.P,C4,2*%
%TO.N,GND*%
X173609200Y-91105000D03*
%TD*%
D20*
%TO.P,R5,1*%
%TO.N,VCC*%
X164610800Y-91130000D03*
%TO.P,R5,2*%
%TO.N,BSL_I2C_SDA*%
X162960800Y-91130000D03*
%TD*%
D17*
%TO.P,C7,1*%
%TO.N,+3V3*%
X164550000Y-103346667D03*
%TO.P,C7,2*%
%TO.N,GND*%
X163000000Y-103346667D03*
%TD*%
D16*
%TO.P,C5,1*%
%TO.N,VCC*%
X175359200Y-91130000D03*
%TO.P,C5,2*%
%TO.N,GND*%
X176909200Y-91130000D03*
%TD*%
D18*
%TO.P,D2,1,K*%
%TO.N,Net-(D2-K)*%
X161235800Y-92690000D03*
%TO.P,D2,2,A*%
%TO.N,TIMG0_C1*%
X159660800Y-92690000D03*
%TD*%
D29*
%TO.P,D3,1,DIN*%
%TO.N,WS2812*%
X173060000Y-103230000D03*
%TO.P,D3,2,VDD*%
%TO.N,VCC*%
X174260000Y-103230000D03*
%TO.P,D3,3,DOUT*%
%TO.N,unconnected-(D3-DOUT-Pad3)*%
X174260000Y-102030000D03*
%TO.P,D3,4,VSS*%
%TO.N,GND*%
X173060000Y-102030000D03*
%TD*%
D28*
%TO.P,R9,1*%
%TO.N,Net-(J5-Pin_2)*%
X163600000Y-111200715D03*
%TO.P,R9,2*%
%TO.N,FCC_IN*%
X163600000Y-109550715D03*
%TD*%
D30*
%TO.P,REF\u002A\u002A,*%
%TO.N,*%
X179615000Y-116450000D03*
%TD*%
D21*
%TO.P,SW1,1,A*%
%TO.N,BSL_INVOKE*%
X175185000Y-107540000D03*
X175185000Y-111690000D03*
%TO.P,SW1,2,B*%
%TO.N,+3V3*%
X173035000Y-107540000D03*
X173035000Y-111690000D03*
%TD*%
D15*
%TO.P,R4,1*%
%TO.N,VCC*%
X159660800Y-91130000D03*
%TO.P,R4,2*%
%TO.N,BSL_I2C_SCL*%
X161310800Y-91130000D03*
%TD*%
D31*
%TO.P,J5,1,Pin_1*%
%TO.N,GND*%
X156955000Y-114040000D03*
D10*
%TO.P,J5,2,Pin_2*%
%TO.N,Net-(J5-Pin_2)*%
X156755000Y-111500000D03*
%TO.P,J5,3,Pin_3*%
%TO.N,BSL_I2C_SDA*%
X156955000Y-108960000D03*
%TO.P,J5,4,Pin_4*%
%TO.N,BSL_I2C_SCL*%
X156755000Y-106420000D03*
%TO.P,J5,5,Pin_5*%
%TO.N,UART1_RX*%
X156955000Y-103880000D03*
%TO.P,J5,6,Pin_6*%
%TO.N,UART1_TX*%
X156755000Y-101340000D03*
%TO.P,J5,7,Pin_7*%
%TO.N,INT*%
X156955000Y-98800000D03*
%TO.P,J5,8,Pin_8*%
%TO.N,TIMA0_C1*%
X156755000Y-96260000D03*
%TO.P,J5,9,Pin_9*%
%TO.N,TIMG0_C0*%
X156955000Y-93720000D03*
%TO.P,J5,10,Pin_10*%
%TO.N,TIMG0_C1*%
X156755000Y-91180000D03*
%TO.P,J5,11,Pin_11*%
%TO.N,CLK_OUT*%
X156955000Y-88640000D03*
%TO.P,J5,12,Pin_12*%
%TO.N,TIMA0_C3*%
X156755000Y-86100000D03*
%TD*%
D32*
%TO.N,BSL_I2C_SCL*%
X165480000Y-101230000D03*
X162441000Y-94760000D03*
X161910000Y-91120000D03*
%TO.N,NRST*%
X167425000Y-108610000D03*
X164590000Y-102390000D03*
D33*
%TO.N,GND*%
X176980000Y-98080000D03*
X177170000Y-100080000D03*
X178780000Y-90170000D03*
X157650000Y-102540000D03*
D34*
X164705000Y-89275000D03*
X171540000Y-88520000D03*
D33*
X162650000Y-115030000D03*
X163520000Y-104410000D03*
X159270000Y-89680000D03*
X178890000Y-92480000D03*
X178780000Y-112660000D03*
X178560000Y-95430000D03*
X158320000Y-95360000D03*
D32*
X162980000Y-99400000D03*
D33*
X178330000Y-102760000D03*
D34*
X162460800Y-85400000D03*
D33*
X157640000Y-97470000D03*
X169570000Y-108310000D03*
X170790000Y-115310000D03*
X157920000Y-100060000D03*
X172660000Y-93550000D03*
X160370000Y-100060000D03*
X178790000Y-110280000D03*
X157560000Y-112750000D03*
X175850000Y-114070000D03*
D34*
X174109200Y-85400000D03*
D33*
X157970000Y-87390000D03*
X169560000Y-110910000D03*
D34*
X173601706Y-102570847D03*
D33*
X173380000Y-115330000D03*
X165590000Y-115220000D03*
X161340000Y-108770000D03*
X172200000Y-105500000D03*
X160899000Y-106179000D03*
X170290000Y-90570000D03*
D32*
%TO.N,SWDIO*%
X175181000Y-104222896D03*
%TO.N,SWCLK*%
X172885319Y-99043651D03*
%TO.N,BSL_UART_RX*%
X169970000Y-109610000D03*
%TO.N,BSL_UART_TX*%
X168120000Y-109610000D03*
%TO.N,SPI0_POCI*%
X166490004Y-111842896D03*
X176520000Y-108359997D03*
%TO.N,BSL_I2C_SDA*%
X165830000Y-100730000D03*
X163040000Y-95260000D03*
X163560000Y-91120000D03*
%TO.N,SPI0_PICO*%
X165760000Y-111842896D03*
X176520000Y-108960000D03*
%TO.N,SPI0_CS1*%
X176520000Y-106690000D03*
X168410000Y-113410000D03*
%TO.N,SPI0_SCK*%
X166680000Y-110910000D03*
X176520000Y-107759994D03*
%TO.N,TIMA0_C1*%
X167289207Y-106615000D03*
%TO.N,A0_1*%
X168050000Y-96861000D03*
X176630000Y-95050092D03*
%TO.N,A0_2*%
X176050000Y-95640000D03*
X168550000Y-97280000D03*
%TO.N,A0_0*%
X167550000Y-97265173D03*
X176120000Y-94450000D03*
%TO.N,INT*%
X160810000Y-98800000D03*
%TO.N,RST*%
X173071500Y-98420000D03*
%TO.N,TIMG8_C0*%
X172250000Y-98410000D03*
%TO.N,A0_3*%
X175660000Y-96260000D03*
X169051000Y-96861000D03*
%TO.N,FCC_IN*%
X172418220Y-102730000D03*
X165630000Y-110110000D03*
%TO.N,TIMG0_C1*%
X171879804Y-104568882D03*
%TO.N,TIMG0_C0*%
X170780000Y-106114000D03*
%TO.N,CLK_OUT*%
X172275951Y-104115951D03*
%TO.N,TIMA0_C3*%
X172410000Y-101915333D03*
%TO.N,UART1_RX*%
X168549998Y-107590000D03*
%TO.N,UART1_TX*%
X168238554Y-106798554D03*
%TO.N,BSL_INVOKE*%
X173550000Y-101415333D03*
X175190000Y-105580000D03*
D33*
%TO.N,Net-(J5-Pin_2)*%
X160600327Y-110400715D03*
%TD*%
D35*
%TO.N,BSL_I2C_SCL*%
X160960800Y-90210800D02*
X161310800Y-90560800D01*
X167327900Y-89275000D02*
X172609200Y-89275000D01*
X158758000Y-97046379D02*
X158758000Y-104412000D01*
X162441000Y-94760000D02*
X163331000Y-93870000D01*
X163331000Y-93870000D02*
X165380000Y-93870000D01*
X162441000Y-94760000D02*
X161044379Y-94760000D01*
X160960800Y-89275000D02*
X160960800Y-90210800D01*
X165930000Y-90672900D02*
X167327900Y-89275000D01*
X166400000Y-101230000D02*
X165480000Y-101230000D01*
X156755000Y-106415000D02*
X156755000Y-106420000D01*
X161900000Y-91130000D02*
X161910000Y-91120000D01*
X158758000Y-104412000D02*
X156755000Y-106415000D01*
X161044379Y-94760000D02*
X158758000Y-97046379D01*
X165930000Y-93320000D02*
X165930000Y-90672900D01*
X161310800Y-91130000D02*
X161900000Y-91130000D01*
X165380000Y-93870000D02*
X165930000Y-93320000D01*
X161310800Y-90560800D02*
X161310800Y-91130000D01*
%TO.N,NRST*%
X163824000Y-100937333D02*
X164600000Y-101713333D01*
X164600000Y-102380000D02*
X164590000Y-102390000D01*
X167425000Y-107540000D02*
X167425000Y-108610000D01*
X161967667Y-100937333D02*
X163824000Y-100937333D01*
X164600000Y-101713333D02*
X164600000Y-102380000D01*
X167425000Y-111690000D02*
X167425000Y-108610000D01*
X164616667Y-101730000D02*
X164600000Y-101713333D01*
X166400000Y-101730000D02*
X164616667Y-101730000D01*
X161300000Y-101605000D02*
X161967667Y-100937333D01*
%TO.N,GND*%
X173611000Y-104079000D02*
X173611000Y-102580141D01*
X172710000Y-104980000D02*
X173611000Y-104079000D01*
X172200000Y-105500000D02*
X172710000Y-104990000D01*
D36*
X176909200Y-85400000D02*
X159660800Y-85400000D01*
D37*
X161300000Y-100055000D02*
X162965000Y-100055000D01*
D36*
X169575000Y-110925000D02*
X169560000Y-110910000D01*
D37*
X160370000Y-100060000D02*
X161290000Y-100060000D01*
X162990000Y-100080000D02*
X162990000Y-99410000D01*
X161295000Y-100055000D02*
X161300000Y-100055000D01*
D36*
X176909200Y-92655000D02*
X176909200Y-85400000D01*
D37*
X162925000Y-105005000D02*
X162950000Y-104980000D01*
X161300000Y-105778000D02*
X161300000Y-105005000D01*
D36*
X175609200Y-86700000D02*
X176909200Y-85400000D01*
D37*
X160899000Y-106179000D02*
X161300000Y-105778000D01*
D36*
X175609200Y-89275000D02*
X175609200Y-86700000D01*
X164705000Y-89275000D02*
X163960800Y-89275000D01*
D37*
X162990000Y-99410000D02*
X162980000Y-99400000D01*
D36*
X169575000Y-108305000D02*
X169570000Y-108310000D01*
D37*
X163000000Y-104930000D02*
X162950000Y-104980000D01*
D35*
X173611000Y-102580141D02*
X173601706Y-102570847D01*
X168550000Y-102730000D02*
X168800000Y-102480000D01*
D37*
X163000000Y-103346667D02*
X163000000Y-104930000D01*
D36*
X169575000Y-107540000D02*
X169575000Y-108305000D01*
D35*
X166400000Y-102730000D02*
X168550000Y-102730000D01*
D36*
X169575000Y-111690000D02*
X169575000Y-110925000D01*
D37*
X161300000Y-105005000D02*
X162925000Y-105005000D01*
D35*
X172710000Y-104990000D02*
X172710000Y-104980000D01*
D37*
X162965000Y-100055000D02*
X162990000Y-100080000D01*
X161290000Y-100060000D02*
X161295000Y-100055000D01*
D36*
X173060000Y-102030000D02*
X173060859Y-102030000D01*
X173060859Y-102030000D02*
X173601706Y-102570847D01*
D37*
X162950000Y-104980000D02*
X163520000Y-104410000D01*
D36*
%TO.N,+3V3*%
X160285000Y-103455000D02*
X161300000Y-103455000D01*
X173671500Y-97786442D02*
X173008200Y-97123142D01*
D35*
X158621000Y-112621000D02*
X158621000Y-108437700D01*
D37*
X162950000Y-101713333D02*
X162950000Y-101746667D01*
X162950000Y-101746667D02*
X164550000Y-103346667D01*
D35*
X173035000Y-113265000D02*
X172320000Y-113980000D01*
D36*
X161219999Y-95860000D02*
X159660000Y-97419999D01*
D35*
X159980000Y-113980000D02*
X158621000Y-112621000D01*
X164553333Y-103346667D02*
X164550000Y-103346667D01*
X172320000Y-113980000D02*
X159980000Y-113980000D01*
D37*
X161300000Y-103455000D02*
X161300000Y-103363333D01*
D36*
X172697500Y-100080000D02*
X173671500Y-99106000D01*
D35*
X173035000Y-111690000D02*
X173035000Y-113265000D01*
D36*
X173671500Y-99106000D02*
X173671500Y-97786442D01*
X159660000Y-97419999D02*
X159660000Y-102830000D01*
X162790057Y-95860000D02*
X161219999Y-95860000D01*
X159660000Y-102830000D02*
X160285000Y-103455000D01*
D35*
X160110000Y-106948700D02*
X160110000Y-104645000D01*
D36*
X162791057Y-95861000D02*
X162790057Y-95860000D01*
D35*
X166400000Y-102230000D02*
X165670000Y-102230000D01*
D36*
X163288943Y-95861000D02*
X162791057Y-95861000D01*
X164159943Y-94990000D02*
X163288943Y-95861000D01*
X172070000Y-94990000D02*
X164159943Y-94990000D01*
D37*
X161300000Y-103363333D02*
X162950000Y-101713333D01*
D35*
X158621000Y-108437700D02*
X160110000Y-106948700D01*
D36*
X173008200Y-97123142D02*
X173008200Y-95928200D01*
D35*
X165670000Y-102230000D02*
X164553333Y-103346667D01*
X173035000Y-111690000D02*
X173035000Y-107540000D01*
D36*
X173008200Y-95928200D02*
X172070000Y-94990000D01*
D35*
X160110000Y-104645000D02*
X161300000Y-103455000D01*
%TO.N,VCORE*%
X164540000Y-100080000D02*
X167050000Y-100080000D01*
%TO.N,ROSC*%
X165300000Y-104280000D02*
X164600000Y-104980000D01*
X165300000Y-103540000D02*
X165300000Y-104280000D01*
X165610000Y-103230000D02*
X165300000Y-103540000D01*
X166400000Y-103230000D02*
X165610000Y-103230000D01*
%TO.N,SWDIO*%
X171620000Y-101230000D02*
X171200000Y-101230000D01*
X175181000Y-102031000D02*
X174050000Y-100900000D01*
X171950000Y-100900000D02*
X171620000Y-101230000D01*
X175181000Y-104222896D02*
X175181000Y-102031000D01*
X174050000Y-100900000D02*
X171950000Y-100900000D01*
%TO.N,SWCLK*%
X171200000Y-99710000D02*
X171200000Y-100730000D01*
X171866349Y-99043651D02*
X171200000Y-99710000D01*
X172885319Y-99043651D02*
X171866349Y-99043651D01*
%TO.N,BSL_UART_RX*%
X170811000Y-108436100D02*
X170811000Y-106853900D01*
X170800000Y-109140000D02*
X170800000Y-108447100D01*
X170800000Y-108447100D02*
X170811000Y-108436100D01*
X170811000Y-106853900D02*
X170050000Y-106092900D01*
X170050000Y-106092900D02*
X170050000Y-104880000D01*
X170330000Y-109610000D02*
X170800000Y-109140000D01*
X169970000Y-109610000D02*
X170330000Y-109610000D01*
%TO.N,BSL_UART_TX*%
X168559259Y-109170741D02*
X168560000Y-109170741D01*
X169760000Y-108920000D02*
X170410000Y-108270000D01*
X168560000Y-109170741D02*
X168810741Y-108920000D01*
X170410000Y-107020000D02*
X169550000Y-106160000D01*
X168120000Y-109610000D02*
X168559259Y-109170741D01*
X168810741Y-108920000D02*
X169760000Y-108920000D01*
X169550000Y-106160000D02*
X169550000Y-104880000D01*
X170410000Y-108270000D02*
X170410000Y-107020000D01*
%TO.N,SPI0_POCI*%
X176830000Y-108359997D02*
X176830003Y-108360000D01*
X166400000Y-104230000D02*
X166400000Y-105582900D01*
X166490004Y-112348517D02*
X166490004Y-111842896D01*
X179815000Y-106425000D02*
X179815000Y-106420000D01*
X177880000Y-108360000D02*
X179815000Y-106425000D01*
X160473900Y-107719000D02*
X159423000Y-108769900D01*
X159423000Y-108769900D02*
X159423000Y-112288800D01*
X164263900Y-107719000D02*
X160473900Y-107719000D01*
X160143200Y-113009000D02*
X165829521Y-113009000D01*
X176520000Y-108359997D02*
X176830000Y-108359997D01*
X165829521Y-113009000D02*
X166490004Y-112348517D01*
X159423000Y-112288800D02*
X160143200Y-113009000D01*
X166400000Y-105582900D02*
X164263900Y-107719000D01*
X176830003Y-108360000D02*
X177880000Y-108360000D01*
%TO.N,BSL_I2C_SDA*%
X156955000Y-107925000D02*
X156955000Y-108960000D01*
X173609200Y-89879890D02*
X173609200Y-89275000D01*
X159159000Y-104578100D02*
X157980000Y-105757100D01*
X166350000Y-93630000D02*
X166350000Y-90820000D01*
X163040000Y-95260000D02*
X163980000Y-94320000D01*
X163550000Y-91130000D02*
X163560000Y-91120000D01*
X157980000Y-105757100D02*
X157980000Y-106900000D01*
X161960800Y-89275000D02*
X161960800Y-90130000D01*
X161111479Y-95260000D02*
X159159000Y-97212479D01*
X173119090Y-90370000D02*
X173609200Y-89879890D01*
X162648521Y-95261000D02*
X162233479Y-95261000D01*
X172190000Y-90370000D02*
X173119090Y-90370000D01*
X162960800Y-91130000D02*
X163550000Y-91130000D01*
X162233479Y-95261000D02*
X162232479Y-95260000D01*
X159159000Y-97212479D02*
X159159000Y-104578100D01*
X162232479Y-95260000D02*
X161111479Y-95260000D01*
X167494000Y-89676000D02*
X171496000Y-89676000D01*
X171496000Y-89676000D02*
X172190000Y-90370000D01*
X162649521Y-95260000D02*
X162648521Y-95261000D01*
X163040000Y-95260000D02*
X162649521Y-95260000D01*
X157980000Y-106900000D02*
X156955000Y-107925000D01*
X165830000Y-100730000D02*
X166400000Y-100730000D01*
X166350000Y-90820000D02*
X167494000Y-89676000D01*
X161960800Y-90130000D02*
X162960800Y-91130000D01*
X165660000Y-94320000D02*
X166350000Y-93630000D01*
X163980000Y-94320000D02*
X165660000Y-94320000D01*
D36*
%TO.N,VCC*%
X173609200Y-92655000D02*
X173609200Y-96874200D01*
D35*
X163826800Y-91914000D02*
X160444800Y-91914000D01*
D36*
X175359200Y-91130000D02*
X175359200Y-92655000D01*
D35*
X169067500Y-92690000D02*
X173574200Y-92690000D01*
D36*
X176710000Y-111500000D02*
X179815000Y-111500000D01*
X177174993Y-111964993D02*
X176710000Y-111500000D01*
X175290000Y-104980000D02*
X175920000Y-104350000D01*
D35*
X163834800Y-90354000D02*
X163064800Y-90354000D01*
D36*
X173609200Y-96874200D02*
X174272500Y-97537500D01*
X174609200Y-90380000D02*
X175359200Y-91130000D01*
X174260000Y-104980000D02*
X174260000Y-103230000D01*
X162960800Y-88029200D02*
X162960800Y-89275000D01*
X174260000Y-104980000D02*
X175290000Y-104980000D01*
X173930000Y-87360000D02*
X163630000Y-87360000D01*
X174272500Y-100080000D02*
X175450000Y-100080000D01*
D35*
X163064800Y-90354000D02*
X162960800Y-90250000D01*
D36*
X163630000Y-87360000D02*
X162960800Y-88029200D01*
X174609200Y-89275000D02*
X174609200Y-90380000D01*
D35*
X164610800Y-91130000D02*
X163834800Y-90354000D01*
D36*
X174272500Y-100080000D02*
X174272500Y-97537500D01*
X175920000Y-100550000D02*
X175920000Y-104350000D01*
X173609200Y-92655000D02*
X175359200Y-92655000D01*
X177174993Y-116450000D02*
X177174993Y-111964993D01*
D35*
X173574200Y-92690000D02*
X173609200Y-92655000D01*
D36*
X175920000Y-110710000D02*
X176710000Y-111500000D01*
X175920000Y-104350000D02*
X175920000Y-110710000D01*
D35*
X164610800Y-91130000D02*
X163826800Y-91914000D01*
X162960800Y-90250000D02*
X162960800Y-89275000D01*
D36*
X175450000Y-100080000D02*
X175920000Y-100550000D01*
D35*
X160444800Y-91914000D02*
X159660800Y-91130000D01*
D36*
X174609200Y-89275000D02*
X174609200Y-88039200D01*
X174609200Y-88039200D02*
X173930000Y-87360000D01*
D35*
%TO.N,SPI0_PICO*%
X167050000Y-104880000D02*
X167050000Y-105500000D01*
X176520000Y-108960000D02*
X179615000Y-108960000D01*
X159824000Y-112122700D02*
X160309300Y-112608000D01*
X159824000Y-108936000D02*
X159824000Y-112122700D01*
X160640000Y-108120000D02*
X159824000Y-108936000D01*
X164994896Y-112608000D02*
X165760000Y-111842896D01*
X160309300Y-112608000D02*
X164994896Y-112608000D01*
X164430000Y-108120000D02*
X160640000Y-108120000D01*
X167050000Y-105500000D02*
X164430000Y-108120000D01*
%TO.N,SPI0_CS1*%
X176520000Y-102880000D02*
X178060000Y-101340000D01*
X165950000Y-103730000D02*
X166400000Y-103730000D01*
X176520000Y-106690000D02*
X176520000Y-102880000D01*
X159022000Y-112454900D02*
X159022000Y-108603800D01*
X159977100Y-113410000D02*
X159022000Y-112454900D01*
X164097800Y-107318000D02*
X165710000Y-105705800D01*
X165710000Y-105705800D02*
X165710000Y-103970000D01*
X165710000Y-103970000D02*
X165950000Y-103730000D01*
X159022000Y-108603800D02*
X160307800Y-107318000D01*
X178060000Y-101340000D02*
X179815000Y-101340000D01*
X168410000Y-113410000D02*
X159977100Y-113410000D01*
X160307800Y-107318000D02*
X164097800Y-107318000D01*
%TO.N,SPI0_SCK*%
X166380000Y-106817100D02*
X167550000Y-105647100D01*
X176520000Y-107759994D02*
X177610006Y-107759994D01*
X166680000Y-110910000D02*
X166380000Y-110610000D01*
X178520000Y-106030000D02*
X179615000Y-104935000D01*
X179615000Y-104935000D02*
X179615000Y-103880000D01*
X178520000Y-106850000D02*
X178520000Y-106030000D01*
X167550000Y-105647100D02*
X167550000Y-104880000D01*
X177610006Y-107759994D02*
X178520000Y-106850000D01*
X166380000Y-110610000D02*
X166380000Y-106817100D01*
%TO.N,WS2812*%
X171200000Y-103230000D02*
X173060000Y-103230000D01*
%TO.N,TIMA0_C1*%
X167715000Y-106615000D02*
X168050000Y-106280000D01*
X167289207Y-106615000D02*
X167715000Y-106615000D01*
X168050000Y-106280000D02*
X168050000Y-104880000D01*
%TO.N,A0_1*%
X178210000Y-93470000D02*
X178210000Y-91900000D01*
X176630000Y-95050092D02*
X176630000Y-95050000D01*
X178930000Y-91180000D02*
X179815000Y-91180000D01*
X176630000Y-95050000D02*
X178210000Y-93470000D01*
X178210000Y-91900000D02*
X178930000Y-91180000D01*
X168050000Y-100080000D02*
X168050000Y-96861000D01*
%TO.N,A0_2*%
X176800000Y-95640000D02*
X178720000Y-93720000D01*
X176050000Y-95640000D02*
X176800000Y-95640000D01*
X178720000Y-93720000D02*
X179615000Y-93720000D01*
X168550000Y-100080000D02*
X168550000Y-97280000D01*
%TO.N,A0_0*%
X178720000Y-88640000D02*
X179615000Y-88640000D01*
X176120000Y-94450000D02*
X176662900Y-94450000D01*
X177670000Y-93442900D02*
X177670000Y-89690000D01*
X176662900Y-94450000D02*
X177670000Y-93442900D01*
X177670000Y-89690000D02*
X178720000Y-88640000D01*
X167550000Y-97265173D02*
X167550000Y-100080000D01*
%TO.N,INT*%
X169351000Y-95491000D02*
X170160000Y-96300000D01*
X170160000Y-97560000D02*
X169550000Y-98170000D01*
X160810000Y-98800000D02*
X160810000Y-96978520D01*
X169550000Y-98170000D02*
X169550000Y-100080000D01*
X161427520Y-96361000D02*
X163497464Y-96361000D01*
X163497464Y-96361000D02*
X164367464Y-95491000D01*
X170160000Y-96300000D02*
X170160000Y-97560000D01*
X164367464Y-95491000D02*
X169351000Y-95491000D01*
X160810000Y-96978520D02*
X161427520Y-96361000D01*
%TO.N,RST*%
X173071500Y-98181500D02*
X172800000Y-97910000D01*
X170050000Y-98600000D02*
X170050000Y-100080000D01*
X172800000Y-97910000D02*
X170740000Y-97910000D01*
X170740000Y-97910000D02*
X170050000Y-98600000D01*
X173071500Y-98420000D02*
X173071500Y-98181500D01*
%TO.N,TIMG8_C0*%
X171450000Y-98410000D02*
X170550000Y-99310000D01*
X170550000Y-99310000D02*
X170550000Y-100080000D01*
X172250000Y-98410000D02*
X171450000Y-98410000D01*
%TO.N,A0_3*%
X169051000Y-96861000D02*
X169051000Y-98720000D01*
X169050000Y-98721000D02*
X169050000Y-100080000D01*
X175660000Y-96260000D02*
X179815000Y-96260000D01*
X169051000Y-98720000D02*
X169050000Y-98721000D01*
%TO.N,FCC_IN*%
X165630000Y-110110000D02*
X164850000Y-110110000D01*
X164290715Y-109550715D02*
X163600000Y-109550715D01*
X172418220Y-102730000D02*
X171200000Y-102730000D01*
X160600000Y-109550715D02*
X163600000Y-109550715D01*
X164850000Y-110110000D02*
X164290715Y-109550715D01*
%TO.N,TIMG0_C1*%
X157665000Y-92090000D02*
X156755000Y-91180000D01*
X171540922Y-104230000D02*
X171879804Y-104568882D01*
X171200000Y-104230000D02*
X171540922Y-104230000D01*
X158910000Y-92690000D02*
X158310000Y-92090000D01*
X159660800Y-92690000D02*
X158910000Y-92690000D01*
X158310000Y-92090000D02*
X157665000Y-92090000D01*
%TO.N,TIMG0_C0*%
X170550000Y-105390000D02*
X170550000Y-104880000D01*
X170780000Y-105620000D02*
X170550000Y-105390000D01*
X170780000Y-106114000D02*
X170780000Y-105620000D01*
%TO.N,CLK_OUT*%
X171882392Y-103730000D02*
X171200000Y-103730000D01*
X172275951Y-104115951D02*
X172268343Y-104115951D01*
X172268343Y-104115951D02*
X171882392Y-103730000D01*
%TO.N,TIMA0_C3*%
X172095333Y-102230000D02*
X172410000Y-101915333D01*
X171200000Y-102230000D02*
X172095333Y-102230000D01*
%TO.N,UART1_RX*%
X168849998Y-106813002D02*
X169050000Y-106613000D01*
X169050000Y-106613000D02*
X169050000Y-104880000D01*
X168549998Y-107590000D02*
X168849998Y-107290000D01*
X168849998Y-107290000D02*
X168849998Y-106813002D01*
%TO.N,Net-(D2-K)*%
X161235800Y-92690000D02*
X162960800Y-92690000D01*
%TO.N,UART1_TX*%
X168238554Y-106798554D02*
X168238554Y-106791446D01*
X168550000Y-106480000D02*
X168550000Y-104880000D01*
X168238554Y-106791446D02*
X168550000Y-106480000D01*
%TO.N,BSL_INVOKE*%
X175185000Y-107540000D02*
X175185000Y-111690000D01*
X175190000Y-107535000D02*
X175185000Y-107540000D01*
X175185000Y-112695000D02*
X173499000Y-114381000D01*
X173550000Y-101415333D02*
X172034667Y-101415333D01*
X173499000Y-114381000D02*
X159989000Y-114381000D01*
X172034667Y-101415333D02*
X171727075Y-101722925D01*
X159394993Y-114975007D02*
X159394993Y-116450000D01*
X175190000Y-105580000D02*
X175190000Y-107535000D01*
X171207075Y-101722925D02*
X171200000Y-101730000D01*
X159989000Y-114381000D02*
X159394993Y-114975007D01*
X175185000Y-111690000D02*
X175185000Y-112695000D01*
X171727075Y-101722925D02*
X171207075Y-101722925D01*
%TO.N,Net-(D1-K)*%
X167492500Y-91167500D02*
X167455000Y-91130000D01*
X167492500Y-92690000D02*
X167492500Y-91167500D01*
%TO.N,Net-(J5-Pin_2)*%
X160600000Y-111200715D02*
X160600000Y-110401042D01*
X160600000Y-111200715D02*
X163600000Y-111200715D01*
X160600000Y-110401042D02*
X160600327Y-110400715D01*
%TD*%
%TA.AperFunction,Conductor*%
%TO.N,GND*%
G36*
X175973011Y-111406224D02*
G01*
X175979594Y-111412354D01*
X176346307Y-111779067D01*
X176346309Y-111779070D01*
X176430930Y-111863691D01*
X176430932Y-111863692D01*
X176683588Y-112116348D01*
X176717614Y-112178660D01*
X176720493Y-112205443D01*
X176720493Y-115463805D01*
X176700491Y-115531926D01*
X176664495Y-115568570D01*
X176614447Y-115602011D01*
X176548019Y-115646397D01*
X176527011Y-115660434D01*
X176527004Y-115660439D01*
X176385432Y-115802011D01*
X176385427Y-115802017D01*
X176274183Y-115968507D01*
X176197558Y-116153494D01*
X176197557Y-116153497D01*
X176158493Y-116349880D01*
X176158493Y-116550119D01*
X176184684Y-116681788D01*
X176197557Y-116746502D01*
X176274183Y-116931493D01*
X176370024Y-117074930D01*
X176385427Y-117097982D01*
X176385432Y-117097988D01*
X176485349Y-117197905D01*
X176519375Y-117260217D01*
X176514310Y-117331032D01*
X176471763Y-117387868D01*
X176405243Y-117412679D01*
X176396254Y-117413000D01*
X175116948Y-117413000D01*
X175048827Y-117392998D01*
X175002334Y-117339342D01*
X174992230Y-117269068D01*
X175021724Y-117204488D01*
X175068729Y-117170591D01*
X175116486Y-117150810D01*
X175282974Y-117039567D01*
X175424560Y-116897981D01*
X175535803Y-116731493D01*
X175612429Y-116546502D01*
X175651493Y-116350116D01*
X175651493Y-116149884D01*
X175612429Y-115953498D01*
X175535803Y-115768507D01*
X175424560Y-115602019D01*
X175424558Y-115602017D01*
X175424553Y-115602011D01*
X175282981Y-115460439D01*
X175282975Y-115460434D01*
X175282974Y-115460433D01*
X175116486Y-115349190D01*
X174976245Y-115291100D01*
X174931498Y-115272565D01*
X174931495Y-115272564D01*
X174735112Y-115233500D01*
X174735109Y-115233500D01*
X174534877Y-115233500D01*
X174534873Y-115233500D01*
X174338490Y-115272564D01*
X174338487Y-115272565D01*
X174153500Y-115349190D01*
X173987010Y-115460434D01*
X173987004Y-115460439D01*
X173845432Y-115602011D01*
X173845427Y-115602017D01*
X173734183Y-115768507D01*
X173657558Y-115953494D01*
X173657557Y-115953497D01*
X173618493Y-116149880D01*
X173618493Y-116350119D01*
X173654087Y-116529057D01*
X173657557Y-116546502D01*
X173734183Y-116731493D01*
X173826889Y-116870238D01*
X173845427Y-116897982D01*
X173845432Y-116897988D01*
X173987004Y-117039560D01*
X173987010Y-117039565D01*
X173987012Y-117039567D01*
X174153500Y-117150810D01*
X174201256Y-117170591D01*
X174256537Y-117215139D01*
X174278958Y-117282503D01*
X174261400Y-117351294D01*
X174209438Y-117399672D01*
X174153038Y-117413000D01*
X172576948Y-117413000D01*
X172508827Y-117392998D01*
X172462334Y-117339342D01*
X172452230Y-117269068D01*
X172481724Y-117204488D01*
X172528729Y-117170591D01*
X172576486Y-117150810D01*
X172742974Y-117039567D01*
X172884560Y-116897981D01*
X172995803Y-116731493D01*
X173072429Y-116546502D01*
X173111493Y-116350116D01*
X173111493Y-116149884D01*
X173072429Y-115953498D01*
X172995803Y-115768507D01*
X172884560Y-115602019D01*
X172884558Y-115602017D01*
X172884553Y-115602011D01*
X172742981Y-115460439D01*
X172742975Y-115460434D01*
X172742974Y-115460433D01*
X172576486Y-115349190D01*
X172436245Y-115291100D01*
X172391498Y-115272565D01*
X172391495Y-115272564D01*
X172195112Y-115233500D01*
X172195109Y-115233500D01*
X171994877Y-115233500D01*
X171994873Y-115233500D01*
X171798490Y-115272564D01*
X171798487Y-115272565D01*
X171613500Y-115349190D01*
X171447010Y-115460434D01*
X171447004Y-115460439D01*
X171305432Y-115602011D01*
X171305427Y-115602017D01*
X171194183Y-115768507D01*
X171117558Y-115953494D01*
X171117557Y-115953497D01*
X171078493Y-116149880D01*
X171078493Y-116350119D01*
X171114087Y-116529057D01*
X171117557Y-116546502D01*
X171194183Y-116731493D01*
X171286889Y-116870238D01*
X171305427Y-116897982D01*
X171305432Y-116897988D01*
X171447004Y-117039560D01*
X171447010Y-117039565D01*
X171447012Y-117039567D01*
X171613500Y-117150810D01*
X171661256Y-117170591D01*
X171716537Y-117215139D01*
X171738958Y-117282503D01*
X171721400Y-117351294D01*
X171669438Y-117399672D01*
X171613038Y-117413000D01*
X170333732Y-117413000D01*
X170265611Y-117392998D01*
X170219118Y-117339342D01*
X170209014Y-117269068D01*
X170238508Y-117204488D01*
X170244637Y-117197905D01*
X170344553Y-117097988D01*
X170344560Y-117097981D01*
X170455803Y-116931493D01*
X170532429Y-116746502D01*
X170571493Y-116550116D01*
X170571493Y-116349884D01*
X170532429Y-116153498D01*
X170455803Y-115968507D01*
X170344560Y-115802019D01*
X170344558Y-115802017D01*
X170344553Y-115802011D01*
X170202981Y-115660439D01*
X170202975Y-115660434D01*
X170202974Y-115660433D01*
X170036486Y-115549190D01*
X169919832Y-115500870D01*
X169851498Y-115472565D01*
X169851495Y-115472564D01*
X169655112Y-115433500D01*
X169655109Y-115433500D01*
X169454877Y-115433500D01*
X169454873Y-115433500D01*
X169258490Y-115472564D01*
X169258487Y-115472565D01*
X169073500Y-115549190D01*
X168907010Y-115660434D01*
X168907004Y-115660439D01*
X168765432Y-115802011D01*
X168765427Y-115802017D01*
X168654183Y-115968507D01*
X168577558Y-116153494D01*
X168577557Y-116153497D01*
X168538493Y-116349880D01*
X168538493Y-116550119D01*
X168564684Y-116681788D01*
X168577557Y-116746502D01*
X168654183Y-116931493D01*
X168750024Y-117074930D01*
X168765427Y-117097982D01*
X168765432Y-117097988D01*
X168865349Y-117197905D01*
X168899375Y-117260217D01*
X168894310Y-117331032D01*
X168851763Y-117387868D01*
X168785243Y-117412679D01*
X168776254Y-117413000D01*
X167876941Y-117413000D01*
X167808820Y-117392998D01*
X167762327Y-117339342D01*
X167752223Y-117269068D01*
X167781717Y-117204488D01*
X167801432Y-117186131D01*
X167887041Y-117122045D01*
X167973892Y-117006023D01*
X168024539Y-116870238D01*
X168024541Y-116870230D01*
X168030992Y-116810222D01*
X168030993Y-116810205D01*
X168030993Y-116377000D01*
X167441144Y-116377000D01*
X167459493Y-116308520D01*
X167459493Y-116191480D01*
X167441144Y-116123000D01*
X168030992Y-116123000D01*
X168030992Y-115689797D01*
X168030990Y-115689773D01*
X168024540Y-115629767D01*
X168024540Y-115629765D01*
X167973892Y-115493976D01*
X167887040Y-115377952D01*
X167771016Y-115291100D01*
X167771017Y-115291100D01*
X167635231Y-115240453D01*
X167635223Y-115240451D01*
X167575215Y-115234000D01*
X167141993Y-115234000D01*
X167141993Y-115823849D01*
X167073513Y-115805500D01*
X166956473Y-115805500D01*
X166887993Y-115823849D01*
X166887993Y-115234000D01*
X166454790Y-115234000D01*
X166454766Y-115234002D01*
X166394760Y-115240452D01*
X166394758Y-115240452D01*
X166258969Y-115291100D01*
X166142945Y-115377952D01*
X166056093Y-115493976D01*
X166005446Y-115629761D01*
X166005444Y-115629769D01*
X165998993Y-115689777D01*
X165998993Y-116123000D01*
X166588842Y-116123000D01*
X166570493Y-116191480D01*
X166570493Y-116308520D01*
X166588842Y-116377000D01*
X165998994Y-116377000D01*
X165998994Y-116810202D01*
X165998995Y-116810226D01*
X166005445Y-116870232D01*
X166005445Y-116870234D01*
X166056093Y-117006023D01*
X166142944Y-117122045D01*
X166228554Y-117186131D01*
X166271100Y-117242967D01*
X166276166Y-117313783D01*
X166242141Y-117376095D01*
X166179829Y-117410120D01*
X166153045Y-117413000D01*
X165253732Y-117413000D01*
X165185611Y-117392998D01*
X165139118Y-117339342D01*
X165129014Y-117269068D01*
X165158508Y-117204488D01*
X165164637Y-117197905D01*
X165264553Y-117097988D01*
X165264560Y-117097981D01*
X165375803Y-116931493D01*
X165452429Y-116746502D01*
X165491493Y-116550116D01*
X165491493Y-116349884D01*
X165452429Y-116153498D01*
X165375803Y-115968507D01*
X165264560Y-115802019D01*
X165264558Y-115802017D01*
X165264553Y-115802011D01*
X165122981Y-115660439D01*
X165122975Y-115660434D01*
X165122974Y-115660433D01*
X164956486Y-115549190D01*
X164839832Y-115500870D01*
X164771498Y-115472565D01*
X164771495Y-115472564D01*
X164575112Y-115433500D01*
X164575109Y-115433500D01*
X164374877Y-115433500D01*
X164374873Y-115433500D01*
X164178490Y-115472564D01*
X164178487Y-115472565D01*
X163993500Y-115549190D01*
X163827010Y-115660434D01*
X163827004Y-115660439D01*
X163685432Y-115802011D01*
X163685427Y-115802017D01*
X163574183Y-115968507D01*
X163497558Y-116153494D01*
X163497557Y-116153497D01*
X163458493Y-116349880D01*
X163458493Y-116550119D01*
X163484684Y-116681788D01*
X163497557Y-116746502D01*
X163574183Y-116931493D01*
X163670024Y-117074930D01*
X163685427Y-117097982D01*
X163685432Y-117097988D01*
X163785349Y-117197905D01*
X163819375Y-117260217D01*
X163814310Y-117331032D01*
X163771763Y-117387868D01*
X163705243Y-117412679D01*
X163696254Y-117413000D01*
X162416948Y-117413000D01*
X162348827Y-117392998D01*
X162302334Y-117339342D01*
X162292230Y-117269068D01*
X162321724Y-117204488D01*
X162368729Y-117170591D01*
X162416486Y-117150810D01*
X162582974Y-117039567D01*
X162724560Y-116897981D01*
X162835803Y-116731493D01*
X162912429Y-116546502D01*
X162951493Y-116350116D01*
X162951493Y-116149884D01*
X162912429Y-115953498D01*
X162835803Y-115768507D01*
X162724560Y-115602019D01*
X162724558Y-115602017D01*
X162724553Y-115602011D01*
X162582981Y-115460439D01*
X162582975Y-115460434D01*
X162582974Y-115460433D01*
X162416486Y-115349190D01*
X162276245Y-115291100D01*
X162231498Y-115272565D01*
X162231495Y-115272564D01*
X162035112Y-115233500D01*
X162035109Y-115233500D01*
X161834877Y-115233500D01*
X161834873Y-115233500D01*
X161638490Y-115272564D01*
X161638487Y-115272565D01*
X161453500Y-115349190D01*
X161287010Y-115460434D01*
X161287004Y-115460439D01*
X161145432Y-115602011D01*
X161145427Y-115602017D01*
X161034183Y-115768507D01*
X160957558Y-115953494D01*
X160957557Y-115953497D01*
X160918493Y-116149880D01*
X160918493Y-116350119D01*
X160954087Y-116529057D01*
X160957557Y-116546502D01*
X161034183Y-116731493D01*
X161126889Y-116870238D01*
X161145427Y-116897982D01*
X161145432Y-116897988D01*
X161287004Y-117039560D01*
X161287010Y-117039565D01*
X161287012Y-117039567D01*
X161453500Y-117150810D01*
X161501256Y-117170591D01*
X161556537Y-117215139D01*
X161578958Y-117282503D01*
X161561400Y-117351294D01*
X161509438Y-117399672D01*
X161453038Y-117413000D01*
X160173732Y-117413000D01*
X160105611Y-117392998D01*
X160059118Y-117339342D01*
X160049014Y-117269068D01*
X160078508Y-117204488D01*
X160084637Y-117197905D01*
X160184553Y-117097988D01*
X160184560Y-117097981D01*
X160295803Y-116931493D01*
X160372429Y-116746502D01*
X160411493Y-116550116D01*
X160411493Y-116349884D01*
X160372429Y-116153498D01*
X160295803Y-115968507D01*
X160184560Y-115802019D01*
X160184558Y-115802017D01*
X160184553Y-115802011D01*
X160042981Y-115660439D01*
X160042975Y-115660434D01*
X160021967Y-115646397D01*
X159955539Y-115602011D01*
X159876485Y-115549189D01*
X159876483Y-115549188D01*
X159827273Y-115528804D01*
X159811456Y-115516057D01*
X159792981Y-115507620D01*
X159784380Y-115494238D01*
X159771993Y-115484255D01*
X159765578Y-115464980D01*
X159754597Y-115447894D01*
X159750570Y-115419886D01*
X159749573Y-115416891D01*
X159749493Y-115412396D01*
X159749493Y-115174036D01*
X159769495Y-115105915D01*
X159786398Y-115084941D01*
X160098934Y-114772405D01*
X160161246Y-114738379D01*
X160188029Y-114735500D01*
X173545671Y-114735500D01*
X173635832Y-114711341D01*
X173716668Y-114664671D01*
X175468671Y-112912668D01*
X175515341Y-112831832D01*
X175539500Y-112741671D01*
X175539500Y-112648329D01*
X175539500Y-112567837D01*
X175559502Y-112499716D01*
X175600622Y-112464084D01*
X175598982Y-112461629D01*
X175614834Y-112451037D01*
X175693484Y-112398484D01*
X175749734Y-112314301D01*
X175764500Y-112240067D01*
X175764499Y-111501448D01*
X175784501Y-111433328D01*
X175838157Y-111386835D01*
X175908431Y-111376731D01*
X175973011Y-111406224D01*
G37*
%TD.AperFunction*%
%TA.AperFunction,Conductor*%
G36*
X178836545Y-111956772D02*
G01*
X178844509Y-111955482D01*
X178870124Y-111966632D01*
X178896927Y-111974502D01*
X178903868Y-111981320D01*
X178909606Y-111983818D01*
X178933568Y-112010495D01*
X179014192Y-112131157D01*
X179025434Y-112147982D01*
X179025439Y-112147988D01*
X179167011Y-112289560D01*
X179167017Y-112289565D01*
X179167019Y-112289567D01*
X179333507Y-112400810D01*
X179518498Y-112477436D01*
X179714884Y-112516500D01*
X179915116Y-112516500D01*
X180111502Y-112477436D01*
X180296493Y-112400810D01*
X180296496Y-112400807D01*
X180299099Y-112399417D01*
X180300620Y-112399100D01*
X180302212Y-112398441D01*
X180302336Y-112398742D01*
X180368604Y-112384942D01*
X180434901Y-112410342D01*
X180476942Y-112467553D01*
X180484500Y-112510536D01*
X180484500Y-112941950D01*
X180464498Y-113010071D01*
X180410842Y-113056564D01*
X180340568Y-113066668D01*
X180314467Y-113060005D01*
X180235238Y-113030453D01*
X180235230Y-113030451D01*
X180175222Y-113024000D01*
X179742000Y-113024000D01*
X179742000Y-113613849D01*
X179673520Y-113595500D01*
X179556480Y-113595500D01*
X179488000Y-113613849D01*
X179488000Y-113024000D01*
X179054797Y-113024000D01*
X179054773Y-113024002D01*
X178994767Y-113030452D01*
X178994765Y-113030452D01*
X178858976Y-113081100D01*
X178742952Y-113167952D01*
X178656100Y-113283976D01*
X178605453Y-113419761D01*
X178605451Y-113419769D01*
X178599000Y-113479777D01*
X178599000Y-113913000D01*
X179188849Y-113913000D01*
X179170500Y-113981480D01*
X179170500Y-114098520D01*
X179188849Y-114167000D01*
X178599001Y-114167000D01*
X178599001Y-114600202D01*
X178599002Y-114600226D01*
X178605452Y-114660232D01*
X178605452Y-114660234D01*
X178656100Y-114796023D01*
X178742952Y-114912047D01*
X178858976Y-114998899D01*
X178858975Y-114998899D01*
X178994761Y-115049546D01*
X178994769Y-115049548D01*
X179054785Y-115055999D01*
X179488000Y-115055999D01*
X179488000Y-114466150D01*
X179556480Y-114484500D01*
X179673520Y-114484500D01*
X179742000Y-114466150D01*
X179742000Y-115055999D01*
X180175203Y-115055999D01*
X180175226Y-115055997D01*
X180235231Y-115049547D01*
X180314466Y-115019994D01*
X180385282Y-115014928D01*
X180447594Y-115048953D01*
X180481620Y-115111264D01*
X180484500Y-115138049D01*
X180484500Y-117287000D01*
X180464498Y-117355121D01*
X180410842Y-117401614D01*
X180358500Y-117413000D01*
X177953732Y-117413000D01*
X177885611Y-117392998D01*
X177839118Y-117339342D01*
X177829014Y-117269068D01*
X177858508Y-117204488D01*
X177864637Y-117197905D01*
X177964553Y-117097988D01*
X177964560Y-117097981D01*
X178075803Y-116931493D01*
X178152429Y-116746502D01*
X178191493Y-116550116D01*
X178191493Y-116370943D01*
X179014500Y-116370943D01*
X179014500Y-116529057D01*
X179037195Y-116613755D01*
X179055424Y-116681788D01*
X179134477Y-116818712D01*
X179134485Y-116818722D01*
X179246277Y-116930514D01*
X179246282Y-116930518D01*
X179246284Y-116930520D01*
X179246285Y-116930521D01*
X179246287Y-116930522D01*
X179383211Y-117009575D01*
X179383213Y-117009575D01*
X179383216Y-117009577D01*
X179535943Y-117050500D01*
X179535945Y-117050500D01*
X179694055Y-117050500D01*
X179694057Y-117050500D01*
X179846784Y-117009577D01*
X179846787Y-117009575D01*
X179846788Y-117009575D01*
X179974193Y-116936018D01*
X179983716Y-116930520D01*
X180095520Y-116818716D01*
X180145878Y-116731492D01*
X180174575Y-116681788D01*
X180174575Y-116681787D01*
X180174577Y-116681784D01*
X180215500Y-116529057D01*
X180215500Y-116370943D01*
X180174577Y-116218216D01*
X180174575Y-116218213D01*
X180174575Y-116218211D01*
X180095522Y-116081287D01*
X180095514Y-116081277D01*
X179983722Y-115969485D01*
X179983712Y-115969477D01*
X179846788Y-115890424D01*
X179828743Y-115885589D01*
X179694057Y-115849500D01*
X179535943Y-115849500D01*
X179442470Y-115874545D01*
X179383211Y-115890424D01*
X179246287Y-115969477D01*
X179246277Y-115969485D01*
X179134485Y-116081277D01*
X179134477Y-116081287D01*
X179055424Y-116218211D01*
X179046213Y-116252587D01*
X179014500Y-116370943D01*
X178191493Y-116370943D01*
X178191493Y-116349884D01*
X178152429Y-116153498D01*
X178075803Y-115968507D01*
X177964560Y-115802019D01*
X177964558Y-115802017D01*
X177964553Y-115802011D01*
X177822981Y-115660439D01*
X177822977Y-115660436D01*
X177822974Y-115660433D01*
X177724425Y-115594585D01*
X177685491Y-115568570D01*
X177639963Y-115514093D01*
X177629493Y-115463805D01*
X177629493Y-112080500D01*
X177649495Y-112012379D01*
X177703151Y-111965886D01*
X177755493Y-111954500D01*
X178828806Y-111954500D01*
X178836545Y-111956772D01*
G37*
%TD.AperFunction*%
%TA.AperFunction,Conductor*%
G36*
X159722012Y-103535226D02*
G01*
X159728595Y-103541355D01*
X159916898Y-103729658D01*
X159916919Y-103729681D01*
X160005923Y-103818685D01*
X160005928Y-103818689D01*
X160005930Y-103818691D01*
X160104326Y-103875500D01*
X160109569Y-103878527D01*
X160117779Y-103880727D01*
X160126821Y-103884750D01*
X160146628Y-103901577D01*
X160168825Y-103915103D01*
X160173236Y-103924181D01*
X160180928Y-103930716D01*
X160188493Y-103955580D01*
X160199854Y-103978960D01*
X160198656Y-103988982D01*
X160201595Y-103998638D01*
X160194516Y-104023644D01*
X160191434Y-104049455D01*
X160184175Y-104060181D01*
X160182259Y-104066951D01*
X160175628Y-104072810D01*
X160164697Y-104088964D01*
X159892332Y-104361329D01*
X159873672Y-104379989D01*
X159826330Y-104427330D01*
X159826326Y-104427335D01*
X159779659Y-104508166D01*
X159761206Y-104577032D01*
X159736955Y-104616817D01*
X159742368Y-104622672D01*
X159747132Y-104649617D01*
X159755464Y-104675681D01*
X159755500Y-104678679D01*
X159755500Y-106749671D01*
X159735498Y-106817792D01*
X159718595Y-106838766D01*
X158403332Y-108154029D01*
X158380505Y-108176856D01*
X158337330Y-108220030D01*
X158337326Y-108220035D01*
X158290659Y-108300866D01*
X158266500Y-108391025D01*
X158266500Y-112667674D01*
X158290659Y-112757833D01*
X158337326Y-112838664D01*
X158337334Y-112838674D01*
X159594565Y-114095905D01*
X159628591Y-114158217D01*
X159623526Y-114229032D01*
X159594566Y-114274095D01*
X159177325Y-114691336D01*
X159157321Y-114711340D01*
X159111323Y-114757337D01*
X159111319Y-114757342D01*
X159064652Y-114838173D01*
X159040493Y-114928332D01*
X159040493Y-115412396D01*
X159020491Y-115480517D01*
X158966835Y-115527010D01*
X158962713Y-115528804D01*
X158913502Y-115549188D01*
X158913500Y-115549189D01*
X158747010Y-115660434D01*
X158747004Y-115660439D01*
X158605432Y-115802011D01*
X158605427Y-115802017D01*
X158494184Y-115968505D01*
X158472150Y-116021700D01*
X158427601Y-116076980D01*
X158360238Y-116099401D01*
X158291447Y-116081843D01*
X158243068Y-116029880D01*
X158242231Y-116028175D01*
X158239111Y-116021700D01*
X158152226Y-115841381D01*
X158152223Y-115841377D01*
X158152220Y-115841371D01*
X158017077Y-115646397D01*
X158017069Y-115646387D01*
X157853085Y-115474950D01*
X157853078Y-115474944D01*
X157664290Y-115331269D01*
X157589601Y-115291100D01*
X157563552Y-115277090D01*
X157513033Y-115227209D01*
X157497501Y-115157932D01*
X157521889Y-115091255D01*
X157578453Y-115048348D01*
X157579202Y-115048066D01*
X157711026Y-114998897D01*
X157827047Y-114912047D01*
X157913899Y-114796023D01*
X157964546Y-114660238D01*
X157964548Y-114660230D01*
X157970999Y-114600222D01*
X157971000Y-114600205D01*
X157971000Y-114167000D01*
X157381151Y-114167000D01*
X157399500Y-114098520D01*
X157399500Y-113981480D01*
X157381151Y-113913000D01*
X157970999Y-113913000D01*
X157970999Y-113479797D01*
X157970997Y-113479773D01*
X157964547Y-113419767D01*
X157964547Y-113419765D01*
X157913899Y-113283976D01*
X157827047Y-113167952D01*
X157711023Y-113081100D01*
X157711024Y-113081100D01*
X157575238Y-113030453D01*
X157575230Y-113030451D01*
X157515222Y-113024000D01*
X157082000Y-113024000D01*
X157082000Y-113613849D01*
X157013520Y-113595500D01*
X156896480Y-113595500D01*
X156828000Y-113613849D01*
X156828000Y-113024000D01*
X156394797Y-113024000D01*
X156394773Y-113024002D01*
X156334768Y-113030452D01*
X156255502Y-113060017D01*
X156184687Y-113065081D01*
X156122375Y-113031056D01*
X156088349Y-112968744D01*
X156085470Y-112941961D01*
X156085470Y-112510520D01*
X156105472Y-112442399D01*
X156159128Y-112395906D01*
X156229402Y-112385802D01*
X156270871Y-112399401D01*
X156273505Y-112400809D01*
X156273506Y-112400809D01*
X156273507Y-112400810D01*
X156458498Y-112477436D01*
X156654884Y-112516500D01*
X156855116Y-112516500D01*
X157051502Y-112477436D01*
X157236493Y-112400810D01*
X157402981Y-112289567D01*
X157544567Y-112147981D01*
X157655810Y-111981493D01*
X157732436Y-111796502D01*
X157771500Y-111600116D01*
X157771500Y-111399884D01*
X157732436Y-111203498D01*
X157655810Y-111018507D01*
X157544567Y-110852019D01*
X157544565Y-110852017D01*
X157544560Y-110852011D01*
X157402988Y-110710439D01*
X157402982Y-110710434D01*
X157353489Y-110677364D01*
X157236493Y-110599190D01*
X157075369Y-110532450D01*
X157051505Y-110522565D01*
X157051502Y-110522564D01*
X156855119Y-110483500D01*
X156855116Y-110483500D01*
X156654884Y-110483500D01*
X156654880Y-110483500D01*
X156458497Y-110522564D01*
X156458494Y-110522565D01*
X156273500Y-110599192D01*
X156270860Y-110600604D01*
X156269319Y-110600924D01*
X156267788Y-110601559D01*
X156267667Y-110601268D01*
X156201353Y-110615072D01*
X156135059Y-110589665D01*
X156093024Y-110532450D01*
X156085470Y-110489479D01*
X156085470Y-109832209D01*
X156105472Y-109764088D01*
X156159128Y-109717595D01*
X156229402Y-109707491D01*
X156293982Y-109736985D01*
X156300565Y-109743114D01*
X156307011Y-109749560D01*
X156307017Y-109749565D01*
X156307019Y-109749567D01*
X156473507Y-109860810D01*
X156658498Y-109937436D01*
X156854884Y-109976500D01*
X157055116Y-109976500D01*
X157251502Y-109937436D01*
X157436493Y-109860810D01*
X157602981Y-109749567D01*
X157744567Y-109607981D01*
X157855810Y-109441493D01*
X157932436Y-109256502D01*
X157971500Y-109060116D01*
X157971500Y-108859884D01*
X157932436Y-108663498D01*
X157855810Y-108478507D01*
X157744567Y-108312019D01*
X157744565Y-108312017D01*
X157744560Y-108312011D01*
X157602988Y-108170439D01*
X157602982Y-108170434D01*
X157593805Y-108164302D01*
X157495602Y-108098685D01*
X157450077Y-108044211D01*
X157441228Y-107973767D01*
X157471869Y-107909723D01*
X157476490Y-107904847D01*
X158263671Y-107117668D01*
X158275792Y-107096673D01*
X158310341Y-107036832D01*
X158334500Y-106946671D01*
X158334500Y-105956129D01*
X158354502Y-105888008D01*
X158371405Y-105867034D01*
X159442665Y-104795774D01*
X159442671Y-104795768D01*
X159451307Y-104780810D01*
X159489341Y-104714932D01*
X159509987Y-104637878D01*
X159513260Y-104630056D01*
X159530503Y-104608809D01*
X159532246Y-104605950D01*
X159513536Y-104547417D01*
X159513500Y-104544420D01*
X159513500Y-103630450D01*
X159533502Y-103562329D01*
X159587158Y-103515836D01*
X159657432Y-103505732D01*
X159722012Y-103535226D01*
G37*
%TD.AperFunction*%
%TA.AperFunction,Conductor*%
G36*
X171391592Y-104629502D02*
G01*
X171438085Y-104683158D01*
X171445178Y-104702889D01*
X171456278Y-104744317D01*
X171516110Y-104847948D01*
X171516118Y-104847958D01*
X171600727Y-104932567D01*
X171600732Y-104932571D01*
X171600734Y-104932573D01*
X171600735Y-104932574D01*
X171600737Y-104932575D01*
X171704368Y-104992407D01*
X171704370Y-104992407D01*
X171704373Y-104992409D01*
X171819968Y-105023382D01*
X171819970Y-105023382D01*
X171880000Y-105023382D01*
X171948121Y-105043384D01*
X171994614Y-105097040D01*
X172006000Y-105149382D01*
X172006000Y-105275832D01*
X172012131Y-105332860D01*
X172060268Y-105461920D01*
X172142813Y-105572186D01*
X172253079Y-105654731D01*
X172382139Y-105702868D01*
X172439167Y-105708999D01*
X172439184Y-105709000D01*
X172583000Y-105709000D01*
X172583000Y-105106000D01*
X172585591Y-105097174D01*
X172584282Y-105088068D01*
X172595437Y-105063642D01*
X172603002Y-105037879D01*
X172609955Y-105031854D01*
X172613776Y-105023488D01*
X172636361Y-105008973D01*
X172656658Y-104991386D01*
X172667344Y-104989061D01*
X172673502Y-104985104D01*
X172709000Y-104980000D01*
X172711000Y-104980000D01*
X172779121Y-105000002D01*
X172825614Y-105053658D01*
X172837000Y-105106000D01*
X172837000Y-105709000D01*
X172980816Y-105709000D01*
X172980832Y-105708999D01*
X173037860Y-105702868D01*
X173166920Y-105654731D01*
X173277186Y-105572186D01*
X173359732Y-105461918D01*
X173366677Y-105443299D01*
X173409222Y-105386463D01*
X173475742Y-105361651D01*
X173545117Y-105376742D01*
X173595320Y-105426943D01*
X173602788Y-105443296D01*
X173609825Y-105462163D01*
X173609827Y-105462167D01*
X173625549Y-105483168D01*
X173692456Y-105572544D01*
X173755781Y-105619949D01*
X173802832Y-105655172D01*
X173802833Y-105655173D01*
X173802835Y-105655173D01*
X173802837Y-105655175D01*
X173932027Y-105703360D01*
X173989136Y-105709500D01*
X173989141Y-105709500D01*
X174530859Y-105709500D01*
X174530864Y-105709500D01*
X174587973Y-105703360D01*
X174610248Y-105695051D01*
X174644225Y-105692621D01*
X174678125Y-105689384D01*
X174679508Y-105690097D01*
X174681062Y-105689986D01*
X174710946Y-105706304D01*
X174741230Y-105721916D01*
X174742503Y-105723535D01*
X174743374Y-105724011D01*
X174763399Y-105750107D01*
X174766473Y-105755431D01*
X174807065Y-105825739D01*
X174818619Y-105845750D01*
X174835500Y-105908750D01*
X174835500Y-106660091D01*
X174815498Y-106728212D01*
X174770333Y-106767346D01*
X174771018Y-106768371D01*
X174762864Y-106773819D01*
X174761842Y-106774705D01*
X174760971Y-106775084D01*
X174676515Y-106831516D01*
X174620266Y-106915697D01*
X174605500Y-106989930D01*
X174605500Y-108090063D01*
X174605501Y-108090073D01*
X174620265Y-108164300D01*
X174676516Y-108248484D01*
X174771018Y-108311630D01*
X174769042Y-108314585D01*
X174807990Y-108345963D01*
X174830419Y-108413323D01*
X174830500Y-108417837D01*
X174830500Y-110812162D01*
X174810498Y-110880283D01*
X174769377Y-110915914D01*
X174771018Y-110918370D01*
X174676515Y-110981515D01*
X174620266Y-111065697D01*
X174605500Y-111139930D01*
X174605500Y-112240063D01*
X174605501Y-112240073D01*
X174620265Y-112314300D01*
X174674314Y-112395188D01*
X174676516Y-112398484D01*
X174679996Y-112400809D01*
X174730892Y-112434818D01*
X174776418Y-112489296D01*
X174785265Y-112559739D01*
X174754623Y-112623782D01*
X174749983Y-112628677D01*
X173389066Y-113989595D01*
X173361701Y-114004537D01*
X173335469Y-114021396D01*
X173329167Y-114022302D01*
X173326754Y-114023620D01*
X173299971Y-114026500D01*
X173079029Y-114026500D01*
X173010908Y-114006498D01*
X172964415Y-113952842D01*
X172954311Y-113882568D01*
X172983805Y-113817988D01*
X172989920Y-113811418D01*
X173318671Y-113482668D01*
X173333680Y-113456671D01*
X173365341Y-113401832D01*
X173389500Y-113311671D01*
X173389500Y-112567837D01*
X173409502Y-112499716D01*
X173450622Y-112464084D01*
X173448982Y-112461629D01*
X173464834Y-112451037D01*
X173543484Y-112398484D01*
X173599734Y-112314301D01*
X173614500Y-112240067D01*
X173614499Y-111139934D01*
X173614498Y-111139930D01*
X173614498Y-111139926D01*
X173599734Y-111065699D01*
X173543484Y-110981516D01*
X173463702Y-110928207D01*
X173459301Y-110925266D01*
X173459300Y-110925265D01*
X173448983Y-110918372D01*
X173450956Y-110915417D01*
X173411993Y-110884012D01*
X173389580Y-110816646D01*
X173389500Y-110812163D01*
X173389500Y-108417837D01*
X173409502Y-108349716D01*
X173450622Y-108314084D01*
X173448982Y-108311629D01*
X173465090Y-108300866D01*
X173543484Y-108248484D01*
X173599734Y-108164301D01*
X173614500Y-108090067D01*
X173614499Y-106989934D01*
X173614498Y-106989930D01*
X173614498Y-106989926D01*
X173599734Y-106915699D01*
X173566148Y-106865435D01*
X173543484Y-106831516D01*
X173522945Y-106817792D01*
X173459302Y-106775266D01*
X173385068Y-106760500D01*
X172684936Y-106760500D01*
X172684926Y-106760501D01*
X172610699Y-106775265D01*
X172526515Y-106831516D01*
X172470266Y-106915697D01*
X172455500Y-106989930D01*
X172455500Y-108090063D01*
X172455501Y-108090073D01*
X172470265Y-108164300D01*
X172526516Y-108248484D01*
X172621018Y-108311630D01*
X172619042Y-108314585D01*
X172657990Y-108345963D01*
X172680419Y-108413323D01*
X172680500Y-108417837D01*
X172680500Y-110812162D01*
X172660498Y-110880283D01*
X172619377Y-110915914D01*
X172621018Y-110918370D01*
X172526515Y-110981515D01*
X172470266Y-111065697D01*
X172455500Y-111139930D01*
X172455500Y-112240063D01*
X172455501Y-112240073D01*
X172470265Y-112314300D01*
X172526516Y-112398484D01*
X172621018Y-112461630D01*
X172619042Y-112464585D01*
X172657990Y-112495963D01*
X172680419Y-112563323D01*
X172680500Y-112567837D01*
X172680500Y-113065971D01*
X172660498Y-113134092D01*
X172643595Y-113155066D01*
X172210066Y-113588595D01*
X172147754Y-113622621D01*
X172120971Y-113625500D01*
X168986996Y-113625500D01*
X168918875Y-113605498D01*
X168872382Y-113551842D01*
X168862278Y-113481568D01*
X168864167Y-113472357D01*
X168864500Y-113469835D01*
X168864500Y-113350165D01*
X168864500Y-113350164D01*
X168833527Y-113234569D01*
X168833525Y-113234566D01*
X168833525Y-113234564D01*
X168773693Y-113130933D01*
X168773685Y-113130923D01*
X168689076Y-113046314D01*
X168689066Y-113046306D01*
X168585435Y-112986474D01*
X168571780Y-112982815D01*
X168469836Y-112955500D01*
X168350164Y-112955500D01*
X168300736Y-112968744D01*
X168234564Y-112986474D01*
X168144249Y-113038619D01*
X168081249Y-113055500D01*
X166588550Y-113055500D01*
X166520429Y-113035498D01*
X166473936Y-112981842D01*
X166463832Y-112911568D01*
X166493326Y-112846988D01*
X166499441Y-112840418D01*
X166773675Y-112566185D01*
X166802361Y-112516499D01*
X166816043Y-112492801D01*
X166867425Y-112443808D01*
X166937138Y-112430371D01*
X166995166Y-112451037D01*
X167000699Y-112454734D01*
X167074933Y-112469500D01*
X167775066Y-112469499D01*
X167775069Y-112469498D01*
X167775073Y-112469498D01*
X167824326Y-112459701D01*
X167849301Y-112454734D01*
X167933484Y-112398484D01*
X167989734Y-112314301D01*
X168004500Y-112240067D01*
X168004500Y-112240022D01*
X168996001Y-112240022D01*
X169010737Y-112314105D01*
X169010737Y-112314107D01*
X169066875Y-112398124D01*
X169150893Y-112454262D01*
X169150894Y-112454263D01*
X169224980Y-112468999D01*
X169448000Y-112468999D01*
X169702000Y-112468999D01*
X169925014Y-112468999D01*
X169925022Y-112468998D01*
X169999105Y-112454262D01*
X169999107Y-112454262D01*
X170083124Y-112398124D01*
X170139262Y-112314106D01*
X170139263Y-112314105D01*
X170153999Y-112240022D01*
X170154000Y-112240015D01*
X170154000Y-111817000D01*
X169702000Y-111817000D01*
X169702000Y-112468999D01*
X169448000Y-112468999D01*
X169448000Y-111817000D01*
X168996001Y-111817000D01*
X168996001Y-112240022D01*
X168004500Y-112240022D01*
X168004499Y-111667465D01*
X168004499Y-111139977D01*
X168996000Y-111139977D01*
X168996000Y-111563000D01*
X169448000Y-111563000D01*
X169702000Y-111563000D01*
X170153999Y-111563000D01*
X170153999Y-111139986D01*
X170153998Y-111139977D01*
X170139262Y-111065894D01*
X170139262Y-111065892D01*
X170083124Y-110981875D01*
X169999106Y-110925737D01*
X169999105Y-110925736D01*
X169925022Y-110911000D01*
X169702000Y-110911000D01*
X169702000Y-111563000D01*
X169448000Y-111563000D01*
X169448000Y-110911000D01*
X169224986Y-110911000D01*
X169224976Y-110911001D01*
X169150894Y-110925737D01*
X169150892Y-110925737D01*
X169066875Y-110981875D01*
X169010737Y-111065893D01*
X169010736Y-111065894D01*
X168996000Y-111139977D01*
X168004499Y-111139977D01*
X168004499Y-111139936D01*
X168004498Y-111139926D01*
X167989734Y-111065699D01*
X167933484Y-110981516D01*
X167853702Y-110928207D01*
X167849301Y-110925266D01*
X167849300Y-110925265D01*
X167838983Y-110918372D01*
X167840956Y-110915417D01*
X167801993Y-110884012D01*
X167779580Y-110816646D01*
X167779500Y-110812163D01*
X167779500Y-110153503D01*
X167799502Y-110085382D01*
X167853158Y-110038889D01*
X167923432Y-110028785D01*
X167938111Y-110031796D01*
X167944567Y-110033525D01*
X167944569Y-110033527D01*
X168060164Y-110064500D01*
X168060166Y-110064500D01*
X168179834Y-110064500D01*
X168179836Y-110064500D01*
X168295431Y-110033527D01*
X168295434Y-110033525D01*
X168295435Y-110033525D01*
X168347250Y-110003609D01*
X168399070Y-109973691D01*
X168483691Y-109889070D01*
X168543527Y-109785431D01*
X168570519Y-109684691D01*
X168578664Y-109670583D01*
X168581637Y-109656919D01*
X168603126Y-109628212D01*
X168768642Y-109462695D01*
X168774661Y-109457418D01*
X168777665Y-109454413D01*
X168777668Y-109454412D01*
X168920676Y-109311403D01*
X168982986Y-109277380D01*
X169009770Y-109274500D01*
X169425157Y-109274500D01*
X169493278Y-109294502D01*
X169539771Y-109348158D01*
X169549875Y-109418432D01*
X169546864Y-109433111D01*
X169546473Y-109434567D01*
X169546473Y-109434569D01*
X169515500Y-109550164D01*
X169515500Y-109669836D01*
X169537086Y-109750396D01*
X169546474Y-109785435D01*
X169606306Y-109889066D01*
X169606314Y-109889076D01*
X169690923Y-109973685D01*
X169690928Y-109973689D01*
X169690930Y-109973691D01*
X169690931Y-109973692D01*
X169690933Y-109973693D01*
X169794564Y-110033525D01*
X169794566Y-110033525D01*
X169794569Y-110033527D01*
X169910164Y-110064500D01*
X169910166Y-110064500D01*
X170029834Y-110064500D01*
X170029836Y-110064500D01*
X170145431Y-110033527D01*
X170145434Y-110033525D01*
X170145435Y-110033525D01*
X170235751Y-109981381D01*
X170298751Y-109964500D01*
X170376671Y-109964500D01*
X170466832Y-109940341D01*
X170547668Y-109893671D01*
X171007292Y-109434044D01*
X171007302Y-109434037D01*
X171083665Y-109357674D01*
X171083671Y-109357668D01*
X171130341Y-109276832D01*
X171154500Y-109186671D01*
X171154500Y-108540409D01*
X171158793Y-108507799D01*
X171165500Y-108482771D01*
X171165500Y-106910735D01*
X171165501Y-106910722D01*
X171165501Y-106807229D01*
X171165500Y-106807225D01*
X171141343Y-106717072D01*
X171141342Y-106717071D01*
X171141342Y-106717069D01*
X171094671Y-106636232D01*
X171086696Y-106628257D01*
X171052670Y-106565949D01*
X171057733Y-106495133D01*
X171086693Y-106450067D01*
X171143691Y-106393070D01*
X171203527Y-106289431D01*
X171234500Y-106173836D01*
X171234500Y-106054164D01*
X171203527Y-105938569D01*
X171203525Y-105938566D01*
X171203525Y-105938564D01*
X171151381Y-105848248D01*
X171134500Y-105785248D01*
X171134500Y-105573329D01*
X171134499Y-105573325D01*
X171124010Y-105534181D01*
X171110341Y-105483168D01*
X171102470Y-105469534D01*
X171063673Y-105402335D01*
X171063669Y-105402330D01*
X171033575Y-105372236D01*
X170997668Y-105336329D01*
X170962950Y-105301611D01*
X170928924Y-105239299D01*
X170926885Y-105197997D01*
X170929500Y-105175460D01*
X170929500Y-104735500D01*
X170949502Y-104667379D01*
X171003158Y-104620886D01*
X171055500Y-104609500D01*
X171323471Y-104609500D01*
X171391592Y-104629502D01*
G37*
%TD.AperFunction*%
%TA.AperFunction,Conductor*%
G36*
X178645518Y-109334502D02*
G01*
X178692011Y-109388158D01*
X178693802Y-109392271D01*
X178714190Y-109441493D01*
X178734828Y-109472379D01*
X178825434Y-109607982D01*
X178825439Y-109607988D01*
X178967011Y-109749560D01*
X178967017Y-109749565D01*
X178967019Y-109749567D01*
X179133507Y-109860810D01*
X179318498Y-109937436D01*
X179514884Y-109976500D01*
X179715116Y-109976500D01*
X179911502Y-109937436D01*
X180096493Y-109860810D01*
X180262981Y-109749567D01*
X180262988Y-109749560D01*
X180269405Y-109743144D01*
X180331717Y-109709118D01*
X180402532Y-109714183D01*
X180459368Y-109756730D01*
X180484179Y-109823250D01*
X180484500Y-109832239D01*
X180484500Y-110489463D01*
X180464498Y-110557584D01*
X180410842Y-110604077D01*
X180340568Y-110614181D01*
X180299109Y-110600588D01*
X180296494Y-110599190D01*
X180111505Y-110522565D01*
X180111502Y-110522564D01*
X179915119Y-110483500D01*
X179915116Y-110483500D01*
X179714884Y-110483500D01*
X179714880Y-110483500D01*
X179518497Y-110522564D01*
X179518494Y-110522565D01*
X179333507Y-110599190D01*
X179167017Y-110710434D01*
X179167011Y-110710439D01*
X179025439Y-110852011D01*
X179025434Y-110852017D01*
X179025433Y-110852019D01*
X178933569Y-110989503D01*
X178879095Y-111035029D01*
X178828806Y-111045500D01*
X176950450Y-111045500D01*
X176882329Y-111025498D01*
X176861355Y-111008595D01*
X176411405Y-110558645D01*
X176377379Y-110496333D01*
X176374500Y-110469550D01*
X176374500Y-109540500D01*
X176394502Y-109472379D01*
X176448158Y-109425886D01*
X176500500Y-109414500D01*
X176579834Y-109414500D01*
X176579836Y-109414500D01*
X176695431Y-109383527D01*
X176695434Y-109383525D01*
X176695435Y-109383525D01*
X176785751Y-109331381D01*
X176848751Y-109314500D01*
X178577397Y-109314500D01*
X178645518Y-109334502D01*
G37*
%TD.AperFunction*%
%TA.AperFunction,Conductor*%
G36*
X165943532Y-107211973D02*
G01*
X166000368Y-107254520D01*
X166025179Y-107321040D01*
X166025500Y-107330029D01*
X166025500Y-109595291D01*
X166005498Y-109663412D01*
X165951842Y-109709905D01*
X165881568Y-109720009D01*
X165836500Y-109704410D01*
X165805435Y-109686474D01*
X165791780Y-109682815D01*
X165689836Y-109655500D01*
X165570164Y-109655500D01*
X165499415Y-109674456D01*
X165454564Y-109686474D01*
X165364249Y-109738619D01*
X165348509Y-109742836D01*
X165336747Y-109750396D01*
X165301249Y-109755500D01*
X165049029Y-109755500D01*
X164980908Y-109735498D01*
X164959933Y-109718595D01*
X164508385Y-109267046D01*
X164508379Y-109267041D01*
X164427548Y-109220374D01*
X164362336Y-109202900D01*
X164301713Y-109165948D01*
X164283547Y-109140065D01*
X164281371Y-109135949D01*
X164281369Y-109135942D01*
X164241154Y-109081453D01*
X164200010Y-109025704D01*
X164089774Y-108944346D01*
X164089767Y-108944343D01*
X163960453Y-108899094D01*
X163960455Y-108899094D01*
X163935889Y-108896790D01*
X163929749Y-108896215D01*
X163929748Y-108896215D01*
X163270259Y-108896215D01*
X163270244Y-108896216D01*
X163239547Y-108899094D01*
X163239544Y-108899095D01*
X163110232Y-108944343D01*
X163110225Y-108944346D01*
X162999991Y-109025703D01*
X162951379Y-109091570D01*
X162894834Y-109134502D01*
X162824054Y-109140048D01*
X162761512Y-109106447D01*
X162748621Y-109091570D01*
X162725409Y-109060119D01*
X162700010Y-109025705D01*
X162700008Y-109025704D01*
X162700008Y-109025703D01*
X162589774Y-108944346D01*
X162589767Y-108944343D01*
X162460453Y-108899094D01*
X162460455Y-108899094D01*
X162435889Y-108896790D01*
X162429749Y-108896215D01*
X162429748Y-108896215D01*
X161770259Y-108896215D01*
X161770244Y-108896216D01*
X161739547Y-108899094D01*
X161739544Y-108899095D01*
X161610232Y-108944343D01*
X161610225Y-108944346D01*
X161499991Y-109025703D01*
X161451379Y-109091570D01*
X161394834Y-109134502D01*
X161324054Y-109140048D01*
X161261512Y-109106447D01*
X161248621Y-109091570D01*
X161225409Y-109060119D01*
X161200010Y-109025705D01*
X161200008Y-109025704D01*
X161200008Y-109025703D01*
X161089774Y-108944346D01*
X161089767Y-108944343D01*
X160960453Y-108899094D01*
X160960455Y-108899094D01*
X160929751Y-108896215D01*
X160929749Y-108896215D01*
X160669315Y-108896215D01*
X160647727Y-108889876D01*
X160625283Y-108888271D01*
X160614326Y-108880069D01*
X160601194Y-108876213D01*
X160586458Y-108859207D01*
X160568447Y-108845724D01*
X160563664Y-108832901D01*
X160554701Y-108822557D01*
X160551498Y-108800284D01*
X160543636Y-108779204D01*
X160546544Y-108765831D01*
X160544597Y-108752283D01*
X160553944Y-108731816D01*
X160558727Y-108709830D01*
X160572212Y-108691816D01*
X160574091Y-108687703D01*
X160580220Y-108681120D01*
X160749935Y-108511405D01*
X160812247Y-108477379D01*
X160839030Y-108474500D01*
X164476671Y-108474500D01*
X164566832Y-108450341D01*
X164647668Y-108403671D01*
X165810405Y-107240934D01*
X165872717Y-107206909D01*
X165943532Y-107211973D01*
G37*
%TD.AperFunction*%
%TA.AperFunction,Conductor*%
G36*
X178796887Y-101700223D02*
G01*
X178817187Y-101700948D01*
X178830253Y-101710019D01*
X178845518Y-101714502D01*
X178858821Y-101729854D01*
X178875506Y-101741439D01*
X178889944Y-101765773D01*
X178892011Y-101768158D01*
X178893802Y-101772271D01*
X178914190Y-101821493D01*
X179020463Y-101980542D01*
X179025434Y-101987982D01*
X179025439Y-101987988D01*
X179167011Y-102129560D01*
X179167017Y-102129565D01*
X179167019Y-102129567D01*
X179333507Y-102240810D01*
X179518498Y-102317436D01*
X179714884Y-102356500D01*
X179915116Y-102356500D01*
X180111502Y-102317436D01*
X180296493Y-102240810D01*
X180296496Y-102240807D01*
X180299099Y-102239417D01*
X180300620Y-102239100D01*
X180302212Y-102238441D01*
X180302336Y-102238742D01*
X180368604Y-102224942D01*
X180434901Y-102250342D01*
X180476942Y-102307553D01*
X180484500Y-102350536D01*
X180484500Y-103007761D01*
X180464498Y-103075882D01*
X180410842Y-103122375D01*
X180340568Y-103132479D01*
X180275988Y-103102985D01*
X180269405Y-103096856D01*
X180262988Y-103090439D01*
X180262982Y-103090434D01*
X180262981Y-103090433D01*
X180096493Y-102979190D01*
X179979839Y-102930870D01*
X179911505Y-102902565D01*
X179911502Y-102902564D01*
X179715119Y-102863500D01*
X179715116Y-102863500D01*
X179514884Y-102863500D01*
X179514880Y-102863500D01*
X179318497Y-102902564D01*
X179318494Y-102902565D01*
X179133507Y-102979190D01*
X178967017Y-103090434D01*
X178967011Y-103090439D01*
X178825439Y-103232011D01*
X178825434Y-103232017D01*
X178714190Y-103398507D01*
X178637565Y-103583494D01*
X178637564Y-103583497D01*
X178598500Y-103779880D01*
X178598500Y-103980119D01*
X178637564Y-104176502D01*
X178637565Y-104176505D01*
X178660137Y-104230998D01*
X178714190Y-104361493D01*
X178817896Y-104516701D01*
X178825434Y-104527982D01*
X178825439Y-104527988D01*
X178967011Y-104669560D01*
X178967015Y-104669563D01*
X178967019Y-104669567D01*
X179086384Y-104749323D01*
X179131910Y-104803798D01*
X179140759Y-104874241D01*
X179110118Y-104938285D01*
X179105477Y-104943182D01*
X178302332Y-105746329D01*
X178302331Y-105746329D01*
X178236334Y-105812325D01*
X178236326Y-105812335D01*
X178189659Y-105893166D01*
X178165500Y-105983325D01*
X178165500Y-106650971D01*
X178145498Y-106719092D01*
X178128595Y-106740066D01*
X177500072Y-107368589D01*
X177437760Y-107402615D01*
X177410977Y-107405494D01*
X176848751Y-107405494D01*
X176833012Y-107401276D01*
X176819045Y-107401942D01*
X176785751Y-107388613D01*
X176691360Y-107334116D01*
X176642367Y-107282733D01*
X176628931Y-107213020D01*
X176655318Y-107147109D01*
X176691360Y-107115878D01*
X176762710Y-107074682D01*
X176799070Y-107053691D01*
X176883691Y-106969070D01*
X176943527Y-106865431D01*
X176974500Y-106749836D01*
X176974500Y-106630164D01*
X176943527Y-106514569D01*
X176943525Y-106514566D01*
X176943525Y-106514564D01*
X176891381Y-106424248D01*
X176874500Y-106361248D01*
X176874500Y-103079029D01*
X176894502Y-103010908D01*
X176911405Y-102989934D01*
X178169934Y-101731405D01*
X178232246Y-101697379D01*
X178259029Y-101694500D01*
X178777397Y-101694500D01*
X178796887Y-101700223D01*
G37*
%TD.AperFunction*%
%TA.AperFunction,Conductor*%
G36*
X162214032Y-103125516D02*
G01*
X162270868Y-103168063D01*
X162286615Y-103210283D01*
X162295999Y-103219667D01*
X162874000Y-103219667D01*
X162882825Y-103222258D01*
X162891932Y-103220949D01*
X162916357Y-103232104D01*
X162942121Y-103239669D01*
X162948145Y-103246622D01*
X162956512Y-103250443D01*
X162971026Y-103273028D01*
X162988614Y-103293325D01*
X162990938Y-103304011D01*
X162994896Y-103310169D01*
X163000000Y-103345667D01*
X163000000Y-103346667D01*
X163001000Y-103346667D01*
X163069121Y-103366669D01*
X163115614Y-103420325D01*
X163127000Y-103472667D01*
X163127000Y-104097048D01*
X163127151Y-104097916D01*
X163134596Y-104111550D01*
X163133120Y-104132184D01*
X163136669Y-104152559D01*
X163130639Y-104166871D01*
X163129531Y-104182365D01*
X163113795Y-104206849D01*
X163109104Y-104217986D01*
X163103075Y-104223531D01*
X163100571Y-104227428D01*
X163077000Y-104250999D01*
X163077000Y-104853000D01*
X163604000Y-104853000D01*
X163604000Y-104650317D01*
X163603999Y-104650311D01*
X163601123Y-104619639D01*
X163555923Y-104490465D01*
X163474652Y-104380347D01*
X163364536Y-104299078D01*
X163357157Y-104296496D01*
X163299465Y-104255118D01*
X163273302Y-104189118D01*
X163286974Y-104119450D01*
X163336141Y-104068234D01*
X163354739Y-104059510D01*
X163456919Y-104021398D01*
X163567186Y-103938853D01*
X163649732Y-103828585D01*
X163656677Y-103809966D01*
X163699222Y-103753130D01*
X163765742Y-103728318D01*
X163835117Y-103743409D01*
X163885320Y-103793610D01*
X163892788Y-103809963D01*
X163899825Y-103828830D01*
X163899827Y-103828834D01*
X163946967Y-103891804D01*
X163982456Y-103939211D01*
X164035554Y-103978960D01*
X164092832Y-104021839D01*
X164092833Y-104021840D01*
X164092835Y-104021840D01*
X164092837Y-104021842D01*
X164193791Y-104059495D01*
X164250625Y-104102041D01*
X164275436Y-104168561D01*
X164260345Y-104237935D01*
X164210143Y-104288137D01*
X164191379Y-104296477D01*
X164185232Y-104298627D01*
X164185225Y-104298631D01*
X164074989Y-104379989D01*
X163993631Y-104490225D01*
X163993628Y-104490232D01*
X163948379Y-104619545D01*
X163945500Y-104650248D01*
X163945500Y-105309740D01*
X163945501Y-105309755D01*
X163948379Y-105340452D01*
X163948380Y-105340455D01*
X163993628Y-105469767D01*
X163993631Y-105469774D01*
X164074989Y-105580010D01*
X164185225Y-105661368D01*
X164185232Y-105661371D01*
X164314546Y-105706620D01*
X164314549Y-105706621D01*
X164345251Y-105709500D01*
X164854748Y-105709499D01*
X164885451Y-105706621D01*
X164885452Y-105706620D01*
X164893084Y-105705905D01*
X164893411Y-105709394D01*
X164948439Y-105713084D01*
X165005465Y-105755376D01*
X165030573Y-105821785D01*
X165015791Y-105891226D01*
X164994030Y-105920430D01*
X163987866Y-106926595D01*
X163925554Y-106960620D01*
X163898771Y-106963500D01*
X160590500Y-106963500D01*
X160522379Y-106943498D01*
X160475886Y-106889842D01*
X160464500Y-106837500D01*
X160464500Y-105625727D01*
X160484502Y-105557606D01*
X160538158Y-105511113D01*
X160608432Y-105501009D01*
X160673012Y-105530503D01*
X160691368Y-105550218D01*
X160707812Y-105572185D01*
X160818079Y-105654731D01*
X160947139Y-105702868D01*
X161004167Y-105708999D01*
X161004184Y-105709000D01*
X161173000Y-105709000D01*
X161427000Y-105709000D01*
X161595816Y-105709000D01*
X161595832Y-105708999D01*
X161652860Y-105702868D01*
X161781920Y-105654731D01*
X161892186Y-105572186D01*
X161974731Y-105461920D01*
X162022868Y-105332860D01*
X162025359Y-105309688D01*
X162296000Y-105309688D01*
X162298876Y-105340360D01*
X162344076Y-105469534D01*
X162425347Y-105579652D01*
X162535465Y-105660923D01*
X162664640Y-105706123D01*
X162664638Y-105706123D01*
X162695311Y-105708999D01*
X162695317Y-105709000D01*
X162823000Y-105709000D01*
X163077000Y-105709000D01*
X163204683Y-105709000D01*
X163204688Y-105708999D01*
X163235360Y-105706123D01*
X163364534Y-105660923D01*
X163474652Y-105579652D01*
X163555923Y-105469534D01*
X163601123Y-105340360D01*
X163603999Y-105309688D01*
X163604000Y-105309682D01*
X163604000Y-105107000D01*
X163077000Y-105107000D01*
X163077000Y-105709000D01*
X162823000Y-105709000D01*
X162823000Y-105107000D01*
X162296000Y-105107000D01*
X162296000Y-105309688D01*
X162025359Y-105309688D01*
X162028999Y-105275832D01*
X162029000Y-105275815D01*
X162029000Y-105132000D01*
X161427000Y-105132000D01*
X161427000Y-105709000D01*
X161173000Y-105709000D01*
X161173000Y-105131000D01*
X161175591Y-105122174D01*
X161174282Y-105113068D01*
X161185437Y-105088642D01*
X161193002Y-105062879D01*
X161199955Y-105056854D01*
X161203776Y-105048488D01*
X161226361Y-105033973D01*
X161246658Y-105016386D01*
X161257344Y-105014061D01*
X161263502Y-105010104D01*
X161299000Y-105005000D01*
X161300000Y-105005000D01*
X161300000Y-105004000D01*
X161320002Y-104935879D01*
X161373658Y-104889386D01*
X161426000Y-104878000D01*
X162029000Y-104878000D01*
X162029000Y-104734184D01*
X162028999Y-104734167D01*
X162022868Y-104677139D01*
X161974731Y-104548079D01*
X161892186Y-104437813D01*
X161781919Y-104355267D01*
X161763295Y-104348321D01*
X161706461Y-104305773D01*
X161681651Y-104239253D01*
X161696743Y-104169879D01*
X161746947Y-104119677D01*
X161763282Y-104112217D01*
X161782163Y-104105175D01*
X161892544Y-104022544D01*
X161975175Y-103912163D01*
X162023360Y-103782973D01*
X162029500Y-103725864D01*
X162029500Y-103642499D01*
X162296000Y-103642499D01*
X162302131Y-103699527D01*
X162350268Y-103828587D01*
X162432813Y-103938853D01*
X162543079Y-104021398D01*
X162596856Y-104041456D01*
X162653691Y-104084003D01*
X162678502Y-104150524D01*
X162663410Y-104219898D01*
X162613208Y-104270100D01*
X162594439Y-104278441D01*
X162535464Y-104299077D01*
X162425347Y-104380347D01*
X162344076Y-104490465D01*
X162298876Y-104619639D01*
X162296000Y-104650311D01*
X162296000Y-104853000D01*
X162823000Y-104853000D01*
X162823000Y-104229623D01*
X162822847Y-104228749D01*
X162815403Y-104215116D01*
X162816878Y-104194481D01*
X162813330Y-104174107D01*
X162819359Y-104159794D01*
X162820468Y-104144301D01*
X162832864Y-104127741D01*
X162840895Y-104108680D01*
X162849429Y-104099237D01*
X162873000Y-104075666D01*
X162873000Y-103473667D01*
X162296000Y-103473667D01*
X162296000Y-103642499D01*
X162029500Y-103642499D01*
X162029500Y-103258072D01*
X162038283Y-103228156D01*
X162044912Y-103197687D01*
X162048726Y-103192591D01*
X162049502Y-103189951D01*
X162066405Y-103168977D01*
X162080905Y-103154477D01*
X162143217Y-103120451D01*
X162214032Y-103125516D01*
G37*
%TD.AperFunction*%
%TA.AperFunction,Conductor*%
G36*
X156270871Y-92079401D02*
G01*
X156273505Y-92080809D01*
X156273506Y-92080809D01*
X156273507Y-92080810D01*
X156458498Y-92157436D01*
X156654884Y-92196500D01*
X156855116Y-92196500D01*
X157051502Y-92157436D01*
X157100715Y-92137050D01*
X157120911Y-92134879D01*
X157139943Y-92127781D01*
X157155487Y-92131162D01*
X157171303Y-92129462D01*
X157189466Y-92138553D01*
X157209317Y-92142872D01*
X157231965Y-92159827D01*
X157234790Y-92161241D01*
X157238027Y-92164365D01*
X157376918Y-92303256D01*
X157376939Y-92303279D01*
X157447325Y-92373665D01*
X157447330Y-92373669D01*
X157447332Y-92373671D01*
X157447333Y-92373672D01*
X157447335Y-92373673D01*
X157483409Y-92394500D01*
X157528168Y-92420341D01*
X157618329Y-92444500D01*
X158110971Y-92444500D01*
X158179092Y-92464502D01*
X158200066Y-92481405D01*
X158626329Y-92907668D01*
X158692332Y-92973671D01*
X158692333Y-92973672D01*
X158692335Y-92973673D01*
X158772146Y-93019751D01*
X158773168Y-93020341D01*
X158863329Y-93044500D01*
X158886115Y-93044500D01*
X158954236Y-93064502D01*
X159000729Y-93118158D01*
X159004170Y-93126466D01*
X159022417Y-93175387D01*
X159022419Y-93175390D01*
X159103969Y-93284330D01*
X159184571Y-93344667D01*
X159212913Y-93365883D01*
X159245046Y-93377868D01*
X159340415Y-93413440D01*
X159340423Y-93413442D01*
X159396766Y-93419499D01*
X159396771Y-93419499D01*
X159396778Y-93419500D01*
X159396784Y-93419500D01*
X159924816Y-93419500D01*
X159924822Y-93419500D01*
X159924829Y-93419499D01*
X159924833Y-93419499D01*
X159981176Y-93413442D01*
X159981179Y-93413441D01*
X159981181Y-93413441D01*
X160108687Y-93365883D01*
X160217630Y-93284330D01*
X160299183Y-93175387D01*
X160330245Y-93092108D01*
X160372791Y-93035272D01*
X160439312Y-93010462D01*
X160508686Y-93025554D01*
X160558888Y-93075756D01*
X160566355Y-93092108D01*
X160597416Y-93175386D01*
X160597419Y-93175390D01*
X160678969Y-93284330D01*
X160759571Y-93344667D01*
X160787913Y-93365883D01*
X160820046Y-93377868D01*
X160915415Y-93413440D01*
X160915423Y-93413442D01*
X160971766Y-93419499D01*
X160971771Y-93419499D01*
X160971778Y-93419500D01*
X160971784Y-93419500D01*
X161499816Y-93419500D01*
X161499822Y-93419500D01*
X161499829Y-93419499D01*
X161499833Y-93419499D01*
X161556176Y-93413442D01*
X161556179Y-93413441D01*
X161556181Y-93413441D01*
X161683687Y-93365883D01*
X161792630Y-93284330D01*
X161874183Y-93175387D01*
X161890276Y-93132240D01*
X161892430Y-93126466D01*
X161905914Y-93108453D01*
X161915261Y-93087988D01*
X161926773Y-93080589D01*
X161934977Y-93069631D01*
X161956060Y-93061767D01*
X161974987Y-93049604D01*
X161997260Y-93046401D01*
X162001498Y-93044821D01*
X162010485Y-93044500D01*
X162217695Y-93044500D01*
X162285816Y-93064502D01*
X162332309Y-93118158D01*
X162336624Y-93128885D01*
X162354428Y-93179767D01*
X162354431Y-93179774D01*
X162435789Y-93290010D01*
X162546025Y-93371368D01*
X162546032Y-93371371D01*
X162675346Y-93416620D01*
X162675349Y-93416621D01*
X162706051Y-93419500D01*
X162975971Y-93419499D01*
X163044090Y-93439501D01*
X163090583Y-93493156D01*
X163100688Y-93563430D01*
X163071195Y-93628011D01*
X163065066Y-93634594D01*
X162422792Y-94276869D01*
X162415747Y-94281576D01*
X162412757Y-94285883D01*
X162398340Y-94293206D01*
X162381914Y-94304183D01*
X162374283Y-94307343D01*
X162265569Y-94336473D01*
X162168096Y-94392748D01*
X162160467Y-94395909D01*
X162139717Y-94398139D01*
X162112249Y-94405500D01*
X160997704Y-94405500D01*
X160907545Y-94429659D01*
X160826714Y-94476326D01*
X160826704Y-94476334D01*
X159102876Y-96200164D01*
X158540332Y-96762708D01*
X158507331Y-96795709D01*
X158474330Y-96828709D01*
X158474326Y-96828714D01*
X158427659Y-96909545D01*
X158403500Y-96999704D01*
X158403500Y-104212970D01*
X158383498Y-104281091D01*
X158366595Y-104302065D01*
X157234490Y-105434169D01*
X157172178Y-105468195D01*
X157101362Y-105463130D01*
X157097177Y-105461483D01*
X157051507Y-105442566D01*
X157051502Y-105442564D01*
X156855119Y-105403500D01*
X156855116Y-105403500D01*
X156654884Y-105403500D01*
X156654880Y-105403500D01*
X156458497Y-105442564D01*
X156458494Y-105442565D01*
X156273500Y-105519192D01*
X156270860Y-105520604D01*
X156269319Y-105520924D01*
X156267788Y-105521559D01*
X156267667Y-105521268D01*
X156201353Y-105535072D01*
X156135059Y-105509665D01*
X156093024Y-105452450D01*
X156085470Y-105409479D01*
X156085470Y-104752209D01*
X156105472Y-104684088D01*
X156159128Y-104637595D01*
X156229402Y-104627491D01*
X156293982Y-104656985D01*
X156300565Y-104663114D01*
X156307011Y-104669560D01*
X156307015Y-104669563D01*
X156307019Y-104669567D01*
X156473507Y-104780810D01*
X156658498Y-104857436D01*
X156854884Y-104896500D01*
X157055116Y-104896500D01*
X157251502Y-104857436D01*
X157436493Y-104780810D01*
X157602981Y-104669567D01*
X157744567Y-104527981D01*
X157855810Y-104361493D01*
X157932436Y-104176502D01*
X157971500Y-103980116D01*
X157971500Y-103779884D01*
X157932436Y-103583498D01*
X157855810Y-103398507D01*
X157744567Y-103232019D01*
X157744565Y-103232017D01*
X157744560Y-103232011D01*
X157602988Y-103090439D01*
X157602982Y-103090434D01*
X157602981Y-103090433D01*
X157436493Y-102979190D01*
X157319839Y-102930870D01*
X157251505Y-102902565D01*
X157251502Y-102902564D01*
X157055119Y-102863500D01*
X157055116Y-102863500D01*
X156854884Y-102863500D01*
X156854880Y-102863500D01*
X156658497Y-102902564D01*
X156658494Y-102902565D01*
X156473507Y-102979190D01*
X156307017Y-103090434D01*
X156307011Y-103090439D01*
X156300565Y-103096886D01*
X156238253Y-103130912D01*
X156167438Y-103125847D01*
X156110602Y-103083300D01*
X156085791Y-103016780D01*
X156085470Y-103007791D01*
X156085470Y-102350520D01*
X156105472Y-102282399D01*
X156159128Y-102235906D01*
X156229402Y-102225802D01*
X156270871Y-102239401D01*
X156273505Y-102240809D01*
X156273506Y-102240809D01*
X156273507Y-102240810D01*
X156458498Y-102317436D01*
X156654884Y-102356500D01*
X156855116Y-102356500D01*
X157051502Y-102317436D01*
X157236493Y-102240810D01*
X157402981Y-102129567D01*
X157544567Y-101987981D01*
X157655810Y-101821493D01*
X157732436Y-101636502D01*
X157771500Y-101440116D01*
X157771500Y-101239884D01*
X157732436Y-101043498D01*
X157655810Y-100858507D01*
X157544567Y-100692019D01*
X157544565Y-100692017D01*
X157544560Y-100692011D01*
X157402988Y-100550439D01*
X157402982Y-100550434D01*
X157391026Y-100542445D01*
X157236493Y-100439190D01*
X157080485Y-100374569D01*
X157051505Y-100362565D01*
X157051502Y-100362564D01*
X156855119Y-100323500D01*
X156855116Y-100323500D01*
X156654884Y-100323500D01*
X156654880Y-100323500D01*
X156458497Y-100362564D01*
X156458494Y-100362565D01*
X156273500Y-100439192D01*
X156270860Y-100440604D01*
X156269319Y-100440924D01*
X156267788Y-100441559D01*
X156267667Y-100441268D01*
X156201353Y-100455072D01*
X156135059Y-100429665D01*
X156093024Y-100372450D01*
X156085470Y-100329479D01*
X156085470Y-99672209D01*
X156105472Y-99604088D01*
X156159128Y-99557595D01*
X156229402Y-99547491D01*
X156293982Y-99576985D01*
X156300565Y-99583114D01*
X156307011Y-99589560D01*
X156307017Y-99589565D01*
X156307019Y-99589567D01*
X156473507Y-99700810D01*
X156658498Y-99777436D01*
X156854884Y-99816500D01*
X157055116Y-99816500D01*
X157251502Y-99777436D01*
X157436493Y-99700810D01*
X157602981Y-99589567D01*
X157744567Y-99447981D01*
X157855810Y-99281493D01*
X157932436Y-99096502D01*
X157971500Y-98900116D01*
X157971500Y-98699884D01*
X157932436Y-98503498D01*
X157855810Y-98318507D01*
X157744567Y-98152019D01*
X157744565Y-98152017D01*
X157744560Y-98152011D01*
X157602988Y-98010439D01*
X157602982Y-98010434D01*
X157602981Y-98010433D01*
X157436493Y-97899190D01*
X157319839Y-97850870D01*
X157251505Y-97822565D01*
X157251502Y-97822564D01*
X157055119Y-97783500D01*
X157055116Y-97783500D01*
X156854884Y-97783500D01*
X156854880Y-97783500D01*
X156658497Y-97822564D01*
X156658494Y-97822565D01*
X156473507Y-97899190D01*
X156307017Y-98010434D01*
X156307011Y-98010439D01*
X156300565Y-98016886D01*
X156238253Y-98050912D01*
X156167438Y-98045847D01*
X156110602Y-98003300D01*
X156085791Y-97936780D01*
X156085470Y-97927791D01*
X156085470Y-97270520D01*
X156105472Y-97202399D01*
X156159128Y-97155906D01*
X156229402Y-97145802D01*
X156270871Y-97159401D01*
X156273505Y-97160809D01*
X156273506Y-97160809D01*
X156273507Y-97160810D01*
X156458498Y-97237436D01*
X156654884Y-97276500D01*
X156855116Y-97276500D01*
X157051502Y-97237436D01*
X157236493Y-97160810D01*
X157402981Y-97049567D01*
X157544567Y-96907981D01*
X157655810Y-96741493D01*
X157732436Y-96556502D01*
X157771500Y-96360116D01*
X157771500Y-96159884D01*
X157732436Y-95963498D01*
X157655810Y-95778507D01*
X157544567Y-95612019D01*
X157544565Y-95612017D01*
X157544560Y-95612011D01*
X157402988Y-95470439D01*
X157402982Y-95470434D01*
X157401782Y-95469632D01*
X157236493Y-95359190D01*
X157075369Y-95292450D01*
X157051505Y-95282565D01*
X157051502Y-95282564D01*
X156855119Y-95243500D01*
X156855116Y-95243500D01*
X156654884Y-95243500D01*
X156654880Y-95243500D01*
X156458497Y-95282564D01*
X156458494Y-95282565D01*
X156273500Y-95359192D01*
X156270860Y-95360604D01*
X156269319Y-95360924D01*
X156267788Y-95361559D01*
X156267667Y-95361268D01*
X156201353Y-95375072D01*
X156135059Y-95349665D01*
X156093024Y-95292450D01*
X156085470Y-95249479D01*
X156085470Y-94592209D01*
X156105472Y-94524088D01*
X156159128Y-94477595D01*
X156229402Y-94467491D01*
X156293982Y-94496985D01*
X156300565Y-94503114D01*
X156307011Y-94509560D01*
X156307017Y-94509565D01*
X156307019Y-94509567D01*
X156473507Y-94620810D01*
X156658498Y-94697436D01*
X156854884Y-94736500D01*
X157055116Y-94736500D01*
X157251502Y-94697436D01*
X157436493Y-94620810D01*
X157602981Y-94509567D01*
X157744567Y-94367981D01*
X157855810Y-94201493D01*
X157932436Y-94016502D01*
X157971500Y-93820116D01*
X157971500Y-93619884D01*
X157932436Y-93423498D01*
X157855810Y-93238507D01*
X157744567Y-93072019D01*
X157744565Y-93072017D01*
X157744560Y-93072011D01*
X157602988Y-92930439D01*
X157602982Y-92930434D01*
X157602981Y-92930433D01*
X157436493Y-92819190D01*
X157319839Y-92770870D01*
X157251505Y-92742565D01*
X157251502Y-92742564D01*
X157055119Y-92703500D01*
X157055116Y-92703500D01*
X156854884Y-92703500D01*
X156854880Y-92703500D01*
X156658497Y-92742564D01*
X156658494Y-92742565D01*
X156473507Y-92819190D01*
X156307017Y-92930434D01*
X156307011Y-92930439D01*
X156300565Y-92936886D01*
X156238253Y-92970912D01*
X156167438Y-92965847D01*
X156110602Y-92923300D01*
X156085791Y-92856780D01*
X156085470Y-92847791D01*
X156085470Y-92190520D01*
X156105472Y-92122399D01*
X156159128Y-92075906D01*
X156229402Y-92065802D01*
X156270871Y-92079401D01*
G37*
%TD.AperFunction*%
%TA.AperFunction,Conductor*%
G36*
X173730884Y-103430165D02*
G01*
X173773197Y-103478996D01*
X173792697Y-103518884D01*
X173805500Y-103574223D01*
X173805500Y-104239761D01*
X173785498Y-104307882D01*
X173755010Y-104340628D01*
X173692456Y-104387456D01*
X173609827Y-104497832D01*
X173609826Y-104497834D01*
X173602788Y-104516704D01*
X173560240Y-104573539D01*
X173493719Y-104598348D01*
X173424345Y-104583255D01*
X173374144Y-104533052D01*
X173366677Y-104516701D01*
X173359731Y-104498080D01*
X173277186Y-104387813D01*
X173166920Y-104305268D01*
X173037860Y-104257131D01*
X172980832Y-104251000D01*
X172856451Y-104251000D01*
X172788330Y-104230998D01*
X172741837Y-104177342D01*
X172730451Y-104125000D01*
X172730451Y-104056116D01*
X172726073Y-104039776D01*
X172699478Y-103940520D01*
X172680486Y-103907626D01*
X172663749Y-103838632D01*
X172686969Y-103771540D01*
X172742776Y-103727652D01*
X172813451Y-103720903D01*
X172824320Y-103723621D01*
X172825217Y-103723751D01*
X172825218Y-103723752D01*
X172898987Y-103734500D01*
X173221012Y-103734499D01*
X173294782Y-103723752D01*
X173408568Y-103668126D01*
X173498126Y-103578568D01*
X173546803Y-103478995D01*
X173594690Y-103426582D01*
X173663313Y-103408379D01*
X173730884Y-103430165D01*
G37*
%TD.AperFunction*%
%TA.AperFunction,Conductor*%
G36*
X173193833Y-102000332D02*
G01*
X173238896Y-102029293D01*
X173527318Y-102317715D01*
X173546525Y-102278428D01*
X173594413Y-102226014D01*
X173663036Y-102207811D01*
X173730607Y-102229597D01*
X173772919Y-102278429D01*
X173821873Y-102378567D01*
X173821875Y-102378570D01*
X173911432Y-102468127D01*
X174011002Y-102516803D01*
X174063417Y-102564690D01*
X174081620Y-102633314D01*
X174059834Y-102700885D01*
X174011002Y-102743197D01*
X173911432Y-102791872D01*
X173821872Y-102881432D01*
X173773197Y-102981002D01*
X173725310Y-103033417D01*
X173656686Y-103051620D01*
X173589115Y-103029834D01*
X173546803Y-102981002D01*
X173498127Y-102881432D01*
X173408570Y-102791875D01*
X173408567Y-102791873D01*
X173308429Y-102742919D01*
X173256014Y-102695032D01*
X173237811Y-102626408D01*
X173259597Y-102558837D01*
X173308428Y-102516525D01*
X173347715Y-102497318D01*
X173059293Y-102208896D01*
X173054884Y-102200823D01*
X173047520Y-102195310D01*
X173038136Y-102170151D01*
X173025267Y-102146584D01*
X173025923Y-102137407D01*
X173022709Y-102128790D01*
X173028416Y-102102553D01*
X173030332Y-102075769D01*
X173036243Y-102066570D01*
X173037800Y-102059416D01*
X173059293Y-102030706D01*
X173060706Y-102029293D01*
X173123018Y-101995267D01*
X173193833Y-102000332D01*
G37*
%TD.AperFunction*%
%TA.AperFunction,Conductor*%
G36*
X169220092Y-95865502D02*
G01*
X169241066Y-95882405D01*
X169768595Y-96409934D01*
X169802621Y-96472246D01*
X169805500Y-96499029D01*
X169805500Y-97360971D01*
X169785498Y-97429092D01*
X169768595Y-97450066D01*
X169620595Y-97598066D01*
X169558283Y-97632092D01*
X169487468Y-97627027D01*
X169430632Y-97584480D01*
X169405821Y-97517960D01*
X169405500Y-97508971D01*
X169405500Y-97189751D01*
X169422381Y-97126751D01*
X169474525Y-97036435D01*
X169474525Y-97036434D01*
X169474527Y-97036431D01*
X169505500Y-96920836D01*
X169505500Y-96801164D01*
X169474527Y-96685569D01*
X169474525Y-96685565D01*
X169474525Y-96685564D01*
X169414693Y-96581933D01*
X169414692Y-96581931D01*
X169414691Y-96581930D01*
X169414689Y-96581928D01*
X169414685Y-96581923D01*
X169330076Y-96497314D01*
X169330066Y-96497306D01*
X169226435Y-96437474D01*
X169212780Y-96433815D01*
X169110836Y-96406500D01*
X168991164Y-96406500D01*
X168920415Y-96425456D01*
X168875564Y-96437474D01*
X168771933Y-96497306D01*
X168771923Y-96497314D01*
X168687314Y-96581923D01*
X168687308Y-96581931D01*
X168659619Y-96629890D01*
X168608236Y-96678883D01*
X168538522Y-96692318D01*
X168472611Y-96665931D01*
X168441381Y-96629890D01*
X168432268Y-96614107D01*
X168413691Y-96581930D01*
X168413688Y-96581927D01*
X168413685Y-96581923D01*
X168329076Y-96497314D01*
X168329066Y-96497306D01*
X168225435Y-96437474D01*
X168211780Y-96433815D01*
X168109836Y-96406500D01*
X167990164Y-96406500D01*
X167919415Y-96425456D01*
X167874564Y-96437474D01*
X167770933Y-96497306D01*
X167770923Y-96497314D01*
X167686314Y-96581923D01*
X167686306Y-96581933D01*
X167626474Y-96685565D01*
X167626473Y-96685569D01*
X167617974Y-96717284D01*
X167581025Y-96777906D01*
X167517165Y-96808928D01*
X167496269Y-96810673D01*
X167490164Y-96810673D01*
X167422844Y-96828711D01*
X167374564Y-96841647D01*
X167270933Y-96901479D01*
X167270923Y-96901487D01*
X167186314Y-96986096D01*
X167186306Y-96986106D01*
X167126474Y-97089737D01*
X167116557Y-97126751D01*
X167095500Y-97205337D01*
X167095500Y-97325009D01*
X167109355Y-97376717D01*
X167126474Y-97440608D01*
X167178619Y-97530924D01*
X167195500Y-97593924D01*
X167195500Y-99399500D01*
X167175498Y-99467621D01*
X167121842Y-99514114D01*
X167069500Y-99525500D01*
X166929535Y-99525500D01*
X166904080Y-99528453D01*
X166904075Y-99528454D01*
X166799935Y-99574436D01*
X166719436Y-99654936D01*
X166712838Y-99664569D01*
X166710704Y-99663107D01*
X166675624Y-99704635D01*
X166607759Y-99725490D01*
X166606178Y-99725500D01*
X165325274Y-99725500D01*
X165257153Y-99705498D01*
X165210660Y-99651842D01*
X165207218Y-99643531D01*
X165190175Y-99597836D01*
X165138234Y-99528453D01*
X165107544Y-99487456D01*
X165060137Y-99451967D01*
X164997167Y-99404827D01*
X164997166Y-99404826D01*
X164957488Y-99390027D01*
X164867973Y-99356640D01*
X164860834Y-99355872D01*
X164810871Y-99350500D01*
X164810864Y-99350500D01*
X164269136Y-99350500D01*
X164269128Y-99350500D01*
X164212027Y-99356640D01*
X164082833Y-99404826D01*
X164082832Y-99404827D01*
X163972456Y-99487456D01*
X163889827Y-99597832D01*
X163889826Y-99597834D01*
X163882788Y-99616704D01*
X163840240Y-99673539D01*
X163773719Y-99698348D01*
X163704345Y-99683255D01*
X163654144Y-99633052D01*
X163646677Y-99616701D01*
X163639731Y-99598080D01*
X163557186Y-99487813D01*
X163446920Y-99405268D01*
X163317860Y-99357131D01*
X163260832Y-99351000D01*
X163117000Y-99351000D01*
X163117000Y-99954000D01*
X163114408Y-99962825D01*
X163115718Y-99971932D01*
X163104562Y-99996357D01*
X163096998Y-100022121D01*
X163090044Y-100028145D01*
X163086224Y-100036512D01*
X163063638Y-100051026D01*
X163043342Y-100068614D01*
X163032655Y-100070938D01*
X163026498Y-100074896D01*
X162991000Y-100080000D01*
X162990000Y-100080000D01*
X162990000Y-100081000D01*
X162969998Y-100149121D01*
X162916342Y-100195614D01*
X162864000Y-100207000D01*
X162286000Y-100207000D01*
X162286000Y-100375832D01*
X162292975Y-100440704D01*
X162290243Y-100440997D01*
X162289685Y-100451408D01*
X162293044Y-100474765D01*
X162287823Y-100486195D01*
X162287152Y-100498743D01*
X162273351Y-100517883D01*
X162263550Y-100539345D01*
X162252979Y-100546138D01*
X162245630Y-100556332D01*
X162223672Y-100564973D01*
X162203824Y-100577729D01*
X162184025Y-100580575D01*
X162179565Y-100582331D01*
X162168326Y-100582833D01*
X162129757Y-100582833D01*
X162061636Y-100562831D01*
X162015143Y-100509175D01*
X162005039Y-100438901D01*
X162011702Y-100412800D01*
X162022867Y-100382863D01*
X162028999Y-100325832D01*
X162029000Y-100325815D01*
X162029000Y-100182000D01*
X160571000Y-100182000D01*
X160571000Y-100325832D01*
X160577131Y-100382860D01*
X160625268Y-100511920D01*
X160707813Y-100622186D01*
X160818080Y-100704731D01*
X160836701Y-100711677D01*
X160893537Y-100754224D01*
X160918348Y-100820744D01*
X160903257Y-100890118D01*
X160853055Y-100940320D01*
X160836704Y-100947788D01*
X160817834Y-100954826D01*
X160817832Y-100954827D01*
X160707456Y-101037456D01*
X160624827Y-101147832D01*
X160624826Y-101147833D01*
X160576640Y-101277027D01*
X160570500Y-101334128D01*
X160570500Y-101875871D01*
X160574166Y-101909960D01*
X160576640Y-101932973D01*
X160612565Y-102029293D01*
X160624826Y-102062166D01*
X160624827Y-102062167D01*
X160655061Y-102102553D01*
X160707456Y-102172544D01*
X160737868Y-102195310D01*
X160817832Y-102255172D01*
X160817833Y-102255173D01*
X160817835Y-102255173D01*
X160817837Y-102255175D01*
X160947027Y-102303360D01*
X161004136Y-102309500D01*
X161004141Y-102309500D01*
X161477593Y-102309500D01*
X161545714Y-102329502D01*
X161592207Y-102383158D01*
X161602311Y-102453432D01*
X161572817Y-102518012D01*
X161566688Y-102524595D01*
X161377688Y-102713595D01*
X161315376Y-102747621D01*
X161288593Y-102750500D01*
X161004128Y-102750500D01*
X160947027Y-102756640D01*
X160817833Y-102804826D01*
X160817832Y-102804827D01*
X160707456Y-102887456D01*
X160660628Y-102950010D01*
X160656912Y-102952791D01*
X160654985Y-102957012D01*
X160628756Y-102973868D01*
X160603792Y-102992556D01*
X160598072Y-102993587D01*
X160595259Y-102995396D01*
X160559761Y-103000500D01*
X160525450Y-103000500D01*
X160457329Y-102980498D01*
X160436355Y-102963595D01*
X160151405Y-102678645D01*
X160117379Y-102616333D01*
X160114500Y-102589550D01*
X160114500Y-98917476D01*
X160134502Y-98849355D01*
X160188158Y-98802862D01*
X160206536Y-98800219D01*
X160190900Y-98798350D01*
X160184095Y-98792731D01*
X160175558Y-98790498D01*
X160157136Y-98770472D01*
X160136153Y-98753147D01*
X160133465Y-98744741D01*
X160127492Y-98738247D01*
X160116986Y-98693188D01*
X160114536Y-98685522D01*
X160114833Y-98683953D01*
X160114500Y-98682523D01*
X160114500Y-97660449D01*
X160134502Y-97592328D01*
X160151405Y-97571354D01*
X160240405Y-97482354D01*
X160302717Y-97448328D01*
X160373532Y-97453393D01*
X160430368Y-97495940D01*
X160455179Y-97562460D01*
X160455500Y-97571449D01*
X160455500Y-98471248D01*
X160453510Y-98478671D01*
X160454695Y-98485467D01*
X160445618Y-98520163D01*
X160442558Y-98527426D01*
X160386473Y-98624569D01*
X160359970Y-98723479D01*
X160356618Y-98731438D01*
X160339416Y-98752523D01*
X160325255Y-98775757D01*
X160317317Y-98779612D01*
X160311739Y-98786451D01*
X160285869Y-98794889D01*
X160274834Y-98800249D01*
X160323012Y-98822252D01*
X160361396Y-98881978D01*
X160362193Y-98884816D01*
X160380774Y-98954161D01*
X160386474Y-98975435D01*
X160446306Y-99079066D01*
X160446314Y-99079076D01*
X160530923Y-99163685D01*
X160530928Y-99163689D01*
X160530930Y-99163691D01*
X160530931Y-99163692D01*
X160530933Y-99163693D01*
X160634565Y-99223525D01*
X160634569Y-99223527D01*
X160697951Y-99240509D01*
X160758571Y-99277459D01*
X160789593Y-99341319D01*
X160781165Y-99411813D01*
X160740850Y-99463081D01*
X160707815Y-99487812D01*
X160625268Y-99598079D01*
X160577131Y-99727139D01*
X160571000Y-99784167D01*
X160571000Y-99928000D01*
X161173000Y-99928000D01*
X161427000Y-99928000D01*
X162029000Y-99928000D01*
X162029000Y-99784184D01*
X162028999Y-99784167D01*
X162286000Y-99784167D01*
X162286000Y-99953000D01*
X162863000Y-99953000D01*
X162863000Y-99351000D01*
X162719167Y-99351000D01*
X162662139Y-99357131D01*
X162533079Y-99405268D01*
X162422813Y-99487813D01*
X162340268Y-99598079D01*
X162292131Y-99727139D01*
X162286000Y-99784167D01*
X162028999Y-99784167D01*
X162022868Y-99727139D01*
X161974731Y-99598079D01*
X161892186Y-99487813D01*
X161781920Y-99405268D01*
X161652860Y-99357131D01*
X161595832Y-99351000D01*
X161427000Y-99351000D01*
X161427000Y-99928000D01*
X161173000Y-99928000D01*
X161173000Y-99350999D01*
X161159304Y-99337303D01*
X161137831Y-99330998D01*
X161091338Y-99277342D01*
X161081234Y-99207068D01*
X161110728Y-99142488D01*
X161116857Y-99135905D01*
X161173685Y-99079076D01*
X161173691Y-99079070D01*
X161233527Y-98975431D01*
X161264500Y-98859836D01*
X161264500Y-98740164D01*
X161233527Y-98624569D01*
X161233525Y-98624566D01*
X161233525Y-98624564D01*
X161181381Y-98534248D01*
X161164500Y-98471248D01*
X161164500Y-97177549D01*
X161184502Y-97109428D01*
X161201405Y-97088454D01*
X161537454Y-96752405D01*
X161599766Y-96718379D01*
X161626549Y-96715500D01*
X163544135Y-96715500D01*
X163634296Y-96691341D01*
X163715132Y-96644671D01*
X164477399Y-95882403D01*
X164539710Y-95848380D01*
X164566493Y-95845500D01*
X169151971Y-95845500D01*
X169220092Y-95865502D01*
G37*
%TD.AperFunction*%
%TA.AperFunction,Conductor*%
G36*
X158748921Y-84770502D02*
G01*
X158795414Y-84824158D01*
X158806800Y-84876500D01*
X158806800Y-85273000D01*
X160514799Y-85273000D01*
X160514799Y-84876500D01*
X160534801Y-84808379D01*
X160588457Y-84761886D01*
X160640799Y-84750500D01*
X164280800Y-84750500D01*
X164348921Y-84770502D01*
X164395414Y-84824158D01*
X164406800Y-84876500D01*
X164406800Y-85273000D01*
X166114799Y-85273000D01*
X166114799Y-84876500D01*
X166134801Y-84808379D01*
X166188457Y-84761886D01*
X166240799Y-84750500D01*
X170329200Y-84750500D01*
X170397321Y-84770502D01*
X170443814Y-84824158D01*
X170455200Y-84876500D01*
X170455200Y-85273000D01*
X172163199Y-85273000D01*
X172163199Y-84876500D01*
X172183201Y-84808379D01*
X172236857Y-84761886D01*
X172289199Y-84750500D01*
X175929200Y-84750500D01*
X175997321Y-84770502D01*
X176043814Y-84824158D01*
X176055200Y-84876500D01*
X176055200Y-85273000D01*
X177763199Y-85273000D01*
X177763199Y-84876500D01*
X177783201Y-84808379D01*
X177836857Y-84761886D01*
X177889199Y-84750500D01*
X180358500Y-84750500D01*
X180426621Y-84770502D01*
X180473114Y-84824158D01*
X180484500Y-84876500D01*
X180484500Y-85089463D01*
X180464498Y-85157584D01*
X180410842Y-85204077D01*
X180340568Y-85214181D01*
X180299109Y-85200588D01*
X180296494Y-85199190D01*
X180111505Y-85122565D01*
X180111502Y-85122564D01*
X179915119Y-85083500D01*
X179915116Y-85083500D01*
X179714884Y-85083500D01*
X179714880Y-85083500D01*
X179518497Y-85122564D01*
X179518494Y-85122565D01*
X179333507Y-85199190D01*
X179167017Y-85310434D01*
X179167011Y-85310439D01*
X179025439Y-85452011D01*
X179025434Y-85452017D01*
X178914190Y-85618507D01*
X178837565Y-85803494D01*
X178837564Y-85803497D01*
X178798500Y-85999880D01*
X178798500Y-86200119D01*
X178837564Y-86396502D01*
X178837565Y-86396505D01*
X178838643Y-86399107D01*
X178914190Y-86581493D01*
X179025433Y-86747981D01*
X179025434Y-86747982D01*
X179025439Y-86747988D01*
X179167011Y-86889560D01*
X179167017Y-86889565D01*
X179167019Y-86889567D01*
X179333507Y-87000810D01*
X179518498Y-87077436D01*
X179714884Y-87116500D01*
X179915116Y-87116500D01*
X180111502Y-87077436D01*
X180296493Y-87000810D01*
X180296496Y-87000807D01*
X180299099Y-86999417D01*
X180300620Y-86999100D01*
X180302212Y-86998441D01*
X180302336Y-86998742D01*
X180368604Y-86984942D01*
X180434901Y-87010342D01*
X180476942Y-87067553D01*
X180484500Y-87110536D01*
X180484500Y-87767761D01*
X180464498Y-87835882D01*
X180410842Y-87882375D01*
X180340568Y-87892479D01*
X180275988Y-87862985D01*
X180269405Y-87856856D01*
X180262988Y-87850439D01*
X180262982Y-87850434D01*
X180262981Y-87850433D01*
X180096493Y-87739190D01*
X179932105Y-87671098D01*
X179911505Y-87662565D01*
X179911502Y-87662564D01*
X179715119Y-87623500D01*
X179715116Y-87623500D01*
X179514884Y-87623500D01*
X179514880Y-87623500D01*
X179318497Y-87662564D01*
X179318494Y-87662565D01*
X179133507Y-87739190D01*
X178967017Y-87850434D01*
X178967011Y-87850439D01*
X178825439Y-87992011D01*
X178825434Y-87992017D01*
X178714189Y-88158508D01*
X178714187Y-88158511D01*
X178683898Y-88231634D01*
X178639349Y-88286914D01*
X178600105Y-88305120D01*
X178583170Y-88309658D01*
X178502333Y-88356328D01*
X178502325Y-88356334D01*
X177710661Y-89148000D01*
X177452332Y-89406329D01*
X177435547Y-89423114D01*
X177386330Y-89472330D01*
X177386326Y-89472335D01*
X177339659Y-89553166D01*
X177315500Y-89643325D01*
X177315500Y-90275327D01*
X177295498Y-90343448D01*
X177241842Y-90389941D01*
X177182762Y-90401147D01*
X177180017Y-90401000D01*
X177036200Y-90401000D01*
X177036200Y-93384001D01*
X177042784Y-93390585D01*
X177076810Y-93452897D01*
X177071745Y-93523712D01*
X177042785Y-93568775D01*
X176552966Y-94058595D01*
X176525597Y-94073539D01*
X176499368Y-94090396D01*
X176493066Y-94091302D01*
X176490653Y-94092620D01*
X176463870Y-94095500D01*
X176448751Y-94095500D01*
X176385751Y-94078619D01*
X176295435Y-94026474D01*
X176258218Y-94016502D01*
X176179836Y-93995500D01*
X176060164Y-93995500D01*
X175989415Y-94014456D01*
X175944564Y-94026474D01*
X175840933Y-94086306D01*
X175840923Y-94086314D01*
X175756314Y-94170923D01*
X175756306Y-94170933D01*
X175696474Y-94274564D01*
X175682844Y-94325435D01*
X175665500Y-94390164D01*
X175665500Y-94509836D01*
X175692815Y-94611780D01*
X175696474Y-94625435D01*
X175756306Y-94729066D01*
X175756314Y-94729076D01*
X175840923Y-94813685D01*
X175840928Y-94813689D01*
X175840930Y-94813691D01*
X175840931Y-94813692D01*
X175840933Y-94813693D01*
X175944564Y-94873525D01*
X175944566Y-94873525D01*
X175944569Y-94873527D01*
X176060164Y-94904500D01*
X176060166Y-94904500D01*
X176065945Y-94905261D01*
X176066657Y-94905576D01*
X176067432Y-94905465D01*
X176099062Y-94919910D01*
X176130872Y-94933982D01*
X176131302Y-94934635D01*
X176132012Y-94934959D01*
X176150787Y-94964173D01*
X176169965Y-94993247D01*
X176170114Y-94994247D01*
X176170396Y-94994685D01*
X176175500Y-95030183D01*
X176175500Y-95059500D01*
X176155498Y-95127621D01*
X176101842Y-95174114D01*
X176049500Y-95185500D01*
X175990164Y-95185500D01*
X175919415Y-95204456D01*
X175874564Y-95216474D01*
X175770933Y-95276306D01*
X175770923Y-95276314D01*
X175686314Y-95360923D01*
X175686306Y-95360933D01*
X175626474Y-95464564D01*
X175595500Y-95580165D01*
X175595500Y-95708094D01*
X175592413Y-95708094D01*
X175583711Y-95763748D01*
X175536561Y-95816828D01*
X175502362Y-95831705D01*
X175484567Y-95836473D01*
X175380933Y-95896306D01*
X175380923Y-95896314D01*
X175296314Y-95980923D01*
X175296306Y-95980933D01*
X175236474Y-96084564D01*
X175236473Y-96084569D01*
X175205500Y-96200164D01*
X175205500Y-96319836D01*
X175216293Y-96360116D01*
X175236474Y-96435435D01*
X175296306Y-96539066D01*
X175296314Y-96539076D01*
X175380923Y-96623685D01*
X175380928Y-96623689D01*
X175380930Y-96623691D01*
X175380931Y-96623692D01*
X175380933Y-96623693D01*
X175484564Y-96683525D01*
X175484566Y-96683525D01*
X175484569Y-96683527D01*
X175600164Y-96714500D01*
X175600166Y-96714500D01*
X175719834Y-96714500D01*
X175719836Y-96714500D01*
X175835431Y-96683527D01*
X175835434Y-96683525D01*
X175835435Y-96683525D01*
X175925751Y-96631381D01*
X175988751Y-96614500D01*
X178777397Y-96614500D01*
X178845518Y-96634502D01*
X178892011Y-96688158D01*
X178893802Y-96692271D01*
X178914190Y-96741493D01*
X178981111Y-96841647D01*
X179025434Y-96907982D01*
X179025439Y-96907988D01*
X179167011Y-97049560D01*
X179167017Y-97049565D01*
X179167019Y-97049567D01*
X179333507Y-97160810D01*
X179518498Y-97237436D01*
X179714884Y-97276500D01*
X179915116Y-97276500D01*
X180111502Y-97237436D01*
X180296493Y-97160810D01*
X180296496Y-97160807D01*
X180299099Y-97159417D01*
X180300620Y-97159100D01*
X180302212Y-97158441D01*
X180302336Y-97158742D01*
X180368604Y-97144942D01*
X180434901Y-97170342D01*
X180476942Y-97227553D01*
X180484500Y-97270536D01*
X180484500Y-97927761D01*
X180464498Y-97995882D01*
X180410842Y-98042375D01*
X180340568Y-98052479D01*
X180275988Y-98022985D01*
X180269405Y-98016856D01*
X180262988Y-98010439D01*
X180262982Y-98010434D01*
X180262981Y-98010433D01*
X180096493Y-97899190D01*
X179979839Y-97850870D01*
X179911505Y-97822565D01*
X179911502Y-97822564D01*
X179715119Y-97783500D01*
X179715116Y-97783500D01*
X179514884Y-97783500D01*
X179514880Y-97783500D01*
X179318497Y-97822564D01*
X179318494Y-97822565D01*
X179133507Y-97899190D01*
X178967017Y-98010434D01*
X178967011Y-98010439D01*
X178825439Y-98152011D01*
X178825434Y-98152017D01*
X178714190Y-98318507D01*
X178637565Y-98503494D01*
X178637564Y-98503497D01*
X178598500Y-98699880D01*
X178598500Y-98900119D01*
X178637564Y-99096502D01*
X178637565Y-99096505D01*
X178665870Y-99164839D01*
X178714190Y-99281493D01*
X178810966Y-99426329D01*
X178825434Y-99447982D01*
X178825439Y-99447988D01*
X178967011Y-99589560D01*
X178967017Y-99589565D01*
X178967019Y-99589567D01*
X179133507Y-99700810D01*
X179318498Y-99777436D01*
X179514884Y-99816500D01*
X179715116Y-99816500D01*
X179911502Y-99777436D01*
X180096493Y-99700810D01*
X180262981Y-99589567D01*
X180262988Y-99589560D01*
X180269405Y-99583144D01*
X180331717Y-99549118D01*
X180402532Y-99554183D01*
X180459368Y-99596730D01*
X180484179Y-99663250D01*
X180484500Y-99672239D01*
X180484500Y-100329463D01*
X180464498Y-100397584D01*
X180410842Y-100444077D01*
X180340568Y-100454181D01*
X180299109Y-100440588D01*
X180296494Y-100439190D01*
X180111505Y-100362565D01*
X180111502Y-100362564D01*
X179915119Y-100323500D01*
X179915116Y-100323500D01*
X179714884Y-100323500D01*
X179714880Y-100323500D01*
X179518497Y-100362564D01*
X179518494Y-100362565D01*
X179333507Y-100439190D01*
X179167017Y-100550434D01*
X179167011Y-100550439D01*
X179025439Y-100692011D01*
X179025434Y-100692017D01*
X178919567Y-100850460D01*
X178914190Y-100858507D01*
X178901097Y-100890118D01*
X178893806Y-100907719D01*
X178849257Y-100962999D01*
X178781894Y-100985420D01*
X178777397Y-100985500D01*
X178013325Y-100985500D01*
X177923169Y-101009658D01*
X177896785Y-101024891D01*
X177850450Y-101051642D01*
X177850447Y-101051643D01*
X177850446Y-101051644D01*
X177842332Y-101056327D01*
X177842330Y-101056329D01*
X176589595Y-102309065D01*
X176527283Y-102343091D01*
X176456468Y-102338026D01*
X176399632Y-102295479D01*
X176374821Y-102228959D01*
X176374500Y-102219970D01*
X176374500Y-100490165D01*
X176373704Y-100487195D01*
X176343527Y-100374569D01*
X176343525Y-100374566D01*
X176343525Y-100374564D01*
X176283693Y-100270933D01*
X176283685Y-100270923D01*
X176194681Y-100181919D01*
X176194658Y-100181898D01*
X175820879Y-99808119D01*
X175820867Y-99808105D01*
X175729076Y-99716314D01*
X175729066Y-99716306D01*
X175625431Y-99656473D01*
X175610019Y-99652343D01*
X175610017Y-99652342D01*
X175601002Y-99649927D01*
X175509836Y-99625499D01*
X175390164Y-99625499D01*
X175390160Y-99625500D01*
X174997076Y-99625500D01*
X174928955Y-99605498D01*
X174896209Y-99575011D01*
X174829330Y-99485670D01*
X174777490Y-99446863D01*
X174734944Y-99390027D01*
X174727000Y-99345995D01*
X174727000Y-97607499D01*
X174727001Y-97607486D01*
X174727001Y-97477666D01*
X174727001Y-97477664D01*
X174699953Y-97376720D01*
X174696027Y-97362069D01*
X174646623Y-97276499D01*
X174636193Y-97258433D01*
X174636185Y-97258423D01*
X174547181Y-97169419D01*
X174547158Y-97169398D01*
X174100605Y-96722845D01*
X174066579Y-96660533D01*
X174063700Y-96633750D01*
X174063700Y-93388954D01*
X174072825Y-93357873D01*
X174080346Y-93326362D01*
X174082939Y-93323428D01*
X174083702Y-93320833D01*
X174102410Y-93298089D01*
X174107992Y-93292726D01*
X174201744Y-93222544D01*
X174254734Y-93151758D01*
X174262149Y-93144635D01*
X174284889Y-93132803D01*
X174305408Y-93117444D01*
X174319191Y-93114957D01*
X174325131Y-93111867D01*
X174332548Y-93112547D01*
X174349439Y-93109500D01*
X174625246Y-93109500D01*
X174693367Y-93129502D01*
X174726111Y-93159987D01*
X174791656Y-93247544D01*
X174802625Y-93255755D01*
X174902032Y-93330172D01*
X174902033Y-93330173D01*
X174902035Y-93330173D01*
X174902037Y-93330175D01*
X175031227Y-93378360D01*
X175088336Y-93384500D01*
X175088341Y-93384500D01*
X175630059Y-93384500D01*
X175630064Y-93384500D01*
X175687173Y-93378360D01*
X175816363Y-93330175D01*
X175926744Y-93247544D01*
X176009375Y-93137163D01*
X176016411Y-93118296D01*
X176058955Y-93061464D01*
X176125474Y-93036651D01*
X176194849Y-93051741D01*
X176245052Y-93101942D01*
X176252521Y-93118295D01*
X176259467Y-93136919D01*
X176342013Y-93247186D01*
X176452279Y-93329731D01*
X176581339Y-93377868D01*
X176638367Y-93383999D01*
X176638384Y-93384000D01*
X176782200Y-93384000D01*
X176782200Y-90401000D01*
X176638367Y-90401000D01*
X176581339Y-90407131D01*
X176452279Y-90455268D01*
X176342013Y-90537813D01*
X176259466Y-90648082D01*
X176252520Y-90666705D01*
X176209972Y-90723539D01*
X176143451Y-90748348D01*
X176074077Y-90733255D01*
X176033865Y-90698534D01*
X176022822Y-90683890D01*
X176009375Y-90647837D01*
X175926744Y-90537456D01*
X175893790Y-90512786D01*
X175883020Y-90498505D01*
X175876551Y-90481348D01*
X175865564Y-90466670D01*
X175864287Y-90448817D01*
X175857975Y-90432073D01*
X175861808Y-90414144D01*
X175860501Y-90395854D01*
X175869078Y-90380145D01*
X175872821Y-90362646D01*
X175885739Y-90349635D01*
X175894528Y-90333542D01*
X175910234Y-90324966D01*
X175922845Y-90312266D01*
X175940749Y-90308304D01*
X175956841Y-90299519D01*
X175959042Y-90299061D01*
X176008305Y-90289262D01*
X176008307Y-90289262D01*
X176092324Y-90233124D01*
X176148462Y-90149106D01*
X176148463Y-90149105D01*
X176163199Y-90075022D01*
X176163200Y-90075015D01*
X176163200Y-89402000D01*
X175735200Y-89402000D01*
X175726374Y-89399408D01*
X175717268Y-89400718D01*
X175692842Y-89389562D01*
X175667079Y-89381998D01*
X175661054Y-89375044D01*
X175652688Y-89371224D01*
X175638173Y-89348638D01*
X175620586Y-89328342D01*
X175618261Y-89317655D01*
X175614304Y-89311498D01*
X175609200Y-89276000D01*
X175609200Y-89275000D01*
X175608200Y-89275000D01*
X175540079Y-89254998D01*
X175493586Y-89201342D01*
X175482200Y-89149000D01*
X175482200Y-89148000D01*
X175736200Y-89148000D01*
X176163199Y-89148000D01*
X176163199Y-88474986D01*
X176163198Y-88474977D01*
X176148462Y-88400894D01*
X176148462Y-88400892D01*
X176092324Y-88316875D01*
X176008306Y-88260737D01*
X176008305Y-88260736D01*
X175934222Y-88246000D01*
X175736200Y-88246000D01*
X175736200Y-89148000D01*
X175482200Y-89148000D01*
X175482200Y-88246000D01*
X175284186Y-88246000D01*
X175284174Y-88246002D01*
X175214279Y-88259904D01*
X175192960Y-88257995D01*
X175171768Y-88261043D01*
X175158304Y-88254894D01*
X175143565Y-88253575D01*
X175126658Y-88240441D01*
X175107188Y-88231549D01*
X175099187Y-88219100D01*
X175087499Y-88210020D01*
X175080376Y-88189830D01*
X175068804Y-88171823D01*
X175065212Y-88146844D01*
X175063880Y-88143067D01*
X175063700Y-88136325D01*
X175063700Y-88109199D01*
X175063701Y-88109186D01*
X175063701Y-87979364D01*
X175063700Y-87979360D01*
X175032727Y-87863770D01*
X175032726Y-87863767D01*
X174972893Y-87760133D01*
X174972885Y-87760123D01*
X174883881Y-87671119D01*
X174883858Y-87671098D01*
X174300879Y-87088119D01*
X174300867Y-87088105D01*
X174209076Y-86996314D01*
X174209066Y-86996306D01*
X174105431Y-86936473D01*
X174090019Y-86932343D01*
X174090017Y-86932342D01*
X174081002Y-86929927D01*
X173989836Y-86905499D01*
X173870164Y-86905499D01*
X173870160Y-86905500D01*
X163697570Y-86905500D01*
X163697554Y-86905499D01*
X163689836Y-86905499D01*
X163570164Y-86905499D01*
X163478997Y-86929927D01*
X163464892Y-86933706D01*
X163454567Y-86936473D01*
X163350933Y-86996306D01*
X163350928Y-86996310D01*
X163308619Y-87038620D01*
X163266309Y-87080930D01*
X163266307Y-87080932D01*
X162681732Y-87665507D01*
X162681730Y-87665509D01*
X162639420Y-87707819D01*
X162597110Y-87750128D01*
X162597106Y-87750133D01*
X162537274Y-87853767D01*
X162537273Y-87853770D01*
X162506299Y-87969360D01*
X162506299Y-88099186D01*
X162506300Y-88099199D01*
X162506300Y-88135815D01*
X162486298Y-88203936D01*
X162432642Y-88250429D01*
X162362368Y-88260533D01*
X162355719Y-88259394D01*
X162285869Y-88245500D01*
X161635736Y-88245500D01*
X161635726Y-88245501D01*
X161561498Y-88260265D01*
X161530802Y-88280777D01*
X161463049Y-88301992D01*
X161394582Y-88283209D01*
X161390797Y-88280776D01*
X161360102Y-88260266D01*
X161285868Y-88245500D01*
X160635736Y-88245500D01*
X160635726Y-88245501D01*
X160561499Y-88260265D01*
X160477315Y-88316516D01*
X160421066Y-88400697D01*
X160406300Y-88474930D01*
X160406300Y-90075063D01*
X160406301Y-90075073D01*
X160421065Y-90149300D01*
X160477316Y-90233484D01*
X160561494Y-90289731D01*
X160561495Y-90289731D01*
X160561499Y-90289734D01*
X160561503Y-90289734D01*
X160568676Y-90292706D01*
X160582678Y-90303925D01*
X160598987Y-90310576D01*
X160616797Y-90331263D01*
X160623568Y-90336689D01*
X160629967Y-90345799D01*
X160630459Y-90347632D01*
X160677129Y-90428468D01*
X160713810Y-90465149D01*
X160720091Y-90474090D01*
X160728120Y-90497779D01*
X160740110Y-90519736D01*
X160739317Y-90530814D01*
X160742882Y-90541330D01*
X160736829Y-90565599D01*
X160735045Y-90590551D01*
X160726820Y-90605736D01*
X160725703Y-90610216D01*
X160723032Y-90612730D01*
X160718370Y-90621338D01*
X160704431Y-90640225D01*
X160704429Y-90640228D01*
X160659179Y-90769545D01*
X160656300Y-90800248D01*
X160656300Y-91319972D01*
X160649961Y-91341559D01*
X160648356Y-91364004D01*
X160640154Y-91374960D01*
X160636298Y-91388093D01*
X160619292Y-91402828D01*
X160605809Y-91420840D01*
X160592986Y-91425622D01*
X160582642Y-91434586D01*
X160560369Y-91437788D01*
X160539289Y-91445651D01*
X160525916Y-91442742D01*
X160512368Y-91444690D01*
X160491901Y-91435342D01*
X160469915Y-91430560D01*
X160451901Y-91417074D01*
X160447788Y-91415196D01*
X160441205Y-91409067D01*
X160352204Y-91320066D01*
X160318178Y-91257754D01*
X160315299Y-91230971D01*
X160315299Y-90800260D01*
X160315298Y-90800251D01*
X160312421Y-90769549D01*
X160276434Y-90666705D01*
X160267171Y-90640232D01*
X160267168Y-90640225D01*
X160185810Y-90529989D01*
X160075574Y-90448631D01*
X160075567Y-90448628D01*
X159946253Y-90403379D01*
X159946255Y-90403379D01*
X159920881Y-90401000D01*
X159915549Y-90400500D01*
X159915548Y-90400500D01*
X159406059Y-90400500D01*
X159406044Y-90400501D01*
X159375347Y-90403379D01*
X159375344Y-90403380D01*
X159246032Y-90448628D01*
X159246025Y-90448631D01*
X159135789Y-90529989D01*
X159054431Y-90640225D01*
X159054428Y-90640232D01*
X159009179Y-90769545D01*
X159006300Y-90800248D01*
X159006300Y-91459740D01*
X159006301Y-91459755D01*
X159009179Y-91490452D01*
X159009180Y-91490455D01*
X159054428Y-91619767D01*
X159054431Y-91619774D01*
X159135787Y-91730008D01*
X159135790Y-91730010D01*
X159230907Y-91800210D01*
X159273837Y-91856752D01*
X159279384Y-91927532D01*
X159245784Y-91990074D01*
X159239387Y-91996120D01*
X159223404Y-92010203D01*
X159212913Y-92014117D01*
X159103970Y-92095670D01*
X159060464Y-92153787D01*
X159050695Y-92162396D01*
X159029846Y-92172128D01*
X159011424Y-92185919D01*
X158998291Y-92186858D01*
X158986362Y-92192427D01*
X158963557Y-92189341D01*
X158940608Y-92190983D01*
X158929054Y-92184674D01*
X158916007Y-92182909D01*
X158898491Y-92167985D01*
X158878298Y-92156959D01*
X158527668Y-91806329D01*
X158527666Y-91806328D01*
X158527664Y-91806326D01*
X158446833Y-91759659D01*
X158356674Y-91735500D01*
X158356671Y-91735500D01*
X157864028Y-91735500D01*
X157834112Y-91726716D01*
X157803643Y-91720088D01*
X157798547Y-91716273D01*
X157795907Y-91715498D01*
X157774933Y-91698595D01*
X157739365Y-91663027D01*
X157705339Y-91600715D01*
X157710404Y-91529900D01*
X157712035Y-91525753D01*
X157732436Y-91476502D01*
X157771500Y-91280116D01*
X157771500Y-91079884D01*
X157732436Y-90883498D01*
X157655810Y-90698507D01*
X157544567Y-90532019D01*
X157544565Y-90532017D01*
X157544560Y-90532011D01*
X157402988Y-90390439D01*
X157402982Y-90390434D01*
X157402981Y-90390433D01*
X157236493Y-90279190D01*
X157071528Y-90210859D01*
X157051505Y-90202565D01*
X157051502Y-90202564D01*
X156855119Y-90163500D01*
X156855116Y-90163500D01*
X156654884Y-90163500D01*
X156654880Y-90163500D01*
X156458497Y-90202564D01*
X156458494Y-90202565D01*
X156273500Y-90279192D01*
X156270860Y-90280604D01*
X156269319Y-90280924D01*
X156267788Y-90281559D01*
X156267667Y-90281268D01*
X156201353Y-90295072D01*
X156135059Y-90269665D01*
X156093024Y-90212450D01*
X156085470Y-90169479D01*
X156085470Y-89512209D01*
X156105472Y-89444088D01*
X156159128Y-89397595D01*
X156229402Y-89387491D01*
X156293982Y-89416985D01*
X156300565Y-89423114D01*
X156307011Y-89429560D01*
X156307017Y-89429565D01*
X156307019Y-89429567D01*
X156473507Y-89540810D01*
X156658498Y-89617436D01*
X156854884Y-89656500D01*
X157055116Y-89656500D01*
X157251502Y-89617436D01*
X157436493Y-89540810D01*
X157602981Y-89429567D01*
X157744567Y-89287981D01*
X157855810Y-89121493D01*
X157932436Y-88936502D01*
X157971500Y-88740116D01*
X157971500Y-88539884D01*
X157932436Y-88343498D01*
X157855810Y-88158507D01*
X157744567Y-87992019D01*
X157744565Y-87992017D01*
X157744560Y-87992011D01*
X157602988Y-87850439D01*
X157602982Y-87850434D01*
X157602981Y-87850433D01*
X157436493Y-87739190D01*
X157272105Y-87671098D01*
X157251505Y-87662565D01*
X157251502Y-87662564D01*
X157055119Y-87623500D01*
X157055116Y-87623500D01*
X156854884Y-87623500D01*
X156854880Y-87623500D01*
X156658497Y-87662564D01*
X156658494Y-87662565D01*
X156473507Y-87739190D01*
X156307017Y-87850434D01*
X156307011Y-87850439D01*
X156300565Y-87856886D01*
X156238253Y-87890912D01*
X156167438Y-87885847D01*
X156110602Y-87843300D01*
X156085791Y-87776780D01*
X156085470Y-87767791D01*
X156085470Y-87110520D01*
X156105472Y-87042399D01*
X156159128Y-86995906D01*
X156229402Y-86985802D01*
X156270871Y-86999401D01*
X156273505Y-87000809D01*
X156273506Y-87000809D01*
X156273507Y-87000810D01*
X156458498Y-87077436D01*
X156654884Y-87116500D01*
X156855116Y-87116500D01*
X157051502Y-87077436D01*
X157236493Y-87000810D01*
X157402981Y-86889567D01*
X157544567Y-86747981D01*
X157655810Y-86581493D01*
X157732436Y-86396502D01*
X157746654Y-86325022D01*
X158806801Y-86325022D01*
X158821537Y-86399105D01*
X158821537Y-86399107D01*
X158877675Y-86483124D01*
X158961693Y-86539262D01*
X158961694Y-86539263D01*
X159035780Y-86553999D01*
X159533800Y-86553999D01*
X159787800Y-86553999D01*
X160285814Y-86553999D01*
X160285822Y-86553998D01*
X160359905Y-86539262D01*
X160359907Y-86539262D01*
X160443924Y-86483124D01*
X160500062Y-86399106D01*
X160500063Y-86399105D01*
X160514799Y-86325022D01*
X164406801Y-86325022D01*
X164421537Y-86399105D01*
X164421537Y-86399107D01*
X164477675Y-86483124D01*
X164561693Y-86539262D01*
X164561694Y-86539263D01*
X164635780Y-86553999D01*
X165133800Y-86553999D01*
X165387800Y-86553999D01*
X165885814Y-86553999D01*
X165885822Y-86553998D01*
X165959905Y-86539262D01*
X165959907Y-86539262D01*
X166043924Y-86483124D01*
X166100062Y-86399106D01*
X166100063Y-86399105D01*
X166114799Y-86325022D01*
X170455201Y-86325022D01*
X170469937Y-86399105D01*
X170469937Y-86399107D01*
X170526075Y-86483124D01*
X170610093Y-86539262D01*
X170610094Y-86539263D01*
X170684180Y-86553999D01*
X171182200Y-86553999D01*
X171436200Y-86553999D01*
X171934214Y-86553999D01*
X171934222Y-86553998D01*
X172008305Y-86539262D01*
X172008307Y-86539262D01*
X172092324Y-86483124D01*
X172148462Y-86399106D01*
X172148463Y-86399105D01*
X172163199Y-86325022D01*
X176055201Y-86325022D01*
X176069937Y-86399105D01*
X176069937Y-86399107D01*
X176126075Y-86483124D01*
X176210093Y-86539262D01*
X176210094Y-86539263D01*
X176284180Y-86553999D01*
X176782200Y-86553999D01*
X177036200Y-86553999D01*
X177534214Y-86553999D01*
X177534222Y-86553998D01*
X177608305Y-86539262D01*
X177608307Y-86539262D01*
X177692324Y-86483124D01*
X177748462Y-86399106D01*
X177748463Y-86399105D01*
X177763199Y-86325022D01*
X177763200Y-86325015D01*
X177763200Y-85527000D01*
X177036200Y-85527000D01*
X177036200Y-86553999D01*
X176782200Y-86553999D01*
X176782200Y-85527000D01*
X176055201Y-85527000D01*
X176055201Y-86325022D01*
X172163199Y-86325022D01*
X172163200Y-86325015D01*
X172163200Y-85527000D01*
X171436200Y-85527000D01*
X171436200Y-86553999D01*
X171182200Y-86553999D01*
X171182200Y-85527000D01*
X170455201Y-85527000D01*
X170455201Y-86325022D01*
X166114799Y-86325022D01*
X166114800Y-86325015D01*
X166114800Y-85527000D01*
X165387800Y-85527000D01*
X165387800Y-86553999D01*
X165133800Y-86553999D01*
X165133800Y-85527000D01*
X164406801Y-85527000D01*
X164406801Y-86325022D01*
X160514799Y-86325022D01*
X160514800Y-86325015D01*
X160514800Y-85527000D01*
X159787800Y-85527000D01*
X159787800Y-86553999D01*
X159533800Y-86553999D01*
X159533800Y-85527000D01*
X158806801Y-85527000D01*
X158806801Y-86325022D01*
X157746654Y-86325022D01*
X157771500Y-86200116D01*
X157771500Y-85999884D01*
X157732436Y-85803498D01*
X157655810Y-85618507D01*
X157544567Y-85452019D01*
X157544565Y-85452017D01*
X157544560Y-85452011D01*
X157402988Y-85310439D01*
X157402982Y-85310434D01*
X157346958Y-85273000D01*
X157236493Y-85199190D01*
X157075369Y-85132450D01*
X157051505Y-85122565D01*
X157051502Y-85122564D01*
X156855119Y-85083500D01*
X156855116Y-85083500D01*
X156654884Y-85083500D01*
X156654880Y-85083500D01*
X156458497Y-85122564D01*
X156458494Y-85122565D01*
X156273500Y-85199192D01*
X156270860Y-85200604D01*
X156269319Y-85200924D01*
X156267788Y-85201559D01*
X156267667Y-85201268D01*
X156201353Y-85215072D01*
X156135059Y-85189665D01*
X156093024Y-85132450D01*
X156085470Y-85089479D01*
X156085470Y-84876500D01*
X156105472Y-84808379D01*
X156159128Y-84761886D01*
X156211470Y-84750500D01*
X158680800Y-84750500D01*
X158748921Y-84770502D01*
G37*
%TD.AperFunction*%
%TA.AperFunction,Conductor*%
G36*
X178734267Y-94295418D02*
G01*
X178749029Y-94296474D01*
X178766165Y-94309302D01*
X178785795Y-94317846D01*
X178802662Y-94336623D01*
X178805865Y-94339021D01*
X178809760Y-94344525D01*
X178825433Y-94367981D01*
X178825434Y-94367982D01*
X178825435Y-94367983D01*
X178825439Y-94367988D01*
X178967011Y-94509560D01*
X178967017Y-94509565D01*
X178967019Y-94509567D01*
X179133507Y-94620810D01*
X179318498Y-94697436D01*
X179514884Y-94736500D01*
X179715116Y-94736500D01*
X179911502Y-94697436D01*
X180096493Y-94620810D01*
X180262981Y-94509567D01*
X180262988Y-94509560D01*
X180269405Y-94503144D01*
X180331717Y-94469118D01*
X180402532Y-94474183D01*
X180459368Y-94516730D01*
X180484179Y-94583250D01*
X180484500Y-94592239D01*
X180484500Y-95249463D01*
X180464498Y-95317584D01*
X180410842Y-95364077D01*
X180340568Y-95374181D01*
X180299109Y-95360588D01*
X180296494Y-95359190D01*
X180111505Y-95282565D01*
X180111502Y-95282564D01*
X179915119Y-95243500D01*
X179915116Y-95243500D01*
X179714884Y-95243500D01*
X179714880Y-95243500D01*
X179518497Y-95282564D01*
X179518494Y-95282565D01*
X179333507Y-95359190D01*
X179167017Y-95470434D01*
X179167011Y-95470439D01*
X179025439Y-95612011D01*
X179025434Y-95612017D01*
X178914191Y-95778505D01*
X178893806Y-95827719D01*
X178849257Y-95882999D01*
X178781894Y-95905420D01*
X178777397Y-95905500D01*
X177340029Y-95905500D01*
X177271908Y-95885498D01*
X177225415Y-95831842D01*
X177215311Y-95761568D01*
X177244805Y-95696988D01*
X177250921Y-95690417D01*
X178615905Y-94325432D01*
X178634689Y-94315176D01*
X178650615Y-94300870D01*
X178665225Y-94298502D01*
X178678214Y-94291410D01*
X178699564Y-94292936D01*
X178720697Y-94289512D01*
X178734267Y-94295418D01*
G37*
%TD.AperFunction*%
%TA.AperFunction,Conductor*%
G36*
X168340386Y-93025554D02*
G01*
X168390588Y-93075756D01*
X168398055Y-93092108D01*
X168429116Y-93175386D01*
X168429119Y-93175390D01*
X168510669Y-93284330D01*
X168591271Y-93344667D01*
X168619613Y-93365883D01*
X168651746Y-93377868D01*
X168747115Y-93413440D01*
X168747123Y-93413442D01*
X168803466Y-93419499D01*
X168803471Y-93419499D01*
X168803478Y-93419500D01*
X168803484Y-93419500D01*
X169331516Y-93419500D01*
X169331522Y-93419500D01*
X169331529Y-93419499D01*
X169331533Y-93419499D01*
X169387876Y-93413442D01*
X169387879Y-93413441D01*
X169387881Y-93413441D01*
X169515387Y-93365883D01*
X169624330Y-93284330D01*
X169705883Y-93175387D01*
X169721976Y-93132240D01*
X169724130Y-93126466D01*
X169766677Y-93069631D01*
X169833198Y-93044821D01*
X169842185Y-93044500D01*
X172822319Y-93044500D01*
X172890440Y-93064502D01*
X172928314Y-93105180D01*
X172928625Y-93104948D01*
X172930787Y-93107837D01*
X172932904Y-93110110D01*
X172934022Y-93112157D01*
X172934023Y-93112159D01*
X172934025Y-93112163D01*
X173016656Y-93222544D01*
X173104211Y-93288087D01*
X173146756Y-93344923D01*
X173154700Y-93388954D01*
X173154700Y-95127750D01*
X173134698Y-95195871D01*
X173081042Y-95242364D01*
X173010768Y-95252468D01*
X172946188Y-95222974D01*
X172939605Y-95216845D01*
X172440879Y-94718119D01*
X172440867Y-94718105D01*
X172349076Y-94626314D01*
X172349066Y-94626306D01*
X172245431Y-94566473D01*
X172230019Y-94562343D01*
X172230017Y-94562342D01*
X172221002Y-94559927D01*
X172129836Y-94535499D01*
X172010164Y-94535499D01*
X172010160Y-94535500D01*
X166250029Y-94535500D01*
X166181908Y-94515498D01*
X166135415Y-94461842D01*
X166125311Y-94391568D01*
X166154805Y-94326988D01*
X166160933Y-94320405D01*
X166256838Y-94224500D01*
X166557292Y-93924044D01*
X166557302Y-93924037D01*
X166633665Y-93847674D01*
X166633671Y-93847668D01*
X166680341Y-93766832D01*
X166704500Y-93676671D01*
X166704500Y-93354092D01*
X166724502Y-93285971D01*
X166778158Y-93239478D01*
X166848432Y-93229374D01*
X166913012Y-93258868D01*
X166931366Y-93278581D01*
X166935670Y-93284330D01*
X166935671Y-93284331D01*
X166996912Y-93330175D01*
X167044613Y-93365883D01*
X167076746Y-93377868D01*
X167172115Y-93413440D01*
X167172123Y-93413442D01*
X167228466Y-93419499D01*
X167228471Y-93419499D01*
X167228478Y-93419500D01*
X167228484Y-93419500D01*
X167756516Y-93419500D01*
X167756522Y-93419500D01*
X167756529Y-93419499D01*
X167756533Y-93419499D01*
X167812876Y-93413442D01*
X167812879Y-93413441D01*
X167812881Y-93413441D01*
X167940387Y-93365883D01*
X168049330Y-93284330D01*
X168130883Y-93175387D01*
X168161945Y-93092108D01*
X168204491Y-93035272D01*
X168271012Y-93010462D01*
X168340386Y-93025554D01*
G37*
%TD.AperFunction*%
%TA.AperFunction,Conductor*%
G36*
X173757671Y-87834502D02*
G01*
X173778645Y-87851405D01*
X173957645Y-88030405D01*
X173991671Y-88092717D01*
X173986606Y-88163532D01*
X173944059Y-88220368D01*
X173877539Y-88245179D01*
X173868550Y-88245500D01*
X173284136Y-88245500D01*
X173284126Y-88245501D01*
X173209898Y-88260265D01*
X173179202Y-88280777D01*
X173111449Y-88301992D01*
X173042982Y-88283209D01*
X173039197Y-88280776D01*
X173008502Y-88260266D01*
X172934268Y-88245500D01*
X172284136Y-88245500D01*
X172284126Y-88245501D01*
X172209899Y-88260265D01*
X172125715Y-88316516D01*
X172069466Y-88400697D01*
X172054700Y-88474930D01*
X172054700Y-88794500D01*
X172034698Y-88862621D01*
X171981042Y-88909114D01*
X171928700Y-88920500D01*
X167281225Y-88920500D01*
X167191066Y-88944659D01*
X167110235Y-88991326D01*
X167110225Y-88991334D01*
X166051059Y-90050502D01*
X165712332Y-90389229D01*
X165694921Y-90406640D01*
X165646330Y-90455230D01*
X165646326Y-90455235D01*
X165599659Y-90536066D01*
X165575500Y-90626225D01*
X165575500Y-93120971D01*
X165555498Y-93189092D01*
X165538599Y-93210061D01*
X165470076Y-93278585D01*
X165412798Y-93335863D01*
X165350486Y-93369888D01*
X165279670Y-93364822D01*
X165222835Y-93322276D01*
X165198024Y-93255755D01*
X165212739Y-93188111D01*
X165212310Y-93187885D01*
X165216723Y-93179534D01*
X165261923Y-93050360D01*
X165264799Y-93019688D01*
X165264800Y-93019682D01*
X165264800Y-92817000D01*
X163956800Y-92817000D01*
X163956800Y-93019688D01*
X163959676Y-93050360D01*
X164004876Y-93179534D01*
X164086150Y-93289657D01*
X164092824Y-93296331D01*
X164091391Y-93297763D01*
X164127003Y-93344667D01*
X164132549Y-93415446D01*
X164098948Y-93477988D01*
X164036868Y-93512436D01*
X164009249Y-93515500D01*
X163563191Y-93515500D01*
X163495070Y-93495498D01*
X163448577Y-93441842D01*
X163438473Y-93371568D01*
X163467967Y-93306988D01*
X163479471Y-93296349D01*
X163485809Y-93290011D01*
X163486071Y-93289657D01*
X163567169Y-93179773D01*
X163612421Y-93050451D01*
X163615300Y-93019749D01*
X163615299Y-92394499D01*
X163617890Y-92385674D01*
X163616581Y-92376568D01*
X163627736Y-92352142D01*
X163635301Y-92326379D01*
X163642254Y-92320354D01*
X163646075Y-92311988D01*
X163668660Y-92297473D01*
X163688957Y-92279886D01*
X163699643Y-92277561D01*
X163705801Y-92273604D01*
X163741299Y-92268500D01*
X163830800Y-92268500D01*
X163898921Y-92288502D01*
X163945414Y-92342158D01*
X163956800Y-92394500D01*
X163956800Y-92563000D01*
X165264800Y-92563000D01*
X165264800Y-92360317D01*
X165264799Y-92360311D01*
X165261923Y-92329639D01*
X165216723Y-92200465D01*
X165135451Y-92090344D01*
X165028876Y-92011689D01*
X164985944Y-91955144D01*
X164980397Y-91884365D01*
X165013998Y-91821823D01*
X165028866Y-91808938D01*
X165135810Y-91730010D01*
X165135810Y-91730008D01*
X165135812Y-91730008D01*
X165217168Y-91619774D01*
X165217167Y-91619774D01*
X165217169Y-91619773D01*
X165262421Y-91490451D01*
X165265300Y-91459749D01*
X165265299Y-90800252D01*
X165262421Y-90769549D01*
X165226434Y-90666705D01*
X165217171Y-90640232D01*
X165217168Y-90640225D01*
X165135810Y-90529989D01*
X165025574Y-90448631D01*
X165025567Y-90448628D01*
X164896253Y-90403379D01*
X164896255Y-90403379D01*
X164865551Y-90400500D01*
X164865549Y-90400500D01*
X164567816Y-90400500D01*
X164499695Y-90380498D01*
X164453202Y-90326842D01*
X164443098Y-90256568D01*
X164463051Y-90204498D01*
X164500062Y-90149106D01*
X164500063Y-90149105D01*
X164514799Y-90075022D01*
X164514800Y-90075015D01*
X164514800Y-89402000D01*
X164086800Y-89402000D01*
X164077974Y-89399408D01*
X164068868Y-89400718D01*
X164044442Y-89389562D01*
X164018679Y-89381998D01*
X164012654Y-89375044D01*
X164004288Y-89371224D01*
X163989773Y-89348638D01*
X163972186Y-89328342D01*
X163969861Y-89317655D01*
X163965904Y-89311498D01*
X163960800Y-89276000D01*
X163960800Y-89275000D01*
X163959800Y-89275000D01*
X163891679Y-89254998D01*
X163845186Y-89201342D01*
X163833800Y-89149000D01*
X163833800Y-89148000D01*
X164087800Y-89148000D01*
X164514799Y-89148000D01*
X164514799Y-88474986D01*
X164514798Y-88474977D01*
X164500062Y-88400894D01*
X164500062Y-88400892D01*
X164443924Y-88316875D01*
X164359906Y-88260737D01*
X164359905Y-88260736D01*
X164285822Y-88246000D01*
X164087800Y-88246000D01*
X164087800Y-89148000D01*
X163833800Y-89148000D01*
X163833800Y-88246000D01*
X163690949Y-88246000D01*
X163669361Y-88239661D01*
X163646916Y-88238056D01*
X163635959Y-88229853D01*
X163622828Y-88225998D01*
X163608093Y-88208992D01*
X163590081Y-88195509D01*
X163585298Y-88182686D01*
X163576335Y-88172342D01*
X163573132Y-88150068D01*
X163565270Y-88128988D01*
X163568178Y-88115616D01*
X163566231Y-88102068D01*
X163575579Y-88081599D01*
X163580362Y-88059614D01*
X163593846Y-88041600D01*
X163595725Y-88037488D01*
X163601827Y-88030932D01*
X163781357Y-87851402D01*
X163843667Y-87817379D01*
X163870450Y-87814500D01*
X173689550Y-87814500D01*
X173757671Y-87834502D01*
G37*
%TD.AperFunction*%
%TA.AperFunction,Conductor*%
G36*
X178953035Y-91762469D02*
G01*
X179009871Y-91805016D01*
X179013762Y-91810514D01*
X179025433Y-91827981D01*
X179167019Y-91969567D01*
X179333507Y-92080810D01*
X179518498Y-92157436D01*
X179714884Y-92196500D01*
X179915116Y-92196500D01*
X180111502Y-92157436D01*
X180296493Y-92080810D01*
X180296496Y-92080807D01*
X180299099Y-92079417D01*
X180300620Y-92079100D01*
X180302212Y-92078441D01*
X180302336Y-92078742D01*
X180368604Y-92064942D01*
X180434901Y-92090342D01*
X180476942Y-92147553D01*
X180484500Y-92190536D01*
X180484500Y-92847761D01*
X180464498Y-92915882D01*
X180410842Y-92962375D01*
X180340568Y-92972479D01*
X180275988Y-92942985D01*
X180269405Y-92936856D01*
X180262988Y-92930439D01*
X180262982Y-92930434D01*
X180262981Y-92930433D01*
X180096493Y-92819190D01*
X179979839Y-92770870D01*
X179911505Y-92742565D01*
X179911502Y-92742564D01*
X179715119Y-92703500D01*
X179715116Y-92703500D01*
X179514884Y-92703500D01*
X179514880Y-92703500D01*
X179318497Y-92742564D01*
X179318494Y-92742565D01*
X179133507Y-92819190D01*
X178967017Y-92930434D01*
X178967011Y-92930439D01*
X178825439Y-93072011D01*
X178825434Y-93072018D01*
X178795265Y-93117169D01*
X178740788Y-93162697D01*
X178670345Y-93171544D01*
X178606301Y-93140903D01*
X178568989Y-93080501D01*
X178564500Y-93047167D01*
X178564500Y-92099029D01*
X178584502Y-92030908D01*
X178601400Y-92009938D01*
X178819909Y-91791428D01*
X178882219Y-91757405D01*
X178953035Y-91762469D01*
G37*
%TD.AperFunction*%
%TA.AperFunction,Conductor*%
G36*
X171365092Y-90050502D02*
G01*
X171386061Y-90067400D01*
X171972332Y-90653671D01*
X171972333Y-90653672D01*
X171972335Y-90653673D01*
X172008749Y-90674696D01*
X172053168Y-90700341D01*
X172131242Y-90721261D01*
X172143325Y-90724499D01*
X172143329Y-90724500D01*
X172754200Y-90724500D01*
X172822321Y-90744502D01*
X172868814Y-90798158D01*
X172880200Y-90850500D01*
X172880200Y-90978000D01*
X174338199Y-90978000D01*
X174362224Y-90953975D01*
X174370298Y-90949566D01*
X174375811Y-90942202D01*
X174400969Y-90932818D01*
X174424536Y-90919950D01*
X174433711Y-90920606D01*
X174442331Y-90917391D01*
X174468570Y-90923098D01*
X174495352Y-90925014D01*
X174504550Y-90930925D01*
X174511705Y-90932482D01*
X174540415Y-90953975D01*
X174617795Y-91031355D01*
X174651821Y-91093667D01*
X174654700Y-91120450D01*
X174654700Y-91425871D01*
X174658342Y-91459740D01*
X174660840Y-91482973D01*
X174695888Y-91576942D01*
X174709026Y-91612166D01*
X174709027Y-91612167D01*
X174753958Y-91672186D01*
X174791656Y-91722544D01*
X174854210Y-91769372D01*
X174856990Y-91773086D01*
X174861212Y-91775014D01*
X174878066Y-91801239D01*
X174896756Y-91826206D01*
X174897788Y-91831926D01*
X174899596Y-91834740D01*
X174904700Y-91870238D01*
X174904700Y-91914761D01*
X174884698Y-91982882D01*
X174854210Y-92015628D01*
X174791658Y-92062454D01*
X174791657Y-92062455D01*
X174791656Y-92062456D01*
X174726112Y-92150011D01*
X174669277Y-92192556D01*
X174625246Y-92200500D01*
X174349439Y-92200500D01*
X174281318Y-92180498D01*
X174248572Y-92150010D01*
X174234462Y-92131162D01*
X174201744Y-92087456D01*
X174147487Y-92046839D01*
X174091367Y-92004827D01*
X174091363Y-92004825D01*
X174072496Y-91997788D01*
X174015661Y-91955241D01*
X173990851Y-91888721D01*
X174005943Y-91819347D01*
X174056146Y-91769145D01*
X174072499Y-91761677D01*
X174091118Y-91754732D01*
X174201386Y-91672186D01*
X174283931Y-91561920D01*
X174332068Y-91432860D01*
X174338199Y-91375832D01*
X174338200Y-91375815D01*
X174338200Y-91232000D01*
X172880200Y-91232000D01*
X172880200Y-91375832D01*
X172886331Y-91432860D01*
X172934468Y-91561920D01*
X173017013Y-91672186D01*
X173127280Y-91754731D01*
X173145901Y-91761677D01*
X173202737Y-91804224D01*
X173227548Y-91870744D01*
X173212457Y-91940118D01*
X173162255Y-91990320D01*
X173145904Y-91997788D01*
X173127034Y-92004826D01*
X173127032Y-92004827D01*
X173016656Y-92087456D01*
X172934027Y-92197832D01*
X172934026Y-92197833D01*
X172931497Y-92204614D01*
X172913251Y-92253534D01*
X172870707Y-92310368D01*
X172804187Y-92335179D01*
X172795197Y-92335500D01*
X169842185Y-92335500D01*
X169774064Y-92315498D01*
X169727571Y-92261842D01*
X169724130Y-92253534D01*
X169705883Y-92204614D01*
X169705883Y-92204613D01*
X169624330Y-92095670D01*
X169516466Y-92014925D01*
X169473922Y-91958091D01*
X169468856Y-91887275D01*
X169502881Y-91824963D01*
X169517156Y-91812678D01*
X169629652Y-91729652D01*
X169710923Y-91619534D01*
X169756123Y-91490360D01*
X169758999Y-91459688D01*
X169759000Y-91459682D01*
X169759000Y-91257000D01*
X168451000Y-91257000D01*
X168451000Y-91459688D01*
X168453876Y-91490360D01*
X168499076Y-91619534D01*
X168580347Y-91729652D01*
X168662396Y-91790207D01*
X168705328Y-91846752D01*
X168710875Y-91917532D01*
X168677275Y-91980074D01*
X168631613Y-92009641D01*
X168630828Y-92009934D01*
X168619613Y-92014117D01*
X168619612Y-92014117D01*
X168619611Y-92014118D01*
X168619609Y-92014119D01*
X168510669Y-92095669D01*
X168429119Y-92204609D01*
X168429116Y-92204614D01*
X168398055Y-92287891D01*
X168355508Y-92344727D01*
X168288988Y-92369537D01*
X168219614Y-92354445D01*
X168169412Y-92304242D01*
X168161945Y-92287891D01*
X168130883Y-92204614D01*
X168130883Y-92204613D01*
X168112831Y-92180498D01*
X168049330Y-92095669D01*
X167940388Y-92014117D01*
X167928962Y-92009855D01*
X167910950Y-91996370D01*
X167890488Y-91987025D01*
X167883087Y-91975510D01*
X167872128Y-91967305D01*
X167864266Y-91946223D01*
X167852104Y-91927299D01*
X167848900Y-91905019D01*
X167847321Y-91900784D01*
X167847000Y-91891801D01*
X167847000Y-91891784D01*
X167867002Y-91823663D01*
X167898178Y-91790405D01*
X167926984Y-91769145D01*
X167980010Y-91730010D01*
X168061369Y-91619773D01*
X168106621Y-91490451D01*
X168109500Y-91459749D01*
X168109499Y-90800311D01*
X168451000Y-90800311D01*
X168451000Y-91003000D01*
X168978000Y-91003000D01*
X169232000Y-91003000D01*
X169759000Y-91003000D01*
X169759000Y-90800317D01*
X169758999Y-90800311D01*
X169756123Y-90769639D01*
X169710923Y-90640465D01*
X169629652Y-90530347D01*
X169519534Y-90449076D01*
X169390359Y-90403876D01*
X169390361Y-90403876D01*
X169359688Y-90401000D01*
X169232000Y-90401000D01*
X169232000Y-91003000D01*
X168978000Y-91003000D01*
X168978000Y-90401000D01*
X168850311Y-90401000D01*
X168819639Y-90403876D01*
X168690465Y-90449076D01*
X168580347Y-90530347D01*
X168499076Y-90640465D01*
X168453876Y-90769639D01*
X168451000Y-90800311D01*
X168109499Y-90800311D01*
X168109499Y-90800252D01*
X168106621Y-90769549D01*
X168070634Y-90666705D01*
X168061371Y-90640232D01*
X168061368Y-90640225D01*
X167980010Y-90529989D01*
X167869774Y-90448631D01*
X167869767Y-90448628D01*
X167740453Y-90403379D01*
X167740455Y-90403379D01*
X167709751Y-90400500D01*
X167709749Y-90400500D01*
X167575030Y-90400500D01*
X167553442Y-90394161D01*
X167530998Y-90392556D01*
X167520041Y-90384354D01*
X167506909Y-90380498D01*
X167492173Y-90363492D01*
X167474162Y-90350009D01*
X167469379Y-90337186D01*
X167460416Y-90326842D01*
X167457213Y-90304569D01*
X167449351Y-90283489D01*
X167452259Y-90270116D01*
X167450312Y-90256568D01*
X167459659Y-90236101D01*
X167464442Y-90214115D01*
X167477927Y-90196101D01*
X167479806Y-90191988D01*
X167485935Y-90185405D01*
X167603935Y-90067405D01*
X167666247Y-90033379D01*
X167693030Y-90030500D01*
X171296971Y-90030500D01*
X171365092Y-90050502D01*
G37*
%TD.AperFunction*%
%TA.AperFunction,Conductor*%
G36*
X178734270Y-89215418D02*
G01*
X178749030Y-89216474D01*
X178766167Y-89229303D01*
X178785798Y-89237848D01*
X178802662Y-89256622D01*
X178805866Y-89259021D01*
X178809746Y-89264503D01*
X178825433Y-89287981D01*
X178825436Y-89287984D01*
X178825439Y-89287988D01*
X178967011Y-89429560D01*
X178967017Y-89429565D01*
X178967019Y-89429567D01*
X179133507Y-89540810D01*
X179318498Y-89617436D01*
X179514884Y-89656500D01*
X179715116Y-89656500D01*
X179911502Y-89617436D01*
X180096493Y-89540810D01*
X180262981Y-89429567D01*
X180262988Y-89429560D01*
X180269405Y-89423144D01*
X180331717Y-89389118D01*
X180402532Y-89394183D01*
X180459368Y-89436730D01*
X180484179Y-89503250D01*
X180484500Y-89512239D01*
X180484500Y-90169463D01*
X180464498Y-90237584D01*
X180410842Y-90284077D01*
X180340568Y-90294181D01*
X180299109Y-90280588D01*
X180296494Y-90279190D01*
X180111505Y-90202565D01*
X180111502Y-90202564D01*
X179915119Y-90163500D01*
X179915116Y-90163500D01*
X179714884Y-90163500D01*
X179714880Y-90163500D01*
X179518497Y-90202564D01*
X179518494Y-90202565D01*
X179333507Y-90279190D01*
X179167017Y-90390434D01*
X179167011Y-90390439D01*
X179025439Y-90532011D01*
X179025434Y-90532017D01*
X178914189Y-90698507D01*
X178914189Y-90698508D01*
X178882650Y-90774648D01*
X178838101Y-90829928D01*
X178798862Y-90848132D01*
X178793170Y-90849657D01*
X178793165Y-90849659D01*
X178721319Y-90891139D01*
X178721320Y-90891140D01*
X178712333Y-90896328D01*
X178712325Y-90896334D01*
X178239595Y-91369065D01*
X178177283Y-91403091D01*
X178106468Y-91398026D01*
X178049632Y-91355479D01*
X178024821Y-91288959D01*
X178024500Y-91279970D01*
X178024500Y-89889029D01*
X178044502Y-89820908D01*
X178061400Y-89799938D01*
X178615904Y-89245433D01*
X178634691Y-89235175D01*
X178650619Y-89220869D01*
X178665227Y-89218501D01*
X178678215Y-89211410D01*
X178699566Y-89212936D01*
X178720701Y-89209512D01*
X178734270Y-89215418D01*
G37*
%TD.AperFunction*%
%TD*%
M02*
