M48
; DRILL file {KiCad 9.0.7} date 2026-02-15T23:40:46+0530
; FORMAT={-:-/ absolute / metric / decimal}
; #@! TF.CreationDate,2026-02-15T23:40:46+05:30
; #@! TF.GenerationSoftware,Kicad,Pcbnew,9.0.7
; #@! TF.FileFunction,Plated,1,2,PTH
FMAT,2
METRIC
; #@! TA.AperFunction,Plated,PTH,ViaDrill
T1C0.200
; #@! TA.AperFunction,Plated,PTH,ComponentDrill
T2C0.200
; #@! TA.AperFunction,Plated,PTH,ViaDrill
T3C0.300
; #@! TA.AperFunction,Plated,PTH,ViaDrill
T4C0.400
; #@! TA.AperFunction,Plated,PTH,ComponentDrill
T5C0.889
%
G90
G05
T1
X160.81Y-98.8
X161.91Y-91.12
X162.441Y-94.76
X162.98Y-99.4
X163.04Y-95.26
X163.56Y-91.12
X164.59Y-102.39
X165.48Y-101.23
X165.63Y-110.11
X165.76Y-111.843
X165.83Y-100.73
X166.49Y-111.843
X166.68Y-110.91
X167.289Y-106.615
X167.425Y-108.61
X167.55Y-97.265
X168.05Y-96.861
X168.12Y-109.61
X168.239Y-106.799
X168.41Y-113.41
X168.55Y-107.59
X168.55Y-97.28
X169.051Y-96.861
X169.97Y-109.61
X170.78Y-106.114
X171.88Y-104.569
X172.25Y-98.41
X172.276Y-104.116
X172.41Y-101.915
X172.418Y-102.73
X172.885Y-99.044
X173.071Y-98.42
X173.55Y-101.415
X175.181Y-104.223
X175.19Y-105.58
X175.66Y-96.26
X176.05Y-95.64
X176.12Y-94.45
X176.52Y-106.69
X176.52Y-107.76
X176.52Y-108.36
X176.52Y-108.96
X176.63Y-95.05
T2
X167.325Y-102.48
X168.8Y-101.005
X168.8Y-102.48
X168.8Y-103.955
X170.275Y-102.48
T3
X157.56Y-112.75
X157.64Y-97.47
X157.65Y-102.54
X157.92Y-100.06
X157.97Y-87.39
X158.32Y-95.36
X159.27Y-89.68
X160.37Y-100.06
X160.6Y-110.401
X160.899Y-106.179
X161.34Y-108.77
X162.65Y-115.03
X163.52Y-104.41
X165.59Y-115.22
X169.56Y-110.91
X169.57Y-108.31
X170.29Y-90.57
X170.79Y-115.31
X172.2Y-105.5
X172.66Y-93.55
X173.38Y-115.33
X175.85Y-114.07
X176.98Y-98.08
X177.17Y-100.08
X178.33Y-102.76
X178.56Y-95.43
X178.78Y-90.17
X178.78Y-112.66
X178.79Y-110.28
X178.89Y-92.48
T4
X162.461Y-85.4
X164.705Y-89.275
X171.54Y-88.52
X173.602Y-102.571
X174.109Y-85.4
T5
X156.755Y-86.1
X156.755Y-91.18
X156.755Y-96.26
X156.755Y-101.34
X156.755Y-106.42
X156.755Y-111.5
X156.955Y-88.64
X156.955Y-93.72
X156.955Y-98.8
X156.955Y-103.88
X156.955Y-108.96
X156.955Y-114.04
X159.395Y-116.45
X161.935Y-116.25
X164.475Y-116.45
X167.015Y-116.25
X169.555Y-116.45
X172.095Y-116.25
X174.635Y-116.25
X177.175Y-116.45
X179.615Y-88.64
X179.615Y-93.72
X179.615Y-98.8
X179.615Y-103.88
X179.615Y-108.96
X179.615Y-114.04
X179.815Y-86.1
X179.815Y-91.18
X179.815Y-96.26
X179.815Y-101.34
X179.815Y-106.42
X179.815Y-111.5
M30
