%TF.GenerationSoftware,KiCad,Pcbnew,9.0.7*%
%TF.CreationDate,2026-02-15T23:40:45+05:30*%
%TF.ProjectId,zepto,7a657074-6f2e-46b6-9963-61645f706362,Mark3*%
%TF.SameCoordinates,Original*%
%TF.FileFunction,Paste,Top*%
%TF.FilePolarity,Positive*%
%FSLAX46Y46*%
G04 Gerber Fmt 4.6, Leading zero omitted, Abs format (unit mm)*
G04 Created by KiCad (PCBNEW 9.0.7) date 2026-02-15 23:40:45*
%MOMM*%
%LPD*%
G01*
G04 APERTURE LIST*
G04 Aperture macros list*
%AMRoundRect*
0 Rectangle with rounded corners*
0 $1 Rounding radius*
0 $2 $3 $4 $5 $6 $7 $8 $9 X,Y pos of 4 corners*
0 Add a 4 corners polygon primitive as box body*
4,1,4,$2,$3,$4,$5,$6,$7,$8,$9,$2,$3,0*
0 Add four circle primitives for the rounded corners*
1,1,$1+$1,$2,$3*
1,1,$1+$1,$4,$5*
1,1,$1+$1,$6,$7*
1,1,$1+$1,$8,$9*
0 Add four rect primitives between the rounded corners*
20,1,$1+$1,$2,$3,$4,$5,0*
20,1,$1+$1,$4,$5,$6,$7,0*
20,1,$1+$1,$6,$7,$8,$9,0*
20,1,$1+$1,$8,$9,$2,$3,0*%
G04 Aperture macros list end*
%ADD10C,0.010000*%
%ADD11R,0.600000X1.550000*%
%ADD12R,1.200000X1.800000*%
%ADD13RoundRect,0.218750X-0.218750X-0.256250X0.218750X-0.256250X0.218750X0.256250X-0.218750X0.256250X0*%
%ADD14RoundRect,0.200000X-0.200000X-0.275000X0.200000X-0.275000X0.200000X0.275000X-0.200000X0.275000X0*%
%ADD15RoundRect,0.225000X-0.225000X-0.250000X0.225000X-0.250000X0.225000X0.250000X-0.225000X0.250000X0*%
%ADD16RoundRect,0.225000X0.225000X0.250000X-0.225000X0.250000X-0.225000X-0.250000X0.225000X-0.250000X0*%
%ADD17RoundRect,0.218750X0.218750X0.256250X-0.218750X0.256250X-0.218750X-0.256250X0.218750X-0.256250X0*%
%ADD18RoundRect,0.225000X-0.250000X0.225000X-0.250000X-0.225000X0.250000X-0.225000X0.250000X0.225000X0*%
%ADD19RoundRect,0.200000X0.200000X0.275000X-0.200000X0.275000X-0.200000X-0.275000X0.200000X-0.275000X0*%
%ADD20R,0.650000X1.050000*%
%ADD21RoundRect,0.050000X-0.250000X-0.075000X0.250000X-0.075000X0.250000X0.075000X-0.250000X0.075000X0*%
%ADD22RoundRect,0.050000X-0.075000X-0.250000X0.075000X-0.250000X0.075000X0.250000X-0.075000X0.250000X0*%
%ADD23RoundRect,0.225000X0.250000X-0.225000X0.250000X0.225000X-0.250000X0.225000X-0.250000X-0.225000X0*%
%ADD24RoundRect,0.200000X0.275000X-0.200000X0.275000X0.200000X-0.275000X0.200000X-0.275000X-0.200000X0*%
%ADD25RoundRect,0.125000X-0.125000X-0.125000X0.125000X-0.125000X0.125000X0.125000X-0.125000X0.125000X0*%
G04 APERTURE END LIST*
D10*
%TO.C,U1*%
X168658000Y-100891000D02*
X168660000Y-100891000D01*
X168663000Y-100892000D01*
X168665000Y-100892000D01*
X168668000Y-100893000D01*
X168670000Y-100894000D01*
X168673000Y-100895000D01*
X168675000Y-100897000D01*
X168677000Y-100898000D01*
X168679000Y-100900000D01*
X168681000Y-100901000D01*
X168683000Y-100903000D01*
X168685000Y-100905000D01*
X168687000Y-100907000D01*
X168689000Y-100909000D01*
X168690000Y-100911000D01*
X168692000Y-100913000D01*
X168693000Y-100915000D01*
X168695000Y-100917000D01*
X168696000Y-100920000D01*
X168697000Y-100922000D01*
X168698000Y-100925000D01*
X168698000Y-100927000D01*
X168699000Y-100930000D01*
X168699000Y-100932000D01*
X168700000Y-100935000D01*
X168700000Y-100937000D01*
X168700000Y-100940000D01*
X168700000Y-102330000D01*
X168700000Y-102333000D01*
X168700000Y-102335000D01*
X168699000Y-102338000D01*
X168699000Y-102340000D01*
X168698000Y-102343000D01*
X168698000Y-102345000D01*
X168697000Y-102348000D01*
X168696000Y-102350000D01*
X168695000Y-102353000D01*
X168693000Y-102355000D01*
X168692000Y-102357000D01*
X168690000Y-102359000D01*
X168689000Y-102361000D01*
X168687000Y-102363000D01*
X168685000Y-102365000D01*
X168683000Y-102367000D01*
X168681000Y-102369000D01*
X168679000Y-102370000D01*
X168677000Y-102372000D01*
X168675000Y-102373000D01*
X168673000Y-102375000D01*
X168670000Y-102376000D01*
X168668000Y-102377000D01*
X168665000Y-102378000D01*
X168663000Y-102378000D01*
X168660000Y-102379000D01*
X168658000Y-102379000D01*
X168655000Y-102380000D01*
X168653000Y-102380000D01*
X168650000Y-102380000D01*
X167260000Y-102380000D01*
X167257000Y-102380000D01*
X167255000Y-102380000D01*
X167252000Y-102379000D01*
X167250000Y-102379000D01*
X167247000Y-102378000D01*
X167245000Y-102378000D01*
X167242000Y-102377000D01*
X167240000Y-102376000D01*
X167237000Y-102375000D01*
X167235000Y-102373000D01*
X167233000Y-102372000D01*
X167231000Y-102370000D01*
X167229000Y-102369000D01*
X167227000Y-102367000D01*
X167225000Y-102365000D01*
X167223000Y-102363000D01*
X167221000Y-102361000D01*
X167220000Y-102359000D01*
X167218000Y-102357000D01*
X167217000Y-102355000D01*
X167215000Y-102353000D01*
X167214000Y-102350000D01*
X167213000Y-102348000D01*
X167212000Y-102345000D01*
X167212000Y-102343000D01*
X167211000Y-102340000D01*
X167211000Y-102338000D01*
X167210000Y-102335000D01*
X167210000Y-102333000D01*
X167210000Y-102330000D01*
X167210000Y-100940000D01*
X167210000Y-100937000D01*
X167210000Y-100935000D01*
X167211000Y-100932000D01*
X167211000Y-100930000D01*
X167212000Y-100927000D01*
X167212000Y-100925000D01*
X167213000Y-100922000D01*
X167214000Y-100920000D01*
X167215000Y-100917000D01*
X167217000Y-100915000D01*
X167218000Y-100913000D01*
X167220000Y-100911000D01*
X167221000Y-100909000D01*
X167223000Y-100907000D01*
X167225000Y-100905000D01*
X167227000Y-100903000D01*
X167229000Y-100901000D01*
X167231000Y-100900000D01*
X167233000Y-100898000D01*
X167235000Y-100897000D01*
X167237000Y-100895000D01*
X167240000Y-100894000D01*
X167242000Y-100893000D01*
X167245000Y-100892000D01*
X167247000Y-100892000D01*
X167250000Y-100891000D01*
X167252000Y-100891000D01*
X167255000Y-100890000D01*
X167257000Y-100890000D01*
X167260000Y-100890000D01*
X168650000Y-100890000D01*
X168653000Y-100890000D01*
X168655000Y-100890000D01*
X168658000Y-100891000D01*
G36*
X168658000Y-100891000D02*
G01*
X168660000Y-100891000D01*
X168663000Y-100892000D01*
X168665000Y-100892000D01*
X168668000Y-100893000D01*
X168670000Y-100894000D01*
X168673000Y-100895000D01*
X168675000Y-100897000D01*
X168677000Y-100898000D01*
X168679000Y-100900000D01*
X168681000Y-100901000D01*
X168683000Y-100903000D01*
X168685000Y-100905000D01*
X168687000Y-100907000D01*
X168689000Y-100909000D01*
X168690000Y-100911000D01*
X168692000Y-100913000D01*
X168693000Y-100915000D01*
X168695000Y-100917000D01*
X168696000Y-100920000D01*
X168697000Y-100922000D01*
X168698000Y-100925000D01*
X168698000Y-100927000D01*
X168699000Y-100930000D01*
X168699000Y-100932000D01*
X168700000Y-100935000D01*
X168700000Y-100937000D01*
X168700000Y-100940000D01*
X168700000Y-102330000D01*
X168700000Y-102333000D01*
X168700000Y-102335000D01*
X168699000Y-102338000D01*
X168699000Y-102340000D01*
X168698000Y-102343000D01*
X168698000Y-102345000D01*
X168697000Y-102348000D01*
X168696000Y-102350000D01*
X168695000Y-102353000D01*
X168693000Y-102355000D01*
X168692000Y-102357000D01*
X168690000Y-102359000D01*
X168689000Y-102361000D01*
X168687000Y-102363000D01*
X168685000Y-102365000D01*
X168683000Y-102367000D01*
X168681000Y-102369000D01*
X168679000Y-102370000D01*
X168677000Y-102372000D01*
X168675000Y-102373000D01*
X168673000Y-102375000D01*
X168670000Y-102376000D01*
X168668000Y-102377000D01*
X168665000Y-102378000D01*
X168663000Y-102378000D01*
X168660000Y-102379000D01*
X168658000Y-102379000D01*
X168655000Y-102380000D01*
X168653000Y-102380000D01*
X168650000Y-102380000D01*
X167260000Y-102380000D01*
X167257000Y-102380000D01*
X167255000Y-102380000D01*
X167252000Y-102379000D01*
X167250000Y-102379000D01*
X167247000Y-102378000D01*
X167245000Y-102378000D01*
X167242000Y-102377000D01*
X167240000Y-102376000D01*
X167237000Y-102375000D01*
X167235000Y-102373000D01*
X167233000Y-102372000D01*
X167231000Y-102370000D01*
X167229000Y-102369000D01*
X167227000Y-102367000D01*
X167225000Y-102365000D01*
X167223000Y-102363000D01*
X167221000Y-102361000D01*
X167220000Y-102359000D01*
X167218000Y-102357000D01*
X167217000Y-102355000D01*
X167215000Y-102353000D01*
X167214000Y-102350000D01*
X167213000Y-102348000D01*
X167212000Y-102345000D01*
X167212000Y-102343000D01*
X167211000Y-102340000D01*
X167211000Y-102338000D01*
X167210000Y-102335000D01*
X167210000Y-102333000D01*
X167210000Y-102330000D01*
X167210000Y-100940000D01*
X167210000Y-100937000D01*
X167210000Y-100935000D01*
X167211000Y-100932000D01*
X167211000Y-100930000D01*
X167212000Y-100927000D01*
X167212000Y-100925000D01*
X167213000Y-100922000D01*
X167214000Y-100920000D01*
X167215000Y-100917000D01*
X167217000Y-100915000D01*
X167218000Y-100913000D01*
X167220000Y-100911000D01*
X167221000Y-100909000D01*
X167223000Y-100907000D01*
X167225000Y-100905000D01*
X167227000Y-100903000D01*
X167229000Y-100901000D01*
X167231000Y-100900000D01*
X167233000Y-100898000D01*
X167235000Y-100897000D01*
X167237000Y-100895000D01*
X167240000Y-100894000D01*
X167242000Y-100893000D01*
X167245000Y-100892000D01*
X167247000Y-100892000D01*
X167250000Y-100891000D01*
X167252000Y-100891000D01*
X167255000Y-100890000D01*
X167257000Y-100890000D01*
X167260000Y-100890000D01*
X168650000Y-100890000D01*
X168653000Y-100890000D01*
X168655000Y-100890000D01*
X168658000Y-100891000D01*
G37*
X168658000Y-102581000D02*
X168660000Y-102581000D01*
X168663000Y-102582000D01*
X168665000Y-102582000D01*
X168668000Y-102583000D01*
X168670000Y-102584000D01*
X168673000Y-102585000D01*
X168675000Y-102587000D01*
X168677000Y-102588000D01*
X168679000Y-102590000D01*
X168681000Y-102591000D01*
X168683000Y-102593000D01*
X168685000Y-102595000D01*
X168687000Y-102597000D01*
X168689000Y-102599000D01*
X168690000Y-102601000D01*
X168692000Y-102603000D01*
X168693000Y-102605000D01*
X168695000Y-102607000D01*
X168696000Y-102610000D01*
X168697000Y-102612000D01*
X168698000Y-102615000D01*
X168698000Y-102617000D01*
X168699000Y-102620000D01*
X168699000Y-102622000D01*
X168700000Y-102625000D01*
X168700000Y-102627000D01*
X168700000Y-102630000D01*
X168700000Y-104020000D01*
X168700000Y-104023000D01*
X168700000Y-104025000D01*
X168699000Y-104028000D01*
X168699000Y-104030000D01*
X168698000Y-104033000D01*
X168698000Y-104035000D01*
X168697000Y-104038000D01*
X168696000Y-104040000D01*
X168695000Y-104043000D01*
X168693000Y-104045000D01*
X168692000Y-104047000D01*
X168690000Y-104049000D01*
X168689000Y-104051000D01*
X168687000Y-104053000D01*
X168685000Y-104055000D01*
X168683000Y-104057000D01*
X168681000Y-104059000D01*
X168679000Y-104060000D01*
X168677000Y-104062000D01*
X168675000Y-104063000D01*
X168673000Y-104065000D01*
X168670000Y-104066000D01*
X168668000Y-104067000D01*
X168665000Y-104068000D01*
X168663000Y-104068000D01*
X168660000Y-104069000D01*
X168658000Y-104069000D01*
X168655000Y-104070000D01*
X168653000Y-104070000D01*
X168650000Y-104070000D01*
X167260000Y-104070000D01*
X167257000Y-104070000D01*
X167255000Y-104070000D01*
X167252000Y-104069000D01*
X167250000Y-104069000D01*
X167247000Y-104068000D01*
X167245000Y-104068000D01*
X167242000Y-104067000D01*
X167240000Y-104066000D01*
X167237000Y-104065000D01*
X167235000Y-104063000D01*
X167233000Y-104062000D01*
X167231000Y-104060000D01*
X167229000Y-104059000D01*
X167227000Y-104057000D01*
X167225000Y-104055000D01*
X167223000Y-104053000D01*
X167221000Y-104051000D01*
X167220000Y-104049000D01*
X167218000Y-104047000D01*
X167217000Y-104045000D01*
X167215000Y-104043000D01*
X167214000Y-104040000D01*
X167213000Y-104038000D01*
X167212000Y-104035000D01*
X167212000Y-104033000D01*
X167211000Y-104030000D01*
X167211000Y-104028000D01*
X167210000Y-104025000D01*
X167210000Y-104023000D01*
X167210000Y-104020000D01*
X167210000Y-102630000D01*
X167210000Y-102627000D01*
X167210000Y-102625000D01*
X167211000Y-102622000D01*
X167211000Y-102620000D01*
X167212000Y-102617000D01*
X167212000Y-102615000D01*
X167213000Y-102612000D01*
X167214000Y-102610000D01*
X167215000Y-102607000D01*
X167217000Y-102605000D01*
X167218000Y-102603000D01*
X167220000Y-102601000D01*
X167221000Y-102599000D01*
X167223000Y-102597000D01*
X167225000Y-102595000D01*
X167227000Y-102593000D01*
X167229000Y-102591000D01*
X167231000Y-102590000D01*
X167233000Y-102588000D01*
X167235000Y-102587000D01*
X167237000Y-102585000D01*
X167240000Y-102584000D01*
X167242000Y-102583000D01*
X167245000Y-102582000D01*
X167247000Y-102582000D01*
X167250000Y-102581000D01*
X167252000Y-102581000D01*
X167255000Y-102580000D01*
X167257000Y-102580000D01*
X167260000Y-102580000D01*
X168650000Y-102580000D01*
X168653000Y-102580000D01*
X168655000Y-102580000D01*
X168658000Y-102581000D01*
G36*
X168658000Y-102581000D02*
G01*
X168660000Y-102581000D01*
X168663000Y-102582000D01*
X168665000Y-102582000D01*
X168668000Y-102583000D01*
X168670000Y-102584000D01*
X168673000Y-102585000D01*
X168675000Y-102587000D01*
X168677000Y-102588000D01*
X168679000Y-102590000D01*
X168681000Y-102591000D01*
X168683000Y-102593000D01*
X168685000Y-102595000D01*
X168687000Y-102597000D01*
X168689000Y-102599000D01*
X168690000Y-102601000D01*
X168692000Y-102603000D01*
X168693000Y-102605000D01*
X168695000Y-102607000D01*
X168696000Y-102610000D01*
X168697000Y-102612000D01*
X168698000Y-102615000D01*
X168698000Y-102617000D01*
X168699000Y-102620000D01*
X168699000Y-102622000D01*
X168700000Y-102625000D01*
X168700000Y-102627000D01*
X168700000Y-102630000D01*
X168700000Y-104020000D01*
X168700000Y-104023000D01*
X168700000Y-104025000D01*
X168699000Y-104028000D01*
X168699000Y-104030000D01*
X168698000Y-104033000D01*
X168698000Y-104035000D01*
X168697000Y-104038000D01*
X168696000Y-104040000D01*
X168695000Y-104043000D01*
X168693000Y-104045000D01*
X168692000Y-104047000D01*
X168690000Y-104049000D01*
X168689000Y-104051000D01*
X168687000Y-104053000D01*
X168685000Y-104055000D01*
X168683000Y-104057000D01*
X168681000Y-104059000D01*
X168679000Y-104060000D01*
X168677000Y-104062000D01*
X168675000Y-104063000D01*
X168673000Y-104065000D01*
X168670000Y-104066000D01*
X168668000Y-104067000D01*
X168665000Y-104068000D01*
X168663000Y-104068000D01*
X168660000Y-104069000D01*
X168658000Y-104069000D01*
X168655000Y-104070000D01*
X168653000Y-104070000D01*
X168650000Y-104070000D01*
X167260000Y-104070000D01*
X167257000Y-104070000D01*
X167255000Y-104070000D01*
X167252000Y-104069000D01*
X167250000Y-104069000D01*
X167247000Y-104068000D01*
X167245000Y-104068000D01*
X167242000Y-104067000D01*
X167240000Y-104066000D01*
X167237000Y-104065000D01*
X167235000Y-104063000D01*
X167233000Y-104062000D01*
X167231000Y-104060000D01*
X167229000Y-104059000D01*
X167227000Y-104057000D01*
X167225000Y-104055000D01*
X167223000Y-104053000D01*
X167221000Y-104051000D01*
X167220000Y-104049000D01*
X167218000Y-104047000D01*
X167217000Y-104045000D01*
X167215000Y-104043000D01*
X167214000Y-104040000D01*
X167213000Y-104038000D01*
X167212000Y-104035000D01*
X167212000Y-104033000D01*
X167211000Y-104030000D01*
X167211000Y-104028000D01*
X167210000Y-104025000D01*
X167210000Y-104023000D01*
X167210000Y-104020000D01*
X167210000Y-102630000D01*
X167210000Y-102627000D01*
X167210000Y-102625000D01*
X167211000Y-102622000D01*
X167211000Y-102620000D01*
X167212000Y-102617000D01*
X167212000Y-102615000D01*
X167213000Y-102612000D01*
X167214000Y-102610000D01*
X167215000Y-102607000D01*
X167217000Y-102605000D01*
X167218000Y-102603000D01*
X167220000Y-102601000D01*
X167221000Y-102599000D01*
X167223000Y-102597000D01*
X167225000Y-102595000D01*
X167227000Y-102593000D01*
X167229000Y-102591000D01*
X167231000Y-102590000D01*
X167233000Y-102588000D01*
X167235000Y-102587000D01*
X167237000Y-102585000D01*
X167240000Y-102584000D01*
X167242000Y-102583000D01*
X167245000Y-102582000D01*
X167247000Y-102582000D01*
X167250000Y-102581000D01*
X167252000Y-102581000D01*
X167255000Y-102580000D01*
X167257000Y-102580000D01*
X167260000Y-102580000D01*
X168650000Y-102580000D01*
X168653000Y-102580000D01*
X168655000Y-102580000D01*
X168658000Y-102581000D01*
G37*
X170348000Y-100891000D02*
X170350000Y-100891000D01*
X170353000Y-100892000D01*
X170355000Y-100892000D01*
X170358000Y-100893000D01*
X170360000Y-100894000D01*
X170363000Y-100895000D01*
X170365000Y-100897000D01*
X170367000Y-100898000D01*
X170369000Y-100900000D01*
X170371000Y-100901000D01*
X170373000Y-100903000D01*
X170375000Y-100905000D01*
X170377000Y-100907000D01*
X170379000Y-100909000D01*
X170380000Y-100911000D01*
X170382000Y-100913000D01*
X170383000Y-100915000D01*
X170385000Y-100917000D01*
X170386000Y-100920000D01*
X170387000Y-100922000D01*
X170388000Y-100925000D01*
X170388000Y-100927000D01*
X170389000Y-100930000D01*
X170389000Y-100932000D01*
X170390000Y-100935000D01*
X170390000Y-100937000D01*
X170390000Y-100940000D01*
X170390000Y-102330000D01*
X170390000Y-102333000D01*
X170390000Y-102335000D01*
X170389000Y-102338000D01*
X170389000Y-102340000D01*
X170388000Y-102343000D01*
X170388000Y-102345000D01*
X170387000Y-102348000D01*
X170386000Y-102350000D01*
X170385000Y-102353000D01*
X170383000Y-102355000D01*
X170382000Y-102357000D01*
X170380000Y-102359000D01*
X170379000Y-102361000D01*
X170377000Y-102363000D01*
X170375000Y-102365000D01*
X170373000Y-102367000D01*
X170371000Y-102369000D01*
X170369000Y-102370000D01*
X170367000Y-102372000D01*
X170365000Y-102373000D01*
X170363000Y-102375000D01*
X170360000Y-102376000D01*
X170358000Y-102377000D01*
X170355000Y-102378000D01*
X170353000Y-102378000D01*
X170350000Y-102379000D01*
X170348000Y-102379000D01*
X170345000Y-102380000D01*
X170343000Y-102380000D01*
X170340000Y-102380000D01*
X168950000Y-102380000D01*
X168947000Y-102380000D01*
X168945000Y-102380000D01*
X168942000Y-102379000D01*
X168940000Y-102379000D01*
X168937000Y-102378000D01*
X168935000Y-102378000D01*
X168932000Y-102377000D01*
X168930000Y-102376000D01*
X168927000Y-102375000D01*
X168925000Y-102373000D01*
X168923000Y-102372000D01*
X168921000Y-102370000D01*
X168919000Y-102369000D01*
X168917000Y-102367000D01*
X168915000Y-102365000D01*
X168913000Y-102363000D01*
X168911000Y-102361000D01*
X168910000Y-102359000D01*
X168908000Y-102357000D01*
X168907000Y-102355000D01*
X168905000Y-102353000D01*
X168904000Y-102350000D01*
X168903000Y-102348000D01*
X168902000Y-102345000D01*
X168902000Y-102343000D01*
X168901000Y-102340000D01*
X168901000Y-102338000D01*
X168900000Y-102335000D01*
X168900000Y-102333000D01*
X168900000Y-102330000D01*
X168900000Y-100940000D01*
X168900000Y-100937000D01*
X168900000Y-100935000D01*
X168901000Y-100932000D01*
X168901000Y-100930000D01*
X168902000Y-100927000D01*
X168902000Y-100925000D01*
X168903000Y-100922000D01*
X168904000Y-100920000D01*
X168905000Y-100917000D01*
X168907000Y-100915000D01*
X168908000Y-100913000D01*
X168910000Y-100911000D01*
X168911000Y-100909000D01*
X168913000Y-100907000D01*
X168915000Y-100905000D01*
X168917000Y-100903000D01*
X168919000Y-100901000D01*
X168921000Y-100900000D01*
X168923000Y-100898000D01*
X168925000Y-100897000D01*
X168927000Y-100895000D01*
X168930000Y-100894000D01*
X168932000Y-100893000D01*
X168935000Y-100892000D01*
X168937000Y-100892000D01*
X168940000Y-100891000D01*
X168942000Y-100891000D01*
X168945000Y-100890000D01*
X168947000Y-100890000D01*
X168950000Y-100890000D01*
X170340000Y-100890000D01*
X170343000Y-100890000D01*
X170345000Y-100890000D01*
X170348000Y-100891000D01*
G36*
X170348000Y-100891000D02*
G01*
X170350000Y-100891000D01*
X170353000Y-100892000D01*
X170355000Y-100892000D01*
X170358000Y-100893000D01*
X170360000Y-100894000D01*
X170363000Y-100895000D01*
X170365000Y-100897000D01*
X170367000Y-100898000D01*
X170369000Y-100900000D01*
X170371000Y-100901000D01*
X170373000Y-100903000D01*
X170375000Y-100905000D01*
X170377000Y-100907000D01*
X170379000Y-100909000D01*
X170380000Y-100911000D01*
X170382000Y-100913000D01*
X170383000Y-100915000D01*
X170385000Y-100917000D01*
X170386000Y-100920000D01*
X170387000Y-100922000D01*
X170388000Y-100925000D01*
X170388000Y-100927000D01*
X170389000Y-100930000D01*
X170389000Y-100932000D01*
X170390000Y-100935000D01*
X170390000Y-100937000D01*
X170390000Y-100940000D01*
X170390000Y-102330000D01*
X170390000Y-102333000D01*
X170390000Y-102335000D01*
X170389000Y-102338000D01*
X170389000Y-102340000D01*
X170388000Y-102343000D01*
X170388000Y-102345000D01*
X170387000Y-102348000D01*
X170386000Y-102350000D01*
X170385000Y-102353000D01*
X170383000Y-102355000D01*
X170382000Y-102357000D01*
X170380000Y-102359000D01*
X170379000Y-102361000D01*
X170377000Y-102363000D01*
X170375000Y-102365000D01*
X170373000Y-102367000D01*
X170371000Y-102369000D01*
X170369000Y-102370000D01*
X170367000Y-102372000D01*
X170365000Y-102373000D01*
X170363000Y-102375000D01*
X170360000Y-102376000D01*
X170358000Y-102377000D01*
X170355000Y-102378000D01*
X170353000Y-102378000D01*
X170350000Y-102379000D01*
X170348000Y-102379000D01*
X170345000Y-102380000D01*
X170343000Y-102380000D01*
X170340000Y-102380000D01*
X168950000Y-102380000D01*
X168947000Y-102380000D01*
X168945000Y-102380000D01*
X168942000Y-102379000D01*
X168940000Y-102379000D01*
X168937000Y-102378000D01*
X168935000Y-102378000D01*
X168932000Y-102377000D01*
X168930000Y-102376000D01*
X168927000Y-102375000D01*
X168925000Y-102373000D01*
X168923000Y-102372000D01*
X168921000Y-102370000D01*
X168919000Y-102369000D01*
X168917000Y-102367000D01*
X168915000Y-102365000D01*
X168913000Y-102363000D01*
X168911000Y-102361000D01*
X168910000Y-102359000D01*
X168908000Y-102357000D01*
X168907000Y-102355000D01*
X168905000Y-102353000D01*
X168904000Y-102350000D01*
X168903000Y-102348000D01*
X168902000Y-102345000D01*
X168902000Y-102343000D01*
X168901000Y-102340000D01*
X168901000Y-102338000D01*
X168900000Y-102335000D01*
X168900000Y-102333000D01*
X168900000Y-102330000D01*
X168900000Y-100940000D01*
X168900000Y-100937000D01*
X168900000Y-100935000D01*
X168901000Y-100932000D01*
X168901000Y-100930000D01*
X168902000Y-100927000D01*
X168902000Y-100925000D01*
X168903000Y-100922000D01*
X168904000Y-100920000D01*
X168905000Y-100917000D01*
X168907000Y-100915000D01*
X168908000Y-100913000D01*
X168910000Y-100911000D01*
X168911000Y-100909000D01*
X168913000Y-100907000D01*
X168915000Y-100905000D01*
X168917000Y-100903000D01*
X168919000Y-100901000D01*
X168921000Y-100900000D01*
X168923000Y-100898000D01*
X168925000Y-100897000D01*
X168927000Y-100895000D01*
X168930000Y-100894000D01*
X168932000Y-100893000D01*
X168935000Y-100892000D01*
X168937000Y-100892000D01*
X168940000Y-100891000D01*
X168942000Y-100891000D01*
X168945000Y-100890000D01*
X168947000Y-100890000D01*
X168950000Y-100890000D01*
X170340000Y-100890000D01*
X170343000Y-100890000D01*
X170345000Y-100890000D01*
X170348000Y-100891000D01*
G37*
X170348000Y-102581000D02*
X170350000Y-102581000D01*
X170353000Y-102582000D01*
X170355000Y-102582000D01*
X170358000Y-102583000D01*
X170360000Y-102584000D01*
X170363000Y-102585000D01*
X170365000Y-102587000D01*
X170367000Y-102588000D01*
X170369000Y-102590000D01*
X170371000Y-102591000D01*
X170373000Y-102593000D01*
X170375000Y-102595000D01*
X170377000Y-102597000D01*
X170379000Y-102599000D01*
X170380000Y-102601000D01*
X170382000Y-102603000D01*
X170383000Y-102605000D01*
X170385000Y-102607000D01*
X170386000Y-102610000D01*
X170387000Y-102612000D01*
X170388000Y-102615000D01*
X170388000Y-102617000D01*
X170389000Y-102620000D01*
X170389000Y-102622000D01*
X170390000Y-102625000D01*
X170390000Y-102627000D01*
X170390000Y-102630000D01*
X170390000Y-104020000D01*
X170390000Y-104023000D01*
X170390000Y-104025000D01*
X170389000Y-104028000D01*
X170389000Y-104030000D01*
X170388000Y-104033000D01*
X170388000Y-104035000D01*
X170387000Y-104038000D01*
X170386000Y-104040000D01*
X170385000Y-104043000D01*
X170383000Y-104045000D01*
X170382000Y-104047000D01*
X170380000Y-104049000D01*
X170379000Y-104051000D01*
X170377000Y-104053000D01*
X170375000Y-104055000D01*
X170373000Y-104057000D01*
X170371000Y-104059000D01*
X170369000Y-104060000D01*
X170367000Y-104062000D01*
X170365000Y-104063000D01*
X170363000Y-104065000D01*
X170360000Y-104066000D01*
X170358000Y-104067000D01*
X170355000Y-104068000D01*
X170353000Y-104068000D01*
X170350000Y-104069000D01*
X170348000Y-104069000D01*
X170345000Y-104070000D01*
X170343000Y-104070000D01*
X170340000Y-104070000D01*
X168950000Y-104070000D01*
X168947000Y-104070000D01*
X168945000Y-104070000D01*
X168942000Y-104069000D01*
X168940000Y-104069000D01*
X168937000Y-104068000D01*
X168935000Y-104068000D01*
X168932000Y-104067000D01*
X168930000Y-104066000D01*
X168927000Y-104065000D01*
X168925000Y-104063000D01*
X168923000Y-104062000D01*
X168921000Y-104060000D01*
X168919000Y-104059000D01*
X168917000Y-104057000D01*
X168915000Y-104055000D01*
X168913000Y-104053000D01*
X168911000Y-104051000D01*
X168910000Y-104049000D01*
X168908000Y-104047000D01*
X168907000Y-104045000D01*
X168905000Y-104043000D01*
X168904000Y-104040000D01*
X168903000Y-104038000D01*
X168902000Y-104035000D01*
X168902000Y-104033000D01*
X168901000Y-104030000D01*
X168901000Y-104028000D01*
X168900000Y-104025000D01*
X168900000Y-104023000D01*
X168900000Y-104020000D01*
X168900000Y-102630000D01*
X168900000Y-102627000D01*
X168900000Y-102625000D01*
X168901000Y-102622000D01*
X168901000Y-102620000D01*
X168902000Y-102617000D01*
X168902000Y-102615000D01*
X168903000Y-102612000D01*
X168904000Y-102610000D01*
X168905000Y-102607000D01*
X168907000Y-102605000D01*
X168908000Y-102603000D01*
X168910000Y-102601000D01*
X168911000Y-102599000D01*
X168913000Y-102597000D01*
X168915000Y-102595000D01*
X168917000Y-102593000D01*
X168919000Y-102591000D01*
X168921000Y-102590000D01*
X168923000Y-102588000D01*
X168925000Y-102587000D01*
X168927000Y-102585000D01*
X168930000Y-102584000D01*
X168932000Y-102583000D01*
X168935000Y-102582000D01*
X168937000Y-102582000D01*
X168940000Y-102581000D01*
X168942000Y-102581000D01*
X168945000Y-102580000D01*
X168947000Y-102580000D01*
X168950000Y-102580000D01*
X170340000Y-102580000D01*
X170343000Y-102580000D01*
X170345000Y-102580000D01*
X170348000Y-102581000D01*
G36*
X170348000Y-102581000D02*
G01*
X170350000Y-102581000D01*
X170353000Y-102582000D01*
X170355000Y-102582000D01*
X170358000Y-102583000D01*
X170360000Y-102584000D01*
X170363000Y-102585000D01*
X170365000Y-102587000D01*
X170367000Y-102588000D01*
X170369000Y-102590000D01*
X170371000Y-102591000D01*
X170373000Y-102593000D01*
X170375000Y-102595000D01*
X170377000Y-102597000D01*
X170379000Y-102599000D01*
X170380000Y-102601000D01*
X170382000Y-102603000D01*
X170383000Y-102605000D01*
X170385000Y-102607000D01*
X170386000Y-102610000D01*
X170387000Y-102612000D01*
X170388000Y-102615000D01*
X170388000Y-102617000D01*
X170389000Y-102620000D01*
X170389000Y-102622000D01*
X170390000Y-102625000D01*
X170390000Y-102627000D01*
X170390000Y-102630000D01*
X170390000Y-104020000D01*
X170390000Y-104023000D01*
X170390000Y-104025000D01*
X170389000Y-104028000D01*
X170389000Y-104030000D01*
X170388000Y-104033000D01*
X170388000Y-104035000D01*
X170387000Y-104038000D01*
X170386000Y-104040000D01*
X170385000Y-104043000D01*
X170383000Y-104045000D01*
X170382000Y-104047000D01*
X170380000Y-104049000D01*
X170379000Y-104051000D01*
X170377000Y-104053000D01*
X170375000Y-104055000D01*
X170373000Y-104057000D01*
X170371000Y-104059000D01*
X170369000Y-104060000D01*
X170367000Y-104062000D01*
X170365000Y-104063000D01*
X170363000Y-104065000D01*
X170360000Y-104066000D01*
X170358000Y-104067000D01*
X170355000Y-104068000D01*
X170353000Y-104068000D01*
X170350000Y-104069000D01*
X170348000Y-104069000D01*
X170345000Y-104070000D01*
X170343000Y-104070000D01*
X170340000Y-104070000D01*
X168950000Y-104070000D01*
X168947000Y-104070000D01*
X168945000Y-104070000D01*
X168942000Y-104069000D01*
X168940000Y-104069000D01*
X168937000Y-104068000D01*
X168935000Y-104068000D01*
X168932000Y-104067000D01*
X168930000Y-104066000D01*
X168927000Y-104065000D01*
X168925000Y-104063000D01*
X168923000Y-104062000D01*
X168921000Y-104060000D01*
X168919000Y-104059000D01*
X168917000Y-104057000D01*
X168915000Y-104055000D01*
X168913000Y-104053000D01*
X168911000Y-104051000D01*
X168910000Y-104049000D01*
X168908000Y-104047000D01*
X168907000Y-104045000D01*
X168905000Y-104043000D01*
X168904000Y-104040000D01*
X168903000Y-104038000D01*
X168902000Y-104035000D01*
X168902000Y-104033000D01*
X168901000Y-104030000D01*
X168901000Y-104028000D01*
X168900000Y-104025000D01*
X168900000Y-104023000D01*
X168900000Y-104020000D01*
X168900000Y-102630000D01*
X168900000Y-102627000D01*
X168900000Y-102625000D01*
X168901000Y-102622000D01*
X168901000Y-102620000D01*
X168902000Y-102617000D01*
X168902000Y-102615000D01*
X168903000Y-102612000D01*
X168904000Y-102610000D01*
X168905000Y-102607000D01*
X168907000Y-102605000D01*
X168908000Y-102603000D01*
X168910000Y-102601000D01*
X168911000Y-102599000D01*
X168913000Y-102597000D01*
X168915000Y-102595000D01*
X168917000Y-102593000D01*
X168919000Y-102591000D01*
X168921000Y-102590000D01*
X168923000Y-102588000D01*
X168925000Y-102587000D01*
X168927000Y-102585000D01*
X168930000Y-102584000D01*
X168932000Y-102583000D01*
X168935000Y-102582000D01*
X168937000Y-102582000D01*
X168940000Y-102581000D01*
X168942000Y-102581000D01*
X168945000Y-102580000D01*
X168947000Y-102580000D01*
X168950000Y-102580000D01*
X170340000Y-102580000D01*
X170343000Y-102580000D01*
X170345000Y-102580000D01*
X170348000Y-102581000D01*
G37*
%TD*%
D11*
%TO.C,J2*%
X163960800Y-89275000D03*
X162960800Y-89275000D03*
X161960800Y-89275000D03*
X160960800Y-89275000D03*
D12*
X165260800Y-85400000D03*
X159660800Y-85400000D03*
%TD*%
D13*
%TO.C,D1*%
X167492500Y-92690000D03*
X169067500Y-92690000D03*
%TD*%
D14*
%TO.C,R2*%
X162960800Y-92690000D03*
X164610800Y-92690000D03*
%TD*%
D15*
%TO.C,C3*%
X172710000Y-104980000D03*
X174260000Y-104980000D03*
%TD*%
D16*
%TO.C,C6*%
X164540000Y-100080000D03*
X162990000Y-100080000D03*
%TD*%
D14*
%TO.C,R1*%
X167455000Y-91130000D03*
X169105000Y-91130000D03*
%TD*%
D17*
%TO.C,FB1*%
X174272500Y-100080000D03*
X172697500Y-100080000D03*
%TD*%
D15*
%TO.C,C1*%
X175359200Y-92655000D03*
X176909200Y-92655000D03*
%TD*%
D18*
%TO.C,C8*%
X161300000Y-103455000D03*
X161300000Y-105005000D03*
%TD*%
D19*
%TO.C,R3*%
X164600000Y-101713333D03*
X162950000Y-101713333D03*
%TD*%
D20*
%TO.C,SW2*%
X167425000Y-111690000D03*
X167425000Y-107540000D03*
X169575000Y-111690000D03*
X169575000Y-107540000D03*
%TD*%
D11*
%TO.C,J1*%
X175609200Y-89275000D03*
X174609200Y-89275000D03*
X173609200Y-89275000D03*
X172609200Y-89275000D03*
D12*
X176909200Y-85400000D03*
X171309200Y-85400000D03*
%TD*%
D19*
%TO.C,R6*%
X164600000Y-104980000D03*
X162950000Y-104980000D03*
%TD*%
D21*
%TO.C,U1*%
X166400000Y-100730000D03*
X166400000Y-101230000D03*
X166400000Y-101730000D03*
X166400000Y-102230000D03*
X166400000Y-102730000D03*
X166400000Y-103230000D03*
X166400000Y-103730000D03*
X166400000Y-104230000D03*
D22*
X167050000Y-104880000D03*
X167550000Y-104880000D03*
X168050000Y-104880000D03*
X168550000Y-104880000D03*
X169050000Y-104880000D03*
X169550000Y-104880000D03*
X170050000Y-104880000D03*
X170550000Y-104880000D03*
D21*
X171200000Y-104230000D03*
X171200000Y-103730000D03*
X171200000Y-103230000D03*
X171200000Y-102730000D03*
X171200000Y-102230000D03*
X171200000Y-101730000D03*
X171200000Y-101230000D03*
X171200000Y-100730000D03*
D22*
X170550000Y-100080000D03*
X170050000Y-100080000D03*
X169550000Y-100080000D03*
X169050000Y-100080000D03*
X168550000Y-100080000D03*
X168050000Y-100080000D03*
X167550000Y-100080000D03*
X167050000Y-100080000D03*
%TD*%
D23*
%TO.C,C2*%
X161300000Y-101605000D03*
X161300000Y-100055000D03*
%TD*%
D24*
%TO.C,R8*%
X162100000Y-111200715D03*
X162100000Y-109550715D03*
%TD*%
%TO.C,R7*%
X160600000Y-111200715D03*
X160600000Y-109550715D03*
%TD*%
D23*
%TO.C,C4*%
X173609200Y-92655000D03*
X173609200Y-91105000D03*
%TD*%
D19*
%TO.C,R5*%
X164610800Y-91130000D03*
X162960800Y-91130000D03*
%TD*%
D16*
%TO.C,C7*%
X164550000Y-103346667D03*
X163000000Y-103346667D03*
%TD*%
D15*
%TO.C,C5*%
X175359200Y-91130000D03*
X176909200Y-91130000D03*
%TD*%
D17*
%TO.C,D2*%
X161235800Y-92690000D03*
X159660800Y-92690000D03*
%TD*%
D25*
%TO.C,D3*%
X173060000Y-103230000D03*
X174260000Y-103230000D03*
X174260000Y-102030000D03*
X173060000Y-102030000D03*
%TD*%
D24*
%TO.C,R9*%
X163600000Y-111200715D03*
X163600000Y-109550715D03*
%TD*%
D20*
%TO.C,SW1*%
X175185000Y-107540000D03*
X175185000Y-111690000D03*
X173035000Y-107540000D03*
X173035000Y-111690000D03*
%TD*%
D14*
%TO.C,R4*%
X159660800Y-91130000D03*
X161310800Y-91130000D03*
%TD*%
M02*
