%TF.GenerationSoftware,KiCad,Pcbnew,8.0.4-1.fc40*%
%TF.CreationDate,2024-10-03T17:07:43+05:30*%
%TF.ProjectId,zepto,7a657074-6f2e-46b6-9963-61645f706362,Mark3*%
%TF.SameCoordinates,Original*%
%TF.FileFunction,Legend,Top*%
%TF.FilePolarity,Positive*%
%FSLAX46Y46*%
G04 Gerber Fmt 4.6, Leading zero omitted, Abs format (unit mm)*
G04 Created by KiCad (PCBNEW 8.0.4-1.fc40) date 2024-10-03 17:07:43*
%MOMM*%
%LPD*%
G01*
G04 APERTURE LIST*
%ADD10C,0.154000*%
%ADD11C,0.127000*%
%ADD12C,0.300000*%
%ADD13C,0.120000*%
%ADD14C,0.000000*%
%ADD15C,0.200000*%
G04 APERTURE END LIST*
D10*
X178306325Y-97019684D02*
X178306325Y-96686351D01*
X178506325Y-97086351D02*
X177806325Y-96853018D01*
X177806325Y-96853018D02*
X178506325Y-96619684D01*
X178506325Y-96386351D02*
X177806325Y-96386351D01*
X178506325Y-96053018D02*
X177806325Y-96053018D01*
X177806325Y-96053018D02*
X178506325Y-95653018D01*
X178506325Y-95653018D02*
X177806325Y-95653018D01*
X178472992Y-104839685D02*
X178506325Y-104739685D01*
X178506325Y-104739685D02*
X178506325Y-104573019D01*
X178506325Y-104573019D02*
X178472992Y-104506352D01*
X178472992Y-104506352D02*
X178439658Y-104473019D01*
X178439658Y-104473019D02*
X178372992Y-104439685D01*
X178372992Y-104439685D02*
X178306325Y-104439685D01*
X178306325Y-104439685D02*
X178239658Y-104473019D01*
X178239658Y-104473019D02*
X178206325Y-104506352D01*
X178206325Y-104506352D02*
X178172992Y-104573019D01*
X178172992Y-104573019D02*
X178139658Y-104706352D01*
X178139658Y-104706352D02*
X178106325Y-104773019D01*
X178106325Y-104773019D02*
X178072992Y-104806352D01*
X178072992Y-104806352D02*
X178006325Y-104839685D01*
X178006325Y-104839685D02*
X177939658Y-104839685D01*
X177939658Y-104839685D02*
X177872992Y-104806352D01*
X177872992Y-104806352D02*
X177839658Y-104773019D01*
X177839658Y-104773019D02*
X177806325Y-104706352D01*
X177806325Y-104706352D02*
X177806325Y-104539685D01*
X177806325Y-104539685D02*
X177839658Y-104439685D01*
X178439658Y-103739685D02*
X178472992Y-103773018D01*
X178472992Y-103773018D02*
X178506325Y-103873018D01*
X178506325Y-103873018D02*
X178506325Y-103939685D01*
X178506325Y-103939685D02*
X178472992Y-104039685D01*
X178472992Y-104039685D02*
X178406325Y-104106352D01*
X178406325Y-104106352D02*
X178339658Y-104139685D01*
X178339658Y-104139685D02*
X178206325Y-104173018D01*
X178206325Y-104173018D02*
X178106325Y-104173018D01*
X178106325Y-104173018D02*
X177972992Y-104139685D01*
X177972992Y-104139685D02*
X177906325Y-104106352D01*
X177906325Y-104106352D02*
X177839658Y-104039685D01*
X177839658Y-104039685D02*
X177806325Y-103939685D01*
X177806325Y-103939685D02*
X177806325Y-103873018D01*
X177806325Y-103873018D02*
X177839658Y-103773018D01*
X177839658Y-103773018D02*
X177872992Y-103739685D01*
X178506325Y-103439685D02*
X177806325Y-103439685D01*
X178506325Y-103039685D02*
X178106325Y-103339685D01*
X177806325Y-103039685D02*
X178206325Y-103439685D01*
X158706325Y-112109685D02*
X158006325Y-112109685D01*
X158006325Y-112109685D02*
X158706325Y-111709685D01*
X158706325Y-111709685D02*
X158006325Y-111709685D01*
X158639658Y-110976352D02*
X158672992Y-111009685D01*
X158672992Y-111009685D02*
X158706325Y-111109685D01*
X158706325Y-111109685D02*
X158706325Y-111176352D01*
X158706325Y-111176352D02*
X158672992Y-111276352D01*
X158672992Y-111276352D02*
X158606325Y-111343019D01*
X158606325Y-111343019D02*
X158539658Y-111376352D01*
X158539658Y-111376352D02*
X158406325Y-111409685D01*
X158406325Y-111409685D02*
X158306325Y-111409685D01*
X158306325Y-111409685D02*
X158172992Y-111376352D01*
X158172992Y-111376352D02*
X158106325Y-111343019D01*
X158106325Y-111343019D02*
X158039658Y-111276352D01*
X158039658Y-111276352D02*
X158006325Y-111176352D01*
X158006325Y-111176352D02*
X158006325Y-111109685D01*
X158006325Y-111109685D02*
X158039658Y-111009685D01*
X158039658Y-111009685D02*
X158072992Y-110976352D01*
X158439658Y-94629685D02*
X158406325Y-94596352D01*
X158406325Y-94596352D02*
X158372992Y-94529685D01*
X158372992Y-94529685D02*
X158439658Y-94396352D01*
X158439658Y-94396352D02*
X158406325Y-94329685D01*
X158406325Y-94329685D02*
X158372992Y-94296352D01*
X158706325Y-93663018D02*
X158706325Y-94063018D01*
X158706325Y-93863018D02*
X158006325Y-93863018D01*
X158006325Y-93863018D02*
X158106325Y-93929685D01*
X158106325Y-93929685D02*
X158172992Y-93996352D01*
X158172992Y-93996352D02*
X158206325Y-94063018D01*
X158072992Y-93396351D02*
X158039658Y-93363018D01*
X158039658Y-93363018D02*
X158006325Y-93296351D01*
X158006325Y-93296351D02*
X158006325Y-93129685D01*
X158006325Y-93129685D02*
X158039658Y-93063018D01*
X158039658Y-93063018D02*
X158072992Y-93029685D01*
X158072992Y-93029685D02*
X158139658Y-92996351D01*
X158139658Y-92996351D02*
X158206325Y-92996351D01*
X158206325Y-92996351D02*
X158306325Y-93029685D01*
X158306325Y-93029685D02*
X158706325Y-93429685D01*
X158706325Y-93429685D02*
X158706325Y-92996351D01*
X158706325Y-99493018D02*
X158006325Y-99493018D01*
X158706325Y-99159685D02*
X158006325Y-99159685D01*
X158006325Y-99159685D02*
X158706325Y-98759685D01*
X158706325Y-98759685D02*
X158006325Y-98759685D01*
X158006325Y-98526352D02*
X158006325Y-98126352D01*
X158706325Y-98326352D02*
X158006325Y-98326352D01*
X178472992Y-109575351D02*
X178506325Y-109475351D01*
X178506325Y-109475351D02*
X178506325Y-109308685D01*
X178506325Y-109308685D02*
X178472992Y-109242018D01*
X178472992Y-109242018D02*
X178439658Y-109208685D01*
X178439658Y-109208685D02*
X178372992Y-109175351D01*
X178372992Y-109175351D02*
X178306325Y-109175351D01*
X178306325Y-109175351D02*
X178239658Y-109208685D01*
X178239658Y-109208685D02*
X178206325Y-109242018D01*
X178206325Y-109242018D02*
X178172992Y-109308685D01*
X178172992Y-109308685D02*
X178139658Y-109442018D01*
X178139658Y-109442018D02*
X178106325Y-109508685D01*
X178106325Y-109508685D02*
X178072992Y-109542018D01*
X178072992Y-109542018D02*
X178006325Y-109575351D01*
X178006325Y-109575351D02*
X177939658Y-109575351D01*
X177939658Y-109575351D02*
X177872992Y-109542018D01*
X177872992Y-109542018D02*
X177839658Y-109508685D01*
X177839658Y-109508685D02*
X177806325Y-109442018D01*
X177806325Y-109442018D02*
X177806325Y-109275351D01*
X177806325Y-109275351D02*
X177839658Y-109175351D01*
X178506325Y-108875351D02*
X177806325Y-108875351D01*
X177806325Y-108875351D02*
X177806325Y-108708684D01*
X177806325Y-108708684D02*
X177839658Y-108608684D01*
X177839658Y-108608684D02*
X177906325Y-108542018D01*
X177906325Y-108542018D02*
X177972992Y-108508684D01*
X177972992Y-108508684D02*
X178106325Y-108475351D01*
X178106325Y-108475351D02*
X178206325Y-108475351D01*
X178206325Y-108475351D02*
X178339658Y-108508684D01*
X178339658Y-108508684D02*
X178406325Y-108542018D01*
X178406325Y-108542018D02*
X178472992Y-108608684D01*
X178472992Y-108608684D02*
X178506325Y-108708684D01*
X178506325Y-108708684D02*
X178506325Y-108875351D01*
X178506325Y-108175351D02*
X177806325Y-108175351D01*
X178439658Y-101516352D02*
X178472992Y-101549685D01*
X178472992Y-101549685D02*
X178506325Y-101649685D01*
X178506325Y-101649685D02*
X178506325Y-101716352D01*
X178506325Y-101716352D02*
X178472992Y-101816352D01*
X178472992Y-101816352D02*
X178406325Y-101883019D01*
X178406325Y-101883019D02*
X178339658Y-101916352D01*
X178339658Y-101916352D02*
X178206325Y-101949685D01*
X178206325Y-101949685D02*
X178106325Y-101949685D01*
X178106325Y-101949685D02*
X177972992Y-101916352D01*
X177972992Y-101916352D02*
X177906325Y-101883019D01*
X177906325Y-101883019D02*
X177839658Y-101816352D01*
X177839658Y-101816352D02*
X177806325Y-101716352D01*
X177806325Y-101716352D02*
X177806325Y-101649685D01*
X177806325Y-101649685D02*
X177839658Y-101549685D01*
X177839658Y-101549685D02*
X177872992Y-101516352D01*
X178472992Y-101249685D02*
X178506325Y-101149685D01*
X178506325Y-101149685D02*
X178506325Y-100983019D01*
X178506325Y-100983019D02*
X178472992Y-100916352D01*
X178472992Y-100916352D02*
X178439658Y-100883019D01*
X178439658Y-100883019D02*
X178372992Y-100849685D01*
X178372992Y-100849685D02*
X178306325Y-100849685D01*
X178306325Y-100849685D02*
X178239658Y-100883019D01*
X178239658Y-100883019D02*
X178206325Y-100916352D01*
X178206325Y-100916352D02*
X178172992Y-100983019D01*
X178172992Y-100983019D02*
X178139658Y-101116352D01*
X178139658Y-101116352D02*
X178106325Y-101183019D01*
X178106325Y-101183019D02*
X178072992Y-101216352D01*
X178072992Y-101216352D02*
X178006325Y-101249685D01*
X178006325Y-101249685D02*
X177939658Y-101249685D01*
X177939658Y-101249685D02*
X177872992Y-101216352D01*
X177872992Y-101216352D02*
X177839658Y-101183019D01*
X177839658Y-101183019D02*
X177806325Y-101116352D01*
X177806325Y-101116352D02*
X177806325Y-100949685D01*
X177806325Y-100949685D02*
X177839658Y-100849685D01*
X158039658Y-114633018D02*
X158006325Y-114699685D01*
X158006325Y-114699685D02*
X158006325Y-114799685D01*
X158006325Y-114799685D02*
X158039658Y-114899685D01*
X158039658Y-114899685D02*
X158106325Y-114966352D01*
X158106325Y-114966352D02*
X158172992Y-114999685D01*
X158172992Y-114999685D02*
X158306325Y-115033018D01*
X158306325Y-115033018D02*
X158406325Y-115033018D01*
X158406325Y-115033018D02*
X158539658Y-114999685D01*
X158539658Y-114999685D02*
X158606325Y-114966352D01*
X158606325Y-114966352D02*
X158672992Y-114899685D01*
X158672992Y-114899685D02*
X158706325Y-114799685D01*
X158706325Y-114799685D02*
X158706325Y-114733018D01*
X158706325Y-114733018D02*
X158672992Y-114633018D01*
X158672992Y-114633018D02*
X158639658Y-114599685D01*
X158639658Y-114599685D02*
X158406325Y-114599685D01*
X158406325Y-114599685D02*
X158406325Y-114733018D01*
X158706325Y-114299685D02*
X158006325Y-114299685D01*
X158006325Y-114299685D02*
X158706325Y-113899685D01*
X158706325Y-113899685D02*
X158006325Y-113899685D01*
X158706325Y-113566352D02*
X158006325Y-113566352D01*
X158006325Y-113566352D02*
X158006325Y-113399685D01*
X158006325Y-113399685D02*
X158039658Y-113299685D01*
X158039658Y-113299685D02*
X158106325Y-113233019D01*
X158106325Y-113233019D02*
X158172992Y-113199685D01*
X158172992Y-113199685D02*
X158306325Y-113166352D01*
X158306325Y-113166352D02*
X158406325Y-113166352D01*
X158406325Y-113166352D02*
X158539658Y-113199685D01*
X158539658Y-113199685D02*
X158606325Y-113233019D01*
X158606325Y-113233019D02*
X158672992Y-113299685D01*
X158672992Y-113299685D02*
X158706325Y-113399685D01*
X158706325Y-113399685D02*
X158706325Y-113566352D01*
X158706325Y-97303018D02*
X158006325Y-97303018D01*
X158006325Y-97303018D02*
X158006325Y-97036351D01*
X158006325Y-97036351D02*
X158039658Y-96969685D01*
X158039658Y-96969685D02*
X158072992Y-96936351D01*
X158072992Y-96936351D02*
X158139658Y-96903018D01*
X158139658Y-96903018D02*
X158239658Y-96903018D01*
X158239658Y-96903018D02*
X158306325Y-96936351D01*
X158306325Y-96936351D02*
X158339658Y-96969685D01*
X158339658Y-96969685D02*
X158372992Y-97036351D01*
X158372992Y-97036351D02*
X158372992Y-97303018D01*
X158006325Y-96669685D02*
X158706325Y-96503018D01*
X158706325Y-96503018D02*
X158206325Y-96369685D01*
X158206325Y-96369685D02*
X158706325Y-96236351D01*
X158706325Y-96236351D02*
X158006325Y-96069685D01*
X158706325Y-95803018D02*
X158006325Y-95803018D01*
X158006325Y-95803018D02*
X158506325Y-95569685D01*
X158506325Y-95569685D02*
X158006325Y-95336351D01*
X158006325Y-95336351D02*
X158706325Y-95336351D01*
X158439658Y-92089685D02*
X158406325Y-92056352D01*
X158406325Y-92056352D02*
X158372992Y-91989685D01*
X158372992Y-91989685D02*
X158439658Y-91856352D01*
X158439658Y-91856352D02*
X158406325Y-91789685D01*
X158406325Y-91789685D02*
X158372992Y-91756352D01*
X158706325Y-91123018D02*
X158706325Y-91523018D01*
X158706325Y-91323018D02*
X158006325Y-91323018D01*
X158006325Y-91323018D02*
X158106325Y-91389685D01*
X158106325Y-91389685D02*
X158172992Y-91456352D01*
X158172992Y-91456352D02*
X158206325Y-91523018D01*
X158006325Y-90889685D02*
X158006325Y-90456351D01*
X158006325Y-90456351D02*
X158272992Y-90689685D01*
X158272992Y-90689685D02*
X158272992Y-90589685D01*
X158272992Y-90589685D02*
X158306325Y-90523018D01*
X158306325Y-90523018D02*
X158339658Y-90489685D01*
X158339658Y-90489685D02*
X158406325Y-90456351D01*
X158406325Y-90456351D02*
X158572992Y-90456351D01*
X158572992Y-90456351D02*
X158639658Y-90489685D01*
X158639658Y-90489685D02*
X158672992Y-90523018D01*
X158672992Y-90523018D02*
X158706325Y-90589685D01*
X158706325Y-90589685D02*
X158706325Y-90789685D01*
X158706325Y-90789685D02*
X158672992Y-90856351D01*
X158672992Y-90856351D02*
X158639658Y-90889685D01*
X178506325Y-99243018D02*
X178172992Y-99476351D01*
X178506325Y-99643018D02*
X177806325Y-99643018D01*
X177806325Y-99643018D02*
X177806325Y-99376351D01*
X177806325Y-99376351D02*
X177839658Y-99309685D01*
X177839658Y-99309685D02*
X177872992Y-99276351D01*
X177872992Y-99276351D02*
X177939658Y-99243018D01*
X177939658Y-99243018D02*
X178039658Y-99243018D01*
X178039658Y-99243018D02*
X178106325Y-99276351D01*
X178106325Y-99276351D02*
X178139658Y-99309685D01*
X178139658Y-99309685D02*
X178172992Y-99376351D01*
X178172992Y-99376351D02*
X178172992Y-99643018D01*
X178472992Y-98976351D02*
X178506325Y-98876351D01*
X178506325Y-98876351D02*
X178506325Y-98709685D01*
X178506325Y-98709685D02*
X178472992Y-98643018D01*
X178472992Y-98643018D02*
X178439658Y-98609685D01*
X178439658Y-98609685D02*
X178372992Y-98576351D01*
X178372992Y-98576351D02*
X178306325Y-98576351D01*
X178306325Y-98576351D02*
X178239658Y-98609685D01*
X178239658Y-98609685D02*
X178206325Y-98643018D01*
X178206325Y-98643018D02*
X178172992Y-98709685D01*
X178172992Y-98709685D02*
X178139658Y-98843018D01*
X178139658Y-98843018D02*
X178106325Y-98909685D01*
X178106325Y-98909685D02*
X178072992Y-98943018D01*
X178072992Y-98943018D02*
X178006325Y-98976351D01*
X178006325Y-98976351D02*
X177939658Y-98976351D01*
X177939658Y-98976351D02*
X177872992Y-98943018D01*
X177872992Y-98943018D02*
X177839658Y-98909685D01*
X177839658Y-98909685D02*
X177806325Y-98843018D01*
X177806325Y-98843018D02*
X177806325Y-98676351D01*
X177806325Y-98676351D02*
X177839658Y-98576351D01*
X177806325Y-98376351D02*
X177806325Y-97976351D01*
X178506325Y-98176351D02*
X177806325Y-98176351D01*
X158006325Y-101933018D02*
X158006325Y-101533018D01*
X158706325Y-101733018D02*
X158006325Y-101733018D01*
X158006325Y-101366352D02*
X158706325Y-100899685D01*
X158006325Y-100899685D02*
X158706325Y-101366352D01*
X164758649Y-111149658D02*
X164858649Y-111182992D01*
X164858649Y-111182992D02*
X164891982Y-111216325D01*
X164891982Y-111216325D02*
X164925315Y-111282992D01*
X164925315Y-111282992D02*
X164925315Y-111382992D01*
X164925315Y-111382992D02*
X164891982Y-111449658D01*
X164891982Y-111449658D02*
X164858649Y-111482992D01*
X164858649Y-111482992D02*
X164791982Y-111516325D01*
X164791982Y-111516325D02*
X164525315Y-111516325D01*
X164525315Y-111516325D02*
X164525315Y-110816325D01*
X164525315Y-110816325D02*
X164758649Y-110816325D01*
X164758649Y-110816325D02*
X164825315Y-110849658D01*
X164825315Y-110849658D02*
X164858649Y-110882992D01*
X164858649Y-110882992D02*
X164891982Y-110949658D01*
X164891982Y-110949658D02*
X164891982Y-111016325D01*
X164891982Y-111016325D02*
X164858649Y-111082992D01*
X164858649Y-111082992D02*
X164825315Y-111116325D01*
X164825315Y-111116325D02*
X164758649Y-111149658D01*
X164758649Y-111149658D02*
X164525315Y-111149658D01*
X165491982Y-111482992D02*
X165425315Y-111516325D01*
X165425315Y-111516325D02*
X165291982Y-111516325D01*
X165291982Y-111516325D02*
X165225315Y-111482992D01*
X165225315Y-111482992D02*
X165191982Y-111416325D01*
X165191982Y-111416325D02*
X165191982Y-111149658D01*
X165191982Y-111149658D02*
X165225315Y-111082992D01*
X165225315Y-111082992D02*
X165291982Y-111049658D01*
X165291982Y-111049658D02*
X165425315Y-111049658D01*
X165425315Y-111049658D02*
X165491982Y-111082992D01*
X165491982Y-111082992D02*
X165525315Y-111149658D01*
X165525315Y-111149658D02*
X165525315Y-111216325D01*
X165525315Y-111216325D02*
X165191982Y-111282992D01*
X166125315Y-111516325D02*
X166125315Y-111149658D01*
X166125315Y-111149658D02*
X166091982Y-111082992D01*
X166091982Y-111082992D02*
X166025315Y-111049658D01*
X166025315Y-111049658D02*
X165891982Y-111049658D01*
X165891982Y-111049658D02*
X165825315Y-111082992D01*
X166125315Y-111482992D02*
X166058649Y-111516325D01*
X166058649Y-111516325D02*
X165891982Y-111516325D01*
X165891982Y-111516325D02*
X165825315Y-111482992D01*
X165825315Y-111482992D02*
X165791982Y-111416325D01*
X165791982Y-111416325D02*
X165791982Y-111349658D01*
X165791982Y-111349658D02*
X165825315Y-111282992D01*
X165825315Y-111282992D02*
X165891982Y-111249658D01*
X165891982Y-111249658D02*
X166058649Y-111249658D01*
X166058649Y-111249658D02*
X166125315Y-111216325D01*
X166758648Y-111049658D02*
X166758648Y-111616325D01*
X166758648Y-111616325D02*
X166725315Y-111682992D01*
X166725315Y-111682992D02*
X166691982Y-111716325D01*
X166691982Y-111716325D02*
X166625315Y-111749658D01*
X166625315Y-111749658D02*
X166525315Y-111749658D01*
X166525315Y-111749658D02*
X166458648Y-111716325D01*
X166758648Y-111482992D02*
X166691982Y-111516325D01*
X166691982Y-111516325D02*
X166558648Y-111516325D01*
X166558648Y-111516325D02*
X166491982Y-111482992D01*
X166491982Y-111482992D02*
X166458648Y-111449658D01*
X166458648Y-111449658D02*
X166425315Y-111382992D01*
X166425315Y-111382992D02*
X166425315Y-111182992D01*
X166425315Y-111182992D02*
X166458648Y-111116325D01*
X166458648Y-111116325D02*
X166491982Y-111082992D01*
X166491982Y-111082992D02*
X166558648Y-111049658D01*
X166558648Y-111049658D02*
X166691982Y-111049658D01*
X166691982Y-111049658D02*
X166758648Y-111082992D01*
X167191981Y-111516325D02*
X167125315Y-111482992D01*
X167125315Y-111482992D02*
X167091981Y-111416325D01*
X167091981Y-111416325D02*
X167091981Y-110816325D01*
X167725315Y-111482992D02*
X167658648Y-111516325D01*
X167658648Y-111516325D02*
X167525315Y-111516325D01*
X167525315Y-111516325D02*
X167458648Y-111482992D01*
X167458648Y-111482992D02*
X167425315Y-111416325D01*
X167425315Y-111416325D02*
X167425315Y-111149658D01*
X167425315Y-111149658D02*
X167458648Y-111082992D01*
X167458648Y-111082992D02*
X167525315Y-111049658D01*
X167525315Y-111049658D02*
X167658648Y-111049658D01*
X167658648Y-111049658D02*
X167725315Y-111082992D01*
X167725315Y-111082992D02*
X167758648Y-111149658D01*
X167758648Y-111149658D02*
X167758648Y-111216325D01*
X167758648Y-111216325D02*
X167425315Y-111282992D01*
X168458648Y-111449658D02*
X168425315Y-111482992D01*
X168425315Y-111482992D02*
X168325315Y-111516325D01*
X168325315Y-111516325D02*
X168258648Y-111516325D01*
X168258648Y-111516325D02*
X168158648Y-111482992D01*
X168158648Y-111482992D02*
X168091982Y-111416325D01*
X168091982Y-111416325D02*
X168058648Y-111349658D01*
X168058648Y-111349658D02*
X168025315Y-111216325D01*
X168025315Y-111216325D02*
X168025315Y-111116325D01*
X168025315Y-111116325D02*
X168058648Y-110982992D01*
X168058648Y-110982992D02*
X168091982Y-110916325D01*
X168091982Y-110916325D02*
X168158648Y-110849658D01*
X168158648Y-110849658D02*
X168258648Y-110816325D01*
X168258648Y-110816325D02*
X168325315Y-110816325D01*
X168325315Y-110816325D02*
X168425315Y-110849658D01*
X168425315Y-110849658D02*
X168458648Y-110882992D01*
X168858648Y-111516325D02*
X168791982Y-111482992D01*
X168791982Y-111482992D02*
X168758648Y-111449658D01*
X168758648Y-111449658D02*
X168725315Y-111382992D01*
X168725315Y-111382992D02*
X168725315Y-111182992D01*
X168725315Y-111182992D02*
X168758648Y-111116325D01*
X168758648Y-111116325D02*
X168791982Y-111082992D01*
X168791982Y-111082992D02*
X168858648Y-111049658D01*
X168858648Y-111049658D02*
X168958648Y-111049658D01*
X168958648Y-111049658D02*
X169025315Y-111082992D01*
X169025315Y-111082992D02*
X169058648Y-111116325D01*
X169058648Y-111116325D02*
X169091982Y-111182992D01*
X169091982Y-111182992D02*
X169091982Y-111382992D01*
X169091982Y-111382992D02*
X169058648Y-111449658D01*
X169058648Y-111449658D02*
X169025315Y-111482992D01*
X169025315Y-111482992D02*
X168958648Y-111516325D01*
X168958648Y-111516325D02*
X168858648Y-111516325D01*
X169391981Y-111049658D02*
X169391981Y-111516325D01*
X169391981Y-111116325D02*
X169425315Y-111082992D01*
X169425315Y-111082992D02*
X169491981Y-111049658D01*
X169491981Y-111049658D02*
X169591981Y-111049658D01*
X169591981Y-111049658D02*
X169658648Y-111082992D01*
X169658648Y-111082992D02*
X169691981Y-111149658D01*
X169691981Y-111149658D02*
X169691981Y-111516325D01*
X170025314Y-111049658D02*
X170025314Y-111516325D01*
X170025314Y-111116325D02*
X170058648Y-111082992D01*
X170058648Y-111082992D02*
X170125314Y-111049658D01*
X170125314Y-111049658D02*
X170225314Y-111049658D01*
X170225314Y-111049658D02*
X170291981Y-111082992D01*
X170291981Y-111082992D02*
X170325314Y-111149658D01*
X170325314Y-111149658D02*
X170325314Y-111516325D01*
X170925314Y-111482992D02*
X170858647Y-111516325D01*
X170858647Y-111516325D02*
X170725314Y-111516325D01*
X170725314Y-111516325D02*
X170658647Y-111482992D01*
X170658647Y-111482992D02*
X170625314Y-111416325D01*
X170625314Y-111416325D02*
X170625314Y-111149658D01*
X170625314Y-111149658D02*
X170658647Y-111082992D01*
X170658647Y-111082992D02*
X170725314Y-111049658D01*
X170725314Y-111049658D02*
X170858647Y-111049658D01*
X170858647Y-111049658D02*
X170925314Y-111082992D01*
X170925314Y-111082992D02*
X170958647Y-111149658D01*
X170958647Y-111149658D02*
X170958647Y-111216325D01*
X170958647Y-111216325D02*
X170625314Y-111282992D01*
X171558647Y-111482992D02*
X171491981Y-111516325D01*
X171491981Y-111516325D02*
X171358647Y-111516325D01*
X171358647Y-111516325D02*
X171291981Y-111482992D01*
X171291981Y-111482992D02*
X171258647Y-111449658D01*
X171258647Y-111449658D02*
X171225314Y-111382992D01*
X171225314Y-111382992D02*
X171225314Y-111182992D01*
X171225314Y-111182992D02*
X171258647Y-111116325D01*
X171258647Y-111116325D02*
X171291981Y-111082992D01*
X171291981Y-111082992D02*
X171358647Y-111049658D01*
X171358647Y-111049658D02*
X171491981Y-111049658D01*
X171491981Y-111049658D02*
X171558647Y-111082992D01*
X171758647Y-111049658D02*
X172025314Y-111049658D01*
X171858647Y-110816325D02*
X171858647Y-111416325D01*
X171858647Y-111416325D02*
X171891981Y-111482992D01*
X171891981Y-111482992D02*
X171958647Y-111516325D01*
X171958647Y-111516325D02*
X172025314Y-111516325D01*
X178239658Y-87009685D02*
X178206325Y-86976352D01*
X178206325Y-86976352D02*
X178172992Y-86909685D01*
X178172992Y-86909685D02*
X178239658Y-86776352D01*
X178239658Y-86776352D02*
X178206325Y-86709685D01*
X178206325Y-86709685D02*
X178172992Y-86676352D01*
X177872992Y-86443018D02*
X177839658Y-86409685D01*
X177839658Y-86409685D02*
X177806325Y-86343018D01*
X177806325Y-86343018D02*
X177806325Y-86176352D01*
X177806325Y-86176352D02*
X177839658Y-86109685D01*
X177839658Y-86109685D02*
X177872992Y-86076352D01*
X177872992Y-86076352D02*
X177939658Y-86043018D01*
X177939658Y-86043018D02*
X178006325Y-86043018D01*
X178006325Y-86043018D02*
X178106325Y-86076352D01*
X178106325Y-86076352D02*
X178506325Y-86476352D01*
X178506325Y-86476352D02*
X178506325Y-86043018D01*
X178506325Y-85376351D02*
X178506325Y-85776351D01*
X178506325Y-85576351D02*
X177806325Y-85576351D01*
X177806325Y-85576351D02*
X177906325Y-85643018D01*
X177906325Y-85643018D02*
X177972992Y-85709685D01*
X177972992Y-85709685D02*
X178006325Y-85776351D01*
X158639658Y-86943018D02*
X158672992Y-86976351D01*
X158672992Y-86976351D02*
X158706325Y-87076351D01*
X158706325Y-87076351D02*
X158706325Y-87143018D01*
X158706325Y-87143018D02*
X158672992Y-87243018D01*
X158672992Y-87243018D02*
X158606325Y-87309685D01*
X158606325Y-87309685D02*
X158539658Y-87343018D01*
X158539658Y-87343018D02*
X158406325Y-87376351D01*
X158406325Y-87376351D02*
X158306325Y-87376351D01*
X158306325Y-87376351D02*
X158172992Y-87343018D01*
X158172992Y-87343018D02*
X158106325Y-87309685D01*
X158106325Y-87309685D02*
X158039658Y-87243018D01*
X158039658Y-87243018D02*
X158006325Y-87143018D01*
X158006325Y-87143018D02*
X158006325Y-87076351D01*
X158006325Y-87076351D02*
X158039658Y-86976351D01*
X158039658Y-86976351D02*
X158072992Y-86943018D01*
X158706325Y-86309685D02*
X158706325Y-86643018D01*
X158706325Y-86643018D02*
X158006325Y-86643018D01*
X158706325Y-86076351D02*
X158006325Y-86076351D01*
X158706325Y-85676351D02*
X158306325Y-85976351D01*
X158006325Y-85676351D02*
X158406325Y-86076351D01*
X158006325Y-85243018D02*
X158006325Y-85109684D01*
X158006325Y-85109684D02*
X158039658Y-85043018D01*
X158039658Y-85043018D02*
X158106325Y-84976351D01*
X158106325Y-84976351D02*
X158239658Y-84943018D01*
X158239658Y-84943018D02*
X158472992Y-84943018D01*
X158472992Y-84943018D02*
X158606325Y-84976351D01*
X158606325Y-84976351D02*
X158672992Y-85043018D01*
X158672992Y-85043018D02*
X158706325Y-85109684D01*
X158706325Y-85109684D02*
X158706325Y-85243018D01*
X158706325Y-85243018D02*
X158672992Y-85309684D01*
X158672992Y-85309684D02*
X158606325Y-85376351D01*
X158606325Y-85376351D02*
X158472992Y-85409684D01*
X158472992Y-85409684D02*
X158239658Y-85409684D01*
X158239658Y-85409684D02*
X158106325Y-85376351D01*
X158106325Y-85376351D02*
X158039658Y-85309684D01*
X158039658Y-85309684D02*
X158006325Y-85243018D01*
X158439658Y-89549685D02*
X158406325Y-89516352D01*
X158406325Y-89516352D02*
X158372992Y-89449685D01*
X158372992Y-89449685D02*
X158439658Y-89316352D01*
X158439658Y-89316352D02*
X158406325Y-89249685D01*
X158406325Y-89249685D02*
X158372992Y-89216352D01*
X158706325Y-88583018D02*
X158706325Y-88983018D01*
X158706325Y-88783018D02*
X158006325Y-88783018D01*
X158006325Y-88783018D02*
X158106325Y-88849685D01*
X158106325Y-88849685D02*
X158172992Y-88916352D01*
X158172992Y-88916352D02*
X158206325Y-88983018D01*
X158006325Y-88349685D02*
X158006325Y-87883018D01*
X158006325Y-87883018D02*
X158706325Y-88183018D01*
X158672992Y-107313018D02*
X158706325Y-107213018D01*
X158706325Y-107213018D02*
X158706325Y-107046352D01*
X158706325Y-107046352D02*
X158672992Y-106979685D01*
X158672992Y-106979685D02*
X158639658Y-106946352D01*
X158639658Y-106946352D02*
X158572992Y-106913018D01*
X158572992Y-106913018D02*
X158506325Y-106913018D01*
X158506325Y-106913018D02*
X158439658Y-106946352D01*
X158439658Y-106946352D02*
X158406325Y-106979685D01*
X158406325Y-106979685D02*
X158372992Y-107046352D01*
X158372992Y-107046352D02*
X158339658Y-107179685D01*
X158339658Y-107179685D02*
X158306325Y-107246352D01*
X158306325Y-107246352D02*
X158272992Y-107279685D01*
X158272992Y-107279685D02*
X158206325Y-107313018D01*
X158206325Y-107313018D02*
X158139658Y-107313018D01*
X158139658Y-107313018D02*
X158072992Y-107279685D01*
X158072992Y-107279685D02*
X158039658Y-107246352D01*
X158039658Y-107246352D02*
X158006325Y-107179685D01*
X158006325Y-107179685D02*
X158006325Y-107013018D01*
X158006325Y-107013018D02*
X158039658Y-106913018D01*
X158639658Y-106213018D02*
X158672992Y-106246351D01*
X158672992Y-106246351D02*
X158706325Y-106346351D01*
X158706325Y-106346351D02*
X158706325Y-106413018D01*
X158706325Y-106413018D02*
X158672992Y-106513018D01*
X158672992Y-106513018D02*
X158606325Y-106579685D01*
X158606325Y-106579685D02*
X158539658Y-106613018D01*
X158539658Y-106613018D02*
X158406325Y-106646351D01*
X158406325Y-106646351D02*
X158306325Y-106646351D01*
X158306325Y-106646351D02*
X158172992Y-106613018D01*
X158172992Y-106613018D02*
X158106325Y-106579685D01*
X158106325Y-106579685D02*
X158039658Y-106513018D01*
X158039658Y-106513018D02*
X158006325Y-106413018D01*
X158006325Y-106413018D02*
X158006325Y-106346351D01*
X158006325Y-106346351D02*
X158039658Y-106246351D01*
X158039658Y-106246351D02*
X158072992Y-106213018D01*
X158706325Y-105579685D02*
X158706325Y-105913018D01*
X158706325Y-105913018D02*
X158006325Y-105913018D01*
X178306325Y-91739685D02*
X178306325Y-91406352D01*
X178506325Y-91806352D02*
X177806325Y-91573019D01*
X177806325Y-91573019D02*
X178506325Y-91339685D01*
X177872992Y-91139685D02*
X177839658Y-91106352D01*
X177839658Y-91106352D02*
X177806325Y-91039685D01*
X177806325Y-91039685D02*
X177806325Y-90873019D01*
X177806325Y-90873019D02*
X177839658Y-90806352D01*
X177839658Y-90806352D02*
X177872992Y-90773019D01*
X177872992Y-90773019D02*
X177939658Y-90739685D01*
X177939658Y-90739685D02*
X178006325Y-90739685D01*
X178006325Y-90739685D02*
X178106325Y-90773019D01*
X178106325Y-90773019D02*
X178506325Y-91173019D01*
X178506325Y-91173019D02*
X178506325Y-90739685D01*
X158672992Y-109869685D02*
X158706325Y-109769685D01*
X158706325Y-109769685D02*
X158706325Y-109603019D01*
X158706325Y-109603019D02*
X158672992Y-109536352D01*
X158672992Y-109536352D02*
X158639658Y-109503019D01*
X158639658Y-109503019D02*
X158572992Y-109469685D01*
X158572992Y-109469685D02*
X158506325Y-109469685D01*
X158506325Y-109469685D02*
X158439658Y-109503019D01*
X158439658Y-109503019D02*
X158406325Y-109536352D01*
X158406325Y-109536352D02*
X158372992Y-109603019D01*
X158372992Y-109603019D02*
X158339658Y-109736352D01*
X158339658Y-109736352D02*
X158306325Y-109803019D01*
X158306325Y-109803019D02*
X158272992Y-109836352D01*
X158272992Y-109836352D02*
X158206325Y-109869685D01*
X158206325Y-109869685D02*
X158139658Y-109869685D01*
X158139658Y-109869685D02*
X158072992Y-109836352D01*
X158072992Y-109836352D02*
X158039658Y-109803019D01*
X158039658Y-109803019D02*
X158006325Y-109736352D01*
X158006325Y-109736352D02*
X158006325Y-109569685D01*
X158006325Y-109569685D02*
X158039658Y-109469685D01*
X158706325Y-109169685D02*
X158006325Y-109169685D01*
X158006325Y-109169685D02*
X158006325Y-109003018D01*
X158006325Y-109003018D02*
X158039658Y-108903018D01*
X158039658Y-108903018D02*
X158106325Y-108836352D01*
X158106325Y-108836352D02*
X158172992Y-108803018D01*
X158172992Y-108803018D02*
X158306325Y-108769685D01*
X158306325Y-108769685D02*
X158406325Y-108769685D01*
X158406325Y-108769685D02*
X158539658Y-108803018D01*
X158539658Y-108803018D02*
X158606325Y-108836352D01*
X158606325Y-108836352D02*
X158672992Y-108903018D01*
X158672992Y-108903018D02*
X158706325Y-109003018D01*
X158706325Y-109003018D02*
X158706325Y-109169685D01*
X158506325Y-108503018D02*
X158506325Y-108169685D01*
X158706325Y-108569685D02*
X158006325Y-108336352D01*
X158006325Y-108336352D02*
X158706325Y-108103018D01*
X177839658Y-114633018D02*
X177806325Y-114699685D01*
X177806325Y-114699685D02*
X177806325Y-114799685D01*
X177806325Y-114799685D02*
X177839658Y-114899685D01*
X177839658Y-114899685D02*
X177906325Y-114966352D01*
X177906325Y-114966352D02*
X177972992Y-114999685D01*
X177972992Y-114999685D02*
X178106325Y-115033018D01*
X178106325Y-115033018D02*
X178206325Y-115033018D01*
X178206325Y-115033018D02*
X178339658Y-114999685D01*
X178339658Y-114999685D02*
X178406325Y-114966352D01*
X178406325Y-114966352D02*
X178472992Y-114899685D01*
X178472992Y-114899685D02*
X178506325Y-114799685D01*
X178506325Y-114799685D02*
X178506325Y-114733018D01*
X178506325Y-114733018D02*
X178472992Y-114633018D01*
X178472992Y-114633018D02*
X178439658Y-114599685D01*
X178439658Y-114599685D02*
X178206325Y-114599685D01*
X178206325Y-114599685D02*
X178206325Y-114733018D01*
X178506325Y-114299685D02*
X177806325Y-114299685D01*
X177806325Y-114299685D02*
X178506325Y-113899685D01*
X178506325Y-113899685D02*
X177806325Y-113899685D01*
X178506325Y-113566352D02*
X177806325Y-113566352D01*
X177806325Y-113566352D02*
X177806325Y-113399685D01*
X177806325Y-113399685D02*
X177839658Y-113299685D01*
X177839658Y-113299685D02*
X177906325Y-113233019D01*
X177906325Y-113233019D02*
X177972992Y-113199685D01*
X177972992Y-113199685D02*
X178106325Y-113166352D01*
X178106325Y-113166352D02*
X178206325Y-113166352D01*
X178206325Y-113166352D02*
X178339658Y-113199685D01*
X178339658Y-113199685D02*
X178406325Y-113233019D01*
X178406325Y-113233019D02*
X178472992Y-113299685D01*
X178472992Y-113299685D02*
X178506325Y-113399685D01*
X178506325Y-113399685D02*
X178506325Y-113566352D01*
X178472992Y-107396351D02*
X178506325Y-107296351D01*
X178506325Y-107296351D02*
X178506325Y-107129685D01*
X178506325Y-107129685D02*
X178472992Y-107063018D01*
X178472992Y-107063018D02*
X178439658Y-107029685D01*
X178439658Y-107029685D02*
X178372992Y-106996351D01*
X178372992Y-106996351D02*
X178306325Y-106996351D01*
X178306325Y-106996351D02*
X178239658Y-107029685D01*
X178239658Y-107029685D02*
X178206325Y-107063018D01*
X178206325Y-107063018D02*
X178172992Y-107129685D01*
X178172992Y-107129685D02*
X178139658Y-107263018D01*
X178139658Y-107263018D02*
X178106325Y-107329685D01*
X178106325Y-107329685D02*
X178072992Y-107363018D01*
X178072992Y-107363018D02*
X178006325Y-107396351D01*
X178006325Y-107396351D02*
X177939658Y-107396351D01*
X177939658Y-107396351D02*
X177872992Y-107363018D01*
X177872992Y-107363018D02*
X177839658Y-107329685D01*
X177839658Y-107329685D02*
X177806325Y-107263018D01*
X177806325Y-107263018D02*
X177806325Y-107096351D01*
X177806325Y-107096351D02*
X177839658Y-106996351D01*
X178506325Y-106696351D02*
X177806325Y-106696351D01*
X177806325Y-106696351D02*
X177806325Y-106529684D01*
X177806325Y-106529684D02*
X177839658Y-106429684D01*
X177839658Y-106429684D02*
X177906325Y-106363018D01*
X177906325Y-106363018D02*
X177972992Y-106329684D01*
X177972992Y-106329684D02*
X178106325Y-106296351D01*
X178106325Y-106296351D02*
X178206325Y-106296351D01*
X178206325Y-106296351D02*
X178339658Y-106329684D01*
X178339658Y-106329684D02*
X178406325Y-106363018D01*
X178406325Y-106363018D02*
X178472992Y-106429684D01*
X178472992Y-106429684D02*
X178506325Y-106529684D01*
X178506325Y-106529684D02*
X178506325Y-106696351D01*
X177806325Y-105863018D02*
X177806325Y-105729684D01*
X177806325Y-105729684D02*
X177839658Y-105663018D01*
X177839658Y-105663018D02*
X177906325Y-105596351D01*
X177906325Y-105596351D02*
X178039658Y-105563018D01*
X178039658Y-105563018D02*
X178272992Y-105563018D01*
X178272992Y-105563018D02*
X178406325Y-105596351D01*
X178406325Y-105596351D02*
X178472992Y-105663018D01*
X178472992Y-105663018D02*
X178506325Y-105729684D01*
X178506325Y-105729684D02*
X178506325Y-105863018D01*
X178506325Y-105863018D02*
X178472992Y-105929684D01*
X178472992Y-105929684D02*
X178406325Y-105996351D01*
X178406325Y-105996351D02*
X178272992Y-106029684D01*
X178272992Y-106029684D02*
X178039658Y-106029684D01*
X178039658Y-106029684D02*
X177906325Y-105996351D01*
X177906325Y-105996351D02*
X177839658Y-105929684D01*
X177839658Y-105929684D02*
X177806325Y-105863018D01*
X178306325Y-94279685D02*
X178306325Y-93946352D01*
X178506325Y-94346352D02*
X177806325Y-94113019D01*
X177806325Y-94113019D02*
X178506325Y-93879685D01*
X178506325Y-93279685D02*
X178506325Y-93679685D01*
X178506325Y-93479685D02*
X177806325Y-93479685D01*
X177806325Y-93479685D02*
X177906325Y-93546352D01*
X177906325Y-93546352D02*
X177972992Y-93613019D01*
X177972992Y-93613019D02*
X178006325Y-93679685D01*
X167367981Y-85856325D02*
X167367981Y-85156325D01*
X167367981Y-85156325D02*
X167634648Y-85156325D01*
X167634648Y-85156325D02*
X167701315Y-85189658D01*
X167701315Y-85189658D02*
X167734648Y-85222992D01*
X167734648Y-85222992D02*
X167767981Y-85289658D01*
X167767981Y-85289658D02*
X167767981Y-85389658D01*
X167767981Y-85389658D02*
X167734648Y-85456325D01*
X167734648Y-85456325D02*
X167701315Y-85489658D01*
X167701315Y-85489658D02*
X167634648Y-85522992D01*
X167634648Y-85522992D02*
X167367981Y-85522992D01*
X168001315Y-85156325D02*
X168167981Y-85856325D01*
X168167981Y-85856325D02*
X168301315Y-85356325D01*
X168301315Y-85356325D02*
X168434648Y-85856325D01*
X168434648Y-85856325D02*
X168601315Y-85156325D01*
X169267981Y-85856325D02*
X169034648Y-85522992D01*
X168867981Y-85856325D02*
X168867981Y-85156325D01*
X168867981Y-85156325D02*
X169134648Y-85156325D01*
X169134648Y-85156325D02*
X169201315Y-85189658D01*
X169201315Y-85189658D02*
X169234648Y-85222992D01*
X169234648Y-85222992D02*
X169267981Y-85289658D01*
X169267981Y-85289658D02*
X169267981Y-85389658D01*
X169267981Y-85389658D02*
X169234648Y-85456325D01*
X169234648Y-85456325D02*
X169201315Y-85489658D01*
X169201315Y-85489658D02*
X169134648Y-85522992D01*
X169134648Y-85522992D02*
X168867981Y-85522992D01*
X177806325Y-112426352D02*
X177806325Y-111993018D01*
X177806325Y-111993018D02*
X178072992Y-112226352D01*
X178072992Y-112226352D02*
X178072992Y-112126352D01*
X178072992Y-112126352D02*
X178106325Y-112059685D01*
X178106325Y-112059685D02*
X178139658Y-112026352D01*
X178139658Y-112026352D02*
X178206325Y-111993018D01*
X178206325Y-111993018D02*
X178372992Y-111993018D01*
X178372992Y-111993018D02*
X178439658Y-112026352D01*
X178439658Y-112026352D02*
X178472992Y-112059685D01*
X178472992Y-112059685D02*
X178506325Y-112126352D01*
X178506325Y-112126352D02*
X178506325Y-112326352D01*
X178506325Y-112326352D02*
X178472992Y-112393018D01*
X178472992Y-112393018D02*
X178439658Y-112426352D01*
X177806325Y-111793018D02*
X178506325Y-111559685D01*
X178506325Y-111559685D02*
X177806325Y-111326351D01*
X177806325Y-111159685D02*
X177806325Y-110726351D01*
X177806325Y-110726351D02*
X178072992Y-110959685D01*
X178072992Y-110959685D02*
X178072992Y-110859685D01*
X178072992Y-110859685D02*
X178106325Y-110793018D01*
X178106325Y-110793018D02*
X178139658Y-110759685D01*
X178139658Y-110759685D02*
X178206325Y-110726351D01*
X178206325Y-110726351D02*
X178372992Y-110726351D01*
X178372992Y-110726351D02*
X178439658Y-110759685D01*
X178439658Y-110759685D02*
X178472992Y-110793018D01*
X178472992Y-110793018D02*
X178506325Y-110859685D01*
X178506325Y-110859685D02*
X178506325Y-111059685D01*
X178506325Y-111059685D02*
X178472992Y-111126351D01*
X178472992Y-111126351D02*
X178439658Y-111159685D01*
X178306325Y-89199685D02*
X178306325Y-88866352D01*
X178506325Y-89266352D02*
X177806325Y-89033019D01*
X177806325Y-89033019D02*
X178506325Y-88799685D01*
X177806325Y-88633019D02*
X177806325Y-88199685D01*
X177806325Y-88199685D02*
X178072992Y-88433019D01*
X178072992Y-88433019D02*
X178072992Y-88333019D01*
X178072992Y-88333019D02*
X178106325Y-88266352D01*
X178106325Y-88266352D02*
X178139658Y-88233019D01*
X178139658Y-88233019D02*
X178206325Y-88199685D01*
X178206325Y-88199685D02*
X178372992Y-88199685D01*
X178372992Y-88199685D02*
X178439658Y-88233019D01*
X178439658Y-88233019D02*
X178472992Y-88266352D01*
X178472992Y-88266352D02*
X178506325Y-88333019D01*
X178506325Y-88333019D02*
X178506325Y-88533019D01*
X178506325Y-88533019D02*
X178472992Y-88599685D01*
X178472992Y-88599685D02*
X178439658Y-88633019D01*
X158706325Y-104056352D02*
X158372992Y-104289685D01*
X158706325Y-104456352D02*
X158006325Y-104456352D01*
X158006325Y-104456352D02*
X158006325Y-104189685D01*
X158006325Y-104189685D02*
X158039658Y-104123019D01*
X158039658Y-104123019D02*
X158072992Y-104089685D01*
X158072992Y-104089685D02*
X158139658Y-104056352D01*
X158139658Y-104056352D02*
X158239658Y-104056352D01*
X158239658Y-104056352D02*
X158306325Y-104089685D01*
X158306325Y-104089685D02*
X158339658Y-104123019D01*
X158339658Y-104123019D02*
X158372992Y-104189685D01*
X158372992Y-104189685D02*
X158372992Y-104456352D01*
X158006325Y-103823019D02*
X158706325Y-103356352D01*
X158006325Y-103356352D02*
X158706325Y-103823019D01*
D11*
%TO.C,J4*%
X159900000Y-88975000D02*
X159900000Y-86700000D01*
X160700000Y-88975000D02*
X159900000Y-88975000D01*
X164700000Y-84725000D02*
X161100000Y-84725000D01*
X165100000Y-88975000D02*
X165900000Y-88975000D01*
X165900000Y-88975000D02*
X165900000Y-86700000D01*
D12*
X165450000Y-89685000D02*
G75*
G02*
X165250000Y-89685000I-100000J0D01*
G01*
X165250000Y-89685000D02*
G75*
G02*
X165450000Y-89685000I100000J0D01*
G01*
D13*
%TO.C,R8*%
X159487500Y-99072742D02*
X159487500Y-99547258D01*
X160532500Y-99072742D02*
X160532500Y-99547258D01*
%TO.C,R7*%
X159277500Y-105362742D02*
X159277500Y-105837258D01*
X160322500Y-105362742D02*
X160322500Y-105837258D01*
%TO.C,C3*%
X171488748Y-94215000D02*
X172011252Y-94215000D01*
X171488748Y-95685000D02*
X172011252Y-95685000D01*
%TO.C,C8*%
X167396666Y-108479420D02*
X167396666Y-108760580D01*
X168416666Y-108479420D02*
X168416666Y-108760580D01*
%TO.C,C2*%
X175990580Y-94240000D02*
X175709420Y-94240000D01*
X175990580Y-95260000D02*
X175709420Y-95260000D01*
%TO.C,FB1*%
X176012779Y-92590000D02*
X175687221Y-92590000D01*
X176012779Y-93610000D02*
X175687221Y-93610000D01*
%TO.C,C5*%
X175729420Y-90940000D02*
X176010580Y-90940000D01*
X175729420Y-91960000D02*
X176010580Y-91960000D01*
%TO.C,R1*%
X171677500Y-99387258D02*
X171677500Y-98912742D01*
X172722500Y-99387258D02*
X172722500Y-98912742D01*
D14*
%TO.C,kibuzzard-66E964D5*%
G36*
X168285000Y-113027969D02*
G01*
X168346516Y-113176753D01*
X168279278Y-113334120D01*
X168137647Y-113385622D01*
X167828634Y-113385622D01*
X167828634Y-112967883D01*
X168134785Y-112967883D01*
X168285000Y-113027969D01*
G37*
G36*
X171949521Y-112981831D02*
G01*
X172100451Y-113092346D01*
X172203455Y-113255794D01*
X172237790Y-113451431D01*
X172203813Y-113648498D01*
X172101881Y-113810515D01*
X171950594Y-113918884D01*
X171768548Y-113955007D01*
X171592225Y-113917811D01*
X171440937Y-113806223D01*
X171336860Y-113643133D01*
X171302167Y-113451431D01*
X171336502Y-113255794D01*
X171439506Y-113092346D01*
X171591152Y-112981831D01*
X171771409Y-112944993D01*
X171949521Y-112981831D01*
G37*
G36*
X173238267Y-114955484D02*
G01*
X172761395Y-114955484D01*
X171782854Y-114955484D01*
X169820050Y-114955484D01*
X167565401Y-114955484D01*
X165848662Y-114955484D01*
X164068977Y-114955484D01*
X163808605Y-114955484D01*
X163331733Y-114955484D01*
X162428443Y-114955484D01*
X163103693Y-112704649D01*
X163808605Y-112704649D01*
X163830064Y-112849142D01*
X163898734Y-112926395D01*
X163980279Y-112952146D01*
X164080422Y-112956438D01*
X164641223Y-112956438D01*
X163845801Y-114058011D01*
X163808605Y-114186767D01*
X163882997Y-114377039D01*
X164068977Y-114452861D01*
X165176273Y-114452861D01*
X165274986Y-114448569D01*
X165353670Y-114421388D01*
X165419478Y-114341273D01*
X165439506Y-114192489D01*
X165419478Y-114049428D01*
X165355100Y-113973605D01*
X165276416Y-113946423D01*
X165181996Y-113940701D01*
X164569692Y-113940701D01*
X165365114Y-112839127D01*
X165402310Y-112710372D01*
X165400046Y-112704649D01*
X165588290Y-112704649D01*
X165588290Y-114183906D01*
X165592582Y-114282618D01*
X165619764Y-114361302D01*
X165699878Y-114427110D01*
X165848662Y-114447139D01*
X166901595Y-114447139D01*
X167000308Y-114442847D01*
X167078991Y-114415665D01*
X167144800Y-114335551D01*
X167164828Y-114186767D01*
X167144800Y-114035122D01*
X167080422Y-113955007D01*
X167003169Y-113927825D01*
X166904456Y-113923534D01*
X166111896Y-113923534D01*
X166111896Y-113668884D01*
X166635501Y-113668884D01*
X166729921Y-113664592D01*
X166801452Y-113641702D01*
X166857246Y-113575894D01*
X166872983Y-113448569D01*
X166857246Y-113318383D01*
X166802883Y-113249714D01*
X166734213Y-113226824D01*
X166641223Y-113222532D01*
X166111896Y-113222532D01*
X166111896Y-112967883D01*
X166901595Y-112967883D01*
X167000308Y-112963591D01*
X167078991Y-112936409D01*
X167144800Y-112856295D01*
X167164828Y-112707511D01*
X167164450Y-112704649D01*
X167305029Y-112704649D01*
X167305029Y-114181044D01*
X167309320Y-114279757D01*
X167336502Y-114358441D01*
X167416617Y-114424249D01*
X167565401Y-114444278D01*
X167717046Y-114424249D01*
X167797160Y-114359871D01*
X167824342Y-114282618D01*
X167828634Y-114183906D01*
X167828634Y-113909227D01*
X168134785Y-113909227D01*
X168251738Y-113897783D01*
X168373698Y-113863448D01*
X168495300Y-113807654D01*
X168611180Y-113731831D01*
X168713827Y-113631330D01*
X168795730Y-113501502D01*
X168849378Y-113348784D01*
X168867260Y-113179614D01*
X168849020Y-113009728D01*
X168794299Y-112854864D01*
X168711681Y-112722890D01*
X168647209Y-112658870D01*
X168950236Y-112658870D01*
X168967403Y-112787625D01*
X169021767Y-112854864D01*
X169086144Y-112877754D01*
X169167690Y-112882046D01*
X169565401Y-112882046D01*
X169565401Y-114189628D01*
X169569692Y-114285479D01*
X169595443Y-114362732D01*
X169672697Y-114427110D01*
X169820050Y-114447139D01*
X169968834Y-114427110D01*
X170048948Y-114364163D01*
X170076130Y-114288340D01*
X170080422Y-114192489D01*
X170080422Y-113462876D01*
X170778562Y-113462876D01*
X170796981Y-113665486D01*
X170852239Y-113852718D01*
X170944335Y-114024571D01*
X171073269Y-114181044D01*
X171228133Y-114311230D01*
X171398019Y-114404220D01*
X171582926Y-114460014D01*
X171782854Y-114478612D01*
X171977328Y-114459746D01*
X172157318Y-114403147D01*
X172322822Y-114308816D01*
X172473841Y-114176753D01*
X172599646Y-114018222D01*
X172689506Y-113844492D01*
X172743423Y-113655562D01*
X172761395Y-113451431D01*
X172743155Y-113243723D01*
X172688433Y-113052647D01*
X172597232Y-112878201D01*
X172469549Y-112720386D01*
X172315758Y-112589574D01*
X172146230Y-112496137D01*
X171960966Y-112440075D01*
X171759964Y-112421388D01*
X171563076Y-112440343D01*
X171381567Y-112497210D01*
X171215436Y-112591989D01*
X171064685Y-112724678D01*
X170939506Y-112884549D01*
X170850093Y-113060873D01*
X170796445Y-113253648D01*
X170778562Y-113462876D01*
X170080422Y-113462876D01*
X170080422Y-112882046D01*
X170475272Y-112882046D01*
X170556817Y-112877754D01*
X170622625Y-112854864D01*
X170678419Y-112787625D01*
X170695587Y-112661731D01*
X170678419Y-112535837D01*
X170624056Y-112468598D01*
X170559678Y-112445708D01*
X170478133Y-112441416D01*
X169170551Y-112441416D01*
X169089006Y-112445708D01*
X169023197Y-112468598D01*
X168967403Y-112534406D01*
X168950236Y-112658870D01*
X168647209Y-112658870D01*
X168609750Y-112621674D01*
X168495300Y-112545851D01*
X168375129Y-112490057D01*
X168254242Y-112455722D01*
X168137647Y-112444278D01*
X167568262Y-112444278D01*
X167416617Y-112464306D01*
X167336502Y-112530114D01*
X167309320Y-112608798D01*
X167305029Y-112704649D01*
X167164450Y-112704649D01*
X167144800Y-112555866D01*
X167080422Y-112475751D01*
X167003169Y-112448569D01*
X166904456Y-112444278D01*
X165857246Y-112444278D01*
X165646946Y-112500072D01*
X165588290Y-112704649D01*
X165400046Y-112704649D01*
X165326488Y-112518670D01*
X165141938Y-112441416D01*
X164071838Y-112441416D01*
X163973126Y-112445708D01*
X163894442Y-112472890D01*
X163828634Y-112553004D01*
X163808605Y-112704649D01*
X163103693Y-112704649D01*
X163331733Y-111944516D01*
X163808605Y-111944516D01*
X172761395Y-111944516D01*
X173238267Y-111944516D01*
X174141557Y-111944516D01*
X173238267Y-114955484D01*
G37*
%TO.C,kibuzzard-66E9DEBC*%
G36*
X168239220Y-95430218D02*
G01*
X168259821Y-95486870D01*
X168259821Y-95610475D01*
X168092725Y-95610475D01*
X168092725Y-95488015D01*
X168116760Y-95427929D01*
X168176273Y-95403322D01*
X168239220Y-95430218D01*
G37*
G36*
X168336502Y-93832507D02*
G01*
X168386860Y-93838801D01*
X168438362Y-93853680D01*
X168473269Y-93882864D01*
X168488720Y-93930361D01*
X168476059Y-93972922D01*
X168438076Y-94003322D01*
X168374771Y-94021563D01*
X168286144Y-94027643D01*
X168196516Y-94021491D01*
X168132496Y-94003036D01*
X168094084Y-93972278D01*
X168081280Y-93929216D01*
X168094013Y-93886656D01*
X168132210Y-93856255D01*
X168195873Y-93838015D01*
X168285000Y-93831935D01*
X168290722Y-93831935D01*
X168336502Y-93832507D01*
G37*
G36*
X168890055Y-95043952D02*
G01*
X168890055Y-95715769D01*
X168890055Y-96170132D01*
X168890055Y-97271133D01*
X168890055Y-97374138D01*
X168890055Y-97564886D01*
X168285000Y-97968256D01*
X167679945Y-97564886D01*
X167679945Y-97374138D01*
X167679945Y-96616484D01*
X167884428Y-96616484D01*
X167891295Y-96677142D01*
X167917618Y-96711477D01*
X168216330Y-96943809D01*
X167916474Y-97177285D01*
X167908462Y-97184724D01*
X167899878Y-97193308D01*
X167894156Y-97203036D01*
X167889006Y-97217914D01*
X167886144Y-97238515D01*
X167884428Y-97268844D01*
X167892439Y-97329502D01*
X167918190Y-97361548D01*
X167949092Y-97372421D01*
X167987432Y-97374138D01*
X168577990Y-97374138D01*
X168618047Y-97371849D01*
X168649521Y-97360976D01*
X168675272Y-97330075D01*
X168683283Y-97271133D01*
X168675272Y-97210475D01*
X168649521Y-97178430D01*
X168618619Y-97167557D01*
X168580279Y-97165840D01*
X168254099Y-97165840D01*
X168434928Y-97033079D01*
X168470122Y-96995311D01*
X168481853Y-96943809D01*
X168478419Y-96912335D01*
X168468119Y-96888301D01*
X168456674Y-96873422D01*
X168444084Y-96862550D01*
X168434928Y-96855683D01*
X168252954Y-96721777D01*
X168577990Y-96721777D01*
X168617475Y-96720060D01*
X168648948Y-96709188D01*
X168675272Y-96677142D01*
X168683283Y-96617628D01*
X168675272Y-96557543D01*
X168650093Y-96526069D01*
X168619192Y-96514624D01*
X168580279Y-96512335D01*
X167989721Y-96512335D01*
X167949664Y-96514624D01*
X167918190Y-96525497D01*
X167892439Y-96556970D01*
X167884428Y-96616484D01*
X167679945Y-96616484D01*
X167679945Y-96180432D01*
X167870694Y-96180432D01*
X167878387Y-96253807D01*
X167901468Y-96318280D01*
X167939936Y-96373852D01*
X167990103Y-96416452D01*
X168048281Y-96442012D01*
X168114471Y-96450533D01*
X168188863Y-96441377D01*
X168250665Y-96413909D01*
X168299878Y-96368129D01*
X168336502Y-96304038D01*
X168352096Y-96260690D01*
X168366831Y-96206183D01*
X168393727Y-96116341D01*
X168429206Y-96086584D01*
X168482425Y-96107185D01*
X168499020Y-96174710D01*
X168488147Y-96219917D01*
X168446373Y-96266269D01*
X168404663Y-96317899D01*
X168397033Y-96367493D01*
X168423484Y-96415053D01*
X168496731Y-96463122D01*
X168571123Y-96434510D01*
X168579134Y-96427643D01*
X168595157Y-96415053D01*
X168615186Y-96395025D01*
X168637504Y-96367557D01*
X168659249Y-96332078D01*
X168678133Y-96288015D01*
X168690722Y-96234223D01*
X168695873Y-96170132D01*
X168687289Y-96094023D01*
X168658104Y-96015625D01*
X168607175Y-95945239D01*
X168529921Y-95895454D01*
X168480422Y-95880862D01*
X168425773Y-95875997D01*
X168340222Y-95886727D01*
X168278133Y-95918916D01*
X168234642Y-95969131D01*
X168204886Y-96033937D01*
X168187146Y-96107185D01*
X168172840Y-96176999D01*
X168152811Y-96222206D01*
X168115615Y-96242235D01*
X168080708Y-96223923D01*
X168066402Y-96181577D01*
X168070408Y-96143809D01*
X168078991Y-96121491D01*
X168092153Y-96105468D01*
X168103026Y-96092306D01*
X168124199Y-96015625D01*
X168068691Y-95948100D01*
X167998305Y-95920633D01*
X167939363Y-95961834D01*
X167901214Y-96021221D01*
X167878324Y-96094087D01*
X167870694Y-96180432D01*
X167679945Y-96180432D01*
X167679945Y-95486870D01*
X167883283Y-95486870D01*
X167883283Y-95714624D01*
X167891295Y-95775282D01*
X167917618Y-95807328D01*
X167949092Y-95818201D01*
X167987432Y-95819917D01*
X168577990Y-95819917D01*
X168617475Y-95818201D01*
X168648948Y-95807328D01*
X168675272Y-95775282D01*
X168683283Y-95715769D01*
X168675272Y-95655110D01*
X168649521Y-95623065D01*
X168618619Y-95612192D01*
X168579134Y-95610475D01*
X168469263Y-95610475D01*
X168469263Y-95488015D01*
X168464685Y-95441234D01*
X168450951Y-95392450D01*
X168428634Y-95343809D01*
X168398305Y-95297457D01*
X168358104Y-95256398D01*
X168306173Y-95223637D01*
X168245086Y-95202178D01*
X168177418Y-95195025D01*
X168109464Y-95202321D01*
X168047518Y-95224209D01*
X167994728Y-95257256D01*
X167954242Y-95298029D01*
X167923913Y-95343809D01*
X167901595Y-95391877D01*
X167887861Y-95440232D01*
X167883283Y-95486870D01*
X167679945Y-95486870D01*
X167679945Y-94389302D01*
X167884428Y-94389302D01*
X167891295Y-94449960D01*
X167917618Y-94484295D01*
X168216330Y-94716627D01*
X167916474Y-94950103D01*
X167908462Y-94957543D01*
X167899878Y-94966126D01*
X167894156Y-94975854D01*
X167889006Y-94990733D01*
X167886144Y-95011334D01*
X167884428Y-95041663D01*
X167892439Y-95102321D01*
X167918190Y-95134367D01*
X167949092Y-95145239D01*
X167987432Y-95146956D01*
X168577990Y-95146956D01*
X168618047Y-95144667D01*
X168649521Y-95133794D01*
X168675272Y-95102893D01*
X168683283Y-95043952D01*
X168675272Y-94983294D01*
X168649521Y-94951248D01*
X168618619Y-94940375D01*
X168580279Y-94938658D01*
X168254099Y-94938658D01*
X168434928Y-94805897D01*
X168470122Y-94768129D01*
X168481853Y-94716627D01*
X168478419Y-94685153D01*
X168468119Y-94661119D01*
X168456674Y-94646241D01*
X168444084Y-94635368D01*
X168434928Y-94628501D01*
X168252954Y-94494595D01*
X168577990Y-94494595D01*
X168617475Y-94492879D01*
X168648948Y-94482006D01*
X168675272Y-94449960D01*
X168683283Y-94390447D01*
X168675272Y-94330361D01*
X168650093Y-94298887D01*
X168619192Y-94287442D01*
X168580279Y-94285153D01*
X167989721Y-94285153D01*
X167949664Y-94287442D01*
X167918190Y-94298315D01*
X167892439Y-94329789D01*
X167884428Y-94389302D01*
X167679945Y-94389302D01*
X167679945Y-93928072D01*
X167871838Y-93928072D01*
X167879421Y-94000175D01*
X167902167Y-94063122D01*
X167936073Y-94114910D01*
X167977132Y-94153537D01*
X168025486Y-94182578D01*
X168081280Y-94205611D01*
X168137933Y-94222063D01*
X168188863Y-94231362D01*
X168236931Y-94235654D01*
X168285000Y-94237085D01*
X168368548Y-94232507D01*
X168459535Y-94216484D01*
X168507031Y-94202035D01*
X168549950Y-94181577D01*
X168625486Y-94125497D01*
X168656531Y-94088158D01*
X168679850Y-94041377D01*
X168694442Y-93986727D01*
X168699306Y-93925783D01*
X168692153Y-93856827D01*
X168670694Y-93796455D01*
X168638362Y-93746384D01*
X168598591Y-93708329D01*
X168551524Y-93679288D01*
X168497303Y-93656255D01*
X168441223Y-93639517D01*
X168388577Y-93629359D01*
X168337504Y-93624209D01*
X168286144Y-93622492D01*
X168236073Y-93624066D01*
X168186574Y-93628787D01*
X168134928Y-93638515D01*
X168078419Y-93655110D01*
X168023197Y-93678143D01*
X167975415Y-93707185D01*
X167934928Y-93745525D01*
X167901595Y-93796455D01*
X167879278Y-93857972D01*
X167871838Y-93928072D01*
X167679945Y-93928072D01*
X167679945Y-93622492D01*
X167679945Y-93431744D01*
X168890055Y-93431744D01*
X168890055Y-93622492D01*
X168890055Y-93925783D01*
X168890055Y-95043952D01*
G37*
D13*
%TO.C,SW1*%
X171900000Y-106550000D02*
X171900000Y-106670000D01*
X171900000Y-107680000D02*
X171900000Y-108820000D01*
X171900000Y-109830000D02*
X171900000Y-109950000D01*
X171900000Y-109950000D02*
X176300000Y-109950000D01*
X176300000Y-106550000D02*
X171900000Y-106550000D01*
X176300000Y-106670000D02*
X176300000Y-106550000D01*
X176300000Y-108820000D02*
X176300000Y-107680000D01*
X176300000Y-109950000D02*
X176300000Y-109830000D01*
D11*
%TO.C,J2*%
X170700000Y-88975000D02*
X170700000Y-86700000D01*
X171500000Y-88975000D02*
X170700000Y-88975000D01*
X175500000Y-84725000D02*
X171900000Y-84725000D01*
X175900000Y-88975000D02*
X176700000Y-88975000D01*
X176700000Y-88975000D02*
X176700000Y-86700000D01*
D12*
X176250000Y-89685000D02*
G75*
G02*
X176050000Y-89685000I-100000J0D01*
G01*
X176050000Y-89685000D02*
G75*
G02*
X176250000Y-89685000I100000J0D01*
G01*
D14*
%TO.C,kibuzzard-66E9DE2A*%
G36*
X167144800Y-89964449D02*
G01*
X167205172Y-90008655D01*
X167246373Y-90074034D01*
X167260107Y-90152289D01*
X167246516Y-90231116D01*
X167205744Y-90295923D01*
X167145229Y-90339270D01*
X167072411Y-90353720D01*
X167001166Y-90338984D01*
X166940794Y-90294778D01*
X166899592Y-90229685D01*
X166885858Y-90152289D01*
X166899592Y-90074034D01*
X166940794Y-90008655D01*
X167001452Y-89964449D01*
X167073555Y-89949714D01*
X167144800Y-89964449D01*
G37*
G36*
X169952985Y-89547859D02*
G01*
X170011719Y-89556571D01*
X170069317Y-89570999D01*
X170125224Y-89591002D01*
X170178900Y-89616389D01*
X170229830Y-89646915D01*
X170277522Y-89682286D01*
X170321517Y-89722162D01*
X170361393Y-89766157D01*
X170396764Y-89813850D01*
X170427290Y-89864779D01*
X170452677Y-89918456D01*
X170472680Y-89974362D01*
X170487108Y-90031960D01*
X170495820Y-90090694D01*
X170498734Y-90150000D01*
X170495820Y-90209306D01*
X170487108Y-90268040D01*
X170472680Y-90325638D01*
X170452677Y-90381544D01*
X170427290Y-90435221D01*
X170396764Y-90486150D01*
X170361393Y-90533843D01*
X170321517Y-90577838D01*
X170277522Y-90617714D01*
X170229830Y-90653085D01*
X170178900Y-90683611D01*
X170125224Y-90708998D01*
X170069317Y-90729001D01*
X170011719Y-90743429D01*
X169952985Y-90752141D01*
X169893679Y-90755055D01*
X169893584Y-90755055D01*
X169616617Y-90755055D01*
X169048948Y-90755055D01*
X168775415Y-90755055D01*
X167887289Y-90755055D01*
X167078133Y-90755055D01*
X166676416Y-90755055D01*
X166676321Y-90755055D01*
X166617015Y-90752141D01*
X166558281Y-90743429D01*
X166500683Y-90729001D01*
X166444776Y-90708998D01*
X166391100Y-90683611D01*
X166340170Y-90653085D01*
X166292478Y-90617714D01*
X166248483Y-90577838D01*
X166208607Y-90533843D01*
X166173236Y-90486150D01*
X166142710Y-90435221D01*
X166117323Y-90381544D01*
X166097320Y-90325638D01*
X166082892Y-90268040D01*
X166074180Y-90209306D01*
X166071603Y-90156867D01*
X166676416Y-90156867D01*
X166683784Y-90237911D01*
X166705887Y-90312804D01*
X166742725Y-90381545D01*
X166794299Y-90444134D01*
X166856245Y-90496209D01*
X166924199Y-90533405D01*
X166998162Y-90555722D01*
X167078133Y-90563162D01*
X167156086Y-90555023D01*
X167229715Y-90530607D01*
X167299020Y-90489914D01*
X167363112Y-90531116D01*
X167440937Y-90560300D01*
X167508462Y-90504793D01*
X167538219Y-90423534D01*
X167483283Y-90359442D01*
X167431781Y-90325107D01*
X167460107Y-90239557D01*
X167469549Y-90152289D01*
X167462253Y-90069206D01*
X167440365Y-89992775D01*
X167403884Y-89922997D01*
X167352811Y-89859871D01*
X167291295Y-89807546D01*
X167283444Y-89803219D01*
X167577704Y-89803219D01*
X167582854Y-89887911D01*
X167788863Y-90478469D01*
X167799163Y-90503076D01*
X167830064Y-90532833D01*
X167887289Y-90549428D01*
X167952239Y-90529971D01*
X167989149Y-90471602D01*
X168096731Y-90120243D01*
X168204313Y-90472747D01*
X168210608Y-90489342D01*
X168225486Y-90513376D01*
X168257532Y-90539127D01*
X168306173Y-90549428D01*
X168369979Y-90531688D01*
X168405744Y-90478469D01*
X168610608Y-89887911D01*
X168613195Y-89853577D01*
X168671266Y-89853577D01*
X168671266Y-90445279D01*
X168672983Y-90484764D01*
X168683856Y-90516237D01*
X168715901Y-90542561D01*
X168775415Y-90550572D01*
X168836073Y-90542561D01*
X168868119Y-90516810D01*
X168878991Y-90485908D01*
X168880708Y-90446423D01*
X168880708Y-89854721D01*
X168880658Y-89853577D01*
X168944800Y-89853577D01*
X168944800Y-90445279D01*
X168946516Y-90484764D01*
X168957389Y-90516237D01*
X168989435Y-90542561D01*
X169048948Y-90550572D01*
X169109607Y-90542561D01*
X169141652Y-90516810D01*
X169152525Y-90485908D01*
X169154242Y-90446423D01*
X169154242Y-90145422D01*
X169202310Y-90145422D01*
X169209607Y-90228684D01*
X169231495Y-90304506D01*
X169264542Y-90370172D01*
X169305315Y-90422961D01*
X169352954Y-90465880D01*
X169406602Y-90501931D01*
X169462396Y-90529828D01*
X169516474Y-90548283D01*
X169568119Y-90558584D01*
X169616617Y-90562017D01*
X169690627Y-90554896D01*
X169761586Y-90533532D01*
X169829492Y-90497926D01*
X169876416Y-90463019D01*
X169892439Y-90421245D01*
X169867260Y-90354864D01*
X169826059Y-90305937D01*
X169787146Y-90289628D01*
X169729921Y-90312518D01*
X169672411Y-90340844D01*
X169612039Y-90350286D01*
X169525057Y-90331974D01*
X169483712Y-90306366D01*
X169446660Y-90266166D01*
X169420479Y-90213662D01*
X169411752Y-90151144D01*
X169416617Y-90102504D01*
X169431209Y-90059585D01*
X169482139Y-89997210D01*
X169546803Y-89963448D01*
X169612039Y-89952003D01*
X169639506Y-89953147D01*
X169662396Y-89957153D01*
X169680708Y-89961731D01*
X169696159Y-89967454D01*
X169707031Y-89973748D01*
X169716760Y-89980043D01*
X169724199Y-89985193D01*
X169786001Y-90011516D01*
X169825486Y-89996066D01*
X169868405Y-89949714D01*
X169893584Y-89885622D01*
X169882711Y-89851288D01*
X169861538Y-89827253D01*
X169830637Y-89805508D01*
X169758406Y-89769901D01*
X169688211Y-89748538D01*
X169620050Y-89741416D01*
X169569549Y-89744850D01*
X169516474Y-89755150D01*
X169461538Y-89773319D01*
X169405458Y-89800358D01*
X169351810Y-89835265D01*
X169304170Y-89877039D01*
X169263541Y-89928398D01*
X169230923Y-89992060D01*
X169209464Y-90065308D01*
X169202310Y-90145422D01*
X169154242Y-90145422D01*
X169154242Y-89854721D01*
X169152525Y-89815236D01*
X169141652Y-89783763D01*
X169109607Y-89757439D01*
X169050093Y-89749428D01*
X168989435Y-89757439D01*
X168957389Y-89783763D01*
X168946516Y-89815236D01*
X168944800Y-89853577D01*
X168880658Y-89853577D01*
X168878991Y-89815236D01*
X168868119Y-89783763D01*
X168836073Y-89757439D01*
X168776559Y-89749428D01*
X168715901Y-89757439D01*
X168683856Y-89783763D01*
X168672983Y-89815236D01*
X168671266Y-89853577D01*
X168613195Y-89853577D01*
X168616903Y-89804363D01*
X168545372Y-89754006D01*
X168458963Y-89749428D01*
X168412611Y-89820386D01*
X168293584Y-90170601D01*
X168199735Y-89827253D01*
X168196302Y-89818097D01*
X168190579Y-89803791D01*
X168183140Y-89789485D01*
X168170551Y-89774607D01*
X168152811Y-89762017D01*
X168127632Y-89752289D01*
X168094442Y-89749428D01*
X168028634Y-89768598D01*
X167993727Y-89826109D01*
X167899878Y-90168312D01*
X167780851Y-89820386D01*
X167734499Y-89750000D01*
X167649235Y-89755150D01*
X167577704Y-89803219D01*
X167283444Y-89803219D01*
X167223484Y-89770172D01*
X167149378Y-89747747D01*
X167068977Y-89740272D01*
X166990222Y-89747854D01*
X166917618Y-89770601D01*
X166851166Y-89808512D01*
X166790866Y-89861588D01*
X166740794Y-89925536D01*
X166705029Y-89996066D01*
X166683569Y-90073176D01*
X166676416Y-90156867D01*
X166071603Y-90156867D01*
X166071266Y-90150000D01*
X166074180Y-90090694D01*
X166082892Y-90031960D01*
X166097320Y-89974362D01*
X166117323Y-89918456D01*
X166142710Y-89864779D01*
X166173236Y-89813850D01*
X166208607Y-89766157D01*
X166248483Y-89722162D01*
X166292478Y-89682286D01*
X166340170Y-89646915D01*
X166391100Y-89616389D01*
X166444776Y-89591002D01*
X166500683Y-89570999D01*
X166558281Y-89556571D01*
X166617015Y-89547859D01*
X166676321Y-89544945D01*
X166676416Y-89544945D01*
X169893584Y-89544945D01*
X169893679Y-89544945D01*
X169952985Y-89547859D01*
G37*
D13*
%TO.C,R4*%
X169420832Y-108857258D02*
X169420832Y-108382742D01*
X170465832Y-108857258D02*
X170465832Y-108382742D01*
D11*
%TO.C,U4*%
X165547500Y-98581750D02*
X165547500Y-98881750D01*
X165547500Y-98581750D02*
X165847500Y-98581750D01*
X165547500Y-103581750D02*
X165547500Y-103281750D01*
X165547500Y-103581750D02*
X165847500Y-103581750D01*
X170547500Y-98581750D02*
X170247500Y-98581750D01*
X170547500Y-98581750D02*
X170547500Y-98881750D01*
X170547500Y-103581750D02*
X170247500Y-103581750D01*
X170547500Y-103581750D02*
X170547500Y-103281750D01*
D15*
X171397500Y-102831750D02*
G75*
G02*
X171197500Y-102831750I-100000J0D01*
G01*
X171197500Y-102831750D02*
G75*
G02*
X171397500Y-102831750I100000J0D01*
G01*
D13*
%TO.C,C6*%
X164929420Y-90940000D02*
X165210580Y-90940000D01*
X164929420Y-91960000D02*
X165210580Y-91960000D01*
D14*
%TO.C,kibuzzard-66E9D12B*%
G36*
X165763763Y-105579471D02*
G01*
X165788369Y-105638984D01*
X165762046Y-105701931D01*
X165707110Y-105722532D01*
X165581216Y-105722532D01*
X165581216Y-105555436D01*
X165704821Y-105555436D01*
X165763763Y-105579471D01*
G37*
G36*
X161840443Y-105563448D02*
G01*
X161852461Y-105598927D01*
X161844449Y-105634406D01*
X161816981Y-105642418D01*
X161803247Y-105642418D01*
X161733433Y-105661302D01*
X161712833Y-105727110D01*
X161732289Y-105795207D01*
X161797525Y-105815236D01*
X161812403Y-105815236D01*
X161860472Y-105826109D01*
X161875351Y-105873605D01*
X161869056Y-105909657D01*
X161851888Y-105929113D01*
X161834149Y-105935408D01*
X161818126Y-105936552D01*
X161654464Y-105936552D01*
X161654464Y-105554292D01*
X161792947Y-105554292D01*
X161840443Y-105563448D01*
G37*
G36*
X166205727Y-106403124D02*
G01*
X166014979Y-106403124D01*
X165874206Y-106403124D01*
X165021559Y-106403124D01*
X164323419Y-106403124D01*
X163526853Y-106403124D01*
X162889371Y-106403124D01*
X162417840Y-106403124D01*
X161549170Y-106403124D01*
X161445021Y-106403124D01*
X161254273Y-106403124D01*
X161254273Y-105448999D01*
X161445021Y-105448999D01*
X161445021Y-106039557D01*
X161446738Y-106079614D01*
X161457611Y-106111660D01*
X161489657Y-106137983D01*
X161549170Y-106145994D01*
X161829571Y-106145994D01*
X161895761Y-106137601D01*
X161955465Y-106112423D01*
X162008684Y-106070458D01*
X162050458Y-106016412D01*
X162073989Y-105959442D01*
X162124850Y-105959442D01*
X162153462Y-106033834D01*
X162160329Y-106041845D01*
X162172918Y-106057868D01*
X162192947Y-106077897D01*
X162220415Y-106100215D01*
X162255894Y-106121960D01*
X162299957Y-106140844D01*
X162353748Y-106153433D01*
X162417840Y-106158584D01*
X162493948Y-106150000D01*
X162572346Y-106120815D01*
X162642732Y-106069886D01*
X162692518Y-105992632D01*
X162707110Y-105943133D01*
X162711974Y-105888484D01*
X162701245Y-105802933D01*
X162669056Y-105740844D01*
X162618841Y-105697353D01*
X162554034Y-105667597D01*
X162480787Y-105649857D01*
X162410973Y-105635551D01*
X162365765Y-105615522D01*
X162345737Y-105578326D01*
X162364049Y-105543419D01*
X162406395Y-105529113D01*
X162444163Y-105533119D01*
X162466481Y-105541702D01*
X162482504Y-105554864D01*
X162495665Y-105565737D01*
X162572346Y-105586910D01*
X162639871Y-105531402D01*
X162667339Y-105461016D01*
X162659738Y-105450143D01*
X162785222Y-105450143D01*
X162785222Y-106041845D01*
X162786938Y-106081330D01*
X162797811Y-106112804D01*
X162829857Y-106139127D01*
X162889371Y-106147139D01*
X163272775Y-106147139D01*
X163305393Y-106145422D01*
X163321550Y-106139700D01*
X163384936Y-106139700D01*
X163447883Y-106189485D01*
X163526853Y-106204936D01*
X163576066Y-106149428D01*
X163912758Y-105450143D01*
X163970916Y-105450143D01*
X163970916Y-105770601D01*
X163976638Y-105839843D01*
X163993805Y-105907940D01*
X164021702Y-105972890D01*
X164059614Y-106032690D01*
X164108970Y-106084335D01*
X164171202Y-106124821D01*
X164243591Y-106151001D01*
X164323419Y-106159728D01*
X164403391Y-106151144D01*
X164476209Y-106125393D01*
X164539013Y-106085479D01*
X164588941Y-106034406D01*
X164627425Y-105975036D01*
X164634275Y-105959442D01*
X164728569Y-105959442D01*
X164757182Y-106033834D01*
X164764049Y-106041845D01*
X164776638Y-106057868D01*
X164796667Y-106077897D01*
X164824134Y-106100215D01*
X164859614Y-106121960D01*
X164903677Y-106140844D01*
X164957468Y-106153433D01*
X165021559Y-106158584D01*
X165097668Y-106150000D01*
X165176066Y-106120815D01*
X165246452Y-106069886D01*
X165296237Y-105992632D01*
X165310830Y-105943133D01*
X165315694Y-105888484D01*
X165304964Y-105802933D01*
X165272775Y-105740844D01*
X165222561Y-105697353D01*
X165157754Y-105667597D01*
X165084506Y-105649857D01*
X165014692Y-105635551D01*
X164969485Y-105615522D01*
X164949456Y-105578326D01*
X164967768Y-105543419D01*
X165010114Y-105529113D01*
X165047883Y-105533119D01*
X165070200Y-105541702D01*
X165086223Y-105554864D01*
X165099385Y-105565737D01*
X165176066Y-105586910D01*
X165243591Y-105531402D01*
X165271059Y-105461016D01*
X165263458Y-105450143D01*
X165371774Y-105450143D01*
X165371774Y-106040701D01*
X165373491Y-106080186D01*
X165384363Y-106111660D01*
X165416409Y-106137983D01*
X165475923Y-106145994D01*
X165536581Y-106137983D01*
X165568627Y-106112232D01*
X165579499Y-106081330D01*
X165581216Y-106041845D01*
X165581216Y-105930830D01*
X165687654Y-105930830D01*
X165810114Y-106096781D01*
X165874206Y-106150000D01*
X165955465Y-106118526D01*
X166010401Y-106051001D01*
X165979499Y-105972031D01*
X165897096Y-105862160D01*
X165953049Y-105799849D01*
X165986621Y-105725838D01*
X165997811Y-105640129D01*
X165990658Y-105572175D01*
X165969199Y-105510229D01*
X165936438Y-105457439D01*
X165895379Y-105416953D01*
X165849313Y-105386624D01*
X165801531Y-105364306D01*
X165753605Y-105350572D01*
X165707110Y-105345994D01*
X165477067Y-105345994D01*
X165416409Y-105354006D01*
X165384363Y-105380329D01*
X165373491Y-105411803D01*
X165371774Y-105450143D01*
X165263458Y-105450143D01*
X165229857Y-105402074D01*
X165170471Y-105363925D01*
X165097605Y-105341035D01*
X165011259Y-105333405D01*
X164937884Y-105341098D01*
X164873411Y-105364179D01*
X164817840Y-105402647D01*
X164775239Y-105452814D01*
X164749679Y-105510992D01*
X164741159Y-105577182D01*
X164750315Y-105651574D01*
X164777783Y-105713376D01*
X164823562Y-105762589D01*
X164887654Y-105799213D01*
X164931001Y-105814807D01*
X164985508Y-105829542D01*
X165075351Y-105856438D01*
X165105107Y-105891917D01*
X165084506Y-105945136D01*
X165016981Y-105961731D01*
X164971774Y-105950858D01*
X164925422Y-105909084D01*
X164873793Y-105867374D01*
X164824198Y-105859744D01*
X164776638Y-105886195D01*
X164728569Y-105959442D01*
X164634275Y-105959442D01*
X164655894Y-105910229D01*
X164673491Y-105842132D01*
X164679356Y-105772890D01*
X164679356Y-105451288D01*
X164677639Y-105411803D01*
X164666767Y-105379757D01*
X164634721Y-105352861D01*
X164575207Y-105344850D01*
X164515694Y-105352861D01*
X164483648Y-105377468D01*
X164472203Y-105407225D01*
X164469914Y-105444421D01*
X164469914Y-105769456D01*
X164460186Y-105842704D01*
X164431001Y-105899928D01*
X164385508Y-105936838D01*
X164326853Y-105949142D01*
X164277926Y-105941559D01*
X164238727Y-105918813D01*
X164192947Y-105851288D01*
X164181502Y-105770601D01*
X164181502Y-105451288D01*
X164179213Y-105410658D01*
X164167768Y-105378612D01*
X164136295Y-105352861D01*
X164076209Y-105344850D01*
X164015551Y-105352861D01*
X163983505Y-105379185D01*
X163972632Y-105410658D01*
X163970916Y-105450143D01*
X163912758Y-105450143D01*
X163918269Y-105438698D01*
X163934292Y-105364878D01*
X163870200Y-105311660D01*
X163791803Y-105295064D01*
X163740873Y-105350572D01*
X163397525Y-106068169D01*
X163384936Y-106139700D01*
X163321550Y-106139700D01*
X163332861Y-106135694D01*
X163355179Y-106108226D01*
X163362046Y-106057868D01*
X163355179Y-106006366D01*
X163332861Y-105979471D01*
X163306538Y-105970315D01*
X163273920Y-105968598D01*
X162994664Y-105968598D01*
X162994664Y-105451288D01*
X162992947Y-105411803D01*
X162982074Y-105380329D01*
X162950029Y-105354006D01*
X162890515Y-105345994D01*
X162829857Y-105354006D01*
X162797811Y-105380329D01*
X162786938Y-105411803D01*
X162785222Y-105450143D01*
X162659738Y-105450143D01*
X162626137Y-105402074D01*
X162566751Y-105363925D01*
X162493885Y-105341035D01*
X162407539Y-105333405D01*
X162334165Y-105341098D01*
X162269692Y-105364179D01*
X162214120Y-105402647D01*
X162171520Y-105452814D01*
X162145959Y-105510992D01*
X162137439Y-105577182D01*
X162146595Y-105651574D01*
X162174063Y-105713376D01*
X162219843Y-105762589D01*
X162283934Y-105799213D01*
X162327282Y-105814807D01*
X162381788Y-105829542D01*
X162471631Y-105856438D01*
X162501388Y-105891917D01*
X162480787Y-105945136D01*
X162413262Y-105961731D01*
X162368054Y-105950858D01*
X162321702Y-105909084D01*
X162270073Y-105867374D01*
X162220478Y-105859744D01*
X162172918Y-105886195D01*
X162124850Y-105959442D01*
X162073989Y-105959442D01*
X162075827Y-105954991D01*
X162084793Y-105886195D01*
X162069628Y-105798355D01*
X162024134Y-105717954D01*
X162052461Y-105656724D01*
X162061903Y-105589771D01*
X162054018Y-105526379D01*
X162030366Y-105468964D01*
X161990944Y-105417525D01*
X161940205Y-105377150D01*
X161882599Y-105352925D01*
X161818126Y-105344850D01*
X161550315Y-105344850D01*
X161489657Y-105352861D01*
X161457611Y-105379185D01*
X161446738Y-105410658D01*
X161445021Y-105448999D01*
X161254273Y-105448999D01*
X161254273Y-105096876D01*
X161445021Y-105096876D01*
X166014979Y-105096876D01*
X166205727Y-105096876D01*
X166205727Y-106403124D01*
G37*
D13*
%TO.C,C4*%
X171670580Y-92590000D02*
X171389420Y-92590000D01*
X171670580Y-93610000D02*
X171389420Y-93610000D01*
%TO.C,R2*%
X168012742Y-88077500D02*
X168487258Y-88077500D01*
X168012742Y-89122500D02*
X168487258Y-89122500D01*
%TO.C,R5*%
X171292742Y-90927500D02*
X171767258Y-90927500D01*
X171292742Y-91972500D02*
X171767258Y-91972500D01*
%TO.C,C10*%
X172409420Y-103740000D02*
X172690580Y-103740000D01*
X172409420Y-104760000D02*
X172690580Y-104760000D01*
%TO.C,R6*%
X159277500Y-110037258D02*
X159277500Y-109562742D01*
X160322500Y-110037258D02*
X160322500Y-109562742D01*
%TO.C,C1*%
X173240000Y-99009420D02*
X173240000Y-99290580D01*
X174260000Y-99009420D02*
X174260000Y-99290580D01*
%TO.C,D2*%
X168504000Y-87304000D02*
X167996000Y-87050000D01*
X168504000Y-86796000D01*
X168504000Y-87304000D01*
G36*
X168504000Y-87304000D02*
G01*
X167996000Y-87050000D01*
X168504000Y-86796000D01*
X168504000Y-87304000D01*
G37*
%TO.C,D1*%
X160005000Y-96514000D02*
X159751000Y-96006000D01*
X160259000Y-96006000D01*
X160005000Y-96514000D01*
G36*
X160005000Y-96514000D02*
G01*
X159751000Y-96006000D01*
X160259000Y-96006000D01*
X160005000Y-96514000D01*
G37*
%TO.C,SW2*%
X161550000Y-106550000D02*
X161550000Y-106670000D01*
X161550000Y-107680000D02*
X161550000Y-108820000D01*
X161550000Y-109830000D02*
X161550000Y-109950000D01*
X161550000Y-109950000D02*
X165950000Y-109950000D01*
X165950000Y-106550000D02*
X161550000Y-106550000D01*
X165950000Y-106670000D02*
X165950000Y-106550000D01*
X165950000Y-108820000D02*
X165950000Y-107680000D01*
X165950000Y-109950000D02*
X165950000Y-109830000D01*
%TO.C,R3*%
X160967258Y-90927500D02*
X160492742Y-90927500D01*
X160967258Y-91972500D02*
X160492742Y-91972500D01*
%TO.C,C9*%
X174790000Y-99290580D02*
X174790000Y-99009420D01*
X175810000Y-99290580D02*
X175810000Y-99009420D01*
D14*
%TO.C,kibuzzard-66E9D133*%
G36*
X172788441Y-105583476D02*
G01*
X172813047Y-105642990D01*
X172786724Y-105705937D01*
X172731788Y-105726538D01*
X172605894Y-105726538D01*
X172605894Y-105559442D01*
X172729499Y-105559442D01*
X172788441Y-105583476D01*
G37*
G36*
X175954297Y-106353338D02*
G01*
X175763548Y-106353338D01*
X175413333Y-106353338D01*
X174505751Y-106353338D01*
X174047954Y-106353338D01*
X173195308Y-106353338D01*
X172898884Y-106353338D01*
X172396452Y-106353338D01*
X172205703Y-106353338D01*
X172205703Y-105454149D01*
X172396452Y-105454149D01*
X172396452Y-106044707D01*
X172398169Y-106084192D01*
X172409041Y-106115665D01*
X172441087Y-106141989D01*
X172500601Y-106150000D01*
X172561259Y-106141989D01*
X172593305Y-106116237D01*
X172604177Y-106085336D01*
X172605894Y-106045851D01*
X172605894Y-105934835D01*
X172712332Y-105934835D01*
X172834793Y-106100787D01*
X172898884Y-106154006D01*
X172980143Y-106122532D01*
X173035079Y-106055007D01*
X173004177Y-105976037D01*
X172921774Y-105866166D01*
X172977727Y-105803855D01*
X173011299Y-105729844D01*
X173022489Y-105644134D01*
X173015336Y-105576180D01*
X172993877Y-105514235D01*
X172961116Y-105461445D01*
X172953717Y-105454149D01*
X173091159Y-105454149D01*
X173091159Y-106045851D01*
X173092876Y-106085336D01*
X173103748Y-106116810D01*
X173135794Y-106143133D01*
X173195308Y-106151144D01*
X173616481Y-106151144D01*
X173655966Y-106149428D01*
X173687439Y-106138555D01*
X173713763Y-106106509D01*
X173721774Y-106046996D01*
X173713763Y-105986338D01*
X173695369Y-105963448D01*
X173754964Y-105963448D01*
X173783577Y-106037840D01*
X173790443Y-106045851D01*
X173803033Y-106061874D01*
X173823062Y-106081903D01*
X173850529Y-106104220D01*
X173886009Y-106125966D01*
X173930072Y-106144850D01*
X173983863Y-106157439D01*
X174047954Y-106162589D01*
X174124063Y-106154006D01*
X174202461Y-106124821D01*
X174272847Y-106073891D01*
X174322632Y-105996638D01*
X174337225Y-105947139D01*
X174342089Y-105892489D01*
X174331359Y-105806938D01*
X174299170Y-105744850D01*
X174248956Y-105701359D01*
X174184149Y-105671602D01*
X174110901Y-105653863D01*
X174041087Y-105639557D01*
X173995880Y-105619528D01*
X173975851Y-105582332D01*
X173994163Y-105547425D01*
X174036509Y-105533119D01*
X174074278Y-105537124D01*
X174096595Y-105545708D01*
X174112618Y-105558870D01*
X174125780Y-105569742D01*
X174202461Y-105590916D01*
X174269986Y-105535408D01*
X174297454Y-105465021D01*
X174289854Y-105454149D01*
X174401602Y-105454149D01*
X174401602Y-106045851D01*
X174403319Y-106085336D01*
X174414192Y-106116810D01*
X174446237Y-106143133D01*
X174505751Y-106151144D01*
X174926924Y-106151144D01*
X174966409Y-106149428D01*
X174997883Y-106138555D01*
X175024206Y-106106509D01*
X175032217Y-106046996D01*
X175024206Y-105986338D01*
X174998455Y-105954292D01*
X174967554Y-105943419D01*
X174928069Y-105941702D01*
X174611044Y-105941702D01*
X174611044Y-105839843D01*
X174820486Y-105839843D01*
X174858255Y-105838126D01*
X174886867Y-105828970D01*
X174909185Y-105802647D01*
X174915479Y-105751717D01*
X174909185Y-105699642D01*
X174887439Y-105672175D01*
X174859971Y-105663019D01*
X174822775Y-105661302D01*
X174611044Y-105661302D01*
X174611044Y-105559442D01*
X174926924Y-105559442D01*
X174966409Y-105557725D01*
X174997883Y-105546853D01*
X175024206Y-105514807D01*
X175032217Y-105455293D01*
X175029647Y-105435837D01*
X175065408Y-105435837D01*
X175072275Y-105487339D01*
X175094020Y-105514235D01*
X175119771Y-105523391D01*
X175152389Y-105525107D01*
X175311474Y-105525107D01*
X175311474Y-106048140D01*
X175313190Y-106086481D01*
X175323491Y-106117382D01*
X175354392Y-106143133D01*
X175413333Y-106151144D01*
X175472847Y-106143133D01*
X175504893Y-106117954D01*
X175515765Y-106087625D01*
X175517482Y-106049285D01*
X175517482Y-105525107D01*
X175675422Y-105525107D01*
X175708040Y-105523391D01*
X175734363Y-105514235D01*
X175756681Y-105487339D01*
X175763548Y-105436981D01*
X175756681Y-105386624D01*
X175734936Y-105359728D01*
X175709185Y-105350572D01*
X175676567Y-105348856D01*
X175153534Y-105348856D01*
X175120916Y-105350572D01*
X175094592Y-105359728D01*
X175072275Y-105386052D01*
X175065408Y-105435837D01*
X175029647Y-105435837D01*
X175024206Y-105394635D01*
X174998455Y-105362589D01*
X174967554Y-105351717D01*
X174928069Y-105350000D01*
X174509185Y-105350000D01*
X174425064Y-105372318D01*
X174401602Y-105454149D01*
X174289854Y-105454149D01*
X174256252Y-105406080D01*
X174196865Y-105367930D01*
X174123999Y-105345041D01*
X174037654Y-105337411D01*
X173964279Y-105345104D01*
X173899806Y-105368185D01*
X173844235Y-105406652D01*
X173801634Y-105456819D01*
X173776074Y-105514998D01*
X173767554Y-105581187D01*
X173776710Y-105655579D01*
X173804177Y-105717382D01*
X173849957Y-105766595D01*
X173914049Y-105803219D01*
X173957396Y-105818813D01*
X174011903Y-105833548D01*
X174101745Y-105860443D01*
X174131502Y-105895923D01*
X174110901Y-105949142D01*
X174043376Y-105965737D01*
X173998169Y-105954864D01*
X173951817Y-105913090D01*
X173900188Y-105871380D01*
X173850593Y-105863750D01*
X173803033Y-105890200D01*
X173754964Y-105963448D01*
X173695369Y-105963448D01*
X173688011Y-105954292D01*
X173657110Y-105943419D01*
X173617625Y-105941702D01*
X173300601Y-105941702D01*
X173300601Y-105839843D01*
X173510043Y-105839843D01*
X173547811Y-105838126D01*
X173576423Y-105828970D01*
X173598741Y-105802647D01*
X173605036Y-105751717D01*
X173598741Y-105699642D01*
X173576996Y-105672175D01*
X173549528Y-105663019D01*
X173512332Y-105661302D01*
X173300601Y-105661302D01*
X173300601Y-105559442D01*
X173616481Y-105559442D01*
X173655966Y-105557725D01*
X173687439Y-105546853D01*
X173713763Y-105514807D01*
X173721774Y-105455293D01*
X173713763Y-105394635D01*
X173688011Y-105362589D01*
X173657110Y-105351717D01*
X173617625Y-105350000D01*
X173198741Y-105350000D01*
X173114621Y-105372318D01*
X173091159Y-105454149D01*
X172953717Y-105454149D01*
X172920057Y-105420959D01*
X172873991Y-105390629D01*
X172826209Y-105368312D01*
X172778283Y-105354578D01*
X172731788Y-105350000D01*
X172501745Y-105350000D01*
X172441087Y-105358011D01*
X172409041Y-105384335D01*
X172398169Y-105415808D01*
X172396452Y-105454149D01*
X172205703Y-105454149D01*
X172205703Y-105146662D01*
X172396452Y-105146662D01*
X175763548Y-105146662D01*
X175954297Y-105146662D01*
X175954297Y-106353338D01*
G37*
%TD*%
M02*
