%TF.GenerationSoftware,KiCad,Pcbnew,8.0.4-1.fc40*%
%TF.CreationDate,2024-10-03T17:07:43+05:30*%
%TF.ProjectId,zepto,7a657074-6f2e-46b6-9963-61645f706362,Mark3*%
%TF.SameCoordinates,Original*%
%TF.FileFunction,Paste,Top*%
%TF.FilePolarity,Positive*%
%FSLAX46Y46*%
G04 Gerber Fmt 4.6, Leading zero omitted, Abs format (unit mm)*
G04 Created by KiCad (PCBNEW 8.0.4-1.fc40) date 2024-10-03 17:07:43*
%MOMM*%
%LPD*%
G01*
G04 APERTURE LIST*
G04 Aperture macros list*
%AMRoundRect*
0 Rectangle with rounded corners*
0 $1 Rounding radius*
0 $2 $3 $4 $5 $6 $7 $8 $9 X,Y pos of 4 corners*
0 Add a 4 corners polygon primitive as box body*
4,1,4,$2,$3,$4,$5,$6,$7,$8,$9,$2,$3,0*
0 Add four circle primitives for the rounded corners*
1,1,$1+$1,$2,$3*
1,1,$1+$1,$4,$5*
1,1,$1+$1,$6,$7*
1,1,$1+$1,$8,$9*
0 Add four rect primitives between the rounded corners*
20,1,$1+$1,$2,$3,$4,$5,0*
20,1,$1+$1,$4,$5,$6,$7,0*
20,1,$1+$1,$6,$7,$8,$9,0*
20,1,$1+$1,$8,$9,$2,$3,0*%
G04 Aperture macros list end*
%ADD10C,0.010000*%
%ADD11R,0.600000X1.550000*%
%ADD12R,1.200000X1.800000*%
%ADD13RoundRect,0.200000X-0.275000X0.200000X-0.275000X-0.200000X0.275000X-0.200000X0.275000X0.200000X0*%
%ADD14RoundRect,0.250000X-0.250000X-0.475000X0.250000X-0.475000X0.250000X0.475000X-0.250000X0.475000X0*%
%ADD15RoundRect,0.225000X-0.250000X0.225000X-0.250000X-0.225000X0.250000X-0.225000X0.250000X0.225000X0*%
%ADD16RoundRect,0.225000X0.225000X0.250000X-0.225000X0.250000X-0.225000X-0.250000X0.225000X-0.250000X0*%
%ADD17RoundRect,0.218750X0.218750X0.256250X-0.218750X0.256250X-0.218750X-0.256250X0.218750X-0.256250X0*%
%ADD18RoundRect,0.225000X-0.225000X-0.250000X0.225000X-0.250000X0.225000X0.250000X-0.225000X0.250000X0*%
%ADD19RoundRect,0.200000X0.275000X-0.200000X0.275000X0.200000X-0.275000X0.200000X-0.275000X-0.200000X0*%
%ADD20R,1.050000X0.650000*%
%ADD21RoundRect,0.050000X0.250000X0.075000X-0.250000X0.075000X-0.250000X-0.075000X0.250000X-0.075000X0*%
%ADD22RoundRect,0.050000X0.075000X0.250000X-0.075000X0.250000X-0.075000X-0.250000X0.075000X-0.250000X0*%
%ADD23RoundRect,0.200000X-0.200000X-0.275000X0.200000X-0.275000X0.200000X0.275000X-0.200000X0.275000X0*%
%ADD24RoundRect,0.218750X-0.218750X-0.256250X0.218750X-0.256250X0.218750X0.256250X-0.218750X0.256250X0*%
%ADD25RoundRect,0.218750X0.256250X-0.218750X0.256250X0.218750X-0.256250X0.218750X-0.256250X-0.218750X0*%
%ADD26RoundRect,0.200000X0.200000X0.275000X-0.200000X0.275000X-0.200000X-0.275000X0.200000X-0.275000X0*%
%ADD27RoundRect,0.225000X0.250000X-0.225000X0.250000X0.225000X-0.250000X0.225000X-0.250000X-0.225000X0*%
G04 APERTURE END LIST*
D10*
%TO.C,U4*%
X167905500Y-99492750D02*
X167907500Y-99492750D01*
X167910500Y-99493750D01*
X167912500Y-99493750D01*
X167915500Y-99494750D01*
X167917500Y-99495750D01*
X167920500Y-99496750D01*
X167922500Y-99498750D01*
X167924500Y-99499750D01*
X167926500Y-99501750D01*
X167928500Y-99502750D01*
X167930500Y-99504750D01*
X167932500Y-99506750D01*
X167934500Y-99508750D01*
X167936500Y-99510750D01*
X167937500Y-99512750D01*
X167939500Y-99514750D01*
X167940500Y-99516750D01*
X167942500Y-99518750D01*
X167943500Y-99521750D01*
X167944500Y-99523750D01*
X167945500Y-99526750D01*
X167945500Y-99528750D01*
X167946500Y-99531750D01*
X167946500Y-99533750D01*
X167947500Y-99536750D01*
X167947500Y-99538750D01*
X167947500Y-99541750D01*
X167947500Y-100931750D01*
X167947500Y-100934750D01*
X167947500Y-100936750D01*
X167946500Y-100939750D01*
X167946500Y-100941750D01*
X167945500Y-100944750D01*
X167945500Y-100946750D01*
X167944500Y-100949750D01*
X167943500Y-100951750D01*
X167942500Y-100954750D01*
X167940500Y-100956750D01*
X167939500Y-100958750D01*
X167937500Y-100960750D01*
X167936500Y-100962750D01*
X167934500Y-100964750D01*
X167932500Y-100966750D01*
X167930500Y-100968750D01*
X167928500Y-100970750D01*
X167926500Y-100971750D01*
X167924500Y-100973750D01*
X167922500Y-100974750D01*
X167920500Y-100976750D01*
X167917500Y-100977750D01*
X167915500Y-100978750D01*
X167912500Y-100979750D01*
X167910500Y-100979750D01*
X167907500Y-100980750D01*
X167905500Y-100980750D01*
X167902500Y-100981750D01*
X167900500Y-100981750D01*
X167897500Y-100981750D01*
X166507500Y-100981750D01*
X166504500Y-100981750D01*
X166502500Y-100981750D01*
X166499500Y-100980750D01*
X166497500Y-100980750D01*
X166494500Y-100979750D01*
X166492500Y-100979750D01*
X166489500Y-100978750D01*
X166487500Y-100977750D01*
X166484500Y-100976750D01*
X166482500Y-100974750D01*
X166480500Y-100973750D01*
X166478500Y-100971750D01*
X166476500Y-100970750D01*
X166474500Y-100968750D01*
X166472500Y-100966750D01*
X166470500Y-100964750D01*
X166468500Y-100962750D01*
X166467500Y-100960750D01*
X166465500Y-100958750D01*
X166464500Y-100956750D01*
X166462500Y-100954750D01*
X166461500Y-100951750D01*
X166460500Y-100949750D01*
X166459500Y-100946750D01*
X166459500Y-100944750D01*
X166458500Y-100941750D01*
X166458500Y-100939750D01*
X166457500Y-100936750D01*
X166457500Y-100934750D01*
X166457500Y-100931750D01*
X166457500Y-99541750D01*
X166457500Y-99538750D01*
X166457500Y-99536750D01*
X166458500Y-99533750D01*
X166458500Y-99531750D01*
X166459500Y-99528750D01*
X166459500Y-99526750D01*
X166460500Y-99523750D01*
X166461500Y-99521750D01*
X166462500Y-99518750D01*
X166464500Y-99516750D01*
X166465500Y-99514750D01*
X166467500Y-99512750D01*
X166468500Y-99510750D01*
X166470500Y-99508750D01*
X166472500Y-99506750D01*
X166474500Y-99504750D01*
X166476500Y-99502750D01*
X166478500Y-99501750D01*
X166480500Y-99499750D01*
X166482500Y-99498750D01*
X166484500Y-99496750D01*
X166487500Y-99495750D01*
X166489500Y-99494750D01*
X166492500Y-99493750D01*
X166494500Y-99493750D01*
X166497500Y-99492750D01*
X166499500Y-99492750D01*
X166502500Y-99491750D01*
X166504500Y-99491750D01*
X166507500Y-99491750D01*
X167897500Y-99491750D01*
X167900500Y-99491750D01*
X167902500Y-99491750D01*
X167905500Y-99492750D01*
G36*
X167905500Y-99492750D02*
G01*
X167907500Y-99492750D01*
X167910500Y-99493750D01*
X167912500Y-99493750D01*
X167915500Y-99494750D01*
X167917500Y-99495750D01*
X167920500Y-99496750D01*
X167922500Y-99498750D01*
X167924500Y-99499750D01*
X167926500Y-99501750D01*
X167928500Y-99502750D01*
X167930500Y-99504750D01*
X167932500Y-99506750D01*
X167934500Y-99508750D01*
X167936500Y-99510750D01*
X167937500Y-99512750D01*
X167939500Y-99514750D01*
X167940500Y-99516750D01*
X167942500Y-99518750D01*
X167943500Y-99521750D01*
X167944500Y-99523750D01*
X167945500Y-99526750D01*
X167945500Y-99528750D01*
X167946500Y-99531750D01*
X167946500Y-99533750D01*
X167947500Y-99536750D01*
X167947500Y-99538750D01*
X167947500Y-99541750D01*
X167947500Y-100931750D01*
X167947500Y-100934750D01*
X167947500Y-100936750D01*
X167946500Y-100939750D01*
X167946500Y-100941750D01*
X167945500Y-100944750D01*
X167945500Y-100946750D01*
X167944500Y-100949750D01*
X167943500Y-100951750D01*
X167942500Y-100954750D01*
X167940500Y-100956750D01*
X167939500Y-100958750D01*
X167937500Y-100960750D01*
X167936500Y-100962750D01*
X167934500Y-100964750D01*
X167932500Y-100966750D01*
X167930500Y-100968750D01*
X167928500Y-100970750D01*
X167926500Y-100971750D01*
X167924500Y-100973750D01*
X167922500Y-100974750D01*
X167920500Y-100976750D01*
X167917500Y-100977750D01*
X167915500Y-100978750D01*
X167912500Y-100979750D01*
X167910500Y-100979750D01*
X167907500Y-100980750D01*
X167905500Y-100980750D01*
X167902500Y-100981750D01*
X167900500Y-100981750D01*
X167897500Y-100981750D01*
X166507500Y-100981750D01*
X166504500Y-100981750D01*
X166502500Y-100981750D01*
X166499500Y-100980750D01*
X166497500Y-100980750D01*
X166494500Y-100979750D01*
X166492500Y-100979750D01*
X166489500Y-100978750D01*
X166487500Y-100977750D01*
X166484500Y-100976750D01*
X166482500Y-100974750D01*
X166480500Y-100973750D01*
X166478500Y-100971750D01*
X166476500Y-100970750D01*
X166474500Y-100968750D01*
X166472500Y-100966750D01*
X166470500Y-100964750D01*
X166468500Y-100962750D01*
X166467500Y-100960750D01*
X166465500Y-100958750D01*
X166464500Y-100956750D01*
X166462500Y-100954750D01*
X166461500Y-100951750D01*
X166460500Y-100949750D01*
X166459500Y-100946750D01*
X166459500Y-100944750D01*
X166458500Y-100941750D01*
X166458500Y-100939750D01*
X166457500Y-100936750D01*
X166457500Y-100934750D01*
X166457500Y-100931750D01*
X166457500Y-99541750D01*
X166457500Y-99538750D01*
X166457500Y-99536750D01*
X166458500Y-99533750D01*
X166458500Y-99531750D01*
X166459500Y-99528750D01*
X166459500Y-99526750D01*
X166460500Y-99523750D01*
X166461500Y-99521750D01*
X166462500Y-99518750D01*
X166464500Y-99516750D01*
X166465500Y-99514750D01*
X166467500Y-99512750D01*
X166468500Y-99510750D01*
X166470500Y-99508750D01*
X166472500Y-99506750D01*
X166474500Y-99504750D01*
X166476500Y-99502750D01*
X166478500Y-99501750D01*
X166480500Y-99499750D01*
X166482500Y-99498750D01*
X166484500Y-99496750D01*
X166487500Y-99495750D01*
X166489500Y-99494750D01*
X166492500Y-99493750D01*
X166494500Y-99493750D01*
X166497500Y-99492750D01*
X166499500Y-99492750D01*
X166502500Y-99491750D01*
X166504500Y-99491750D01*
X166507500Y-99491750D01*
X167897500Y-99491750D01*
X167900500Y-99491750D01*
X167902500Y-99491750D01*
X167905500Y-99492750D01*
G37*
X167905500Y-101182750D02*
X167907500Y-101182750D01*
X167910500Y-101183750D01*
X167912500Y-101183750D01*
X167915500Y-101184750D01*
X167917500Y-101185750D01*
X167920500Y-101186750D01*
X167922500Y-101188750D01*
X167924500Y-101189750D01*
X167926500Y-101191750D01*
X167928500Y-101192750D01*
X167930500Y-101194750D01*
X167932500Y-101196750D01*
X167934500Y-101198750D01*
X167936500Y-101200750D01*
X167937500Y-101202750D01*
X167939500Y-101204750D01*
X167940500Y-101206750D01*
X167942500Y-101208750D01*
X167943500Y-101211750D01*
X167944500Y-101213750D01*
X167945500Y-101216750D01*
X167945500Y-101218750D01*
X167946500Y-101221750D01*
X167946500Y-101223750D01*
X167947500Y-101226750D01*
X167947500Y-101228750D01*
X167947500Y-101231750D01*
X167947500Y-102621750D01*
X167947500Y-102624750D01*
X167947500Y-102626750D01*
X167946500Y-102629750D01*
X167946500Y-102631750D01*
X167945500Y-102634750D01*
X167945500Y-102636750D01*
X167944500Y-102639750D01*
X167943500Y-102641750D01*
X167942500Y-102644750D01*
X167940500Y-102646750D01*
X167939500Y-102648750D01*
X167937500Y-102650750D01*
X167936500Y-102652750D01*
X167934500Y-102654750D01*
X167932500Y-102656750D01*
X167930500Y-102658750D01*
X167928500Y-102660750D01*
X167926500Y-102661750D01*
X167924500Y-102663750D01*
X167922500Y-102664750D01*
X167920500Y-102666750D01*
X167917500Y-102667750D01*
X167915500Y-102668750D01*
X167912500Y-102669750D01*
X167910500Y-102669750D01*
X167907500Y-102670750D01*
X167905500Y-102670750D01*
X167902500Y-102671750D01*
X167900500Y-102671750D01*
X167897500Y-102671750D01*
X166507500Y-102671750D01*
X166504500Y-102671750D01*
X166502500Y-102671750D01*
X166499500Y-102670750D01*
X166497500Y-102670750D01*
X166494500Y-102669750D01*
X166492500Y-102669750D01*
X166489500Y-102668750D01*
X166487500Y-102667750D01*
X166484500Y-102666750D01*
X166482500Y-102664750D01*
X166480500Y-102663750D01*
X166478500Y-102661750D01*
X166476500Y-102660750D01*
X166474500Y-102658750D01*
X166472500Y-102656750D01*
X166470500Y-102654750D01*
X166468500Y-102652750D01*
X166467500Y-102650750D01*
X166465500Y-102648750D01*
X166464500Y-102646750D01*
X166462500Y-102644750D01*
X166461500Y-102641750D01*
X166460500Y-102639750D01*
X166459500Y-102636750D01*
X166459500Y-102634750D01*
X166458500Y-102631750D01*
X166458500Y-102629750D01*
X166457500Y-102626750D01*
X166457500Y-102624750D01*
X166457500Y-102621750D01*
X166457500Y-101231750D01*
X166457500Y-101228750D01*
X166457500Y-101226750D01*
X166458500Y-101223750D01*
X166458500Y-101221750D01*
X166459500Y-101218750D01*
X166459500Y-101216750D01*
X166460500Y-101213750D01*
X166461500Y-101211750D01*
X166462500Y-101208750D01*
X166464500Y-101206750D01*
X166465500Y-101204750D01*
X166467500Y-101202750D01*
X166468500Y-101200750D01*
X166470500Y-101198750D01*
X166472500Y-101196750D01*
X166474500Y-101194750D01*
X166476500Y-101192750D01*
X166478500Y-101191750D01*
X166480500Y-101189750D01*
X166482500Y-101188750D01*
X166484500Y-101186750D01*
X166487500Y-101185750D01*
X166489500Y-101184750D01*
X166492500Y-101183750D01*
X166494500Y-101183750D01*
X166497500Y-101182750D01*
X166499500Y-101182750D01*
X166502500Y-101181750D01*
X166504500Y-101181750D01*
X166507500Y-101181750D01*
X167897500Y-101181750D01*
X167900500Y-101181750D01*
X167902500Y-101181750D01*
X167905500Y-101182750D01*
G36*
X167905500Y-101182750D02*
G01*
X167907500Y-101182750D01*
X167910500Y-101183750D01*
X167912500Y-101183750D01*
X167915500Y-101184750D01*
X167917500Y-101185750D01*
X167920500Y-101186750D01*
X167922500Y-101188750D01*
X167924500Y-101189750D01*
X167926500Y-101191750D01*
X167928500Y-101192750D01*
X167930500Y-101194750D01*
X167932500Y-101196750D01*
X167934500Y-101198750D01*
X167936500Y-101200750D01*
X167937500Y-101202750D01*
X167939500Y-101204750D01*
X167940500Y-101206750D01*
X167942500Y-101208750D01*
X167943500Y-101211750D01*
X167944500Y-101213750D01*
X167945500Y-101216750D01*
X167945500Y-101218750D01*
X167946500Y-101221750D01*
X167946500Y-101223750D01*
X167947500Y-101226750D01*
X167947500Y-101228750D01*
X167947500Y-101231750D01*
X167947500Y-102621750D01*
X167947500Y-102624750D01*
X167947500Y-102626750D01*
X167946500Y-102629750D01*
X167946500Y-102631750D01*
X167945500Y-102634750D01*
X167945500Y-102636750D01*
X167944500Y-102639750D01*
X167943500Y-102641750D01*
X167942500Y-102644750D01*
X167940500Y-102646750D01*
X167939500Y-102648750D01*
X167937500Y-102650750D01*
X167936500Y-102652750D01*
X167934500Y-102654750D01*
X167932500Y-102656750D01*
X167930500Y-102658750D01*
X167928500Y-102660750D01*
X167926500Y-102661750D01*
X167924500Y-102663750D01*
X167922500Y-102664750D01*
X167920500Y-102666750D01*
X167917500Y-102667750D01*
X167915500Y-102668750D01*
X167912500Y-102669750D01*
X167910500Y-102669750D01*
X167907500Y-102670750D01*
X167905500Y-102670750D01*
X167902500Y-102671750D01*
X167900500Y-102671750D01*
X167897500Y-102671750D01*
X166507500Y-102671750D01*
X166504500Y-102671750D01*
X166502500Y-102671750D01*
X166499500Y-102670750D01*
X166497500Y-102670750D01*
X166494500Y-102669750D01*
X166492500Y-102669750D01*
X166489500Y-102668750D01*
X166487500Y-102667750D01*
X166484500Y-102666750D01*
X166482500Y-102664750D01*
X166480500Y-102663750D01*
X166478500Y-102661750D01*
X166476500Y-102660750D01*
X166474500Y-102658750D01*
X166472500Y-102656750D01*
X166470500Y-102654750D01*
X166468500Y-102652750D01*
X166467500Y-102650750D01*
X166465500Y-102648750D01*
X166464500Y-102646750D01*
X166462500Y-102644750D01*
X166461500Y-102641750D01*
X166460500Y-102639750D01*
X166459500Y-102636750D01*
X166459500Y-102634750D01*
X166458500Y-102631750D01*
X166458500Y-102629750D01*
X166457500Y-102626750D01*
X166457500Y-102624750D01*
X166457500Y-102621750D01*
X166457500Y-101231750D01*
X166457500Y-101228750D01*
X166457500Y-101226750D01*
X166458500Y-101223750D01*
X166458500Y-101221750D01*
X166459500Y-101218750D01*
X166459500Y-101216750D01*
X166460500Y-101213750D01*
X166461500Y-101211750D01*
X166462500Y-101208750D01*
X166464500Y-101206750D01*
X166465500Y-101204750D01*
X166467500Y-101202750D01*
X166468500Y-101200750D01*
X166470500Y-101198750D01*
X166472500Y-101196750D01*
X166474500Y-101194750D01*
X166476500Y-101192750D01*
X166478500Y-101191750D01*
X166480500Y-101189750D01*
X166482500Y-101188750D01*
X166484500Y-101186750D01*
X166487500Y-101185750D01*
X166489500Y-101184750D01*
X166492500Y-101183750D01*
X166494500Y-101183750D01*
X166497500Y-101182750D01*
X166499500Y-101182750D01*
X166502500Y-101181750D01*
X166504500Y-101181750D01*
X166507500Y-101181750D01*
X167897500Y-101181750D01*
X167900500Y-101181750D01*
X167902500Y-101181750D01*
X167905500Y-101182750D01*
G37*
X169595500Y-99492750D02*
X169597500Y-99492750D01*
X169600500Y-99493750D01*
X169602500Y-99493750D01*
X169605500Y-99494750D01*
X169607500Y-99495750D01*
X169610500Y-99496750D01*
X169612500Y-99498750D01*
X169614500Y-99499750D01*
X169616500Y-99501750D01*
X169618500Y-99502750D01*
X169620500Y-99504750D01*
X169622500Y-99506750D01*
X169624500Y-99508750D01*
X169626500Y-99510750D01*
X169627500Y-99512750D01*
X169629500Y-99514750D01*
X169630500Y-99516750D01*
X169632500Y-99518750D01*
X169633500Y-99521750D01*
X169634500Y-99523750D01*
X169635500Y-99526750D01*
X169635500Y-99528750D01*
X169636500Y-99531750D01*
X169636500Y-99533750D01*
X169637500Y-99536750D01*
X169637500Y-99538750D01*
X169637500Y-99541750D01*
X169637500Y-100931750D01*
X169637500Y-100934750D01*
X169637500Y-100936750D01*
X169636500Y-100939750D01*
X169636500Y-100941750D01*
X169635500Y-100944750D01*
X169635500Y-100946750D01*
X169634500Y-100949750D01*
X169633500Y-100951750D01*
X169632500Y-100954750D01*
X169630500Y-100956750D01*
X169629500Y-100958750D01*
X169627500Y-100960750D01*
X169626500Y-100962750D01*
X169624500Y-100964750D01*
X169622500Y-100966750D01*
X169620500Y-100968750D01*
X169618500Y-100970750D01*
X169616500Y-100971750D01*
X169614500Y-100973750D01*
X169612500Y-100974750D01*
X169610500Y-100976750D01*
X169607500Y-100977750D01*
X169605500Y-100978750D01*
X169602500Y-100979750D01*
X169600500Y-100979750D01*
X169597500Y-100980750D01*
X169595500Y-100980750D01*
X169592500Y-100981750D01*
X169590500Y-100981750D01*
X169587500Y-100981750D01*
X168197500Y-100981750D01*
X168194500Y-100981750D01*
X168192500Y-100981750D01*
X168189500Y-100980750D01*
X168187500Y-100980750D01*
X168184500Y-100979750D01*
X168182500Y-100979750D01*
X168179500Y-100978750D01*
X168177500Y-100977750D01*
X168174500Y-100976750D01*
X168172500Y-100974750D01*
X168170500Y-100973750D01*
X168168500Y-100971750D01*
X168166500Y-100970750D01*
X168164500Y-100968750D01*
X168162500Y-100966750D01*
X168160500Y-100964750D01*
X168158500Y-100962750D01*
X168157500Y-100960750D01*
X168155500Y-100958750D01*
X168154500Y-100956750D01*
X168152500Y-100954750D01*
X168151500Y-100951750D01*
X168150500Y-100949750D01*
X168149500Y-100946750D01*
X168149500Y-100944750D01*
X168148500Y-100941750D01*
X168148500Y-100939750D01*
X168147500Y-100936750D01*
X168147500Y-100934750D01*
X168147500Y-100931750D01*
X168147500Y-99541750D01*
X168147500Y-99538750D01*
X168147500Y-99536750D01*
X168148500Y-99533750D01*
X168148500Y-99531750D01*
X168149500Y-99528750D01*
X168149500Y-99526750D01*
X168150500Y-99523750D01*
X168151500Y-99521750D01*
X168152500Y-99518750D01*
X168154500Y-99516750D01*
X168155500Y-99514750D01*
X168157500Y-99512750D01*
X168158500Y-99510750D01*
X168160500Y-99508750D01*
X168162500Y-99506750D01*
X168164500Y-99504750D01*
X168166500Y-99502750D01*
X168168500Y-99501750D01*
X168170500Y-99499750D01*
X168172500Y-99498750D01*
X168174500Y-99496750D01*
X168177500Y-99495750D01*
X168179500Y-99494750D01*
X168182500Y-99493750D01*
X168184500Y-99493750D01*
X168187500Y-99492750D01*
X168189500Y-99492750D01*
X168192500Y-99491750D01*
X168194500Y-99491750D01*
X168197500Y-99491750D01*
X169587500Y-99491750D01*
X169590500Y-99491750D01*
X169592500Y-99491750D01*
X169595500Y-99492750D01*
G36*
X169595500Y-99492750D02*
G01*
X169597500Y-99492750D01*
X169600500Y-99493750D01*
X169602500Y-99493750D01*
X169605500Y-99494750D01*
X169607500Y-99495750D01*
X169610500Y-99496750D01*
X169612500Y-99498750D01*
X169614500Y-99499750D01*
X169616500Y-99501750D01*
X169618500Y-99502750D01*
X169620500Y-99504750D01*
X169622500Y-99506750D01*
X169624500Y-99508750D01*
X169626500Y-99510750D01*
X169627500Y-99512750D01*
X169629500Y-99514750D01*
X169630500Y-99516750D01*
X169632500Y-99518750D01*
X169633500Y-99521750D01*
X169634500Y-99523750D01*
X169635500Y-99526750D01*
X169635500Y-99528750D01*
X169636500Y-99531750D01*
X169636500Y-99533750D01*
X169637500Y-99536750D01*
X169637500Y-99538750D01*
X169637500Y-99541750D01*
X169637500Y-100931750D01*
X169637500Y-100934750D01*
X169637500Y-100936750D01*
X169636500Y-100939750D01*
X169636500Y-100941750D01*
X169635500Y-100944750D01*
X169635500Y-100946750D01*
X169634500Y-100949750D01*
X169633500Y-100951750D01*
X169632500Y-100954750D01*
X169630500Y-100956750D01*
X169629500Y-100958750D01*
X169627500Y-100960750D01*
X169626500Y-100962750D01*
X169624500Y-100964750D01*
X169622500Y-100966750D01*
X169620500Y-100968750D01*
X169618500Y-100970750D01*
X169616500Y-100971750D01*
X169614500Y-100973750D01*
X169612500Y-100974750D01*
X169610500Y-100976750D01*
X169607500Y-100977750D01*
X169605500Y-100978750D01*
X169602500Y-100979750D01*
X169600500Y-100979750D01*
X169597500Y-100980750D01*
X169595500Y-100980750D01*
X169592500Y-100981750D01*
X169590500Y-100981750D01*
X169587500Y-100981750D01*
X168197500Y-100981750D01*
X168194500Y-100981750D01*
X168192500Y-100981750D01*
X168189500Y-100980750D01*
X168187500Y-100980750D01*
X168184500Y-100979750D01*
X168182500Y-100979750D01*
X168179500Y-100978750D01*
X168177500Y-100977750D01*
X168174500Y-100976750D01*
X168172500Y-100974750D01*
X168170500Y-100973750D01*
X168168500Y-100971750D01*
X168166500Y-100970750D01*
X168164500Y-100968750D01*
X168162500Y-100966750D01*
X168160500Y-100964750D01*
X168158500Y-100962750D01*
X168157500Y-100960750D01*
X168155500Y-100958750D01*
X168154500Y-100956750D01*
X168152500Y-100954750D01*
X168151500Y-100951750D01*
X168150500Y-100949750D01*
X168149500Y-100946750D01*
X168149500Y-100944750D01*
X168148500Y-100941750D01*
X168148500Y-100939750D01*
X168147500Y-100936750D01*
X168147500Y-100934750D01*
X168147500Y-100931750D01*
X168147500Y-99541750D01*
X168147500Y-99538750D01*
X168147500Y-99536750D01*
X168148500Y-99533750D01*
X168148500Y-99531750D01*
X168149500Y-99528750D01*
X168149500Y-99526750D01*
X168150500Y-99523750D01*
X168151500Y-99521750D01*
X168152500Y-99518750D01*
X168154500Y-99516750D01*
X168155500Y-99514750D01*
X168157500Y-99512750D01*
X168158500Y-99510750D01*
X168160500Y-99508750D01*
X168162500Y-99506750D01*
X168164500Y-99504750D01*
X168166500Y-99502750D01*
X168168500Y-99501750D01*
X168170500Y-99499750D01*
X168172500Y-99498750D01*
X168174500Y-99496750D01*
X168177500Y-99495750D01*
X168179500Y-99494750D01*
X168182500Y-99493750D01*
X168184500Y-99493750D01*
X168187500Y-99492750D01*
X168189500Y-99492750D01*
X168192500Y-99491750D01*
X168194500Y-99491750D01*
X168197500Y-99491750D01*
X169587500Y-99491750D01*
X169590500Y-99491750D01*
X169592500Y-99491750D01*
X169595500Y-99492750D01*
G37*
X169595500Y-101182750D02*
X169597500Y-101182750D01*
X169600500Y-101183750D01*
X169602500Y-101183750D01*
X169605500Y-101184750D01*
X169607500Y-101185750D01*
X169610500Y-101186750D01*
X169612500Y-101188750D01*
X169614500Y-101189750D01*
X169616500Y-101191750D01*
X169618500Y-101192750D01*
X169620500Y-101194750D01*
X169622500Y-101196750D01*
X169624500Y-101198750D01*
X169626500Y-101200750D01*
X169627500Y-101202750D01*
X169629500Y-101204750D01*
X169630500Y-101206750D01*
X169632500Y-101208750D01*
X169633500Y-101211750D01*
X169634500Y-101213750D01*
X169635500Y-101216750D01*
X169635500Y-101218750D01*
X169636500Y-101221750D01*
X169636500Y-101223750D01*
X169637500Y-101226750D01*
X169637500Y-101228750D01*
X169637500Y-101231750D01*
X169637500Y-102621750D01*
X169637500Y-102624750D01*
X169637500Y-102626750D01*
X169636500Y-102629750D01*
X169636500Y-102631750D01*
X169635500Y-102634750D01*
X169635500Y-102636750D01*
X169634500Y-102639750D01*
X169633500Y-102641750D01*
X169632500Y-102644750D01*
X169630500Y-102646750D01*
X169629500Y-102648750D01*
X169627500Y-102650750D01*
X169626500Y-102652750D01*
X169624500Y-102654750D01*
X169622500Y-102656750D01*
X169620500Y-102658750D01*
X169618500Y-102660750D01*
X169616500Y-102661750D01*
X169614500Y-102663750D01*
X169612500Y-102664750D01*
X169610500Y-102666750D01*
X169607500Y-102667750D01*
X169605500Y-102668750D01*
X169602500Y-102669750D01*
X169600500Y-102669750D01*
X169597500Y-102670750D01*
X169595500Y-102670750D01*
X169592500Y-102671750D01*
X169590500Y-102671750D01*
X169587500Y-102671750D01*
X168197500Y-102671750D01*
X168194500Y-102671750D01*
X168192500Y-102671750D01*
X168189500Y-102670750D01*
X168187500Y-102670750D01*
X168184500Y-102669750D01*
X168182500Y-102669750D01*
X168179500Y-102668750D01*
X168177500Y-102667750D01*
X168174500Y-102666750D01*
X168172500Y-102664750D01*
X168170500Y-102663750D01*
X168168500Y-102661750D01*
X168166500Y-102660750D01*
X168164500Y-102658750D01*
X168162500Y-102656750D01*
X168160500Y-102654750D01*
X168158500Y-102652750D01*
X168157500Y-102650750D01*
X168155500Y-102648750D01*
X168154500Y-102646750D01*
X168152500Y-102644750D01*
X168151500Y-102641750D01*
X168150500Y-102639750D01*
X168149500Y-102636750D01*
X168149500Y-102634750D01*
X168148500Y-102631750D01*
X168148500Y-102629750D01*
X168147500Y-102626750D01*
X168147500Y-102624750D01*
X168147500Y-102621750D01*
X168147500Y-101231750D01*
X168147500Y-101228750D01*
X168147500Y-101226750D01*
X168148500Y-101223750D01*
X168148500Y-101221750D01*
X168149500Y-101218750D01*
X168149500Y-101216750D01*
X168150500Y-101213750D01*
X168151500Y-101211750D01*
X168152500Y-101208750D01*
X168154500Y-101206750D01*
X168155500Y-101204750D01*
X168157500Y-101202750D01*
X168158500Y-101200750D01*
X168160500Y-101198750D01*
X168162500Y-101196750D01*
X168164500Y-101194750D01*
X168166500Y-101192750D01*
X168168500Y-101191750D01*
X168170500Y-101189750D01*
X168172500Y-101188750D01*
X168174500Y-101186750D01*
X168177500Y-101185750D01*
X168179500Y-101184750D01*
X168182500Y-101183750D01*
X168184500Y-101183750D01*
X168187500Y-101182750D01*
X168189500Y-101182750D01*
X168192500Y-101181750D01*
X168194500Y-101181750D01*
X168197500Y-101181750D01*
X169587500Y-101181750D01*
X169590500Y-101181750D01*
X169592500Y-101181750D01*
X169595500Y-101182750D01*
G36*
X169595500Y-101182750D02*
G01*
X169597500Y-101182750D01*
X169600500Y-101183750D01*
X169602500Y-101183750D01*
X169605500Y-101184750D01*
X169607500Y-101185750D01*
X169610500Y-101186750D01*
X169612500Y-101188750D01*
X169614500Y-101189750D01*
X169616500Y-101191750D01*
X169618500Y-101192750D01*
X169620500Y-101194750D01*
X169622500Y-101196750D01*
X169624500Y-101198750D01*
X169626500Y-101200750D01*
X169627500Y-101202750D01*
X169629500Y-101204750D01*
X169630500Y-101206750D01*
X169632500Y-101208750D01*
X169633500Y-101211750D01*
X169634500Y-101213750D01*
X169635500Y-101216750D01*
X169635500Y-101218750D01*
X169636500Y-101221750D01*
X169636500Y-101223750D01*
X169637500Y-101226750D01*
X169637500Y-101228750D01*
X169637500Y-101231750D01*
X169637500Y-102621750D01*
X169637500Y-102624750D01*
X169637500Y-102626750D01*
X169636500Y-102629750D01*
X169636500Y-102631750D01*
X169635500Y-102634750D01*
X169635500Y-102636750D01*
X169634500Y-102639750D01*
X169633500Y-102641750D01*
X169632500Y-102644750D01*
X169630500Y-102646750D01*
X169629500Y-102648750D01*
X169627500Y-102650750D01*
X169626500Y-102652750D01*
X169624500Y-102654750D01*
X169622500Y-102656750D01*
X169620500Y-102658750D01*
X169618500Y-102660750D01*
X169616500Y-102661750D01*
X169614500Y-102663750D01*
X169612500Y-102664750D01*
X169610500Y-102666750D01*
X169607500Y-102667750D01*
X169605500Y-102668750D01*
X169602500Y-102669750D01*
X169600500Y-102669750D01*
X169597500Y-102670750D01*
X169595500Y-102670750D01*
X169592500Y-102671750D01*
X169590500Y-102671750D01*
X169587500Y-102671750D01*
X168197500Y-102671750D01*
X168194500Y-102671750D01*
X168192500Y-102671750D01*
X168189500Y-102670750D01*
X168187500Y-102670750D01*
X168184500Y-102669750D01*
X168182500Y-102669750D01*
X168179500Y-102668750D01*
X168177500Y-102667750D01*
X168174500Y-102666750D01*
X168172500Y-102664750D01*
X168170500Y-102663750D01*
X168168500Y-102661750D01*
X168166500Y-102660750D01*
X168164500Y-102658750D01*
X168162500Y-102656750D01*
X168160500Y-102654750D01*
X168158500Y-102652750D01*
X168157500Y-102650750D01*
X168155500Y-102648750D01*
X168154500Y-102646750D01*
X168152500Y-102644750D01*
X168151500Y-102641750D01*
X168150500Y-102639750D01*
X168149500Y-102636750D01*
X168149500Y-102634750D01*
X168148500Y-102631750D01*
X168148500Y-102629750D01*
X168147500Y-102626750D01*
X168147500Y-102624750D01*
X168147500Y-102621750D01*
X168147500Y-101231750D01*
X168147500Y-101228750D01*
X168147500Y-101226750D01*
X168148500Y-101223750D01*
X168148500Y-101221750D01*
X168149500Y-101218750D01*
X168149500Y-101216750D01*
X168150500Y-101213750D01*
X168151500Y-101211750D01*
X168152500Y-101208750D01*
X168154500Y-101206750D01*
X168155500Y-101204750D01*
X168157500Y-101202750D01*
X168158500Y-101200750D01*
X168160500Y-101198750D01*
X168162500Y-101196750D01*
X168164500Y-101194750D01*
X168166500Y-101192750D01*
X168168500Y-101191750D01*
X168170500Y-101189750D01*
X168172500Y-101188750D01*
X168174500Y-101186750D01*
X168177500Y-101185750D01*
X168179500Y-101184750D01*
X168182500Y-101183750D01*
X168184500Y-101183750D01*
X168187500Y-101182750D01*
X168189500Y-101182750D01*
X168192500Y-101181750D01*
X168194500Y-101181750D01*
X168197500Y-101181750D01*
X169587500Y-101181750D01*
X169590500Y-101181750D01*
X169592500Y-101181750D01*
X169595500Y-101182750D01*
G37*
%TD*%
D11*
%TO.C,J4*%
X164400000Y-89300000D03*
X163400000Y-89300000D03*
X162400000Y-89300000D03*
X161400000Y-89300000D03*
D12*
X165700000Y-85425000D03*
X160100000Y-85425000D03*
%TD*%
D13*
%TO.C,R8*%
X160010000Y-98485000D03*
X160010000Y-100135000D03*
%TD*%
%TO.C,R7*%
X159800000Y-104775000D03*
X159800000Y-106425000D03*
%TD*%
D14*
%TO.C,C3*%
X170800000Y-94950000D03*
X172700000Y-94950000D03*
%TD*%
D15*
%TO.C,C8*%
X167906666Y-107845000D03*
X167906666Y-109395000D03*
%TD*%
D16*
%TO.C,C2*%
X176625000Y-94750000D03*
X175075000Y-94750000D03*
%TD*%
D17*
%TO.C,FB1*%
X176637500Y-93100000D03*
X175062500Y-93100000D03*
%TD*%
D18*
%TO.C,C5*%
X175095000Y-91450000D03*
X176645000Y-91450000D03*
%TD*%
D19*
%TO.C,R1*%
X172200000Y-99975000D03*
X172200000Y-98325000D03*
%TD*%
D20*
%TO.C,SW1*%
X176175000Y-109325000D03*
X172025000Y-109325000D03*
X176175000Y-107175000D03*
X172025000Y-107175000D03*
%TD*%
D11*
%TO.C,J2*%
X175200000Y-89300000D03*
X174200000Y-89300000D03*
X173200000Y-89300000D03*
X172200000Y-89300000D03*
D12*
X176500000Y-85425000D03*
X170900000Y-85425000D03*
%TD*%
D19*
%TO.C,R4*%
X169943332Y-109445000D03*
X169943332Y-107795000D03*
%TD*%
D21*
%TO.C,U4*%
X170447500Y-102831750D03*
X170447500Y-102331750D03*
X170447500Y-101831750D03*
X170447500Y-101331750D03*
X170447500Y-100831750D03*
X170447500Y-100331750D03*
X170447500Y-99831750D03*
X170447500Y-99331750D03*
D22*
X169797500Y-98681750D03*
X169297500Y-98681750D03*
X168797500Y-98681750D03*
X168297500Y-98681750D03*
X167797500Y-98681750D03*
X167297500Y-98681750D03*
X166797500Y-98681750D03*
X166297500Y-98681750D03*
D21*
X165647500Y-99331750D03*
X165647500Y-99831750D03*
X165647500Y-100331750D03*
X165647500Y-100831750D03*
X165647500Y-101331750D03*
X165647500Y-101831750D03*
X165647500Y-102331750D03*
X165647500Y-102831750D03*
D22*
X166297500Y-103481750D03*
X166797500Y-103481750D03*
X167297500Y-103481750D03*
X167797500Y-103481750D03*
X168297500Y-103481750D03*
X168797500Y-103481750D03*
X169297500Y-103481750D03*
X169797500Y-103481750D03*
%TD*%
D18*
%TO.C,C6*%
X164295000Y-91450000D03*
X165845000Y-91450000D03*
%TD*%
D16*
%TO.C,C4*%
X172305000Y-93100000D03*
X170755000Y-93100000D03*
%TD*%
D23*
%TO.C,R2*%
X167425000Y-88600000D03*
X169075000Y-88600000D03*
%TD*%
%TO.C,R5*%
X170705000Y-91450000D03*
X172355000Y-91450000D03*
%TD*%
D18*
%TO.C,C10*%
X171775000Y-104250000D03*
X173325000Y-104250000D03*
%TD*%
D19*
%TO.C,R6*%
X159800000Y-110625000D03*
X159800000Y-108975000D03*
%TD*%
D15*
%TO.C,C1*%
X173750000Y-98375000D03*
X173750000Y-99925000D03*
%TD*%
D24*
%TO.C,D2*%
X167462500Y-87050000D03*
X169037500Y-87050000D03*
%TD*%
D25*
%TO.C,D1*%
X160005000Y-97047500D03*
X160005000Y-95472500D03*
%TD*%
D20*
%TO.C,SW2*%
X165825000Y-109325000D03*
X161675000Y-109325000D03*
X165825000Y-107175000D03*
X161675000Y-107175000D03*
%TD*%
D26*
%TO.C,R3*%
X161555000Y-91450000D03*
X159905000Y-91450000D03*
%TD*%
D27*
%TO.C,C9*%
X175300000Y-99925000D03*
X175300000Y-98375000D03*
%TD*%
M02*
